<?xml version="1.0" encoding="utf-8"?>
<!-- Generator: Adobe Illustrator 16.0.0, SVG Export Plug-In . SVG Version: 6.00 Build 0)  -->
<!DOCTYPE svg PUBLIC "-//W3C//DTD SVG 1.1//EN" "http://www.w3.org/Graphics/SVG/1.1/DTD/svg11.dtd">
<svg version="1.1" id="Layer_1" xmlns="http://www.w3.org/2000/svg" xmlns:xlink="http://www.w3.org/1999/xlink" x="0px" y="0px"
	 width="1525px" height="616px" viewBox="0 0 1525 616" enable-background="new 0 0 1525 616" xml:space="preserve">
<g id="Layer_3">
</g>
<radialGradient id="SVGID_1_" cx="213.9124" cy="65.9939" r="690.9603" gradientTransform="matrix(1.9125 0 0 -1.5636 358.2032 1416.8018)" gradientUnits="userSpaceOnUse">
	<stop  offset="0.6059" style="stop-color:#FFE5FF"/>
	<stop  offset="1" style="stop-color:#FFFFFF;stop-opacity:0"/>
</radialGradient>
<path opacity="0.3" fill="url(#SVGID_1_)" enable-background="new    " d="M2285.949,1313.615
	c0,596.913-679.92,1080.803-1518.64,1080.803c-838.721,0-1518.64-483.891-1518.64-1080.803
	c0-596.909,679.917-1080.805,1518.64-1080.805C1606.029,232.81,2285.949,716.706,2285.949,1313.615z"/>
<path opacity="0.07" fill="none" stroke="#8594FF" stroke-width="0.8667" stroke-miterlimit="10" enable-background="new    " d="
	M1737.166,891.686c-214.758-272.521-573.609-451.097-980.048-451.097c-406.439,0-765.291,178.575-980.049,451.097H1737.166z"/>
<path opacity="0.1" fill="none" stroke="#7676FF" stroke-width="1.0311" stroke-miterlimit="10" enable-background="new    " d="
	M1893.172,924.68c-248.942-332.771-664.919-550.827-1136.054-550.827c-471.136,0-887.112,218.056-1136.056,550.827H1893.172z"/>
<path opacity="0.1" fill="none" stroke="#7676FF" stroke-width="1.3557" stroke-miterlimit="10" enable-background="new    " d="
	M2157.919,1039.836c-309.382-462.863-826.347-766.162-1411.867-766.162S-356.432,576.973-665.816,1039.836H2157.919z"/>
<path opacity="0.07" fill="none" stroke="#EBEDE4" stroke-width="1.7556" stroke-miterlimit="10" enable-background="new    " d="
	M2515,1175.042C2128.891,553.092,1483.716,145.548,752.986,145.548S-622.918,553.092-1009.03,1175.042H2515z"/>
<path fill="#EBEDE4" d="M1625.156,863.897c-190.143-215.942-507.861-357.443-867.711-357.443
	c-359.851,0-677.569,141.501-867.711,357.443H1625.156z"/>
<ellipse fill="#DFE0DA" cx="705.173" cy="633.353" rx="57.54" ry="22.823"/>
<path fill="#C3C4BB" d="M705.646,610.533c-0.953,0-1.899,0.01-2.841,0.026c30.458,0.59,45.324,10.998,43.979,23.131
	c-0.71,6.406-13.521,21.869-43.979,22.458c0.942,0.018,1.888,0.027,2.841,0.027c31.779,0,57.54-10.217,57.54-22.822
	C763.186,620.751,737.425,610.533,705.646,610.533z"/>
<ellipse transform="matrix(0.2389 -0.9711 0.9711 0.2389 202.4382 1420.5559)" fill="#DFE0DA" cx="1007.38" cy="581.144" rx="11.339" ry="32.226"/>
<ellipse transform="matrix(0.0774 -0.997 0.997 0.0774 193.6208 1435.8807)" fill="#DFE0DA" cx="872.625" cy="613.326" rx="12.704" ry="25.43"/>
<ellipse transform="matrix(0.324 -0.9461 0.9461 0.324 213.1525 1481.528)" fill="#DFE0DA" cx="1143.255" cy="591.614" rx="7.692" ry="15.397"/>
<ellipse transform="matrix(-0.128 -0.9918 0.9918 -0.128 75.2339 1196.5203)" fill="#DFE0DA" cx="563.617" cy="565.187" rx="13.935" ry="34.726"/>
<path fill="#C3C4BB" d="M598.499,562.003c-1.228-7.397-17.64-11.846-36.662-9.932c-1.343,0.134-2.661,0.3-3.954,0.489
	c18.108-1.391,25.794,4.964,26.975,12.086c0,0-3.668,11.907-20.692,14.396c0.701-0.054,1.404-0.114,2.114-0.186
	C585.301,576.948,599.726,569.401,598.499,562.003z"/>
<ellipse transform="matrix(-0.0416 -0.9991 0.9991 -0.0416 264.4653 1326.7749)" fill="#DFE0DA" cx="768.546" cy="536.552" rx="10.154" ry="25.304"/>
<path fill="#C3C4BB" d="M794.069,536.442c-0.425-5.447-12.059-9.712-25.987-9.522c-0.983,0.012-1.951,0.05-2.901,0.105
	c13.233,0.133,18.411,5.23,18.819,10.476c0,0-3.414,8.412-15.93,9.145c0.514,0.005,1.027,0.006,1.547-0.001
	C783.545,546.458,794.492,541.889,794.069,536.442z"/>
<path fill="#EBEDE4" d="M349.982,566.618c20.801-15.601,23.401-23.401,39.001-23.401s31.201-7.8,45.935-10.4
	c14.734-2.6,33.801-0.866,50.269-5.2c16.467-4.333,34.668-7.8,52.869-8.667c18.2-0.866,56.335-7.8,78.002-6.934
	c21.668,0.867,37.268,5.2,37.268,5.2s-257.41,44.202-278.211,50.269c-20.8,6.067-55.469,10.4-68.469,19.934
	c-13,9.534-35.535,16.469-35.535,16.469L349.982,566.618z"/>
<path fill="#EBEDE4" d="M713.996,507.778c7.667-1.271,12.366-4.824,15.582-7.873c3.214-3.049,6.677-6.604,8.902-6.604
	c2.226,0,5.193,1.271,8.409,1.524c3.215,0.253,7.667-0.509,12.614-0.763c4.946-0.254,8.409-2.032,9.645-2.285
	c1.237-0.254,3.711-0.509,7.668,3.811c3.957,4.317,7.913,8.128,12.117,8.89c4.205,0.762,23,6.094,23,6.094L713.996,507.778z"/>
<path fill="#EBEDE4" d="M1043.342,537.151c9.824,1.443,14.734,0.867,18.78,1.443c4.044,0.578,10.978,3.179,15.601,4.334
	c4.621,1.156,10.978,2.024,19.934,4.334s21.089,7.221,29.757,9.243c8.667,2.024,17.623,4.334,25.423,8.38
	c7.801,4.044,8.667,5.487,15.023,7.8C1174.215,574.996,1043.342,537.151,1043.342,537.151z"/>
<path fill="#EBEDE4" d="M914.783,515.771c9.244,0.579,19.645-1.156,29.178,0c9.534,1.157,20.512-1.156,24.558,1.733
	c4.044,2.89,7.222,4.047,10.688,5.49c3.467,1.444,4.622,4.91,9.822,5.777c5.201,0.866-69.335-8.087-78.579-10.111
	c-9.247-2.023-23.691-4.911-23.691-4.911s9.244-2.602,12.712-1.445C902.936,513.461,914.783,515.771,914.783,515.771z"/>
<path fill="#EBEDE4" d="M1192.126,582.796c6.933,0.577,10.979,0.866,17.046,0.866s8.954,0.867,10.688,2.023
	c1.733,1.154,2.89,2.022,7.224,2.601c4.332,0.576,4.045,2.021,10.4,5.2c6.355,3.177,10.978,8.377,16.178,11.555"/>
<path fill="#C3C4BB" d="M1010.548,570.456c-0.511-0.126-10.43-2.068-10.938-2.185c16.234,4.317,26.622,10.344,27.813,17.525
	c0.522,3.149-7.441,9.936-23.816,6.184c0.503,0.132,1.008,0.264,1.518,0.388c17.013,4.211,32.017,2.72,33.513-3.332
	C1040.136,582.986,1027.56,574.665,1010.548,570.456z"/>
<path fill="#C3C4BB" d="M875.723,600.652c-0.402-0.036-8.214-0.163-8.614-0.188c12.882,1.469,21.409,6.021,22.96,13.731
	c0.68,3.381-4.854,12.521-17.792,11.703c0.398,0.047,0.797,0.088,1.204,0.123c13.469,1.192,24.892-3.521,25.511-10.527
	S889.194,601.843,875.723,600.652z"/>
<path fill="#EBEDE4" d="M700.706,510.283c-10.11-1.734-11.554-4.624-15.311-5.201c-3.756-0.578-8.09-2.311-10.113-0.866
	c-2.023,1.442-6.067,2.888-6.354,3.754c-0.29,0.867-6.934,2.313-8.667,2.601C658.528,510.86,700.706,510.283,700.706,510.283z"/>
<g id="Layer_8">
	<polygon fill="#657BE5" points="521.092,460.126 453.302,484.569 428.683,491.676 426.913,494.084 456.637,560.17 553.024,526.461 
			"/>
	<path fill="#918C81" d="M594.09,528.71c0,0-8.521,3.481-15.482,4.508l-21.745-2.493l-83.696,29.267l-14.761-2.23l0.782,4.098
		l34.36,6.182l101.794-35.323L594.09,528.71z"/>
	<polygon fill="#0D0D3F" points="428.683,491.676 522.862,457.717 554.793,524.055 458.406,557.761 	"/>
	<polygon fill="#394CD3" points="433.986,494.215 520.39,463.029 548.099,520.613 459.781,551.579 	"/>
	<polygon fill="#657BE5" points="433.986,494.215 516.485,531.677 459.781,551.579 	"/>
	<polygon fill="#FFFFFF" points="458.406,557.761 554.793,524.055 594.56,528.621 492.764,563.942 	"/>
	<polygon fill="#DFE0DA" points="518.841,548.184 540.926,540.034 549.288,541.323 526.346,549.684 	"/>
</g>
<g id="Layer_5_1_">
	<g opacity="0.5">
		
			<ellipse transform="matrix(-0.9934 -0.1151 0.1151 -0.9934 1839.7645 787.5426)" fill="#FFE576" cx="942.625" cy="340.642" rx="2.384" ry="1.786"/>
		
			<linearGradient id="SVGID_2_" gradientUnits="userSpaceOnUse" x1="-331.6946" y1="766.7747" x2="-413.6243" y2="766.7747" gradientTransform="matrix(0.9936 0.1132 -0.1132 0.9936 1441.5466 -374.2196)">
			<stop  offset="0" style="stop-color:#FFFFFF;stop-opacity:0"/>
			<stop  offset="1" style="stop-color:#FFFFFF"/>
		</linearGradient>
		<polygon opacity="0.8" fill="url(#SVGID_2_)" enable-background="new    " points="943.943,339.308 1025.343,348.619 
			1025.004,351.616 943.605,342.305 		"/>
	</g>
</g>
<g id="Layer_7">
	
		<ellipse transform="matrix(0.2389 -0.971 0.971 0.2389 248.9082 1429.1689)" fill="#DFE0DA" cx="1036.166" cy="555.798" rx="13.015" ry="36.987"/>
	<polygon fill="#2E3FBC" points="1028.382,557.934 1025.153,555.095 1048.996,460.036 1055.738,461.728 	"/>
	<polygon fill="#4861D8" points="1035.601,557.715 1028.381,557.933 1052.705,460.967 1059.446,462.658 	"/>
	<path fill="#E0402F" d="M1100.683,489.365l5.833-23.247l0.428-1.706c3.325-13.25-4.723-26.688-17.973-30.013l-52.309-13.122
		l-12.28,48.949l28.998,7.274L1100.683,489.365z"/>
	<path fill="#BF2519" d="M1047.81,475.848c0.311-0.843,0.584-1.709,0.807-2.602l5.537-22.074
		c3.326-13.252-4.723-26.689-17.975-30.015c-13.25-3.323-26.688,4.723-30.013,17.976l-5.538,22.076
		c-0.223,0.891-0.391,1.785-0.515,2.674L1047.81,475.848z"/>
	<polygon fill="#CACCC0" points="1014.213,437.237 1013.736,466.218 1047.278,474.732 1054.168,447.261 	"/>
	<polygon fill="#EBEDE4" points="1019.01,433.442 1019.254,467.731 1047.717,474.869 1054.493,448.879 1054.53,442.609 	"/>
	<path opacity="0.5" fill="#840A07" enable-background="new    " d="M1036.179,421.156c-2.062-0.518-4.126-0.758-6.156-0.748
		c9.695,5.255,15,16.575,12.193,27.766l-5.538,22.077c-0.225,0.891-0.498,1.758-0.81,2.601l11.941,2.995
		c0.311-0.843,0.584-1.709,0.807-2.602l5.537-22.074C1057.48,437.919,1049.432,424.483,1036.179,421.156z"/>
	<path fill="none" stroke="#E0402F" stroke-width="1.4843" stroke-miterlimit="10" d="M1047.508,476.028
		c0.313-0.841,0.588-1.708,0.811-2.602l5.536-22.074c3.327-13.253-4.723-26.689-17.976-30.014
		c-13.25-3.325-26.688,4.723-30.012,17.974l-5.538,22.075c-0.225,0.894-0.393,1.787-0.514,2.678L1047.508,476.028z"/>
	<polygon fill="#BF2519" points="1063.757,480.091 1103.485,477.751 1100.34,490.292 	"/>
	
		<rect x="997.553" y="476.724" transform="matrix(-0.9699 -0.2433 0.2433 -0.9699 1956.5205 1197.5834)" fill="#E0402F" width="109.336" height="2.474"/>
	<path fill="#BF2519" d="M1048.415,478.456l-1.22-2.035l-10.687-2.524l-0.591,1.498l-34.9-8.734c0,0-12.479,17.212-14.612,20.949
		c-2.132,3.737-0.828,14.089,7.765,20.152c9.585,6.763,26.174,6.563,34.985-1.48c2.247-2.053,16.799-24.147,18.919-27.372
		C1048.285,478.631,1048.415,478.456,1048.415,478.456z"/>
	<path fill="#E0402F" d="M999.957,462.889l47.32,11.843c0,0-16.76,25.563-19.186,27.778c-8.813,8.045-25.399,8.243-34.983,1.479
		c-8.595-6.063-9.898-16.413-7.766-20.151C987.477,480.1,999.957,462.889,999.957,462.889z"/>
	<polygon fill="#2E3FBC" points="1023.258,437.969 1030.736,439.844 1031,448.5 1023.342,446.834 	"/>
	<polygon fill="#FFB640" points="1084.294,419.008 1075.126,416.708 1072.392,416.022 1071.671,415.841 1056.199,477.512 
		1059.656,478.378 1073.594,422.819 1082.76,425.118 	"/>
</g>
<g id="Layer_6">
	<g>
		<path fill="none" stroke="#EBEDE4" stroke-width="1.0874" stroke-miterlimit="10" d="M1194.369,533.368
			c0,0-28.081,6.363-35.979,18.48c-7.899,12.116-9.633,15.419-12.321,23.366c-2.689,7.946,1.071,15.313,4.407,11.283
			c3.333-4.03,9.587-13.925,18.454-21.124c8.865-7.199,8.179-7.706,20.607-18.766
			C1201.966,535.546,1201.915,531.308,1194.369,533.368z"/>
		<path fill="none" stroke="#EBEDE4" stroke-width="1.0874" stroke-miterlimit="10" d="M1199.263,533.932
			c0,0-20.617,11.117-30.121,20.139c-9.504,9.019-19.368,22.356-20.963,26.908"/>
		<path fill="none" stroke="#EBEDE4" stroke-width="1.0874" stroke-miterlimit="10" d="M1178.243,538.99
			c0.618-5.696-1.676-11.132-2.829-16.444c-1.538-7.085-3.174-12.221-8.238-3.775c-3.803,7.427-4.708,18.973-2.331,26.839"/>
		<path fill="none" stroke="#EBEDE4" stroke-width="1.0874" stroke-miterlimit="10" d="M1171.583,514.81
			c-0.585,4.315-1.752,8.876-1.824,13.116c-0.11,6.329,1.112,8.882,2.239,13.387"/>
		<path fill="none" stroke="#EBEDE4" stroke-width="1.0874" stroke-miterlimit="10" d="M1149.689,562.586
			c1.255-3.61,0.533-8.127,0.245-11.848c-0.15-4.457-0.303-8.909-0.452-13.364c-0.091-5.027-1.395-10.01-1.244-15.123
			c0.204-3.494,1.069-6.687,1.44-10.104c0.308-2.85-0.118-5.834-3.605-3.445c-1.818,1.359-2.758,4.715-3.664,6.692
			c-3.007,6.994-4.516,15.075-4.66,22.784c-0.21,10.468,2.748,18.801,5.356,28.77"/>
		<path fill="none" stroke="#EBEDE4" stroke-width="1.0874" stroke-miterlimit="10" d="M1148.656,508.287
			c-4.543,9.481-4.591,20.025-4.563,30.404c0.288,8.505,3.159,16.597,3.687,25.013"/>
	</g>
</g>
</svg>
