<?xml version="1.0" encoding="utf-8"?>
<!-- Generator: Adobe Illustrator 16.0.0, SVG Export Plug-In . SVG Version: 6.00 Build 0)  -->
<!DOCTYPE svg PUBLIC "-//W3C//DTD SVG 1.1//EN" "http://www.w3.org/Graphics/SVG/1.1/DTD/svg11.dtd">
<svg version="1.1" id="Layer_1" xmlns="http://www.w3.org/2000/svg" xmlns:xlink="http://www.w3.org/1999/xlink" x="0px" y="0px"
	 width="1600px" height="672.236px" viewBox="0 0 1600 672.236" enable-background="new 0 0 1600 672.236" xml:space="preserve">
<g id="Layer_2_3_">
	<circle fill="#394CD3" cx="798.892" cy="377.83" r="210.5"/>
	<circle fill="#394CD3" cx="556.5" cy="172.086" r="13"/>
	
		<radialGradient id="SVGID_1_" cx="1573.1423" cy="-1449.7766" r="18.9385" fx="1577.7695" fy="-1436.3265" gradientTransform="matrix(-0.1683 0.9858 0.9858 0.1683 2257.4612 -1129.5593)" gradientUnits="userSpaceOnUse">
		<stop  offset="0.7783" style="stop-color:#FFFFFF;stop-opacity:0"/>
		<stop  offset="1" style="stop-color:#FFE5FF"/>
	</radialGradient>
	<circle opacity="0.2" fill="url(#SVGID_1_)" enable-background="new    " cx="556.5" cy="172.086" r="18.938"/>
	
		<circle opacity="0.3" fill="none" stroke="#394CD3" stroke-miterlimit="10" enable-background="new    " cx="799.166" cy="378.754" r="223.334"/>
	<path fill="#394CD3" d="M1000.5,419.421c0.666,9.333,4,11.333,2.666,19.333c-1.332,8-3.332,13.334-4,18.667
		c-0.666,5.333,0,10.666-4.666,13.333s-4.666,6.667-7.334,10c-2.666,3.333-1.332,10.666-9.332,11.333s-18,6.667-18,6.667
		L1000.5,419.421z"/>
	<path fill="#394CD3" d="M848.5,182.753c24.666,3.333,26,0,37.334,3.333c11.332,3.333,14-2,20,4.667s10.666,8.667,14,12
		c3.332,3.333,8.666,7.333,14.666,12s12.668,4.667,17.334,11.333s-0.668-0.667,8.666,12.667s11.334,11.334,11.334,18.667
		s-1.334,10.667,0.666,16.667S848.5,182.753,848.5,182.753z"/>
	<path fill="#2C42C4" d="M591.832,405.421c-2.667,4.666-3.333,14.666-3.333,16.666s-1.334,2,1.333,8s3.333,10,4,14s-6-1.334,1.333,8
		s4,6.668,7.333,9.334s5.333,7.333,6,9.333s6,2.666,7.333,5.333s10.667,9.334,10.667,9.334L591.832,405.421"/>
	<path fill="#2C42C4" d="M724.226,184.814c-5.943,1.567-11.677,1.662-15.765,2.891c-4.09,1.229-8.309-0.873-12.057,2.21
		s-10.067,5.201-12.303,6.09c-2.234,0.891-3.37,2.535-7.118,5.618s-8.593,5.41-11.205,6.848c-2.61,1.438-3.54,1.607-6.188,5.447
		c-2.65,3.842-5.643,5.827-8.462,8.741c-2.821,2.913-6.021,6.375-8.122,10.595c-2.104,4.222-6.646,10.806-8.917,14.098
		c-2.271,3.292-5.721,10.634-5.721,10.634L724.226,184.814"/>
	<path fill="#2C42C4" d="M721.166,182.086c7.334-4.667,12.669-8.667,18.668-10c6-1.333,20-2,26.666-2.667
		c6.668-0.667,10.668,4,10.668,4"/>
	<path fill="#394CD3" d="M729.166,572.754c6,2.667,23.334,12.001,32.668,14.667s19.332,3.999,24,4.666
		c4.666,0.667,22-1.331,30.666-2.666c8.668-1.334,14.668,0,22.668-2s13.998-6.666,23.332-12"/>
</g>
<g id="Layer_2_2_">
	<g>
		<path fill="#2C42C4" d="M799.742,534.97c-7.104,8.744-11.476,16.394-22.402,14.754c-12.021-1.639-16.939-8.196-28.415-13.114
			c-6.558-2.73-16.939,3.825-24.591,0.547c-6.557-3.277-4.37-11.476-6.01-15.847c0-1.093,0.546-6.011,0-8.197
			c-1.093-6.01-15.224-13.054-7.338-26.009c11.516-18.917,31.927,7.978,42.309,13.441c13.115,6.012,22.951,7.104,34.973-1.094
			c8.743-6.011,25.136-19.671,32.239-4.371c8.743,19.672,1.094,29.508-11.475,32.785L799.742,534.97z"/>
	</g>
	<g>
		<path fill="#2C42C4" d="M884.864,365.077c-2.741-18.701-14.442-19.293-34.178-30.813c-15.891-9.813-24.084,0.354-38.604-4.25
			c-5.383-2.39-12.389-7.338-15.978-11.692c-4.358-4.694-3.08-9.648-5.899-13.662c-5.3-8.794-28.196-23.558-30.066-6.902
			c-0.255,2.647,5.813,11.782,7.097,15.112c2.738,10.418-2.644,8.03,5.646,16.311c13.415,13.315,23.406,9.469,38.268,13.304
			c4.954,1.278,9.313,5.975,13.926,8.021c3.845,1.707,11.359,1.36,14.436,2.727c10.082,6.314,5.563,22.715,12.059,32.961
			c13.849,22.711,1.028,5.979-11.691,15.978c-10.5,9.144,5.222,23.483,14.789,26.81c27.076,7.417,12.794-32.973,21.757-42.799
			c10.164-0.091,6.838,9.476,9.403,16.137c1.795,6.319,3.42,8.88,7.437,14.345c6.752,7.598,6.665,5.72,8.12,12.808
			c3.594,12.638,8.051,44.064,30.503,24.581c4.013-2.82,0.761-16.229-0.609-21.438c-1.026-5.978-11.618-6.997-15.977-11.691
			c-5.981-7.258-5.817-20.067-10.263-26.643c-0.428-1.108-12.814-8.448-12.731-14.854L884.864,365.077z"/>
	</g>
	<g>
		<path fill="#2C42C4" d="M951.121,273.19c-7.502,2.251-26.258,10.503-27.759,19.506c-3.001,9.753,11.254,19.506,13.504,30.009
			c1.501,8.253-6.001,18.757-2.25,26.259c3.001,6.752,18.757,12.004,26.259,9.753c21.006-6.002,11.252-46.515,8.252-60.769
			c-4.502-18.006-5.252-30.009-28.509-23.257"/>
	</g>
	<g>
		<path fill="#2C42C4" d="M898.5,518.54c-6,4-33,21-29,31c3,6,39-2,44-6c6-4,31-38,11-40c-5,0-13,9-18,12c-7,3-19-3-15,10"/>
	</g>
	<g>
		<path fill="#2C42C4" d="M775.592,412.206c-9-15-19.499-38.998-38.998-43.498c-10.5-1.5-20.999-4.5-19.499,7.5
			c0,8.999,16.499,10.499,19.499,16.499c3,5.999,0,10.499,3,13.499c7.5,17.999,19.499,44.998,38.998,37.498
			c-4.5,1.5,12-23.999,10.5-17.999c1.5-10.499,0-14.999-13.5-16.499"/>
	</g>
</g>
<g id="Layer_3_1_">
	<g>
		<g>
			<g>
				<defs>
					<circle id="SVGID_2_" cx="798.892" cy="377.83" r="210.5"/>
				</defs>
				<clipPath id="SVGID_3_">
					<use xlink:href="#SVGID_2_"  overflow="visible"/>
				</clipPath>
				<g display="none" clip-path="url(#SVGID_3_)">
					<g display="inline">
						<g>
							<path fill="#2C42C4" d="M791.527,464.677c-3.086,5.871-2.162,1.382-4.637,5.671c-2.151-2.73-8.194-0.248-5.999-8.813
								C787.493,457.11,786.938,467.261,791.527,464.677z"/>
							<path fill="#2C42C4" d="M790.039,430.582c-0.504,1.889-1.49,2.119-1.757,1.733l-1.021-0.643
								c0.519-1.865,1.516-2.095,1.771-1.726L790.039,430.582z"/>
							<path fill="#2C42C4" d="M775.135,455.224c-1.396,2.421-2.282,3.617-2.802,3.914c-2.808,0.944-5.591,0.518-7.306-1.294
								c-1.577-1.835-2.047-5.042-0.521-9.629c4.074-2.138,5.5-0.855,6.583,1.199C772.211,451.441,772.934,454.304,775.135,455.224z
								"/>
							<path fill="#2C42C4" d="M759.925,474.02c0.045,2.403-2.31,2.288-2.334,1.37l-1.761-1.11
								c-0.012-2.376,2.344-2.249,2.355-1.354L759.925,474.02z"/>
							<path fill="#2C42C4" d="M757.428,469.607c-0.388,1.964-1.677,2.021-1.979,1.566c-2.766-1.478-5.718-2.915-8.688-4.069
								c-1.485-0.578-2.977-1.084-4.448-1.488c-1.427-0.442-2.841-0.783-4.221-0.982l-1.812-1.404l-0.906-0.703
								c1.438-1.827,1.514-1.188,2.075-1.431l1.496,1.16c2.145-1.095,2.553,1.039,5.57-1.764c1.333,2.729,4.208,3.248,6.824,3.999
								C754,465.233,756.424,466.135,757.428,469.607z"/>
							<path fill="#2C42C4" d="M757.789,440.425c-1.919,3.021-2.412,4.653-1.511,4.896c-5.389,2.892-5.761-3.432-9.216-4.118
								c1.193-3.872,3.791,0.848,3.82-3.113c4.088-2.251,6.367-1.547,8.223-0.041c0.936,0.739,1.723,1.729,2.633,2.542
								c0.903,0.822,1.855,1.563,2.997,1.931c-1.898,4.096-2.797,0.016-3.93,0.174C759.759,441.986,758.786,441.187,757.789,440.425
								z"/>
							<path fill="#2C42C4" d="M745.397,439.904c-2.509,4.013-2.266,1.108-2.604,0.962c-1.761-0.675-3.546-3.632-5.375-4.576
								c3.635-4.011,1.235,1.528,6.011-4.347c-2.876,4.503-2.377,4.928,1.573,1.341C742.766,437.578,743.31,439.462,745.397,439.904
								z"/>
							<path fill="#2C42C4" d="M714.994,418.559c6.125-5.312,4.611-1.729,5.635-1.159c1.479,0.811,2.687,2.267,3.903,3.775
								c1.201,1.521,2.539,2.997,4.067,3.964c-3.475,0.313-5.553-1.31-7.333-3.057C719.453,420.356,717.816,418.588,714.994,418.559
								z"/>
							<path fill="#2C42C4" d="M699.196,436.695c-0.84,1.799-1.99,1.655-2.237,1.158l-1.33-1.335
								c0.851-1.788,2.002-1.645,2.246-1.148L699.196,436.695z"/>
							<path fill="#2C42C4" d="M689.539,437.159c-0.639,2.275-2.74,1.7-2.516,0.842C687.671,435.73,689.775,436.297,689.539,437.159
								z"/>
							<path fill="#2C42C4" d="M686.25,437.172c-1.567,3.156-2.632,0.646-3.033,0.258c-2.473,0.33-4.38-0.102-5.142-1.991
								C685.509,430.077,683.435,436.707,686.25,437.172z"/>
							<path fill="#2C42C4" d="M770.857,147.64c-2.781-0.153-6.043-0.675-8.354-1.419c-1.155-0.373-2.074-0.806-2.577-1.284
								c-0.536-0.573-0.663-1.21-0.187-1.853c1.444,0.164,2.719,0.437,3.854,0.79c1.104,0.266,2.066,0.588,2.936,0.976
								C768.265,145.618,769.604,146.603,770.857,147.64z"/>
							<path fill="#2C42C4" d="M519.202,209.715c0.524,0.438-3.396,1.616-6.754,2.686c-4.584,1.706-8.063,3.187-13.585,4.967
								c-0.709,0.415-1.459,0.833-2.258,1.257c-0.786,0.492-1.618,1.012-2.511,1.524c-1.784,1.03-3.802,2.087-6.126,3.173
								c1.859,1.158-2.613,3.879-3.5,5.967c-1.931,0.922-4.493,1.903-6.976,2.878c-2.477,0.991-4.894,1.882-6.438,2.961
								c-0.771,1.593-2.337,3.42-3.835,5.267c-0.748,0.926-1.483,1.84-2.086,2.755c-0.559,1.06-0.988,2.095-1.188,3.071
								c-0.285,1.386-0.325,2.729-0.224,4.048c0.051,0.657,0.138,1.312,0.248,1.96c0.197,0.929,0.467,2.004,0.726,2.995
								c0.552,2.018,1.107,4.043,1.661,6.067c0.272,1.018,0.533,2.035,0.771,3.063l0.174,0.771l0.083,0.388
								c0.032,0.146,0.012,0.126,0.021,0.197c0.006,0.202,0.002,0.407-0.01,0.615c-0.086,1.282-0.172,2.558-0.257,3.828
								l-0.034,0.477l-0.017,0.238l-0.009,0.119l-0.004,0.03l-0.001,0.015l-0.001,0.007c-0.319-0.892,2.794,7.791,1.478,4.121
								l0.012,0.094l0.194,1.502c0.133,1.002,0.266,2.002,0.396,3c0.542,3.996,1.129,7.975,1.815,11.908
								c0.343,1.956,0.709,3.95,1.106,5.841c0.399,1.8,0.828,3.586,1.293,5.355c0.929,3.539,1.995,7.011,3.254,10.385
								c1.691,1.031,5.353,0.57,6.33,2.043c2.524,3.177,5.043,6.283,7.459,9.396c1.211,1.557,2.395,3.114,3.541,4.685
								c1.141,1.529,2.213,2.9,3.254,4.392c2.074,2.934,3.957,5.964,5.563,9.177c0.396,0.783,0.798,1.662,1.138,2.398
								c0.349,0.765,0.678,1.539,0.984,2.329c0.616,1.58,1.152,3.22,1.597,4.925c0.578,2.214,0.913,4.571,1.137,7.008l0.146,1.834
								l0.069,1.735l0.093,3.508c0.058,2.341,0.128,4.678,0.339,6.931c0.105,1.126,0.246,2.229,0.438,3.305
								c0.094,0.532,0.209,1.075,0.32,1.576c0.1,0.473,0.209,0.938,0.338,1.39c0.517,1.847,2.464,2.905,2.994,4.649
								c0.737,2.479-0.654,6.197-0.131,8.669c0.566,2.828,1.533,5.045,2.579,7.09c0.538,1.015,1.063,2.003,1.589,2.993l0.389,0.747
								l0.096,0.188l0.006,0.013l0.908,1.395l0.014,0.026l0.028,0.052l0.055,0.104l0.219,0.42c0.29,0.562,0.57,1.134,0.835,1.724
								c5.071,3.456,12.009,4.974,18.938,6.938c3.434,0.955,6.792,1.959,9.799,3.275c3.035,1.34,5.801,3.049,7.903,5.318
								c3.696-0.316,6.28,0.425,8.972,1.053c2.714,0.643,5.587,1.197,9.722,0.418l1.828,2.532c4.45-0.362,8.326-0.253,12.01,0.137
								c3.705,0.396,7.137,1.039,10.538,1.681c3.417,0.642,6.743,1.265,10.396,1.653c3.657,0.393,7.521,0.518,11.823,0.107
								c3.181,0.832,7.354,0.474,11.487,0.207c4.149-0.266,8.162-0.449,10.911,0.769c4.217-0.552,7.73-0.341,10.939,0.296
								c3.229,0.637,6.067,1.699,8.76,2.861c2.716,1.156,5.175,2.43,7.921,3.41c2.705,0.988,5.489,1.72,8.564,1.831
								c0.708,0.271,2.997-3.043-0.264-0.28c-3.179-3.057-7.785-4.842-12.518-6.542c-2.396-0.843-4.881-1.646-7.33-2.546
								c-1.222-0.449-2.444-0.921-3.622-1.433c-1.154-0.516-2.281-1.064-3.364-1.672c-4.566,1.422-6.693-0.003-9.711-0.436
								c-2.265-0.496-9.99,1.939-7.629-1.777c1.238-0.055,1.696,0.749,6.555-3.31c2.983-1.987,3.49-1.229,4.952-1.538
								c3.355-1.103,4.42,0.325,6.614,0.482c5.952-1.46,7.452,2.025,13.122,0.761c0.938,3.513,6.729,1.275,9.051,3.067
								c2.123-0.82,6.193-4.016,6.856-3.109c-0.602,3.107,2.217,1.748,4.985,1.953c2.729,1.967,5.771,3.511,8.699,5.151
								c0.735,0.409,1.454,0.83,2.178,1.259c0.736,0.421,1.462,0.854,2.167,1.313c1.411,0.918,2.747,1.93,3.961,3.106
								c3.299-0.805,5.07,0.441,7.524,0.726c0.338,0.348,0.708,0.678,1.065,1.013c2.417-2.613,0.857-2.18,0.604-2.738l-1.283-1.281
								l-1.282-1.281c-5.71-6.17-12.538-12.075-21.453-15.606c-2.22-2.932-5.994-5.495-10.088-7.952
								c-1.901-1.148-3.809-2.487-5.955-3.447c-2.034-0.909-5.313-0.771-8.031-1.007c-2.682-0.24-4.819-0.85-4.588-3.168
								c2.359,0.964,8.432-2.09,12.693-3.273c5.691,0.102,12.641-0.757,19.042-1.117c3.185-0.169,6.313-0.252,9.089-0.012
								c2.774,0.241,5.209,0.803,7.102,1.896c1.007,0.574,0.751,2.732,2.474,2.801c1.911,0.076,6.199-1.883,9.837-3.522
								c2.225,0.403,4.524,0.686,6.885,0.856c1.179,0.087,2.373,0.146,3.58,0.181c1.222,0.021,2.465,0.003,3.713-0.031l2.742,2.745
								c3.269-0.775,0.771-2.96,0.104-3.279c-1.127-1.146-2.29-2.251-3.387-3.429l-3.29-3.531c-2.184-2.364-4.425-4.671-6.516-7.132
								c0.228-1.684-4.695,0.045,1.493-5.59c3.49-0.55,4.711,1.448,6,3.403c1.321,1.909,2.689,3.807,6.247,2.991
								c0.605-2.982-0.07-5.032-1.222-6.46c-1.158-1.416-2.716-2.313-3.959-2.788c-3.661-1.481,0.303-8.945-5.765-6.605
								c-0.731-0.396-1.243-0.938,0.638-3.002c3.683-3.313-0.497-1.506,5.118-5.104c5.672-4.787,6.066-3.895,6.672-3.224
								c0.715,0.711,4.053-1.475,3.586,0.495c5.31-2.922,3.37,2.157,10.353-2.75c0.518-1.871,6.375-7.366,7.534-9.614
								c-1.333-0.678,1.808-4.354-0.587-4.297c2.316-4.579,0.385-6.332,3.253-11.147c0.271-2.135-4.817-0.856-1.138-5.156
								c0.173,0.226,0.349,0.441,0.525,0.651c0.868-0.134,2.638-2.152,1.513-1.931l-0.865-1.104c0.461-1.834,7.739-6.384,6.82-6.86
								c-1.192-0.334-0.802-1.653,0.359-3.433c0.031-1.083-1.457-1.237,4.492-5.933c8.604-6.781,6.901-3.53,10.762-5.729
								c3.076-1.315,6.944-3.44,9.121-3.926c1.093-0.066,1.97,0.053,2.689,0.303c0.722,0.22,1.289,0.572,1.76,1.014
								c0.943,0.879,1.505,2.101,2.156,3.252c0.647,1.143,1.387,2.252,2.664,2.789c1.274,0.505,3.091,0.507,5.874-0.446
								c-0.462-1.228-0.896-2.473-1.309-3.727c-0.412-1.315-0.804-2.666-1.183-4.002c-0.758-2.712-1.459-5.274-2.188-8.103
								c-0.729-2.772-1.47-5.422-2.309-8.058c-0.845-2.704-1.777-5.284-2.88-7.681c-0.392-1.206,4.464-4.313,0.703-3.092
								c4.503-7.305-10.011-1.608-6.054-8.42c4.645-3.177,2.592-0.354,6.654-3.043c-2.629-1.771-5.863-3.479-9.454-5.023
								c-3.604-1.601-7.599-3.199-11.675-4.504c-9.486,6.038,1.57,1.548-4.678,5.938c-1.579-0.5-3.059-1.019-4.499-1.528
								c-1.448-0.542-2.858-1.091-4.288-1.592c-2.857-1.006-5.795-1.859-9.297-2.355c0.207-0.324,0.539-0.71,0.945-1.132
								c0.224-0.226,0.44-0.441,0.657-0.657c-0.133-0.206,1.164,1.783,0.614,0.939l0.001-0.001l0.004-0.002l0.004-0.005l0.013-0.011
								l0.021-0.021l0.044-0.044l0.089-0.086l0.183-0.174l0.37-0.352c1-0.945,2.085-1.931,2.831-2.755
								c-3.795-0.825-6.441-2.944-8.545-5.366c-0.525-0.606-1.018-1.23-1.483-1.859c-0.454-0.608-0.877-1.213-1.289-1.812
								c-0.822-1.193-1.584-2.341-2.364-3.322c1.639-2.5,2.611-4.684,3.158-6.666c0.273-0.991,0.441-1.931,0.53-2.834
								c0.129-0.854,0.189-1.66,0.198-2.447c0.043-3.143-0.673-5.911-0.259-9.194c-1.236-0.979-2.217-1.722-3.146-2.655
								c-0.907-0.912-1.661-1.909-2.133-3.071c-0.469-1.158-0.675-2.501-0.438-4.054c0.322-1.478,1.057-3.191,2.332-5.212
								c-1.516-1.439-0.105-4.155,0.591-6.416c0.875-2.112,1.052-3.743-3.252-3.427c3.217-2.044,2.383-2.362,3.564-3.523
								c-2.782,0.844-3.063,0.339-2.608-0.382c0.478-0.705,1.596-1.696,1.421-2.021c-0.552-1.045-2.258-2.695-4.032-2.873
								c-0.604-0.063,1.89-1.342,1.959-1.486c0.373-1.172,1.034-2.391,1.878-3.584c0.421-0.6,0.888-1.191,1.386-1.773
								c0.249-0.291,0.506-0.579,0.77-0.864l0.049-0.053l0.014-0.013l0.006-0.007l0.002-0.001c2.895,8.062,0.802,2.23,1.448,4.029
								l0.002-0.007l0.016-0.057l0.066-0.229l0.133-0.455c0.093-0.304,0.185-0.604,0.275-0.901c0.347-1.099,0.687-2.169,1.019-3.218
								l0.251-0.782l0.063-0.194c0.024-0.05,0.023-0.175,0.093-0.109l0.319,0.151c0.424,0.202,0.838,0.41,1.238,0.622
								c0.805,0.424,1.563,0.867,2.266,1.328l0.516,0.349l0.249,0.175l0.168-0.126c0.211-0.161,0.42-0.322,0.627-0.481
								c0.201-0.162-2.601,0.585-2.382,0.38c0.086-0.031,0.497-0.178,1.038-0.372c0.526-0.188,1.082-0.396,1.218-0.488
								c0.208-0.138,0.357-0.257,0.459-0.357c0.051-0.053,0.09-0.101,0.119-0.145c0.03-0.036,0.048-0.081,0.044-0.184
								c0.001-0.338-0.138-0.618-0.33-0.874c-0.382-0.511-0.973-0.929-1.063-1.515c-0.017-0.107,0.017-0.188,0.063-0.344
								c0.043-0.171,0.116-0.35,0.207-0.534c0.182-0.365,0.438-0.753,0.679-1.132c0.482-0.758,0.905-1.487,0.563-1.997
								c-0.193-0.288-0.479-0.555-0.829-0.806c-0.175-0.125-0.367-0.247-0.572-0.365l-0.688-0.505
								c-0.966-0.675-2.089-1.308-3.157-1.942c-1.068-0.638-2.081-1.277-2.829-1.974c-0.187-0.173-0.356-0.351-0.508-0.532
								c-0.164-0.228-0.313-0.466-0.433-0.706c-0.246-0.479-0.397-0.979-0.433-1.507c-3.451-0.31-6.699-0.689-9.916-1.06
								c-1.606-0.178-3.218-0.356-4.823-0.533l-1.215-0.127l-1.247-0.188c-0.844-0.115-1.685-0.231-2.521-0.348
								c-6.786-0.871-14.114-1.27-23.312-0.431c-8.484,2.363-20.239,6.465-25.433,7.066c-13.196,5.593-24.417,8.2-41.035,13.591
								c-6.885,3.382-14.095,6.668-22.137,9.92c-7.403,1.094-16.422,4.656-25.456,7.021c-0.299,0.664-5.941,2.352-9.001,3.406
								c-3.499,1.203-4.705,2.239-9.192,2.772c0.692,0.693-0.221,1.615-4.209,2.929c-0.081,0.784-0.063,1.557-6.616,3.171
								c1.387-1.437-4.271-0.141-2.881-1.564c-16.29,4.5-23.063,5.29-35.027,8.323C527.904,207.298,524.506,208.385,519.202,209.715
								z M762.448,323.773c-1.021,1.973-2.789,1.587-2.399,0.831C761.067,322.643,762.83,323.027,762.448,323.773z M634.791,425.45
								c-5.396,4.812-3.85,1.979-4.705,1.788C632.762,425.431,634.093,425.098,634.791,425.45z"/>
						</g>
					</g>
				</g>
			</g>
		</g>
		<g>
			<g>
				<defs>
					<circle id="SVGID_4_" cx="798.892" cy="377.83" r="210.5"/>
				</defs>
				<clipPath id="SVGID_5_">
					<use xlink:href="#SVGID_4_"  overflow="visible"/>
				</clipPath>
				<g display="none" clip-path="url(#SVGID_5_)">
					<g display="inline">
						<g>
							<path fill="#2C42C4" d="M803.822,375.555c5.709,3.376,1.272,2.229,5.434,4.915c-2.834,2.012-0.657,8.172-9.101,5.551
								C796.063,379.205,806.176,380.266,803.822,375.555z"/>
							<path fill="#2C42C4" d="M769.696,375.338c1.859,0.598,2.042,1.596,1.645,1.841l-0.693,0.989
								c-1.836-0.61-2.014-1.618-1.632-1.856L769.696,375.338z"/>
							<path fill="#2C42C4" d="M793.561,391.455c2.348,1.517,3.499,2.459,3.771,2.992c0.806,2.854,0.236,5.609-1.657,7.231
								c-1.911,1.481-5.14,1.793-9.645,0.04c-1.929-4.179-0.579-5.535,1.53-6.517C789.637,394.185,792.532,393.605,793.561,391.455z
								"/>
							<path fill="#2C42C4" d="M811.574,407.587c2.402,0.073,2.17,2.421,1.252,2.399l-1.197,1.701
								c-2.372-0.106-2.129-2.452-1.232-2.42L811.574,407.587z"/>
							<path fill="#2C42C4" d="M807.043,409.856c1.941,0.485,1.938,1.776,1.467,2.054c-1.613,2.689-3.197,5.565-4.5,8.476
								c-0.65,1.453-1.23,2.917-1.708,4.367c-0.517,1.402-0.925,2.8-1.194,4.167l-1.492,1.736l-0.748,0.869
								c-1.753-1.525-1.108-1.57-1.324-2.145l1.233-1.438c-0.983-2.194,1.165-2.498-1.481-5.649c2.791-1.193,3.455-4.04,4.336-6.615
								C802.502,413.061,803.521,410.688,807.043,409.856z"/>
							<path fill="#2C42C4" d="M777.911,408.039c2.923,2.066,4.529,2.643,4.815,1.753c2.617,5.526-3.715,5.582-4.574,8.998
								c-3.808-1.385,1.035-3.741-2.919-3.971c-2.043-4.196-1.226-6.438,0.37-8.215c0.786-0.897,1.813-1.634,2.671-2.502
								c0.867-0.861,1.653-1.774,2.077-2.897c3.996,2.104-0.124,2.796-0.021,3.936C779.571,406.15,778.725,407.08,777.911,408.039z"
								/>
							<path fill="#2C42C4" d="M776.774,420.389c3.882,2.706,0.994,2.316,0.831,2.648c-0.762,1.726-3.804,3.358-4.839,5.141
								c-3.824-3.83,1.588-1.158-4.041-6.222c4.354,3.1,4.803,2.62,1.418-1.506C774.32,422.899,776.227,422.45,776.774,420.389z"/>
							<path fill="#2C42C4" d="M753.935,449.685c-4.996-6.383-1.493-4.69-0.876-5.685c0.883-1.438,2.397-2.568,3.966-3.712
								c1.579-1.124,3.121-2.386,4.162-3.862c0.138,3.484-1.583,5.479-3.417,7.171C755.954,445.322,754.105,446.869,753.935,449.685
								z"/>
							<path fill="#2C42C4" d="M771.26,466.371c1.754,0.931,1.554,2.07,1.045,2.293l-1.399,1.265
								c-1.744-0.938-1.541-2.082-1.035-2.302L771.26,466.371z"/>
							<path fill="#2C42C4" d="M771.24,476.039c2.24,0.753,1.563,2.823,0.713,2.557C769.719,477.837,770.389,475.761,771.24,476.039
								z"/>
							<path fill="#2C42C4" d="M771.089,479.326c3.072,1.726,0.513,2.66,0.104,3.043c0.206,2.483-0.317,4.369-2.246,5.033
								C763.967,479.713,770.483,482.112,771.089,479.326z"/>
							<path fill="#2C42C4" d="M486.15,380.348c-0.292,2.77-0.974,6.002-1.834,8.271c-0.431,1.136-0.908,2.03-1.412,2.51
								c-0.599,0.508-1.242,0.603-1.855,0.093c0.234-1.437,0.568-2.691,0.979-3.812c0.319-1.091,0.69-2.037,1.12-2.884
								C484.003,382.836,485.052,381.549,486.15,380.348z"/>
							<path fill="#2C42C4" d="M535.562,634.792c0.464-0.502,1.444,3.477,2.343,6.882c1.476,4.662,2.779,8.214,4.281,13.814
								c0.379,0.729,0.76,1.499,1.142,2.318c0.453,0.81,0.931,1.667,1.397,2.584c0.94,1.833,1.895,3.899,2.863,6.276
								c1.25-1.802,3.742,2.805,5.783,3.794c0.824,1.974,1.678,4.581,2.525,7.107c0.866,2.523,1.635,4.982,2.636,6.578
								c1.553,0.851,3.301,2.506,5.067,4.095c0.887,0.793,1.763,1.573,2.646,2.222c1.03,0.608,2.042,1.093,3.01,1.339
								c1.369,0.354,2.708,0.464,4.028,0.428c0.661-0.02,1.317-0.072,1.972-0.149c0.937-0.147,2.022-0.364,3.025-0.574
								c2.042-0.449,4.092-0.901,6.146-1.354c1.026-0.221,2.059-0.432,3.097-0.617l0.78-0.136l0.391-0.063
								c0.146-0.023,0.127-0.007,0.199-0.011c0.202,0.005,0.406,0.02,0.613,0.041c1.274,0.149,2.546,0.299,3.811,0.448l0.474,0.058
								l0.237,0.029l0.118,0.014l0.03,0.005l0.015,0.002l0.008,0.001c-0.909,0.275,7.935-2.403,4.196-1.271l0.094-0.008l1.51-0.119
								c1.009-0.083,2.015-0.165,3.018-0.248c4.018-0.341,8.019-0.729,11.981-1.217c1.973-0.245,3.98-0.513,5.891-0.815
								c1.815-0.309,3.623-0.646,5.413-1.021c3.58-0.75,7.102-1.646,10.534-2.73c1.114-1.639,0.837-5.314,2.356-6.221
								c3.298-2.362,6.527-4.724,9.757-6.98c1.615-1.13,3.23-2.231,4.855-3.301c1.584-1.063,3.007-2.064,4.547-3.031
								c3.034-1.925,6.153-3.651,9.442-5.096c0.803-0.355,1.699-0.714,2.454-1.017c0.779-0.311,1.57-0.6,2.375-0.866
								c1.609-0.536,3.271-0.989,4.997-1.35c2.239-0.468,4.612-0.684,7.057-0.782l1.84-0.056l1.737,0.02l3.507,0.083
								c2.341,0.059,4.679,0.104,6.938,0.007c1.13-0.049,2.241-0.134,3.323-0.271c0.537-0.065,1.084-0.153,1.59-0.241
								c0.479-0.073,0.946-0.162,1.405-0.27c1.869-0.422,3.024-2.313,4.793-2.758c2.513-0.611,6.158,0.966,8.652,0.563
								c2.853-0.425,5.114-1.277,7.21-2.222c1.038-0.485,2.054-0.962,3.067-1.438l0.768-0.352l0.19-0.086l0.013-0.005l1.438-0.836
								l0.027-0.013l0.053-0.025l0.106-0.05l0.431-0.198c0.575-0.261,1.161-0.512,1.763-0.747
								c3.705-4.893,5.567-11.745,7.877-18.565c1.126-3.383,2.297-6.688,3.766-9.624c1.488-2.964,3.334-5.643,5.706-7.627
								c-0.131-3.709,0.737-6.255,1.5-8.908c0.774-2.68,1.476-5.521,0.903-9.689l2.62-1.697c-0.141-4.462,0.163-8.327,0.736-11.987
								c0.582-3.682,1.396-7.074,2.203-10.441c0.813-3.381,1.601-6.671,2.174-10.301c0.572-3.633,0.892-7.486,0.697-11.804
								c0.991-3.136,0.842-7.322,0.78-11.465c-0.056-4.156-0.041-8.175,1.313-10.857c-0.341-4.239,0.046-7.738,0.843-10.911
								c0.795-3.195,2.001-5.977,3.297-8.605c1.291-2.654,2.687-5.049,3.802-7.739c1.122-2.652,1.991-5.396,2.256-8.463
								c0.309-0.693-2.89-3.146-0.293,0.247c-3.211,3.021-5.226,7.533-7.158,12.176c-0.961,2.349-1.892,4.792-2.91,7.192
								c-0.51,1.197-1.042,2.396-1.61,3.546c-0.571,1.127-1.179,2.226-1.837,3.274c1.189,4.633-0.338,6.688-0.921,9.677
								c-0.607,2.236,1.438,10.074-2.156,7.531c0.008-1.238,0.832-1.656-2.979-6.712c-1.837-3.08-1.05-3.548-1.289-5.022
								c-0.935-3.406,0.545-4.397,0.813-6.582c-1.16-6.019,2.398-7.342,1.416-13.066c3.557-0.762,1.612-6.656,3.52-8.886
								c-0.715-2.162-3.701-6.387-2.766-7.003c3.076,0.754,1.856-2.127,2.201-4.884c2.1-2.626,3.795-5.587,5.58-8.432
								c0.446-0.714,0.902-1.411,1.365-2.112c0.458-0.715,0.93-1.416,1.422-2.099c0.987-1.364,2.063-2.646,3.301-3.801
								c-0.638-3.334,0.696-5.043,1.102-7.479c0.364-0.318,0.711-0.673,1.064-1.013c-2.491-2.545-2.135-0.968-2.707-0.741
								l-1.345,1.22l-1.343,1.218c-6.448,5.395-12.688,11.919-16.662,20.646c-3.037,2.069-5.787,5.712-8.447,9.679
								c-1.24,1.842-2.674,3.679-3.739,5.774c-1.011,1.985-1.035,5.268-1.407,7.971c-0.375,2.665-1.087,4.771-3.395,4.426
								c1.081-2.311-1.664-8.525-2.634-12.844c0.384-5.68-0.125-12.66-0.165-19.072c-0.009-3.188,0.063-6.317,0.443-9.078
								s1.063-5.161,2.247-6.997c0.625-0.979,2.768-0.613,2.92-2.329c0.172-1.906-1.57-6.286-3.026-10.002
								c0.515-2.201,0.909-4.485,1.2-6.832c0.146-1.174,0.265-2.363,0.358-3.566c0.08-1.22,0.126-2.462,0.154-3.71l2.88-2.603
								c-0.613-3.303-2.919-0.916-3.272-0.269c-1.199,1.068-2.362,2.175-3.593,3.213l-3.69,3.108
								c-2.472,2.063-4.886,4.187-7.447,6.15c-1.671-0.313-0.189,4.69-5.509-1.772c-0.375-3.513,1.682-4.631,3.699-5.822
								c1.973-1.224,3.937-2.494,3.299-6.089c-2.946-0.754-5.027-0.181-6.513,0.897c-1.473,1.086-2.444,2.597-2.982,3.813
								c-1.663,3.582-8.919-0.75-6.886,5.428c-0.433,0.712-1,1.193-2.966-0.786c-3.127-3.847-1.529,0.421-4.844-5.366
								c-4.498-5.904-3.584-6.256-2.885-6.825c0.746-0.679-1.27-4.121,0.675-3.558c-2.652-5.447,2.322-3.259-2.229-10.478
								c-1.843-0.608-7.038-6.734-9.227-8.007c-0.742,1.299-4.258-2.021-4.32,0.373c-4.457-2.543-6.306-0.701-10.974-3.808
								c-2.117-0.376-1.097,4.771-5.207,0.879c0.233-0.161,0.458-0.325,0.678-0.492c-0.089-0.875-2.019-2.742-1.853-1.606
								l-1.146,0.811c-1.81-0.553-5.988-8.049-6.51-7.154c-0.396,1.174-1.692,0.717-3.411-0.532c-1.08-0.086-1.31,1.395-5.699-4.783
								c-6.343-8.935-3.181-7.067-5.186-11.033c-1.159-3.141-3.088-7.108-3.463-9.307c-0.014-1.095,0.147-1.964,0.436-2.672
								c0.255-0.71,0.637-1.259,1.1-1.707c0.926-0.896,2.173-1.396,3.355-1.989c1.173-0.593,2.317-1.271,2.919-2.521
								c0.567-1.25,0.661-3.063-0.153-5.89c-1.249,0.398-2.514,0.771-3.787,1.118c-1.335,0.348-2.702,0.671-4.057,0.979
								c-2.747,0.622-5.34,1.193-8.2,1.78c-2.807,0.589-5.488,1.195-8.163,1.9c-2.743,0.708-5.366,1.514-7.814,2.491
								c-1.225,0.331-4.083-4.674-3.052-0.854c-7.069-4.863-2.106,9.917-8.712,5.624c-2.939-4.798-0.225-2.606-2.707-6.8
								c-1.899,2.535-3.769,5.683-5.491,9.19c-1.776,3.521-3.574,7.429-5.082,11.437c5.557,9.775,1.625-1.491,5.699,4.969
								c-0.577,1.552-1.171,3.004-1.753,4.417c-0.613,1.419-1.229,2.801-1.802,4.203c-1.147,2.805-2.148,5.693-2.818,9.168
								c-0.313-0.225-0.684-0.574-1.083-1.001l-0.308-0.333l-0.157-0.178l-0.079-0.09l-0.04-0.046l-0.021-0.021l-0.01-0.014
								l-0.006-0.005l-0.002-0.003l-0.001-0.002c0.434-0.253-0.971,0.564,0.971-0.565c-0.224-0.258-0.442-0.511-0.661-0.763
								c-0.895-1.046-1.822-2.179-2.609-2.965c-1.014,3.748-3.262,6.286-5.786,8.266c-0.632,0.494-1.279,0.954-1.932,1.391
								c-0.632,0.424-1.256,0.813-1.873,1.196c-1.232,0.762-2.417,1.466-3.437,2.193c-2.414-1.76-4.548-2.842-6.5-3.486
								c-0.977-0.322-1.906-0.537-2.806-0.673c-0.846-0.171-1.646-0.271-2.434-0.319c-3.138-0.199-5.938,0.377-9.197-0.2
								c-1.038,1.187-1.828,2.127-2.809,3.01c-0.956,0.86-1.989,1.563-3.175,1.978c-1.181,0.408-2.531,0.551-4.07,0.232
								c-1.458-0.396-3.134-1.213-5.089-2.59c-1.515,1.441-4.155-0.102-6.379-0.91c-2.065-0.979-3.686-1.236-3.585,3.077
								c-1.881-3.313-2.239-2.498-3.341-3.736c0.704,2.821,0.187,3.075-0.513,2.586c-0.68-0.51-1.614-1.678-1.948-1.52
								c-1.071,0.499-2.807,2.121-3.07,3.885c-0.095,0.6-1.245-1.954-1.389-2.032c-1.15-0.431-2.334-1.15-3.484-2.054
								c-0.576-0.45-1.146-0.946-1.702-1.473c-0.278-0.264-0.554-0.534-0.824-0.813l-0.051-0.052l-0.014-0.014l-0.007-0.007
								l-0.002-0.002c8.21-2.489,2.274-0.69,4.105-1.247l-0.007-0.003l-0.059-0.02l-0.225-0.077l-0.448-0.156
								c-0.298-0.105-0.594-0.214-0.888-0.318c-1.078-0.401-2.132-0.794-3.162-1.181l-0.77-0.289l-0.19-0.07
								c-0.049-0.028-0.173-0.034-0.104-0.101l0.167-0.312c0.225-0.413,0.451-0.815,0.684-1.206
								c0.463-0.782,0.941-1.519,1.438-2.195l0.375-0.497l0.188-0.238l-0.118-0.175c-0.152-0.22-0.303-0.437-0.451-0.649
								c-0.15-0.209,0.455,2.627,0.26,2.396c-0.025-0.088-0.151-0.506-0.317-1.056c-0.163-0.534-0.342-1.101-0.428-1.241
								c-0.129-0.214-0.238-0.369-0.336-0.476c-0.05-0.056-0.095-0.097-0.138-0.126c-0.035-0.032-0.079-0.055-0.182-0.057
								c-0.338-0.018-0.625,0.107-0.892,0.286c-0.528,0.356-0.977,0.927-1.564,0.987c-0.107,0.011-0.187-0.025-0.339-0.08
								c-0.169-0.052-0.345-0.134-0.522-0.232c-0.357-0.2-0.729-0.477-1.096-0.734c-0.733-0.521-1.442-0.979-1.968-0.662
								c-0.297,0.179-0.578,0.45-0.847,0.787c-0.134,0.169-0.265,0.354-0.394,0.553l-0.539,0.664c-0.724,0.932-1.41,2.021-2.1,3.056
								c-0.688,1.035-1.38,2.017-2.109,2.729c-0.185,0.179-0.368,0.34-0.558,0.479c-0.234,0.153-0.48,0.287-0.727,0.397
								c-0.492,0.221-0.999,0.348-1.527,0.354c-0.479,3.433-1.022,6.655-1.554,9.852c-0.258,1.598-0.516,3.196-0.772,4.791
								l-0.188,1.207l-0.25,1.233c-0.158,0.838-0.315,1.672-0.473,2.503c-1.209,6.732-1.976,14.032-1.598,23.26
								c1.937,8.594,5.445,20.538,5.787,25.755c4.925,13.459,6.968,24.796,11.521,41.663c3.033,7.046,5.955,14.41,8.801,22.604
								c0.722,7.449,3.831,16.635,5.74,25.775c0.646,0.331,2.049,6.051,2.95,9.16c1.025,3.555,2.001,4.811,2.311,9.317
								c0.729-0.655,1.604,0.302,2.714,4.353c0.779,0.12,1.552,0.142,2.837,6.766c-1.363-1.455-0.354,4.259-1.707,2.8
								c3.682,16.495,4.13,23.3,6.563,35.401C533.584,625.979,534.5,629.43,535.562,634.792z M661.641,397.553
								c1.919,1.12,1.446,2.861,0.71,2.438C660.444,398.876,660.914,397.135,661.641,397.553z M756.808,530.135
								c4.534,5.631,1.782,3.941,1.55,4.79C756.687,532.158,756.423,530.815,756.808,530.135z"/>
						</g>
					</g>
				</g>
			</g>
		</g>
		<g>
			<g>
				<defs>
					<circle id="SVGID_6_" cx="798.892" cy="377.83" r="210.5"/>
				</defs>
				<clipPath id="SVGID_7_">
					<use xlink:href="#SVGID_6_"  overflow="visible"/>
				</clipPath>
				<g display="none" clip-path="url(#SVGID_7_)">
					<g display="inline">
						<g>
							<path fill="#2C42C4" d="M847.156-53.779c5.709,3.377,1.272,2.229,5.434,4.915c-2.834,2.013-0.657,8.173-9.102,5.552
								C839.397-50.128,849.51-49.066,847.156-53.779z"/>
							<path fill="#2C42C4" d="M813.029-53.996c1.86,0.599,2.042,1.597,1.646,1.841l-0.693,0.989
								c-1.837-0.609-2.014-1.619-1.632-1.855L813.029-53.996z"/>
							<path fill="#2C42C4" d="M836.895-37.878c2.349,1.516,3.499,2.46,3.771,2.993c0.807,2.851,0.236,5.608-1.657,7.23
								c-1.91,1.481-5.14,1.792-9.645,0.04c-1.929-4.179-0.579-5.535,1.529-6.516C832.97-35.147,835.866-35.727,836.895-37.878z"/>
							<path fill="#2C42C4" d="M854.908-21.747c2.402,0.075,2.169,2.419,1.252,2.4l-1.195,1.701
								c-2.374-0.106-2.131-2.452-1.234-2.419L854.908-21.747z"/>
							<path fill="#2C42C4" d="M850.375-19.476c1.942,0.483,1.938,1.774,1.468,2.054c-1.612,2.688-3.197,5.565-4.499,8.475
								c-0.65,1.453-1.23,2.917-1.709,4.367c-0.517,1.404-0.926,2.8-1.193,4.167l-1.492,1.737L842.2,2.193
								c-1.754-1.525-1.108-1.57-1.325-2.146l1.234-1.436c-0.984-2.195,1.165-2.498-1.482-5.651c2.791-1.192,3.455-4.04,4.338-6.615
								C845.836-16.271,846.854-18.644,850.375-19.476z"/>
							<path fill="#2C42C4" d="M821.245-21.294c2.925,2.067,4.529,2.642,4.815,1.752c2.617,5.527-3.716,5.583-4.574,9
								c-3.808-1.386,1.035-3.744-2.919-3.972c-2.044-4.196-1.227-6.438,0.37-8.214c0.785-0.897,1.813-1.635,2.671-2.502
								c0.866-0.86,1.653-1.774,2.076-2.896c3.996,2.104-0.124,2.794-0.022,3.935C822.905-23.182,822.059-22.253,821.245-21.294z"/>
							<path fill="#2C42C4" d="M820.107-8.945c3.883,2.707,0.994,2.317,0.831,2.649c-0.762,1.725-3.805,3.359-4.839,5.14
								c-3.824-3.829,1.588-1.156-4.041-6.22c4.354,3.1,4.803,2.62,1.418-1.505C817.653-6.433,819.561-6.883,820.107-8.945z"/>
							<path fill="#2C42C4" d="M797.269,20.353c-4.996-6.384-1.494-4.691-0.876-5.686c0.883-1.437,2.397-2.568,3.966-3.711
								c1.579-1.124,3.121-2.386,4.162-3.863c0.139,3.485-1.583,5.48-3.417,7.172C799.287,15.99,797.438,17.536,797.269,20.353z"/>
							<path fill="#2C42C4" d="M814.594,37.038c1.754,0.929,1.554,2.071,1.045,2.293l-1.399,1.263
								c-1.744-0.938-1.541-2.082-1.033-2.302L814.594,37.038z"/>
							<path fill="#2C42C4" d="M814.573,46.706c2.24,0.752,1.563,2.823,0.714,2.556C813.052,48.503,813.722,46.427,814.573,46.706z"
								/>
							<path fill="#2C42C4" d="M814.423,49.993c3.072,1.724,0.513,2.661,0.104,3.043c0.206,2.484-0.317,4.37-2.246,5.033
								C807.3,50.38,813.816,52.78,814.423,49.993z"/>
							<path fill="#2C42C4" d="M529.483-48.985c-0.292,2.77-0.974,6.002-1.834,8.271c-0.431,1.136-0.908,2.031-1.412,2.509
								c-0.599,0.507-1.242,0.604-1.855,0.093c0.234-1.436,0.568-2.691,0.979-3.811c0.319-1.091,0.69-2.037,1.12-2.884
								C527.337-46.498,528.386-47.786,529.483-48.985z"/>
							<path fill="#2C42C4" d="M578.896,205.459c0.464-0.501,1.444,3.477,2.343,6.88c1.476,4.664,2.779,8.215,4.281,13.817
								c0.379,0.729,0.76,1.499,1.142,2.318c0.453,0.81,0.931,1.667,1.397,2.584c0.94,1.833,1.895,3.9,2.863,6.275
								c1.25-1.801,3.742,2.805,5.783,3.794c0.824,1.974,1.678,4.583,2.525,7.109c0.866,2.521,1.635,4.981,2.636,6.578
								c1.553,0.85,3.301,2.505,5.067,4.094c0.887,0.793,1.763,1.574,2.646,2.221c1.03,0.609,2.045,1.093,3.01,1.34
								c1.369,0.354,2.708,0.463,4.028,0.427c0.661-0.02,1.317-0.072,1.972-0.149c0.938-0.149,2.022-0.366,3.025-0.575
								c2.042-0.45,4.092-0.901,6.146-1.354c1.026-0.222,2.059-0.432,3.097-0.617l0.78-0.135l0.391-0.064
								c0.146-0.023,0.127-0.006,0.199-0.011c0.202,0.005,0.406,0.018,0.613,0.041c1.274,0.149,2.547,0.3,3.811,0.448l0.474,0.058
								l0.237,0.029l0.118,0.015l0.03,0.003l0.015,0.002l0.007,0.001c-0.909,0.277,7.935-2.402,4.196-1.27l0.094-0.007l1.51-0.119
								c1.009-0.083,2.015-0.166,3.018-0.248c4.018-0.341,8.019-0.729,11.981-1.217c1.973-0.245,3.981-0.513,5.891-0.814
								c1.815-0.31,3.623-0.646,5.413-1.021c3.581-0.75,7.102-1.645,10.533-2.73c1.114-1.639,0.837-5.315,2.356-6.221
								c3.298-2.362,6.527-4.723,9.757-6.98c1.615-1.129,3.23-2.231,4.855-3.301c1.583-1.063,3.007-2.064,4.546-3.03
								c3.035-1.926,6.153-3.652,9.442-5.096c0.803-0.355,1.699-0.713,2.455-1.017c0.778-0.311,1.57-0.6,2.375-0.866
								c1.608-0.537,3.271-0.99,4.996-1.35c2.239-0.468,4.613-0.684,7.057-0.782l1.839-0.056l1.738,0.02l3.507,0.083
								c2.341,0.06,4.678,0.104,6.938,0.007c1.13-0.049,2.241-0.134,3.323-0.271c0.537-0.065,1.084-0.154,1.59-0.241
								c0.479-0.074,0.946-0.163,1.405-0.27c1.869-0.422,3.023-2.313,4.793-2.757c2.513-0.611,6.156,0.965,8.652,0.563
								c2.854-0.424,5.113-1.277,7.209-2.222c1.039-0.484,2.055-0.962,3.068-1.437l0.768-0.351l0.19-0.087l0.013-0.005l1.438-0.836
								l0.026-0.013l0.054-0.025l0.106-0.05l0.431-0.198c0.575-0.261,1.161-0.512,1.763-0.748
								c3.705-4.892,5.567-11.744,7.877-18.565c1.125-3.382,2.296-6.688,3.765-9.623c1.487-2.964,3.334-5.642,5.706-7.627
								c-0.132-3.709,0.737-6.253,1.5-8.908c0.775-2.678,1.476-5.521,0.902-9.688l2.621-1.698
								c-0.139-4.463,0.163-8.328,0.736-11.988c0.582-3.681,1.395-7.074,2.203-10.441c0.813-3.381,1.602-6.671,2.174-10.301
								c0.572-3.633,0.892-7.486,0.697-11.804c0.989-3.136,0.842-7.322,0.78-11.463c-0.056-4.158-0.039-8.175,1.313-10.859
								c-0.341-4.238,0.046-7.737,0.843-10.911c0.795-3.194,2.001-5.977,3.296-8.604c1.29-2.656,2.688-5.048,3.802-7.741
								c1.123-2.652,1.991-5.396,2.259-8.462c0.307-0.693-2.891-3.146-0.294,0.248c-3.212,3.021-5.226,7.533-7.159,12.175
								c-0.961,2.35-1.892,4.792-2.909,7.192c-0.511,1.197-1.042,2.396-1.611,3.546c-0.569,1.127-1.178,2.225-1.836,3.274
								c1.188,4.634-0.338,6.688-0.921,9.678c-0.607,2.236,1.438,10.073-2.157,7.53c0.009-1.238,0.834-1.656-2.977-6.712
								c-1.836-3.08-1.052-3.548-1.289-5.021c-0.935-3.407,0.546-4.398,0.813-6.582c-1.158-6.019,2.398-7.341,1.416-13.067
								c3.558-0.762,1.612-6.655,3.52-8.886c-0.715-2.162-3.701-6.387-2.766-7.003c3.076,0.754,1.855-2.127,2.201-4.883
								c2.1-2.625,3.793-5.586,5.58-8.432c0.445-0.714,0.901-1.41,1.364-2.11c0.457-0.716,0.929-1.417,1.423-2.101
								c0.987-1.362,2.063-2.646,3.301-3.8c-0.638-3.334,0.695-5.043,1.102-7.479c0.363-0.319,0.712-0.674,1.064-1.014
								c-2.492-2.544-2.136-0.967-2.707-0.74l-1.345,1.218l-1.344,1.218c-6.448,5.395-12.688,11.919-16.662,20.646
								c-3.037,2.069-5.787,5.713-8.447,9.678c-1.241,1.842-2.674,3.679-3.739,5.775c-1.011,1.986-1.035,5.269-1.406,7.972
								c-0.375,2.666-1.088,4.771-3.396,4.424c1.082-2.311-1.665-8.525-2.634-12.842c0.384-5.681-0.125-12.662-0.165-19.073
								c-0.009-3.188,0.064-6.317,0.443-9.078c0.38-2.761,1.063-5.162,2.246-6.998c0.627-0.978,2.769-0.613,2.921-2.329
								c0.172-1.906-1.57-6.286-3.026-10.001c0.515-2.201,0.909-4.485,1.2-6.833c0.146-1.173,0.266-2.363,0.358-3.564
								c0.079-1.221,0.127-2.463,0.154-3.71l2.88-2.604c-0.612-3.302-2.918-0.917-3.271-0.268c-1.2,1.067-2.362,2.175-3.592,3.211
								l-3.691,3.108c-2.472,2.063-4.886,4.188-7.447,6.15c-1.67-0.313-0.189,4.692-5.509-1.771
								c-0.375-3.513,1.683-4.632,3.699-5.822c1.974-1.225,3.937-2.494,3.299-6.089c-2.948-0.755-5.028-0.182-6.513,0.896
								c-1.475,1.086-2.444,2.597-2.982,3.813c-1.662,3.583-8.919-0.75-6.886,5.427c-0.432,0.711-1,1.193-2.966-0.786
								c-3.127-3.845-1.529,0.421-4.843-5.367c-4.497-5.904-3.584-6.255-2.886-6.825c0.746-0.679-1.27-4.121,0.675-3.557
								c-2.652-5.448,2.322-3.258-2.229-10.477c-1.843-0.609-7.038-6.735-9.226-8.007c-0.743,1.299-4.259-2.021-4.32,0.372
								c-4.457-2.542-6.305-0.701-10.974-3.807c-2.117-0.376-1.097,4.771-5.206,0.879c0.232-0.161,0.458-0.326,0.678-0.493
								c-0.089-0.875-2.019-2.742-1.854-1.605l-1.146,0.81c-1.811-0.552-5.988-8.049-6.51-7.155
								c-0.396,1.175-1.692,0.718-3.411-0.531c-1.079-0.086-1.31,1.394-5.699-4.783c-6.343-8.936-3.181-7.069-5.185-11.034
								c-1.159-3.14-3.09-7.108-3.465-9.306c-0.013-1.095,0.149-1.964,0.437-2.672c0.255-0.71,0.637-1.259,1.1-1.707
								c0.925-0.896,2.173-1.397,3.355-1.989c1.173-0.593,2.316-1.273,2.919-2.521c0.566-1.25,0.661-3.062-0.153-5.89
								c-1.249,0.399-2.514,0.77-3.787,1.119c-1.334,0.346-2.703,0.669-4.056,0.979c-2.747,0.622-5.34,1.194-8.2,1.78
								c-2.808,0.588-5.488,1.196-8.163,1.901c-2.743,0.708-5.366,1.513-7.813,2.491c-1.226,0.331-4.083-4.674-3.053-0.854
								c-7.069-4.863-2.106,9.918-8.712,5.625c-2.939-4.797-0.225-2.607-2.707-6.799c-1.899,2.535-3.769,5.682-5.491,9.189
								c-1.776,3.521-3.574,7.429-5.081,11.438c5.556,9.775,1.625-1.492,5.697,4.968c-0.578,1.552-1.171,3.004-1.752,4.417
								c-0.612,1.419-1.229,2.802-1.803,4.204c-1.146,2.805-2.148,5.694-2.819,9.168c-0.313-0.224-0.682-0.574-1.083-1.001
								c-0.212-0.235-0.419-0.464-0.623-0.69c1.94-1.131,0.537-0.313,0.972-0.565l-0.001-0.001l-0.002-0.004l-0.005-0.006
								l-0.012-0.012l-0.021-0.021l-0.041-0.047l-0.082-0.094l-0.165-0.188l-0.333-0.388c-0.895-1.047-1.823-2.18-2.61-2.965
								c-1.014,3.748-3.262,6.286-5.786,8.267c-0.632,0.494-1.279,0.954-1.931,1.39c-0.632,0.423-1.256,0.814-1.874,1.196
								c-1.231,0.761-2.417,1.465-3.436,2.194c-2.415-1.76-4.549-2.843-6.5-3.486c-0.978-0.323-1.907-0.537-2.806-0.671
								c-0.847-0.173-1.646-0.273-2.434-0.321c-3.137-0.199-5.938,0.376-9.197-0.201c-1.038,1.188-1.828,2.127-2.809,3.01
								c-0.956,0.861-1.989,1.563-3.174,1.979c-1.182,0.408-2.532,0.549-4.071,0.233c-1.458-0.396-3.134-1.214-5.089-2.591
								c-1.515,1.442-4.155-0.101-6.378-0.91c-2.066-0.979-3.687-1.236-3.585,3.076c-1.881-3.313-2.239-2.498-3.341-3.735
								c0.703,2.82,0.186,3.075-0.514,2.587c-0.679-0.511-1.614-1.679-1.948-1.521c-1.07,0.5-2.807,2.121-3.069,3.886
								c-0.096,0.6-1.246-1.955-1.39-2.031c-1.151-0.433-2.334-1.152-3.484-2.056c-0.576-0.45-1.146-0.944-1.702-1.473
								c-0.278-0.263-0.554-0.534-0.824-0.812l-0.051-0.053l-0.014-0.013l-0.006-0.007l-0.003-0.001
								c8.21-2.491,2.274-0.691,4.105-1.247l-0.007-0.002l-0.059-0.021l-0.225-0.076l-0.448-0.155
								c-0.298-0.107-0.594-0.215-0.887-0.319c-1.079-0.401-2.132-0.795-3.162-1.179l-0.771-0.29l-0.19-0.072
								c-0.049-0.027-0.173-0.033-0.104-0.099l0.168-0.313c0.224-0.413,0.45-0.813,0.683-1.207c0.463-0.781,0.942-1.518,1.438-2.194
								l0.374-0.496l0.188-0.239l-0.118-0.174c-0.152-0.22-0.302-0.438-0.451-0.651c-0.15-0.209,0.454,2.627,0.26,2.398
								c-0.025-0.089-0.151-0.506-0.317-1.058c-0.163-0.533-0.341-1.1-0.428-1.24c-0.128-0.214-0.238-0.368-0.336-0.477
								c-0.05-0.054-0.095-0.095-0.138-0.126c-0.035-0.032-0.079-0.052-0.182-0.054c-0.338-0.02-0.625,0.105-0.891,0.286
								c-0.529,0.354-0.977,0.925-1.565,0.985c-0.108,0.013-0.188-0.023-0.339-0.079c-0.169-0.053-0.345-0.135-0.523-0.233
								c-0.357-0.2-0.729-0.477-1.096-0.734c-0.733-0.52-1.442-0.979-1.967-0.662c-0.298,0.179-0.578,0.449-0.848,0.787
								c-0.134,0.169-0.265,0.354-0.393,0.554l-0.54,0.664c-0.724,0.933-1.41,2.021-2.099,3.057c-0.689,1.034-1.38,2.014-2.11,2.727
								c-0.183,0.179-0.368,0.339-0.558,0.48c-0.234,0.15-0.48,0.286-0.727,0.396c-0.492,0.222-0.999,0.349-1.526,0.355
								c-0.48,3.431-1.023,6.655-1.555,9.851c-0.258,1.598-0.516,3.196-0.771,4.79l-0.188,1.208l-0.25,1.236
								c-0.158,0.836-0.315,1.671-0.473,2.501c-1.209,6.731-1.975,14.033-1.597,23.259c1.936,8.593,5.444,20.538,5.786,25.754
								c4.925,13.459,6.969,24.796,11.521,41.663c3.033,7.046,5.955,14.411,8.801,22.604c0.723,7.448,3.831,16.636,5.74,25.774
								c0.646,0.332,2.049,6.053,2.951,9.161c1.024,3.555,2.001,4.812,2.31,9.319c0.729-0.656,1.604,0.302,2.714,4.351
								c0.779,0.121,1.553,0.143,2.837,6.768c-1.363-1.455-0.354,4.26-1.706,2.801c3.682,16.494,4.13,23.299,6.562,35.399
								C576.919,196.647,577.834,200.098,578.896,205.459z M704.975-31.781c1.919,1.119,1.445,2.863,0.709,2.438
								C703.777-30.457,704.248-32.2,704.975-31.781z M800.141,100.802c4.534,5.632,1.782,3.943,1.551,4.789
								C800.021,102.825,799.756,101.482,800.141,100.802z"/>
						</g>
					</g>
				</g>
			</g>
		</g>
		<g>
			<g>
				<defs>
					<circle id="SVGID_8_" cx="798.892" cy="377.83" r="210.5"/>
				</defs>
				<clipPath id="SVGID_9_">
					<use xlink:href="#SVGID_8_"  overflow="visible"/>
				</clipPath>
				<g display="none" clip-path="url(#SVGID_9_)">
					<g display="inline">
						<g>
							<path fill="#2C42C4" d="M1208.375,425.097c2.894,1.629,0.313,1.635,2.37,3.016c-2.262,2.367-2.251,7.185-7.059,6.817
								C1202.599,429.977,1208.822,428.629,1208.375,425.097z"/>
							<path fill="#2C42C4" d="M1186.334,432.704c1.102,0.056,0.966,0.878,0.635,1.189l-0.725,1.032
								c-1.09-0.063-0.951-0.893-0.629-1.197L1186.334,432.704z"/>
							<path fill="#2C42C4" d="M1198.265,440.763c1.188,0.734,1.729,1.26,1.791,1.632c-0.084,2.12-1.005,4.41-2.563,6.092
								c-1.603,1.582-3.842,2.531-6.488,2.166c-0.354-2.884,0.916-4.293,2.537-5.553
								C1195.133,443.806,1197.136,442.719,1198.265,440.763z"/>
							<path fill="#2C42C4" d="M1206.519,449.904c1.501-0.39,0.918,1.448,0.345,1.604l-1.067,1.521
								c-1.485,0.374-0.897-1.465-0.335-1.613L1206.519,449.904z"/>
							<path fill="#2C42C4" d="M1203.219,452.517c1.14-0.005,0.919,0.975,0.537,1.29c-1.639,2.409-3.292,4.954-4.761,7.455
								c-0.731,1.251-1.42,2.49-2.033,3.697c-0.654,1.163-1.234,2.299-1.714,3.379l-1.388,1.613l-0.693,0.81
								c-0.875-0.768-0.426-0.938-0.448-1.32l1.15-1.34c-0.195-1.44,1.334-2.122,0.224-3.944c2.166-1.497,3.162-3.836,4.307-6.007
								C1199.529,455.949,1200.742,453.878,1203.219,452.517z"/>
							<path fill="#2C42C4" d="M1183.975,457.526c1.553,0.929,2.533,1.008,2.942,0.255c0.521,3.677-3.892,5.152-5.283,7.98
								c-2.36-0.162,1.588-3.115-1.141-2.358c-0.464-2.746,0.656-4.692,2.206-6.455c0.765-0.89,1.682-1.688,2.466-2.589
								c0.793-0.892,1.541-1.805,2.092-2.799c2.242,0.735-0.729,2.249-0.919,3.131
								C1185.601,455.68,1184.771,456.59,1183.975,457.526z"/>
							<path fill="#2C42C4" d="M1180.303,467.307c2.121,1.15,0.175,1.525-0.028,1.81c-0.949,1.465-3.512,3.388-4.67,4.956
								c-1.865-1.964,1.411-1.231-1.458-3.706c2.413,1.298,2.841,0.846,1.385-1.47
								C1177.959,469.758,1179.435,468.995,1180.303,467.307z"/>
							<path fill="#2C42C4" d="M1156.635,494.051c-2.323-3.353-0.043-2.982,0.655-3.832c1.012-1.232,2.432-2.398,3.893-3.58
								c1.473-1.165,2.886-2.47,4.013-3.786C1163.806,487.942,1158.151,489.969,1156.635,494.051z"/>
							<path fill="#2C42C4" d="M1165.904,501.843c1.101,0.264,0.703,1.102,0.278,1.365l-1.311,1.183
								c-1.094-0.271-0.695-1.106-0.271-1.37L1165.904,501.843z"/>
							<path fill="#2C42C4" d="M1163.816,508.534c1.518,0.041,0.559,1.602-0.021,1.597
								C1162.281,510.086,1163.236,508.525,1163.816,508.534z"/>
							<path fill="#2C42C4" d="M1162.987,510.812c1.938,0.524-0.187,1.703-0.575,2.05c-0.377,1.646-1.166,3.032-2.754,3.892
								C1157.529,512.603,1161.939,512.833,1162.987,510.812z"/>
							<path fill="#2C42C4" d="M913.942,518.366c-0.394,1.438-1.132,3.133-1.959,4.351c-0.414,0.606-0.852,1.097-1.284,1.372
								c-0.479,0.295-0.963,0.38-1.396,0.151c0.254-0.748,0.571-1.411,0.937-2.007c0.319-0.579,0.676-1.086,1.068-1.546
								C912.094,519.767,913.005,519.047,913.942,518.366z"/>
							<path fill="#2C42C4" d="M937.2,645.885c0.636-0.333,1.227,1.635,1.814,3.309c1.106,2.257,2.206,3.94,3.266,6.68
								c0.377,0.325,0.753,0.674,1.126,1.046c0.409,0.37,0.826,0.766,1.236,1.188c0.821,0.852,1.633,1.821,2.432,2.949
								c1.694-1.104,3.575,1.082,5.474,1.413c0.62,0.946,1.215,2.222,1.812,3.453c0.604,1.229,1.167,2.426,1.897,3.179
								c1.271,0.329,2.65,1.059,4.049,1.754c0.7,0.348,1.396,0.688,2.095,0.96c0.772,0.25,1.536,0.438,2.275,0.506
								c1.049,0.102,2.088,0.075,3.12-0.021c0.517-0.049,1.029-0.115,1.545-0.193c0.653-0.119,1.386-0.272,2.073-0.424
								c1.396-0.316,2.795-0.635,4.196-0.952l2.112-0.446l0.531-0.103c0.183-0.034,0.369-0.069,0.435-0.073l0.585-0.06
								c1.208-0.089,2.409-0.177,3.605-0.266l0.447-0.03l0.226-0.018l0.11-0.008l0.028-0.002l0.015-0.001h0.008l2.096-0.635
								l0.072-0.015l1.17-0.205c0.777-0.138,1.557-0.274,2.333-0.413c3.104-0.558,6.193-1.134,9.259-1.758
								c1.523-0.313,3.07-0.63,4.559-0.979c1.437-0.371,2.862-0.757,4.281-1.159c2.837-0.806,5.639-1.681,8.393-2.651
								c1.044-1.022,1.243-2.985,2.539-3.681c11.613-6.968,22.002-13.909,33.47-17.885c1.884-0.646,3.833-1.165,5.813-1.626
								l2.923-0.645l2.88-0.593c1.921-0.392,3.837-0.79,5.716-1.26c0.938-0.234,1.866-0.487,2.78-0.768l1.354-0.437
								c0.425-0.146,0.845-0.295,1.26-0.454c1.688-0.645,3.065-2.051,4.672-2.688c2.286-0.899,5.062-0.657,7.313-1.438
								c2.589-0.883,4.753-1.906,6.79-2.949c1.015-0.527,2.006-1.046,2.996-1.563l0.745-0.385l0.188-0.097l0.763-0.439l0.049-0.026
								l0.101-0.052l0.396-0.206c0.533-0.27,1.068-0.536,1.61-0.808c4.019-3.737,6.969-8.348,10.138-12.995
								c1.572-2.307,3.173-4.574,4.949-6.679c1.784-2.119,3.765-4.13,6.063-5.814c0.605-2.274,1.802-4.022,2.933-5.819
								c1.135-1.813,2.216-3.716,2.562-6.207l2.412-1.563c0.741-2.761,1.753-5.239,2.907-7.649c1.156-2.424,2.447-4.719,3.74-7.001
								c1.288-2.294,2.582-4.524,3.727-6.943c1.146-2.425,2.142-4.943,2.846-7.671c1.388-2.202,2.128-4.855,2.903-7.521
								c0.771-2.676,1.592-5.288,3.181-7.312c0.595-2.694,1.634-5.057,2.892-7.311c1.25-2.271,2.738-4.362,4.271-6.376
								c3.084-3.969,6.252-7.871,7.945-12.141c0.378-0.535-1.498-1.528-0.271,0.229c-3.048,2.722-5.47,6.206-7.943,9.688
								c-1.229,1.776-2.463,3.567-3.713,5.381c-0.638,0.896-1.282,1.802-1.955,2.678c-0.681,0.857-1.379,1.701-2.106,2.524
								c-0.04,2.79-1.641,4.438-2.695,6.506c-0.933,1.582-0.888,6.245-3.192,5.317c0.26-0.801,0.991-1.234-0.953-3.732
								c-0.806-1.621-0.103-2.089,0.014-3.001c-0.031-2.026,1.324-2.982,1.984-4.468c0.344-3.703,3.416-5.311,3.856-8.896
								c2.895-1.263,2.64-4.776,4.591-6.68c-0.085-1.296-1.472-3.494-0.609-4.112c2.209-0.153,1.904-1.827,2.756-3.785
								c2.165-2.253,4.101-4.648,6.091-6.996c1.001-1.17,2.006-2.344,3.021-3.528c1.034-1.17,2.118-2.308,3.292-3.387
								c0.265-2.192,1.644-3.69,2.498-5.5c0.347-0.304,0.674-0.638,1.007-0.959c-1.271-1.253-1.345-0.199-1.828,0.082l-1.28,1.159
								l-1.28,1.158c-6.003,5.265-12.271,11.206-17.285,18.018c-2.838,2.065-5.77,5.153-8.741,8.383
								c-1.394,1.496-2.935,3.028-4.236,4.651c-1.233,1.536-1.959,3.712-2.832,5.569c-0.884,1.825-1.905,3.35-3.683,3.616
								c1.363-1.736,0.511-5.214,0.689-7.843c1.538-3.84,2.684-8.376,4.129-12.674c0.733-2.132,1.5-4.279,2.438-6.254
								c0.94-1.973,2.049-3.78,3.428-5.318c0.729-0.82,2.353-1.062,2.871-2.289c0.578-1.367,0.242-4.01-0.008-6.271
								c0.938-1.675,1.812-3.385,2.624-5.122c0.407-0.868,0.8-1.743,1.179-2.624c0.364-0.896,0.706-1.811,1.039-2.723l2.9-2.621
								c0.357-2.254-2.046,0.071-2.488,0.637c-1.212,1.079-2.39,2.197-3.63,3.245l-3.729,3.14c-2.496,2.082-4.936,4.229-7.519,6.208
								c-1.281,0.197-1.316,3.313-4.041,0.134c0.572-2.361,2.549-3.659,4.49-5.007c1.902-1.386,3.801-2.791,4.216-5.206
								c-2.182,0.219-4.02,1.177-5.5,2.34c-1.474,1.172-2.677,2.459-3.427,3.459c-2.271,2.925-7.168,1.773-7.051,5.556
								c-0.54,0.597-1.134,1.07-2.271,0.194c-1.637-1.869-1.389,0.675-2.687-2.486c-2.261-2.943-1.396-3.424-0.652-4.001
								c0.81-0.659,0.017-2.554,1.506-2.682c-0.786-3.151,2.815-2.938,0.942-6.865c-1.392,0.066-4.116-2.896-5.642-3.189
								c-1.003,1.147-3.104-0.238-3.834,1.511c-3.152-0.577-5.282,1.237-8.51,0.353c-1.766,0.335-2.295,3.695-4.844,2.103
								c0.252-0.175,0.496-0.354,0.736-0.534c0.167-0.598-1.02-1.362-1.189-0.608l-1.242,0.878c-1.452,0.111-3.07-3.971-3.791-3.198
								c-0.687,0.934-1.719,0.977-2.91,0.587c-0.947,0.245-1.568,1.345-3.787-1.729c-3.202-4.445-0.854-4.056-1.521-6.274
								c-0.136-1.885-0.718-4.14-0.394-5.601c0.322-0.779,0.739-1.451,1.224-2.048c0.464-0.604,0.994-1.132,1.569-1.613
								c1.149-0.961,2.476-1.732,3.765-2.551c1.284-0.82,2.563-1.673,3.534-2.815c0.951-1.15,1.648-2.571,1.862-4.477
								c-10.544,5.935-22.229,10.598-32.773,16.216c-1.25,0.594-2.489-2.027-2.619,0.298c-5.236-1.334-4.786,7.393-9.729,6.283
								c-1.426-2.428,0.495-1.683-0.659-3.837c-2.47,2.224-5.057,4.827-7.597,7.635c-2.572,2.803-5.198,5.793-7.6,8.802
								c2.638,4.978,1.865-1.386,3.974,1.805c-0.918,1.157-1.822,2.254-2.705,3.318c-0.903,1.071-1.782,2.114-2.646,3.141
								c-1.712,2.078-3.308,4.175-4.735,6.562c-0.229-0.066-0.479-0.205-0.74-0.382l-0.197-0.141l-0.101-0.075l-0.051-0.038
								l-0.024-0.021l-0.013-0.011l-0.007-0.005l-0.003-0.003l-0.002-0.001l-0.002-0.001c-0.104,0.063,0.922-0.537,0.485-0.284
								l-0.414-0.332c-0.556-0.46-1.124-0.967-1.643-1.287c-3.397,5.124-10.09,8.309-14.33,11.029
								c-1.756-0.563-3.415-0.764-5.011-0.729c-0.799,0.019-1.581,0.094-2.354,0.211c-0.747,0.098-1.477,0.229-2.2,0.394
								c-2.896,0.646-5.675,1.711-8.607,2.155c-1.236,1.005-2.354,1.851-3.55,2.677c-1.188,0.813-2.405,1.542-3.699,2.128
								c-1.292,0.582-2.668,1.033-4.146,1.253c-1.443,0.164-3.006,0.121-4.718-0.195c-2.067,1.387-4.487,1.17-6.698,1.32
								c-2.148,0.028-4.078,0.417-5.367,3.195c-1.2-1.537-1.912-0.882-2.86-1.316c-0.067,1.604-0.738,1.931-1.492,1.858
								c-0.747-0.088-1.606-0.511-2.144-0.279c-1.717,0.735-4.795,2.456-5.782,3.69c-0.334,0.42-1.072-0.791-1.306-0.777
								c-1.785,0.209-3.523,0.253-5.186,0.183c-0.83-0.033-1.641-0.098-2.429-0.182c-0.396-0.048-0.783-0.095-1.165-0.141
								l-0.071-0.012l-0.018-0.003l-0.009-0.001h-0.004c4.094-1.241,1.134-0.345,2.045-0.622h-0.007l-0.052-0.003l-0.206-0.012
								l-0.41-0.024c-0.271-0.019-0.543-0.035-0.812-0.055c-0.983-0.073-1.944-0.145-2.885-0.215l-0.701-0.055
								c-0.099-0.017-0.275-0.004-0.305-0.041l-0.075-0.117c-0.095-0.152-0.188-0.303-0.28-0.451
								c-0.166-0.273-0.327-0.542-0.485-0.804l-0.104-0.179l-0.053-0.085l-0.204-0.056c-0.271-0.068-0.537-0.136-0.803-0.203
								c-0.276-0.062,0.007,1.361-0.352,1.302c-0.043-0.011-0.558-0.948-0.854-1.046c-0.457-0.146-0.793-0.185-1.198-0.144
								c-0.439,0.043-0.834,0.154-1.21,0.291c-0.75,0.271-1.422,0.644-2.201,0.769c-0.239,0.038-0.568,0.004-0.922-0.063
								c-0.344-0.07-0.695-0.177-1.042-0.275c-0.693-0.199-1.37-0.369-1.935-0.152c-0.317,0.118-0.631,0.286-0.936,0.486
								c-0.152,0.103-0.303,0.209-0.452,0.324l-0.524,0.38c-0.701,0.53-1.386,1.141-2.066,1.722
								c-0.684,0.581-1.362,1.137-2.061,1.556c-0.175,0.104-0.351,0.2-0.525,0.287c-0.2,0.093-0.405,0.177-0.609,0.249
								c-0.409,0.144-0.825,0.238-1.251,0.275c-0.599,1.788-1.24,3.479-1.88,5.15c-0.635,1.672-1.249,3.32-1.954,5.104
								c-1.331,3.534-2.396,7.342-2.75,12.078c0.916,4.312,2.858,10.238,2.733,12.914c2.986,6.609,3.792,12.328,6.238,20.722
								c2.026,3.406,3.979,6.978,5.84,10.975c-0.053,3.817,1.963,8.307,2.869,12.887c0.607,0.104,1.385,2.943,1.955,4.471
								c0.649,1.742,1.508,2.302,1.314,4.623c0.826-0.422,1.617-0.016,2.321,1.979c0.799-0.023,1.603-0.098,2.222,3.219
								c-1.277-0.604-0.866,2.271-2.139,1.663c1.953,8.226,1.61,11.738,2.638,17.835C936.174,641.482,936.716,643.195,937.2,645.885
								z M1094.073,481.06c1.386,0.259,0.485,1.6-0.047,1.504C1092.647,482.307,1093.548,480.969,1094.073,481.06z
								 M1141.523,547.445c2.401,2.722,0.592,2.186,0.239,2.773C1141.015,548.774,1141.08,547.965,1141.523,547.445z"/>
						</g>
					</g>
				</g>
			</g>
		</g>
		<g>
			<g>
				<defs>
					<circle id="SVGID_10_" cx="798.892" cy="377.83" r="210.5"/>
				</defs>
				<clipPath id="SVGID_11_">
					<use xlink:href="#SVGID_10_"  overflow="visible"/>
				</clipPath>
				<path clip-path="url(#SVGID_11_)" fill="#2C42C4" d="M717.166,574.087c-4-9.334-21.332-13.333-32.666-39.333
					s-4-10.666-18.668-44c-14.666-33.334-20.666-52-18.666-78s17.332-13.334,20.666-36.667s2-16.667,6.669-30
					c4.666-13.333,18-28.667,21.331-37.333c3.334-8.666,12-42.001,22-49.334s26.668-3.334,35.334-18.667s-12.668-14,14-33.333
					c26.666-19.333,51.332-33.333,72-36.667c20.666-3.334,7.332-4,7.332-4s-123.332-26.666-130.666-19.333s-164,154.668-166,176.001
					s-28.668,5.332-0.668,58.666s44.668,92,62.668,106.667s39.332,66.667,55.332,74S717.166,574.087,717.166,574.087z"/>
			</g>
		</g>
	</g>
	<path fill="#394CD3" d="M985.166,288.086c5.334,4,10.002,3.333,12.668,11.334c2.666,8,8.666,24.666,10,31.333
		c1.332,6.667-2.002,12.667-3.334,16.667C1003.166,351.42,985.166,288.086,985.166,288.086z"/>
</g>
<g id="Layer_4_1_">
	
		<linearGradient id="SVGID_12_" gradientUnits="userSpaceOnUse" x1="427.3337" y1="880.8289" x2="505.8621" y2="880.8289" gradientTransform="matrix(0.6707 0.7418 -0.7418 0.6707 1144.6667 -545.5663)">
		<stop  offset="0.0148" style="stop-color:#FFFFFF;stop-opacity:0"/>
		<stop  offset="0.8818" style="stop-color:#FFE5FF"/>
	</linearGradient>
	
		<path opacity="0.4" fill="none" stroke="url(#SVGID_12_)" stroke-width="1.5" stroke-miterlimit="10" enable-background="new    " d="
		M941.804,222.557c10.686-1.926,18.584-0.697,22.93,4.108c19.631,21.712-40.671,108.227-134.688,193.232
		C736.029,504.905,643.9,556.218,624.268,534.504c-5.82-6.438-4.614-18.569,2.414-34.673"/>
</g>
<g id="Layer_5_1_">
	
		<ellipse transform="matrix(-0.8411 -0.5408 0.5408 -0.8411 1462.6849 854.4644)" fill="#2C42C4" cx="856.837" cy="212.408" rx="17.666" ry="10.085"/>
	
		<ellipse transform="matrix(-0.8411 -0.5409 0.5409 -0.8411 1536.5598 928.5604)" fill="#2C42C4" cx="904.677" cy="238.573" rx="13.34" ry="10.083"/>
	<path fill="#FFF3D9" d="M947.773,126.141c0,0-0.752,3.388-1.674,5.189c-0.92,1.8-2.773,4.323-4.212,6.894
		c-1.439,2.567-5.354,2.444-6.64,2.838c-1.289,0.389-3.828,2.429-4.576,3.387c-0.749,0.956-2.184,2.252-2.515,3.935
		c-0.333,1.686-13.224-5.884-11.305-5.505c3.487,0.688,10.473-7.603,11.617-11.058c1.146-3.454,3.621-9.869,5.829-9.71
		C936.507,122.268,947.773,126.141,947.773,126.141z"/>
	<g>
		
			<ellipse transform="matrix(-0.4487 0.8937 -0.8937 -0.4487 1487.4803 -650.1707)" fill="none" stroke="#0F0A2B" stroke-miterlimit="10" cx="944.293" cy="133.745" rx="2.714" ry="2.751"/>
		<path fill="none" stroke="#0F0A2B" stroke-miterlimit="10" d="M940.184,128.691c-1.354-0.685-3.001-0.147-3.674,1.189
			c-0.673,1.34-0.116,2.979,1.241,3.659c1.355,0.685,3.003,0.149,3.675-1.189C942.102,131.01,941.548,129.371,940.184,128.691z"/>
	</g>
	<path fill="none" stroke="#FFFFFF" stroke-width="0.7271" stroke-linecap="round" stroke-miterlimit="10" d="M945.832,134.855
		c0.481-0.957,0.086-2.128-0.888-2.616"/>
	<path fill="none" stroke="#FFFFFF" stroke-width="0.7271" stroke-linecap="round" stroke-miterlimit="10" d="M940.35,132.166
		c0.479-0.958,0.086-2.129-0.886-2.614"/>
	<path fill="#E0402F" d="M934.927,124.519c0,0,4.394,2.069,8.979,3.259c4.587,1.188,5.908,1.268,7.98,0.535s4.104-4.025,2.578-5.564
		c-1.528-1.537-4.088-0.804-8.576-1.02c-4.486-0.219-6.191-2.327-9.59-3.187c-3.4-0.857-6.166-2.011-8.447,1.252
		c-2.283,3.265-3.918,8.649-6.555,11.746c-2.635,3.1-11.254,2.137-15.396,1.131c-7.434-0.917-14.227-0.524-16.958,1.875
		c-2.809,2.059-0.854,13.755,6.021,16.061c6.878,2.303,7.715,3.011,16.557-1.244c8.84-4.257,8.844-4.815,15.042-10.143
		c1.938-4.944,4.207-8.257,5.384-10.31C933.117,126.859,934.927,124.519,934.927,124.519z"/>
	<g>
		<g>
			<path fill="#E0402F" d="M939.635,138.742c-1.16-0.24-2.277-0.664-2.995-1.644c-0.341-0.462,0.269-1.68,0.713-1.07
				c0.616,0.837,1.604,1.153,2.586,1.356C940.548,137.512,940.248,138.871,939.635,138.742L939.635,138.742z"/>
		</g>
	</g>
	<g opacity="0.2">
		<g>
			<path fill="#E0402F" d="M935.007,134.824c-0.394-0.729-0.854-1.42-1.245-2.147c-0.223-0.409-0.204-0.894,0.058-1.283
				c0.175-0.265,0.677-0.548,0.896-0.146c0.393,0.731,0.854,1.422,1.247,2.15c0.222,0.409,0.203,0.89-0.06,1.284
				C935.728,134.944,935.223,135.228,935.007,134.824L935.007,134.824z"/>
		</g>
	</g>
	<path fill="#FFF3D9" d="M955.135,178.596c0,0,2.393,2.137,4.997,3.019c2.604,0.882,3.489,0.218,4.063-0.159
		c1.373-0.898,2.253-3.504,2.253-3.504s-1.472-2.334-5.537-2.175c-3.559,0.141-4.527-1.429-4.527-1.429L955.135,178.596z"/>
	<polygon fill="#222F6D" points="991.168,144.54 1036.06,182.044 1010.834,211.873 966.834,173.54 	"/>
	
		<line fill="none" stroke="#5D75DB" stroke-width="3" stroke-linecap="round" stroke-linejoin="round" stroke-miterlimit="10" x1="911.957" y1="234.652" x2="991.168" y2="144.54"/>
	<path fill="#FFB640" d="M924.164,145.41c1.473,0.946,5.429,2.498,6.961,4.275c1.532,1.776,5.716,8.826,7.909,11.426
		c2.191,2.6,10.121,8.293,12.646,9.916c2.521,1.623,4.204,2.704,4.702,3.319c0.494,0.615-1.249,4.25-1.249,4.25
		s-4.191-1.802-9.507-4.627c-5.318-2.823-9.688-7.121-13.277-10.32c-3.589-3.2-2.725-2.542-5.093-1.787
		c-2.366,0.755-4.335,2.644-6.661,5.425c-2.583,3.095-2.924,4.856-3.534,7.042c-0.57,2.042,0.462,2.672-0.621,8.517
		c-1.085,5.843-22.688-12.015-22.688-12.015s3.732-0.572,8.854-6.688c5.301-6.329,2.994-6.501,2.963-8.304
		c-0.028-1.804,1.203-5.566,1.203-5.566s-11.016,2.031-11.469,2.73c-0.865,1.349,4.567,10.469,4.567,10.469l-2.775,2.771
		c0,0-9.867-13.777-7.897-16.375c1.97-2.6,20.479-8.428,24.083-8.488C916.885,141.321,922.693,144.461,924.164,145.41z"/>
	
		<radialGradient id="SVGID_13_" cx="221.5959" cy="1989.7341" r="19.8932" fx="226.4563" fy="2003.8623" gradientTransform="matrix(-0.0804 0.9968 -0.9968 -0.0804 2945.8027 72.1526)" gradientUnits="userSpaceOnUse">
		<stop  offset="0" style="stop-color:#FFFFFF;stop-opacity:0"/>
		<stop  offset="1" style="stop-color:#FFE5FF"/>
	</radialGradient>
	<path opacity="0.3" fill="url(#SVGID_13_)" enable-background="new    " d="M947.595,111.602
		c9.24,5.941,11.913,18.252,5.972,27.492c-5.942,9.239-18.251,11.917-27.49,5.975c-9.245-5.942-11.917-18.252-5.974-27.494
		C926.045,108.336,938.351,105.66,947.595,111.602z"/>
	<path fill="#FFB640" d="M901.714,165.842c-0.412,0.333-6.973,3.446-9.977,6.27c-3.007,2.825-12.229,9.772-13.423,13.167
		c0,0-13.771,11.555-17.605,14.438c-3.834,2.887-5.188,4.987-5.188,4.987l3.053,2.953c0,0,15.135-7.507,19.34-10.353
		c4.204-2.843,5.089-2.673,5.586-3.144c0.506-0.472,1.796-0.631,6.225-4.126c4.425-3.494,11.135-5.917,12.146-6.258
		c1.013-0.339,0.961,2.204,0.818,4.89c-0.138,2.684,0.35,18.254,0.859,21.159c0.51,2.903,2.892,12.758,2.833,17.473
		c-0.063,4.721-0.313,6.34-0.313,6.34s5.459,2.916,5.891,1.015c0.433-1.903,0.74-13.792,1.063-22.301
		c0.32-8.514,0.12-9.435,0.12-9.435s1.672-2.296,3.273-11.564c1.605-9.274,0.646-17.023,0.646-17.023"/>
	<path fill="none" stroke="#FFF3D9" stroke-miterlimit="10" d="M924.525,144.846c0,0-3.575,4.637-5.47,7.58
		c-1.89,2.944-4.175,4.647-5.688,8.231c-1.516,3.585-1.984,5.856-3.688,9.122c-1.702,3.264-4.178,7.421-4.899,8.542
		c-0.719,1.12-2.913,5.456-2.913,5.456"/>
	<path fill="#FFF3D9" d="M899.844,163.859c0,0,0.593,0.147,1.361,1.103c0.768,0.954,1.429,2.069,2.313,3.56
		c0.883,1.484,3.251,5.313,2.332,4.951c-0.918-0.36-3.229-3.917-3.229-3.917s2.334,4.95,1.358,4.324
		c-0.979-0.628-2.592-4.196-2.592-4.196s0.661,4.338-0.048,3.65c-0.709-0.687-1.244-3.792-1.244-3.792s0.328,3.431-0.498,2.21
		c-0.825-1.22-2.989-5.372-2.989-5.372L899.844,163.859z"/>
	<path fill="#FFF3D9" d="M856.531,204.362c-1.893,0.17-5.104,1.472-7.629,2.624c-2.523,1.15-2.966,2.453-2.966,2.453
		s-0.37,2.731,0.049,3.005c0.422,0.269,3.567,0.309,5.448-0.462c1.884-0.771,1.412-1.271,3.564-2.463
		c2.153-1.193,4.438-2.894,4.438-2.894L856.531,204.362z"/>
	<path fill="#FFF3D9" d="M909.602,233.155c1.128,1.421,2.379,4.568,3.272,7.13c0.896,2.565,0.325,3.811,0.325,3.811
		s-1.558,2.231-2.011,2.142c-0.454-0.091-2.541-2.22-3.268-4.068c-0.728-1.848-0.088-1.888-0.715-4.227s-1.002-5.139-1.002-5.139
		L909.602,233.155z"/>
	<path fill="#FFF3D9" d="M956.384,174.346c0,0,4.14,0.187,6.331,1.399c2.191,1.212,2.482,1.992,2.726,2.545
		c0.239,0.549-0.358,0.563-1.753,0.262c-1.393-0.304-2.605-0.884-3.345-0.965"/>
</g>
<circle fill="#FF553E" cx="1417.234" cy="72.687" r="20.667"/>
<g>
	<g>
		<polygon fill="#1F38B2" points="1574.397,288.514 1569.014,297.704 1574.219,305.688 1583.719,306.318 1589.102,297.127 		"/>
		<polygon fill="#394CD3" points="1574.397,288.514 1583.904,289.144 1589.102,297.127 1579.598,296.496 		"/>
	</g>
	
		<line fill="none" stroke="#1F38B2" stroke-width="2.7633" stroke-miterlimit="10" x1="1527.584" y1="295.99" x2="1573.866" y2="297.278"/>
	
		<line fill="none" stroke="#1F38B2" stroke-width="2.8822" stroke-linecap="round" stroke-linejoin="round" stroke-miterlimit="10" x1="1519.65" y1="397.021" x2="1492.808" y2="355.481"/>
	<g>
		<polygon fill="#1F38B2" points="1519.302,288.267 1513.916,297.457 1519.115,305.442 1528.62,306.07 1534.009,296.879 		"/>
		<polygon fill="#394CD3" points="1519.302,288.267 1528.807,288.898 1534.009,296.879 1524.5,296.25 		"/>
	</g>
	<g>
		<polygon fill="#1F38B2" points="1486.945,343.509 1481.562,352.697 1486.762,360.681 1496.267,361.309 1501.65,352.117 		"/>
		<polygon fill="#394CD3" points="1486.945,343.509 1496.451,344.136 1501.65,352.117 1492.145,351.49 		"/>
	</g>
	
		<line fill="none" stroke="#1F38B2" stroke-width="2.7633" stroke-linecap="round" stroke-linejoin="round" stroke-miterlimit="10" x1="1521.188" y1="301.448" x2="1494.127" y2="347.648"/>
	<g>
		<polygon fill="#FF553E" points="1512.99,386.517 1507.608,395.712 1512.809,403.691 1522.313,404.322 1527.697,395.134 		"/>
		<polygon fill="#FF7061" points="1512.99,386.517 1522.498,387.148 1527.697,395.134 1518.192,394.505 		"/>
	</g>
</g>
<g>
	
		<line fill="none" stroke="#1F38B2" stroke-width="3.2697" stroke-linecap="round" stroke-linejoin="round" stroke-miterlimit="10" x1="80.305" y1="281.914" x2="128.33" y2="255.552"/>
	<g>
		<polygon fill="#1F38B2" points="124.176,246.832 124.176,259.433 134.258,264.473 144.34,259.433 144.34,246.832 		"/>
		<polygon fill="#394CD3" points="124.176,246.832 134.258,241.79 144.34,246.832 134.258,251.87 		"/>
	</g>
	<g>
		<polygon fill="#F7A328" points="68.044,276.804 68.044,289.407 78.127,294.448 88.208,289.407 88.208,276.804 		"/>
		<polygon fill="#FFB640" points="68.044,276.804 78.127,271.763 88.208,276.804 78.127,281.845 		"/>
	</g>
	
		<line fill="none" stroke="#1F38B2" stroke-width="3.2697" stroke-linecap="round" stroke-linejoin="round" stroke-miterlimit="10" x1="25.266" y1="311.885" x2="73.291" y2="285.524"/>
	<polyline fill="#F7A328" points="13.006,319.383 23.088,324.423 33.17,319.383 33.17,306.776 13.006,306.776 	"/>
	<polyline fill="#FFB640" points="13.006,306.776 23.088,301.735 33.17,306.776 23.088,311.816 13.006,306.776 	"/>
</g>
<circle fill="#394CD3" cx="1321.699" cy="121.526" r="34.878"/>
<circle fill="#6978E2" cx="1331.429" cy="107.916" r="4.098"/>
<circle fill="#6978E2" cx="1323.168" cy="123.219" r="7.421"/>
<circle fill="#6978E2" cx="1307.066" cy="130.293" r="4.206"/>
<circle fill="#6978E2" cx="1343.622" cy="122.75" r="3.102"/>
<circle fill="#6978E2" cx="1305.32" cy="105.073" r="3.102"/>
<circle fill="#6978E2" cx="1319.575" cy="146.073" r="4.206"/>
<path opacity="0.7" fill="#1E3296" enable-background="new    " d="M1321.699,86.648c0,0-17.253,1.015-15.591,36.905
	c0.892,19.24,15.591,32.852,15.591,32.852s-5.807,0.2-12.047-2.277c-10.659-4.23-23.813-15.949-22.832-32.601
	c1.109-18.751,11.2-27.329,18.401-30.763C1313.635,86.752,1321.699,86.648,1321.699,86.648z"/>
<circle fill="#FFFFFF" cx="1336.567" cy="42.081" r="1.879"/>
<g opacity="0.7">
	<circle opacity="0.7" fill="#FFFFFF" enable-background="new    " cx="1278.5" cy="536.248" r="2.683"/>
	<circle opacity="0.7" fill="#FFFFFF" enable-background="new    " cx="1340.809" cy="495.957" r="2.179"/>
	<circle opacity="0.7" fill="#FFFFFF" enable-background="new    " cx="1253.469" cy="482.226" r="2.179"/>
	<circle opacity="0.7" fill="#FFFFFF" enable-background="new    " cx="1229.49" cy="468.283" r="2.18"/>
	<circle opacity="0.7" fill="#FFFFFF" enable-background="new    " cx="1212.287" cy="431.913" r="2.18"/>
	<circle fill="#FFFFFF" cx="1206.485" cy="483.115" r="2.18"/>
	
		<line opacity="0.7" fill="none" stroke="#FFFFFF" stroke-width="0.7725" stroke-miterlimit="10" enable-background="new    " x1="1340.81" y1="495.962" x2="1278.5" y2="536.251"/>
	
		<polyline opacity="0.7" fill="none" stroke="#FFFFFF" stroke-width="0.7725" stroke-miterlimit="10" enable-background="new    " points="
		1278.5,536.251 1253.469,482.226 1229.49,468.281 1212.291,431.914 	"/>
	
		<line opacity="0.7" fill="none" stroke="#FFFFFF" stroke-width="0.7725" stroke-miterlimit="10" enable-background="new    " x1="1229.49" y1="468.281" x2="1206.484" y2="483.114"/>
</g>
<path opacity="0.3" fill="none" stroke="#4D66E2" stroke-width="2.6147" stroke-linecap="round" stroke-linejoin="round" stroke-miterlimit="10" enable-background="new    " d="
	M1354.238,135.237c15.799,10.032,22.405,17.716,20.217,22.432c-3.276,7.064-31.336,0.999-62.657-13.547
	c-31.328-14.546-54.064-32.063-50.784-39.128c2.215-4.764,8.519-5.528,26.652,0.216"/>
<path opacity="0.3" fill="none" stroke="#4D66E2" stroke-width="2.7536" stroke-miterlimit="10" enable-background="new    " d="
	M1354.238,135.237c17.575,10.87,28.163,20.8,25.967,25.532c-3.286,7.084-34.039-0.213-68.684-16.295
	c-34.646-16.086-60.063-34.869-56.771-41.953c2.218-4.777,13.335-3.646,33.291,2.938"/>
<path opacity="0.3" fill="none" stroke="#4D66E2" stroke-width="2.8823" stroke-linecap="round" stroke-linejoin="round" stroke-miterlimit="10" enable-background="new    " d="
	M1357.271,137.128c20.992,12.155,34.891,23.975,32.867,28.387c-3.034,6.607-38.616-3.235-79.471-21.987
	c-40.856-18.752-71.521-39.317-68.479-45.926c2.048-4.457,22.207-0.576,45.478,7.606"/>
<g opacity="0.7">
	<circle fill="#FFFFFF" cx="364.867" cy="119.159" r="2.244"/>
	<circle fill="#FFFFFF" cx="398.5" cy="120.164" r="2.243"/>
	<circle fill="#FFFFFF" cx="346.952" cy="178.389" r="2.243"/>
	
		<polyline opacity="0.3" fill="none" stroke="#FFFFFF" stroke-width="1.6733" stroke-miterlimit="10" enable-background="new    " points="
		364.892,118.597 398.5,120.164 384.677,188.004 346.927,178.948 364.867,119.159 	"/>
	
		<polyline opacity="0.3" fill="none" stroke="#FFFFFF" stroke-width="1.6733" stroke-miterlimit="10" enable-background="new    " points="
		548.606,42.945 492.23,48.18 429.767,75.588 398.5,120.164 	"/>
	<circle fill="#FFFFFF" cx="384.042" cy="188.205" r="2.393"/>
	<circle fill="#FFFFFF" cx="429.755" cy="75.865" r="2.394"/>
	<circle fill="#FFFFFF" cx="492.204" cy="47.781" r="2.395"/>
	<circle fill="#FFFFFF" cx="548.609" cy="42.947" r="2.395"/>
</g>
<circle fill="#FF7061" cx="1418.916" cy="63.334" r="6.25"/>
<circle fill="#FF7061" cx="1408.666" cy="78.084" r="4.625"/>
<circle fill="#FF7061" cx="1419.717" cy="84.084" r="1.953"/>
<circle fill="#FF7061" cx="1404.717" cy="66.584" r="1.953"/>
<circle fill="#FF7061" cx="1429.666" cy="72.084" r="3.125"/>
<g id="Layer_2">
	<path fill="#FFB640" d="M379.736,467.1c-4.203,10.216-13.392,7.921-23.607,3.718c-10.213-4.202-17.588-8.722-13.387-18.936
		c4.205-10.218,15.89-15.092,26.107-10.888C379.064,445.197,383.938,456.885,379.736,467.1z"/>
	
		<rect x="342.06" y="452.389" transform="matrix(0.9249 0.3803 -0.3803 0.9249 200.9588 -103.3925)" fill="#FF553E" width="40.17" height="9.002"/>
	
		<linearGradient id="SVGID_14_" gradientUnits="userSpaceOnUse" x1="194.5583" y1="-994.446" x2="288.2253" y2="-994.446" gradientTransform="matrix(0.3805 -0.9248 0.9248 0.3805 1165.5181 1114.0583)">
		<stop  offset="0" style="stop-color:#FFFFFF;stop-opacity:0"/>
		<stop  offset="1" style="stop-color:#FFFFBC"/>
	</linearGradient>
	<polygon opacity="0.2" fill="url(#SVGID_14_)" enable-background="new    " points="297.992,544.882 350.658,467.119 
		363.035,472.213 342.428,565.019 	"/>
	<path fill="#394CD3" d="M391.07,472.845c-1.05,2.553-3.973,3.771-6.524,2.72l-51.79-21.307c-2.553-1.052-3.772-3.974-2.723-6.526
		l0.253-0.616c1.051-2.553,3.975-3.771,6.526-2.721l51.789,21.307c2.553,1.052,3.771,3.976,2.722,6.525L391.07,472.845z"/>
	<path fill="#394CD3" d="M383.857,474.386c-1.049,2.554-12.438,2.992-14.991,1.94l-25.433-10.462
		c-2.555-1.053-10.268-9.215-9.218-11.771l7.545,2.697c1.051-2.556,3.973-3.771,6.524-2.724l25.431,10.465
		c2.555,1.055,3.773,3.976,2.724,6.526L383.857,474.386z"/>
	<path fill="#FFB640" d="M362.635,460.923c-0.324,0.789-1.225,1.164-2.014,0.838c-0.788-0.324-1.163-1.227-0.838-2.015
		c0.322-0.782,1.226-1.158,2.012-0.836C362.583,459.23,362.958,460.135,362.635,460.923z"/>
	<circle fill="#FFB640" cx="350.96" cy="456.115" r="1.541"/>
	<circle fill="#FFB640" cx="343.677" cy="453.12" r="1.542"/>
	<circle fill="#FFB640" cx="338.127" cy="450.84" r="1.541"/>
	<circle fill="#FFB640" cx="333.735" cy="449.031" r="1.541"/>
	<circle fill="#FFB640" cx="372.114" cy="464.821" r="1.542"/>
	<circle fill="#FFB640" cx="378.357" cy="467.389" r="1.541"/>
	<circle fill="#FFB640" cx="384.367" cy="469.863" r="1.223"/>
	<circle fill="#FFB640" cx="388.528" cy="471.574" r="1.222"/>
	<path fill="#394CD3" d="M345.442,474.127c-0.236,0.572-0.896,0.848-1.467,0.61l-4.396-1.807c-0.573-0.238-0.849-0.896-0.607-1.47
		l0,0c0.232-0.574,0.891-0.85,1.465-0.61l4.394,1.809C345.404,472.893,345.679,473.552,345.442,474.127L345.442,474.127z"/>
	<line fill="none" stroke="#394CD3" stroke-width="3" stroke-miterlimit="10" x1="342.205" y1="472.797" x2="349.86" y2="466.345"/>
	<path fill="#394CD3" d="M362.731,481.239c-0.237,0.573,0.063,1.244,0.675,1.494l4.664,1.919c0.608,0.25,1.296-0.011,1.532-0.586
		l0,0c0.235-0.575-0.066-1.244-0.68-1.497l-4.661-1.917C363.654,480.4,362.969,480.665,362.731,481.239L362.731,481.239z"/>
	<line fill="none" stroke="#394CD3" stroke-width="3" stroke-miterlimit="10" x1="366.165" y1="482.65" x2="365.003" y2="472.577"/>
	<circle fill="#FFD399" cx="369.96" cy="450.015" r="3.376"/>
</g>
<g id="Layer_6">
</g>
<g>
	<path fill="#FFB640" d="M1005.43,167.455c0,0,0.412,0.003,1.077,0.42s1.11,0.249,1.801,0.132c0.501-0.084,1.745-0.522,1.263,0.089
		c-0.841,1.063-1.933,1.381-2.448,1.403c-0.515,0.023-1.577-0.125-2.096,0.111c-0.519,0.237-0.494-0.39-0.494-0.39L1005.43,167.455z
		"/>
	<path fill="#E8921F" d="M994.91,172.603c0,0-3.402-4.666-4.154-5.415s-1.596-0.52-2.038-0.611c-0.443-0.092-1.57-0.354-1.57-0.354
		s-0.46,0.396,0.456,1.066c0.916,0.672,2.146,0.875,2.146,0.875s0.069,0.417,1.073,1.828c1.004,1.412,2.073,3.132,2.073,3.132
		l3.486,0.951L994.91,172.603z"/>
	<path fill="#D68522" d="M1005.973,188.641c0.197,1.329,1.099,1.625,1.099,1.625s0.771,0.61,0.74,0.898
		c-0.028,0.29-0.217,3.432-0.217,4.208c-0.001,0.823-0.212,1.147-0.291,1.714c-0.09,0.637-0.756,1.405-1.256,0.244
		c-0.293-0.678,0.199-1.374,0.303-1.88c0.161-0.782-0.246-2.57-0.539-3.099c-0.293-0.529-1.414-1.281-1.875-1.5
		c-0.461-0.218-3.087-1.106-3.992-3.83c-0.906-2.725,5.307-3.704,5.407-3.504S1005.973,188.641,1005.973,188.641z"/>
	<path fill="#FFB640" d="M994.493,172.479c0,0,0.023,1.314-2.774,2.167c-2.799,0.851-3.491,1.129-3.217,1.229
		c0.276,0.101,5.568,1.924,5.86,2.154c0.29,0.229,3.04-3.252,3.04-3.252L994.493,172.479z"/>
	<path fill="#FFB640" d="M1018.267,179.519c0,0-0.813,0.929-2.287,2.197c-1.205,1.037-2.185,1.795-2.668,2.073
		c-0.534,0.273-1.276,0.449-1.75,0.563c-0.971,0.232-2.898,0.185-3.5-0.063c-0.008-0.063-0.427-0.187-0.438-0.25
		c-0.438-2.563-4.086-4.219-4.861-7.424c-0.493-2.032-0.635-2.529-0.462-3.505c1.239-1.77,2.355-2.627,3.044-3.604
		c1.917-2.726-1.777-6.074-1.777-6.074l-0.834-2.583c0,0-0.779,0.09-1.51,1.164c-0.166,0.242-0.254,0.507-0.298,0.771l-0.03-0.207
		c0,0-0.172,0.218-0.386,0.638c-0.227,0.443-0.585,1.736-0.483,3.701c0.012,0.2-1.798,1.507-3.082,2.602
		c-1.24,0.535-2.99,1.479-3.727,2.779c-0.518,0.912-0.795,1.904-0.868,2.978l-5.019-0.018c-1.493-0.044-4.292-0.792-4.292-0.792
		s-0.132,0.67,0.751,1.144c0.884,0.474,4.92,1.551,5.951,1.639c0.555,0.047,2.371,0.306,3.743,0.444
		c0.103,0.943,0.563,2.054,1.065,3.04c0.736,1.445,2.963,3.715,4.966,5.511c-0.33-0.327-0.321-0.184-0.33-0.139
		c-0.688,3.563,2.783,5.485,3.125,5.863c0.343,0.378,0.628,0.539,0.696,1.139c0.066,0.6-0.96,2.754-1.033,2.954
		c0,0-1.398,1.769-1.37,2.333c0.067,1.408,1.028,1.166,1.449,0.557c0.285-0.411,0.188-0.747,0.146-1.009
		c0.201-0.245,0.358-0.615,0.598-1.054c0.514-0.95,2.251-3.651,2.389-3.908s-0.353-0.889-0.353-0.889s-0.721-0.618-0.394-1.92
		c0,0,0.153-0.515,0.356-1.21c0.992-0.753,2.002-1.89,2.27-2.738c1.127-0.132,3.921,0.346,6.744-0.932
		c1.688-0.813,2.111-1.6,3.563-3.438C1017.873,181.222,1019.043,178.639,1018.267,179.519z"/>
	
		<ellipse transform="matrix(-0.7843 -0.6204 0.6204 -0.7843 1687.6277 916.6773)" fill="#2D1F1E" stroke="#2D1F1E" stroke-width="0.1717" stroke-miterlimit="10" cx="1003.173" cy="164.955" rx="0.387" ry="0.429"/>
	<g>
		<g>
			<path fill="#2D1F1E" d="M1000.851,164.904c-0.273-0.608-0.279-1.256-0.23-1.909c0.016-0.191,0.299-0.695,0.275-0.417
				c-0.045,0.592,0.051,1.485,0.299,2.036C1001.275,164.792,1000.94,165.102,1000.851,164.904L1000.851,164.904z"/>
		</g>
	</g>
	<path fill="#EFE4D3" d="M1003.254,162.635l-0.521-1.785c0,0-1.288,0.435-1.616,1c-0.328,0.564,0.118,1.133,0.198,0.746
		c0.056-0.271,0.729-0.524,1.263-0.103C1002.922,162.763,1003.254,162.635,1003.254,162.635z"/>
	<path fill="#30200A" d="M1002.541,161.442l-0.027-0.612c0,0-0.555,0.152-0.707,0.347c-0.152,0.192,0.416,0.172,0.416,0.172
		L1002.541,161.442z"/>
	<path fill="#FFB640" d="M984.804,175.271c0,0-0.883-0.776-1.435-0.977c-0.551-0.199-0.454-0.124-0.43,0.445
		S984.804,175.271,984.804,175.271z"/>
	<path fill="#D68522" d="M1006.482,195.191c0,0-0.696,2.145-0.475,2.665c0.553,1.299,1.367,0.738,1.553,0.021
		c0.184-0.719-0.36-0.994-0.305-1.315c0.057-0.322,0.354-1.246,0.354-1.393C1007.608,195.023,1006.482,195.191,1006.482,195.191z"/>
</g>
</svg>
