<?xml version="1.0" encoding="utf-8"?>
<!-- Generator: Adobe Illustrator 16.0.0, SVG Export Plug-In . SVG Version: 6.00 Build 0)  -->
<!DOCTYPE svg PUBLIC "-//W3C//DTD SVG 1.1//EN" "http://www.w3.org/Graphics/SVG/1.1/DTD/svg11.dtd">
<svg version="1.1" id="Layer_1" xmlns="http://www.w3.org/2000/svg" xmlns:xlink="http://www.w3.org/1999/xlink" x="0px" y="0px"
	 width="929px" height="482.618px" viewBox="171 0 929 482.618" enable-background="new 171 0 929 482.618" xml:space="preserve">
<g id="Layer_2_3_">
	<circle fill="#394CD3" cx="629.65" cy="217.5" r="147.097"/>
	<circle fill="#394CD3" cx="460.267" cy="73.726" r="9.084"/>
	
		<radialGradient id="SVGID_1_" cx="1548.53" cy="-2160.8665" r="13.2335" fx="1551.7633" fy="-2151.468" gradientTransform="matrix(-0.1683 0.9858 0.9858 0.1683 2855.9685 -1085.533)" gradientUnits="userSpaceOnUse">
		<stop  offset="0.7783" style="stop-color:#FFFFFF;stop-opacity:0"/>
		<stop  offset="1" style="stop-color:#FFE5FF"/>
	</radialGradient>
	<circle opacity="0.2" fill="url(#SVGID_1_)" enable-background="new    " cx="460.267" cy="73.727" r="13.234"/>
	
		<circle opacity="0.3" fill="none" stroke="#394CD3" stroke-width="0.6988" stroke-miterlimit="10" enable-background="new    " cx="629.842" cy="218.146" r="156.066"/>
	<path fill="#394CD3" d="M770.533,246.565c0.466,6.522,2.795,7.919,1.863,13.51c-0.931,5.59-2.328,9.317-2.795,13.044
		c-0.466,3.727,0,7.454-3.261,9.317c-3.261,1.864-3.261,4.659-5.125,6.988c-1.863,2.329-0.931,7.453-6.521,7.919
		c-5.592,0.466-12.579,4.659-12.579,4.659L770.533,246.565z"/>
	<path fill="#394CD3" d="M664.315,81.18c17.238,2.329,18.169,0,26.09,2.329c7.919,2.329,9.783-1.397,13.976,3.261
		c4.193,4.659,7.453,6.056,9.783,8.386c2.328,2.329,6.056,5.124,10.248,8.385c4.193,3.261,8.853,3.261,12.114,7.92
		c3.26,4.658-0.468-0.466,6.055,8.851c6.522,9.318,7.921,7.92,7.921,13.045s-0.932,7.454,0.466,11.647
		C752.365,149.197,664.315,81.18,664.315,81.18z"/>
	<path fill="#2C42C4" d="M484.957,236.781c-1.864,3.261-2.33,10.249-2.33,11.646s-0.932,1.397,0.932,5.591
		c1.864,4.193,2.329,6.988,2.795,9.783c0.466,2.795-4.193-0.932,0.931,5.59c5.125,6.522,2.795,4.66,5.125,6.522
		s3.727,5.125,4.193,6.522c0.466,1.398,4.193,1.863,5.124,3.727c0.932,1.864,7.454,6.522,7.454,6.522L484.957,236.781"/>
	<path fill="#2C42C4" d="M577.474,82.621c-4.153,1.094-8.16,1.162-11.016,2.02c-2.859,0.859-5.808-0.61-8.427,1.544
		s-7.034,3.635-8.597,4.256c-1.562,0.624-2.355,1.771-4.975,3.926s-6.004,3.78-7.83,4.787c-1.823,1.004-2.474,1.122-4.324,3.805
		c-1.852,2.686-3.944,4.072-5.913,6.109c-1.972,2.035-4.208,4.455-5.676,7.403c-1.471,2.951-4.645,7.552-6.231,9.853
		c-1.587,2.3-3.999,7.431-3.999,7.431L577.474,82.621"/>
	<path fill="#2C42C4" d="M575.335,80.714c5.125-3.261,8.854-6.056,13.045-6.988c4.193-0.932,13.976-1.397,18.635-1.863
		c4.659-0.466,7.455,2.795,7.455,2.795"/>
	<path fill="#394CD3" d="M580.926,353.714c4.193,1.863,16.306,8.387,22.828,10.249c6.523,1.863,13.51,2.794,16.771,3.261
		c3.261,0.466,15.373-0.93,21.43-1.863c6.057-0.933,10.25,0,15.84-1.397s9.782-4.658,16.305-8.386"/>
</g>
<g id="Layer_2_2_">
	<g>
		<path fill="#2C42C4" d="M630.244,327.309c-4.964,6.11-8.019,11.455-15.653,10.311c-8.4-1.146-11.837-5.728-19.856-9.165
			c-4.583-1.906-11.837,2.673-17.184,0.383c-4.583-2.289-3.054-8.019-4.201-11.074c0-0.764,0.382-4.201,0-5.729
			c-0.764-4.2-10.638-9.122-5.127-18.175c8.048-13.219,22.31,5.575,29.566,9.394c9.164,4.201,16.037,4.964,24.439-0.766
			c6.11-4.201,17.565-13.747,22.529-3.055c6.108,13.748,0.764,20.621-8.02,22.91L630.244,327.309z"/>
	</g>
	<g>
		<path fill="#2C42C4" d="M689.727,208.588c-1.915-13.067-10.091-13.482-23.884-21.532c-11.104-6.857-16.83,0.247-26.977-2.97
			c-3.761-1.672-8.657-5.128-11.165-8.171c-3.045-3.279-2.152-6.741-4.123-9.547c-3.703-6.146-19.702-16.462-21.009-4.822
			c-0.178,1.849,4.062,8.232,4.959,10.559c1.914,7.28-1.848,5.612,3.946,11.399c9.374,9.303,16.355,6.617,26.741,9.296
			c3.462,0.894,6.508,4.176,9.731,5.605c2.688,1.193,7.938,0.949,10.089,1.905c7.045,4.413,3.887,15.873,8.427,23.033
			c9.68,15.87,0.718,4.179-8.168,11.167c-7.338,6.389,3.648,16.409,10.334,18.734c18.92,5.183,8.94-23.042,15.203-29.908
			c7.103-0.063,4.778,6.621,6.571,11.276c1.255,4.416,2.39,6.205,5.197,10.024c4.717,5.311,4.656,3.998,5.675,8.951
			c2.511,8.832,5.625,30.791,21.314,17.178c2.804-1.971,0.531-11.341-0.427-14.981c-0.715-4.177-8.117-4.89-11.164-8.168
			c-4.18-5.073-4.064-14.023-7.171-18.619c-0.3-0.773-8.954-5.902-8.897-10.38L689.727,208.588z"/>
	</g>
	<g>
		<path fill="#2C42C4" d="M736.027,144.378c-5.242,1.573-18.349,7.339-19.397,13.63c-2.097,6.815,7.864,13.631,9.437,20.97
			c1.049,5.767-4.193,13.109-1.572,18.351c2.097,4.718,13.107,8.388,18.35,6.815c14.681-4.194,7.862-32.505,5.767-42.466
			c-3.146-12.583-3.671-20.97-19.922-16.251"/>
	</g>
	<g>
		<path fill="#2C42C4" d="M699.256,315.827c-4.192,2.796-23.061,14.675-20.265,21.663c2.096,4.193,27.253-1.397,30.747-4.192
			c4.192-2.795,21.663-26.555,7.687-27.952c-3.494,0-9.084,6.289-12.578,8.385c-4.892,2.097-13.277-2.096-10.481,6.989"/>
	</g>
	<g>
		<path fill="#2C42C4" d="M613.369,241.521c-6.289-10.481-13.626-27.251-27.252-30.396c-7.337-1.048-14.674-3.145-13.626,5.241
			c0,6.289,11.53,7.336,13.626,11.529c2.096,4.192,0,7.336,2.096,9.433c5.241,12.578,13.626,31.445,27.252,26.203
			c-3.145,1.048,8.386-16.77,7.337-12.577c1.048-7.336,0-10.481-9.434-11.53"/>
	</g>
</g>
<g id="Layer_3_1_">
	<g>
		<g>
			<g>
				<g>
					<g>
						<defs>
							<circle id="SVGID_2_" cx="629.65" cy="217.5" r="147.097"/>
						</defs>
						<clipPath id="SVGID_3_">
							<use xlink:href="#SVGID_2_"  overflow="visible"/>
						</clipPath>
						<g display="none" clip-path="url(#SVGID_3_)">
							<g display="inline">
								<g>
									<path fill="#2C42C4" d="M624.504,278.189c-2.156,4.103-1.511,0.966-3.24,3.962c-1.503-1.907-5.726-0.173-4.192-6.159
										C621.684,272.901,621.297,279.994,624.504,278.189z"/>
									<path fill="#2C42C4" d="M623.464,254.363c-0.352,1.321-1.04,1.48-1.228,1.211l-0.713-0.449
										c0.362-1.303,1.06-1.465,1.237-1.207L623.464,254.363z"/>
									<path fill="#2C42C4" d="M613.049,271.583c-0.976,1.691-1.595,2.528-1.958,2.734c-1.963,0.659-3.908,0.362-5.107-0.904
										c-1.102-1.283-1.43-3.523-0.363-6.729c2.845-1.496,3.843-0.598,4.6,0.836C611.006,268.94,611.511,270.941,613.049,271.583z
										"/>
									<path fill="#2C42C4" d="M602.421,284.718c0.031,1.679-1.615,1.599-1.631,0.957l-1.232-0.775
										c-0.008-1.661,1.639-1.571,1.646-0.946L602.421,284.718z"/>
									<path fill="#2C42C4" d="M600.676,281.634c-0.271,1.373-1.172,1.413-1.383,1.094c-1.933-1.034-3.996-2.037-6.071-2.843
										c-1.038-0.403-2.081-0.757-3.108-1.04c-0.997-0.308-1.985-0.547-2.949-0.686l-1.268-0.981l-0.633-0.491
										c1.005-1.277,1.06-0.83,1.45-1l1.045,0.811c1.5-0.767,1.784,0.727,3.893-1.233c0.931,1.907,2.94,2.269,4.768,2.794
										C598.28,278.577,599.975,279.207,600.676,281.634z"/>
									<path fill="#2C42C4" d="M600.927,261.242c-1.34,2.11-1.685,3.25-1.055,3.421c-3.766,2.022-4.026-2.398-6.44-2.878
										c0.833-2.705,2.649,0.594,2.669-2.174c2.856-1.573,4.449-1.081,5.746-0.028c0.654,0.515,1.204,1.208,1.84,1.776
										c0.631,0.573,1.296,1.092,2.094,1.35c-1.325,2.862-1.955,0.01-2.746,0.121
										C602.305,262.332,601.624,261.774,600.927,261.242z"/>
									<path fill="#2C42C4" d="M592.268,260.877c-1.753,2.804-1.583,0.775-1.82,0.672c-1.23-0.472-2.478-2.538-3.756-3.198
										c2.541-2.803,0.863,1.068,4.202-3.038c-2.01,3.147-1.661,3.444,1.098,0.938C590.43,259.252,590.81,260.57,592.268,260.877z
										"/>
									<path fill="#2C42C4" d="M571.022,245.962c4.28-3.713,3.223-1.209,3.939-0.811c1.033,0.568,1.877,1.584,2.726,2.639
										c0.84,1.063,1.775,2.094,2.843,2.77c-2.428,0.218-3.88-0.917-5.125-2.137C574.138,247.218,572.995,245.982,571.022,245.962
										z"/>
									<path fill="#2C42C4" d="M559.983,258.635c-0.586,1.257-1.39,1.156-1.563,0.809l-0.928-0.932
										c0.595-1.25,1.399-1.151,1.568-0.803L559.983,258.635z"/>
									<path fill="#2C42C4" d="M553.235,258.959c-0.446,1.59-1.914,1.188-1.758,0.59
										C551.93,257.961,553.4,258.358,553.235,258.959z"/>
									<path fill="#2C42C4" d="M550.936,258.969c-1.094,2.205-1.839,0.452-2.118,0.18c-1.729,0.231-3.061-0.072-3.594-1.392
										C550.42,254.01,548.969,258.643,550.936,258.969z"/>
									<path fill="#2C42C4" d="M610.059,56.644c-1.943-0.107-4.223-0.473-5.837-0.992c-0.808-0.261-1.45-0.564-1.801-0.897
										c-0.375-0.4-0.463-0.846-0.132-1.296c1.01,0.115,1.901,0.306,2.694,0.552c0.771,0.187,1.442,0.411,2.051,0.683
										C608.248,55.231,609.184,55.919,610.059,56.644z"/>
									<path fill="#2C42C4" d="M434.203,100.021c0.367,0.307-2.373,1.13-4.72,1.878c-3.203,1.192-5.634,2.227-9.493,3.471
										c-0.496,0.29-1.02,0.582-1.578,0.878c-0.549,0.344-1.13,0.708-1.754,1.065c-1.247,0.72-2.657,1.458-4.281,2.217
										c1.298,0.809-1.826,2.71-2.446,4.169c-1.351,0.645-3.14,1.33-4.876,2.011c-1.73,0.692-3.419,1.315-4.499,2.069
										c-0.539,1.114-1.633,2.39-2.68,3.682c-0.522,0.647-1.037,1.286-1.457,1.925c-0.392,0.74-0.691,1.464-0.831,2.146
										c-0.199,0.968-0.228,1.906-0.157,2.828c0.036,0.459,0.096,0.917,0.173,1.37c0.137,0.649,0.326,1.401,0.507,2.093
										c0.387,1.41,0.774,2.825,1.161,4.238c0.19,0.712,0.373,1.422,0.54,2.141l0.121,0.539l0.058,0.272
										c0.022,0.102,0.008,0.088,0.014,0.137c0.004,0.142,0.002,0.285-0.007,0.43c-0.06,0.896-0.12,1.788-0.18,2.675l-0.023,0.333
										l-0.012,0.167l-0.007,0.083l-0.003,0.021l-0.001,0.01v0.005c-0.222-0.623,1.952,5.444,1.034,2.88l0.008,0.065l0.136,1.049
										c0.093,0.701,0.186,1.4,0.276,2.097c0.379,2.792,0.789,5.574,1.269,8.321c0.239,1.367,0.495,2.761,0.771,4.082
										c0.279,1.259,0.579,2.507,0.904,3.742c0.65,2.473,1.394,4.899,2.273,7.257c1.182,0.721,3.742,0.398,4.424,1.427
										c1.764,2.222,3.524,4.391,5.212,6.566c0.846,1.087,1.675,2.176,2.474,3.273c0.798,1.069,1.546,2.027,2.274,3.07
										c1.449,2.05,2.766,4.167,3.888,6.413c0.276,0.547,0.558,1.162,0.795,1.676c0.245,0.534,0.475,1.075,0.688,1.626
										c0.431,1.104,0.805,2.25,1.116,3.442c0.403,1.547,0.638,3.193,0.794,4.897l0.103,1.281l0.048,1.212l0.065,2.452
										c0.04,1.636,0.089,3.269,0.236,4.843c0.073,0.787,0.172,1.558,0.306,2.309c0.067,0.372,0.147,0.751,0.224,1.102
										c0.071,0.331,0.146,0.656,0.236,0.972c0.362,1.291,1.722,2.029,2.092,3.248c0.516,1.732-0.457,4.33-0.091,6.058
										c0.396,1.976,1.071,3.525,1.802,4.954c0.376,0.71,0.743,1.4,1.111,2.091l0.271,0.522l0.068,0.131l0.004,0.009l0.635,0.976
										l0.009,0.017l0.02,0.036l0.039,0.073l0.153,0.293c0.203,0.392,0.399,0.792,0.583,1.205
										c3.544,2.415,8.392,3.477,13.235,4.848c2.399,0.668,4.746,1.369,6.847,2.288c2.121,0.937,4.054,2.132,5.523,3.717
										c2.582-0.221,4.387,0.297,6.27,0.735c1.896,0.451,3.904,0.837,6.793,0.292l1.277,1.769
										c3.109-0.253,5.818-0.176,8.392,0.096c2.589,0.277,4.989,0.726,7.364,1.176c2.388,0.448,4.712,0.884,7.265,1.154
										c2.556,0.275,5.256,0.363,8.262,0.075c2.223,0.582,5.139,0.331,8.026,0.145c2.9-0.186,5.704-0.314,7.625,0.537
										c2.947-0.385,5.402-0.238,7.645,0.208c2.256,0.446,4.238,1.187,6.121,1.999c1.898,0.808,3.616,1.699,5.535,2.382
										c1.891,0.691,3.835,1.203,5.985,1.28c0.495,0.189,2.093-2.127-0.186-0.196c-2.221-2.136-5.44-3.383-8.747-4.571
										c-1.675-0.589-3.411-1.15-5.123-1.779c-0.854-0.313-1.708-0.644-2.531-1.001c-0.807-0.362-1.594-0.744-2.351-1.168
										c-3.189,0.994-4.675-0.002-6.786-0.306c-1.583-0.347-6.981,1.356-5.332-1.242c0.866-0.038,1.186,0.523,4.581-2.313
										c2.085-1.389,2.439-0.859,3.461-1.075c2.345-0.771,3.088,0.228,4.622,0.337c4.159-1.02,5.207,1.414,9.169,0.532
										c0.655,2.455,4.702,0.891,6.325,2.143c1.483-0.573,4.328-2.807,4.791-2.172c-0.421,2.17,1.549,1.221,3.483,1.364
										c1.907,1.375,4.033,2.454,6.079,3.599c0.514,0.286,1.016,0.58,1.522,0.881c0.515,0.294,1.021,0.596,1.514,0.917
										c0.986,0.641,1.919,1.348,2.768,2.171c2.307-0.564,3.543,0.307,5.258,0.506c0.236,0.244,0.495,0.474,0.744,0.708
										c1.688-1.825,0.599-1.523,0.422-1.912l-0.897-0.895l-0.896-0.896c-3.991-4.312-8.762-8.438-14.991-10.904
										c-1.552-2.05-4.188-3.84-7.05-5.557c-1.327-0.803-2.662-1.738-4.161-2.409c-1.421-0.635-3.712-0.538-5.612-0.704
										c-1.875-0.167-3.368-0.594-3.206-2.213c1.648,0.673,5.892-1.46,8.869-2.288c3.977,0.072,8.834-0.529,13.306-0.78
										c2.227-0.118,4.412-0.176,6.351-0.009c1.939,0.168,3.64,0.562,4.964,1.325c0.703,0.4,0.524,1.908,1.728,1.957
										c1.336,0.053,4.333-1.316,6.875-2.461c1.556,0.281,3.162,0.479,4.812,0.598c0.824,0.061,1.658,0.103,2.502,0.126
										c0.854,0.015,1.723,0.002,2.595-0.021l1.915,1.917c2.286-0.541,0.54-2.069,0.073-2.29
										c-0.788-0.801-1.601-1.573-2.367-2.397l-2.299-2.467c-1.527-1.652-3.094-3.264-4.555-4.984
										c0.161-1.177-3.28,0.032,1.043-3.907c2.439-0.384,3.292,1.012,4.193,2.378c0.923,1.333,1.879,2.66,4.365,2.09
										c0.422-2.084-0.049-3.517-0.854-4.514c-0.81-0.99-1.898-1.617-2.767-1.949c-2.558-1.035,0.211-6.25-4.03-4.615
										c-0.509-0.276-0.867-0.655,0.447-2.098c2.574-2.315-0.347-1.053,3.576-3.567c3.965-3.345,4.239-2.723,4.664-2.254
										c0.5,0.498,2.832-1.03,2.506,0.346c3.71-2.042,2.355,1.507,7.234-1.921c0.361-1.308,4.455-5.147,5.265-6.717
										c-0.931-0.475,1.263-3.043-0.41-3.004c1.619-3.198,0.269-4.424,2.273-7.788c0.189-1.492-3.366-0.599-0.795-3.604
										c0.121,0.159,0.244,0.309,0.366,0.456c0.607-0.094,1.844-1.504,1.058-1.351l-0.604-0.771
										c0.322-1.281,5.408-4.461,4.765-4.793c-0.832-0.234-0.56-1.154,0.251-2.399c0.022-0.757-1.018-0.865,3.139-4.146
										c6.012-4.738,4.821-2.466,7.521-4.004c2.149-0.919,4.852-2.404,6.374-2.743c0.764-0.046,1.377,0.037,1.879,0.212
										c0.505,0.153,0.9,0.399,1.23,0.708c0.658,0.615,1.052,1.469,1.506,2.273c0.452,0.799,0.97,1.575,1.861,1.949
										c0.891,0.353,2.161,0.355,4.105-0.311c-0.323-0.859-0.626-1.729-0.916-2.605c-0.287-0.918-0.561-1.863-0.826-2.797
										c-0.53-1.895-1.02-3.686-1.529-5.664c-0.509-1.936-1.026-3.788-1.613-5.63c-0.591-1.89-1.242-3.692-2.013-5.367
										c-0.274-0.843,3.12-3.014,0.491-2.161c3.147-5.105-6.996-1.123-4.231-5.885c3.247-2.22,1.813-0.247,4.65-2.126
										c-1.837-1.237-4.097-2.431-6.606-3.509c-2.519-1.12-5.31-2.236-8.159-3.147c-6.628,4.219,1.098,1.082-3.268,4.149
										c-1.104-0.349-2.139-0.712-3.145-1.067c-1.011-0.379-1.997-0.764-2.996-1.114c-1.997-0.703-4.05-1.298-6.497-1.645
										c0.143-0.227,0.375-0.496,0.659-0.791c0.158-0.159,0.308-0.309,0.459-0.46c-0.092-0.144,0.813,1.246,0.429,0.655l0.001,0
										l0.003-0.001l0.002-0.003l0.009-0.007l0.015-0.015l0.03-0.031l0.063-0.061l0.128-0.122l0.258-0.246
										c0.699-0.66,1.457-1.351,1.979-1.925c-2.652-0.576-4.5-2.057-5.971-3.75c-0.367-0.424-0.711-0.86-1.035-1.299
										c-0.317-0.424-0.614-0.848-0.901-1.266c-0.575-0.834-1.107-1.636-1.652-2.322c1.145-1.747,1.824-3.273,2.207-4.659
										c0.189-0.692,0.307-1.349,0.369-1.98c0.091-0.597,0.132-1.16,0.139-1.71c0.03-2.195-0.47-4.131-0.181-6.423
										c-0.864-0.685-1.549-1.205-2.199-1.855c-0.632-0.637-1.16-1.334-1.49-2.146c-0.328-0.81-0.471-1.748-0.306-2.833
										c0.225-1.034,0.738-2.23,1.63-3.642c-1.06-1.006-0.074-2.904,0.413-4.483c0.611-1.476,0.735-2.616-2.272-2.395
										c2.248-1.428,1.665-1.651,2.489-2.462c-1.943,0.59-2.14,0.237-1.821-0.267c0.334-0.493,1.115-1.185,0.993-1.413
										c-0.386-0.73-1.578-1.882-2.818-2.008c-0.422-0.044,1.321-0.938,1.369-1.037c0.26-0.819,0.723-1.672,1.312-2.504
										c0.294-0.42,0.622-0.833,0.97-1.24c0.174-0.203,0.354-0.405,0.538-0.603l0.034-0.038l0.011-0.009l0.004-0.004l0.001-0.001
										c2.022,5.633,0.56,1.557,1.011,2.814l0.001-0.005l0.011-0.039l0.046-0.161l0.093-0.318
										c0.065-0.212,0.129-0.422,0.191-0.628c0.244-0.77,0.481-1.516,0.713-2.249l0.175-0.546l0.043-0.136
										c0.017-0.035,0.017-0.122,0.064-0.075l0.224,0.104c0.296,0.142,0.585,0.287,0.865,0.435
										c0.563,0.296,1.092,0.606,1.583,0.928l0.361,0.244l0.175,0.123l0.117-0.088c0.147-0.112,0.293-0.225,0.438-0.336
										c0.139-0.113-1.818,0.409-1.665,0.266c0.06-0.021,0.347-0.124,0.725-0.26c0.367-0.131,0.756-0.276,0.852-0.341
										c0.146-0.097,0.249-0.18,0.321-0.249c0.036-0.037,0.063-0.071,0.083-0.103c0.02-0.024,0.034-0.056,0.031-0.128
										c0-0.236-0.097-0.432-0.23-0.611c-0.268-0.357-0.681-0.649-0.743-1.059c-0.012-0.075,0.013-0.131,0.044-0.242
										c0.03-0.119,0.081-0.244,0.145-0.372c0.127-0.255,0.306-0.527,0.474-0.792c0.336-0.53,0.633-1.038,0.393-1.395
										c-0.134-0.201-0.334-0.388-0.578-0.564c-0.123-0.087-0.256-0.172-0.399-0.255l-0.481-0.353
										c-0.675-0.472-1.459-0.914-2.205-1.356c-0.747-0.447-1.455-0.893-1.977-1.38c-0.132-0.121-0.249-0.245-0.355-0.372
										c-0.115-0.16-0.218-0.326-0.303-0.492c-0.172-0.335-0.277-0.685-0.302-1.055c-2.412-0.216-4.681-0.48-6.929-0.741
										c-1.123-0.124-2.249-0.249-3.371-0.372l-0.849-0.089l-0.872-0.131c-0.59-0.081-1.178-0.162-1.762-0.245
										c-4.742-0.608-9.862-0.887-16.291-0.301c-5.929,1.651-14.143,4.518-17.773,4.937c-9.221,3.91-17.063,5.73-28.674,9.499
										c-4.813,2.363-9.85,4.66-15.471,6.932c-5.172,0.764-11.476,3.252-17.788,4.906c-0.209,0.464-4.151,1.645-6.29,2.381
										c-2.445,0.84-3.287,1.564-6.422,1.936c0.482,0.484-0.155,1.128-2.941,2.047c-0.057,0.548-0.044,1.088-4.623,2.216
										c0.969-1.005-2.985-0.098-2.014-1.093c-11.383,3.145-16.116,3.697-24.477,5.817
										C440.284,98.332,437.911,99.093,434.203,100.021z M604.183,179.725c-0.713,1.378-1.949,1.108-1.675,0.581
										C603.218,178.935,604.45,179.204,604.183,179.725z M514.976,250.777c-3.77,3.364-2.689,1.383-3.286,1.25
										C513.559,250.764,514.49,250.531,514.976,250.777z"/>
								</g>
							</g>
						</g>
					</g>
				</g>
			</g>
		</g>
		<g>
			<g>
				<g>
					<g>
						<defs>
							<circle id="SVGID_4_" cx="629.65" cy="217.5" r="147.097"/>
						</defs>
						<clipPath id="SVGID_5_">
							<use xlink:href="#SVGID_4_"  overflow="visible"/>
						</clipPath>
						<g display="none" clip-path="url(#SVGID_5_)">
							<g display="inline">
								<g>
									<path fill="#2C42C4" d="M633.095,215.91c3.989,2.359,0.889,1.557,3.798,3.435c-1.98,1.406-0.459,5.71-6.36,3.879
										C627.674,218.461,634.741,219.202,633.095,215.91z"/>
									<path fill="#2C42C4" d="M609.248,215.76c1.299,0.417,1.427,1.115,1.15,1.286l-0.484,0.691
										c-1.283-0.426-1.408-1.13-1.141-1.297L609.248,215.76z"/>
									<path fill="#2C42C4" d="M625.925,227.021c1.641,1.061,2.445,1.719,2.636,2.091c0.564,1.995,0.165,3.92-1.157,5.053
										c-1.336,1.034-3.593,1.253-6.741,0.028c-1.348-2.922-0.405-3.868,1.069-4.555
										C623.183,228.929,625.206,228.524,625.925,227.021z"/>
									<path fill="#2C42C4" d="M638.512,238.295c1.679,0.05,1.516,1.692,0.875,1.676l-0.837,1.188
										c-1.656-0.074-1.487-1.713-0.86-1.69L638.512,238.295z"/>
									<path fill="#2C42C4" d="M635.345,239.88c1.357,0.339,1.354,1.242,1.027,1.435c-1.128,1.88-2.235,3.889-3.145,5.924
										c-0.455,1.015-0.86,2.039-1.194,3.052c-0.362,0.979-0.647,1.957-0.834,2.912l-1.043,1.212l-0.522,0.607
										c-1.226-1.066-0.773-1.098-0.925-1.499l0.861-1.005c-0.687-1.534,0.813-1.746-1.034-3.947
										c1.95-0.833,2.414-2.823,3.029-4.622C632.173,242.119,632.885,240.461,635.345,239.88z"/>
									<path fill="#2C42C4" d="M614.989,238.61c2.042,1.444,3.165,1.848,3.365,1.225c1.829,3.862-2.596,3.901-3.197,6.288
										c-2.661-0.967,0.724-2.613-2.04-2.774c-1.428-2.933-0.856-4.499,0.258-5.741c0.55-0.627,1.267-1.142,1.867-1.748
										c0.606-0.602,1.155-1.24,1.452-2.025c2.792,1.471-0.087,1.955-0.015,2.752C616.149,237.29,615.558,237.94,614.989,238.61z"
										/>
									<path fill="#2C42C4" d="M614.194,247.24c2.713,1.891,0.695,1.617,0.581,1.849c-0.532,1.207-2.658,2.347-3.381,3.594
										c-2.673-2.676,1.109-0.81-2.824-4.349c3.042,2.167,3.356,1.831,0.991-1.052C612.479,248.994,613.812,248.68,614.194,247.24
										z"/>
									<path fill="#2C42C4" d="M598.235,267.712c-3.491-4.46-1.043-3.277-0.612-3.972c0.617-1.006,1.675-1.794,2.771-2.596
										c1.104-0.785,2.181-1.667,2.908-2.697c0.096,2.434-1.106,3.828-2.388,5.011
										C599.645,264.663,598.353,265.744,598.235,267.712z"/>
									<path fill="#2C42C4" d="M610.342,279.372c1.226,0.651,1.085,1.446,0.73,1.603l-0.978,0.885
										c-1.219-0.656-1.077-1.455-0.723-1.608L610.342,279.372z"/>
									<path fill="#2C42C4" d="M610.327,286.128c1.565,0.526,1.093,1.973,0.498,1.788
										C609.264,287.386,609.733,285.934,610.327,286.128z"/>
									<path fill="#2C42C4" d="M610.222,288.425c2.146,1.207,0.358,1.858,0.072,2.126c0.145,1.736-0.22,3.053-1.569,3.518
										C605.245,288.697,609.798,290.372,610.222,288.425z"/>
									<path fill="#2C42C4" d="M411.107,219.26c-0.204,1.935-0.68,4.194-1.281,5.779c-0.301,0.795-0.635,1.419-0.987,1.755
										c-0.418,0.354-0.868,0.42-1.295,0.064c0.162-1.005,0.396-1.881,0.684-2.665c0.223-0.762,0.482-1.423,0.782-2.015
										C409.608,220.999,410.34,220.1,411.107,219.26z"/>
									<path fill="#2C42C4" d="M445.636,397.064c0.324-0.351,1.009,2.431,1.637,4.811c1.032,3.258,1.942,5.739,2.992,9.652
										c0.265,0.51,0.531,1.047,0.797,1.62c0.317,0.565,0.652,1.164,0.977,1.805c0.657,1.282,1.324,2.724,2,4.386
										c0.874-1.26,2.614,1.96,4.04,2.651c0.576,1.38,1.174,3.201,1.765,4.966c0.605,1.764,1.143,3.481,1.842,4.597
										c1.086,0.595,2.308,1.752,3.541,2.861c0.62,0.555,1.232,1.1,1.849,1.555c0.72,0.423,1.427,0.763,2.104,0.935
										c0.957,0.248,1.892,0.324,2.814,0.3c0.461-0.016,0.92-0.051,1.378-0.104c0.655-0.102,1.413-0.253,2.113-0.4
										c1.427-0.313,2.86-0.63,4.295-0.946c0.716-0.154,1.438-0.302,2.164-0.432l0.545-0.095l0.273-0.043
										c0.103-0.018,0.089-0.007,0.139-0.01c0.142,0.004,0.284,0.016,0.429,0.029c0.889,0.104,1.779,0.208,2.663,0.313
										l0.331,0.041l0.166,0.02l0.083,0.01l0.021,0.005l0.01,0.001l0.005,0.001c-0.635,0.191,5.546-1.679,2.932-0.889l0.065-0.005
										l1.056-0.084c0.706-0.058,1.408-0.115,2.109-0.173c2.808-0.238,5.604-0.509,8.371-0.851
										c1.38-0.171,2.782-0.358,4.118-0.569c1.267-0.216,2.532-0.451,3.783-0.713c2.501-0.524,4.962-1.15,7.361-1.908
										c0.777-1.146,0.585-3.712,1.646-4.347c2.305-1.651,4.562-3.302,6.818-4.877c1.129-0.791,2.258-1.56,3.393-2.308
										c1.107-0.743,2.102-1.441,3.178-2.117c2.12-1.347,4.3-2.552,6.598-3.563c0.562-0.247,1.187-0.499,1.715-0.71
										c0.544-0.219,1.097-0.42,1.659-0.605c1.124-0.375,2.286-0.691,3.492-0.943c1.565-0.328,3.223-0.479,4.933-0.546
										l1.286-0.041l1.213,0.015l2.452,0.059c1.636,0.041,3.269,0.072,4.848,0.005c0.79-0.035,1.566-0.094,2.322-0.188
										c0.375-0.047,0.758-0.108,1.111-0.169c0.335-0.052,0.661-0.114,0.981-0.189c1.306-0.295,2.113-1.616,3.35-1.928
										c1.756-0.428,4.303,0.675,6.046,0.394c1.993-0.298,3.573-0.893,5.038-1.554c0.726-0.338,1.435-0.672,2.143-1.004
										l0.537-0.247l0.132-0.061l0.009-0.003l1.005-0.585l0.019-0.009l0.037-0.018l0.074-0.035l0.302-0.138
										c0.402-0.183,0.811-0.357,1.232-0.522c2.589-3.419,3.89-8.207,5.504-12.972c0.786-2.365,1.605-4.675,2.632-6.727
										c1.039-2.07,2.33-3.943,3.988-5.329c-0.092-2.592,0.514-4.371,1.048-6.226c0.54-1.872,1.031-3.857,0.63-6.77l1.831-1.186
										c-0.099-3.118,0.114-5.818,0.514-8.377c0.407-2.573,0.976-4.943,1.54-7.296c0.567-2.363,1.119-4.661,1.519-7.198
										c0.4-2.538,0.623-5.231,0.487-8.248c0.692-2.192,0.588-5.117,0.544-8.013c-0.04-2.904-0.029-5.713,0.918-7.587
										c-0.238-2.961,0.032-5.407,0.589-7.624c0.556-2.233,1.398-4.177,2.304-6.012c0.902-1.855,1.878-3.53,2.657-5.409
										c0.784-1.854,1.391-3.771,1.576-5.914c0.216-0.485-2.02-2.199-0.205,0.172c-2.243,2.112-3.652,5.263-5.001,8.509
										c-0.672,1.641-1.323,3.348-2.034,5.025c-0.356,0.836-0.728,1.675-1.125,2.479c-0.398,0.787-0.824,1.554-1.283,2.286
										c0.831,3.237-0.236,4.674-0.644,6.762c-0.423,1.563,1.004,7.04-1.506,5.264c0.006-0.866,0.581-1.158-2.082-4.691
										c-1.284-2.151-0.734-2.479-0.901-3.508c-0.654-2.38,0.381-3.073,0.567-4.599c-0.811-4.208,1.676-5.132,0.99-9.131
										c2.486-0.532,1.126-4.651,2.46-6.209c-0.5-1.511-2.587-4.464-1.934-4.894c2.149,0.527,1.296-1.486,1.538-3.413
										c1.468-1.836,2.653-3.905,3.899-5.893c0.312-0.499,0.631-0.986,0.954-1.476c0.321-0.499,0.65-0.989,0.994-1.466
										c0.689-0.954,1.441-1.849,2.307-2.656c-0.446-2.33,0.486-3.524,0.771-5.227c0.254-0.221,0.497-0.471,0.743-0.708
										c-1.74-1.778-1.492-0.676-1.891-0.518l-0.94,0.853l-0.939,0.851c-4.505,3.77-8.867,8.329-11.644,14.427
										c-2.122,1.446-4.044,3.991-5.902,6.764c-0.866,1.288-1.869,2.571-2.612,4.034c-0.707,1.388-0.723,3.682-0.983,5.571
										c-0.262,1.862-0.76,3.333-2.373,3.093c0.756-1.616-1.163-5.957-1.841-8.976c0.269-3.969-0.087-8.846-0.115-13.327
										c-0.006-2.228,0.044-4.415,0.31-6.343c0.266-1.931,0.743-3.607,1.571-4.89c0.437-0.685,1.934-0.429,2.041-1.627
										c0.12-1.333-1.098-4.394-2.115-6.99c0.361-1.539,0.636-3.135,0.839-4.774c0.102-0.82,0.185-1.651,0.25-2.492
										c0.056-0.853,0.089-1.72,0.108-2.593l2.012-1.818c-0.428-2.309-2.04-0.641-2.286-0.189c-0.837,0.747-1.65,1.521-2.51,2.246
										l-2.579,2.171c-1.728,1.442-3.415,2.927-5.204,4.297c-1.168-0.219-0.132,3.277-3.851-1.238
										c-0.262-2.455,1.176-3.236,2.585-4.068c1.379-0.855,2.751-1.742,2.305-4.255c-2.058-0.527-3.513-0.126-4.551,0.627
										c-1.029,0.759-1.708,1.814-2.084,2.664c-1.162,2.503-6.233-0.524-4.812,3.794c-0.303,0.498-0.699,0.833-2.073-0.549
										c-2.185-2.689-1.069,0.294-3.386-3.75c-3.143-4.126-2.504-4.372-2.016-4.77c0.521-0.474-0.888-2.879,0.472-2.486
										c-1.853-3.807,1.622-2.278-1.557-7.323c-1.288-0.424-4.918-4.704-6.449-5.595c-0.518,0.908-2.975-1.413-3.018,0.261
										c-3.114-1.777-4.407-0.49-7.669-2.661c-1.479-0.263-0.767,3.333-3.639,0.614c0.162-0.113,0.32-0.227,0.474-0.344
										c-0.062-0.612-1.412-1.917-1.295-1.123l-0.8,0.568c-1.266-0.386-4.185-5.625-4.55-4.999c-0.277,0.82-1.183,0.5-2.383-0.373
										c-0.754-0.06-0.917,0.976-3.982-3.341c-4.433-6.245-2.223-4.938-3.625-7.709c-0.809-2.196-2.158-4.968-2.42-6.505
										c-0.01-0.765,0.103-1.372,0.305-1.867c0.179-0.497,0.445-0.88,0.769-1.193c0.647-0.626,1.518-0.976,2.344-1.389
										c0.82-0.416,1.619-0.889,2.04-1.762c0.396-0.874,0.462-2.14-0.107-4.116c-0.873,0.277-1.757,0.539-2.647,0.781
										c-0.933,0.243-1.888,0.469-2.834,0.684c-1.919,0.435-3.731,0.834-5.73,1.244c-1.962,0.412-3.835,0.835-5.705,1.327
										c-1.917,0.494-3.75,1.059-5.46,1.74c-0.857,0.231-2.853-3.266-2.133-0.596c-4.939-3.398-1.471,6.93-6.088,3.93
										c-2.053-3.353-0.157-1.821-1.892-4.752c-1.326,1.771-2.633,3.972-3.836,6.422c-1.241,2.46-2.497,5.191-3.551,7.993
										c3.884,6.83,1.135-1.042,3.981,3.473c-0.402,1.084-0.818,2.1-1.225,3.086c-0.427,0.992-0.858,1.958-1.259,2.937
										c-0.801,1.961-1.5,3.978-1.969,6.408c-0.219-0.158-0.478-0.402-0.756-0.7l-0.215-0.233l-0.11-0.125l-0.055-0.063
										l-0.027-0.032l-0.014-0.015l-0.007-0.011l-0.004-0.003l-0.002-0.001l0-0.001c0.304-0.177-0.679,0.394,0.679-0.396
										c-0.157-0.18-0.309-0.357-0.462-0.533c-0.625-0.731-1.274-1.522-1.824-2.072c-0.708,2.619-2.279,4.393-4.042,5.776
										c-0.442,0.345-0.894,0.667-1.351,0.973c-0.441,0.296-0.877,0.568-1.309,0.835c-0.859,0.534-1.688,1.025-2.401,1.532
										c-1.688-1.229-3.179-1.985-4.542-2.436c-0.684-0.224-1.332-0.375-1.962-0.47c-0.591-0.12-1.15-0.189-1.701-0.222
										c-2.192-0.139-4.15,0.264-6.427-0.14c-0.725,0.829-1.277,1.486-1.962,2.104c-0.668,0.601-1.39,1.092-2.219,1.382
										c-0.826,0.285-1.768,0.385-2.843,0.162c-1.019-0.277-2.19-0.848-3.557-1.81c-1.06,1.007-2.904-0.072-4.458-0.636
										c-1.443-0.685-2.576-0.864-2.505,2.15c-1.315-2.315-1.564-1.746-2.335-2.611c0.492,1.971,0.131,2.148-0.358,1.807
										c-0.475-0.356-1.128-1.172-1.361-1.062c-0.748,0.349-1.961,1.482-2.144,2.715c-0.068,0.42-0.87-1.366-0.972-1.42
										c-0.802-0.301-1.631-0.803-2.434-1.435c-0.402-0.314-0.801-0.661-1.189-1.029c-0.194-0.186-0.387-0.374-0.576-0.569
										l-0.036-0.036l-0.011-0.01l-0.005-0.005l-0.001-0.001c5.737-1.739,1.589-0.481,2.869-0.872l-0.005-0.001l-0.042-0.014
										l-0.157-0.054l-0.313-0.109c-0.208-0.072-0.415-0.149-0.621-0.221c-0.753-0.281-1.49-0.555-2.209-0.827l-0.539-0.202
										l-0.132-0.047c-0.035-0.02-0.121-0.024-0.073-0.072l0.116-0.217c0.159-0.289,0.315-0.57,0.479-0.843
										c0.324-0.547,0.657-1.063,1.004-1.534l0.262-0.347l0.132-0.166l-0.083-0.123c-0.106-0.153-0.212-0.305-0.315-0.452
										c-0.104-0.146,0.318,1.835,0.182,1.674c-0.016-0.062-0.104-0.354-0.22-0.737c-0.114-0.374-0.24-0.771-0.3-0.868
										c-0.09-0.149-0.165-0.257-0.235-0.332c-0.035-0.041-0.066-0.069-0.097-0.088c-0.024-0.022-0.055-0.04-0.126-0.041
										c-0.237-0.012-0.437,0.075-0.624,0.2c-0.369,0.249-0.683,0.647-1.092,0.689c-0.075,0.008-0.132-0.018-0.237-0.056
										c-0.118-0.036-0.243-0.093-0.365-0.163c-0.249-0.139-0.51-0.333-0.766-0.511c-0.513-0.365-1.008-0.685-1.376-0.463
										c-0.208,0.125-0.403,0.315-0.593,0.55c-0.093,0.118-0.185,0.247-0.275,0.386l-0.376,0.464
										c-0.507,0.65-0.985,1.412-1.468,2.135c-0.48,0.724-0.965,1.411-1.473,1.908c-0.13,0.125-0.257,0.237-0.391,0.334
										c-0.163,0.107-0.335,0.201-0.508,0.278c-0.344,0.154-0.698,0.243-1.067,0.247c-0.334,2.4-0.713,4.651-1.086,6.886
										c-0.18,1.117-0.36,2.233-0.539,3.348l-0.131,0.843l-0.174,0.861c-0.111,0.585-0.22,1.168-0.331,1.749
										c-0.844,4.705-1.382,9.806-1.118,16.255c1.355,6.006,3.806,14.352,4.044,17.998c3.441,9.405,4.869,17.328,8.051,29.114
										c2.118,4.923,4.16,10.069,6.15,15.795c0.504,5.206,2.677,11.625,4.011,18.012c0.451,0.231,1.431,4.229,2.061,6.4
										c0.716,2.485,1.398,3.363,1.615,6.51c0.509-0.456,1.121,0.213,1.896,3.044c0.544,0.083,1.084,0.099,1.982,4.728
										c-0.953-1.017-0.247,2.977-1.193,1.956c2.573,11.527,2.886,16.282,4.587,24.739
										C444.254,390.906,444.893,393.317,445.636,397.064z M533.74,231.282c1.341,0.783,1.011,1.999,0.496,1.704
										C532.903,232.208,533.231,230.991,533.74,231.282z M600.242,323.93c3.169,3.935,1.246,2.753,1.083,3.348
										C600.157,325.344,599.974,324.406,600.242,323.93z"/>
								</g>
							</g>
						</g>
					</g>
				</g>
			</g>
		</g>
		<g>
			<g>
				<g>
					<g>
						<defs>
							<circle id="SVGID_6_" cx="629.65" cy="217.5" r="147.097"/>
						</defs>
						<clipPath id="SVGID_7_">
							<use xlink:href="#SVGID_6_"  overflow="visible"/>
						</clipPath>
						<g display="none" clip-path="url(#SVGID_7_)">
							<g display="inline">
								<g>
									<path fill="#2C42C4" d="M663.377-84.107c3.989,2.36,0.89,1.558,3.798,3.435c-1.979,1.406-0.458,5.711-6.36,3.88
										C657.955-81.556,665.022-80.814,663.377-84.107z"/>
									<path fill="#2C42C4" d="M639.529-84.259c1.301,0.419,1.427,1.117,1.15,1.287l-0.484,0.69
										c-1.283-0.425-1.406-1.131-1.141-1.295L639.529-84.259z"/>
									<path fill="#2C42C4" d="M656.207-72.996c1.642,1.061,2.445,1.719,2.634,2.091c0.565,1.992,0.166,3.919-1.155,5.053
										c-1.336,1.034-3.593,1.252-6.741,0.028c-1.348-2.922-0.404-3.868,1.068-4.555
										C653.465-71.087,655.488-71.492,656.207-72.996z"/>
									<path fill="#2C42C4" d="M668.794-61.724c1.679,0.053,1.517,1.69,0.875,1.678l-0.834,1.188
										c-1.658-0.074-1.491-1.713-0.862-1.69L668.794-61.724z"/>
									<path fill="#2C42C4" d="M665.626-60.136c1.358,0.336,1.354,1.238,1.027,1.435c-1.126,1.879-2.234,3.889-3.144,5.923
										c-0.454,1.014-0.86,2.039-1.194,3.051c-0.362,0.981-0.648,1.958-0.834,2.912l-1.043,1.214l-0.524,0.607
										c-1.226-1.065-0.772-1.097-0.925-1.5l0.862-1.003c-0.688-1.534,0.813-1.746-1.035-3.949
										c1.95-0.832,2.414-2.823,3.032-4.621C662.455-57.897,663.166-59.555,665.626-60.136z"/>
									<path fill="#2C42C4" d="M645.27-61.407c2.045,1.445,3.165,1.848,3.365,1.225c1.829,3.863-2.597,3.901-3.196,6.289
										c-2.661-0.968,0.723-2.616-2.04-2.775c-1.429-2.932-0.857-4.499,0.259-5.74c0.548-0.627,1.267-1.142,1.866-1.749
										c0.605-0.601,1.155-1.24,1.451-2.024c2.792,1.471-0.087,1.953-0.017,2.751C646.43-62.726,645.84-62.077,645.27-61.407z"/>
									<path fill="#2C42C4" d="M644.475-52.777c2.713,1.892,0.695,1.618,0.581,1.85c-0.533,1.207-2.659,2.348-3.382,3.593
										c-2.672-2.676,1.109-0.808-2.823-4.348c3.042,2.167,3.355,1.831,0.991-1.052C642.76-51.022,644.094-51.336,644.475-52.777z
										"/>
									<path fill="#2C42C4" d="M628.516-32.304c-3.491-4.461-1.044-3.278-0.612-3.975c0.617-1.003,1.675-1.793,2.771-2.593
										c1.104-0.785,2.181-1.667,2.908-2.698c0.097,2.435-1.105,3.829-2.388,5.012C629.926-35.353,628.635-34.273,628.516-32.304z
										"/>
									<path fill="#2C42C4" d="M640.623-20.645c1.226,0.649,1.086,1.447,0.73,1.603l-0.979,0.883
										c-1.218-0.655-1.076-1.455-0.722-1.609L640.623-20.645z"/>
									<path fill="#2C42C4" d="M640.609-13.889c1.564,0.526,1.092,1.973,0.498,1.788
										C639.546-12.633,640.013-14.083,640.609-13.889z"/>
									<path fill="#2C42C4" d="M640.505-11.592c2.146,1.204,0.358,1.859,0.072,2.126c0.144,1.736-0.221,3.054-1.57,3.517
										C635.527-11.322,640.079-9.644,640.505-11.592z"/>
									<path fill="#2C42C4" d="M441.388-80.757c-0.204,1.935-0.681,4.194-1.282,5.779c-0.301,0.794-0.635,1.419-0.987,1.753
										c-0.418,0.355-0.868,0.422-1.295,0.066c0.162-1.004,0.396-1.881,0.684-2.664c0.223-0.762,0.483-1.423,0.783-2.015
										C439.889-79.02,440.622-79.92,441.388-80.757z"/>
									<path fill="#2C42C4" d="M475.918,97.048c0.324-0.351,1.009,2.43,1.637,4.808c1.033,3.259,1.942,5.742,2.992,9.655
										c0.265,0.51,0.531,1.048,0.798,1.62c0.316,0.566,0.651,1.165,0.976,1.806c0.658,1.281,1.324,2.724,2.001,4.384
										c0.874-1.259,2.614,1.961,4.04,2.651c0.576,1.38,1.174,3.203,1.765,4.968c0.605,1.762,1.143,3.479,1.842,4.597
										c1.086,0.594,2.308,1.751,3.542,2.861c0.619,0.554,1.231,1.1,1.848,1.552c0.72,0.426,1.431,0.765,2.105,0.938
										c0.957,0.248,1.892,0.324,2.813,0.298c0.462-0.015,0.92-0.05,1.379-0.104c0.655-0.103,1.412-0.256,2.113-0.402
										c1.427-0.313,2.86-0.628,4.295-0.946c0.716-0.155,1.438-0.302,2.164-0.431l0.545-0.094l0.273-0.045
										c0.102-0.015,0.089-0.004,0.139-0.007c0.141,0.003,0.284,0.013,0.429,0.028c0.889,0.105,1.779,0.209,2.663,0.313
										l0.331,0.04l0.166,0.021l0.083,0.01l0.021,0.002l0.01,0.001l0.005,0c-0.635,0.194,5.546-1.677,2.933-0.887l0.065-0.005
										l1.055-0.083c0.707-0.058,1.409-0.116,2.11-0.173c2.808-0.238,5.604-0.509,8.372-0.85c1.379-0.171,2.782-0.36,4.117-0.569
										c1.268-0.216,2.532-0.451,3.783-0.713c2.503-0.524,4.963-1.151,7.36-1.908c0.778-1.145,0.585-3.713,1.646-4.347
										c2.304-1.65,4.561-3.3,6.818-4.878c1.129-0.789,2.257-1.558,3.393-2.306c1.106-0.743,2.102-1.441,3.177-2.117
										c2.121-1.347,4.299-2.552,6.597-3.562c0.562-0.247,1.187-0.498,1.716-0.71c0.543-0.218,1.097-0.42,1.66-0.605
										c1.123-0.375,2.286-0.691,3.49-0.943c1.565-0.328,3.224-0.479,4.933-0.546l1.285-0.041l1.214,0.015l2.452,0.058
										c1.635,0.042,3.269,0.073,4.848,0.005c0.79-0.035,1.566-0.094,2.322-0.189c0.375-0.046,0.758-0.108,1.111-0.168
										c0.334-0.052,0.662-0.114,0.982-0.19c1.306-0.295,2.112-1.616,3.35-1.927c1.756-0.425,4.302,0.674,6.045,0.394
										c1.995-0.296,3.573-0.892,5.038-1.554c0.726-0.337,1.437-0.672,2.144-1.004l0.537-0.246l0.132-0.061l0.009-0.003
										l1.006-0.584l0.018-0.009l0.038-0.018l0.074-0.035l0.301-0.138c0.402-0.183,0.812-0.357,1.232-0.523
										c2.589-3.418,3.89-8.206,5.504-12.972c0.786-2.363,1.604-4.674,2.632-6.725c1.039-2.071,2.329-3.943,3.988-5.33
										c-0.094-2.592,0.513-4.37,1.048-6.225c0.54-1.871,1.03-3.858,0.629-6.771l1.831-1.186c-0.097-3.119,0.114-5.82,0.516-8.377
										c0.406-2.572,0.975-4.944,1.539-7.297c0.568-2.362,1.119-4.661,1.519-7.198c0.4-2.539,0.623-5.23,0.488-8.248
										c0.69-2.191,0.588-5.117,0.544-8.011c-0.039-2.906-0.027-5.712,0.918-7.588c-0.238-2.961,0.032-5.405,0.589-7.625
										c0.556-2.23,1.397-4.176,2.304-6.012c0.901-1.856,1.879-3.527,2.657-5.41c0.784-1.854,1.391-3.77,1.578-5.913
										c0.216-0.484-2.021-2.199-0.205,0.173c-2.244,2.111-3.652,5.264-5.002,8.508c-0.672,1.643-1.323,3.349-2.033,5.026
										c-0.357,0.835-0.729,1.674-1.126,2.478c-0.397,0.787-0.823,1.554-1.283,2.287c0.831,3.239-0.236,4.674-0.644,6.764
										c-0.424,1.562,1.005,7.038-1.508,5.261c0.007-0.864,0.583-1.156-2.08-4.69c-1.282-2.153-0.735-2.48-0.9-3.509
										c-0.653-2.38,0.382-3.074,0.567-4.6c-0.808-4.207,1.677-5.129,0.99-9.131c2.487-0.532,1.126-4.65,2.461-6.209
										c-0.5-1.511-2.587-4.463-1.934-4.894c2.148,0.526,1.296-1.486,1.537-3.412c1.469-1.834,2.65-3.904,3.899-5.894
										c0.312-0.499,0.63-0.984,0.953-1.474c0.319-0.501,0.649-0.99,0.994-1.469c0.69-0.951,1.442-1.849,2.307-2.655
										c-0.445-2.33,0.486-3.524,0.772-5.226c0.253-0.223,0.497-0.472,0.741-0.71c-1.74-1.778-1.492-0.675-1.89-0.517
										l-0.941,0.853l-0.939,0.851c-4.505,3.77-8.866,8.329-11.643,14.427c-2.123,1.446-4.044,3.994-5.902,6.765
										c-0.867,1.287-1.87,2.57-2.612,4.034c-0.708,1.388-0.724,3.683-0.983,5.572c-0.262,1.863-0.76,3.333-2.374,3.091
										c0.756-1.616-1.164-5.957-1.841-8.974c0.269-3.971-0.087-8.848-0.115-13.328c-0.006-2.229,0.045-4.415,0.31-6.344
										c0.266-1.929,0.742-3.607,1.569-4.89c0.438-0.683,1.935-0.429,2.041-1.627c0.121-1.332-1.097-4.393-2.115-6.989
										c0.361-1.539,0.635-3.134,0.838-4.775c0.103-0.819,0.186-1.651,0.25-2.489c0.056-0.854,0.089-1.722,0.107-2.592l2.013-1.82
										c-0.427-2.307-2.039-0.641-2.286-0.187c-0.839,0.745-1.651,1.52-2.51,2.244l-2.58,2.17
										c-1.728,1.442-3.414,2.927-5.204,4.298c-1.167-0.219-0.131,3.279-3.85-1.237c-0.262-2.455,1.177-3.237,2.585-4.067
										c1.379-0.857,2.751-1.743,2.306-4.256c-2.061-0.528-3.513-0.127-4.552,0.627c-1.031,0.759-1.708,1.814-2.083,2.664
										c-1.162,2.503-6.232-0.524-4.812,3.793c-0.302,0.496-0.699,0.832-2.073-0.55c-2.185-2.687-1.068,0.294-3.385-3.75
										c-3.142-4.126-2.504-4.371-2.017-4.77c0.521-0.474-0.888-2.879,0.472-2.485c-1.853-3.807,1.622-2.276-1.557-7.321
										c-1.288-0.425-4.918-4.706-6.448-5.596c-0.519,0.908-2.976-1.412-3.018,0.26c-3.115-1.776-4.407-0.49-7.669-2.661
										c-1.479-0.262-0.767,3.334-3.638,0.615c0.162-0.113,0.321-0.228,0.474-0.345c-0.062-0.611-1.411-1.916-1.296-1.12
										l-0.8,0.565c-1.266-0.385-4.185-5.624-4.55-5c-0.276,0.822-1.182,0.502-2.383-0.37c-0.754-0.06-0.917,0.974-3.983-3.343
										c-4.432-6.245-2.223-4.94-3.624-7.71c-0.809-2.194-2.16-4.967-2.422-6.502c-0.009-0.767,0.104-1.373,0.307-1.867
										c0.178-0.497,0.445-0.881,0.768-1.193c0.647-0.626,1.52-0.976,2.345-1.39c0.819-0.414,1.617-0.89,2.04-1.762
										c0.395-0.874,0.462-2.139-0.107-4.116c-0.873,0.279-1.756,0.538-2.646,0.782c-0.933,0.242-1.889,0.467-2.834,0.684
										c-1.92,0.435-3.732,0.834-5.73,1.244c-1.962,0.411-3.835,0.836-5.705,1.329c-1.917,0.495-3.75,1.057-5.46,1.74
										c-0.857,0.231-2.852-3.266-2.134-0.597c-4.939-3.398-1.471,6.931-6.088,3.931c-2.053-3.352-0.157-1.822-1.891-4.751
										c-1.327,1.772-2.634,3.971-3.837,6.42c-1.241,2.461-2.497,5.192-3.551,7.993c3.883,6.83,1.135-1.043,3.981,3.472
										c-0.404,1.084-0.819,2.099-1.225,3.086c-0.427,0.992-0.858,1.958-1.26,2.938c-0.801,1.96-1.5,3.979-1.969,6.406
										c-0.218-0.156-0.477-0.401-0.756-0.7c-0.149-0.164-0.293-0.324-0.436-0.482c1.355-0.79,0.375-0.218,0.68-0.394l0-0.001
										l-0.001-0.002l-0.004-0.004l-0.009-0.01l-0.015-0.015l-0.028-0.032l-0.058-0.067l-0.115-0.131l-0.233-0.271
										c-0.625-0.733-1.273-1.524-1.824-2.073c-0.708,2.619-2.279,4.393-4.042,5.778c-0.442,0.345-0.894,0.667-1.35,0.971
										c-0.441,0.295-0.877,0.569-1.31,0.836c-0.86,0.531-1.689,1.023-2.401,1.532c-1.688-1.23-3.179-1.987-4.542-2.436
										c-0.685-0.226-1.333-0.375-1.962-0.469c-0.592-0.121-1.15-0.19-1.7-0.224c-2.193-0.139-4.15,0.263-6.427-0.141
										c-0.726,0.831-1.278,1.486-1.963,2.104c-0.667,0.601-1.389,1.093-2.218,1.383c-0.827,0.285-1.769,0.383-2.845,0.163
										c-1.019-0.277-2.19-0.85-3.557-1.812c-1.059,1.007-2.903-0.071-4.457-0.635c-1.443-0.684-2.577-0.864-2.505,2.148
										c-1.315-2.314-1.564-1.746-2.335-2.609c0.491,1.969,0.131,2.148-0.359,1.808c-0.474-0.357-1.128-1.174-1.361-1.063
										c-0.747,0.35-1.961,1.482-2.144,2.717c-0.068,0.419-0.871-1.366-0.973-1.419c-0.803-0.303-1.631-0.805-2.433-1.437
										c-0.403-0.314-0.801-0.659-1.189-1.03c-0.195-0.184-0.388-0.373-0.576-0.567l-0.035-0.038l-0.01-0.009l-0.005-0.005
										l-0.002-0.001c5.737-1.741,1.589-0.483,2.869-0.871l-0.005-0.001l-0.042-0.015l-0.157-0.052l-0.313-0.109
										c-0.208-0.075-0.415-0.15-0.619-0.223c-0.754-0.279-1.49-0.555-2.209-0.824l-0.54-0.202l-0.132-0.051
										c-0.035-0.018-0.121-0.023-0.073-0.069l0.117-0.219c0.158-0.289,0.315-0.567,0.479-0.843
										c0.323-0.545,0.657-1.061,1.004-1.532l0.261-0.347l0.132-0.168l-0.083-0.121c-0.106-0.154-0.211-0.307-0.315-0.455
										c-0.105-0.146,0.317,1.836,0.181,1.676c-0.016-0.062-0.104-0.354-0.221-0.74c-0.113-0.371-0.239-0.768-0.299-0.865
										c-0.089-0.149-0.166-0.257-0.235-0.334c-0.035-0.038-0.066-0.066-0.096-0.088c-0.024-0.022-0.055-0.036-0.127-0.037
										c-0.236-0.015-0.437,0.072-0.624,0.2c-0.369,0.247-0.683,0.646-1.093,0.687c-0.076,0.01-0.132-0.015-0.236-0.055
										c-0.118-0.038-0.242-0.095-0.366-0.163c-0.249-0.14-0.51-0.334-0.766-0.513c-0.512-0.363-1.008-0.684-1.375-0.462
										c-0.208,0.126-0.403,0.313-0.593,0.55c-0.093,0.118-0.185,0.248-0.274,0.389l-0.378,0.464
										c-0.506,0.651-0.985,1.412-1.467,2.136c-0.481,0.723-0.965,1.407-1.474,1.905c-0.128,0.126-0.257,0.238-0.391,0.336
										c-0.163,0.104-0.335,0.2-0.508,0.276c-0.344,0.157-0.698,0.245-1.066,0.249c-0.334,2.397-0.714,4.65-1.086,6.883
										c-0.18,1.118-0.36,2.233-0.539,3.347l-0.131,0.845l-0.175,0.864c-0.111,0.584-0.22,1.167-0.331,1.748
										c-0.845,4.704-1.381,9.806-1.117,16.253c1.354,6.004,3.804,14.352,4.043,17.997c3.441,9.405,4.87,17.327,8.051,29.114
										c2.119,4.924,4.162,10.071,6.15,15.796c0.505,5.204,2.677,11.625,4.011,18.01c0.451,0.231,1.432,4.231,2.062,6.402
										c0.715,2.484,1.398,3.364,1.615,6.512c0.509-0.458,1.121,0.21,1.896,3.04c0.544,0.084,1.086,0.101,1.982,4.73
										c-0.952-1.017-0.248,2.977-1.192,1.957c2.573,11.526,2.886,16.281,4.586,24.736
										C474.537,90.89,475.175,93.302,475.918,97.048z M564.022-68.735c1.341,0.781,1.01,2,0.495,1.704
										C563.184-67.81,563.513-69.028,564.022-68.735z M630.523,23.914c3.169,3.936,1.245,2.754,1.084,3.345
										C630.439,25.327,630.255,24.389,630.523,23.914z"/>
								</g>
							</g>
						</g>
					</g>
				</g>
			</g>
		</g>
		<g>
			<g>
				<g>
					<g>
						<defs>
							<circle id="SVGID_8_" cx="629.65" cy="217.5" r="147.097"/>
						</defs>
						<clipPath id="SVGID_9_">
							<use xlink:href="#SVGID_8_"  overflow="visible"/>
						</clipPath>
						<g display="none" clip-path="url(#SVGID_9_)">
							<g display="inline">
								<g>
									<path fill="#2C42C4" d="M915.796,250.53c2.023,1.139,0.219,1.143,1.656,2.107c-1.58,1.654-1.573,5.022-4.933,4.764
										C911.76,253.94,916.108,252.999,915.796,250.53z"/>
									<path fill="#2C42C4" d="M900.393,255.845c0.771,0.041,0.677,0.614,0.445,0.831l-0.508,0.722
										c-0.762-0.044-0.665-0.625-0.44-0.836L900.393,255.845z"/>
									<path fill="#2C42C4" d="M908.731,261.478c0.83,0.511,1.208,0.88,1.252,1.14c-0.059,1.482-0.702,3.083-1.792,4.258
										c-1.119,1.105-2.685,1.769-4.532,1.514c-0.247-2.015,0.641-3,1.772-3.881C906.544,263.604,907.943,262.845,908.731,261.478
										z"/>
									<path fill="#2C42C4" d="M914.5,267.865c1.049-0.271,0.642,1.013,0.24,1.122l-0.744,1.063
										c-1.039,0.261-0.628-1.024-0.234-1.127L914.5,267.865z"/>
									<path fill="#2C42C4" d="M912.193,269.691c0.796-0.003,0.643,0.681,0.376,0.902c-1.146,1.684-2.301,3.462-3.328,5.209
										c-0.51,0.875-0.993,1.74-1.42,2.583c-0.458,0.812-0.863,1.607-1.198,2.362l-0.971,1.126l-0.483,0.567
										c-0.611-0.538-0.298-0.656-0.313-0.923l0.804-0.936c-0.136-1.007,0.933-1.483,0.157-2.757
										c1.514-1.046,2.21-2.68,3.009-4.197C909.614,272.09,910.462,270.643,912.193,269.691z"/>
									<path fill="#2C42C4" d="M898.746,273.191c1.084,0.649,1.77,0.705,2.056,0.178c0.364,2.569-2.721,3.601-3.691,5.577
										c-1.649-0.113,1.109-2.176-0.799-1.648c-0.324-1.919,0.458-3.277,1.541-4.511c0.536-0.621,1.177-1.179,1.725-1.81
										c0.555-0.623,1.077-1.261,1.462-1.956c1.567,0.515-0.51,1.572-0.642,2.188
										C899.882,271.901,899.302,272.539,898.746,273.191z"/>
									<path fill="#2C42C4" d="M896.179,280.027c1.482,0.802,0.122,1.064-0.02,1.265c-0.663,1.023-2.454,2.368-3.264,3.462
										c-1.304-1.372,0.986-0.859-1.02-2.589c1.687,0.906,1.986,0.592,0.969-1.027
										C894.542,281.74,895.572,281.206,896.179,280.027z"/>
									<path fill="#2C42C4" d="M879.64,298.716c-1.624-2.344-0.03-2.084,0.458-2.678c0.707-0.861,1.699-1.676,2.72-2.501
										c1.029-0.815,2.017-1.727,2.805-2.646C884.651,294.446,880.699,295.863,879.64,298.716z"/>
									<path fill="#2C42C4" d="M886.118,304.161c0.77,0.185,0.491,0.77,0.194,0.953l-0.918,0.828
										c-0.765-0.189-0.484-0.773-0.188-0.958L886.118,304.161z"/>
									<path fill="#2C42C4" d="M884.659,308.836c1.06,0.029,0.39,1.121-0.015,1.117
										C883.586,309.922,884.253,308.83,884.659,308.836z"/>
									<path fill="#2C42C4" d="M884.079,310.427c1.354,0.367-0.131,1.19-0.401,1.433c-0.264,1.15-0.815,2.119-1.925,2.721
										C880.264,311.679,883.346,311.84,884.079,310.427z"/>
									<path fill="#2C42C4" d="M710.047,315.706c-0.275,1.005-0.79,2.189-1.369,3.042c-0.289,0.423-0.594,0.766-0.897,0.958
										c-0.334,0.207-0.673,0.266-0.975,0.104c0.178-0.522,0.399-0.986,0.654-1.402c0.223-0.405,0.473-0.758,0.747-1.08
										C708.756,316.685,709.393,316.183,710.047,315.706z"/>
									<path fill="#2C42C4" d="M726.3,404.816c0.444-0.232,0.858,1.143,1.268,2.313c0.773,1.577,1.542,2.754,2.282,4.667
										c0.264,0.228,0.526,0.473,0.787,0.733c0.285,0.256,0.577,0.534,0.863,0.829c0.574,0.597,1.141,1.273,1.699,2.061
										c1.185-0.771,2.499,0.756,3.827,0.988c0.431,0.66,0.848,1.553,1.266,2.412c0.422,0.859,0.815,1.695,1.326,2.222
										c0.888,0.23,1.85,0.739,2.829,1.227c0.489,0.243,0.975,0.48,1.463,0.67c0.54,0.175,1.074,0.307,1.59,0.354
										c0.734,0.072,1.46,0.053,2.182-0.014c0.36-0.035,0.717-0.081,1.079-0.136c0.454-0.083,0.968-0.189,1.447-0.296
										c0.977-0.221,1.953-0.444,2.933-0.666l1.476-0.312l0.371-0.071c0.128-0.024,0.259-0.049,0.304-0.051l0.409-0.042
										c0.845-0.063,1.684-0.124,2.52-0.188l0.312-0.02l0.158-0.014l0.076-0.006l0.02-0.001l0.012-0.001h0.005l1.466-0.442
										l0.05-0.012l0.818-0.144c0.541-0.097,1.087-0.191,1.63-0.289c2.169-0.39,4.326-0.792,6.47-1.229
										c1.064-0.218,2.146-0.44,3.186-0.684c1.006-0.259,2-0.529,2.991-0.81c1.983-0.563,3.94-1.175,5.865-1.854
										c0.73-0.713,0.869-2.085,1.774-2.572c8.115-4.869,15.375-9.72,23.391-12.498c1.315-0.451,2.678-0.813,4.062-1.136
										l2.042-0.451l2.013-0.414c1.344-0.274,2.683-0.553,3.995-0.881c0.655-0.164,1.304-0.341,1.942-0.538l0.945-0.305
										c0.297-0.103,0.591-0.206,0.881-0.317c1.18-0.451,2.142-1.433,3.265-1.879c1.598-0.627,3.539-0.458,5.111-1.004
										c1.808-0.617,3.32-1.333,4.744-2.062c0.709-0.366,1.401-0.731,2.094-1.092l0.521-0.271l0.131-0.067l0.533-0.306
										l0.034-0.018l0.071-0.037l0.276-0.144c0.373-0.189,0.747-0.375,1.126-0.565c2.809-2.611,4.869-5.834,7.084-9.082
										c1.099-1.611,2.218-3.194,3.458-4.667c1.247-1.48,2.632-2.886,4.237-4.062c0.423-1.589,1.26-2.811,2.05-4.066
										c0.794-1.266,1.549-2.597,1.79-4.338l1.686-1.092c0.519-1.93,1.227-3.66,2.032-5.345c0.808-1.693,1.71-3.297,2.613-4.892
										c0.899-1.604,1.805-3.162,2.604-4.852c0.801-1.695,1.498-3.453,1.989-5.36c0.971-1.54,1.487-3.393,2.027-5.257
										c0.539-1.869,1.112-3.695,2.224-5.109c0.417-1.882,1.143-3.534,2.021-5.109c0.874-1.587,1.913-3.048,2.985-4.455
										c2.154-2.774,4.368-5.5,5.551-8.485c0.264-0.373-1.046-1.067-0.188,0.161c-2.131,1.902-3.823,4.337-5.551,6.77
										c-0.858,1.242-1.721,2.493-2.594,3.76c-0.447,0.627-0.896,1.26-1.367,1.873c-0.476,0.597-0.963,1.188-1.471,1.762
										c-0.028,1.95-1.147,3.102-1.883,4.547c-0.652,1.104-0.621,4.363-2.23,3.716c0.183-0.561,0.692-0.863-0.666-2.607
										c-0.563-1.133-0.072-1.461,0.011-2.098c-0.021-1.415,0.925-2.084,1.385-3.123c0.241-2.587,2.388-3.71,2.695-6.216
										c2.022-0.884,1.844-3.338,3.208-4.669c-0.059-0.905-1.029-2.44-0.426-2.872c1.543-0.108,1.331-1.277,1.927-2.646
										c1.513-1.574,2.866-3.248,4.256-4.889c0.699-0.817,1.401-1.638,2.11-2.465c0.723-0.818,1.48-1.613,2.301-2.367
										c0.186-1.532,1.149-2.579,1.746-3.843c0.242-0.212,0.471-0.446,0.703-0.67c-0.888-0.875-0.939-0.139-1.277,0.058
										l-0.895,0.809l-0.894,0.81c-4.194,3.679-8.575,7.83-12.079,12.591c-1.982,1.443-4.033,3.601-6.107,5.857
										c-0.976,1.045-2.052,2.116-2.96,3.25c-0.861,1.073-1.369,2.594-1.979,3.891c-0.618,1.275-1.33,2.341-2.573,2.526
										c0.952-1.212,0.357-3.644,0.48-5.48c1.074-2.683,1.876-5.854,2.886-8.857c0.513-1.489,1.048-2.99,1.704-4.37
										c0.657-1.38,1.432-2.641,2.396-3.716c0.509-0.574,1.645-0.743,2.006-1.6c0.403-0.955,0.169-2.802-0.006-4.381
										c0.656-1.172,1.267-2.367,1.834-3.58c0.284-0.607,0.559-1.218,0.823-1.833c0.255-0.626,0.495-1.266,0.727-1.904
										l2.026-1.831c0.249-1.576-1.43,0.049-1.738,0.446c-0.847,0.754-1.671,1.535-2.537,2.268l-2.605,2.194
										c-1.743,1.455-3.449,2.956-5.255,4.338c-0.895,0.138-0.919,2.315-2.823,0.094c0.4-1.649,1.78-2.557,3.138-3.499
										c1.328-0.969,2.655-1.951,2.946-3.638c-1.525,0.152-2.811,0.823-3.844,1.635c-1.03,0.819-1.871,1.718-2.395,2.417
										c-1.588,2.045-5.01,1.24-4.928,3.884c-0.378,0.416-0.793,0.746-1.588,0.134c-1.144-1.305-0.971,0.473-1.878-1.735
										c-1.58-2.057-0.976-2.393-0.454-2.796c0.564-0.46,0.011-1.786,1.051-1.875c-0.549-2.201,1.967-2.053,0.658-4.796
										c-0.973,0.044-2.875-2.024-3.943-2.229c-0.7,0.802-2.168-0.167-2.678,1.056c-2.203-0.404-3.692,0.865-5.947,0.248
										c-1.234,0.233-1.604,2.58-3.385,1.469c0.177-0.122,0.346-0.247,0.514-0.374c0.116-0.417-0.713-0.95-0.83-0.423
										l-0.868,0.613c-1.016,0.078-2.145-2.774-2.649-2.234c-0.48,0.653-1.201,0.684-2.033,0.41
										c-0.662,0.171-1.096,0.94-2.646-1.208c-2.238-3.107-0.597-2.836-1.063-4.385c-0.096-1.316-0.503-2.892-0.276-3.914
										c0.225-0.544,0.516-1.013,0.855-1.431c0.324-0.422,0.694-0.792,1.096-1.127c0.804-0.671,1.73-1.21,2.632-1.783
										c0.897-0.573,1.791-1.17,2.47-1.967c0.664-0.804,1.15-1.797,1.301-3.128c-7.368,4.147-15.534,7.406-22.901,11.332
										c-0.873,0.414-1.739-1.417-1.83,0.208c-3.658-0.932-3.344,5.166-6.798,4.391c-0.997-1.698,0.345-1.177-0.461-2.681
										c-1.727,1.554-3.534,3.372-5.31,5.335c-1.797,1.958-3.632,4.048-5.31,6.151c1.843,3.479,1.302-0.969,2.776,1.261
										c-0.642,0.809-1.273,1.576-1.891,2.318c-0.63,0.749-1.244,1.478-1.849,2.195c-1.197,1.452-2.313,2.918-3.309,4.586
										c-0.16-0.046-0.335-0.143-0.518-0.267l-0.137-0.1l-0.071-0.051l-0.035-0.027l-0.018-0.015l-0.009-0.007l-0.005-0.003
										l-0.002-0.002l-0.001-0.001l-0.002-0.001c-0.073,0.044,0.645-0.375,0.338-0.199l-0.289-0.231
										c-0.389-0.322-0.784-0.676-1.147-0.899c-2.373,3.581-7.051,5.806-10.014,7.707c-1.228-0.394-2.387-0.535-3.502-0.51
										c-0.559,0.014-1.105,0.066-1.646,0.147c-0.521,0.07-1.032,0.161-1.536,0.277c-2.023,0.451-3.967,1.195-6.015,1.505
										c-0.863,0.702-1.645,1.293-2.48,1.871c-0.83,0.568-1.682,1.078-2.585,1.487c-0.903,0.407-1.865,0.722-2.897,0.876
										c-1.009,0.114-2.101,0.084-3.298-0.138c-1.443,0.97-3.134,0.818-4.68,0.923c-1.501,0.019-2.85,0.292-3.751,2.233
										c-0.838-1.074-1.336-0.618-1.998-0.92c-0.046,1.121-0.515,1.349-1.043,1.298c-0.521-0.063-1.121-0.357-1.498-0.194
										c-1.199,0.513-3.351,1.716-4.04,2.578c-0.233,0.293-0.75-0.553-0.913-0.542c-1.247,0.146-2.462,0.177-3.624,0.127
										c-0.58-0.023-1.147-0.068-1.697-0.126c-0.277-0.034-0.548-0.067-0.814-0.1l-0.05-0.008l-0.013-0.002l-0.006-0.001h-0.003
										c2.861-0.867,0.792-0.241,1.429-0.434H729.5l-0.037-0.003l-0.145-0.008l-0.285-0.017c-0.19-0.012-0.38-0.024-0.569-0.038
										c-0.687-0.051-1.358-0.103-2.016-0.15l-0.49-0.04c-0.069-0.012-0.19-0.002-0.212-0.028l-0.053-0.082
										c-0.067-0.105-0.131-0.211-0.196-0.314c-0.116-0.191-0.229-0.379-0.338-0.563l-0.073-0.125l-0.036-0.059l-0.143-0.04
										c-0.19-0.047-0.376-0.096-0.561-0.142c-0.193-0.044,0.004,0.95-0.248,0.909c-0.03-0.007-0.39-0.662-0.597-0.731
										c-0.318-0.102-0.555-0.13-0.837-0.102c-0.308,0.03-0.583,0.108-0.846,0.204c-0.524,0.189-0.993,0.451-1.537,0.538
										c-0.168,0.027-0.397,0.003-0.646-0.044c-0.24-0.048-0.484-0.124-0.728-0.191c-0.484-0.139-0.957-0.258-1.353-0.106
										c-0.222,0.083-0.442,0.199-0.654,0.339c-0.107,0.072-0.212,0.146-0.315,0.227l-0.366,0.265
										c-0.489,0.37-0.969,0.797-1.443,1.203c-0.479,0.406-0.952,0.794-1.442,1.087c-0.121,0.073-0.244,0.14-0.365,0.2
										c-0.14,0.065-0.283,0.124-0.426,0.174c-0.285,0.102-0.576,0.167-0.874,0.192c-0.419,1.25-0.866,2.431-1.313,3.599
										c-0.443,1.169-0.873,2.32-1.365,3.566c-0.931,2.471-1.674,5.132-1.922,8.441c0.64,3.013,1.997,7.154,1.909,9.024
										c2.086,4.616,2.65,8.614,4.359,14.479c1.415,2.381,2.78,4.877,4.081,7.671c-0.037,2.666,1.372,5.805,2.006,9.005
										c0.422,0.073,0.968,2.056,1.364,3.125c0.454,1.216,1.055,1.607,0.919,3.229c0.577-0.295,1.13-0.011,1.622,1.384
										c0.559-0.017,1.12-0.07,1.553,2.249c-0.893-0.422-0.605,1.587-1.495,1.162c1.365,5.748,1.124,8.201,1.843,12.464
										C725.584,401.739,725.963,402.936,726.3,404.816z M835.922,289.637c0.969,0.181,0.34,1.118-0.032,1.051
										C834.926,290.508,835.556,289.573,835.922,289.637z M869.08,336.027c1.678,1.901,0.413,1.528,0.167,1.938
										C868.724,336.956,868.77,336.391,869.08,336.027z"/>
								</g>
							</g>
						</g>
					</g>
				</g>
			</g>
		</g>
		<g>
			<g>
				<g>
					<g>
						<defs>
							<circle id="SVGID_10_" cx="629.65" cy="217.5" r="147.097"/>
						</defs>
						<clipPath id="SVGID_11_">
							<use xlink:href="#SVGID_10_"  overflow="visible"/>
						</clipPath>
						<path clip-path="url(#SVGID_11_)" fill="#2C42C4" d="M572.54,354.645c-2.795-6.522-14.907-9.317-22.827-27.486
							s-2.795-7.453-13.045-30.747c-10.249-23.294-14.441-36.337-13.044-54.506c1.398-18.169,12.111-9.318,14.441-25.623
							c2.33-16.305,1.397-11.646,4.662-20.964c3.261-9.317,12.578-20.032,14.905-26.088c2.33-6.056,8.386-29.351,15.374-34.476
							c6.988-5.125,18.636-2.33,24.691-13.044c6.056-10.714-8.852-9.783,9.784-23.293c18.634-13.51,35.87-23.293,50.313-25.623
							c14.441-2.33,5.124-2.795,5.124-2.795s-86.184-18.634-91.309-13.51c-5.125,5.125-114.603,108.083-116,122.991
							s-20.033,3.726-0.467,40.996c19.567,37.27,31.214,64.29,43.792,74.539c12.579,10.249,27.485,46.587,38.666,51.712
							C548.78,351.85,572.54,354.645,572.54,354.645z"/>
					</g>
				</g>
			</g>
		</g>
	</g>
	<path fill="#394CD3" d="M759.818,154.787c3.728,2.795,6.989,2.329,8.853,7.921c1.862,5.59,6.056,17.236,6.987,21.896
		c0.931,4.659-1.399,8.851-2.33,11.646C772.396,199.046,759.818,154.787,759.818,154.787z"/>
</g>
<g id="Layer_4_1_">
	
		<linearGradient id="SVGID_12_" gradientUnits="userSpaceOnUse" x1="-218.2112" y1="1284.5847" x2="-163.3376" y2="1284.5847" gradientTransform="matrix(0.6707 0.7418 -0.7418 0.6707 1714.2271 -493.123)">
		<stop  offset="0.0148" style="stop-color:#FFFFFF;stop-opacity:0"/>
		<stop  offset="0.8818" style="stop-color:#FFE5FF"/>
	</linearGradient>
	
		<path opacity="0.4" fill="none" stroke="url(#SVGID_12_)" stroke-width="1.0482" stroke-miterlimit="10" enable-background="new    " d="
		M729.517,108.996c7.467-1.348,12.986-0.487,16.023,2.869c13.718,15.173-28.421,75.63-94.12,135.03
		c-65.699,59.404-130.079,95.263-143.797,80.089c-4.067-4.499-3.224-12.976,1.687-24.23"/>
</g>
<g id="Layer_5_1_">
	
		<ellipse transform="matrix(0.8411 0.5408 -0.5408 0.8411 161.5748 -346.256)" fill="#2C42C4" cx="670.191" cy="101.908" rx="12.344" ry="7.048"/>
	
		<ellipse transform="matrix(0.8411 0.541 -0.541 0.8411 176.846 -361.4977)" fill="#2C42C4" cx="703.574" cy="120.185" rx="9.321" ry="7.046"/>
	<path fill="#FFF3D9" d="M733.688,41.621c0,0-0.525,2.367-1.17,3.625c-0.643,1.258-1.938,3.021-2.944,4.819
		c-1.005,1.792-3.741,1.707-4.639,1.983c-0.901,0.271-2.675,1.697-3.198,2.366c-0.522,0.668-1.526,1.574-1.759,2.75
		c-0.232,1.179-9.24-4.111-7.899-3.847c2.438,0.481,7.318-5.313,8.118-7.727c0.801-2.414,2.53-6.896,4.073-6.786
		C725.817,38.914,733.688,41.621,733.688,41.621z"/>
	<g>
		
			<ellipse transform="matrix(0.4484 -0.8938 0.8938 0.4484 361.3729 679.4673)" fill="none" stroke="#0F0A2B" stroke-width="0.6988" stroke-miterlimit="10" cx="731.238" cy="46.925" rx="1.896" ry="1.923"/>
		<path fill="none" stroke="#0F0A2B" stroke-width="0.6988" stroke-miterlimit="10" d="M728.385,43.402
			c-0.946-0.479-2.099-0.103-2.567,0.83c-0.471,0.938-0.082,2.082,0.867,2.557c0.946,0.479,2.098,0.104,2.567-0.83
			C729.725,45.023,729.34,43.877,728.385,43.402z"/>
	</g>
	<path fill="none" stroke="#FFFFFF" stroke-width="0.5081" stroke-linecap="round" stroke-miterlimit="10" d="M732.331,47.71
		c0.337-0.668,0.061-1.487-0.62-1.828"/>
	<path fill="none" stroke="#FFFFFF" stroke-width="0.5081" stroke-linecap="round" stroke-miterlimit="10" d="M728.502,45.83
		c0.333-0.669,0.06-1.488-0.62-1.826"/>
	<path fill="#E0402F" d="M724.712,40.487c0,0,3.069,1.445,6.273,2.277c3.206,0.83,4.13,0.886,5.577,0.374
		c1.448-0.512,2.868-2.813,1.802-3.888c-1.068-1.074-2.857-0.562-5.993-0.712c-3.135-0.153-4.326-1.626-6.701-2.228
		c-2.376-0.598-4.31-1.405-5.903,0.875c-1.595,2.282-2.737,6.044-4.58,8.208c-1.843,2.167-7.864,1.495-10.759,0.791
		c-5.194-0.641-9.941-0.366-11.851,1.31c-1.963,1.44-0.598,9.613,4.207,11.224c4.808,1.609,5.392,2.104,11.571-0.869
		c6.178-2.975,6.18-3.365,10.511-7.088c1.355-3.455,2.94-5.771,3.763-7.206C723.446,42.122,724.712,40.487,724.712,40.487z"/>
	<g>
		<g>
			<path fill="#E0402F" d="M728.002,50.426c-0.811-0.168-1.592-0.464-2.093-1.148c-0.238-0.322,0.188-1.175,0.498-0.748
				c0.431,0.584,1.12,0.806,1.807,0.947C728.64,49.567,728.429,50.516,728.002,50.426L728.002,50.426z"/>
		</g>
	</g>
	<g opacity="0.2">
		<g>
			<path fill="#E0402F" d="M724.768,47.688c-0.276-0.509-0.597-0.993-0.87-1.5c-0.157-0.286-0.143-0.626,0.04-0.897
				c0.123-0.186,0.474-0.383,0.626-0.102c0.274,0.511,0.597,0.994,0.872,1.502c0.155,0.286,0.141,0.622-0.043,0.897
				C725.271,47.772,724.919,47.97,724.768,47.688L724.768,47.688z"/>
		</g>
	</g>
	<path fill="#FFF3D9" d="M738.834,78.276c0,0,1.671,1.493,3.49,2.109s2.438,0.152,2.839-0.111c0.96-0.627,1.574-2.449,1.574-2.449
		s-1.027-1.631-3.868-1.52c-2.486,0.098-3.162-0.998-3.162-0.998L738.834,78.276z"/>
	<polygon fill="#222F6D" points="764.011,54.477 795.383,80.685 777.755,101.53 747.008,74.742 	"/>
	
		<line fill="none" stroke="#5D75DB" stroke-width="2.0964" stroke-linecap="round" stroke-linejoin="round" stroke-miterlimit="10" x1="708.659" y1="117.448" x2="764.011" y2="54.477"/>
	<path fill="#FFB640" d="M717.19,55.086c1.03,0.661,3.794,1.745,4.863,2.987c1.071,1.24,3.997,6.167,5.528,7.984
		c1.531,1.816,7.071,5.795,8.836,6.929c1.762,1.134,2.938,1.89,3.286,2.319c0.345,0.429-0.872,2.97-0.872,2.97
		s-2.929-1.261-6.645-3.233c-3.716-1.973-6.77-4.977-9.278-7.212c-2.507-2.236-1.903-1.776-3.558-1.249
		c-1.654,0.528-3.029,1.848-4.655,3.791c-1.805,2.163-2.043,3.394-2.47,4.921c-0.398,1.427,0.322,1.867-0.434,5.953
		c-0.758,4.083-15.855-8.397-15.855-8.397s2.609-0.4,6.188-4.673c3.705-4.423,2.093-4.543,2.071-5.804
		c-0.021-1.26,0.841-3.889,0.841-3.889s-7.698,1.42-8.015,1.907c-0.604,0.944,3.191,7.317,3.191,7.317l-1.938,1.936
		c0,0-6.896-9.627-5.52-11.443c1.376-1.816,14.312-5.889,16.829-5.932C712.103,52.228,716.162,54.422,717.19,55.086z"/>
	
		<radialGradient id="SVGID_13_" cx="156.7771" cy="2806.1667" r="13.9011" fx="160.1735" fy="2816.0393" gradientTransform="matrix(-0.0804 0.9968 -0.9968 -0.0804 3541.2756 115.7995)" gradientUnits="userSpaceOnUse">
		<stop  offset="0" style="stop-color:#FFFFFF;stop-opacity:0"/>
		<stop  offset="1" style="stop-color:#FFE5FF"/>
	</radialGradient>
	<path opacity="0.3" fill="url(#SVGID_13_)" enable-background="new    " d="M733.564,31.461c6.456,4.15,8.324,12.754,4.173,19.211
		c-4.152,6.455-12.755,8.328-19.21,4.175c-6.461-4.152-8.328-12.754-4.174-19.213C718.505,29.178,727.103,27.308,733.564,31.461z"/>
	<path fill="#FFB640" d="M701.503,69.363c-0.287,0.233-4.873,2.409-6.973,4.383c-2.102,1.974-8.546,6.829-9.38,9.201
		c0,0-9.624,8.074-12.303,10.089c-2.679,2.018-3.625,3.485-3.625,3.485l2.134,2.063c0,0,10.575-5.246,13.515-7.234
		c2.938-1.988,3.557-1.869,3.903-2.198c0.354-0.33,1.256-0.44,4.351-2.883c3.092-2.441,7.781-4.135,8.488-4.373
		c0.708-0.237,0.672,1.54,0.571,3.417c-0.097,1.877,0.245,12.756,0.601,14.786c0.355,2.029,2.021,8.915,1.979,12.21
		c-0.045,3.3-0.22,4.431-0.22,4.431s3.815,2.038,4.118,0.709c0.303-1.33,0.516-9.638,0.741-15.584
		c0.225-5.951,0.084-6.594,0.084-6.594s1.17-1.604,2.287-8.08c1.121-6.481,0.452-11.896,0.452-11.896"/>
	<path fill="none" stroke="#FFF3D9" stroke-width="0.6988" stroke-miterlimit="10" d="M717.442,54.692c0,0-2.498,3.24-3.822,5.297
		c-1.32,2.056-2.918,3.247-3.975,5.75c-1.06,2.505-1.386,4.093-2.577,6.375c-1.189,2.281-2.919,5.186-3.423,5.969
		c-0.503,0.783-2.036,3.813-2.036,3.813"/>
	<path fill="#FFF3D9" d="M700.195,67.978c0,0,0.415,0.102,0.95,0.771c0.538,0.667,1,1.446,1.617,2.488
		c0.617,1.036,2.271,3.713,1.629,3.46c-0.642-0.251-2.257-2.737-2.257-2.737s1.632,3.458,0.949,3.02
		c-0.684-0.438-1.811-2.931-1.811-2.931s0.461,3.031-0.035,2.549c-0.494-0.479-0.868-2.65-0.868-2.65s0.229,2.399-0.348,1.544
		c-0.577-0.853-2.089-3.754-2.089-3.754L700.195,67.978z"/>
	<path fill="#FFF3D9" d="M669.928,96.281c-1.322,0.119-3.566,1.028-5.331,1.833c-1.764,0.804-2.072,1.714-2.072,1.714
		s-0.26,1.908,0.033,2.1c0.295,0.188,2.493,0.216,3.807-0.323c1.317-0.539,0.988-0.888,2.491-1.721
		c1.504-0.833,3.102-2.023,3.102-2.023L669.928,96.281z"/>
	<path fill="#FFF3D9" d="M707.013,116.402c0.788,0.993,1.664,3.192,2.287,4.982c0.626,1.793,0.227,2.665,0.227,2.665
		s-1.089,1.558-1.405,1.496c-0.317-0.063-1.775-1.551-2.284-2.843c-0.509-1.291-0.062-1.319-0.5-2.954
		c-0.438-1.634-0.7-3.591-0.7-3.591L707.013,116.402z"/>
	<path fill="#FFF3D9" d="M739.707,75.306c0,0,2.893,0.13,4.424,0.977c1.53,0.847,1.733,1.392,1.904,1.778
		c0.168,0.384-0.25,0.394-1.225,0.185c-0.975-0.214-1.82-0.619-2.337-0.675"/>
</g>
<circle fill="#FF553E" cx="962.222" cy="71.271" r="11.605"/>
<g>
	<g>
		<polygon fill="#1F38B2" points="1050.621,220.485 1043.871,223.889 1043.895,230.655 1049.317,234.69 1056.068,231.286 		"/>
		<polygon fill="#394CD3" points="1050.621,220.485 1056.046,224.524 1056.068,231.286 1050.645,227.248 		"/>
	</g>
	
		<line fill="none" stroke="#1F38B2" stroke-width="1.9615" stroke-miterlimit="10" x1="1019.832" y1="206.902" x2="1046.927" y2="225.504"/>
	
		<line fill="none" stroke="#1F38B2" stroke-width="2.0459" stroke-linecap="round" stroke-linejoin="round" stroke-miterlimit="10" x1="976.172" y1="264.076" x2="976.176" y2="228.968"/>
	<g>
		<polygon fill="#1F38B2" points="1017.87,199.107 1011.118,202.51 1011.14,209.274 1016.564,213.31 1023.32,209.909 		"/>
		<polygon fill="#394CD3" points="1017.87,199.107 1023.294,203.146 1023.32,209.909 1017.892,205.869 		"/>
	</g>
	<g>
		<polygon fill="#1F38B2" points="977.293,219.572 970.545,222.974 970.567,229.738 975.992,233.775 982.743,230.369 		"/>
		<polygon fill="#394CD3" points="977.293,219.572 982.719,223.608 982.743,230.369 977.318,226.333 		"/>
	</g>
	
		<line fill="none" stroke="#1F38B2" stroke-width="1.9615" stroke-linecap="round" stroke-linejoin="round" stroke-miterlimit="10" x1="1013.916" y1="207.692" x2="979.979" y2="224.806"/>
	<g>
		<polygon fill="#FF553E" points="976.248,255.247 969.496,258.656 969.522,265.416 974.945,269.454 981.695,266.052 		"/>
		<polygon fill="#FF7061" points="976.248,255.247 981.673,259.287 981.695,266.052 976.27,262.015 		"/>
	</g>
</g>
<g>
	
		<line fill="none" stroke="#1F38B2" stroke-width="2.5034" stroke-linecap="round" stroke-linejoin="round" stroke-miterlimit="10" x1="290.692" y1="224.621" x2="327.461" y2="204.437"/>
	<g>
		<polygon fill="#1F38B2" points="324.281,197.76 324.281,207.409 332,211.267 339.719,207.409 339.719,197.76 		"/>
		<polygon fill="#394CD3" points="324.281,197.76 332,193.9 339.719,197.76 332,201.618 		"/>
	</g>
	<g>
		<polygon fill="#F7A328" points="281.303,220.709 281.303,230.358 289.024,234.218 296.742,230.358 296.742,220.709 		"/>
		<polygon fill="#FFB640" points="281.303,220.709 289.024,216.849 296.742,220.709 289.024,224.569 		"/>
	</g>
	
		<line fill="none" stroke="#1F38B2" stroke-width="2.5034" stroke-linecap="round" stroke-linejoin="round" stroke-miterlimit="10" x1="248.551" y1="247.569" x2="285.321" y2="227.385"/>
	<polyline fill="#F7A328" points="239.164,253.309 246.883,257.168 254.602,253.309 254.602,243.657 239.164,243.657 	"/>
	<polyline fill="#FFB640" points="239.164,243.657 246.883,239.798 254.602,243.657 246.883,247.516 239.164,243.657 	"/>
</g>
<circle fill="#394CD3" cx="908.578" cy="98.696" r="19.584"/>
<circle fill="#6978E2" cx="914.042" cy="91.053" r="2.301"/>
<circle fill="#6978E2" cx="909.402" cy="99.646" r="4.167"/>
<circle fill="#6978E2" cx="900.361" cy="103.618" r="2.362"/>
<circle fill="#6978E2" cx="920.887" cy="99.383" r="1.742"/>
<circle fill="#6978E2" cx="899.381" cy="89.457" r="1.741"/>
<circle fill="#6978E2" cx="907.385" cy="112.479" r="2.362"/>
<path opacity="0.7" fill="#1E3296" enable-background="new    " d="M908.578,79.111c0,0-9.688,0.569-8.755,20.723
	c0.501,10.803,8.755,18.447,8.755,18.447s-3.262,0.113-6.765-1.279c-5.985-2.375-13.372-8.955-12.821-18.306
	c0.623-10.529,6.289-15.346,10.333-17.274C904.05,79.169,908.578,79.111,908.578,79.111z"/>
<circle fill="#FFFFFF" cx="916.927" cy="54.085" r="1.055"/>
<g opacity="0.7">
	<circle opacity="0.7" fill="#FFFFFF" enable-background="new    " cx="905.579" cy="384.805" r="2.634"/>
	<circle opacity="0.7" fill="#FFFFFF" enable-background="new    " cx="966.764" cy="345.241" r="2.139"/>
	<circle opacity="0.7" fill="#FFFFFF" enable-background="new    " cx="881" cy="331.758" r="2.14"/>
	<circle opacity="0.7" fill="#FFFFFF" enable-background="new    " cx="857.454" cy="318.066" r="2.141"/>
	<circle opacity="0.7" fill="#FFFFFF" enable-background="new    " cx="840.56" cy="282.352" r="2.14"/>
	<circle fill="#FFFFFF" cx="834.863" cy="332.63" r="2.14"/>
	
		<line opacity="0.7" fill="none" stroke="#FFFFFF" stroke-width="0.7586" stroke-miterlimit="10" enable-background="new    " x1="966.765" y1="345.246" x2="905.579" y2="384.807"/>
	
		<polyline opacity="0.7" fill="none" stroke="#FFFFFF" stroke-width="0.7586" stroke-miterlimit="10" enable-background="new    " points="
		905.579,384.807 881,331.758 857.454,318.064 840.564,282.352 	"/>
	
		<line opacity="0.7" fill="none" stroke="#FFFFFF" stroke-width="0.7586" stroke-miterlimit="10" enable-background="new    " x1="857.454" y1="318.064" x2="834.862" y2="332.631"/>
</g>
<path opacity="0.3" fill="none" stroke="#4D66E2" stroke-width="1.4682" stroke-linecap="round" stroke-linejoin="round" stroke-miterlimit="10" enable-background="new    " d="
	M926.848,106.394c8.872,5.633,12.581,9.948,11.354,12.596c-1.839,3.967-17.597,0.561-35.183-7.607
	c-17.592-8.167-30.358-18.003-28.517-21.971c1.243-2.675,4.783-3.104,14.965,0.121"/>
<path opacity="0.3" fill="none" stroke="#4D66E2" stroke-width="1.5462" stroke-miterlimit="10" enable-background="new    " d="
	M926.848,106.394c9.869,6.104,15.814,11.679,14.582,14.337c-1.845,3.978-19.114-0.12-38.568-9.15
	c-19.453-9.033-33.726-19.58-31.877-23.558c1.245-2.683,7.487-2.047,18.693,1.65"/>
<path opacity="0.3" fill="none" stroke="#4D66E2" stroke-width="1.6185" stroke-linecap="round" stroke-linejoin="round" stroke-miterlimit="10" enable-background="new    " d="
	M928.552,107.456c11.788,6.826,19.593,13.463,18.456,15.94c-1.704,3.709-21.684-1.816-44.624-12.346
	c-22.941-10.529-40.161-22.078-38.452-25.788c1.149-2.503,12.47-0.324,25.536,4.27"/>
<g opacity="0.7">
	<circle fill="#FFFFFF" cx="336.794" cy="62.567" r="2.208"/>
	<circle fill="#FFFFFF" cx="369.882" cy="63.556" r="2.207"/>
	<circle fill="#FFFFFF" cx="319.17" cy="120.837" r="2.206"/>
	
		<polyline opacity="0.3" fill="none" stroke="#FFFFFF" stroke-width="1.6462" stroke-miterlimit="10" enable-background="new    " points="
		336.82,62.015 369.882,63.556 356.284,130.296 319.146,121.386 336.794,62.567 	"/>
	
		<polyline opacity="0.3" fill="none" stroke="#FFFFFF" stroke-width="1.6462" stroke-miterlimit="10" enable-background="new    " points="
		517.553,-12.41 462.092,-7.26 400.642,19.702 369.882,63.556 	"/>
	<circle fill="#FFFFFF" cx="355.659" cy="130.494" r="2.354"/>
	<circle fill="#FFFFFF" cx="400.632" cy="19.975" r="2.354"/>
	<circle fill="#FFFFFF" cx="462.066" cy="-7.652" r="2.356"/>
	<circle fill="#FFFFFF" cx="517.556" cy="-12.408" r="2.355"/>
</g>
<circle fill="#FF7061" cx="963.167" cy="66.019" r="3.51"/>
<circle fill="#FF7061" cx="957.412" cy="74.302" r="2.597"/>
<circle fill="#FF7061" cx="963.617" cy="77.671" r="1.097"/>
<circle fill="#FF7061" cx="955.193" cy="67.844" r="1.097"/>
<circle fill="#FF7061" cx="969.203" cy="70.933" r="1.755"/>
<g id="Layer_2">
	<path fill="#FFB640" d="M406.28,326.425c-3.218,7.822-10.253,6.064-18.074,2.847c-7.82-3.218-13.467-6.678-10.25-14.498
		c3.22-7.824,12.167-11.557,19.989-8.338C405.765,309.654,409.497,318.603,406.28,326.425z"/>
	
		<rect x="377.435" y="315.157" transform="matrix(0.9249 0.3803 -0.3803 0.9249 150.6676 -125.4415)" fill="#FF553E" width="30.757" height="6.893"/>
	
		<linearGradient id="SVGID_14_" gradientUnits="userSpaceOnUse" x1="240.446" y1="-1596.1584" x2="312.1614" y2="-1596.1584" gradientTransform="matrix(0.3805 -0.9248 0.9248 0.3805 1745.0911 1223.9972)">
		<stop  offset="0" style="stop-color:#FFFFFF;stop-opacity:0"/>
		<stop  offset="1" style="stop-color:#FFFFBC"/>
	</linearGradient>
	<polygon opacity="0.2" fill="url(#SVGID_14_)" enable-background="new    " points="343.693,385.979 384.016,326.439 
		393.492,330.341 377.715,401.396 	"/>
	<path fill="#394CD3" d="M414.957,330.823c-0.804,1.955-3.042,2.888-4.995,2.083l-39.653-16.313
		c-1.955-0.807-2.888-3.044-2.085-4.997l0.193-0.472c0.805-1.954,3.045-2.887,4.997-2.083l39.652,16.313
		c1.955,0.806,2.887,3.045,2.084,4.996L414.957,330.823z"/>
	<path fill="#394CD3" d="M409.435,332.004c-0.803,1.955-9.522,2.291-11.478,1.483l-19.472-8.01
		c-1.958-0.806-7.863-7.056-7.058-9.012l5.777,2.063c0.804-1.957,3.042-2.887,4.994-2.086l19.472,8.013
		c1.957,0.81,2.889,3.046,2.086,4.997L409.435,332.004z"/>
	<path fill="#FFB640" d="M393.187,321.696c-0.249,0.604-0.939,0.892-1.543,0.642c-0.604-0.248-0.891-0.94-0.642-1.544
		c0.247-0.598,0.94-0.886,1.541-0.64C393.147,320.399,393.434,321.093,393.187,321.696z"/>
	<circle fill="#FFB640" cx="384.248" cy="318.014" r="1.18"/>
	<circle fill="#FFB640" cx="378.672" cy="315.72" r="1.181"/>
	<circle fill="#FFB640" cx="374.422" cy="313.976" r="1.18"/>
	<circle fill="#FFB640" cx="371.059" cy="312.59" r="1.18"/>
	<circle fill="#FFB640" cx="400.444" cy="324.679" r="1.181"/>
	<circle fill="#FFB640" cx="405.224" cy="326.646" r="1.18"/>
	<circle fill="#FFB640" cx="409.825" cy="328.541" r="0.937"/>
	<circle fill="#FFB640" cx="413.011" cy="329.85" r="0.936"/>
	<path fill="#394CD3" d="M380.023,331.805c-0.181,0.438-0.686,0.649-1.123,0.466l-3.366-1.383c-0.438-0.183-0.65-0.687-0.463-1.125
		l0,0c0.176-0.439,0.682-0.652,1.122-0.468l3.364,1.385C379.993,330.86,380.204,331.365,380.023,331.805L380.023,331.805z"/>
	
		<line fill="none" stroke="#394CD3" stroke-width="2.2969" stroke-miterlimit="10" x1="377.544" y1="330.788" x2="383.405" y2="325.846"/>
	<path fill="#394CD3" d="M393.26,337.25c-0.182,0.439,0.048,0.953,0.517,1.145l3.571,1.469c0.466,0.191,0.992-0.008,1.173-0.448l0,0
		c0.18-0.44-0.051-0.953-0.521-1.146l-3.568-1.468C393.967,336.607,393.442,336.81,393.26,337.25L393.26,337.25z"/>
	
		<line fill="none" stroke="#394CD3" stroke-width="2.2969" stroke-miterlimit="10" x1="395.889" y1="338.33" x2="395" y2="330.618"/>
	<circle fill="#FFD399" cx="398.795" cy="313.344" r="2.585"/>
</g>
<g id="Layer_6">
</g>
<g>
	<path fill="#FFB640" d="M773.979,70.49c0,0,0.288,0.002,0.752,0.294c0.465,0.291,0.774,0.174,1.259,0.092
		c0.35-0.059,1.219-0.364,0.882,0.063c-0.587,0.743-1.35,0.965-1.71,0.979c-0.36,0.016-1.101-0.087-1.465,0.078
		c-0.362,0.166-0.346-0.272-0.346-0.272L773.979,70.49z"/>
	<path fill="#E8921F" d="M766.627,74.088c0,0-2.376-3.261-2.901-3.784c-0.526-0.523-1.116-0.365-1.424-0.427
		c-0.311-0.064-1.098-0.248-1.098-0.248s-0.321,0.276,0.318,0.744c0.641,0.47,1.5,0.612,1.5,0.612s0.048,0.291,0.75,1.277
		c0.701,0.987,1.448,2.188,1.448,2.188l2.437,0.665L766.627,74.088z"/>
	<path fill="#D68522" d="M774.358,85.296c0.138,0.929,0.768,1.135,0.768,1.135s0.54,0.425,0.518,0.626
		c-0.02,0.203-0.151,2.399-0.151,2.94c-0.001,0.575-0.148,0.802-0.204,1.198c-0.062,0.446-0.528,0.982-0.878,0.17
		c-0.204-0.474,0.141-0.96,0.213-1.313c0.112-0.546-0.172-1.796-0.377-2.166s-0.989-0.895-1.311-1.048
		c-0.322-0.153-2.157-0.773-2.79-2.676c-0.633-1.906,3.709-2.589,3.778-2.449C773.994,81.855,774.358,85.296,774.358,85.296z"/>
	<path fill="#FFB640" d="M766.335,74.002c0,0,0.018,0.917-1.937,1.514c-1.957,0.595-2.439,0.789-2.249,0.859
		c0.193,0.072,3.891,1.344,4.095,1.505c0.203,0.16,2.124-2.272,2.124-2.272L766.335,74.002z"/>
	<path fill="#FFB640" d="M782.949,78.921c0,0-0.567,0.649-1.598,1.534c-0.843,0.725-1.527,1.256-1.865,1.449
		c-0.373,0.191-0.891,0.314-1.223,0.394c-0.679,0.162-2.025,0.129-2.445-0.044c-0.006-0.043-0.298-0.13-0.307-0.175
		c-0.306-1.791-2.854-2.948-3.396-5.188c-0.345-1.419-0.443-1.767-0.322-2.449c0.865-1.238,1.645-1.835,2.127-2.519
		c1.339-1.905-1.242-4.243-1.242-4.243l-0.583-1.805c0,0-0.544,0.063-1.055,0.813c-0.116,0.168-0.178,0.354-0.208,0.539
		l-0.021-0.145c0,0-0.12,0.153-0.27,0.446c-0.16,0.31-0.408,1.213-0.338,2.586c0.009,0.14-1.256,1.053-2.153,1.819
		c-0.867,0.374-2.09,1.033-2.604,1.941c-0.361,0.637-0.556,1.331-0.606,2.082l-3.507-0.014c-1.044-0.031-3-0.553-3-0.553
		s-0.092,0.469,0.525,0.8s3.438,1.084,4.159,1.146c0.387,0.032,1.655,0.215,2.614,0.31c0.072,0.66,0.394,1.435,0.744,2.125
		c0.513,1.01,2.07,2.596,3.47,3.851c-0.23-0.229-0.224-0.128-0.23-0.097c-0.481,2.489,1.945,3.832,2.184,4.096
		c0.239,0.265,0.438,0.376,0.487,0.796c0.044,0.419-0.672,1.925-0.723,2.064c0,0-0.978,1.236-0.958,1.63
		c0.048,0.984,0.72,0.815,1.014,0.389c0.198-0.287,0.131-0.522,0.102-0.705c0.14-0.171,0.251-0.43,0.419-0.736
		c0.359-0.664,1.573-2.551,1.669-2.731c0.097-0.18-0.247-0.623-0.247-0.623s-0.504-0.431-0.275-1.341c0,0,0.106-0.36,0.248-0.846
		c0.693-0.526,1.399-1.32,1.587-1.912c0.787-0.094,2.74,0.242,4.712-0.652c1.181-0.568,1.477-1.118,2.49-2.402
		C782.674,80.111,783.491,78.306,782.949,78.921z"/>
	
		<ellipse transform="matrix(0.7837 0.6212 -0.6212 0.7837 209.7754 -464.9155)" fill="#2D1F1E" stroke="#2D1F1E" stroke-width="0.12" stroke-miterlimit="10" cx="772.391" cy="68.728" rx="0.27" ry="0.299"/>
	<g>
		<g>
			<path fill="#2D1F1E" d="M770.779,68.708c-0.191-0.425-0.195-0.877-0.161-1.334c0.013-0.132,0.21-0.486,0.192-0.292
				c-0.031,0.414,0.036,1.038,0.209,1.423C771.075,68.629,770.841,68.846,770.779,68.708L770.779,68.708z"/>
		</g>
	</g>
	<path fill="#EFE4D3" d="M772.46,67.122l-0.365-1.247c0,0-0.9,0.304-1.129,0.699c-0.229,0.393,0.082,0.792,0.138,0.521
		c0.039-0.19,0.51-0.367,0.883-0.073C772.226,67.212,772.46,67.122,772.46,67.122z"/>
	<path fill="#30200A" d="M771.96,66.289l-0.019-0.428c0,0-0.389,0.106-0.493,0.243c-0.107,0.133,0.29,0.12,0.29,0.12L771.96,66.289z
		"/>
	<path fill="#FFB640" d="M759.565,75.952c0,0-0.617-0.542-1.004-0.684c-0.385-0.138-0.315-0.086-0.301,0.311
		C758.28,75.978,759.565,75.952,759.565,75.952z"/>
	<path fill="#D68522" d="M774.714,89.872c0,0-0.487,1.499-0.332,1.862c0.387,0.908,0.956,0.516,1.086,0.014
		c0.128-0.502-0.252-0.694-0.213-0.918c0.039-0.225,0.247-0.87,0.247-0.974C775.501,89.755,774.714,89.872,774.714,89.872z"/>
</g>
</svg>
