<?xml version="1.0" encoding="utf-8"?>
<!-- Generator: Adobe Illustrator 16.0.0, SVG Export Plug-In . SVG Version: 6.00 Build 0)  -->
<!DOCTYPE svg PUBLIC "-//W3C//DTD SVG 1.1//EN" "http://www.w3.org/Graphics/SVG/1.1/DTD/svg11.dtd">
<svg version="1.1" id="Layer_1" xmlns="http://www.w3.org/2000/svg" xmlns:xlink="http://www.w3.org/1999/xlink" x="0px" y="0px"
	 width="1267px" height="672.236px" viewBox="169.5 0 1267 672.236" enable-background="new 169.5 0 1267 672.236"
	 xml:space="preserve">
<g id="Layer_2_3_">
	<circle fill="#394CD3" cx="798.892" cy="377.83" r="210.5"/>
	<circle fill="#394CD3" cx="556.5" cy="172.086" r="13"/>
	
		<radialGradient id="SVGID_1_" cx="1699.0623" cy="2617.1218" r="18.9385" fx="1703.6895" fy="2630.5718" gradientTransform="matrix(-0.1683 0.9858 -0.9858 -0.1683 3429.4243 -1057.2261)" gradientUnits="userSpaceOnUse">
		<stop  offset="0.7783" style="stop-color:#FFFFFF;stop-opacity:0"/>
		<stop  offset="1" style="stop-color:#FFE5FF"/>
	</radialGradient>
	<circle opacity="0.2" fill="url(#SVGID_1_)" enable-background="new    " cx="556.5" cy="172.086" r="18.938"/>
	
		<circle opacity="0.3" fill="none" stroke="#394CD3" stroke-miterlimit="10" enable-background="new    " cx="799.166" cy="378.754" r="223.334"/>
	<path fill="#394CD3" d="M1000.5,419.422c0.666,9.333,4,11.333,2.666,19.333c-1.332,8-3.332,13.334-4,18.667
		c-0.666,5.333,0,10.666-4.666,13.333s-4.666,6.667-7.334,10c-2.666,3.333-1.332,10.666-9.332,11.333s-18,6.667-18,6.667
		L1000.5,419.422z"/>
	<path fill="#394CD3" d="M848.5,182.753c24.666,3.333,26,0,37.334,3.333c11.332,3.333,14-2,20,4.667s10.666,8.667,14,12
		c3.332,3.333,8.666,7.333,14.666,12s12.668,4.667,17.334,11.333s-0.668-0.667,8.666,12.667s11.334,11.334,11.334,18.667
		s-1.334,10.667,0.666,16.667S848.5,182.753,848.5,182.753z"/>
	<path fill="#2C42C4" d="M591.832,405.422c-2.667,4.666-3.333,14.666-3.333,16.666s-1.334,2,1.333,8s3.333,10,4,14s-6-1.334,1.333,8
		s4,6.668,7.333,9.334s5.333,7.333,6,9.333s6,2.666,7.333,5.333s10.667,9.334,10.667,9.334L591.832,405.422"/>
	<path fill="#2C42C4" d="M724.226,184.814c-5.943,1.566-11.677,1.662-15.765,2.891c-4.091,1.229-8.31-0.873-12.058,2.21
		s-10.066,5.201-12.303,6.09c-2.234,0.892-3.37,2.535-7.118,5.618s-8.593,5.41-11.205,6.849c-2.609,1.438-3.54,1.606-6.188,5.446
		c-2.65,3.843-5.644,5.827-8.462,8.741c-2.821,2.913-6.021,6.375-8.122,10.595c-2.104,4.223-6.646,10.807-8.917,14.099
		c-2.271,3.292-5.722,10.634-5.722,10.634L724.226,184.814"/>
	<path fill="#2C42C4" d="M721.166,182.086c7.334-4.667,12.67-8.667,18.668-10c6-1.333,20-2,26.666-2.667
		c6.668-0.667,10.668,4,10.668,4"/>
	<path fill="#394CD3" d="M729.166,572.755c6,2.667,23.334,12.001,32.668,14.667s19.332,3.999,24,4.666
		c4.666,0.667,22-1.331,30.666-2.666c8.668-1.334,14.668,0,22.668-2s13.998-6.666,23.332-12"/>
</g>
<g id="Layer_2_2_">
	<g>
		<path fill="#2C42C4" d="M799.742,534.97c-7.104,8.744-11.476,16.394-22.401,14.754c-12.021-1.639-16.939-8.196-28.415-13.114
			c-6.559-2.729-16.939,3.825-24.591,0.547c-6.558-3.276-4.37-11.476-6.011-15.847c0-1.093,0.546-6.011,0-8.197
			c-1.093-6.01-15.224-13.054-7.338-26.009c11.517-18.917,31.927,7.978,42.31,13.441c13.114,6.012,22.95,7.104,34.973-1.095
			c8.743-6.011,25.136-19.671,32.239-4.371c8.742,19.673,1.094,29.509-11.476,32.785L799.742,534.97z"/>
	</g>
	<g>
		<path fill="#2C42C4" d="M884.864,365.077c-2.741-18.7-14.441-19.293-34.178-30.813c-15.891-9.813-24.084,0.354-38.604-4.25
			c-5.383-2.391-12.389-7.338-15.978-11.692c-4.358-4.693-3.08-9.647-5.899-13.662c-5.3-8.794-28.195-23.558-30.065-6.901
			c-0.255,2.646,5.813,11.781,7.097,15.111c2.738,10.418-2.644,8.03,5.646,16.312c13.415,13.314,23.406,9.469,38.268,13.304
			c4.954,1.278,9.313,5.976,13.926,8.021c3.846,1.707,11.359,1.359,14.437,2.727c10.082,6.314,5.563,22.715,12.059,32.961
			c13.85,22.711,1.028,5.979-11.69,15.979c-10.5,9.144,5.222,23.482,14.789,26.81c27.076,7.417,12.794-32.973,21.757-42.799
			c10.164-0.091,6.838,9.476,9.403,16.137c1.795,6.319,3.42,8.88,7.437,14.345c6.752,7.599,6.665,5.721,8.12,12.809
			c3.594,12.638,8.051,44.063,30.503,24.581c4.013-2.82,0.761-16.229-0.609-21.438c-1.025-5.978-11.618-6.997-15.977-11.69
			c-5.981-7.259-5.817-20.067-10.263-26.644c-0.429-1.107-12.814-8.447-12.731-14.854L884.864,365.077z"/>
	</g>
	<g>
		<path fill="#2C42C4" d="M951.121,273.19c-7.502,2.251-26.258,10.503-27.759,19.506c-3.001,9.753,11.254,19.506,13.504,30.009
			c1.501,8.253-6.001,18.758-2.25,26.26c3.001,6.752,18.757,12.004,26.259,9.753c21.007-6.002,11.252-46.516,8.252-60.77
			c-4.502-18.006-5.252-30.009-28.509-23.257"/>
	</g>
	<g>
		<path fill="#2C42C4" d="M898.5,518.54c-6,4-33,21-29,31c3,6,39-2,44-6c6-4,31-38,11-40c-5,0-13,9-18,12c-7,3-19-3-15,10"/>
	</g>
	<g>
		<path fill="#2C42C4" d="M775.593,412.206c-9-15-19.499-38.998-38.998-43.498c-10.5-1.5-20.999-4.5-19.499,7.5
			c0,8.999,16.499,10.499,19.499,16.499c3,5.999,0,10.499,3,13.499c7.5,17.999,19.499,44.998,38.998,37.498
			c-4.5,1.5,12-23.999,10.5-17.999c1.5-10.499,0-14.999-13.5-16.499"/>
	</g>
</g>
<g id="Layer_3_1_">
	<g>
		<g>
			<g>
				<g>
					<defs>
						<circle id="SVGID_2_" cx="798.892" cy="377.83" r="210.5"/>
					</defs>
					<clipPath id="SVGID_3_">
						<use xlink:href="#SVGID_2_"  overflow="visible"/>
					</clipPath>
					<g display="none" clip-path="url(#SVGID_3_)">
						<g display="inline">
							<g>
								<path fill="#2C42C4" d="M791.527,464.677c-3.086,5.871-2.162,1.382-4.637,5.671c-2.151-2.73-8.194-0.248-5.999-8.813
									C787.493,457.11,786.938,467.261,791.527,464.677z"/>
								<path fill="#2C42C4" d="M790.039,430.582c-0.504,1.89-1.489,2.119-1.757,1.733l-1.021-0.643
									c0.519-1.865,1.516-2.096,1.771-1.727L790.039,430.582z"/>
								<path fill="#2C42C4" d="M775.135,455.224c-1.396,2.421-2.282,3.617-2.802,3.914c-2.809,0.943-5.592,0.518-7.307-1.294
									c-1.577-1.835-2.047-5.042-0.521-9.629c4.073-2.139,5.5-0.855,6.583,1.198C772.211,451.441,772.934,454.304,775.135,455.224
									z"/>
								<path fill="#2C42C4" d="M759.926,474.02c0.045,2.403-2.311,2.288-2.334,1.37l-1.762-1.11
									c-0.012-2.376,2.345-2.249,2.355-1.354L759.926,474.02z"/>
								<path fill="#2C42C4" d="M757.428,469.607c-0.388,1.964-1.677,2.021-1.979,1.566c-2.766-1.479-5.718-2.915-8.688-4.069
									c-1.485-0.578-2.978-1.084-4.448-1.488c-1.427-0.441-2.841-0.783-4.221-0.981l-1.813-1.404l-0.906-0.703
									c1.438-1.827,1.515-1.188,2.075-1.431l1.496,1.16c2.146-1.096,2.553,1.039,5.57-1.765c1.333,2.729,4.208,3.248,6.824,3.999
									C754,465.233,756.425,466.135,757.428,469.607z"/>
								<path fill="#2C42C4" d="M757.789,440.426c-1.919,3.021-2.412,4.652-1.511,4.896c-5.389,2.893-5.761-3.432-9.216-4.118
									c1.193-3.872,3.791,0.849,3.82-3.112c4.088-2.251,6.367-1.547,8.223-0.041c0.936,0.738,1.723,1.729,2.633,2.542
									c0.903,0.821,1.855,1.563,2.997,1.931c-1.897,4.096-2.797,0.016-3.93,0.174C759.76,441.986,758.786,441.187,757.789,440.426
									z"/>
								<path fill="#2C42C4" d="M745.397,439.904c-2.509,4.013-2.266,1.108-2.604,0.962c-1.761-0.675-3.546-3.632-5.375-4.576
									c3.636-4.011,1.235,1.528,6.012-4.347c-2.876,4.503-2.377,4.928,1.572,1.341
									C742.766,437.578,743.31,439.463,745.397,439.904z"/>
								<path fill="#2C42C4" d="M714.994,418.559c6.125-5.313,4.611-1.729,5.636-1.159c1.479,0.812,2.687,2.267,3.902,3.775
									c1.201,1.521,2.539,2.997,4.067,3.964c-3.475,0.313-5.553-1.311-7.333-3.058
									C719.453,420.356,717.816,418.589,714.994,418.559z"/>
								<path fill="#2C42C4" d="M699.196,436.695c-0.84,1.799-1.99,1.655-2.237,1.158l-1.329-1.335
									c0.851-1.788,2.002-1.646,2.245-1.148L699.196,436.695z"/>
								<path fill="#2C42C4" d="M689.539,437.159c-0.639,2.275-2.739,1.7-2.516,0.843
									C687.672,435.73,689.775,436.298,689.539,437.159z"/>
								<path fill="#2C42C4" d="M686.25,437.173c-1.566,3.155-2.632,0.646-3.032,0.258c-2.474,0.33-4.38-0.103-5.143-1.991
									C685.51,430.077,683.435,436.707,686.25,437.173z"/>
								<path fill="#2C42C4" d="M770.857,147.64c-2.781-0.153-6.043-0.676-8.354-1.419c-1.155-0.373-2.074-0.807-2.577-1.284
									c-0.536-0.573-0.663-1.21-0.188-1.854c1.444,0.164,2.72,0.438,3.854,0.79c1.104,0.267,2.065,0.588,2.936,0.977
									C768.265,145.618,769.604,146.603,770.857,147.64z"/>
								<path fill="#2C42C4" d="M519.202,209.715c0.524,0.438-3.396,1.616-6.754,2.687c-4.584,1.706-8.063,3.187-13.585,4.967
									c-0.709,0.415-1.459,0.833-2.258,1.257c-0.786,0.492-1.618,1.013-2.511,1.524c-1.784,1.03-3.802,2.087-6.126,3.173
									c1.858,1.158-2.613,3.879-3.5,5.967c-1.932,0.922-4.493,1.903-6.977,2.878c-2.477,0.991-4.894,1.882-6.438,2.961
									c-0.771,1.594-2.337,3.42-3.835,5.268c-0.748,0.926-1.483,1.84-2.086,2.755c-0.56,1.06-0.988,2.095-1.188,3.071
									c-0.285,1.386-0.325,2.729-0.224,4.048c0.051,0.657,0.138,1.312,0.248,1.96c0.196,0.929,0.467,2.004,0.726,2.995
									c0.553,2.018,1.107,4.043,1.661,6.066c0.272,1.019,0.533,2.035,0.771,3.063l0.174,0.771l0.083,0.389
									c0.032,0.146,0.012,0.126,0.021,0.196c0.006,0.202,0.002,0.407-0.01,0.615c-0.086,1.282-0.172,2.558-0.257,3.828
									l-0.034,0.477l-0.017,0.238l-0.01,0.119l-0.004,0.03l-0.001,0.015l-0.001,0.007c-0.318-0.892,2.794,7.791,1.479,4.121
									l0.012,0.094l0.194,1.502c0.133,1.002,0.266,2.002,0.396,3c0.542,3.996,1.129,7.976,1.815,11.908
									c0.343,1.956,0.709,3.95,1.105,5.841c0.399,1.801,0.828,3.587,1.293,5.355c0.93,3.539,1.995,7.011,3.254,10.385
									c1.691,1.031,5.354,0.57,6.33,2.043c2.524,3.178,5.043,6.283,7.459,9.396c1.211,1.557,2.396,3.114,3.541,4.685
									c1.142,1.529,2.213,2.9,3.254,4.393c2.074,2.934,3.957,5.964,5.563,9.177c0.396,0.783,0.798,1.662,1.138,2.398
									c0.35,0.765,0.679,1.539,0.984,2.328c0.616,1.58,1.151,3.221,1.597,4.926c0.578,2.214,0.913,4.57,1.137,7.008l0.146,1.834
									l0.069,1.734l0.093,3.509c0.058,2.341,0.128,4.678,0.339,6.931c0.104,1.126,0.246,2.229,0.438,3.305
									c0.095,0.532,0.21,1.075,0.32,1.576c0.101,0.473,0.209,0.938,0.338,1.391c0.518,1.847,2.464,2.904,2.994,4.648
									c0.737,2.479-0.654,6.197-0.131,8.669c0.566,2.828,1.533,5.045,2.579,7.09c0.538,1.016,1.063,2.003,1.589,2.993l0.389,0.747
									l0.097,0.188l0.006,0.013l0.908,1.395l0.014,0.026l0.028,0.052l0.055,0.104l0.219,0.42c0.29,0.562,0.57,1.134,0.835,1.724
									c5.071,3.456,12.009,4.975,18.938,6.938c3.434,0.955,6.792,1.959,9.799,3.274c3.035,1.34,5.801,3.05,7.903,5.318
									c3.695-0.316,6.279,0.425,8.972,1.053c2.714,0.644,5.587,1.197,9.722,0.418l1.828,2.532c4.45-0.362,8.326-0.253,12.01,0.137
									c3.705,0.396,7.138,1.039,10.538,1.682c3.417,0.642,6.743,1.265,10.396,1.652c3.657,0.394,7.521,0.519,11.823,0.107
									c3.181,0.832,7.354,0.474,11.486,0.207c4.149-0.266,8.162-0.449,10.911,0.769c4.217-0.552,7.73-0.341,10.939,0.296
									c3.229,0.638,6.066,1.699,8.76,2.861c2.716,1.156,5.175,2.43,7.921,3.41c2.705,0.988,5.489,1.72,8.564,1.831
									c0.708,0.271,2.996-3.043-0.265-0.28c-3.179-3.057-7.785-4.842-12.518-6.542c-2.396-0.843-4.881-1.646-7.33-2.546
									c-1.222-0.449-2.444-0.921-3.622-1.433c-1.154-0.517-2.281-1.064-3.364-1.672c-4.565,1.422-6.692-0.004-9.711-0.437
									c-2.265-0.496-9.99,1.939-7.629-1.777c1.238-0.055,1.696,0.749,6.555-3.31c2.983-1.987,3.49-1.229,4.952-1.538
									c3.355-1.103,4.42,0.325,6.614,0.482c5.952-1.46,7.452,2.024,13.122,0.761c0.938,3.513,6.729,1.274,9.051,3.066
									c2.123-0.819,6.193-4.016,6.856-3.108c-0.603,3.106,2.217,1.748,4.984,1.953c2.729,1.967,5.771,3.511,8.699,5.15
									c0.735,0.409,1.454,0.83,2.178,1.26c0.736,0.421,1.462,0.854,2.167,1.313c1.411,0.918,2.747,1.93,3.961,3.106
									c3.3-0.806,5.07,0.44,7.524,0.726c0.338,0.348,0.708,0.678,1.065,1.013c2.416-2.612,0.856-2.18,0.604-2.737l-1.283-1.281
									l-1.282-1.281c-5.71-6.17-12.538-12.075-21.452-15.605c-2.221-2.933-5.994-5.495-10.089-7.952
									c-1.9-1.148-3.809-2.487-5.954-3.447c-2.034-0.909-5.313-0.771-8.031-1.007c-2.683-0.24-4.819-0.851-4.588-3.168
									c2.358,0.964,8.432-2.09,12.692-3.273c5.691,0.103,12.642-0.757,19.042-1.117c3.186-0.169,6.313-0.252,9.089-0.012
									c2.774,0.241,5.209,0.803,7.103,1.896c1.007,0.573,0.751,2.731,2.474,2.801c1.911,0.076,6.199-1.883,9.837-3.522
									c2.226,0.403,4.524,0.687,6.885,0.856c1.18,0.087,2.373,0.146,3.58,0.181c1.223,0.021,2.466,0.003,3.714-0.03l2.741,2.744
									c3.27-0.774,0.771-2.96,0.104-3.278c-1.127-1.146-2.29-2.251-3.387-3.43l-3.29-3.53c-2.185-2.364-4.426-4.671-6.517-7.133
									c0.229-1.684-4.694,0.046,1.493-5.59c3.49-0.55,4.711,1.448,6,3.403c1.321,1.909,2.689,3.807,6.247,2.991
									c0.604-2.982-0.07-5.032-1.222-6.46c-1.158-1.416-2.717-2.313-3.959-2.788c-3.661-1.481,0.303-8.945-5.766-6.605
									c-0.73-0.396-1.242-0.938,0.639-3.002c3.683-3.313-0.497-1.506,5.117-5.104c5.673-4.787,6.066-3.896,6.673-3.225
									c0.715,0.711,4.053-1.475,3.586,0.495c5.31-2.922,3.37,2.157,10.353-2.75c0.518-1.871,6.375-7.366,7.534-9.613
									c-1.333-0.679,1.808-4.354-0.587-4.298c2.316-4.578,0.385-6.332,3.253-11.146c0.271-2.135-4.817-0.856-1.138-5.156
									c0.173,0.227,0.349,0.441,0.524,0.651c0.868-0.134,2.638-2.152,1.513-1.932l-0.864-1.104
									c0.461-1.834,7.739-6.384,6.819-6.86c-1.191-0.334-0.802-1.652,0.359-3.433c0.031-1.083-1.457-1.237,4.492-5.934
									c8.604-6.78,6.9-3.529,10.762-5.729c3.076-1.315,6.944-3.44,9.121-3.926c1.093-0.066,1.97,0.053,2.689,0.303
									c0.722,0.22,1.289,0.572,1.76,1.014c0.943,0.879,1.505,2.102,2.156,3.252c0.646,1.144,1.387,2.253,2.664,2.789
									c1.273,0.505,3.091,0.508,5.874-0.445c-0.462-1.229-0.896-2.474-1.31-3.728c-0.412-1.314-0.804-2.666-1.183-4.002
									c-0.758-2.712-1.459-5.274-2.188-8.104c-0.729-2.771-1.47-5.422-2.309-8.058c-0.845-2.704-1.777-5.284-2.88-7.681
									c-0.393-1.206,4.464-4.313,0.703-3.093c4.503-7.305-10.012-1.607-6.055-8.42c4.646-3.177,2.593-0.354,6.654-3.043
									c-2.629-1.771-5.863-3.479-9.454-5.022c-3.604-1.602-7.599-3.199-11.675-4.504c-9.486,6.038,1.57,1.548-4.678,5.938
									c-1.579-0.5-3.06-1.019-4.499-1.527c-1.448-0.542-2.858-1.092-4.288-1.593c-2.857-1.006-5.795-1.858-9.297-2.354
									c0.206-0.324,0.538-0.71,0.944-1.132c0.225-0.227,0.44-0.441,0.657-0.657c-0.133-0.206,1.164,1.783,0.614,0.938l0.001-0.001
									l0.004-0.002l0.004-0.005l0.013-0.011l0.021-0.021l0.044-0.044l0.089-0.086l0.184-0.174l0.369-0.352
									c1-0.945,2.085-1.932,2.831-2.755c-3.795-0.825-6.44-2.944-8.545-5.366c-0.524-0.606-1.018-1.23-1.482-1.859
									c-0.454-0.607-0.878-1.213-1.289-1.812c-0.822-1.193-1.584-2.341-2.364-3.322c1.639-2.5,2.611-4.684,3.158-6.666
									c0.272-0.991,0.44-1.931,0.529-2.834c0.13-0.854,0.189-1.66,0.198-2.447c0.043-3.143-0.673-5.911-0.259-9.193
									c-1.236-0.979-2.217-1.723-3.146-2.655c-0.906-0.912-1.66-1.909-2.133-3.071c-0.469-1.158-0.675-2.501-0.438-4.054
									c0.322-1.479,1.057-3.191,2.332-5.212c-1.516-1.439-0.105-4.155,0.591-6.416c0.875-2.112,1.052-3.743-3.252-3.427
									c3.217-2.044,2.383-2.362,3.563-3.523c-2.781,0.844-3.063,0.339-2.607-0.382c0.479-0.705,1.596-1.696,1.421-2.021
									c-0.552-1.045-2.258-2.694-4.032-2.873c-0.604-0.063,1.891-1.342,1.959-1.485c0.373-1.172,1.034-2.392,1.878-3.584
									c0.421-0.601,0.889-1.191,1.387-1.773c0.249-0.291,0.506-0.579,0.77-0.864l0.049-0.053l0.015-0.013l0.006-0.007l0.002-0.001
									c2.895,8.062,0.802,2.229,1.447,4.028l0.003-0.007l0.016-0.057l0.065-0.229l0.134-0.455c0.093-0.304,0.185-0.604,0.274-0.9
									c0.348-1.1,0.688-2.169,1.02-3.218l0.251-0.782l0.063-0.194c0.024-0.05,0.023-0.175,0.093-0.108l0.319,0.15
									c0.424,0.202,0.838,0.41,1.238,0.622c0.805,0.424,1.563,0.867,2.266,1.328l0.517,0.349l0.249,0.176l0.168-0.127
									c0.211-0.16,0.42-0.321,0.627-0.48c0.2-0.162-2.602,0.585-2.382,0.38c0.086-0.031,0.496-0.178,1.037-0.372
									c0.526-0.188,1.082-0.396,1.219-0.488c0.208-0.138,0.356-0.257,0.459-0.356c0.051-0.053,0.09-0.102,0.119-0.146
									c0.029-0.035,0.048-0.081,0.044-0.184c0.001-0.338-0.139-0.618-0.33-0.874c-0.382-0.511-0.974-0.929-1.063-1.515
									c-0.017-0.107,0.018-0.188,0.063-0.345c0.043-0.171,0.116-0.35,0.207-0.533c0.182-0.365,0.438-0.754,0.679-1.133
									c0.482-0.758,0.905-1.486,0.563-1.997c-0.192-0.287-0.479-0.555-0.828-0.806c-0.176-0.125-0.367-0.247-0.572-0.365
									l-0.688-0.505c-0.966-0.675-2.089-1.308-3.156-1.941c-1.068-0.639-2.081-1.277-2.829-1.975
									c-0.188-0.173-0.356-0.351-0.508-0.532c-0.164-0.228-0.313-0.466-0.434-0.705c-0.246-0.479-0.396-0.979-0.433-1.508
									c-3.451-0.31-6.699-0.688-9.916-1.06c-1.606-0.178-3.218-0.356-4.823-0.533l-1.215-0.127l-1.247-0.188
									c-0.844-0.115-1.685-0.231-2.521-0.349c-6.785-0.871-14.113-1.27-23.312-0.431c-8.484,2.363-20.239,6.465-25.433,7.065
									c-13.196,5.594-24.417,8.2-41.035,13.592c-6.886,3.382-14.095,6.668-22.138,9.92c-7.402,1.094-16.422,4.655-25.455,7.021
									c-0.3,0.664-5.941,2.353-9.002,3.406c-3.498,1.203-4.704,2.239-9.191,2.771c0.691,0.693-0.221,1.615-4.209,2.93
									c-0.081,0.784-0.063,1.557-6.616,3.171c1.387-1.438-4.271-0.141-2.881-1.564c-16.29,4.5-23.063,5.29-35.027,8.323
									C527.904,207.298,524.507,208.385,519.202,209.715z M762.448,323.773c-1.021,1.973-2.789,1.587-2.398,0.831
									C761.067,322.643,762.83,323.027,762.448,323.773z M634.791,425.45c-5.396,4.813-3.85,1.979-4.704,1.788
									C632.762,425.431,634.094,425.098,634.791,425.45z"/>
							</g>
						</g>
					</g>
				</g>
			</g>
		</g>
		<g>
			<g>
				<g>
					<defs>
						<circle id="SVGID_4_" cx="798.892" cy="377.83" r="210.5"/>
					</defs>
					<clipPath id="SVGID_5_">
						<use xlink:href="#SVGID_4_"  overflow="visible"/>
					</clipPath>
					<g display="none" clip-path="url(#SVGID_5_)">
						<g display="inline">
							<g>
								<path fill="#2C42C4" d="M803.822,375.555c5.709,3.376,1.272,2.229,5.435,4.915c-2.834,2.012-0.657,8.172-9.102,5.551
									C796.063,379.205,806.177,380.266,803.822,375.555z"/>
								<path fill="#2C42C4" d="M769.696,375.339c1.859,0.598,2.042,1.596,1.646,1.841l-0.693,0.989
									c-1.836-0.61-2.014-1.618-1.632-1.856L769.696,375.339z"/>
								<path fill="#2C42C4" d="M793.561,391.455c2.348,1.518,3.499,2.459,3.771,2.992c0.807,2.854,0.236,5.609-1.656,7.231
									c-1.911,1.48-5.141,1.793-9.646,0.04c-1.929-4.18-0.579-5.535,1.53-6.518C789.637,394.185,792.532,393.605,793.561,391.455z
									"/>
								<path fill="#2C42C4" d="M811.574,407.588c2.402,0.072,2.17,2.421,1.252,2.398l-1.197,1.701
									c-2.371-0.106-2.129-2.452-1.231-2.42L811.574,407.588z"/>
								<path fill="#2C42C4" d="M807.043,409.856c1.941,0.485,1.938,1.776,1.468,2.054c-1.613,2.689-3.197,5.565-4.5,8.477
									c-0.65,1.453-1.23,2.917-1.708,4.367c-0.518,1.401-0.926,2.8-1.194,4.167l-1.492,1.735l-0.748,0.869
									c-1.753-1.525-1.107-1.57-1.323-2.145l1.232-1.438c-0.982-2.194,1.165-2.498-1.48-5.648c2.791-1.193,3.455-4.04,4.336-6.615
									C802.502,413.061,803.521,410.688,807.043,409.856z"/>
								<path fill="#2C42C4" d="M777.911,408.039c2.923,2.066,4.529,2.644,4.815,1.753c2.617,5.526-3.715,5.582-4.574,8.998
									c-3.808-1.385,1.035-3.74-2.919-3.971c-2.043-4.196-1.226-6.438,0.37-8.215c0.786-0.897,1.813-1.634,2.671-2.502
									c0.867-0.861,1.653-1.774,2.077-2.897c3.996,2.104-0.124,2.796-0.021,3.937C779.571,406.15,778.725,407.08,777.911,408.039z
									"/>
								<path fill="#2C42C4" d="M776.774,420.389c3.882,2.706,0.994,2.315,0.831,2.647c-0.762,1.727-3.804,3.358-4.839,5.142
									c-3.824-3.83,1.588-1.158-4.041-6.223c4.354,3.101,4.803,2.62,1.418-1.506C774.32,422.899,776.227,422.45,776.774,420.389z"
									/>
								<path fill="#2C42C4" d="M753.935,449.685c-4.996-6.383-1.493-4.69-0.876-5.685c0.883-1.438,2.397-2.568,3.966-3.713
									c1.579-1.124,3.121-2.386,4.162-3.861c0.138,3.483-1.583,5.479-3.417,7.171
									C755.954,445.322,754.105,446.869,753.935,449.685z"/>
								<path fill="#2C42C4" d="M771.26,466.371c1.754,0.932,1.554,2.07,1.045,2.293l-1.399,1.266
									c-1.744-0.938-1.541-2.082-1.035-2.302L771.26,466.371z"/>
								<path fill="#2C42C4" d="M771.24,476.039c2.24,0.753,1.563,2.823,0.713,2.558
									C769.719,477.838,770.389,475.761,771.24,476.039z"/>
								<path fill="#2C42C4" d="M771.09,479.326c3.071,1.727,0.513,2.66,0.104,3.043c0.206,2.483-0.316,4.369-2.246,5.033
									C763.968,479.714,770.483,482.112,771.09,479.326z"/>
								<path fill="#2C42C4" d="M486.15,380.348c-0.292,2.77-0.974,6.002-1.834,8.271c-0.431,1.137-0.908,2.03-1.412,2.511
									c-0.599,0.508-1.242,0.603-1.854,0.093c0.233-1.438,0.567-2.691,0.979-3.813c0.319-1.091,0.69-2.037,1.12-2.884
									C484.004,382.837,485.052,381.55,486.15,380.348z"/>
								<path fill="#2C42C4" d="M535.562,634.792c0.464-0.502,1.444,3.478,2.343,6.883c1.477,4.662,2.779,8.214,4.281,13.813
									c0.379,0.729,0.76,1.499,1.142,2.318c0.453,0.81,0.932,1.667,1.397,2.584c0.94,1.833,1.895,3.898,2.863,6.276
									c1.25-1.803,3.741,2.805,5.782,3.794c0.824,1.974,1.679,4.581,2.525,7.106c0.866,2.523,1.635,4.982,2.636,6.578
									c1.554,0.851,3.302,2.506,5.067,4.095c0.887,0.793,1.763,1.573,2.646,2.223c1.03,0.607,2.042,1.093,3.011,1.339
									c1.369,0.354,2.708,0.464,4.027,0.428c0.661-0.021,1.317-0.072,1.973-0.149c0.937-0.146,2.021-0.363,3.024-0.573
									c2.042-0.449,4.093-0.901,6.146-1.354c1.025-0.221,2.059-0.432,3.097-0.617l0.78-0.136l0.391-0.063
									c0.146-0.023,0.127-0.008,0.199-0.012c0.202,0.005,0.406,0.021,0.613,0.041c1.273,0.149,2.546,0.299,3.811,0.448
									l0.474,0.058l0.237,0.029l0.118,0.014l0.03,0.006l0.015,0.002l0.008,0.001c-0.908,0.274,7.936-2.403,4.196-1.271
									l0.094-0.008l1.511-0.119c1.009-0.083,2.015-0.165,3.018-0.248c4.018-0.341,8.019-0.729,11.98-1.217
									c1.974-0.245,3.98-0.513,5.892-0.815c1.814-0.309,3.623-0.646,5.413-1.021c3.58-0.75,7.102-1.646,10.534-2.73
									c1.113-1.639,0.837-5.313,2.355-6.221c3.298-2.362,6.527-4.724,9.757-6.979c1.615-1.131,3.23-2.231,4.855-3.302
									c1.584-1.063,3.007-2.063,4.547-3.03c3.034-1.926,6.153-3.651,9.442-5.097c0.803-0.354,1.698-0.714,2.454-1.017
									c0.778-0.312,1.569-0.601,2.375-0.866c1.608-0.536,3.271-0.989,4.996-1.35c2.239-0.469,4.612-0.685,7.058-0.782l1.84-0.057
									l1.737,0.021l3.507,0.083c2.341,0.059,4.679,0.104,6.938,0.007c1.13-0.049,2.241-0.134,3.323-0.271
									c0.537-0.065,1.084-0.153,1.59-0.241c0.479-0.073,0.946-0.162,1.405-0.271c1.869-0.422,3.024-2.313,4.793-2.758
									c2.513-0.611,6.158,0.966,8.652,0.563c2.853-0.425,5.114-1.277,7.21-2.223c1.038-0.484,2.054-0.962,3.066-1.438l0.769-0.353
									l0.189-0.086l0.014-0.005l1.438-0.836l0.027-0.013l0.053-0.025l0.106-0.05l0.431-0.198c0.575-0.261,1.161-0.512,1.763-0.747
									c3.705-4.893,5.567-11.745,7.877-18.564c1.126-3.383,2.298-6.688,3.767-9.624c1.487-2.964,3.334-5.644,5.706-7.627
									c-0.131-3.709,0.736-6.255,1.5-8.908c0.773-2.68,1.476-5.521,0.902-9.689l2.62-1.696c-0.141-4.462,0.163-8.327,0.736-11.987
									c0.582-3.682,1.396-7.074,2.203-10.441c0.813-3.381,1.601-6.671,2.174-10.301c0.572-3.633,0.892-7.486,0.697-11.804
									c0.991-3.136,0.842-7.322,0.78-11.465c-0.057-4.156-0.041-8.176,1.313-10.857c-0.341-4.239,0.046-7.738,0.843-10.911
									c0.795-3.195,2.001-5.977,3.298-8.604c1.291-2.654,2.687-5.05,3.802-7.739c1.122-2.652,1.991-5.396,2.256-8.463
									c0.309-0.693-2.89-3.146-0.293,0.247c-3.211,3.021-5.227,7.532-7.158,12.176c-0.961,2.349-1.892,4.792-2.91,7.192
									c-0.51,1.196-1.042,2.396-1.61,3.546c-0.57,1.127-1.179,2.226-1.836,3.273c1.188,4.633-0.339,6.688-0.922,9.677
									c-0.606,2.236,1.438,10.074-2.156,7.531c0.009-1.238,0.832-1.656-2.979-6.712c-1.837-3.08-1.05-3.548-1.289-5.021
									c-0.935-3.406,0.545-4.397,0.813-6.582c-1.16-6.02,2.397-7.343,1.416-13.066c3.557-0.762,1.611-6.656,3.52-8.886
									c-0.715-2.162-3.701-6.387-2.766-7.003c3.075,0.754,1.855-2.127,2.2-4.884c2.101-2.627,3.796-5.588,5.58-8.433
									c0.446-0.714,0.902-1.411,1.365-2.112c0.458-0.715,0.93-1.416,1.422-2.099c0.987-1.364,2.063-2.646,3.302-3.801
									c-0.639-3.334,0.695-5.043,1.102-7.479c0.364-0.317,0.711-0.673,1.064-1.013c-2.491-2.545-2.136-0.968-2.707-0.741
									l-1.345,1.221l-1.344,1.218c-6.447,5.395-12.688,11.919-16.662,20.646c-3.037,2.069-5.787,5.712-8.446,9.68
									c-1.24,1.842-2.675,3.679-3.739,5.773c-1.011,1.985-1.035,5.269-1.407,7.971c-0.375,2.665-1.087,4.771-3.395,4.427
									c1.081-2.312-1.664-8.525-2.635-12.845c0.385-5.68-0.125-12.659-0.165-19.071c-0.009-3.188,0.063-6.317,0.443-9.078
									s1.063-5.161,2.247-6.997c0.625-0.979,2.768-0.613,2.92-2.329c0.172-1.906-1.57-6.286-3.026-10.002
									c0.516-2.201,0.909-4.485,1.2-6.832c0.146-1.174,0.266-2.363,0.358-3.566c0.08-1.22,0.126-2.462,0.154-3.71l2.88-2.603
									c-0.613-3.303-2.919-0.916-3.272-0.27c-1.199,1.068-2.362,2.176-3.593,3.214l-3.69,3.107
									c-2.472,2.063-4.886,4.188-7.446,6.15c-1.672-0.313-0.189,4.689-5.51-1.772c-0.375-3.513,1.683-4.631,3.699-5.822
									c1.974-1.224,3.938-2.493,3.299-6.089c-2.945-0.754-5.026-0.181-6.513,0.897c-1.473,1.086-2.444,2.597-2.982,3.813
									c-1.662,3.582-8.919-0.75-6.886,5.429c-0.433,0.712-1,1.192-2.966-0.786c-3.127-3.848-1.529,0.421-4.844-5.366
									c-4.498-5.904-3.584-6.256-2.885-6.825c0.745-0.679-1.271-4.121,0.675-3.558c-2.652-5.447,2.321-3.259-2.229-10.479
									c-1.843-0.607-7.038-6.733-9.227-8.007c-0.742,1.299-4.258-2.021-4.32,0.373c-4.457-2.543-6.306-0.701-10.974-3.808
									c-2.117-0.376-1.098,4.771-5.207,0.879c0.232-0.161,0.458-0.325,0.678-0.492c-0.089-0.875-2.019-2.742-1.853-1.606
									l-1.146,0.812c-1.81-0.553-5.988-8.049-6.51-7.154c-0.396,1.174-1.692,0.717-3.411-0.532
									c-1.08-0.086-1.311,1.396-5.699-4.782c-6.343-8.936-3.181-7.067-5.186-11.033c-1.159-3.142-3.088-7.108-3.463-9.308
									c-0.015-1.095,0.146-1.964,0.436-2.672c0.255-0.71,0.637-1.259,1.1-1.707c0.927-0.896,2.173-1.396,3.355-1.988
									c1.173-0.594,2.317-1.271,2.919-2.521c0.567-1.25,0.661-3.063-0.153-5.89c-1.249,0.397-2.514,0.771-3.787,1.118
									c-1.335,0.348-2.702,0.671-4.057,0.979c-2.747,0.622-5.34,1.193-8.2,1.78c-2.807,0.589-5.488,1.195-8.163,1.899
									c-2.743,0.708-5.366,1.515-7.813,2.491c-1.226,0.331-4.083-4.674-3.053-0.854c-7.068-4.863-2.105,9.917-8.712,5.624
									c-2.938-4.798-0.225-2.606-2.707-6.801c-1.898,2.535-3.769,5.684-5.49,9.19c-1.776,3.521-3.574,7.429-5.082,11.438
									c5.557,9.774,1.625-1.491,5.698,4.969c-0.576,1.552-1.171,3.004-1.753,4.417c-0.612,1.419-1.229,2.801-1.802,4.203
									c-1.146,2.805-2.147,5.692-2.818,9.168c-0.313-0.226-0.684-0.574-1.082-1.001l-0.309-0.333l-0.157-0.179l-0.079-0.09
									l-0.039-0.046l-0.021-0.021l-0.01-0.015l-0.006-0.005l-0.002-0.003l-0.001-0.002c0.434-0.253-0.972,0.564,0.971-0.565
									c-0.224-0.258-0.442-0.511-0.661-0.763c-0.895-1.046-1.822-2.179-2.609-2.965c-1.014,3.748-3.262,6.286-5.785,8.266
									c-0.633,0.494-1.279,0.954-1.933,1.392c-0.632,0.424-1.256,0.813-1.873,1.195c-1.231,0.763-2.417,1.467-3.437,2.193
									c-2.414-1.76-4.548-2.842-6.5-3.486c-0.978-0.321-1.906-0.536-2.807-0.673c-0.846-0.171-1.646-0.271-2.434-0.318
									c-3.138-0.199-5.938,0.377-9.197-0.2c-1.038,1.187-1.828,2.127-2.809,3.01c-0.956,0.86-1.989,1.563-3.175,1.979
									c-1.182,0.407-2.531,0.551-4.07,0.231c-1.458-0.396-3.134-1.213-5.089-2.59c-1.516,1.441-4.155-0.103-6.379-0.91
									c-2.065-0.979-3.687-1.236-3.585,3.077c-1.882-3.313-2.239-2.498-3.342-3.736c0.704,2.821,0.188,3.075-0.513,2.586
									c-0.68-0.51-1.614-1.678-1.948-1.52c-1.07,0.499-2.807,2.121-3.069,3.885c-0.096,0.601-1.245-1.954-1.39-2.032
									c-1.149-0.431-2.334-1.149-3.483-2.054c-0.576-0.45-1.146-0.946-1.702-1.473c-0.278-0.265-0.554-0.534-0.824-0.813
									l-0.051-0.052l-0.015-0.014l-0.007-0.008l-0.002-0.002c8.21-2.488,2.274-0.689,4.105-1.247l-0.007-0.003l-0.06-0.02
									l-0.225-0.077l-0.448-0.156c-0.298-0.104-0.594-0.214-0.888-0.317c-1.078-0.401-2.132-0.794-3.162-1.182l-0.771-0.289
									l-0.189-0.069c-0.049-0.028-0.173-0.034-0.104-0.102l0.167-0.312c0.226-0.413,0.451-0.815,0.685-1.206
									c0.463-0.782,0.94-1.52,1.438-2.195l0.375-0.497l0.188-0.237l-0.118-0.176c-0.152-0.22-0.303-0.437-0.451-0.648
									c-0.149-0.209,0.455,2.627,0.26,2.396c-0.024-0.088-0.15-0.506-0.316-1.056c-0.163-0.534-0.342-1.101-0.429-1.241
									c-0.129-0.214-0.237-0.369-0.336-0.476c-0.05-0.057-0.095-0.098-0.138-0.126c-0.035-0.032-0.079-0.056-0.182-0.058
									c-0.338-0.018-0.625,0.107-0.893,0.286c-0.527,0.356-0.977,0.927-1.563,0.987c-0.107,0.011-0.188-0.025-0.339-0.08
									c-0.169-0.052-0.346-0.134-0.522-0.232c-0.356-0.199-0.729-0.477-1.096-0.733c-0.733-0.521-1.442-0.979-1.968-0.662
									c-0.298,0.179-0.578,0.45-0.848,0.787c-0.134,0.169-0.265,0.354-0.394,0.553l-0.539,0.664
									c-0.725,0.932-1.41,2.021-2.1,3.056c-0.688,1.035-1.381,2.018-2.109,2.729c-0.186,0.179-0.368,0.34-0.559,0.479
									c-0.233,0.153-0.479,0.287-0.727,0.397c-0.492,0.221-0.999,0.348-1.527,0.354c-0.479,3.434-1.021,6.655-1.554,9.853
									c-0.258,1.598-0.516,3.196-0.771,4.791l-0.188,1.207l-0.25,1.232c-0.158,0.838-0.314,1.672-0.473,2.503
									c-1.209,6.732-1.977,14.032-1.599,23.261c1.938,8.594,5.445,20.538,5.787,25.755c4.925,13.459,6.968,24.796,11.521,41.663
									c3.032,7.046,5.955,14.41,8.801,22.604c0.722,7.449,3.831,16.635,5.74,25.775c0.646,0.331,2.049,6.051,2.95,9.16
									c1.024,3.555,2.001,4.811,2.311,9.316c0.729-0.654,1.604,0.303,2.714,4.354c0.779,0.12,1.552,0.142,2.837,6.766
									c-1.363-1.455-0.354,4.259-1.707,2.8c3.683,16.495,4.13,23.3,6.563,35.401C533.584,625.979,534.5,629.43,535.562,634.792z
									 M661.641,397.553c1.919,1.12,1.446,2.86,0.71,2.438C660.444,398.877,660.914,397.135,661.641,397.553z M756.808,530.135
									c4.534,5.631,1.782,3.94,1.55,4.79C756.687,532.158,756.424,530.815,756.808,530.135z"/>
							</g>
						</g>
					</g>
				</g>
			</g>
		</g>
		<g>
			<g>
				<g>
					<defs>
						<circle id="SVGID_6_" cx="798.892" cy="377.83" r="210.5"/>
					</defs>
					<clipPath id="SVGID_7_">
						<use xlink:href="#SVGID_6_"  overflow="visible"/>
					</clipPath>
					<g display="none" clip-path="url(#SVGID_7_)">
						<g display="inline">
							<g>
								<path fill="#2C42C4" d="M847.156-53.779c5.709,3.377,1.272,2.229,5.435,4.915c-2.834,2.013-0.657,8.173-9.103,5.552
									C839.397-50.128,849.51-49.066,847.156-53.779z"/>
								<path fill="#2C42C4" d="M813.029-53.996c1.86,0.6,2.042,1.598,1.646,1.842l-0.693,0.988
									c-1.837-0.608-2.014-1.619-1.632-1.854L813.029-53.996z"/>
								<path fill="#2C42C4" d="M836.895-37.878c2.349,1.517,3.499,2.46,3.771,2.993c0.808,2.851,0.236,5.608-1.656,7.23
									c-1.91,1.48-5.141,1.792-9.646,0.04c-1.929-4.18-0.579-5.535,1.529-6.517C832.97-35.147,835.866-35.727,836.895-37.878z"/>
								<path fill="#2C42C4" d="M854.908-21.747c2.402,0.075,2.169,2.419,1.252,2.4l-1.194,1.701
									c-2.374-0.106-2.132-2.452-1.234-2.419L854.908-21.747z"/>
								<path fill="#2C42C4" d="M850.375-19.476c1.942,0.482,1.938,1.773,1.469,2.054c-1.612,2.688-3.197,5.565-4.499,8.476
									c-0.65,1.452-1.23,2.917-1.709,4.366c-0.518,1.404-0.927,2.801-1.193,4.167l-1.492,1.737l-0.75,0.869
									c-1.754-1.525-1.107-1.57-1.325-2.146l1.234-1.436c-0.984-2.195,1.165-2.498-1.482-5.651
									c2.791-1.191,3.455-4.04,4.339-6.614C845.836-16.271,846.854-18.644,850.375-19.476z"/>
								<path fill="#2C42C4" d="M821.245-21.294c2.925,2.067,4.529,2.643,4.815,1.752c2.617,5.527-3.716,5.583-4.574,9
									c-3.808-1.386,1.035-3.744-2.919-3.972c-2.044-4.196-1.227-6.438,0.37-8.214c0.785-0.897,1.813-1.635,2.671-2.502
									c0.866-0.86,1.653-1.774,2.076-2.896c3.996,2.104-0.124,2.794-0.022,3.936C822.905-23.182,822.059-22.253,821.245-21.294z"
									/>
								<path fill="#2C42C4" d="M820.107-8.945c3.883,2.707,0.994,2.316,0.831,2.648c-0.762,1.726-3.805,3.359-4.839,5.141
									c-3.824-3.829,1.588-1.156-4.041-6.221c4.354,3.101,4.803,2.62,1.418-1.505C817.653-6.433,819.561-6.883,820.107-8.945z"/>
								<path fill="#2C42C4" d="M797.269,20.353c-4.996-6.384-1.494-4.691-0.876-5.687c0.883-1.437,2.397-2.567,3.966-3.711
									c1.579-1.124,3.121-2.386,4.162-3.862c0.139,3.484-1.583,5.479-3.417,7.172C799.287,15.99,797.438,17.536,797.269,20.353z"
									/>
								<path fill="#2C42C4" d="M814.594,37.038c1.754,0.929,1.554,2.071,1.045,2.293l-1.399,1.264
									c-1.744-0.938-1.541-2.082-1.033-2.303L814.594,37.038z"/>
								<path fill="#2C42C4" d="M814.573,46.706c2.24,0.752,1.563,2.823,0.714,2.557C813.052,48.503,813.722,46.427,814.573,46.706z
									"/>
								<path fill="#2C42C4" d="M814.424,49.993c3.071,1.724,0.513,2.661,0.104,3.043c0.206,2.484-0.316,4.37-2.246,5.033
									C807.301,50.38,813.816,52.78,814.424,49.993z"/>
								<path fill="#2C42C4" d="M529.483-48.985c-0.292,2.77-0.974,6.002-1.834,8.271c-0.431,1.136-0.908,2.031-1.412,2.509
									c-0.599,0.508-1.242,0.604-1.854,0.094c0.233-1.437,0.567-2.691,0.979-3.812c0.319-1.091,0.69-2.037,1.12-2.884
									C527.338-46.498,528.386-47.786,529.483-48.985z"/>
								<path fill="#2C42C4" d="M578.896,205.459c0.464-0.501,1.444,3.478,2.343,6.88c1.477,4.664,2.779,8.216,4.281,13.817
									c0.379,0.729,0.76,1.499,1.142,2.318c0.453,0.81,0.932,1.667,1.397,2.584c0.94,1.833,1.895,3.899,2.863,6.274
									c1.25-1.801,3.741,2.806,5.782,3.794c0.824,1.975,1.679,4.583,2.525,7.109c0.866,2.521,1.635,4.98,2.636,6.578
									c1.554,0.85,3.302,2.505,5.067,4.094c0.887,0.793,1.763,1.574,2.646,2.221c1.03,0.609,2.046,1.094,3.011,1.341
									c1.369,0.354,2.708,0.463,4.027,0.427c0.661-0.021,1.317-0.072,1.973-0.149c0.938-0.148,2.021-0.366,3.024-0.575
									c2.042-0.449,4.093-0.9,6.146-1.354c1.025-0.222,2.059-0.432,3.097-0.617l0.78-0.135l0.391-0.064
									c0.146-0.022,0.127-0.006,0.199-0.011c0.202,0.005,0.406,0.018,0.613,0.041c1.273,0.149,2.547,0.3,3.811,0.448l0.474,0.058
									l0.237,0.029l0.118,0.015l0.03,0.003l0.015,0.002l0.007,0.001c-0.909,0.277,7.936-2.401,4.196-1.27l0.094-0.007l1.51-0.119
									c1.01-0.083,2.016-0.166,3.019-0.248c4.018-0.341,8.019-0.729,11.981-1.217c1.973-0.245,3.98-0.514,5.891-0.814
									c1.814-0.31,3.623-0.646,5.413-1.021c3.581-0.75,7.102-1.646,10.533-2.73c1.113-1.639,0.837-5.314,2.355-6.221
									c3.298-2.362,6.527-4.723,9.757-6.98c1.615-1.129,3.23-2.23,4.855-3.301c1.583-1.063,3.007-2.063,4.546-3.03
									c3.035-1.926,6.153-3.651,9.442-5.096c0.803-0.354,1.698-0.713,2.455-1.017c0.777-0.312,1.569-0.601,2.375-0.866
									c1.607-0.537,3.271-0.99,4.995-1.35c2.239-0.469,4.613-0.685,7.058-0.782l1.839-0.057l1.738,0.021l3.507,0.083
									c2.341,0.06,4.678,0.104,6.938,0.007c1.13-0.049,2.241-0.134,3.323-0.271c0.537-0.065,1.084-0.154,1.59-0.241
									c0.479-0.074,0.946-0.163,1.405-0.271c1.869-0.422,3.023-2.313,4.793-2.757c2.513-0.61,6.156,0.965,8.652,0.563
									c2.854-0.424,5.112-1.277,7.209-2.223c1.039-0.483,2.055-0.962,3.067-1.437l0.769-0.352l0.189-0.087l0.014-0.005
									l1.438-0.836l0.026-0.013l0.054-0.025l0.106-0.05l0.431-0.198c0.575-0.261,1.161-0.512,1.763-0.748
									c3.705-4.892,5.567-11.743,7.877-18.564c1.125-3.382,2.296-6.688,3.766-9.623c1.487-2.964,3.334-5.643,5.706-7.627
									c-0.133-3.709,0.736-6.253,1.5-8.908c0.774-2.678,1.476-5.521,0.901-9.688l2.621-1.698
									c-0.139-4.463,0.163-8.328,0.736-11.988c0.582-3.681,1.395-7.074,2.203-10.441c0.813-3.381,1.602-6.671,2.174-10.301
									c0.572-3.633,0.892-7.485,0.697-11.804c0.989-3.136,0.842-7.322,0.78-11.463c-0.057-4.158-0.039-8.175,1.313-10.859
									c-0.341-4.238,0.046-7.736,0.843-10.911c0.795-3.193,2.001-5.977,3.296-8.604c1.29-2.656,2.688-5.048,3.803-7.741
									c1.123-2.652,1.99-5.396,2.259-8.462c0.307-0.693-2.892-3.146-0.294,0.248c-3.212,3.021-5.227,7.533-7.159,12.175
									c-0.961,2.351-1.892,4.792-2.909,7.192c-0.511,1.196-1.042,2.396-1.611,3.546c-0.568,1.127-1.178,2.225-1.836,3.273
									c1.188,4.635-0.338,6.688-0.921,9.679c-0.606,2.235,1.438,10.072-2.157,7.529c0.01-1.237,0.834-1.655-2.977-6.712
									c-1.836-3.08-1.052-3.548-1.289-5.021c-0.935-3.407,0.546-4.398,0.813-6.582c-1.157-6.02,2.398-7.341,1.416-13.067
									c3.559-0.762,1.612-6.654,3.521-8.886c-0.715-2.162-3.701-6.387-2.766-7.003c3.075,0.754,1.854-2.127,2.2-4.883
									c2.101-2.625,3.793-5.586,5.58-8.433c0.445-0.714,0.901-1.409,1.364-2.109c0.457-0.716,0.929-1.417,1.423-2.102
									c0.987-1.361,2.063-2.646,3.301-3.8c-0.638-3.334,0.695-5.043,1.103-7.479c0.363-0.319,0.712-0.675,1.063-1.015
									c-2.491-2.544-2.136-0.967-2.706-0.74l-1.346,1.219l-1.344,1.218c-6.448,5.395-12.688,11.919-16.662,20.646
									c-3.037,2.069-5.787,5.714-8.446,9.679c-1.241,1.842-2.675,3.679-3.739,5.774c-1.011,1.986-1.035,5.27-1.406,7.973
									c-0.375,2.666-1.088,4.771-3.396,4.424c1.082-2.312-1.666-8.525-2.635-12.842c0.385-5.682-0.125-12.662-0.165-19.073
									c-0.009-3.188,0.064-6.317,0.443-9.078c0.38-2.761,1.063-5.162,2.246-6.998c0.627-0.978,2.769-0.613,2.921-2.329
									c0.172-1.906-1.57-6.286-3.026-10.001c0.516-2.201,0.909-4.485,1.2-6.833c0.146-1.173,0.266-2.363,0.358-3.563
									c0.079-1.222,0.127-2.464,0.153-3.71l2.881-2.604c-0.612-3.302-2.918-0.917-3.271-0.268c-1.2,1.066-2.362,2.175-3.592,3.211
									l-3.691,3.107c-2.472,2.063-4.886,4.188-7.447,6.15c-1.67-0.313-0.188,4.692-5.509-1.771
									c-0.375-3.513,1.684-4.632,3.699-5.821c1.974-1.226,3.938-2.494,3.299-6.089c-2.948-0.756-5.027-0.183-6.513,0.896
									c-1.475,1.086-2.444,2.597-2.982,3.813c-1.662,3.583-8.919-0.75-6.886,5.427c-0.432,0.711-1,1.192-2.966-0.786
									c-3.127-3.845-1.529,0.421-4.843-5.367c-4.497-5.904-3.584-6.255-2.886-6.825c0.745-0.679-1.271-4.121,0.675-3.557
									c-2.652-5.448,2.321-3.258-2.229-10.477c-1.843-0.609-7.038-6.735-9.226-8.008c-0.743,1.3-4.259-2.021-4.32,0.372
									c-4.457-2.542-6.305-0.701-10.974-3.807c-2.117-0.376-1.098,4.771-5.206,0.879c0.231-0.161,0.458-0.326,0.678-0.493
									c-0.089-0.875-2.019-2.742-1.854-1.604l-1.146,0.81c-1.811-0.552-5.988-8.049-6.51-7.155
									c-0.396,1.176-1.692,0.719-3.411-0.53c-1.079-0.086-1.311,1.394-5.699-4.783c-6.343-8.937-3.181-7.069-5.185-11.034
									c-1.159-3.14-3.091-7.108-3.466-9.306c-0.013-1.096,0.149-1.964,0.438-2.672c0.255-0.71,0.637-1.26,1.1-1.707
									c0.926-0.896,2.174-1.397,3.355-1.989c1.173-0.593,2.315-1.273,2.919-2.521c0.565-1.25,0.661-3.062-0.153-5.89
									c-1.249,0.399-2.514,0.77-3.787,1.119c-1.334,0.346-2.703,0.669-4.056,0.979c-2.747,0.622-5.34,1.194-8.2,1.78
									c-2.808,0.588-5.488,1.196-8.163,1.901c-2.743,0.708-5.366,1.513-7.813,2.49c-1.227,0.331-4.083-4.674-3.054-0.854
									c-7.068-4.863-2.105,9.918-8.712,5.625c-2.938-4.797-0.225-2.607-2.706-6.799c-1.899,2.535-3.77,5.682-5.491,9.188
									c-1.776,3.521-3.574,7.43-5.081,11.438c5.556,9.774,1.625-1.492,5.697,4.968c-0.578,1.552-1.172,3.004-1.753,4.417
									c-0.611,1.419-1.229,2.802-1.803,4.204c-1.146,2.805-2.147,5.694-2.818,9.168c-0.313-0.224-0.683-0.574-1.083-1.001
									c-0.213-0.235-0.42-0.464-0.623-0.69c1.939-1.131,0.537-0.313,0.972-0.564l-0.001-0.001l-0.002-0.004l-0.005-0.006
									l-0.013-0.013l-0.021-0.021l-0.041-0.047l-0.082-0.095l-0.165-0.188l-0.333-0.388c-0.895-1.048-1.823-2.181-2.61-2.966
									c-1.014,3.748-3.262,6.286-5.785,8.268c-0.633,0.494-1.279,0.954-1.932,1.39c-0.632,0.423-1.256,0.814-1.874,1.196
									c-1.23,0.761-2.417,1.465-3.436,2.194c-2.415-1.761-4.549-2.844-6.5-3.486c-0.979-0.323-1.907-0.537-2.807-0.671
									c-0.847-0.173-1.646-0.273-2.434-0.321c-3.137-0.199-5.938,0.376-9.197-0.201c-1.038,1.188-1.828,2.127-2.809,3.011
									c-0.956,0.86-1.989,1.563-3.174,1.979c-1.183,0.408-2.532,0.549-4.071,0.233c-1.458-0.396-3.134-1.215-5.089-2.592
									c-1.516,1.442-4.155-0.101-6.378-0.909c-2.066-0.979-3.688-1.236-3.585,3.075c-1.882-3.313-2.239-2.498-3.342-3.734
									c0.703,2.819,0.187,3.075-0.514,2.587c-0.679-0.511-1.614-1.679-1.948-1.521c-1.069,0.5-2.807,2.121-3.068,3.887
									c-0.097,0.6-1.246-1.955-1.391-2.031c-1.15-0.434-2.334-1.152-3.483-2.056c-0.576-0.45-1.146-0.944-1.702-1.474
									c-0.278-0.263-0.554-0.534-0.824-0.812l-0.051-0.054l-0.014-0.013l-0.007-0.007l-0.003-0.001
									c8.21-2.491,2.274-0.691,4.105-1.247l-0.007-0.002l-0.06-0.021l-0.225-0.075l-0.448-0.155
									c-0.298-0.107-0.594-0.215-0.887-0.319c-1.079-0.4-2.132-0.795-3.162-1.179l-0.771-0.29l-0.189-0.072
									c-0.049-0.026-0.173-0.033-0.104-0.099l0.168-0.313c0.225-0.413,0.45-0.813,0.684-1.207c0.463-0.78,0.941-1.518,1.438-2.193
									l0.374-0.496l0.188-0.239l-0.118-0.174c-0.152-0.22-0.302-0.438-0.451-0.651c-0.149-0.209,0.454,2.627,0.26,2.398
									c-0.024-0.089-0.15-0.506-0.316-1.059c-0.163-0.532-0.341-1.1-0.428-1.239c-0.128-0.214-0.238-0.368-0.337-0.478
									c-0.05-0.054-0.095-0.095-0.138-0.126c-0.035-0.032-0.079-0.052-0.182-0.054c-0.338-0.021-0.625,0.104-0.892,0.286
									c-0.528,0.354-0.977,0.925-1.564,0.984c-0.108,0.014-0.188-0.022-0.339-0.078c-0.169-0.054-0.345-0.136-0.523-0.233
									c-0.356-0.2-0.729-0.478-1.096-0.734c-0.733-0.52-1.442-0.979-1.967-0.662c-0.298,0.18-0.578,0.449-0.849,0.787
									c-0.134,0.169-0.265,0.354-0.393,0.555l-0.54,0.664c-0.724,0.933-1.41,2.021-2.099,3.057
									c-0.689,1.034-1.381,2.014-2.11,2.727c-0.183,0.18-0.368,0.34-0.558,0.48c-0.234,0.149-0.48,0.286-0.728,0.396
									c-0.492,0.223-0.999,0.35-1.526,0.355c-0.479,3.431-1.022,6.655-1.555,9.851c-0.258,1.599-0.516,3.196-0.771,4.79
									l-0.188,1.208l-0.25,1.236c-0.158,0.836-0.314,1.671-0.473,2.501c-1.209,6.731-1.976,14.033-1.598,23.259
									c1.937,8.593,5.444,20.538,5.786,25.754c4.926,13.459,6.97,24.796,11.521,41.663c3.033,7.046,5.955,14.411,8.801,22.604
									c0.724,7.447,3.831,16.636,5.74,25.773c0.646,0.332,2.049,6.054,2.951,9.161c1.023,3.555,2.001,4.813,2.31,9.319
									c0.729-0.656,1.604,0.302,2.714,4.351c0.779,0.121,1.554,0.144,2.837,6.769c-1.362-1.455-0.354,4.26-1.706,2.801
									c3.683,16.494,4.13,23.299,6.563,35.398C576.92,196.647,577.834,200.098,578.896,205.459z M704.975-31.781
									c1.919,1.118,1.445,2.862,0.709,2.438C703.777-30.457,704.248-32.2,704.975-31.781z M800.141,100.802
									c4.534,5.632,1.782,3.942,1.551,4.788C800.021,102.825,799.757,101.482,800.141,100.802z"/>
							</g>
						</g>
					</g>
				</g>
			</g>
		</g>
		<g>
			<g>
				<g>
					<defs>
						<circle id="SVGID_8_" cx="798.892" cy="377.83" r="210.5"/>
					</defs>
					<clipPath id="SVGID_9_">
						<use xlink:href="#SVGID_8_"  overflow="visible"/>
					</clipPath>
					<g display="none" clip-path="url(#SVGID_9_)">
						<g display="inline">
							<g>
								<path fill="#2C42C4" d="M1208.375,425.097c2.895,1.629,0.313,1.635,2.37,3.016c-2.262,2.367-2.251,7.186-7.059,6.817
									C1202.599,429.977,1208.822,428.63,1208.375,425.097z"/>
								<path fill="#2C42C4" d="M1186.334,432.704c1.103,0.057,0.967,0.878,0.636,1.189l-0.726,1.032
									c-1.09-0.063-0.951-0.894-0.629-1.197L1186.334,432.704z"/>
								<path fill="#2C42C4" d="M1198.265,440.763c1.188,0.733,1.729,1.26,1.791,1.632c-0.084,2.12-1.005,4.41-2.563,6.092
									c-1.603,1.582-3.842,2.531-6.487,2.166c-0.354-2.884,0.916-4.293,2.537-5.553
									C1195.134,443.806,1197.136,442.719,1198.265,440.763z"/>
								<path fill="#2C42C4" d="M1206.519,449.904c1.501-0.39,0.918,1.448,0.345,1.604l-1.066,1.521
									c-1.485,0.374-0.897-1.465-0.335-1.613L1206.519,449.904z"/>
								<path fill="#2C42C4" d="M1203.219,452.517c1.14-0.005,0.919,0.975,0.537,1.29c-1.64,2.409-3.292,4.954-4.762,7.455
									c-0.73,1.251-1.42,2.49-2.032,3.697c-0.654,1.162-1.234,2.299-1.715,3.379l-1.388,1.612l-0.692,0.811
									c-0.875-0.769-0.427-0.938-0.448-1.32l1.149-1.34c-0.194-1.44,1.334-2.122,0.225-3.944c2.166-1.497,3.162-3.836,4.307-6.007
									C1199.529,455.949,1200.742,453.879,1203.219,452.517z"/>
								<path fill="#2C42C4" d="M1183.975,457.526c1.553,0.929,2.533,1.008,2.942,0.255c0.521,3.677-3.893,5.152-5.283,7.98
									c-2.36-0.162,1.588-3.115-1.142-2.358c-0.464-2.746,0.656-4.691,2.206-6.455c0.766-0.89,1.683-1.688,2.467-2.589
									c0.793-0.892,1.541-1.805,2.092-2.799c2.242,0.735-0.729,2.249-0.919,3.131
									C1185.601,455.68,1184.771,456.591,1183.975,457.526z"/>
								<path fill="#2C42C4" d="M1180.303,467.307c2.121,1.149,0.175,1.524-0.028,1.81c-0.949,1.465-3.512,3.389-4.67,4.956
									c-1.865-1.964,1.411-1.23-1.458-3.706c2.413,1.298,2.841,0.847,1.385-1.47
									C1177.959,469.759,1179.435,468.995,1180.303,467.307z"/>
								<path fill="#2C42C4" d="M1156.635,494.052c-2.323-3.354-0.043-2.982,0.655-3.832c1.012-1.232,2.432-2.398,3.893-3.58
									c1.473-1.165,2.886-2.47,4.013-3.786C1163.806,487.942,1158.151,489.969,1156.635,494.052z"/>
								<path fill="#2C42C4" d="M1165.904,501.844c1.102,0.264,0.703,1.102,0.278,1.364l-1.312,1.184
									c-1.094-0.271-0.694-1.106-0.271-1.37L1165.904,501.844z"/>
								<path fill="#2C42C4" d="M1163.816,508.534c1.518,0.041,0.559,1.603-0.021,1.598
									C1162.281,510.087,1163.236,508.525,1163.816,508.534z"/>
								<path fill="#2C42C4" d="M1162.987,510.812c1.938,0.524-0.187,1.703-0.575,2.05c-0.377,1.646-1.166,3.032-2.754,3.893
									C1157.529,512.603,1161.939,512.833,1162.987,510.812z"/>
								<path fill="#2C42C4" d="M913.942,518.366c-0.394,1.438-1.132,3.133-1.959,4.352c-0.414,0.605-0.852,1.097-1.284,1.372
									c-0.479,0.295-0.963,0.38-1.396,0.15c0.254-0.748,0.571-1.411,0.937-2.007c0.319-0.579,0.676-1.086,1.068-1.546
									C912.094,519.767,913.006,519.048,913.942,518.366z"/>
								<path fill="#2C42C4" d="M937.2,645.885c0.636-0.333,1.228,1.635,1.814,3.309c1.106,2.257,2.206,3.94,3.266,6.68
									c0.377,0.325,0.753,0.675,1.126,1.047c0.409,0.369,0.826,0.766,1.236,1.188c0.821,0.853,1.633,1.821,2.432,2.949
									c1.694-1.104,3.575,1.082,5.475,1.413c0.619,0.946,1.215,2.222,1.812,3.453c0.604,1.229,1.167,2.426,1.897,3.179
									c1.271,0.329,2.649,1.059,4.049,1.754c0.7,0.348,1.396,0.688,2.095,0.96c0.772,0.25,1.536,0.438,2.275,0.506
									c1.049,0.103,2.088,0.075,3.12-0.021c0.517-0.049,1.028-0.115,1.545-0.193c0.652-0.119,1.386-0.271,2.072-0.424
									c1.396-0.316,2.795-0.635,4.196-0.952l2.112-0.446l0.531-0.103c0.183-0.034,0.369-0.069,0.435-0.073l0.585-0.06
									c1.208-0.089,2.409-0.177,3.605-0.267l0.446-0.029l0.227-0.019l0.109-0.008l0.028-0.002l0.016-0.001h0.008l2.096-0.635
									l0.072-0.016l1.17-0.205c0.776-0.138,1.557-0.273,2.333-0.413c3.104-0.558,6.192-1.134,9.259-1.758
									c1.523-0.313,3.07-0.63,4.559-0.979c1.438-0.371,2.862-0.757,4.281-1.159c2.837-0.806,5.639-1.681,8.393-2.651
									c1.045-1.021,1.243-2.984,2.539-3.681c11.613-6.968,22.002-13.909,33.471-17.885c1.884-0.646,3.833-1.165,5.813-1.626
									l2.923-0.646l2.88-0.593c1.922-0.392,3.838-0.79,5.717-1.26c0.938-0.234,1.865-0.487,2.779-0.769l1.354-0.437
									c0.425-0.146,0.845-0.295,1.26-0.454c1.688-0.646,3.065-2.051,4.672-2.688c2.286-0.898,5.063-0.656,7.313-1.438
									c2.589-0.883,4.753-1.906,6.79-2.949c1.015-0.526,2.006-1.046,2.996-1.563l0.745-0.386l0.188-0.097l0.763-0.438l0.049-0.026
									l0.102-0.052l0.396-0.206c0.533-0.271,1.068-0.536,1.61-0.809c4.019-3.736,6.969-8.348,10.138-12.995
									c1.572-2.307,3.173-4.573,4.949-6.679c1.784-2.119,3.765-4.13,6.063-5.813c0.605-2.274,1.803-4.022,2.934-5.819
									c1.135-1.813,2.216-3.716,2.562-6.207l2.412-1.563c0.741-2.761,1.753-5.238,2.907-7.648c1.156-2.424,2.447-4.719,3.74-7.001
									c1.287-2.294,2.582-4.524,3.727-6.943c1.146-2.425,2.143-4.942,2.846-7.671c1.389-2.202,2.129-4.854,2.903-7.521
									c0.771-2.677,1.592-5.288,3.181-7.313c0.596-2.693,1.635-5.057,2.893-7.311c1.25-2.271,2.738-4.362,4.271-6.376
									c3.084-3.969,6.252-7.871,7.945-12.142c0.378-0.534-1.498-1.527-0.271,0.229c-3.048,2.722-5.47,6.206-7.942,9.688
									c-1.229,1.776-2.463,3.567-3.713,5.381c-0.639,0.896-1.282,1.803-1.955,2.679c-0.682,0.856-1.379,1.701-2.106,2.523
									c-0.04,2.79-1.641,4.438-2.694,6.506c-0.934,1.582-0.889,6.245-3.192,5.317c0.26-0.801,0.991-1.234-0.953-3.732
									c-0.806-1.62-0.103-2.089,0.015-3c-0.031-2.026,1.323-2.982,1.983-4.469c0.344-3.703,3.416-5.311,3.856-8.896
									c2.895-1.264,2.64-4.776,4.591-6.681c-0.085-1.296-1.473-3.493-0.609-4.111c2.209-0.153,1.904-1.827,2.756-3.785
									c2.165-2.253,4.102-4.648,6.091-6.996c1.001-1.17,2.006-2.344,3.021-3.528c1.034-1.17,2.118-2.308,3.292-3.387
									c0.265-2.192,1.644-3.69,2.498-5.5c0.347-0.304,0.674-0.638,1.007-0.959c-1.271-1.253-1.345-0.199-1.828,0.082l-1.28,1.159
									l-1.279,1.158c-6.003,5.265-12.271,11.206-17.285,18.018c-2.838,2.065-5.771,5.153-8.741,8.383
									c-1.395,1.496-2.936,3.028-4.236,4.651c-1.232,1.536-1.959,3.712-2.832,5.568c-0.884,1.825-1.904,3.351-3.683,3.616
									c1.363-1.735,0.511-5.214,0.688-7.843c1.538-3.84,2.685-8.376,4.13-12.674c0.732-2.132,1.5-4.279,2.438-6.254
									c0.94-1.974,2.049-3.78,3.428-5.318c0.729-0.82,2.354-1.062,2.871-2.289c0.578-1.367,0.242-4.01-0.008-6.271
									c0.938-1.676,1.812-3.386,2.624-5.122c0.407-0.868,0.8-1.743,1.179-2.624c0.364-0.896,0.706-1.812,1.039-2.724l2.9-2.62
									c0.356-2.255-2.046,0.07-2.488,0.637c-1.212,1.079-2.39,2.197-3.63,3.245l-3.729,3.14c-2.495,2.082-4.936,4.229-7.519,6.208
									c-1.281,0.197-1.316,3.313-4.041,0.134c0.572-2.36,2.549-3.659,4.49-5.007c1.901-1.386,3.801-2.791,4.216-5.206
									c-2.183,0.219-4.021,1.177-5.5,2.34c-1.475,1.172-2.677,2.459-3.427,3.459c-2.271,2.926-7.168,1.773-7.052,5.557
									c-0.54,0.597-1.134,1.069-2.271,0.193c-1.637-1.869-1.39,0.676-2.688-2.485c-2.261-2.943-1.396-3.425-0.651-4.001
									c0.81-0.659,0.017-2.555,1.506-2.683c-0.786-3.15,2.814-2.938,0.941-6.864c-1.392,0.065-4.115-2.896-5.642-3.189
									c-1.003,1.147-3.104-0.238-3.834,1.511c-3.152-0.577-5.282,1.237-8.51,0.354c-1.767,0.335-2.295,3.694-4.844,2.103
									c0.252-0.175,0.495-0.354,0.735-0.534c0.167-0.598-1.02-1.361-1.188-0.607l-1.242,0.878
									c-1.452,0.111-3.07-3.971-3.791-3.198c-0.688,0.935-1.719,0.978-2.91,0.587c-0.947,0.245-1.568,1.345-3.787-1.729
									c-3.202-4.445-0.854-4.057-1.521-6.274c-0.137-1.885-0.719-4.14-0.395-5.601c0.322-0.779,0.739-1.451,1.224-2.048
									c0.465-0.604,0.994-1.133,1.569-1.613c1.149-0.961,2.476-1.732,3.765-2.551c1.284-0.82,2.563-1.674,3.534-2.815
									c0.951-1.15,1.648-2.571,1.862-4.477c-10.544,5.935-22.229,10.598-32.772,16.216c-1.25,0.594-2.489-2.027-2.619,0.298
									c-5.236-1.334-4.786,7.393-9.729,6.283c-1.426-2.429,0.495-1.684-0.659-3.837c-2.47,2.224-5.057,4.826-7.597,7.635
									c-2.572,2.803-5.198,5.793-7.6,8.802c2.638,4.979,1.864-1.386,3.974,1.805c-0.918,1.157-1.822,2.255-2.705,3.318
									c-0.903,1.071-1.782,2.114-2.646,3.141c-1.713,2.078-3.309,4.176-4.735,6.563c-0.229-0.066-0.479-0.205-0.74-0.382
									l-0.196-0.142l-0.102-0.074l-0.051-0.038l-0.024-0.021l-0.013-0.011l-0.007-0.005l-0.003-0.003l-0.002-0.001l-0.002-0.001
									c-0.104,0.063,0.922-0.537,0.484-0.284l-0.414-0.332c-0.556-0.46-1.123-0.967-1.643-1.287
									c-3.396,5.124-10.09,8.309-14.33,11.029c-1.756-0.563-3.415-0.765-5.011-0.729c-0.799,0.02-1.581,0.094-2.354,0.211
									c-0.746,0.099-1.477,0.229-2.199,0.395c-2.896,0.646-5.676,1.711-8.607,2.154c-1.236,1.006-2.354,1.852-3.55,2.678
									c-1.188,0.813-2.405,1.542-3.699,2.128c-1.292,0.582-2.668,1.033-4.146,1.253c-1.443,0.164-3.006,0.121-4.719-0.195
									c-2.066,1.387-4.486,1.17-6.697,1.32c-2.148,0.027-4.078,0.417-5.367,3.195c-1.2-1.537-1.912-0.883-2.86-1.316
									c-0.067,1.604-0.737,1.931-1.492,1.857c-0.747-0.088-1.605-0.511-2.144-0.278c-1.717,0.734-4.795,2.456-5.782,3.689
									c-0.334,0.42-1.072-0.791-1.306-0.776c-1.785,0.209-3.523,0.253-5.187,0.183c-0.83-0.033-1.641-0.098-2.429-0.182
									c-0.396-0.048-0.783-0.095-1.165-0.142l-0.071-0.012l-0.018-0.003l-0.009-0.001h-0.004c4.094-1.241,1.134-0.345,2.045-0.622
									h-0.007l-0.053-0.003l-0.206-0.012l-0.409-0.024c-0.271-0.019-0.543-0.035-0.813-0.055
									c-0.982-0.073-1.944-0.146-2.885-0.215l-0.701-0.056c-0.1-0.017-0.275-0.004-0.305-0.041l-0.075-0.117
									c-0.095-0.151-0.188-0.303-0.28-0.45c-0.166-0.273-0.327-0.542-0.484-0.805l-0.104-0.179l-0.053-0.085l-0.204-0.056
									c-0.271-0.068-0.537-0.137-0.803-0.203c-0.276-0.063,0.007,1.36-0.353,1.302c-0.043-0.011-0.558-0.948-0.854-1.046
									c-0.457-0.146-0.794-0.186-1.198-0.145c-0.439,0.043-0.834,0.154-1.21,0.291c-0.75,0.271-1.422,0.645-2.201,0.77
									c-0.239,0.038-0.568,0.004-0.922-0.063c-0.344-0.069-0.695-0.177-1.042-0.274c-0.693-0.199-1.37-0.369-1.936-0.152
									c-0.316,0.118-0.631,0.286-0.936,0.486c-0.152,0.103-0.303,0.209-0.452,0.324l-0.524,0.38
									c-0.7,0.529-1.386,1.141-2.065,1.722c-0.685,0.581-1.362,1.137-2.062,1.556c-0.175,0.104-0.351,0.2-0.524,0.287
									c-0.2,0.093-0.405,0.177-0.609,0.249c-0.409,0.145-0.825,0.238-1.251,0.275c-0.599,1.788-1.24,3.479-1.88,5.15
									c-0.635,1.672-1.249,3.319-1.954,5.104c-1.331,3.534-2.396,7.342-2.75,12.078c0.916,4.312,2.858,10.238,2.733,12.914
									c2.985,6.608,3.792,12.328,6.237,20.722c2.026,3.406,3.979,6.979,5.841,10.976c-0.054,3.816,1.963,8.307,2.869,12.887
									c0.606,0.104,1.385,2.942,1.954,4.471c0.649,1.742,1.509,2.302,1.314,4.623c0.826-0.422,1.617-0.016,2.321,1.979
									c0.799-0.023,1.603-0.099,2.222,3.219c-1.277-0.604-0.866,2.271-2.139,1.663c1.953,8.226,1.609,11.737,2.638,17.835
									C936.175,641.482,936.717,643.195,937.2,645.885z M1094.073,481.06c1.386,0.259,0.485,1.6-0.047,1.504
									C1092.647,482.307,1093.549,480.969,1094.073,481.06z M1141.523,547.445c2.401,2.722,0.592,2.187,0.239,2.773
									C1141.015,548.774,1141.08,547.966,1141.523,547.445z"/>
							</g>
						</g>
					</g>
				</g>
			</g>
		</g>
		<g>
			<g>
				<g>
					<defs>
						<circle id="SVGID_10_" cx="798.892" cy="377.83" r="210.5"/>
					</defs>
					<clipPath id="SVGID_11_">
						<use xlink:href="#SVGID_10_"  overflow="visible"/>
					</clipPath>
					<path clip-path="url(#SVGID_11_)" fill="#2C42C4" d="M717.166,574.088c-4-9.334-21.332-13.333-32.666-39.333
						s-4-10.666-18.668-44c-14.666-33.334-20.666-52-18.666-78s17.332-13.334,20.666-36.667s2-16.667,6.67-30
						c4.666-13.333,18-28.667,21.33-37.333c3.334-8.666,12-42.002,22-49.335s26.668-3.334,35.334-18.667s-12.668-14,14-33.333
						c26.666-19.333,51.332-33.333,72-36.667c20.666-3.334,7.332-4,7.332-4s-123.332-26.666-130.666-19.333
						s-164,154.669-166,176.002s-28.668,5.332-0.668,58.666s44.668,92,62.668,106.667s39.332,66.667,55.332,74
						S717.166,574.088,717.166,574.088z"/>
				</g>
			</g>
		</g>
	</g>
	<path fill="#394CD3" d="M985.166,288.086c5.334,4,10.002,3.333,12.668,11.335c2.666,8,8.666,24.666,10,31.333
		c1.332,6.667-2.002,12.667-3.334,16.667C1003.166,351.421,985.166,288.086,985.166,288.086z"/>
</g>
<g id="Layer_4_1_">
	
		<linearGradient id="SVGID_12_" gradientUnits="userSpaceOnUse" x1="244.322" y1="-349.6028" x2="322.8494" y2="-349.6028" gradientTransform="matrix(0.6707 0.7418 0.7418 -0.6707 873.348 -53.5146)">
		<stop  offset="0.0148" style="stop-color:#FFFFFF;stop-opacity:0"/>
		<stop  offset="0.8818" style="stop-color:#FFE5FF"/>
	</linearGradient>
	
		<path opacity="0.4" fill="none" stroke="url(#SVGID_12_)" stroke-width="1.5" stroke-miterlimit="10" enable-background="new    " d="
		M941.804,222.557c10.686-1.927,18.584-0.697,22.93,4.107c19.631,21.712-40.671,108.228-134.688,193.232
		C736.029,504.905,643.9,556.219,624.268,534.505c-5.82-6.438-4.614-18.569,2.414-34.674"/>
</g>
<g id="Layer_5_1_">
	
		<ellipse transform="matrix(-0.5408 0.8411 -0.8411 -0.5408 1498.9771 -393.4169)" fill="#2C42C4" cx="856.87" cy="212.43" rx="10.085" ry="17.665"/>
	
		<ellipse transform="matrix(-0.5409 0.8411 -0.8411 -0.5409 1594.6705 -393.321)" fill="#2C42C4" cx="904.68" cy="238.557" rx="10.083" ry="13.34"/>
	<path fill="#FFF3D9" d="M947.773,126.141c0,0-0.752,3.388-1.674,5.188c-0.92,1.8-2.773,4.323-4.212,6.895
		c-1.439,2.566-5.354,2.443-6.64,2.838c-1.289,0.389-3.828,2.429-4.576,3.387c-0.749,0.956-2.185,2.252-2.516,3.935
		c-0.333,1.687-13.224-5.884-11.305-5.505c3.487,0.688,10.473-7.603,11.617-11.058c1.146-3.454,3.621-9.869,5.829-9.71
		C936.508,122.268,947.773,126.141,947.773,126.141z"/>
	<g>
		
			<ellipse transform="matrix(0.8937 0.4487 -0.4487 0.8937 160.3986 -409.4695)" fill="none" stroke="#0F0A2B" stroke-miterlimit="10" cx="944.248" cy="133.733" rx="2.751" ry="2.713"/>
		<path fill="none" stroke="#0F0A2B" stroke-miterlimit="10" d="M940.184,128.691c-1.354-0.686-3.001-0.147-3.674,1.188
			c-0.673,1.341-0.116,2.979,1.241,3.659c1.354,0.686,3.003,0.149,3.675-1.188C942.102,131.01,941.549,129.371,940.184,128.691z"/>
	</g>
	<path fill="none" stroke="#FFFFFF" stroke-width="0.7271" stroke-linecap="round" stroke-miterlimit="10" d="M945.832,134.855
		c0.481-0.957,0.086-2.128-0.888-2.616"/>
	<path fill="none" stroke="#FFFFFF" stroke-width="0.7271" stroke-linecap="round" stroke-miterlimit="10" d="M940.35,132.166
		c0.479-0.958,0.086-2.129-0.886-2.613"/>
	<path fill="#E0402F" d="M934.927,124.519c0,0,4.394,2.068,8.979,3.259c4.587,1.188,5.908,1.268,7.98,0.535
		c2.072-0.733,4.104-4.025,2.578-5.564c-1.528-1.537-4.088-0.804-8.576-1.02c-4.486-0.219-6.191-2.327-9.59-3.188
		c-3.4-0.856-6.166-2.011-8.447,1.252c-2.283,3.266-3.918,8.649-6.555,11.746c-2.636,3.101-11.254,2.138-15.396,1.131
		c-7.434-0.917-14.227-0.523-16.958,1.875c-2.809,2.06-0.854,13.756,6.021,16.062c6.879,2.303,7.716,3.011,16.558-1.244
		c8.84-4.257,8.844-4.815,15.042-10.143c1.938-4.944,4.207-8.258,5.384-10.311C933.117,126.859,934.927,124.519,934.927,124.519z"/>
	<g>
		<g>
			<path fill="#E0402F" d="M939.635,138.742c-1.16-0.24-2.277-0.664-2.995-1.644c-0.341-0.462,0.269-1.681,0.713-1.07
				c0.616,0.837,1.604,1.153,2.586,1.356C940.549,137.512,940.248,138.871,939.635,138.742L939.635,138.742z"/>
		</g>
	</g>
	<g opacity="0.2">
		<g>
			<path fill="#E0402F" d="M935.008,134.824c-0.395-0.729-0.854-1.42-1.245-2.146c-0.224-0.409-0.204-0.895,0.058-1.283
				c0.175-0.266,0.678-0.548,0.896-0.146c0.393,0.731,0.854,1.422,1.247,2.15c0.222,0.409,0.202,0.89-0.061,1.284
				C935.728,134.944,935.223,135.228,935.008,134.824L935.008,134.824z"/>
		</g>
	</g>
	<path fill="#FFF3D9" d="M955.135,178.596c0,0,2.393,2.137,4.997,3.019c2.604,0.882,3.488,0.218,4.063-0.159
		c1.373-0.897,2.253-3.504,2.253-3.504s-1.472-2.334-5.537-2.175c-3.559,0.141-4.526-1.429-4.526-1.429L955.135,178.596z"/>
	<polygon fill="#222F6D" points="991.168,144.54 1036.06,182.044 1010.834,211.873 966.834,173.54 	"/>
	
		<line fill="none" stroke="#5D75DB" stroke-width="3" stroke-linecap="round" stroke-linejoin="round" stroke-miterlimit="10" x1="911.957" y1="234.652" x2="991.168" y2="144.54"/>
	<path fill="#FFB640" d="M924.164,145.41c1.474,0.946,5.43,2.498,6.961,4.275c1.532,1.775,5.717,8.826,7.909,11.426
		c2.191,2.6,10.121,8.293,12.646,9.916c2.521,1.623,4.204,2.704,4.702,3.319c0.494,0.614-1.249,4.25-1.249,4.25
		s-4.191-1.803-9.507-4.627c-5.318-2.823-9.688-7.121-13.277-10.32c-3.589-3.2-2.725-2.542-5.093-1.787
		c-2.366,0.755-4.335,2.644-6.661,5.425c-2.583,3.095-2.924,4.856-3.534,7.042c-0.57,2.042,0.462,2.672-0.621,8.518
		c-1.085,5.843-22.688-12.016-22.688-12.016s3.732-0.572,8.854-6.688c5.301-6.329,2.994-6.501,2.963-8.305
		c-0.028-1.804,1.203-5.565,1.203-5.565s-11.016,2.031-11.469,2.729c-0.865,1.35,4.567,10.47,4.567,10.47l-2.775,2.771
		c0,0-9.867-13.777-7.897-16.375c1.97-2.6,20.479-8.428,24.083-8.488C916.885,141.321,922.693,144.461,924.164,145.41z"/>
	
		<radialGradient id="SVGID_13_" cx="313.7234" cy="-1584.6106" r="19.8928" fx="318.5837" fy="-1570.4827" gradientTransform="matrix(-0.0804 0.9968 0.9968 0.0804 2549.3816 -52.2516)" gradientUnits="userSpaceOnUse">
		<stop  offset="0" style="stop-color:#FFFFFF;stop-opacity:0"/>
		<stop  offset="1" style="stop-color:#FFE5FF"/>
	</radialGradient>
	<path opacity="0.3" fill="url(#SVGID_13_)" enable-background="new    " d="M947.595,111.602c9.24,5.94,11.913,18.252,5.972,27.492
		c-5.942,9.238-18.251,11.917-27.49,5.975c-9.245-5.942-11.917-18.252-5.974-27.494C926.045,108.336,938.351,105.66,947.595,111.602
		z"/>
	<path fill="#FFB640" d="M901.715,165.842c-0.412,0.333-6.974,3.446-9.978,6.271c-3.007,2.825-12.229,9.772-13.423,13.167
		c0,0-13.771,11.555-17.605,14.438c-3.834,2.888-5.188,4.987-5.188,4.987l3.053,2.953c0,0,15.135-7.507,19.34-10.353
		c4.204-2.844,5.09-2.674,5.586-3.145c0.507-0.472,1.797-0.631,6.226-4.126c4.425-3.494,11.135-5.917,12.146-6.258
		c1.014-0.339,0.961,2.204,0.818,4.89c-0.138,2.685,0.35,18.254,0.859,21.159c0.51,2.903,2.892,12.758,2.833,17.473
		c-0.063,4.722-0.313,6.341-0.313,6.341s5.459,2.916,5.891,1.015c0.434-1.903,0.74-13.792,1.063-22.301
		c0.32-8.515,0.12-9.436,0.12-9.436s1.672-2.296,3.273-11.563c1.604-9.274,0.646-17.023,0.646-17.023"/>
	<path fill="none" stroke="#FFF3D9" stroke-miterlimit="10" d="M924.525,144.846c0,0-3.575,4.637-5.47,7.58
		c-1.89,2.943-4.175,4.646-5.688,8.23c-1.516,3.585-1.983,5.856-3.688,9.122c-1.702,3.264-4.178,7.421-4.899,8.542
		c-0.719,1.12-2.913,5.456-2.913,5.456"/>
	<path fill="#FFF3D9" d="M899.844,163.859c0,0,0.593,0.146,1.36,1.103c0.769,0.954,1.43,2.069,2.313,3.561
		c0.883,1.483,3.251,5.313,2.332,4.951c-0.918-0.36-3.229-3.917-3.229-3.917s2.334,4.949,1.358,4.323
		c-0.979-0.628-2.592-4.195-2.592-4.195s0.661,4.338-0.048,3.649c-0.709-0.687-1.244-3.792-1.244-3.792s0.328,3.432-0.498,2.21
		c-0.825-1.22-2.989-5.372-2.989-5.372L899.844,163.859z"/>
	<path fill="#FFF3D9" d="M856.531,204.362c-1.893,0.17-5.104,1.472-7.629,2.624c-2.523,1.15-2.966,2.453-2.966,2.453
		s-0.37,2.73,0.049,3.005c0.422,0.269,3.567,0.309,5.448-0.462c1.884-0.771,1.412-1.271,3.564-2.463
		c2.152-1.193,4.438-2.895,4.438-2.895L856.531,204.362z"/>
	<path fill="#FFF3D9" d="M909.602,233.155c1.128,1.421,2.379,4.568,3.272,7.13c0.896,2.565,0.324,3.812,0.324,3.812
		s-1.558,2.23-2.011,2.142c-0.454-0.091-2.541-2.22-3.269-4.068c-0.728-1.848-0.088-1.888-0.715-4.227s-1.002-5.139-1.002-5.139
		L909.602,233.155z"/>
	<path fill="#FFF3D9" d="M956.385,174.346c0,0,4.14,0.187,6.331,1.398c2.19,1.212,2.481,1.992,2.726,2.545
		c0.239,0.549-0.357,0.563-1.753,0.263c-1.394-0.305-2.604-0.885-3.345-0.966"/>
</g>
<circle fill="#FF553E" cx="1296.403" cy="72.687" r="20.667"/>
<g>
	<g>
		<polygon fill="#1F38B2" points="1378.752,305.642 1373.369,314.832 1378.574,322.816 1388.074,323.446 1393.457,314.255 		"/>
		<polygon fill="#394CD3" points="1378.752,305.642 1388.259,306.272 1393.457,314.255 1383.953,313.624 		"/>
	</g>
	
		<line fill="none" stroke="#1F38B2" stroke-width="2.7633" stroke-miterlimit="10" x1="1331.938" y1="313.118" x2="1378.22" y2="314.406"/>
	
		<line fill="none" stroke="#1F38B2" stroke-width="2.8822" stroke-linecap="round" stroke-linejoin="round" stroke-miterlimit="10" x1="1324.005" y1="414.149" x2="1297.163" y2="372.609"/>
	<g>
		<polygon fill="#1F38B2" points="1323.657,305.395 1318.27,314.585 1323.469,322.57 1332.974,323.198 1338.364,314.007 		"/>
		<polygon fill="#394CD3" points="1323.657,305.395 1333.162,306.026 1338.364,314.007 1328.854,313.378 		"/>
	</g>
	<g>
		<polygon fill="#1F38B2" points="1291.3,360.637 1285.917,369.825 1291.117,377.809 1300.622,378.437 1306.005,369.245 		"/>
		<polygon fill="#394CD3" points="1291.3,360.637 1300.805,361.264 1306.005,369.245 1296.5,368.618 		"/>
	</g>
	
		<line fill="none" stroke="#1F38B2" stroke-width="2.7633" stroke-linecap="round" stroke-linejoin="round" stroke-miterlimit="10" x1="1325.543" y1="318.576" x2="1298.481" y2="364.776"/>
	<g>
		<polygon fill="#FF553E" points="1317.344,403.645 1311.963,412.841 1317.164,420.819 1326.668,421.45 1332.052,412.262 		"/>
		<polygon fill="#FF7061" points="1317.344,403.645 1326.852,404.276 1332.052,412.262 1322.547,411.634 		"/>
	</g>
</g>
<g>
	
		<line fill="none" stroke="#1F38B2" stroke-width="3.2697" stroke-linecap="round" stroke-linejoin="round" stroke-miterlimit="10" x1="294.678" y1="321.686" x2="342.703" y2="295.325"/>
	<g>
		<polygon fill="#1F38B2" points="338.549,286.604 338.549,299.206 348.631,304.246 358.713,299.206 358.713,286.604 		"/>
		<polygon fill="#394CD3" points="338.549,286.604 348.631,281.562 358.713,286.604 348.631,291.642 		"/>
	</g>
	<g>
		<polygon fill="#F7A328" points="282.417,316.577 282.417,329.179 292.5,334.22 302.581,329.179 302.581,316.577 		"/>
		<polygon fill="#FFB640" points="282.417,316.577 292.5,311.536 302.581,316.577 292.5,321.618 		"/>
	</g>
	
		<line fill="none" stroke="#1F38B2" stroke-width="3.2697" stroke-linecap="round" stroke-linejoin="round" stroke-miterlimit="10" x1="239.639" y1="351.658" x2="287.664" y2="325.297"/>
	<polyline fill="#F7A328" points="227.379,359.156 237.461,364.196 247.543,359.156 247.543,346.549 227.379,346.549 	"/>
	<polyline fill="#FFB640" points="227.379,346.549 237.461,341.508 247.543,346.549 237.461,351.589 227.379,346.549 	"/>
</g>
<circle fill="#394CD3" cx="1200.868" cy="121.526" r="34.878"/>
<circle fill="#6978E2" cx="1210.598" cy="107.916" r="4.098"/>
<circle fill="#6978E2" cx="1202.337" cy="123.219" r="7.421"/>
<circle fill="#6978E2" cx="1186.235" cy="130.293" r="4.206"/>
<circle fill="#6978E2" cx="1222.791" cy="122.75" r="3.102"/>
<circle fill="#6978E2" cx="1184.489" cy="105.073" r="3.102"/>
<circle fill="#6978E2" cx="1198.744" cy="146.073" r="4.206"/>
<path opacity="0.7" fill="#1E3296" enable-background="new    " d="M1200.868,86.648c0,0-17.253,1.015-15.591,36.905
	c0.892,19.239,15.591,32.852,15.591,32.852s-5.807,0.2-12.047-2.277c-10.659-4.229-23.813-15.948-22.832-32.601
	c1.109-18.751,11.2-27.329,18.401-30.763C1192.804,86.752,1200.868,86.648,1200.868,86.648z"/>
<circle fill="#FFFFFF" cx="1215.736" cy="42.081" r="1.879"/>
<g opacity="0.7">
	<circle opacity="0.7" fill="#FFFFFF" enable-background="new    " cx="1157.709" cy="630.64" r="2.683"/>
	<circle opacity="0.7" fill="#FFFFFF" enable-background="new    " cx="1220.018" cy="590.349" r="2.179"/>
	<circle opacity="0.7" fill="#FFFFFF" enable-background="new    " cx="1132.678" cy="576.618" r="2.179"/>
	<circle opacity="0.7" fill="#FFFFFF" enable-background="new    " cx="1108.699" cy="562.675" r="2.18"/>
	<circle opacity="0.7" fill="#FFFFFF" enable-background="new    " cx="1091.496" cy="526.305" r="2.18"/>
	<circle fill="#FFFFFF" cx="1085.694" cy="577.507" r="2.18"/>
	
		<line opacity="0.7" fill="none" stroke="#FFFFFF" stroke-width="0.7725" stroke-miterlimit="10" enable-background="new    " x1="1220.019" y1="590.354" x2="1157.709" y2="630.642"/>
	
		<polyline opacity="0.7" fill="none" stroke="#FFFFFF" stroke-width="0.7725" stroke-miterlimit="10" enable-background="new    " points="
		1157.709,630.642 1132.678,576.618 1108.699,562.673 1091.5,526.305 	"/>
	
		<line opacity="0.7" fill="none" stroke="#FFFFFF" stroke-width="0.7725" stroke-miterlimit="10" enable-background="new    " x1="1108.699" y1="562.673" x2="1085.693" y2="577.506"/>
</g>
<path opacity="0.3" fill="none" stroke="#4D66E2" stroke-width="2.6147" stroke-linecap="round" stroke-linejoin="round" stroke-miterlimit="10" enable-background="new    " d="
	M1233.407,135.237c15.799,10.032,22.405,17.716,20.217,22.432c-3.275,7.064-31.336,0.999-62.656-13.547
	c-31.328-14.546-54.064-32.063-50.784-39.128c2.215-4.764,8.519-5.528,26.651,0.216"/>
<path opacity="0.3" fill="none" stroke="#4D66E2" stroke-width="2.7536" stroke-miterlimit="10" enable-background="new    " d="
	M1233.407,135.237c17.575,10.87,28.163,20.8,25.967,25.532c-3.285,7.084-34.039-0.213-68.684-16.295
	c-34.646-16.086-60.063-34.869-56.771-41.953c2.218-4.777,13.335-3.646,33.291,2.938"/>
<path opacity="0.3" fill="none" stroke="#4D66E2" stroke-width="2.8823" stroke-linecap="round" stroke-linejoin="round" stroke-miterlimit="10" enable-background="new    " d="
	M1236.44,137.128c20.992,12.155,34.891,23.976,32.867,28.388c-3.034,6.606-38.616-3.235-79.471-21.987
	c-40.856-18.752-71.521-39.317-68.479-45.926c2.048-4.457,22.207-0.576,45.478,7.605"/>
<g opacity="0.7">
	<circle fill="#FFFFFF" cx="412.867" cy="120.159" r="2.244"/>
	<circle fill="#FFFFFF" cx="446.5" cy="121.164" r="2.243"/>
	<circle fill="#FFFFFF" cx="394.952" cy="179.389" r="2.243"/>
	
		<polyline opacity="0.3" fill="none" stroke="#FFFFFF" stroke-width="1.6733" stroke-miterlimit="10" enable-background="new    " points="
		412.892,119.597 446.5,121.164 432.677,189.004 394.927,179.948 412.867,120.159 	"/>
	
		<polyline opacity="0.3" fill="none" stroke="#FFFFFF" stroke-width="1.6733" stroke-miterlimit="10" enable-background="new    " points="
		596.606,43.945 540.23,49.18 477.767,76.588 446.5,121.164 	"/>
	<circle fill="#FFFFFF" cx="432.042" cy="189.205" r="2.393"/>
	<circle fill="#FFFFFF" cx="477.756" cy="76.865" r="2.394"/>
	<circle fill="#FFFFFF" cx="540.204" cy="48.781" r="2.395"/>
	<circle fill="#FFFFFF" cx="596.609" cy="43.947" r="2.395"/>
</g>
<circle fill="#FF7061" cx="1298.085" cy="63.334" r="6.25"/>
<circle fill="#FF7061" cx="1287.835" cy="78.084" r="4.625"/>
<circle fill="#FF7061" cx="1298.886" cy="84.084" r="1.953"/>
<circle fill="#FF7061" cx="1283.886" cy="66.584" r="1.953"/>
<circle fill="#FF7061" cx="1308.835" cy="72.084" r="3.125"/>
<g id="Layer_2">
	<path fill="#FFB640" d="M494.736,529.1c-4.203,10.216-13.392,7.921-23.607,3.718c-10.213-4.202-17.588-8.722-13.387-18.936
		c4.205-10.219,15.89-15.093,26.107-10.889C494.064,507.197,498.938,518.885,494.736,529.1z"/>
	
		<rect x="457.066" y="514.408" transform="matrix(-0.9249 -0.3803 0.3803 -0.9249 721.1245 1180.2852)" fill="#FF553E" width="40.171" height="9.003"/>
	
		<linearGradient id="SVGID_14_" gradientUnits="userSpaceOnUse" x1="173.1277" y1="2017.0125" x2="266.7937" y2="2017.0125" gradientTransform="matrix(0.3805 -0.9248 -0.9248 -0.3805 2234.342 1545.3252)">
		<stop  offset="0" style="stop-color:#FFFFFF;stop-opacity:0"/>
		<stop  offset="1" style="stop-color:#FFFFBC"/>
	</linearGradient>
	<polygon opacity="0.2" fill="url(#SVGID_14_)" enable-background="new    " points="412.992,606.883 465.658,529.119 
		478.035,534.214 457.428,627.019 	"/>
	<path fill="#394CD3" d="M506.07,534.845c-1.05,2.553-3.973,3.771-6.524,2.72l-51.79-21.307c-2.553-1.053-3.771-3.975-2.723-6.526
		l0.253-0.616c1.051-2.553,3.976-3.771,6.526-2.721l51.789,21.307c2.553,1.053,3.771,3.977,2.722,6.525L506.07,534.845z"/>
	<path fill="#394CD3" d="M498.857,536.386c-1.049,2.554-12.438,2.992-14.991,1.939l-25.433-10.462
		c-2.556-1.053-10.269-9.215-9.219-11.771l7.546,2.696c1.051-2.556,3.973-3.771,6.523-2.724l25.431,10.465
		c2.556,1.056,3.773,3.977,2.725,6.526L498.857,536.386z"/>
	<path fill="#FFB640" d="M477.635,522.924c-0.324,0.789-1.226,1.164-2.015,0.838c-0.788-0.324-1.163-1.228-0.838-2.016
		c0.322-0.781,1.227-1.157,2.012-0.836C477.583,521.23,477.958,522.135,477.635,522.924z"/>
	<circle fill="#FFB640" cx="465.96" cy="518.115" r="1.541"/>
	<circle fill="#FFB640" cx="458.677" cy="515.12" r="1.542"/>
	<circle fill="#FFB640" cx="453.127" cy="512.841" r="1.541"/>
	<circle fill="#FFB640" cx="448.735" cy="511.031" r="1.541"/>
	<circle fill="#FFB640" cx="487.114" cy="526.821" r="1.542"/>
	<circle fill="#FFB640" cx="493.357" cy="529.389" r="1.541"/>
	<circle fill="#FFB640" cx="499.367" cy="531.864" r="1.223"/>
	<circle fill="#FFB640" cx="503.528" cy="533.574" r="1.222"/>
	<path fill="#394CD3" d="M460.442,536.128c-0.236,0.571-0.896,0.848-1.467,0.609l-4.396-1.807c-0.573-0.238-0.849-0.896-0.606-1.47
		l0,0c0.231-0.574,0.891-0.851,1.465-0.61l4.394,1.809C460.404,534.893,460.679,535.552,460.442,536.128L460.442,536.128z"/>
	<line fill="none" stroke="#394CD3" stroke-width="3" stroke-miterlimit="10" x1="457.205" y1="534.798" x2="464.86" y2="528.345"/>
	<path fill="#394CD3" d="M477.731,543.239c-0.237,0.573,0.063,1.244,0.675,1.494l4.664,1.919c0.608,0.25,1.296-0.011,1.532-0.586
		l0,0c0.234-0.575-0.066-1.244-0.681-1.497l-4.66-1.917C478.654,542.4,477.969,542.665,477.731,543.239L477.731,543.239z"/>
	<line fill="none" stroke="#394CD3" stroke-width="3" stroke-miterlimit="10" x1="481.165" y1="544.65" x2="480.003" y2="534.577"/>
	<circle fill="#FFD399" cx="484.96" cy="512.015" r="3.376"/>
</g>
<g id="Layer_6">
</g>
<g>
	<path fill="#FFB640" d="M1005.43,167.455c0,0,0.412,0.003,1.077,0.42s1.109,0.249,1.801,0.132c0.501-0.084,1.745-0.521,1.263,0.09
		c-0.841,1.063-1.933,1.381-2.448,1.402c-0.515,0.023-1.576-0.125-2.096,0.111c-0.519,0.237-0.494-0.39-0.494-0.39L1005.43,167.455z
		"/>
	<path fill="#E8921F" d="M994.91,172.603c0,0-3.401-4.666-4.153-5.415c-0.753-0.749-1.597-0.521-2.038-0.611
		c-0.443-0.092-1.57-0.354-1.57-0.354s-0.46,0.396,0.456,1.065c0.916,0.672,2.146,0.875,2.146,0.875s0.069,0.417,1.073,1.828
		c1.004,1.412,2.073,3.132,2.073,3.132l3.486,0.951L994.91,172.603z"/>
	<path fill="#D68522" d="M1005.973,188.641c0.197,1.329,1.099,1.625,1.099,1.625s0.771,0.609,0.74,0.897
		c-0.028,0.29-0.217,3.433-0.217,4.208c-0.001,0.823-0.212,1.147-0.291,1.714c-0.09,0.638-0.756,1.405-1.256,0.244
		c-0.293-0.678,0.199-1.374,0.303-1.88c0.161-0.782-0.246-2.57-0.539-3.099c-0.293-0.529-1.414-1.281-1.875-1.5
		s-3.087-1.106-3.992-3.83c-0.906-2.726,5.307-3.704,5.407-3.504C1005.452,183.718,1005.973,188.641,1005.973,188.641z"/>
	<path fill="#FFB640" d="M994.493,172.479c0,0,0.023,1.313-2.773,2.167c-2.8,0.851-3.491,1.129-3.218,1.229
		c0.276,0.102,5.568,1.924,5.86,2.154c0.29,0.229,3.04-3.252,3.04-3.252L994.493,172.479z"/>
	<path fill="#FFB640" d="M1018.267,179.519c0,0-0.813,0.929-2.287,2.196c-1.205,1.037-2.185,1.796-2.668,2.073
		c-0.534,0.273-1.276,0.449-1.75,0.563c-0.971,0.231-2.898,0.185-3.5-0.063c-0.008-0.063-0.427-0.187-0.438-0.25
		c-0.438-2.563-4.086-4.219-4.861-7.424c-0.493-2.032-0.635-2.529-0.462-3.505c1.239-1.771,2.354-2.627,3.044-3.604
		c1.917-2.726-1.777-6.073-1.777-6.073l-0.834-2.583c0,0-0.779,0.09-1.51,1.164c-0.166,0.241-0.254,0.507-0.298,0.771l-0.03-0.207
		c0,0-0.172,0.218-0.386,0.638c-0.228,0.443-0.585,1.736-0.483,3.701c0.012,0.2-1.798,1.507-3.082,2.603
		c-1.24,0.535-2.99,1.479-3.727,2.778c-0.518,0.912-0.795,1.904-0.868,2.979l-5.019-0.019c-1.493-0.044-4.292-0.792-4.292-0.792
		s-0.132,0.671,0.751,1.145c0.884,0.474,4.92,1.551,5.951,1.639c0.555,0.047,2.37,0.307,3.742,0.444
		c0.104,0.943,0.563,2.054,1.065,3.04c0.735,1.445,2.963,3.715,4.966,5.511c-0.33-0.327-0.321-0.184-0.33-0.139
		c-0.688,3.563,2.783,5.484,3.125,5.862c0.343,0.379,0.628,0.539,0.696,1.14c0.065,0.6-0.96,2.754-1.033,2.954
		c0,0-1.398,1.769-1.37,2.333c0.067,1.408,1.028,1.166,1.449,0.557c0.285-0.411,0.188-0.747,0.146-1.009
		c0.201-0.245,0.358-0.615,0.599-1.054c0.514-0.95,2.251-3.651,2.389-3.908s-0.354-0.89-0.354-0.89s-0.721-0.617-0.394-1.92
		c0,0,0.153-0.515,0.356-1.21c0.992-0.753,2.002-1.89,2.27-2.737c1.127-0.133,3.921,0.346,6.744-0.933
		c1.688-0.813,2.111-1.6,3.563-3.438C1017.873,181.222,1019.043,178.639,1018.267,179.519z"/>
	
		<ellipse transform="matrix(-0.6204 0.7843 -0.7843 -0.6204 1754.8884 -519.5339)" fill="#2D1F1E" stroke="#2D1F1E" stroke-width="0.1717" stroke-miterlimit="10" cx="1003.177" cy="164.935" rx="0.429" ry="0.387"/>
	<g>
		<g>
			<path fill="#2D1F1E" d="M1000.851,164.904c-0.273-0.608-0.279-1.256-0.23-1.909c0.017-0.19,0.3-0.695,0.275-0.417
				c-0.045,0.592,0.051,1.485,0.299,2.036C1001.275,164.792,1000.94,165.102,1000.851,164.904L1000.851,164.904z"/>
		</g>
	</g>
	<path fill="#EFE4D3" d="M1003.255,162.635l-0.521-1.785c0,0-1.288,0.435-1.616,1c-0.328,0.563,0.118,1.133,0.198,0.746
		c0.056-0.271,0.729-0.524,1.263-0.104C1002.923,162.763,1003.255,162.635,1003.255,162.635z"/>
	<path fill="#30200A" d="M1002.541,161.442l-0.026-0.612c0,0-0.556,0.152-0.707,0.348c-0.152,0.191,0.416,0.172,0.416,0.172
		L1002.541,161.442z"/>
	<path fill="#FFB640" d="M984.804,175.271c0,0-0.883-0.776-1.436-0.978c-0.551-0.198-0.453-0.124-0.43,0.445
		C982.964,175.308,984.804,175.271,984.804,175.271z"/>
	<path fill="#D68522" d="M1006.482,195.191c0,0-0.696,2.145-0.475,2.665c0.553,1.299,1.367,0.738,1.553,0.021
		c0.184-0.719-0.36-0.994-0.305-1.314c0.057-0.322,0.354-1.246,0.354-1.394C1007.608,195.023,1006.482,195.191,1006.482,195.191z"/>
</g>
</svg>
