<?xml version="1.0" encoding="utf-8"?>
<!-- Generator: Adobe Illustrator 16.0.0, SVG Export Plug-In . SVG Version: 6.00 Build 0)  -->
<!DOCTYPE svg PUBLIC "-//W3C//DTD SVG 1.1//EN" "http://www.w3.org/Graphics/SVG/1.1/DTD/svg11.dtd">
<svg version="1.1" id="Layer_1" xmlns="http://www.w3.org/2000/svg" xmlns:xlink="http://www.w3.org/1999/xlink" x="0px" y="0px"
	 width="558.047px" height="325.832px" viewBox="0 0 558.047 325.832" enable-background="new 0 0 558.047 325.832"
	 xml:space="preserve">
<rect x="283.091" y="77.726" display="none" opacity="0.3" fill="none" stroke="#394CD3" stroke-width="2" stroke-miterlimit="10" enable-background="new    " width="408.002" height="239.727"/>
<line fill="none" stroke="#FF553E" stroke-width="3" stroke-miterlimit="10" x1="125.091" y1="49.416" x2="172.091" y2="87.416"/>
<line fill="none" stroke="#FF553E" stroke-width="4" stroke-miterlimit="10" x1="376.091" y1="59.081" x2="404.743" y2="34.171"/>
<line fill="none" stroke="#EBEDE4" stroke-width="6" stroke-miterlimit="10" x1="417.971" y1="85.102" x2="420.806" y2="109.511"/>
<line fill="none" stroke="#EBEDE4" stroke-width="7.1706" stroke-miterlimit="10" x1="104.189" y1="262.533" x2="87.091" y2="239.181"/>
<line fill="none" stroke="#EBEDE4" stroke-width="4" stroke-miterlimit="10" x1="444.759" y1="56.415" x2="487.874" y2="44.656"/>
<path fill="none" stroke="#EBEDE4" stroke-width="3" stroke-miterlimit="10" d="M138.261,84.014
	c-4.092,2.766-9.65,1.688-12.417-2.401l0,0c-2.769-4.091-1.691-9.652,2.398-12.418l32.813-22.18c4.09-2.77,9.649-1.691,12.417,2.397
	l0,0c2.766,4.092,1.689,9.652-2.401,12.417L138.261,84.014z"/>
<g enable-background="new    ">
	<path fill="#FF553E" d="M260.26,218.998c0.352,1.29,0.424,2.889,0.22,4.791c-0.206,1.905-0.602,3.973-1.187,6.198
		c-0.586,2.229-1.306,4.572-2.154,7.033c-0.851,2.462-1.686,4.866-2.506,7.21c-0.47,1.173-0.895,2.301-1.274,3.385
		c-0.382,1.085-0.719,2.065-1.011,2.944v0.088c-0.176,0.471-0.396,1.056-0.659,1.759s-0.571,1.494-0.923,2.374
		c-0.879,2.345-1.861,5.026-2.945,8.044c-1.085,3.021-2.109,5.979-3.076,8.88c-0.968,2.901-1.789,5.569-2.461,8
		c-0.676,2.433-1.012,4.205-1.012,5.319v0.352c0,1.056,0.088,2.066,0.265,3.033c0.176,0.967,0.498,1.803,0.967,2.506
		c0.468,0.646,1.055,1.156,1.758,1.538c0.703,0.381,1.611,0.572,2.726,0.572h0.177c0.468,0,0.893,0.189,1.274,0.571
		c0.38,0.38,0.571,0.835,0.571,1.361c0,0.47-0.191,0.894-0.571,1.274c-0.382,0.381-0.807,0.572-1.274,0.572h-0.177
		c-1.876-0.061-3.415-0.426-4.615-1.101c-1.202-0.674-2.185-1.598-2.945-2.77c-0.703-1.055-1.202-2.241-1.495-3.562
		c-0.294-1.317-0.438-2.651-0.438-4v-0.088v-0.264c0-1.35,0.352-3.297,1.055-5.848c0.704-2.55,1.566-5.332,2.594-8.352
		c1.025-3.02,2.095-6.066,3.209-9.145c1.113-3.076,2.11-5.786,2.989-8.133c0.117-0.468,0.232-0.791,0.352-0.967h-18.638
		c-1.817,3.107-3.693,6.11-5.627,9.012c-1.934,2.902-3.883,5.495-5.846,7.78c-1.966,2.286-3.957,4.177-5.979,5.671
		c-2.021,1.494-4.06,2.448-6.11,2.857c-0.526,0.118-1.069,0.206-1.626,0.264c-0.558,0.059-1.069,0.088-1.538,0.088
		c-1.583,0-3.107-0.22-4.572-0.659c-1.465-0.438-2.784-1.068-3.956-1.891c-2.462-1.815-4.016-4.189-4.66-7.121
		c-0.059-0.409-0.103-0.791-0.132-1.143c-0.03-0.353-0.044-0.732-0.044-1.145c0-2.167,0.468-4.249,1.407-6.242
		c0.644-1.229,1.406-2.357,2.285-3.385c0.879-1.023,1.816-1.89,2.813-2.593c2.227-1.523,4.572-2.286,7.033-2.286
		c1.464,0,2.813,0.294,4.044,0.879c0.468,0.235,0.791,0.587,0.967,1.055c0.176,0.472,0.146,0.938-0.088,1.407
		c-0.235,0.471-0.586,0.791-1.055,0.967c-0.471,0.177-0.938,0.147-1.407-0.088c-0.822-0.352-1.643-0.526-2.462-0.526
		c-1.643,0-3.283,0.558-4.923,1.67c-1.701,1.114-2.989,2.608-3.868,4.483c-0.294,0.703-0.542,1.45-0.748,2.242
		c-0.206,0.791-0.309,1.599-0.309,2.417c0,0.294,0.015,0.559,0.044,0.792c0.029,0.234,0.073,0.498,0.133,0.791
		c0.352,1.993,1.406,3.575,3.165,4.747c1.64,1.231,3.75,1.847,6.329,1.847c0.41,0,0.82,0,1.231,0c0.409,0,0.82-0.058,1.231-0.176
		c1.64-0.352,3.297-1.157,4.967-2.418c1.67-1.26,3.341-2.856,5.011-4.791s3.341-4.146,5.011-6.638s3.326-5.113,4.968-7.869h-4.309
		c-0.527,0-0.981-0.188-1.363-0.571c-0.382-0.381-0.57-0.805-0.57-1.273c0-0.528,0.188-0.981,0.57-1.363
		c0.382-0.381,0.835-0.571,1.363-0.571h6.506c1.113-1.935,2.198-3.882,3.253-5.847c1.056-1.963,2.11-3.882,3.165-5.759
		c2.052-3.868,4-7.442,5.848-10.727c1.846-3.28,3.561-5.947,5.143-8c0.645-0.762,1.304-1.45,1.979-2.065
		c0.673-0.615,1.42-1.156,2.241-1.627c1.641-0.995,3.253-1.494,4.835-1.494c1.641,0,3.077,0.527,4.309,1.582
		C258.823,215.921,259.673,217.299,260.26,218.998z M251.115,242.911c0.762-2.227,1.539-4.482,2.33-6.77
		c0.791-2.286,1.479-4.453,2.066-6.506c0.585-2.052,0.996-3.912,1.231-5.583c0.232-1.671,0.204-3.004-0.089-4
		c-0.294-0.996-0.733-1.787-1.318-2.374c-0.471-0.409-1.114-0.615-1.935-0.615c-0.821-0.059-1.816,0.234-2.988,0.879
		c-1.174,0.704-2.198,1.642-3.077,2.813c-1.525,1.936-3.181,4.516-4.967,7.737c-1.789,3.224-3.708,6.712-5.76,10.462
		c-0.879,1.582-1.772,3.209-2.681,4.879c-0.91,1.671-1.833,3.327-2.77,4.969h17.847c0.352-0.996,0.703-1.979,1.055-2.945
		C250.413,244.889,250.764,243.908,251.115,242.911z"/>
</g>
<g enable-background="new    ">
	<path fill="none" stroke="#FF553E" stroke-width="1.4653" stroke-miterlimit="10" d="M260.26,218.998
		c0.352,1.29,0.424,2.889,0.22,4.791c-0.206,1.905-0.602,3.973-1.187,6.198c-0.586,2.229-1.306,4.572-2.154,7.033
		c-0.851,2.462-1.686,4.866-2.506,7.21c-0.47,1.173-0.895,2.301-1.274,3.385c-0.382,1.085-0.719,2.065-1.011,2.944v0.088
		c-0.176,0.471-0.396,1.056-0.659,1.759s-0.571,1.494-0.923,2.374c-0.879,2.345-1.861,5.026-2.945,8.044
		c-1.085,3.021-2.109,5.979-3.076,8.88c-0.968,2.901-1.789,5.569-2.461,8c-0.676,2.433-1.012,4.205-1.012,5.319v0.352
		c0,1.056,0.088,2.066,0.265,3.033c0.176,0.967,0.498,1.803,0.967,2.506c0.468,0.646,1.055,1.156,1.758,1.538
		c0.703,0.381,1.611,0.572,2.726,0.572h0.177c0.468,0,0.893,0.189,1.274,0.571c0.38,0.38,0.571,0.835,0.571,1.361
		c0,0.47-0.191,0.894-0.571,1.274c-0.382,0.381-0.807,0.572-1.274,0.572h-0.177c-1.876-0.061-3.415-0.426-4.615-1.101
		c-1.202-0.674-2.185-1.598-2.945-2.77c-0.703-1.055-1.202-2.241-1.495-3.562c-0.294-1.317-0.438-2.651-0.438-4v-0.088v-0.264
		c0-1.35,0.352-3.297,1.055-5.848c0.704-2.55,1.566-5.332,2.594-8.352c1.025-3.02,2.095-6.066,3.209-9.145
		c1.113-3.076,2.11-5.786,2.989-8.133c0.117-0.468,0.232-0.791,0.352-0.967h-18.638c-1.817,3.107-3.693,6.11-5.627,9.012
		c-1.934,2.902-3.883,5.495-5.846,7.78c-1.966,2.286-3.957,4.177-5.979,5.671c-2.021,1.494-4.06,2.448-6.11,2.857
		c-0.526,0.118-1.069,0.206-1.626,0.264c-0.558,0.059-1.069,0.088-1.538,0.088c-1.583,0-3.107-0.22-4.572-0.659
		c-1.465-0.438-2.784-1.068-3.956-1.891c-2.462-1.815-4.016-4.189-4.66-7.121c-0.059-0.409-0.103-0.791-0.132-1.143
		c-0.03-0.353-0.044-0.732-0.044-1.145c0-2.167,0.468-4.249,1.407-6.242c0.644-1.229,1.406-2.357,2.285-3.385
		c0.879-1.023,1.816-1.89,2.813-2.593c2.227-1.523,4.572-2.286,7.033-2.286c1.464,0,2.813,0.294,4.044,0.879
		c0.468,0.235,0.791,0.587,0.967,1.055c0.176,0.472,0.146,0.938-0.088,1.407c-0.235,0.471-0.586,0.791-1.055,0.967
		c-0.471,0.177-0.938,0.147-1.407-0.088c-0.822-0.352-1.643-0.526-2.462-0.526c-1.643,0-3.283,0.558-4.923,1.67
		c-1.701,1.114-2.989,2.608-3.868,4.483c-0.294,0.703-0.542,1.45-0.748,2.242c-0.206,0.791-0.309,1.599-0.309,2.417
		c0,0.294,0.015,0.559,0.044,0.792c0.029,0.234,0.073,0.498,0.133,0.791c0.352,1.993,1.406,3.575,3.165,4.747
		c1.64,1.231,3.75,1.847,6.329,1.847c0.41,0,0.82,0,1.231,0c0.409,0,0.82-0.058,1.231-0.176c1.64-0.352,3.297-1.157,4.967-2.418
		c1.67-1.26,3.341-2.856,5.011-4.791s3.341-4.146,5.011-6.638s3.326-5.113,4.968-7.869h-4.309c-0.527,0-0.981-0.188-1.363-0.571
		c-0.382-0.381-0.57-0.805-0.57-1.273c0-0.528,0.188-0.981,0.57-1.363c0.382-0.381,0.835-0.571,1.363-0.571h6.506
		c1.113-1.935,2.198-3.882,3.253-5.847c1.056-1.963,2.11-3.882,3.165-5.759c2.052-3.868,4-7.442,5.848-10.727
		c1.846-3.28,3.561-5.947,5.143-8c0.645-0.762,1.304-1.45,1.979-2.065c0.673-0.615,1.42-1.156,2.241-1.627
		c1.641-0.995,3.253-1.494,4.835-1.494c1.641,0,3.077,0.527,4.309,1.582C258.823,215.921,259.673,217.299,260.26,218.998z
		 M251.115,242.911c0.762-2.227,1.539-4.482,2.33-6.77c0.791-2.286,1.479-4.453,2.066-6.506c0.585-2.052,0.996-3.912,1.231-5.583
		c0.232-1.671,0.204-3.004-0.089-4c-0.294-0.996-0.733-1.787-1.318-2.374c-0.471-0.409-1.114-0.615-1.935-0.615
		c-0.821-0.059-1.816,0.234-2.988,0.879c-1.174,0.704-2.198,1.642-3.077,2.813c-1.525,1.936-3.181,4.516-4.967,7.737
		c-1.789,3.224-3.708,6.712-5.76,10.462c-0.879,1.582-1.772,3.209-2.681,4.879c-0.91,1.671-1.833,3.327-2.77,4.969h17.847
		c0.352-0.996,0.703-1.979,1.055-2.945C250.413,244.889,250.764,243.908,251.115,242.911z"/>
</g>
<g>
	
		<linearGradient id="SVGID_1_" gradientUnits="userSpaceOnUse" x1="-1732.241" y1="1066.3767" x2="-1732.241" y2="966.0984" gradientTransform="matrix(0 1 1 0 -837.3696 1880.8647)">
		<stop  offset="0" style="stop-color:#FFB640;stop-opacity:0"/>
		<stop  offset="1" style="stop-color:#FFB640"/>
	</linearGradient>
	<path fill="url(#SVGID_1_)" d="M128.729,166.063v-34.88h87.2v0.35c0.702-0.229,1.431-0.35,2.18-0.35
		c6.018,0,10.898,7.808,10.898,17.438s-4.883,17.44-10.898,17.44c-0.75,0-1.479-0.122-2.18-0.354v0.354L128.729,166.063
		L128.729,166.063z"/>
	
		<linearGradient id="SVGID_2_" gradientUnits="userSpaceOnUse" x1="-2269.5398" y1="27.0305" x2="-2246.6501" y2="27.0305" gradientTransform="matrix(-1 0 0 1 -2127.186 121.5928)">
		<stop  offset="0" style="stop-color:#FFB640;stop-opacity:0"/>
		<stop  offset="1" style="stop-color:#FFB640"/>
	</linearGradient>
	
		<ellipse fill="#FFB640" stroke="url(#SVGID_2_)" stroke-width="1.09" stroke-miterlimit="10" cx="130.909" cy="148.623" rx="10.899" ry="17.44"/>
	
		<linearGradient id="SVGID_3_" gradientUnits="userSpaceOnUse" x1="-1697.3611" y1="1035.8582" x2="-1697.3611" y2="935.5789" gradientTransform="matrix(0 1 1 0 -837.3696 1880.8647)">
		<stop  offset="0" style="stop-color:#FFB640;stop-opacity:0"/>
		<stop  offset="1" style="stop-color:#FFB640"/>
	</linearGradient>
	<path fill="url(#SVGID_3_)" d="M98.209,200.943v-34.88h87.2v0.349c0.703-0.228,1.431-0.349,2.18-0.349
		c6.019,0,10.899,7.808,10.899,17.438s-4.883,17.44-10.899,17.44c-0.75,0-1.478-0.121-2.18-0.354v0.354L98.209,200.943
		L98.209,200.943z"/>
	
		<linearGradient id="SVGID_4_" gradientUnits="userSpaceOnUse" x1="-2239.0183" y1="61.9104" x2="-2216.1326" y2="61.9104" gradientTransform="matrix(-1 0 0 1 -2127.186 121.5928)">
		<stop  offset="0" style="stop-color:#FFB640;stop-opacity:0"/>
		<stop  offset="1" style="stop-color:#FFB640"/>
	</linearGradient>
	
		<ellipse fill="#FFB640" stroke="url(#SVGID_4_)" stroke-width="1.09" stroke-miterlimit="10" cx="100.389" cy="183.503" rx="10.898" ry="17.44"/>
	<g>
		
			<ellipse fill="none" stroke="#FFB640" stroke-width="2.18" stroke-miterlimit="10" cx="128.729" cy="148.623" rx="13.08" ry="21.8"/>
		
			<ellipse fill="none" stroke="#FFB640" stroke-width="2.18" stroke-miterlimit="10" cx="98.209" cy="183.503" rx="13.08" ry="21.8"/>
		<path fill="none" stroke="#FFB640" stroke-width="2.18" stroke-miterlimit="10" d="M85.129,183.503c0,0-47.96,0-56.68,0
			c-8.721,0-17.44,0-17.44,13.08"/>
		<path fill="none" stroke="#FFB640" stroke-width="2.18" stroke-miterlimit="10" d="M141.809,144.263c0,0-47.96,0-56.682,0
			c-8.721,0-17.438,0-17.438,13.08"/>
		
			<line fill="none" stroke="#FFB640" stroke-width="2.18" stroke-miterlimit="10" x1="116.194" y1="156.797" x2="106.929" y2="166.063"/>
	</g>
</g>
<g id="Layer_2">
</g>
<g>
	<polygon fill="#394CD3" points="423.165,269.039 423.165,276.073 376.27,229.176 376.27,222.142 	"/>
	<polygon fill="#394CD3" points="352.821,294.832 423.165,276.073 376.27,229.176 305.924,247.935 	"/>
	<polygon opacity="0.5" fill="#FFFFFF" enable-background="new    " points="352.821,259.659 423.165,269.039 376.27,222.142 
		305.924,212.762 	"/>
	<polygon opacity="0.5" fill="#FFFFFF" enable-background="new    " points="352.821,285.453 423.165,276.073 376.27,229.176 
		305.924,238.555 	"/>
	<polygon opacity="0.5" fill="#FFFFFF" enable-background="new    " points="352.821,269.039 423.165,271.384 376.27,224.486 
		305.924,222.142 	"/>
	<polygon opacity="0.5" fill="#FFFFFF" enable-background="new    " points="352.821,273.728 423.165,273.728 376.27,226.832 
		305.924,226.832 	"/>
	<polygon opacity="0.8" fill="#394CD3" enable-background="new    " points="353.081,245.59 423.165,269.039 376.27,222.142 
		306.184,198.693 	"/>
</g>
<g>
	<polygon fill="#ED891B" points="262.766,96.477 271.374,96.477 312.27,137.374 303.66,137.374 	"/>
	<polygon fill="#F7A328" points="312.27,137.374 361.773,100.781 318.727,57.736 269.223,94.324 	"/>
	<polygon opacity="0.5" fill="#FFFFFF" enable-background="new    " points="310.117,137.374 333.792,79.26 290.746,36.213 
		267.071,94.324 	"/>
	<polygon opacity="0.5" fill="#FFFFFF" enable-background="new    " points="307.964,137.374 331.641,79.26 288.594,36.213 
		264.917,94.324 	"/>
	<polygon opacity="0.5" fill="#FFFFFF" enable-background="new    " points="305.813,137.374 329.489,79.26 286.442,36.213 
		262.766,94.324 	"/>
	<polygon opacity="0.5" fill="#FFFFFF" enable-background="new    " points="303.66,137.374 320.878,79.26 277.832,36.213 
		260.614,94.324 	"/>
	<polygon opacity="0.8" fill="#FF971A" enable-background="new    " points="302.943,137.374 296.487,77.106 253.44,34.06 
		259.897,94.324 	"/>
</g>
<g>
	
		<line fill="none" stroke="#FF553E" stroke-width="3" stroke-linecap="round" stroke-linejoin="round" stroke-miterlimit="10" x1="331.409" y1="108.732" x2="362.8" y2="186.644"/>
	
		<line fill="none" stroke="#FF553E" stroke-width="3" stroke-linecap="round" stroke-linejoin="round" stroke-miterlimit="10" x1="353.667" y1="99.762" x2="385.061" y2="177.677"/>
	
		<line fill="none" stroke="#FF553E" stroke-width="3" stroke-linecap="round" stroke-linejoin="round" stroke-miterlimit="10" x1="335.893" y1="119.861" x2="358.153" y2="110.892"/>
	
		<line fill="none" stroke="#FF553E" stroke-width="3" stroke-linecap="round" stroke-linejoin="round" stroke-miterlimit="10" x1="340.376" y1="130.991" x2="362.639" y2="122.022"/>
	
		<line fill="none" stroke="#FF553E" stroke-width="3" stroke-linecap="round" stroke-linejoin="round" stroke-miterlimit="10" x1="344.862" y1="142.123" x2="367.123" y2="133.153"/>
	
		<line fill="none" stroke="#FF553E" stroke-width="3" stroke-linecap="round" stroke-linejoin="round" stroke-miterlimit="10" x1="349.346" y1="153.254" x2="371.608" y2="144.284"/>
	
		<line fill="none" stroke="#FF553E" stroke-width="3" stroke-linecap="round" stroke-linejoin="round" stroke-miterlimit="10" x1="353.828" y1="164.385" x2="376.091" y2="155.416"/>
	
		<line fill="none" stroke="#FF553E" stroke-width="3" stroke-linecap="round" stroke-linejoin="round" stroke-miterlimit="10" x1="358.317" y1="175.513" x2="380.576" y2="166.547"/>
</g>
<g>
	<polygon fill="#FF553E" points="541.337,213.715 520.773,152.031 475.081,106.34 495.645,168.024 	"/>
	<polygon opacity="0.5" fill="#FFFFFF" enable-background="new    " points="523.058,215.998 520.773,152.031 475.081,106.34 
		477.366,170.307 	"/>
	<polygon opacity="0.5" fill="#FFFFFF" enable-background="new    " points="518.49,215.998 518.49,152.031 472.799,106.34 
		472.799,170.307 	"/>
	<polygon opacity="0.5" fill="#FFFFFF" enable-background="new    " points="516.203,215.998 516.203,152.031 470.513,106.34 
		470.513,170.307 	"/>
	<polygon opacity="0.5" fill="#FFFFFF" enable-background="new    " points="509.351,215.998 513.921,152.031 468.229,106.34 
		463.656,170.307 	"/>
	<polygon opacity="0.8" fill="#FF553E" enable-background="new    " points="493.36,215.998 511.636,152.031 465.944,106.34 
		447.667,170.307 	"/>
	<polygon fill="#FF553E" points="465.944,106.34 475.081,106.34 520.773,152.031 511.636,152.031 	"/>
</g>
</svg>
