<?xml version="1.0" encoding="utf-8"?>
<!-- Generator: Adobe Illustrator 16.0.0, SVG Export Plug-In . SVG Version: 6.00 Build 0)  -->
<!DOCTYPE svg PUBLIC "-//W3C//DTD SVG 1.1//EN" "http://www.w3.org/Graphics/SVG/1.1/DTD/svg11.dtd">
<svg version="1.1" id="Layer_1" xmlns="http://www.w3.org/2000/svg" xmlns:xlink="http://www.w3.org/1999/xlink" x="0px" y="0px"
	 width="539px" height="311.5px" viewBox="0 0 539 311.5" enable-background="new 0 0 539 311.5" xml:space="preserve">
<g id="Layer_2">
	
		<radialGradient id="SVGID_1_" cx="22.7649" cy="232.092" r="99.3728" gradientTransform="matrix(0.9814 -0.1918 -0.1138 -0.5824 343.1716 221.0707)" gradientUnits="userSpaceOnUse">
		<stop  offset="0.129" style="stop-color:#FFFFFF;stop-opacity:0.4"/>
		<stop  offset="0.8925" style="stop-color:#FFFFFF;stop-opacity:0"/>
	</radialGradient>
	<path fill="url(#SVGID_1_)" d="M233.117,47.308l36.269,40.866l142.008-16.857l32.693-43.931
		C444.087,27.386,319.446-40.552,233.117,47.308z"/>
</g>
<rect x="74.909" y="49.948" display="none" fill="none" stroke="#394CD3" stroke-width="2" stroke-miterlimit="10" width="407.998" height="239.728"/>
<circle fill="#394CD3" cx="308.216" cy="233" r="5.645"/>
<circle fill="#FF553E" cx="396.645" cy="256.251" r="5.645"/>
<path fill="none" stroke="#EBEDE4" stroke-width="8.1085" stroke-miterlimit="10" d="M261.401,167.844
	c-12.896,15.521-35.737,17.482-51.014,4.382c-15.275-13.104-17.206-36.31-4.311-51.83"/>
<path fill="none" stroke="#394CD3" stroke-width="9.1948" stroke-linejoin="round" stroke-miterlimit="10" d="M290.491,203.505
	c17.292-10.662,39.951-5.289,50.612,12.004c10.663,17.291,5.288,39.951-12.004,50.612"/>
<line fill="none" stroke="#EBEDE4" stroke-width="8.1731" stroke-miterlimit="10" x1="24" y1="113.352" x2="41.409" y2="134.927"/>
<circle fill="#394CD3" cx="211.627" cy="56.14" r="9.551"/>
<g>
	<g>
		<g>
			<path fill="#FF553E" d="M321.315,160.167c0.2,0.001,0.18-0.153,0.363-0.047c0.106,0.11,0.036,0.232,0.067,0.347
				c0.441,0.053,0.787,0.459,1.095,0.728c0.363-0.069,0.67,0.312,1.024,0.29c-0.146-0.205,0.062,0.018,0.124-0.049
				c-0.001-0.092-0.03-0.182-0.004-0.273c0.106,0.094,0.224,0.082,0.36-0.064c-0.094-0.07-0.24-0.066-0.125-0.226
				c0.175-0.04,0.32,0.125,0.486,0.159c-0.049-0.087-0.132-0.171-0.004-0.273c0.068,0.145,0.192-0.104,0.258,0.097
				c0.863-0.202,1.696-0.31,2.586-0.912c0.225-0.257,0.43-0.388,0.64-0.571c0.321-0.399,0.698-0.941,0.856-1.239
				c0.031-0.063,0.106-0.127,0.145-0.206c0.048-0.113,0.033-0.273,0.063-0.38c0.039-0.139,0.123-0.263,0.144-0.388
				c-0.061-0.15,0.035-0.324-0.022-0.473c0.146-0.096,0.028-0.151,0.116-0.236c-0.016-0.105-0.052-0.21,0.027-0.329
				c-0.35-1.111-1.086-2.127-1.512-3.26c-0.279-0.355-0.404-0.583-0.647-0.983c-0.493-0.397-1.02-1.086-1.128-1.651
				c-0.045-0.052-0.148,0.065-0.176-0.033c-0.558-1.176-1.078-2.029-1.879-3.32c0.021-0.716-0.572-1.425-1.059-2.073
				c-0.395-0.258-0.659-0.757-0.986-0.951c-0.175-0.377-0.403-0.692-0.568-1.204c-0.383-0.449-0.581-0.848-0.896-1.326
				c0.026-0.562,0.001-1.164-0.259-1.78c-0.273-0.656-0.631-0.908-0.729-1.366c0.107-0.044,0.101-0.106,0.199-0.151
				c-0.087-0.315-0.271-0.645-0.263-0.944c-0.252-0.582-0.362-0.757-0.675-1.367c-0.461-0.525-0.94-1.37-1.566-1.881
				c-0.105-0.281-0.34-0.312-0.424-0.626c-0.065,0.022-0.092-0.039-0.111-0.101c-0.125-0.002-0.237-0.024-0.358-0.042
				c-0.081-0.138-0.198-0.203-0.249-0.4c-0.158-0.039-0.179,0.088-0.261,0.171c-0.1-0.079-0.276-0.01-0.304-0.221
				c-0.137,0.129-0.367,0.238-0.557,0.255c0.043,0.112,0.09,0.224-0.067,0.29c0.063-0.107-0.065-0.208-0.174-0.229
				c0.09,0.121-0.03,0.193,0.08,0.32c-0.193,0.045-0.063,0.163-0.163,0.231c0.102,0.176,0.159,0.34-0.065,0.442
				c-0.096-0.112-0.098-0.399-0.249-0.399c0.062,0.09,0.062,0.165-0.034,0.221c-0.086-0.104-0.22-0.114-0.304-0.22
				c-0.154-0.172-0.027-0.405-0.213-0.465c-0.318,0.105-0.065,0.34-0.18,0.49c0.143,0.033,0.002,0.093,0.099,0.212
				c-0.021,0.098,0.106,0.227-0.069,0.289c-0.06-0.047-0.035-0.25-0.15-0.187c-0.063-0.068-0.042-0.29-0.209-0.16
				c-0.064,0.174,0.125,0.48,0.123,0.56c-0.029-0.106-0.184,0.026-0.229-0.05c-0.074-0.036-0.154-0.317-0.139-0.449
				c-0.168,0.105-0.168,0.278-0.264,0.02c-0.33,0.153-0.008,0.453-0.251,0.626c-0.028-0.179-0.158-0.17-0.208-0.314
				c-0.21,0.09-0.169,0.003-0.193-0.118c-0.189,0.12-0.035,0.557-0.348,0.416c0.129,0.155,0.038,0.262-0.029,0.374
				c-0.074-0.073-0.061-0.312-0.191-0.272c0.02,0.056,0.028,0.107-0.072,0.138c-0.186-0.044-0.324-0.327-0.308-0.527
				c-0.261,0.171,0.017,0.459,0.049,0.697c-0.065,0.035-0.126,0.072-0.069,0.136c0.021,0.29,0.105,0.358,0.158,0.644
				c0.068-0.023,0.154-0.08,0.188-0.035c-0.236,0.036-0.054,0.167-0.237,0.212c-0.162-0.229-0.303-0.342-0.461-0.71
				c-0.135-0.049-0.071,0.236-0.315,0.196c-0.028-0.106-0.084-0.158-0.153-0.187c-0.146-0.098,0.015-0.4-0.191-0.272
				c0.067,0.192,0.26,0.412,0.047,0.542c-0.186-0.047-0.182-0.448-0.402-0.432c0.088,0.087-0.165,0.287,0.063,0.279
				c-0.022-0.045-0.022-0.12,0.034-0.068c0.16,0.099,0.107,0.341,0.119,0.405c-0.068,0.062-0.312,0.083-0.259,0.171
				c0.077-0.03,0.106,0.081-0.019,0.108c0.021,0.067,0.092,0.15,0.021,0.195c-0.001-0.114-0.319-0.019-0.15-0.188l-0.156-0.339
				c-0.021-0.056,0.045-0.091-0.004-0.149c-0.07-0.073-0.058-0.313-0.192-0.273c0.106,0.201,0.052,0.366,0.198,0.577
				c-0.058,0.077-0.06,0.165-0.165,0.229l0.1,0.211c-0.232,0.126-0.06,0.342-0.181,0.493c0.027,0.075,0.07,0.127,0.134,0.144
				c-0.063,0.036-0.124,0.074-0.071,0.136c0.172,0.493,0.182,0.787,0.34,1.178c0.023,0.07-0.127,0.099-0.055,0.179
				c0.047,0.204,0.204,0.196,0.25,0.4c-0.223,0.019-0.166,0.083-0.237,0.212c-0.065-0.141-0.209-0.566-0.313-0.678
				c0.166,0.865,0.709,1.852,0.998,2.773c0.076-0.011,0.149-0.015,0.21,0.007c-0.252,0.036,0.072,0.197-0.079,0.256
				c0.074,0.132,0.275,0.213,0.143,0.422c0.251-0.01,0.149,0.29,0.324,0.383c0.043,0.087-0.122,0.131-0.022,0.23
				c0.247,0.325,0.239,0.679,0.313,0.883c0.115,0.36,0.373,0.633,0.504,0.943c0.035,0.084-0.021,0.18,0.008,0.273
				c0.021,0.064,0.143,0.124,0.168,0.187c0.149,0.346,0.153,0.66,0.3,0.945c0.97,1.326,1.491,2.786,2.634,3.839
				c-0.094,0.053-0.115,0.114-0.107,0.18c0.309,0.022,0.264,0.695,0.725,0.474c0.014,0.271,0.408,0.35,0.429,0.659
				c0.065-0.032,0.146-0.101,0.183-0.058c-0.059,0.045-0.148,0.086-0.129,0.14c0.156-0.022,0.188,0.334,0.367,0.229
				c-0.179,0.061,0.084,0.233,0.082,0.239c0.027,0.102,0.027,0.222,0.189,0.287c-0.025,0.125,0.027,0.259,0.109,0.396
				c0.021,0.054-0.016,0.103-0.049,0.151c0.229,0.216,0.265,0.872,0.49,1.088c-0.125,0.067,0.021,0.158-0.066,0.229l0.174,0.238
				c0.13,0.986,0.594,2.193,1.029,3.087l0.18,0.243c0.034,0.055-0.021,0.105,0.041,0.157c0.121,0.182,0.271,0.348,0.405,0.52
				c0.044,0.049,0.106,0.006,0.147,0.079c0.236,0.277,0.461,0.625,0.722,0.79c0.024,0.115-0.051,0.234,0.052,0.351
				c0.234,0.233,0.49,0.353,0.767,0.356c-0.063,0.064,0.034,0.131,0.081,0.195c0.129,0.068,0.611,0.229,0.357,0.432
				c-0.022-0.021-0.076-0.014-0.05,0.039C321.114,159.757,321.187,159.988,321.315,160.167z M312.666,134.871
				c0.311-0.004,0.148,0.435,0.363,0.652C312.722,135.326,312.869,135.262,312.666,134.871z M313.4,135.302
				c0.15-0.131-0.064-0.156-0.101-0.363l0.166-0.077c0.066,0.212,0.048,0.23,0.175,0.381
				C313.535,135.314,313.483,135.281,313.4,135.302z"/>
		</g>
	</g>
</g>
<g>
	<g>
		<g>
			<path fill="#394CD3" d="M69.871,99.981c0.081,0.15,0.202,0.129,0.187,0.275c-0.057,0.084-0.184,0.03-0.269,0.06
				c0.119,0.329-0.098,0.603-0.21,0.844c0.192,0.295-0.039,0.525,0.079,0.81c0.131-0.11,0.003,0.046,0.076,0.102
				c0.076,0.002,0.146-0.02,0.231,0.005c-0.052,0.083-0.008,0.184,0.156,0.295c0.036-0.074-0.012-0.193,0.158-0.099
				c0.083,0.143-0.021,0.261-0.006,0.397c0.064-0.037,0.11-0.105,0.234,0.002c-0.107,0.061,0.14,0.164-0.018,0.216
				c0.402,0.733,0.675,1.479,1.376,2.31c0.27,0.202,0.425,0.395,0.625,0.588c0.413,0.293,0.975,0.623,1.282,0.75
				c0.063,0.027,0.136,0.098,0.216,0.124c0.113,0.037,0.266,0.004,0.374,0.022c0.142,0.021,0.273,0.094,0.399,0.094
				c0.142-0.08,0.322-0.014,0.468-0.096c0.108,0.13,0.152,0.006,0.25,0.079c0.106-0.033,0.207-0.09,0.337-0.029
				c1.083-0.576,2.027-1.622,2.962-2.548c0.268-0.433,0.45-0.661,0.743-1.095c0.216-0.677,0.651-1.531,1.068-1.986
				c0.024-0.069-0.13-0.097-0.058-0.183c0.394-0.611,0.697-1.183,0.967-1.805c0.294-0.618,0.519-1.292,0.736-2.108
				c0.59-0.531,0.664-1.584,0.793-2.48c-0.132-0.499-0.021-1.109-0.151-1.493c0.116-0.443,0.103-0.86,0.275-1.418
				c-0.041-0.637,0.029-1.117-0.017-1.724c0.305-0.493,0.601-1.084,0.639-1.805c0.05-0.764-0.129-1.179-0.051-1.671
				c0.114,0.005,0.133-0.063,0.239-0.063c0.04-0.352-0.005-0.761,0.114-1.063c-0.012-0.704-0.081-0.915-0.166-1.66
				c-0.234-0.715-0.499-1.734-0.97-2.416c-0.025-0.323-0.247-0.386-0.249-0.675c-0.07,0.011-0.078-0.051-0.083-0.107
				c-0.12-0.024-0.228-0.064-0.333-0.104c-0.045-0.135-0.145-0.215-0.143-0.394c-0.144-0.064-0.192,0.044-0.292,0.104
				c-0.075-0.087-0.264-0.063-0.235-0.248c-0.163,0.088-0.415,0.139-0.601,0.12c0.014,0.105,0.028,0.211-0.141,0.236
				c0.086-0.084-0.015-0.192-0.108-0.231c0.056,0.122-0.079,0.164-0.004,0.295c-0.198,0.004-0.104,0.129-0.215,0.169
				c0.055,0.172,0.069,0.323-0.177,0.37c-0.064-0.113,0.008-0.362-0.142-0.394c0.034,0.089,0.018,0.155-0.089,0.189
				c-0.059-0.106-0.185-0.143-0.234-0.248c-0.108-0.177,0.072-0.362-0.091-0.448c-0.33,0.034-0.148,0.284-0.295,0.399
				c0.128,0.056-0.021,0.079,0.041,0.2c-0.042,0.082,0.045,0.218-0.141,0.24c-0.046-0.053,0.026-0.225-0.103-0.193
				c-0.041-0.069,0.031-0.261-0.161-0.179c-0.106,0.143,0,0.446-0.021,0.511c-0.001-0.098-0.184-0.01-0.204-0.086
				c-0.064-0.045-0.07-0.304-0.021-0.415c-0.189,0.059-0.233,0.21-0.255-0.031c-0.361,0.069-0.122,0.395-0.4,0.5
				c0.015-0.161-0.113-0.182-0.125-0.314c-0.225,0.04-0.164-0.028-0.152-0.139c-0.211,0.069-0.174,0.48-0.441,0.3
				c0.086,0.159-0.028,0.233-0.124,0.319c-0.052-0.075,0.021-0.278-0.116-0.273c0.004,0.051,0.002,0.099-0.106,0.105
				c-0.167-0.071-0.233-0.346-0.165-0.516c-0.294,0.104-0.103,0.405-0.126,0.617c-0.07,0.019-0.141,0.04-0.106,0.105
				c-0.054,0.256,0.012,0.33-0.006,0.592c0.07-0.008,0.168-0.041,0.189,0.004c-0.237-0.012-0.095,0.138-0.282,0.145
				c-0.101-0.233-0.205-0.356-0.269-0.705c-0.117-0.064-0.13,0.194-0.354,0.112c0-0.1-0.04-0.153-0.102-0.193
				c-0.116-0.109,0.11-0.346-0.117-0.273c0.02,0.182,0.148,0.406-0.09,0.483c-0.167-0.074-0.065-0.425-0.277-0.447
				c0.065,0.092-0.231,0.219-0.012,0.255c-0.012-0.044,0.007-0.109,0.053-0.057c0.129,0.115,0.022,0.32,0.015,0.377
				c-0.083,0.04-0.32,0.019-0.292,0.104c0.083-0.017,0.083,0.09-0.045,0.092c0.003,0.064,0.053,0.147-0.027,0.177
				c0.027-0.104-0.303-0.074-0.101-0.192l-0.065-0.322c-0.007-0.052,0.065-0.071,0.036-0.134c-0.054-0.076,0.022-0.28-0.117-0.275
				c0.055,0.196-0.044,0.329,0.047,0.54c-0.072,0.057-0.098,0.133-0.215,0.17l0.04,0.202c-0.253,0.064-0.142,0.286-0.295,0.398
				c0.011,0.071,0.039,0.123,0.094,0.149c-0.071,0.02-0.141,0.039-0.106,0.106c0.048,0.471-0.061,0.652-0.021,0.994
				c0.003,0.06-0.149,0.058-0.105,0.125c-0.021,0.162,0.135,0.188,0.116,0.346c-0.218-0.025-0.184,0.031-0.292,0.114
				c-0.021-0.114-0.024-0.456-0.088-0.561c-0.079,0.672,0.051,1.5-0.02,2.233c0.072,0.015,0.145,0.026,0.192,0.061
				c-0.247-0.038-0.004,0.159-0.17,0.161c0.016,0.108,0.169,0.222-0.04,0.329c0.234,0.063,0.022,0.242,0.147,0.358
				c0.004,0.07-0.164,0.058-0.111,0.15c0.097,0.293-0.044,0.534-0.08,0.698c-0.064,0.276,0.04,0.537,0.015,0.787
				c-0.01,0.067-0.105,0.109-0.12,0.181c-0.011,0.051,0.068,0.128,0.064,0.183c-0.021,0.276-0.185,0.475-0.193,0.704
				c0.109,0.598,0.063,1.17,0.003,1.712c-0.032,0.553-0.086,1.08,0.064,1.642c-0.106-0.02-0.159,0.002-0.192,0.04
				c0.241,0.173-0.208,0.487,0.273,0.614c-0.17,0.143,0.071,0.391-0.113,0.549c0.066,0.022,0.172,0.03,0.172,0.072
				c-0.071-0.01-0.168-0.042-0.189-0.004c0.133,0.076-0.081,0.262,0.123,0.315c-0.173-0.071-0.091,0.158-0.097,0.16
				c-0.044,0.065-0.124,0.118-0.059,0.239c-0.106,0.038-0.157,0.13-0.191,0.234c-0.022,0.034-0.08,0.034-0.137,0.036
				c0.011,0.229-0.405,0.521-0.396,0.745c-0.133-0.054-0.089,0.074-0.202,0.045l-0.065,0.191c-0.322,0.212-0.628,0.479-0.899,0.757
				c-0.277,0.274-0.542,0.547-0.74,0.8l-0.074,0.176c-0.019,0.038-0.089,0.01-0.093,0.063c-0.053,0.128-0.123,0.246-0.185,0.368
				C70.769,97.964,70.839,98,70.8,98.037c-0.096,0.207-0.25,0.414-0.244,0.624c-0.077,0.034-0.204-0.004-0.246,0.083
				c-0.073,0.192-0.052,0.386,0.072,0.592c-0.08-0.041-0.088,0.038-0.117,0.078c0.005,0.102,0.096,0.483-0.181,0.305
				c0.011-0.016-0.022-0.058-0.053-0.032C70.098,99.797,69.954,99.873,69.871,99.981z M78.139,81.204
				c0.301,0.055,0.037,0.406,0.192,0.637C78.085,81.614,78.238,81.584,78.139,81.204z M78.741,81.716
				c0.181-0.087-0.021-0.148-0.005-0.336l0.182-0.036c0.014,0.196-0.014,0.208,0.072,0.364
				C78.867,81.754,78.826,81.712,78.741,81.716z"/>
		</g>
	</g>
</g>
<g>
	<g>
		<g>
			<path fill="#394CD3" d="M419.918,241.698c0.193-0.006,0.192-0.152,0.358-0.054c0.085,0.11,0.005,0.226,0.021,0.337
				c0.403,0.061,0.672,0.466,0.932,0.736c0.374-0.045,0.593,0.346,0.925,0.38c-0.096-0.216,0.052,0.021,0.127-0.025
				c0.02-0.087,0.009-0.178,0.055-0.264c0.079,0.106,0.195,0.113,0.359-0.006c-0.075-0.086-0.22-0.106-0.076-0.239
				c0.175-0.013,0.28,0.176,0.437,0.235c-0.027-0.094-0.093-0.191,0.052-0.268c0.041,0.151,0.207-0.065,0.234,0.144
				c0.884-0.034,1.765,0.08,2.812-0.248c0.276-0.192,0.519-0.261,0.774-0.378c0.405-0.306,0.885-0.756,1.088-1.032
				c0.04-0.058,0.136-0.1,0.181-0.176c0.064-0.106,0.063-0.297,0.104-0.41c0.056-0.146,0.157-0.255,0.188-0.398
				c-0.061-0.205,0.058-0.371-0.003-0.577c0.163-0.053,0.037-0.172,0.142-0.235c-0.015-0.14-0.054-0.282,0.039-0.399
				c-0.402-1.528-1.384-3.117-2.236-4.585c-0.4-0.487-0.645-0.784-1.09-1.331c-0.363-0.277-0.764-0.641-1.125-1.02
				c-0.372-0.354-0.702-0.725-0.91-1.058c-0.078-0.063-0.141,0.086-0.223-0.029c-1.229-1.365-2.295-2.362-4.022-3.576
				c-0.437-0.817-1.576-1.415-2.54-1.974c-0.602-0.128-1.24-0.54-1.718-0.616c-0.451-0.33-0.916-0.537-1.462-0.994
				c-0.72-0.299-1.214-0.621-1.888-0.921c-0.403-0.549-0.903-1.128-1.63-1.585c-0.771-0.488-1.305-0.566-1.761-0.939
				c0.064-0.098,0.009-0.148,0.064-0.242c-0.335-0.246-0.774-0.457-1.009-0.741c-0.714-0.412-0.951-0.515-1.725-0.916
				c-0.875-0.27-1.863-0.71-2.773-0.791c-0.288-0.182-0.518-0.075-0.831-0.318c-0.042,0.059-0.106,0.017-0.177-0.027
				c-0.108,0.065-0.23,0.109-0.347,0.157c-0.174-0.077-0.326-0.071-0.519-0.221c-0.169,0.054-0.091,0.177-0.102,0.295
				c-0.149-0.019-0.25,0.144-0.436-0.029c-0.021,0.191-0.148,0.414-0.299,0.533c0.121,0.074,0.245,0.149,0.154,0.298
				c-0.025-0.132-0.217-0.15-0.322-0.111c0.168,0.064,0.117,0.192,0.315,0.245c-0.142,0.148,0.063,0.181,0.023,0.296
				c0.222,0.104,0.4,0.217,0.274,0.433c-0.167-0.049-0.383-0.304-0.52-0.22c0.118,0.048,0.178,0.113,0.137,0.216
				c-0.151-0.044-0.278,0.021-0.434-0.03c-0.268-0.065-0.33-0.348-0.537-0.302c-0.197,0.271,0.195,0.341,0.211,0.541
				c0.149-0.048,0.07,0.081,0.245,0.136c0.058,0.099,0.263,0.146,0.152,0.297c-0.088-0.01-0.219-0.202-0.276-0.082
				c-0.106-0.026-0.254-0.236-0.305-0.028c0.069,0.192,0.472,0.361,0.528,0.435c-0.104-0.076-0.141,0.124-0.235,0.078
				c-0.093,0.01-0.372-0.195-0.457-0.324c-0.072,0.185,0.061,0.343-0.219,0.156c-0.179,0.319,0.331,0.412,0.249,0.702
				c-0.16-0.146-0.272-0.063-0.421-0.165c-0.116,0.192-0.148,0.096-0.255-0.003c-0.077,0.212,0.385,0.521,0.006,0.565
				c0.231,0.069,0.23,0.216,0.251,0.355c-0.117-0.025-0.283-0.245-0.371-0.14c0.058,0.04,0.106,0.08,0.038,0.159
				c-0.196,0.064-0.532-0.113-0.665-0.302c-0.104,0.295,0.36,0.404,0.566,0.598c-0.029,0.067-0.058,0.136,0.037,0.161
				c0.234,0.249,0.362,0.264,0.625,0.49c0.042-0.06,0.076-0.155,0.139-0.134c-0.186,0.161,0.076,0.178-0.053,0.321
				c-0.316-0.118-0.522-0.145-0.94-0.386c-0.154,0.025,0.112,0.252-0.131,0.348c-0.105-0.08-0.192-0.096-0.276-0.084
				c-0.2-0.006-0.287-0.363-0.372-0.138c0.206,0.136,0.537,0.229,0.448,0.46c-0.197,0.062-0.496-0.305-0.678-0.167
				c0.146,0.029,0.069,0.349,0.265,0.219c-0.054-0.026-0.108-0.098-0.021-0.08c0.216,0.002,0.354,0.244,0.41,0.299
				c-0.019,0.093-0.212,0.242-0.103,0.296c0.047-0.072,0.154,0.013,0.066,0.106c0.066,0.05,0.192,0.08,0.165,0.161
				c-0.087-0.104-0.293,0.16-0.276-0.084l-0.393-0.219c-0.063-0.038-0.027-0.106-0.116-0.135c-0.118-0.023-0.282-0.247-0.371-0.14
				c0.246,0.119,0.319,0.301,0.608,0.406c0.008,0.101,0.071,0.181,0.025,0.297l0.243,0.137c-0.107,0.238,0.205,0.339,0.212,0.54
				c0.082,0.051,0.158,0.071,0.227,0.057c-0.029,0.066-0.059,0.134,0.038,0.16c0.521,0.351,0.773,0.608,1.22,0.873
				c0.076,0.05-0.034,0.158,0.096,0.192c0.2,0.157,0.336,0.064,0.537,0.222c-0.186,0.142-0.082,0.165-0.045,0.324
				c-0.168-0.089-0.632-0.396-0.817-0.442c0.874,0.702,2.021,1.257,2.926,1.909c0.061-0.054,0.118-0.097,0.188-0.107
				c-0.191,0.172,0.203,0.132,0.111,0.268c0.154,0.072,0.39,0.031,0.415,0.289c0.211-0.148,0.332,0.168,0.55,0.149
				c0.1,0.054-0.017,0.184,0.143,0.214c0.44,0.146,0.685,0.455,0.876,0.606c0.342,0.255,0.748,0.361,1.071,0.572
				c0.087,0.06,0.099,0.172,0.187,0.238c0.062,0.046,0.208,0.033,0.273,0.073c0.361,0.232,0.561,0.507,0.872,0.687
				c1.733,0.659,2.988,1.78,4.603,2.23c-0.06,0.088-0.048,0.152-0.007,0.212c0.305-0.118,0.602,0.521,0.915,0.133
				c0.138,0.254,0.542,0.174,0.703,0.46c0.047-0.06,0.088-0.15,0.147-0.126c-0.033,0.065-0.105,0.141-0.06,0.184
				c0.139-0.083,0.325,0.243,0.45,0.076c-0.144,0.123,0.187,0.188,0.188,0.192c0.07,0.086,0.125,0.197,0.308,0.201
				c0.025,0.132,0.135,0.239,0.269,0.342c0.04,0.046,0.023,0.105,0.015,0.159c0.305,0.13,0.595,0.738,0.898,0.866
				c-0.099,0.105,0.079,0.142,0.018,0.235c0.085,0.06,0.165,0.119,0.241,0.184c0.42,0.929,1.175,1.937,1.729,2.691l0.217,0.192
				c0.043,0.043-0.004,0.104,0.063,0.141c0.16,0.135,0.309,0.276,0.448,0.42c0.044,0.04,0.101-0.013,0.143,0.056
				c0.242,0.233,0.479,0.531,0.741,0.652c0.03,0.106-0.036,0.228,0.064,0.323c0.234,0.188,0.46,0.283,0.731,0.266
				c-0.063,0.065,0.029,0.122,0.075,0.184c0.12,0.056,0.589,0.18,0.333,0.382c-0.018-0.021-0.07-0.009-0.047,0.04
				C419.733,241.328,419.801,241.537,419.918,241.698z M399.245,221.03c0.273-0.174,0.457,0.313,0.813,0.386
				C399.637,221.407,399.717,221.27,399.245,221.03z M400.218,221.013c0.035-0.197-0.175-0.105-0.361-0.271l0.09-0.159
				c0.22,0.149,0.215,0.184,0.443,0.243C400.344,220.95,400.273,220.95,400.218,221.013z"/>
		</g>
	</g>
</g>
<g>
	<g>
		
			<ellipse fill="none" stroke="#394CD3" stroke-width="2.1955" stroke-linecap="round" stroke-linejoin="round" stroke-miterlimit="10" cx="43.54" cy="174.597" rx="10.978" ry="4.391"/>
		
			<path fill="none" stroke="#394CD3" stroke-width="2.1955" stroke-linecap="round" stroke-linejoin="round" stroke-miterlimit="10" d="
			M54.518,174.598v7.316v-1.168v2.633c0,2.425-4.917,4.392-10.978,4.392s-10.977-1.967-10.977-4.392l0,0v-1.465v-7.316"/>
	</g>
	<g>
		
			<ellipse fill="none" stroke="#394CD3" stroke-width="2.1955" stroke-linecap="round" stroke-linejoin="round" stroke-miterlimit="10" cx="98.428" cy="174.597" rx="10.978" ry="4.391"/>
		
			<path fill="none" stroke="#394CD3" stroke-width="2.1955" stroke-linecap="round" stroke-linejoin="round" stroke-miterlimit="10" d="
			M109.406,174.598v7.316v-1.168v2.633c0,2.425-4.917,4.392-10.978,4.392c-6.061,0-10.977-1.967-10.977-4.392l0,0v-1.465v-7.316"/>
	</g>
	<g>
		
			<ellipse fill="none" stroke="#394CD3" stroke-width="2.1955" stroke-linecap="round" stroke-linejoin="round" stroke-miterlimit="10" cx="71.122" cy="183.38" rx="10.977" ry="4.391"/>
		
			<path fill="none" stroke="#394CD3" stroke-width="2.1955" stroke-linecap="round" stroke-linejoin="round" stroke-miterlimit="10" d="
			M82.099,183.379v7.322v-1.174v2.634c0,2.426-4.917,4.392-10.977,4.392c-6.062,0-10.978-1.966-10.978-4.392l0,0v-1.462v-7.32"/>
	</g>
	<g>
		
			<ellipse fill="none" stroke="#394CD3" stroke-width="2.1955" stroke-linecap="round" stroke-linejoin="round" stroke-miterlimit="10" cx="71.122" cy="164.718" rx="10.977" ry="4.391"/>
		
			<path fill="none" stroke="#394CD3" stroke-width="2.1955" stroke-linecap="round" stroke-linejoin="round" stroke-miterlimit="10" d="
			M82.099,164.718v7.317v-1.169v2.634c0,2.424-4.917,4.391-10.977,4.391c-6.062,0-10.978-1.967-10.978-4.391l0,0v-1.465v-7.317"/>
	</g>
	
		<polygon fill="none" stroke="#394CD3" stroke-width="2.1955" stroke-linecap="round" stroke-linejoin="round" stroke-miterlimit="10" points="
		20.487,184.476 70.984,203.14 70.984,243.758 20.487,225.097 	"/>
	<g>
		
			<line fill="none" stroke="#394CD3" stroke-width="2.1955" stroke-linecap="round" stroke-linejoin="round" stroke-miterlimit="10" x1="109.571" y1="181.202" x2="120.659" y2="185.301"/>
		
			<line fill="none" stroke="#394CD3" stroke-width="2.1955" stroke-linecap="round" stroke-linejoin="round" stroke-miterlimit="10" x1="82.878" y1="171.303" x2="87.844" y2="173.174"/>
	</g>
	<g>
		
			<line fill="none" stroke="#394CD3" stroke-width="2.1955" stroke-linecap="round" stroke-linejoin="round" stroke-miterlimit="10" x1="32.05" y1="179.997" x2="20.669" y2="184.203"/>
		
			<line fill="none" stroke="#394CD3" stroke-width="2.1955" stroke-linecap="round" stroke-linejoin="round" stroke-miterlimit="10" x1="59.458" y1="170.932" x2="54.359" y2="172.852"/>
	</g>
	
		<polygon fill="none" stroke="#394CD3" stroke-width="2.1955" stroke-linecap="round" stroke-linejoin="round" stroke-miterlimit="10" points="
		121.482,185.574 70.617,203.14 70.617,243.758 121.482,226.195 	"/>
	
		<path fill="none" stroke="#394CD3" stroke-width="2.1955" stroke-linecap="round" stroke-linejoin="round" stroke-miterlimit="10" d="
		M70.984,243.758"/>
	
		<path fill="none" stroke="#394CD3" stroke-width="2.1955" stroke-linecap="round" stroke-linejoin="round" stroke-miterlimit="10" d="
		M81.066,188.982"/>
</g>
<g>
	<polygon fill="#F7A328" points="275.763,235.865 266.912,232.624 264.036,231.56 225.946,217.398 176.308,235.865 176.308,274.781 
		225.676,294.1 225.676,294.241 225.857,294.171 226.035,294.241 226.035,294.102 275.763,274.781 	"/>
	<g>
		<g>
			<polyline fill="#FFB640" points="225.676,255.452 275.763,235.992 266.912,232.751 264.036,231.688 225.946,217.525 
				176.308,235.992 225.676,254.37 			"/>
			<line fill="none" x1="237.747" y1="221.811" x2="242.641" y2="223.655"/>
		</g>
		<path fill="#F7A328" d="M209.82,225.055v7.206v-1.151v2.594c0,2.387-4.842,4.323-10.81,4.323c-5.971,0-10.811-1.937-10.811-4.323
			l0,0v-1.442v-7.206"/>
	</g>
	<g>
		<path fill="#F7A328" d="M263.872,225.055v7.206v-1.151v2.594c0,2.387-4.843,4.323-10.811,4.323c-5.97,0-10.81-1.937-10.81-4.323
			l0,0v-1.442v-7.206"/>
	</g>
	<g>
		<path fill="#F7A328" d="M236.981,233.703v7.206v-1.151v2.593c0,2.389-4.842,4.324-10.81,4.324c-5.97,0-10.811-1.936-10.811-4.324
			l0,0v-1.441v-7.206"/>
	</g>
	<g>
		<path fill="#F7A328" d="M236.981,215.325v7.206v-1.15v2.593c0,2.389-4.842,4.323-10.81,4.323c-5.97,0-10.811-1.935-10.811-4.323
			l0,0v-1.442v-7.206"/>
	</g>
	<ellipse fill="#FFB640" cx="199.01" cy="225.054" rx="10.81" ry="4.324"/>
	<ellipse fill="#FFB640" cx="253.061" cy="225.054" rx="10.811" ry="4.324"/>
	<ellipse fill="#FFB640" cx="226.171" cy="233.702" rx="10.81" ry="4.324"/>
	<ellipse fill="#FFB640" cx="226.171" cy="215.325" rx="10.81" ry="4.324"/>
	<g>
		<line fill="none" x1="187.698" y1="231.452" x2="176.489" y2="235.594"/>
		<line fill="none" x1="214.685" y1="221.446" x2="209.663" y2="223.335"/>
	</g>
	<polygon fill="#FFB640" points="275.763,235.992 225.676,254.37 225.676,294.367 275.763,274.91 	"/>
	<path fill="#F7A328" d="M226.035,294.241"/>
	<path fill="#F7A328" d="M235.965,239.221"/>
</g>
<g>
	<g>
		<polygon fill="#EBEDE4" points="134.337,113.352 134.337,150.131 138.424,152.175 142.51,150.131 142.51,113.352 		"/>
		<polygon fill="#939390" points="138.424,152.175 134.337,150.131 134.337,125.612 134.337,109.265 138.424,109.265 		"/>
	</g>
	<path fill="#FF553E" d="M150.683,117.439c0,6.771-5.489,12.26-12.26,12.26l0,0c-6.772,0-12.26-5.488-12.26-12.26V64.313
		c0-6.77,5.487-12.26,12.26-12.26l0,0c6.771,0,12.26,5.49,12.26,12.26V117.439z"/>
	<path fill="#FFB640" d="M126.164,97.006c0,6.771,5.487,12.26,12.26,12.26l0,0c6.771,0,12.26-5.488,12.26-12.26V52.053
		c0-6.77-5.489-12.26-12.26-12.26l0,0c-6.772,0-12.26,5.49-12.26,12.26V97.006z"/>
	<path fill="#FFB640" d="M146.597,117.439c0,2.257-1.83,4.086-4.086,4.086l0,0c-2.257,0-4.087-1.83-4.087-4.086V68.4
		c0-2.257,1.83-4.086,4.087-4.086l0,0c2.256,0,4.086,1.83,4.086,4.086V117.439z"/>
</g>
<path fill="none" stroke="#FF553E" stroke-width="8.1731" stroke-miterlimit="10" d="M99.991,213.525
	c20.5-1.748,38.54,13.451,40.285,33.951c1.748,20.506-13.455,38.542-33.955,40.29"/>
<g>
	<g>
		<g>
			
				<ellipse fill="none" stroke="#FF553E" stroke-width="2.1064" stroke-linejoin="round" stroke-miterlimit="10" cx="402.191" cy="130.287" rx="10.531" ry="4.212"/>
			<path fill="none" stroke="#FF553E" stroke-width="2.1064" stroke-linejoin="round" stroke-miterlimit="10" d="M412.722,130.287
				v7.021v-1.122v2.527c0,2.327-4.718,4.212-10.531,4.212c-5.815,0-10.532-1.886-10.532-4.212l0,0v-1.405v-7.021"/>
		</g>
		<g>
			
				<ellipse fill="none" stroke="#FF553E" stroke-width="2.1064" stroke-linejoin="round" stroke-miterlimit="10" cx="427.469" cy="138.713" rx="10.531" ry="4.213"/>
			<path fill="none" stroke="#FF553E" stroke-width="2.1064" stroke-linejoin="round" stroke-miterlimit="10" d="M438,138.713v7.021
				v-1.122v2.527c0,2.327-4.717,4.214-10.531,4.214c-5.816,0-10.532-1.887-10.532-4.214l0,0v-1.405v-7.021"/>
		</g>
		<g>
			
				<ellipse fill="none" stroke="#FF553E" stroke-width="2.1064" stroke-linejoin="round" stroke-miterlimit="10" cx="452.745" cy="147.139" rx="10.533" ry="4.214"/>
			<path fill="none" stroke="#FF553E" stroke-width="2.1064" stroke-linejoin="round" stroke-miterlimit="10" d="M463.278,147.139
				v7.02v-1.122v2.527c0,2.328-4.716,4.213-10.533,4.213c-5.816,0-10.532-1.886-10.532-4.213l0,0v-1.405v-7.02"/>
		</g>
		<polygon fill="none" stroke="#FF553E" stroke-width="2.1064" stroke-linejoin="round" stroke-miterlimit="10" points="
			374.807,138.713 455.905,167.15 455.905,209.279 374.807,179.789 		"/>
		
			<line fill="none" stroke="#FF553E" stroke-width="2.1064" stroke-linejoin="round" stroke-miterlimit="10" x1="455.905" y1="167.15" x2="481.182" y2="158.725"/>
		<polyline fill="none" stroke="#FF553E" stroke-width="2.1064" stroke-linejoin="round" stroke-miterlimit="10" points="
			463.469,152.514 481.182,158.725 481.182,200.853 455.905,209.279 		"/>
		
			<line fill="none" stroke="#FF553E" stroke-width="2.1064" stroke-linejoin="round" stroke-miterlimit="10" x1="438.011" y1="143.584" x2="442.719" y2="145.239"/>
		
			<line fill="none" stroke="#FF553E" stroke-width="2.1064" stroke-linejoin="round" stroke-miterlimit="10" x1="412.501" y1="134.641" x2="417.692" y2="136.461"/>
		
			<line fill="none" stroke="#FF553E" stroke-width="2.1064" stroke-linejoin="round" stroke-miterlimit="10" x1="374.807" y1="138.713" x2="391.331" y2="133.206"/>
	</g>
	
		<line fill="none" stroke="#FF553E" stroke-width="2.1064" stroke-linejoin="round" stroke-miterlimit="10" x1="478.023" y1="113.436" x2="478.023" y2="126.075"/>
	
		<line fill="none" stroke="#FF553E" stroke-width="2.1064" stroke-linejoin="round" stroke-miterlimit="10" x1="515.938" y1="163.99" x2="528.577" y2="163.99"/>
	
		<line fill="none" stroke="#FF553E" stroke-width="2.1064" stroke-linejoin="round" stroke-miterlimit="10" x1="507.513" y1="134.5" x2="516.447" y2="125.564"/>
</g>
<g>
	<g>
		<polygon fill="#CBCEBC" points="411.908,72.214 403.132,75.605 354.726,54.963 354.726,49.052 411.969,66.426 		"/>
		<polygon fill="#EBEDE4" points="362.885,45.799 411.969,66.426 403.132,69.694 354.355,49.052 		"/>
		<polygon fill="#ADAF9E" points="403.132,69.694 403.132,75.605 354.355,54.963 354.355,49.052 		"/>
	</g>
	<g>
		<polygon fill="#CBCEBC" points="401.203,76.455 392.427,79.846 344.021,59.205 344.021,53.294 401.265,70.667 		"/>
		<polygon fill="#EBEDE4" points="352.182,50.039 401.265,70.667 392.427,73.935 343.652,53.294 		"/>
		<polygon fill="#ADAF9E" points="392.427,73.935 392.427,79.846 343.652,59.205 343.652,53.294 		"/>
	</g>
	<g>
		<polygon fill="#243CB5" points="384.224,60.918 380.493,62.657 351.419,50.393 351.419,47.941 384.173,58.978 		"/>
		<polygon fill="#394CD3" points="355.098,46.714 384.173,58.978 380.876,60.461 351.419,47.941 		"/>
	</g>
	<g>
		<polygon fill="#CBCEBC" points="390.453,80.77 381.677,84.161 333.272,63.519 333.272,57.609 390.513,74.982 		"/>
		<polygon fill="#EBEDE4" points="341.431,54.355 390.513,74.982 381.677,78.25 332.901,57.609 		"/>
		<polygon fill="#ADAF9E" points="381.677,78.25 381.677,84.161 332.901,63.519 332.901,57.609 		"/>
	</g>
	<g>
		<polygon fill="#CBCEBC" points="379.748,85.011 370.971,88.403 322.567,67.761 322.567,61.85 379.81,79.223 		"/>
		<polygon fill="#EBEDE4" points="330.728,58.595 379.81,79.223 370.971,82.491 322.198,61.85 		"/>
		<polygon fill="#ADAF9E" points="370.971,82.491 370.971,88.403 322.198,67.761 322.198,61.85 		"/>
	</g>
	<g>
		<polygon fill="#243CB5" points="373.242,65.388 369.51,67.127 340.436,54.863 340.436,52.411 373.19,63.448 		"/>
		<polygon fill="#394CD3" points="344.116,51.184 373.19,63.448 369.893,64.931 340.436,52.411 		"/>
	</g>
	<g>
		<polygon fill="#CBCEBC" points="369.254,89.199 360.478,92.59 312.073,71.948 312.073,66.037 369.315,83.41 		"/>
		<polygon fill="#EBEDE4" points="320.232,62.784 369.315,83.41 360.478,86.679 311.702,66.037 		"/>
		<polygon fill="#ADAF9E" points="360.478,86.679 360.478,92.59 311.702,71.948 311.702,66.037 		"/>
	</g>
	<g>
		<polygon fill="#CBCEBC" points="358.549,93.44 349.772,96.831 301.367,76.19 301.367,70.279 358.611,87.652 		"/>
		<polygon fill="#EBEDE4" points="309.529,67.024 358.611,87.652 349.772,90.92 300.998,70.279 		"/>
		<polygon fill="#ADAF9E" points="349.772,90.92 349.772,96.831 300.998,76.19 300.998,70.279 		"/>
	</g>
	<g>
		<polygon fill="#243CB5" points="351.787,73.817 348.056,75.555 318.982,63.292 318.982,60.839 351.735,71.876 		"/>
		<polygon fill="#394CD3" points="322.662,59.612 351.735,71.876 348.439,73.36 318.982,60.839 		"/>
	</g>
	<g>
		<polygon fill="#243CB5" points="341.826,78.158 338.094,79.897 309.021,67.634 309.021,65.181 341.774,76.218 		"/>
		<polygon fill="#394CD3" points="312.701,63.954 341.774,76.218 338.478,77.701 309.021,65.181 		"/>
	</g>
	<g>
		<polygon fill="#CBCEBC" points="347.8,97.627 339.024,101.019 290.618,80.376 290.618,74.466 347.86,91.839 		"/>
		<polygon fill="#EBEDE4" points="298.778,71.212 347.86,91.839 339.024,95.107 290.247,74.466 		"/>
		<polygon fill="#ADAF9E" points="339.024,95.107 339.024,101.019 290.247,80.376 290.247,74.466 		"/>
	</g>
	<g>
		<polygon fill="#CBCEBC" points="337.094,101.868 328.317,105.26 279.913,84.618 279.913,78.707 337.157,96.08 		"/>
		<polygon fill="#EBEDE4" points="288.074,75.452 337.157,96.08 328.317,99.348 279.544,78.707 		"/>
		<polygon fill="#ADAF9E" points="328.317,99.348 328.317,105.26 279.544,84.618 279.544,78.707 		"/>
	</g>
	<g>
		<polygon fill="#243CB5" points="330.333,82.245 326.601,83.984 297.528,71.72 297.528,69.268 330.281,80.304 		"/>
		<polygon fill="#394CD3" points="301.207,68.041 330.281,80.304 326.984,81.788 297.528,69.268 		"/>
	</g>
	<g>
		<polygon fill="#CBCEBC" points="326.345,105.928 317.569,109.32 269.164,88.677 269.164,82.767 326.406,100.139 		"/>
		<polygon fill="#EBEDE4" points="277.323,79.513 326.406,100.139 317.569,103.408 268.793,82.767 		"/>
		<polygon fill="#ADAF9E" points="317.569,103.408 317.569,109.32 268.793,88.677 268.793,82.767 		"/>
	</g>
	<g>
		<polygon fill="#243CB5" points="308.879,90.546 305.147,92.285 276.073,80.021 276.073,77.569 308.826,88.605 		"/>
		<polygon fill="#394CD3" points="279.753,76.342 308.826,88.605 305.53,90.089 276.073,77.569 		"/>
	</g>
</g>
</svg>
