<?xml version="1.0" encoding="utf-8"?>
<!-- Generator: Adobe Illustrator 16.0.0, SVG Export Plug-In . SVG Version: 6.00 Build 0)  -->
<!DOCTYPE svg PUBLIC "-//W3C//DTD SVG 1.1//EN" "http://www.w3.org/Graphics/SVG/1.1/DTD/svg11.dtd">
<svg version="1.1" id="Layer_1" xmlns="http://www.w3.org/2000/svg" xmlns:xlink="http://www.w3.org/1999/xlink" x="0px" y="0px"
	 width="1079px" height="451px" viewBox="123.5 0 1079 451" enable-background="new 123.5 0 1079 451" xml:space="preserve">
<circle fill="#394CD3" cx="286.788" cy="323.448" r="27.179"/>
<circle fill="#2239AA" cx="288.428" cy="309.565" r="5.783"/>
<circle fill="#2239AA" cx="297.39" cy="328.651" r="5.783"/>
<circle fill="#2239AA" cx="275.223" cy="330.001" r="3.277"/>
<circle fill="#2239AA" cx="304.33" cy="314.385" r="3.277"/>
<circle fill="#2239AA" cx="285.125" cy="322.816" r="2.417"/>
<circle fill="#2239AA" cx="274.976" cy="311.637" r="2.417"/>
<circle fill="#2239AA" cx="284.668" cy="342.53" r="3.277"/>
<circle fill="#FFE576" cx="806.771" cy="55.797" r="2.75"/>
<linearGradient id="SVGID_1_" gradientUnits="userSpaceOnUse" x1="-461.8621" y1="602.6946" x2="-556.3953" y2="602.6946" gradientTransform="matrix(1 -0.0018 0.0018 1 1363.4551 -547.9016)">
	<stop  offset="0" style="stop-color:#FFFFFF;stop-opacity:0"/>
	<stop  offset="1" style="stop-color:#FFFFFF"/>
</linearGradient>
<polygon opacity="0.8" fill="url(#SVGID_1_)" enable-background="new    " points="808.141,53.474 902.674,53.301 902.681,57.94 
	808.15,58.115 "/>
<g>
	<g>
		<path fill="#394CD3" d="M275.532,174.094c-2.778-4.397-6.991-7.484-9.949-11.726c-4.258-6.104-0.066-13.04,0.229-19.509
			c0.265-5.724-2.01-10.203-4.269-15.321c-4.006-9.095-3.019-17.749,5.036-24.033c4.297-3.354,9.182-5.653,12.839-9.794
			c3.374-3.816,5.593-8.819,10.095-11.496c4.979-2.958,12.168-1.196,17.479-0.28c5.67,0.979,10.686,1.2,16.021-1.2
			c5.467-2.462,9.67-6.023,15.678-7.405c5.723-1.314,11.688-1.079,17.479-1.859c7.938-1.071,13.604-6.279,12.602-14.504
			c-1.158-9.514-10.146-16.229-19.086-17.448c-4.396-0.603-9.063,1.117-12.545,3.741c-3.002,2.264-5.76,7.323-9.875,7.153
			c-2.975-0.123-6.059-2.521-8.527-3.916c-2.694-1.521-5.395-2.989-8.252-4.188c-5.445-2.286-10.909-1.7-16.265,0.479
			c-4.89,1.989-8.769,5.961-12.683,9.354c-5.307,4.602-10.789,6.597-17.754,6.874c-8.521,0.341-20.495-1.894-26.619,5.837
			c-2.424,3.063-4.396,6.825-3.559,10.862c1.073,5.166,4.813,9.635,4.939,15.004c0.152,6.488-9.448,11.491-13.961,14.577
			c-3.854,2.637-9.402,5.975-9.896,11.145c-0.571,6.052,7.082,9.734,11.313,12.221c6.308,3.7,11.846,8.436,7.396,16.352
			c-2.23,3.969-6.343,6.592-8.784,10.453c-2.034,3.216-2.093,7.725-0.261,11.038c2.404,4.354,6.37,5.938,11.128,6.575
			c6.349,0.851,13.05-0.781,18.729,2.813c4.66,2.944,8.895,8.182,14.783,5.111c0.795-0.415,0.472-2.499-0.42-2.035
			c-5.955,3.104-10.229-3.16-14.993-5.734c-4.146-2.235-8.933-1.896-13.52-1.991c-5.271-0.108-10.914-0.566-14.199-5.237
			c-4.732-6.727,2.537-12.368,6.544-16.84c5.075-5.671,5.704-13.313-0.087-18.569c-4.157-3.771-20.235-8.919-15.108-16.618
			c5.478-8.227,24.817-12.369,22.606-24.883c-0.918-5.194-4.429-9.607-4.977-14.834c-0.908-8.678,9.272-12.405,15.938-12.981
			c10.661-0.921,20.146,1.238,29.354-5.568c4.939-3.654,8.851-8.194,14.498-10.884c7.355-3.502,14.155-1.471,20.918,2.133
			c3.967,2.11,8.504,6.059,13.297,5.526c2.979-0.328,5.215-4.099,7.193-5.945c10.978-10.256,28.422-2.942,31.396,11.021
			c3.086,14.484-21.832,12.043-29.924,13.903c-4.98,1.146-9.188,3.781-13.473,6.452c-5.833,3.642-12.113,2.76-18.496,1.658
			c-5.131-0.885-10.525-1.688-15.525,0.16c-3.746,1.388-6.146,5.181-8.357,8.265c-3.77,5.249-8.116,8.454-13.44,12.007
			c-4.269,2.848-7.214,5.866-9.39,10.494c-1.961,4.171-1.604,9.41-0.166,13.664c2.578,7.606,6.91,13.771,5.17,22.146
			c-1.079,5.203-2.28,10.035-0.448,15.223c1.979,5.604,8.091,9.167,11.193,14.083C275.268,176.698,276,174.835,275.532,174.094
			L275.532,174.094z"/>
	</g>
</g>
<circle opacity="0.6" fill="#FFE576" enable-background="new    " cx="856.844" cy="33.623" r="2.65"/>
<linearGradient id="SVGID_2_" gradientUnits="userSpaceOnUse" x1="-458.2385" y1="580.6106" x2="-507.2102" y2="580.6106" gradientTransform="matrix(1 -0.0018 0.0018 1 1363.4551 -547.9016)">
	<stop  offset="0" style="stop-color:#FFFFFF;stop-opacity:0"/>
	<stop  offset="1" style="stop-color:#FFFFFF"/>
</linearGradient>
<polygon opacity="0.6" fill="url(#SVGID_2_)" enable-background="new    " points="857.219,31.918 906.191,31.827 906.197,35.236 
	857.225,35.326 "/>
<circle opacity="0.6" fill="#FFFFFF" enable-background="new    " cx="856.211" cy="33.498" r="1.767"/>
<circle opacity="0.6" fill="#FFE576" enable-background="new    " cx="528.618" cy="349.609" r="2.649"/>
<linearGradient id="SVGID_3_" gradientUnits="userSpaceOnUse" x1="-788.3523" y1="882.6086" x2="-837.323" y2="882.6086" gradientTransform="matrix(1 0 0 1 1363 -533)">
	<stop  offset="0" style="stop-color:#FFFFFF;stop-opacity:0"/>
	<stop  offset="1" style="stop-color:#FFF9FF"/>
</linearGradient>
<rect x="525.677" y="347.906" opacity="0.6" fill="url(#SVGID_3_)" enable-background="new    " width="48.971" height="3.406"/>
<circle opacity="0.6" fill="#FFFFFF" enable-background="new    " cx="529.5" cy="349.609" r="1.767"/>
<rect x="233.076" y="-269.219" display="none" fill="none" stroke="#394CD3" stroke-width="2" stroke-miterlimit="10" width="407.997" height="239.729"/>
<path fill="#E59123" d="M500.5,178.664c0,0-1.755-1.37-5.964-1.827s-5.536-2.67-8.065-5.479c-1.834-2.036-5.637-8.071-5.637-3.855
	c0,7.333,3.563,12.342,5.666,14.167c2.104,1.827,7.1,4.762,8.5,7.5c1.402,2.74,3.396,0,3.396,0L500.5,178.664z"/>
<path fill="#E8921F" d="M527.815,235.795c0,0,30.006-8.396,35.692-9.052c5.686-0.656,8.479,3.146,10.67,4.238
	c2.187,1.097,7.83,3.762,7.83,3.762s0.624,3.219-5.5,3c-6.124-0.222-9.984-4.572-9.984-4.572s-3.717,2.624-12.684,5.248
	c-8.97,2.625-19.245,6.344-19.245,6.344l-17.936-7.653L527.815,235.795z"/>
<path fill="#D68522" d="M427.375,266.78c-5.276,4.977-10.086,3.213-10.086,3.213s-3.594,0.794-4.438,2.116
	c-0.852,1.325-12.254,14.508-14.85,17.81c-2.75,3.5-2.94,5.579-4.5,8.25c-1.75,3-1.5,8.5,4.5,5.25c3.504-1.896,3.75-6.5,5-9
	c1.931-3.856,8.742-11.487,11.75-12.75c3.01-1.264,8.066-2.367,10.75-1.75c2.684,0.62,19.854,8.729,32.798,0.201
	c12.942-8.523-10.073-33.51-11.17-33.001C446.031,247.625,427.375,266.78,427.375,266.78z"/>
<path fill="#FFB640" d="M530,236.667c0,0-4.5,5.5,4.5,18.5s11,16.5,9.5,16s-30-10.5-32-10.5s-2-24-2-24H530z"/>
<path fill="#FFB640" d="M551.019,272.472l-21.296-16.758c3.271-4.799,5.415-9.938,6.276-15.549
	c1.229-7.989-3.021-17.864-6.479-24.294c-1.782-8.944-5.066-20.562-4.354-21.373c7-7.999,9.807-14.691,10.331-17.333
	c0.5-2.5,0.5-4,0.5-4l-0.821,0.771c0.702-1.268,1.211-2.688,1.321-4.271c0.5-7-2.5-10-2.5-10l-12.166,8.167
	c0,0-26.834,1.833-27.834,19.833c-0.355,6.447,1.5,13.833,0.835,25.5c-2.53,4.722-4.794,6.359-13.669,13.333
	c-14,11-38.166,10.667-46.666,17.667c-0.268,0.221-0.521,0.447-0.767,0.688c-3.375-0.965-8.566-5.021-15.233-13.688
	c-1.718-2.23-3.293-5.121-4.714-8.31c-5.594-12.538-8.786-29.69-8.786-29.69s1.167,11.833,1.167,19.333s2.5,16.167,8,23.667
	s12.333,12.333,16.667,16.667c-2.317,6.104-0.654,19.054,2.666,25.333c-0.188,0.243,4.965,0.081,7.667,0.334
	c10.667,1,47.999-1.001,60.999-7.001c5.416-2.5,11.092-5.67,14.668-9.333c6.271,4.013,14.832,9.014,17.332,10.667
	c4.659,3.087,25.346,12.048,30.668,13c5.322,0.949,7-2.334,7-2.334S557.483,277.29,551.019,272.472z"/>
<g display="none">
	<g display="inline">
		<g>
			<g>
				<g>
					<defs>
						<path id="SVGID_4_" d="M456.019,296.805l-21.296-16.758c3.271-4.799,5.415-9.938,6.276-15.549
							c1.229-7.989-3.021-17.864-6.479-24.294c-1.781-8.944-3.389-17.136-3.521-18.206c-0.5-4,8.973-17.858,9.5-20.5
							c0.5-2.5,0.5-4,0.5-4l-0.823,0.771c0.702-1.268,1.211-2.688,1.323-4.271c0.5-7-2.5-10-2.5-10l-12.168,8.167
							c0,0-26.833,1.833-27.833,19.833c-0.356,6.447,1.232,16.372,3.053,25.438c-2.531,4.72-5.18,12.09-14.053,19.063
							c-14,11-40,5-48.5,12c-0.268,0.221-0.521,0.447-0.767,0.688c-3.375-0.965-7.354-3.169-11.233-8.188
							c-8.5-11-17.5-43.5-17.5-43.5s-7.5,6-7.5,13.5s0,18,5.5,25.5s13.5,13,16,14.5c1.852,1.107,8.349,2.49,11.604,3.139
							c-2.318,6.104-1.363,14.354,1.958,20.635c-0.188,0.243-0.368,0.488-0.563,0.729c-6.5,8-14.5,13.5-15,17s-5.5,12.5-11,20
							s1.5,17,2,15.5s6-13,11.5-21.5s13.5-10.5,15-10.5s10,0.5,17-3.5c0,0,7.974-3.601,9.291-5.349
							c18.497,0.811,41.261-3.466,50.377-9.651c4.938-3.352,6.089-2.67,9.666-6.333c6.271,4.013,10.834,4.347,13.334,6
							c4.658,3.087,24.588,14.687,29.908,15.639c5.324,0.949,7.373-2.627,7.373-2.627S462.483,301.621,456.019,296.805z"/>
					</defs>
					<clipPath id="SVGID_5_">
						<use xlink:href="#SVGID_4_"  overflow="visible"/>
					</clipPath>
					<g clip-path="url(#SVGID_5_)">
						<path fill="#EBEDE4" d="M437.166,177.167c-6.668,2.667-19.334,6-22,8c-2.668,2-7.334,6-9.334,8s-4,5.333-4,5.333
							s6-4.667,8-1.333s10-8.667,14-6.667s11.334,29.333,13.334,30.667s0.666,8.001,4.666,0.667s14.668-8.667,8-20.667
							C443.166,189.167,437.166,177.167,437.166,177.167z"/>
						<path fill="#EBEDE4" d="M461.832,258.5c0,9.571-2.796,18.667-12,18.667c-9.203,0-18.668-11.096-18.668-20.667
							c0-9.57-6.867-38.5,2.334-38.5C442.702,218,461.832,248.928,461.832,258.5z"/>
						<path fill="#EBEDE4" d="M397,245c-3.832,3.333-0.334,12.167-5,17.5c-4.668,5.333-11.502,10-22.834,10
							c-11.334,0-13.334,2-19.334-1.333S340.5,266.5,338.5,264.5s10-8.666,12-8.666S397,245,397,245z"/>
						<path fill="#EBEDE4" d="M473.5,301c-7,5-13.5,5.5-12.5,10.5s3.5,8.5,7.5,7.5s4.5-2,6-4.5s3.5-7.5,3.5-7.5L473.5,301z"/>
						<path fill="#EBEDE4" d="M426.5,294c-1.5-0.5-6.5-2-11.5-1s-5,4-14,4.5s-12-7-18-8s-11.5,3-15,9.5
							c-1.44,2.68-1.42,2.809-2.209,8.151C365,312.496,377.5,321,387.5,317.5S426.5,294,426.5,294z"/>
						<path fill="#894E40" d="M317.5,269.5c-5-8-6-9-5.5-17s4-6,5.5-13.5s2-8,2-12.5s-8-17-9.5-16s-18.5,2-15.5,17.5
							s5,27.5,10.5,33.5S317.5,269.5,317.5,269.5z"/>
					</g>
				</g>
			</g>
		</g>
	</g>
</g>
<path fill="#E59123" d="M498.832,179.167c0,0,3.935-3.513,6.668-8c4.091-6.712,10-11,11.666-15c1.111-2.668-3.332,13.667-4.166,17.5
	c-1.212,5.569-1.879,5.334-3.834,7.833C507.213,184,498.832,179.167,498.832,179.167z"/>
<ellipse fill="#2D1F1E" stroke="#2D1F1E" stroke-width="0.6875" stroke-miterlimit="10" cx="519.5" cy="174.886" rx="1.549" ry="1.719"/>
<g>
	<g>
		<path fill="#2D1F1E" d="M528.412,183.19c3.188-1.664,5.379-4.395,7.354-7.328c0.582-0.864-0.354-2.979-1.194-1.726
			c-1.788,2.66-3.754,5.16-6.646,6.672C526.99,181.295,527.37,183.734,528.412,183.19L528.412,183.19z"/>
	</g>
</g>
<path fill="#F95E21" d="M565.657,107.664c-0.652,5.188-5.39,8.867-10.578,8.211c-5.185-0.651-8.865-5.39-8.208-10.576
	c0.323-2.564,1.644-4.758,3.524-6.246c1.922-1.52,4.429-2.295,7.053-1.965C562.635,97.74,566.313,102.476,565.657,107.664z"/>
<linearGradient id="SVGID_6_" gradientUnits="userSpaceOnUse" x1="-886.7004" y1="508.9661" x2="-776.0295" y2="508.9661" gradientTransform="matrix(0.9921 0.1249 -0.1249 0.9921 1499.3451 -264.9459)">
	<stop  offset="0.0161" style="stop-color:#E92700"/>
	<stop  offset="1" style="stop-color:#FFFFFF;stop-opacity:0"/>
</linearGradient>
<path opacity="0.3" fill="url(#SVGID_6_)" enable-background="new    " d="M559.68,100.557c0,0,45.824,8.289,80.896,41.932
	c32.293,30.98,20.189,22.595,20.189,22.595l-6.978,5.707c0,0-7.282-9.75-30.453-27.445c-25.286-19.312-65.091-31.379-65.091-31.379
	L559.68,100.557z"/>
<path fill="#E0402F" d="M307,45.5"/>
<g>
	<path fill="#EBEDE4" d="M278.314,168.454c-2.486-3.428-9.216-2.783-15.022,1.438c-5.652,4.106-8.341,10.082-6.187,13.56
		l-0.021,0.017l16.65,22.926l20.479-15.905l-13.462-18.961C280.65,170.66,278.811,169.135,278.314,168.454z"/>
	
		<ellipse transform="matrix(0.8091 -0.5877 0.5877 0.8091 -62.2034 204.5406)" fill="#DBB3A5" cx="283.71" cy="198.009" rx="13" ry="7.668"/>
	<g>
		<g>
			<path fill="#EBEDE4" d="M261.197,184.75c-3.756-0.127-8.09,0.479-10.785,3.36c-2.533,2.708-1.52,6.661,0.604,9.218
				c5.127,6.182,15.885,7.225,21.48,1.184c1.365-1.476,0.035-6.168-1.748-4.242c-3.457,3.729-8.937,3.989-13.47,2.269
				c-1.716-0.651-6.591-3.521-3.805-5.313c2.263-1.453,5.247-1.602,7.847-1.515C263.503,189.784,263.429,184.826,261.197,184.75
				L261.197,184.75z"/>
		</g>
	</g>
</g>
<circle fill="#394CD3" cx="1050.772" cy="59.755" r="25.598"/>
<path opacity="0.7" fill="none" stroke="#4D66E2" stroke-width="2.0375" stroke-linecap="round" stroke-linejoin="round" stroke-miterlimit="10" enable-background="new    " d="
	M1076.73,61.358c12.561,7.414,20.113,14.473,18.528,18.198c-2.375,5.586-24.38,1.572-49.146-8.96
	c-24.769-10.534-42.92-23.604-40.545-29.188c1.603-3.767,12.121-3.172,26.396,0.845"/>
<path opacity="0.7" fill="none" stroke="#4D66E2" stroke-width="2.1457" stroke-miterlimit="10" enable-background="new    " d="
	M1078.945,62.599c13.965,8.021,22.463,15.484,20.873,19.225c-2.381,5.604-26.52,0.698-53.905-10.948
	c-27.392-11.648-47.661-25.636-45.277-31.235c1.604-3.775,13.095-2.78,28.805,1.841"/>
<path opacity="0.7" fill="none" stroke="#4D66E2" stroke-width="2.246" stroke-linecap="round" stroke-linejoin="round" stroke-miterlimit="10" enable-background="new    " d="
	M1081.356,63.995c16.659,8.935,27.781,17.782,26.318,21.271c-2.196,5.229-30.159-1.541-62.45-15.106
	c-32.297-13.571-56.694-28.81-54.5-34.034c1.479-3.521,15.516-1.526,33.849,4.261"/>
<circle fill="#2239AA" cx="299.059" cy="329.524" r="1.376"/>
<path fill="#EFE4D3" d="M525.832,165.5l8.168-5.833c0,0,4,6.167,3.5,9.667s-4.287,4.409-3.334,2.5c0.668-1.333-1.332-4.667-5-4.667
	C526.81,167.167,525.832,165.5,525.832,165.5z"/>
<path fill="#30200A" d="M532.832,162.833l2.168-2.5c0,0,1.832,2.5,1.832,3.833S534.5,163.5,534.5,163.5L532.832,162.833z"/>
<path fill="#FFB640" d="M561.668,281c0,0,6.332-0.333,9.332,0.667s2.334,0.999,0.334,3.333S561.668,281,561.668,281z"/>
<path fill="#F4E9D9" d="M405.833,186.833c-0.333-6.333-2,6.986-2,11.334c0,12.667,2.054,19.722,4.333,26.666
	c1.833,5.584,1.083,0.334,3.333-0.333c1.013-0.3,3,0,3,0s-4.333-10.334-6.333-20.667S405.833,186.833,405.833,186.833z"/>
<path fill="#FFB640" d="M428.745,278.403c-2.97,6.618-8.084,6.834-8.084,6.834s-3.136,2.133-3.411,3.682
	c-0.275,1.551-3,17.75-4,23.5c-0.721,4.139-1.871,7.02-0.25,9c1.621,1.979,3.231,1.699,3.75-2.25c0.519-3.948,0.771-1.389,2.75-7.5
	c0.354-1.092,3.206-13.685,5.5-16c2.294-2.316,4.036-2.045,6.75-2.5c2.714-0.456,21.981-1.465,30.668-14.302
	c8.687-12.84-22.151-27.085-22.972-26.196C438.631,253.558,428.745,278.403,428.745,278.403z"/>
<path opacity="0.7" fill="none" stroke="#FFFFFF" stroke-width="2" stroke-linecap="round" stroke-linejoin="round" stroke-miterlimit="10" enable-background="new    " d="
	M554.38,98.676c0,0,4.722,3.364,5.927,7.394s-0.382,8.075-0.382,8.075"/>
<path fill="#FFB640" d="M419.5,311.665c0,0,0.002,12.197-2,14.5c-5,5.75-8.25,1.5-8-2.5s3.5-4.5,3.75-6.25s0.25-7,0.5-7.75
	S419.5,311.665,419.5,311.665z"/>
<path fill="#D68522" d="M403.32,292.874c0,0-4.227,11.439-6.902,12.904c-6.686,3.66-8.258-1.453-6.639-5.117
	c1.622-3.665,4.845-3.009,5.687-4.563c0.844-1.557,2.662-6.479,3.156-7.098C399.115,288.388,403.32,292.874,403.32,292.874z"/>
<path opacity="0.7" fill="none" stroke="#FFFFFF" stroke-width="2" stroke-linecap="round" stroke-linejoin="round" stroke-miterlimit="10" enable-background="new    " d="
	M559.351,105.776c0,0-4.303,4.959-10.435,4.473"/>
<circle fill="#FFFFFF" cx="450.334" cy="348.001" r="2.667"/>
<circle fill="#FFFFFF" cx="288.207" cy="60.139" r="2"/>
<circle fill="#FFFFFF" cx="291.541" cy="135.806" r="2"/>
<circle fill="#FFFFFF" cx="321.167" cy="410.831" r="2"/>
<circle fill="#FFFFFF" cx="899.834" cy="422.164" r="2"/>
<circle fill="#FFFFFF" cx="1104.334" cy="389.001" r="2"/>
<radialGradient id="SVGID_7_" cx="402.9543" cy="1668.3381" r="43.8207" fx="413.6608" fy="1699.4594" gradientTransform="matrix(0.4715 0.8819 -0.8819 0.4715 1816.1936 -960.189)" gradientUnits="userSpaceOnUse">
	<stop  offset="0" style="stop-color:#FFFFFF;stop-opacity:0"/>
	<stop  offset="1" style="stop-color:#FFE5FF"/>
</radialGradient>
<circle opacity="0.3" fill="url(#SVGID_7_)" enable-background="new    " cx="514.823" cy="182.332" r="43.822"/>
<radialGradient id="SVGID_8_" cx="1099.9441" cy="1021.7668" r="41.4386" fx="1110.0686" fy="1051.1964" gradientTransform="matrix(-0.1683 0.9858 -0.9858 -0.1683 2259.8279 -840.6104)" gradientUnits="userSpaceOnUse">
	<stop  offset="0" style="stop-color:#FFFFFF;stop-opacity:0"/>
	<stop  offset="1" style="stop-color:#FFE5FF"/>
</radialGradient>
<circle opacity="0.2" fill="url(#SVGID_8_)" enable-background="new    " cx="1052.109" cy="60.459" r="41.44"/>
<radialGradient id="SVGID_9_" cx="528.5901" cy="1263.6682" r="30.4533" fx="536.0304" fy="1285.296" gradientTransform="matrix(0.4715 0.8819 -0.8819 0.4715 1816.1936 -960.189)" gradientUnits="userSpaceOnUse">
	<stop  offset="0" style="stop-color:#FFFFFF;stop-opacity:0"/>
	<stop  offset="1" style="stop-color:#FFE5FF"/>
</radialGradient>
<circle opacity="0.2" fill="url(#SVGID_9_)" enable-background="new    " cx="937.044" cy="102.162" r="30.454"/>
<circle fill="#FFFFFF" cx="443.682" cy="93" r="2.681"/>
<circle fill="#FFFFFF" cx="746" cy="27.681" r="2.681"/>
<circle fill="#FFFFFF" cx="441.181" cy="19" r="2.681"/>
<circle fill="#FFFFFF" cx="221.185" cy="273.001" r="3.686"/>
<circle fill="#FFFFFF" cx="329.32" cy="237" r="2.681"/>
<circle fill="#FFFFFF" cx="614.436" cy="361.573" r="2.179"/>
<g opacity="0.6">
	<circle fill="#FFFFFF" cx="662.273" cy="350.944" r="2.683"/>
	<circle fill="#FFFFFF" cx="714.24" cy="380.005" r="2.179"/>
	<circle fill="#FFFFFF" cx="741.836" cy="377.23" r="2.18"/>
	<circle fill="#FFFFFF" cx="777.104" cy="396.591" r="2.18"/>
	<circle fill="#FFFFFF" cx="751.765" cy="351.721" r="2.18"/>
	<polyline fill="none" stroke="#FFFFFF" stroke-width="0.7725" stroke-miterlimit="10" points="662.273,350.943 714.24,380.005 
		741.836,377.23 777.102,396.593 	"/>
	
		<line fill="none" stroke="#FFFFFF" stroke-width="0.7725" stroke-miterlimit="10" x1="741.836" y1="377.23" x2="751.767" y2="351.721"/>
</g>
<line fill="none" stroke="#FFB640" stroke-width="3" stroke-linecap="round" stroke-linejoin="round" stroke-miterlimit="10" x1="994.258" y1="196.254" x2="988.5" y2="193"/>
<line fill="none" stroke="#E0402F" stroke-width="3.3488" stroke-linecap="round" stroke-linejoin="round" stroke-miterlimit="10" x1="870.5" y1="159" x2="868.119" y2="163.072"/>
<g>
	<circle fill="#FFB640" cx="936.667" cy="102" r="20.833"/>
	<circle fill="#394CD3" cx="942.887" cy="91.53" r="4.092"/>
	<circle fill="#394CD3" cx="933.519" cy="101.365" r="5.527"/>
	<circle fill="#394CD3" cx="929.495" cy="115.127" r="3.455"/>
	<circle fill="#394CD3" cx="931.664" cy="87.537" r="2.179"/>
	<circle fill="#394CD3" cx="922.39" cy="101.729" r="2.179"/>
	<circle fill="#394CD3" cx="951.872" cy="97.858" r="2.18"/>
	<circle fill="#394CD3" cx="948.367" cy="108.752" r="3.454"/>
</g>
<g id="girl">
	<path fill="#EADEBE" d="M738.125,229.876c-4.507-0.375-19.899-2.253-28.539-7.135c-8.638-4.884-15.396-8.639-32.293-25.159
		c-16.896-16.521-20.651-20.276-27.411-24.031c-1.076-0.6-2.185-1.178-3.295-1.729c-0.398-0.196-0.777-0.374-1.146-0.533
		c-3.588-2.091-7.106-4.119-7.106-4.119c-1.666-1.333-3.166-2.167-6.331-3.667s-9.5-0.667-6.334,0.167c2.685,0.706,5,1.166,6.334,2
		s-2.669-1-3.669-1.333s-4.331-0.5-6.331-1c-1.907-0.479-4.263-0.344-2.598,1.262c-0.135-0.031-0.28-0.063-0.402-0.096
		c-2-0.5-2.771-0.581-3,0.333c-0.151,0.605,1.013,1.388,2.319,2.058c-1.776,0.007-3.363,0.271-2.819,1.275
		c1.166,2.167,4.163,1,8.846,2.378c7.582,2.232,4.522,2.396,8.986,3.289c0,0-11.041-0.472-10.666,1.167
		c0.358,1.576,5.5,1.833,8.834,2.667c2.356,0.59,6.062,1.521,7.331,2c0.823,0.311,2.882-0.408,4.669,0.333
		c2.077,0.865,6.658,3.869,8.831,5.833c3.5,3.167,7.395,7.907,9.834,10.5c6.011,6.385,19.068,15.901,30.334,25.667
		c11.268,9.766,26.985,13.372,37.5,16c15.017,3.754,17.955,9.57,23.521,9.898c6.384,0.375,10.516-16.896,10.516-16.896
		C756.151,231.754,742.635,230.252,738.125,229.876z"/>
	<path fill="#EADEBE" d="M881.369,227.359c24.895-2.614,30.475-3.265,38.776-1.98c1.323,0.205,2.66,0.439,3.989,0.707
		c0.477,0.098,0.922,0.193,1.35,0.303c4.464,0.602,8.833,1.209,8.833,1.209c3.771-0.189,4.025,0.397,7.851,0.571
		c3.666,0.167,9.688,5.354,6.332,4c-2.845-1.147-5.873-1.547-7.563-1.727c-1.692-0.178,3.946,1.255,5.063,1.56
		c2.304,0.622,4.5,2.167,5.357,2.971c1.591,1.483,4.064,2.458,1.628,2.694c0.142,0.063,0.291,0.131,0.422,0.188
		c2.105,0.877,2.854,1.31,2.53,2.2c-0.213,0.594-1.72,0.479-3.296,0.185c1.606,1.149,2.896,2.387,1.823,2.856
		c-2.313,1.019-4.359-1.862-9.403-3.747c-8.175-3.055-5.495-0.954-10.062-3.099c0,0,10.295,6.717,9.01,7.813
		c-1.239,1.054-6.057-2.041-9.563-3.505c-2.479-1.037-6.381-2.655-7.812-3.084c-0.932-0.277-2.378-2.187-4.434-2.729
		c-2.388-0.633-8.281-1.127-11.391-0.92c-5.007,0.332-11.279,1.698-14.996,2.243C886.68,237.413,856.481,229.976,881.369,227.359z"
		/>
	<path fill="#EADEBE" d="M1029,258c0,0,6-1,9.5-1s5-1,11-2s26-1,31,0.5s16,10,16,10s2,2,0.5,3s-3.5,1-13,1s-14.5,0.5-19,0
		s-14,0.5-17.5,1s-20,0.5-20,0.5"/>
	<path fill="#EADEBE" d="M1010.5,345.472c0,0,6,1.036,9.5,1.036s5,1.035,11,2.069c6,1.036,26,1.036,31-0.519
		c5-1.557,16-10.363,16-10.363s2-2.071,0.5-3.106c-1.5-1.034-3.5-1.034-13-1.034s-14.5-0.521-19,0c-4.5,0.518-14-0.521-17.5-1.036
		c-3.5-0.521-20-0.521-20-0.521"/>
	<path fill="#EADEBE" d="M722.362,159.033c0,0,1.45,11.121,1.692,14.508s4.986,12.798,7.404,20.294
		c2.42,7.496,12.63,9.198,15.771,10.892c3.144,1.692,8.688,8.362,10.139,11.268c1.451,2.9,4.509,7.047,4.509,11.644
		c0,4.594,37.293-8.634,32.123-8.634c-9.391,0-23.277-25.392-24.486-35.063s-4.354-27.807-10.155-28.53
		C753.555,154.682,722.362,159.033,722.362,159.033z"/>
	<circle fill="none" stroke="#394CD3" stroke-width="2" stroke-miterlimit="10" cx="726.245" cy="177.635" r="7.27"/>
	<circle fill="none" stroke="#394CD3" stroke-width="2" stroke-miterlimit="10" cx="742.22" cy="177.635" r="7.27"/>
	<path fill="none" stroke="#FFFFFF" stroke-width="1.9344" stroke-linecap="round" stroke-miterlimit="10" d="M721.575,177.674
		c0-2.869,2.327-5.196,5.198-5.196"/>
	<path fill="none" stroke="#FFFFFF" stroke-width="1.9344" stroke-linecap="round" stroke-miterlimit="10" d="M737.709,177.823
		c0-2.869,2.325-5.196,5.197-5.196"/>
	<path fill="#E0402F" d="M756.509,161.412c0,0-12.447,3.172-24.949,3.923c-12.503,0.75-15.97,0.282-20.971-2.719
		c-5.003-3.003-8.596-12.707-3.846-15.958c4.751-3.25,11.005,0,22.757,1.75c11.754,1.75,17.248-2.909,26.5-3.409
		c9.254-0.5,17.011-2.095,21.263,7.66c4.251,9.752,5.751,24.755,11.002,34.256c5.251,9.502,31.649,21.249,42.901,20.751
		c11.254-0.502,28.082,11.583,30.834,14.833c2.75,3.252,7.006,18.5-12,21c-19.007,2.5-26.479,0.682-47.232-15.072
		C782.012,212.672,769,215.504,766.5,201.5c-2.502-14.002-2.5-20.999-4.5-27S756.509,161.412,756.509,161.412z"/>
	<path fill="#394CD3" d="M656.5,191.833c0,0,8.366,8.536,14,14.167c5.636,5.634,14.744,10.245,18.5,14c12,8,11.108,8.618,23.5,13.5
		c12.396,4.882,29.869,15.373,32.5,16.499c2.631,1.127,21.445,14.186,24.832,16.667c5,3.667,6.864,3.953,14,7.333
		c7.138,3.38,9.405,4.992,17.668,11c8.264,6.008,13.666,12.333,33,22c13.225,6.609,21.593,11.297,33,13.332
		c9.332,1.666,33.316,8.688,43.832,11.691c10.518,3.004,28.539,6.384,44.688,8.261c16.146,1.878,37.551,8.264,44.688,7.888
		c7.136-0.375,11.642-1.502,11.642-1.502L1021,349l-3.396-7.965L1020,329.5l-6-1.5c0,0-2.778,3.272-13.67-1.981
		c-10.892-5.257-7.656-8.654-30.83-10.019c-22.668-1.335-25.873-0.498-47.275-11.765c-21.404-11.266-27.037-10.891-37.176-14.646
		c-10.144-3.757-12.396-9.015-12.396-9.015s6.009-3.006,16.523-3.006c10.514,0,30.792-4.131,51.816-1.127
		c21.029,3.006,43.188,11.268,58.581,7.513c15.396-3.756,15.587-2.293,19.587-3.959s9.328-6.558,9.328-6.558l4.506-1.126
		l-1.502-16.146h-6.008c0,0-3.38,1.877-18.023-1.502c-14.646-3.381-12.301-4.335-31.168-4.132
		c-23.95,0.26-30.041-1.879-45.063-4.883s-31.919-2.629-43.938-3.38c-12.018-0.751-10.16-1.898-18.801-2.274
		c-8.637-0.375-17.334,3.333-17.334,3.333s-6.855,1.383-16.999-3.499c-10.139-4.884-4.566-7.496-14.334-10.5
		c-9.764-3.007-17.021-3.204-19.649-6.584c-2.631-3.382-12.396-6.011-12.396-6.011l-17.646,6.762c0,0-9.852-2.284-16.143-2.501
		c-5.045-0.176-10.777-2.492-18.497-3.499c-7.666-1-10.276-5.516-21.5-10.5c-9-4-13.329-6.165-18.5-10.5c-11-6.5-14-9.5-19-12
		s-14-3.5-14-3.5L656.5,191.833z"/>
	<path fill="#394CD3" d="M786.882,217.007c0,0,9.274-5.173,15.284-5.173c6.011,0,16.117,1.164,21,2.667
		c4.885,1.502,19.666,4.011,25.677,4.011c6.008,0,13.894,1.502,21.024,2.254c7.139,0.751,15.771,0,21.78,1.877
		c6.008,1.878,18.353,0.858,18.353,0.858l1,13.5c0,0-11.865-0.5-17.5-0.5s-18.783,0.792-23.668,1.167
		c-4.883,0.376-19.604,0.742-25.332,0.333c-7-0.5-9.363,2.127-16.5,1c-7.137-1.126-20.093-5.848-23.848-5.848
		C800.398,233.154,786.882,217.007,786.882,217.007z"/>
	<g>
		<g>
			<path fill="#E0402F" d="M737.048,196.359c3.13-0.029,6.241-0.567,8.605-2.771c1.115-1.034,0.157-4.547-1.311-3.184
				c-2.024,1.884-4.734,2.204-7.395,2.231C735.302,192.656,735.385,196.377,737.048,196.359L737.048,196.359z"/>
		</g>
	</g>
	<g opacity="0.2">
		<g>
			<path fill="#E0402F" d="M751.041,188.455c1.392-1.717,2.941-3.286,4.332-5.001c0.779-0.962,0.981-2.24,0.502-3.407
				c-0.319-0.777-1.478-1.787-2.25-0.835c-1.391,1.716-2.941,3.286-4.332,5c-0.778,0.962-0.98,2.241-0.502,3.407
				C749.113,188.398,750.268,189.409,751.041,188.455L751.041,188.455z"/>
		</g>
	</g>
	
		<radialGradient id="SVGID_10_" cx="506.8625" cy="1453.2883" r="53.7684" fx="519.9995" fy="1491.4742" gradientTransform="matrix(0.4715 0.8819 -0.8819 0.4715 1816.1936 -960.189)" gradientUnits="userSpaceOnUse">
		<stop  offset="0" style="stop-color:#FFFFFF;stop-opacity:0"/>
		<stop  offset="1" style="stop-color:#FFE5FF"/>
	</radialGradient>
	<circle opacity="0.3" fill="url(#SVGID_10_)" enable-background="new    " cx="748.906" cy="172.703" r="53.769"/>
	<path fill="none" stroke="#263B9E" stroke-width="1.3" stroke-miterlimit="10" d="M770.139,223.501c0,0,8.36,14.999,19.36,23.499
		s19,13.5,24.5,15s25,9,33.5,11s25.151,7.579,25.151,7.579"/>
</g>
<g id="Layer_3" display="none">
	<g display="inline" opacity="0.3">
		
			<circle opacity="0.7" fill="none" stroke="#F4E9D9" stroke-width="2" stroke-linecap="round" stroke-linejoin="round" stroke-miterlimit="10" enable-background="new    " cx="705.764" cy="721.5" r="6.736"/>
		
			<circle opacity="0.7" fill="none" stroke="#F4E9D9" stroke-width="2" stroke-linecap="round" stroke-linejoin="round" stroke-miterlimit="10" enable-background="new    " cx="705.764" cy="721.5" r="30.135"/>
		
			<circle opacity="0.7" fill="none" stroke="#F4E9D9" stroke-width="2" stroke-linecap="round" stroke-linejoin="round" stroke-miterlimit="10" enable-background="new    " cx="705.764" cy="721.5" r="67.832"/>
		
			<path opacity="0.7" fill="none" stroke="#F4E9D9" stroke-width="2" stroke-linecap="round" stroke-linejoin="round" stroke-miterlimit="10" enable-background="new    " d="
			M820.096,721.5c0,63.146-51.188,114.332-114.332,114.332c-63.147,0-114.332-51.187-114.332-114.332
			c0-63.146,51.185-114.332,114.332-114.332C768.909,607.168,820.096,658.353,820.096,721.5z"/>
	</g>
	<g display="inline">
		<path fill="#E0402F" d="M838.059,191.899c2.307-0.188,3.172,2.339,2.534,4.674c-0.524,1.916-3.423,6.776-9.62,10.146
			c-5.633,3.063-11.033,0.692-12.697-0.614c-2.563-2.02-1.297-5.319,1.194-5.366c2.49-0.045,6.204,0.848,9.751-0.847
			C832.768,198.201,836.016,192.063,838.059,191.899z"/>
		<path fill="#E0402F" d="M790.427,193.712c-1.78-1.569-0.754-4.026,1.229-5.234c1.627-0.99,6.889-2.34,13.541-0.182
			c6.055,1.966,8.393,7.662,8.73,9.833c0.521,3.351-2.543,4.786-4.363,2.978c-1.82-1.812-3.91-5.195-7.563-6.604
			C798.346,193.094,792.002,195.104,790.427,193.712z"/>
		<path fill="#E0402F" d="M843.939,186.087c-1.755,1.666-3.875,0.27-4.676-1.977c-0.658-1.838-1.057-7.538,2.043-14.252
			c2.816-6.102,8.507-7.815,10.586-7.894c3.204-0.117,4.043,3.295,2.06,4.971c-1.98,1.679-5.479,3.435-7.388,7.09
			C844.656,177.685,845.492,184.612,843.939,186.087z"/>
		<path fill="#E0402F" d="M785.025,187.661c0.865,2.282-1.136,3.928-3.42,3.984c-1.875,0.048-7.104-1.425-11.994-6.69
			c-4.445-4.79-3.959-10.982-3.291-13.066c1.033-3.211,4.375-2.926,5.168-0.409c0.794,2.514,1.119,6.549,3.706,9.639
			C777.781,184.201,784.262,185.64,785.025,187.661z"/>
		<path fill="#E0402F" d="M764.809,162.989c1.204,2.104-0.517,4.072-2.761,4.527c-1.844,0.375-7.229-0.167-12.862-4.512
			c-5.124-3.947-5.596-10.146-5.257-12.316c0.521-3.35,3.863-3.646,5.034-1.309c1.17,2.344,2.107,6.269,5.14,8.859
			C757.132,160.838,763.742,161.128,764.809,162.989z"/>
		<path fill="#E0402F" d="M727.057,126.312c-0.576-2.385,1.607-3.734,3.881-3.479c1.865,0.213,6.868,2.399,11.07,8.306
			c3.816,5.364,2.575,11.438,1.656,13.413c-1.418,3.04-4.695,2.291-5.176-0.313c-0.479-2.603-0.306-6.647-2.49-10.068
			S727.566,128.422,727.057,126.312z"/>
	</g>
</g>
<g opacity="0.5">
	<circle fill="#FFFFFF" cx="362.857" cy="135.545" r="2.392"/>
	<circle fill="#FFFFFF" cx="348.482" cy="163.88" r="1.943"/>
	<circle fill="#FFFFFF" cx="406.043" cy="103.572" r="2.645"/>
	<polyline fill="none" stroke="#FFFFFF" stroke-width="0.689" stroke-miterlimit="10" points="348.483,163.88 362.858,135.545 
		406.042,103.571 429.5,134 	"/>
	<circle fill="#FFFFFF" cx="429.499" cy="134" r="2.583"/>
</g>
<linearGradient id="SVGID_11_" gradientUnits="userSpaceOnUse" x1="-229.9216" y1="1096.6702" x2="-229.9216" y2="1165.3157" gradientTransform="matrix(0.9902 0.1395 0.1395 -0.9902 742.4765 1305.7351)">
	<stop  offset="0.0161" style="stop-color:#FFDFBF"/>
	<stop  offset="0.6552" style="stop-color:#FFFFFF;stop-opacity:0"/>
</linearGradient>
<path opacity="0.3" fill="url(#SVGID_11_)" enable-background="new    " d="M659,186.5c0,0-18.005-12.893-21.757-14.936
	c-3.752-2.044-5.098-3.243-8.919-4.792c-3.818-1.549-9.669-3.046-9.669-3.046s13.934-18.167,44.845-31.229
	c35.5-15,58.455-5.354,61-5.5c2.548-0.146,0.5,27.5,0.5,27.5s-31.5,4.5-42.5,10C669.786,170.856,660.898,180.203,659,186.5z"/>
</svg>
