<?xml version="1.0" encoding="utf-8"?>
<!-- Generator: Adobe Illustrator 16.0.0, SVG Export Plug-In . SVG Version: 6.00 Build 0)  -->
<!DOCTYPE svg PUBLIC "-//W3C//DTD SVG 1.1//EN" "http://www.w3.org/Graphics/SVG/1.1/DTD/svg11.dtd">
<svg version="1.1" id="Layer_1" xmlns="http://www.w3.org/2000/svg" xmlns:xlink="http://www.w3.org/1999/xlink" x="0px" y="0px"
	 width="136.09px" height="65.628px" viewBox="22.339 -0.385 136.09 65.628" enable-background="new 22.339 -0.385 136.09 65.628"
	 xml:space="preserve">
<circle fill="#FFB640" cx="120.674" cy="20.315" r="3.674"/>
<g>
	<path fill="#F1F2ED" d="M43.286,17.231c-2.038,1.189-4.699,1.415-6.963,1.868c-0.056,0-0.113,0-0.169,0.057
		c-0.453,1.698-0.962,3.453-1.472,5.151c-0.679,2.717-1.868,7.586-1.472,8.832c0.113,0.283,0.113,0.566,0.057,0.849
		C33.04,35.515,32.7,37.1,32.587,38.63c-0.057,1.415,0.283,2.773,1.019,4.302c0.453-0.452,0.849-0.735,1.075-1.132
		c1.642-1.528,3.453-2.718,4.359-4.359c0,0-0.396,3.001-1.868,4.926c-1.132,2.207-3.906,4.981-6.001,3.68
		c-0.396-0.283-1.076-2.661-1.302-3.114c-0.68-1.585-1.076-3.17-0.849-4.981c0.169-1.755,0.056-3.623,0.056-5.378
		c0.113-2.434,0.113-6.397,0.623-10.133c0.17-0.736,0.227-1.698,0.339-2.717h-0.226c-1.925,0-3.906,0.113-5.774,0
		c-0.566-0.057-2.321-0.623-1.472-1.415c0.623-0.566,2.831-0.34,3.623-0.453c1.245-0.283,2.434-0.623,3.623-0.849
		c0.17-0.057,0.283-0.113,0.453-0.113c0.17-2.377,0.34-4.585,0.51-5.038c0.057-0.227,0.113-0.51,0.057-0.736
		c-0.227-1.302,0.056-2.435,0.792-3.51c0.113-0.227,0.17-0.51,0.226-0.793c0.113-0.566,0.057-1.132,0.227-1.642
		c0.283-1.076,0.679-2.151,1.019-3.227c1.528-0.34,2.887-0.113,4.246,0.227c0.68,0.169,1.019,0.736,1.076,1.415
		c0.057,0.34,0.057,0.679,0,1.019c-0.509,3.51-1.019,7.02-1.472,10.529l-0.113,0.906c1.755-0.17,3.453-0.623,5.208-0.736
		c0-1.076,1.416-0.227,1.812,0.113C44.871,16.212,44.135,16.721,43.286,17.231z"/>
	<path fill="#F1F2ED" d="M54.948,40.668c1.528-1.189,2.604-2.321,3.906-3.058c-0.962,2.774-1.698,4.076-2.717,5.208
		c-1.302,1.416-3.396,1.585-5.095,0.906c-1.358-0.566-2.151-1.642-2.321-3.113c-0.34-2.208-0.51-4.473-0.736-6.793
		c-1.188,1.188-1.472,2.773-1.868,4.245c-0.736,2.321-1.359,4.698-2.038,7.02c-0.17,0.566-0.453,1.132-0.736,1.698
		c-1.019,2.095-2.038,1.981-4.076,1.585c-1.019-0.227-1.415-1.075-1.415-2.095c-0.057-2.377-0.113-4.755-0.113-7.133
		c0-0.565-0.057-1.188-0.057-2.15c0.339-2.718,0.339-4.643,1.132-8.945c0.339-3.68,0.396-7.359,0.849-11.039
		c0.396-3.057,1.075-6.114,1.642-9.171c0.396-2.038,0.849-4.076,1.302-6.114c0.17-0.679,0.396-1.302,0.623-2.095
		c0.962,0,1.868-0.057,2.774,0.113c1.132,0.113,1.528,0.623,1.528,1.812c0,0.736-0.113,1.472-0.227,2.208
		c-0.453,2.887-0.962,5.774-1.528,8.661c-0.453,2.547-1.076,5.039-1.642,7.586c-0.057,0.283-0.113,0.566-0.057,0.792
		c0.396,4.359-0.17,8.605-0.906,12.851c-0.396,2.604-0.962,5.208-1.472,7.812c-0.057,0.34,0.057,0.736,0.396,1.188
		c0.849-2.264,1.642-4.528,2.547-6.793c0.906-2.264,1.925-4.585,2.944-6.85c0.962-2.265,1.981-4.472,3.057-6.793
		c0.85-0.056,1.812-0.339,2.718-0.226c1.245,0.113,1.755,1.019,1.642,2.264c-0.113,1.472-0.34,2.887-0.453,4.359
		c-0.057,1.246-0.113,2.491-0.113,3.736c-0.057,0.283,0.113,0.566,0,0.85c-0.736,2.095,0.453,4.188,0.283,6.283
		C54.721,39.761,54.835,40.101,54.948,40.668z"/>
	<path fill="#F1F2ED" d="M72.78,26.175c-0.113,0.396-0.227,0.736-0.453,1.076c-1.642,2.887-3.849,5.491-6.567,7.926
		c-0.962,0.905-1.981,1.868-2.661,2.943c-0.453,0.736-0.509,1.642-0.509,2.491c0,1.302,1.132,3.057,2.491,3.849
		c0.566-0.452,1.812-1.302,2.435-1.812c2.434-2.15,5.151-3.905,6.34-5.151c0,0-0.34,2.151-1.076,3.453
		c-1.189,1.981-2.944,3.171-5.152,4.756c-1.302,0.905-2.491,0.792-4.246,0.34c-2.547-0.68-4.869-2.661-5.774-4.926
		c-0.113-0.283-0.17-0.622-0.283-1.132c-0.17-1.585-0.396-2.774,0.453-5.604c0.623-2.321,1.812-4.585,2.774-6.85
		c0.396-0.85,0.906-1.699,1.416-2.491c0.283-0.453,0.736-0.849,1.076-1.245c0.736-0.792,1.755-1.019,3-0.792
		c0.623,0.113,1.302,0.113,1.981,0.226c0.396,0.057,0.792,0.17,1.076,0.34c0.792,0.509,1.642,0.906,2.661,1.189
		C72.553,24.986,72.949,25.552,72.78,26.175z M69.27,25.609c-1.472-0.453-1.585-0.453-2.321,0.339
		c-1.642,1.755-2.604,3.736-3.057,5.831c0,0.113,0.169,0.283,0.283,0.453C66.779,29.628,68.59,27.251,69.27,25.609z"/>
	<path fill="#F1F2ED" d="M101.141,10.551c0.17,0.453-0.057,0.736-0.51,0.736c-2.32-0.057-4.472,0.509-6.736,0.849
		c0.736,3.34,0.679,6.397,0.34,9.454c-0.283,2.265-0.68,4.529-0.906,6.793l-0.453,6.68c-0.057,0.452-0.17,0.962-0.339,1.358
		c-0.283,1.075-1.076,2.038,0.339,3.283c0.283,0.227,0.113,1.075,0.17,1.642c0,0.623-0.17,1.302,0.057,1.812
		c0.566,1.415,0.396,2.718,0.566,4.076c0.113,1.245-0.17,1.585-1.245,1.642c-1.529,0.057-2.831-0.85-4.02-2.038
		c-0.283-0.283-0.453-0.849-0.453-1.302c-0.17-5.604,0.226-11.152,0.679-16.587c0.396-4.812,0.792-9.624,0.566-14.605
		c0-0.34-0.057-0.736-0.113-1.132l-2.208,0.396c-0.906-0.113-1.755-0.283-2.378,0.283c-0.113,0.113-0.283,0.113-0.396,0.169
		c-2.095,0.85-2.661,0-3.227-2.038c-0.169-0.68,0.113-1.189,0.736-1.359c2.264-0.679,4.529-1.415,6.906-1.755l1.698-0.113
		c2.831-0.227,5.661-0.509,8.491-0.792c0.906-0.113,1.133-0.057,1.642,0.792C100.688,9.362,100.971,9.928,101.141,10.551z
		 M82.913,10.834c-0.057,0-0.113-0.057-0.17-0.057c0,0-0.113,0.057-0.057,0.057c0,0.057,0.057,0.113,0.113,0.17L82.913,10.834z
		 M85.97,12.759l-0.17-0.17l-0.057,0.057l0.17,0.17C85.913,12.759,85.97,12.759,85.97,12.759z"/>
	<path fill="#F1F2ED" d="M114.274,40.668c1.529-1.189,2.604-2.321,3.906-3.058c-0.962,2.774-1.698,4.076-2.717,5.208
		c-1.303,1.416-3.396,1.585-5.095,0.906c-1.359-0.566-2.151-1.642-2.321-3.113c-0.34-2.208-0.51-4.473-0.736-6.793
		c-1.188,1.188-1.472,2.773-1.868,4.245c-0.735,2.321-1.358,4.698-2.038,7.02c-0.17,0.566-0.452,1.132-0.735,1.698
		c-1.02,2.095-2.038,1.981-4.076,1.585c-1.019-0.227-1.415-1.075-1.415-2.095c-0.057-2.377-0.113-4.755-0.113-7.133
		c0-0.565-0.057-1.188-0.057-2.15c0.34-2.718,0.34-4.643,1.132-8.945c0.34-3.68,0.396-7.359,0.85-11.039
		c0.396-3.057,1.075-6.114,1.642-9.171c0.396-2.038,0.849-4.076,1.302-6.114c0.17-0.679,0.396-1.302,0.623-2.095
		c0.962,0,1.868-0.057,2.773,0.113c1.133,0.113,1.528,0.623,1.528,1.812c0,0.736-0.112,1.472-0.226,2.208
		c-0.453,2.887-0.963,5.774-1.529,8.661c-0.452,2.547-1.075,5.039-1.642,7.586c-0.057,0.283-0.113,0.566-0.057,0.792
		c0.396,4.359-0.17,8.605-0.905,12.851c-0.396,2.604-0.963,5.208-1.472,7.812c-0.057,0.34,0.057,0.736,0.396,1.188
		c0.85-2.264,1.643-4.528,2.548-6.793c0.906-2.264,1.925-4.585,2.943-6.85c0.963-2.265,1.981-4.472,3.058-6.793
		c0.849-0.056,1.812-0.339,2.717-0.226c1.246,0.113,1.755,1.019,1.642,2.264c-0.113,1.472-0.339,2.887-0.452,4.359
		c-0.057,1.246-0.113,2.491-0.113,3.736c-0.057,0.283,0.113,0.566,0,0.85c-0.736,2.095,0.452,4.188,0.283,6.283
		C114.049,39.761,114.161,40.101,114.274,40.668z"/>
	<path fill="#F1F2ED" d="M125.766,37.667c-1.076,2.604-4.02,7.643-4.529,7.699c-0.509,0-1.981-0.113-2.434-0.34
		c-1.133-0.283-1.528-1.585-1.642-2.773c-0.113-1.02-0.057-2.774-0.17-3.793c0-0.17,0.227-2.038,0-2.661
		c-0.113-2.207-0.113-3,0.679-5.774c0.396-0.51,0.396-1.359,1.246-1.472c1.075-0.113,2.15-0.453,3.283,0.453
		c-1.02,1.812-0.85,3.85-0.793,5.888c0.113,1.981-0.509,6.113-0.227,8.095C122.653,41.063,124.351,38.346,125.766,37.667z"/>
	<path fill="#F1F2ED" d="M144.22,37.61c0.17,3.058-0.85,5.208-1.981,6.511c-2.095,1.868-4.02,1.188-6.001-0.453
		c-0.396-0.283-0.735-0.85-0.792-1.302c-0.396-1.925-0.793-3.793,0.17-5.548l1.528-3.227c0.51-1.189,0.905-2.491,0.565-4.303
		c-0.622,0.566-1.075,0.849-1.358,1.245c-2.66,4.076-5.548,7.982-7.473,12.567c-0.283,0.623-0.679,1.189-1.019,1.812
		c-2.038,0.057-3.736-1.245-3.793-3.113c-0.057-2.491,1.075-11.152,1.075-11.152c0.34-0.283,0.283-0.906,0.34-1.415
		c-0.057-0.68,0.17-2.321,0.51-2.661c0.34-0.283,2.943-0.17,3.113,1.132l0.113,2.208c-0.396,0.906-0.113,2.094-0.227,3.114
		c-0.113,0.905-0.34,1.755-0.509,2.66l0.282,0.227c0.283-0.283,0.623-0.453,0.85-0.792c1.755-2.604,3.906-4.925,6.34-6.963
		c0.51-0.453,1.189-0.792,1.868-0.962c1.076-0.227,1.586,0.227,2.321,1.132c0.793,1.076,0.963,2.094,0.68,3.34
		c-0.623,2.717-0.85,5.604-1.812,8.265c-0.34,0.849-0.68,1.868,0.452,2.943C140.937,41.743,142.919,39.308,144.22,37.61z"/>
	<path fill="#F1F2ED" d="M158.203,35.515c-0.113,1.925-0.452,3.85-0.227,5.718c0.227,1.981-0.169,5.378-0.339,7.359l-0.51,3.057
		c-0.453,3.623-1.642,7.021-3.793,10.021c-0.68,0.962-1.585,1.698-2.717,2.151c-1.868,0.735-3.793,1.245-5.774,1.415
		c-1.189,0.057-1.585-0.17-1.812-1.302c-0.736-3.51-0.793-6.851,1.302-10.021c1.302-1.925,3.396-3.51,5.604-3.906
		c0.057,0.793-0.453,1.246-0.963,1.642c-2.83,2.151-3.735,5.209-4.132,8.549c0,0.396,0.057,0.792,0.17,1.188
		c0.17,0.736,0.622,1.02,1.528,0.85c1.925-0.34,3.113-1.585,3.68-3.341c1.245-3.566,2.265-8.774,2.547-12.511
		c0-0.735,0.906-10.133,0.85-11.265c-0.51,0.565-3.396,11.321-3.68,11.604c-1.415,1.358-4.586,1.585-5.208-0.905l-1.076-4.246
		c-0.113-0.227-0.113-0.566-0.226-0.905l0.056,0.056c-0.282-2.15,0-4.132,0.566-7.245c0.51-1.925,1.076-3.793,1.642-5.718
		c0.34-1.188,1.076-1.981,2.435-2.208c1.981-0.227,3.906-0.68,5.888-0.113c0.283,0.057,0.509,0.227,0.849,0.34
		c-0.227,1.019-0.905,1.472-1.755,1.245c-1.302-0.396-1.981,0.227-2.378,1.246c-0.905,2.208-1.867,4.416-2.094,6.793
		c-0.113,1.868-0.34,3.736-0.34,5.548c-0.057,1.188,0.227,2.377,0.396,3.623h0.339c0.17-0.227,0.396-0.453,0.51-0.736
		c0.963-3.283,1.981-6.51,2.831-9.793c0.339-1.133,0.17-2.378,0.282-3.567c0.113-1.416,0.283-1.472,1.698-1.868
		c1.359-0.34,2.661-0.227,4.076,0.339C158.316,30.93,158.26,33.195,158.203,35.515z M143.372,40.328l0.057,0.17
		C143.372,40.441,143.372,40.385,143.372,40.328z"/>
</g>
</svg>
