<?xml version="1.0" encoding="utf-8"?>
<!-- Generator: Adobe Illustrator 16.0.0, SVG Export Plug-In . SVG Version: 6.00 Build 0)  -->
<!DOCTYPE svg PUBLIC "-//W3C//DTD SVG 1.1//EN" "http://www.w3.org/Graphics/SVG/1.1/DTD/svg11.dtd">
<svg version="1.1" id="Layer_1" xmlns="http://www.w3.org/2000/svg" xmlns:xlink="http://www.w3.org/1999/xlink" x="0px" y="0px"
	 width="617.182px" height="325.83px" viewBox="0 0 617.182 325.83" enable-background="new 0 0 617.182 325.83"
	 xml:space="preserve">
<g>
	<polygon fill="#FFB640" points="105.819,85.198 105.969,85.274 105.99,104.344 105.839,104.267 90.363,115.414 90.512,115.49 
		90.533,134.563 90.382,134.485 74.906,145.631 75.057,145.708 75.076,164.78 61.815,157.997 61.796,138.925 61.645,138.848 
		77.12,127.702 77.271,127.778 77.252,108.708 77.101,108.631 92.577,97.484 92.727,97.561 92.707,78.491 92.557,78.415 
		108.031,67.268 121.295,74.051 	"/>
	<polygon fill="#F7A328" points="105.819,85.198 92.557,78.415 108.031,67.268 121.295,74.051 	"/>
	<polygon fill="#F7A328" points="74.906,145.631 61.645,138.848 77.12,127.702 90.382,134.485 	"/>
	<polygon fill="#F7A328" points="90.363,115.414 77.101,108.631 92.577,97.484 105.839,104.267 	"/>
</g>
<g>
	<polygon fill="#394CD3" points="187.921,285.196 187.998,285.167 187.966,271.297 187.89,271.325 178.363,261.241 178.438,261.212 
		178.404,247.343 178.329,247.371 168.804,237.288 168.88,237.259 168.845,223.388 154.604,229.069 154.635,242.942 154.56,242.972 
		164.086,253.056 164.163,253.024 164.195,266.897 164.121,266.927 173.648,277.011 173.724,276.979 173.756,290.851 173.68,290.88 
		183.206,300.962 197.448,295.278 	"/>
	
		<linearGradient id="SVGID_1_" gradientUnits="userSpaceOnUse" x1="-328.72" y1="1112.8506" x2="-304.9524" y2="1112.8506" gradientTransform="matrix(1 0 0 -1 502.3999 1405.9297)">
		<stop  offset="0" style="stop-color:#4B65E2"/>
		<stop  offset="0.2957" style="stop-color:#1F38B2"/>
		<stop  offset="0.7581" style="stop-color:#333399"/>
	</linearGradient>
	<polygon fill="url(#SVGID_1_)" points="187.921,285.196 173.68,290.88 183.206,300.962 197.448,295.278 	"/>
	
		<linearGradient id="SVGID_2_" gradientUnits="userSpaceOnUse" x1="-1352.6394" y1="645.7871" x2="-1328.8699" y2="645.7871" gradientTransform="matrix(1 0 0 -1 1507.1992 890.959)">
		<stop  offset="0" style="stop-color:#4B65E2"/>
		<stop  offset="0.2957" style="stop-color:#1F38B2"/>
		<stop  offset="0.7581" style="stop-color:#333399"/>
	</linearGradient>
	<polygon fill="url(#SVGID_2_)" points="168.804,237.288 154.56,242.972 164.086,253.056 178.329,247.371 	"/>
	
		<linearGradient id="SVGID_3_" gradientUnits="userSpaceOnUse" x1="-338.2786" y1="1136.8037" x2="-314.51" y2="1136.8037" gradientTransform="matrix(1 0 0 -1 502.3999 1405.9297)">
		<stop  offset="0" style="stop-color:#4B65E2"/>
		<stop  offset="0.2957" style="stop-color:#1F38B2"/>
		<stop  offset="0.7581" style="stop-color:#333399"/>
	</linearGradient>
	<polygon fill="url(#SVGID_3_)" points="178.363,261.241 164.121,266.927 173.648,277.011 187.89,271.325 	"/>
</g>
<g>
	<g>
		<polygon fill="#1F38B2" points="542.924,205.874 542.924,213.583 549.091,216.666 555.258,213.583 555.258,205.874 		"/>
		<polygon fill="#394CD3" points="542.924,205.874 549.091,202.79 555.258,205.874 549.091,208.957 		"/>
	</g>
	<g>
		<polygon fill="#1F38B2" points="542.924,252.207 542.924,259.916 549.091,263 555.258,259.916 555.258,252.207 		"/>
		<polygon fill="#394CD3" points="542.924,252.207 549.091,249.123 555.258,252.207 549.091,255.291 		"/>
	</g>
	
		<line fill="none" stroke="#1F38B2" stroke-width="2" stroke-miterlimit="10" x1="516.424" y1="227.666" x2="545.799" y2="211.541"/>
	
		<line fill="none" stroke="#1F38B2" stroke-width="2.086" stroke-linecap="round" stroke-linejoin="round" stroke-miterlimit="10" x1="548.424" y1="293.666" x2="516.465" y2="277.541"/>
	<g>
		<polygon fill="#1F38B2" points="508.424,225.874 508.424,233.582 514.591,236.666 520.758,233.582 520.758,225.874 		"/>
		<polygon fill="#394CD3" points="508.424,225.874 514.591,222.79 520.758,225.874 514.591,228.957 		"/>
	</g>
	<g>
		<polygon fill="#1F38B2" points="508.424,272.207 508.424,279.916 514.591,283 520.758,279.916 520.758,272.207 		"/>
		<polygon fill="#394CD3" points="508.424,272.207 514.591,269.123 520.758,272.207 514.591,275.291 		"/>
	</g>
	
		<line fill="none" stroke="#1F38B2" stroke-width="2" stroke-linecap="round" stroke-linejoin="round" stroke-miterlimit="10" x1="514.424" y1="233.416" x2="514.424" y2="272.166"/>
	
		<line fill="none" stroke="#1F38B2" stroke-width="2" stroke-linecap="round" stroke-linejoin="round" stroke-miterlimit="10" x1="549.09" y1="213.083" x2="549.09" y2="251.832"/>
	<g>
		<polygon fill="#FF553E" points="540.424,289.541 540.424,297.25 546.591,300.333 552.758,297.25 552.758,289.541 		"/>
		<polygon fill="#FF7061" points="540.424,289.541 546.591,286.457 552.758,289.541 546.591,292.624 		"/>
	</g>
</g>
<g>
	
		<line fill="none" stroke="#1F38B2" stroke-width="2" stroke-linecap="round" stroke-linejoin="round" stroke-miterlimit="10" x1="546.089" y1="167.79" x2="575.464" y2="151.666"/>
	<g>
		<polygon fill="#1F38B2" points="572.923,192.331 572.923,200.04 579.09,203.122 585.257,200.04 585.257,192.331 		"/>
		<polygon fill="#394CD3" points="572.923,192.331 579.09,189.247 585.257,192.331 579.09,195.413 		"/>
	</g>
	<g>
		<polygon fill="#1F38B2" points="572.923,146.332 572.923,154.04 579.09,157.123 585.257,154.04 585.257,146.332 		"/>
		<polygon fill="#394CD3" points="572.923,146.332 579.09,143.248 585.257,146.332 579.09,149.414 		"/>
	</g>
	<g>
		<polygon fill="#F7A328" points="538.589,164.665 538.589,172.374 544.756,175.458 550.923,172.374 550.923,164.665 		"/>
		<polygon fill="#FFB640" points="538.589,164.665 544.756,161.581 550.923,164.665 544.756,167.749 		"/>
	</g>
	
		<line fill="none" stroke="#1F38B2" stroke-width="2" stroke-linecap="round" stroke-linejoin="round" stroke-miterlimit="10" x1="512.423" y1="186.124" x2="541.798" y2="169.999"/>
	<g>
		<polygon fill="#F7A328" points="504.923,182.999 504.923,190.708 511.09,193.79 517.257,190.708 517.257,182.999 		"/>
		<polygon fill="#FFB640" points="504.923,182.999 511.09,179.915 517.257,182.999 511.09,186.081 		"/>
	</g>
	
		<line fill="none" stroke="#1F38B2" stroke-width="2" stroke-linecap="round" stroke-linejoin="round" stroke-miterlimit="10" x1="579.089" y1="153.54" x2="579.089" y2="192.29"/>
</g>
<g>
	<g>
		<polygon fill="#1F38B2" points="32.259,202.54 32.259,210.248 38.426,213.331 44.593,210.248 44.593,202.54 		"/>
		<polygon fill="#394CD3" points="32.259,202.54 38.426,199.456 44.593,202.54 38.426,205.622 		"/>
	</g>
	
		<line fill="none" stroke="#1F38B2" stroke-width="2.0861" stroke-miterlimit="10" x1="73.425" y1="224.331" x2="41.466" y2="208.206"/>
	<g>
		<polygon fill="#1F38B2" points="67.925,220.206 67.925,227.915 74.092,230.998 80.259,227.915 80.259,220.206 		"/>
		<polygon fill="#394CD3" points="67.925,220.206 74.092,217.122 80.259,220.206 74.092,223.289 		"/>
	</g>
	<g>
		<polygon fill="#1F38B2" points="67.925,266.539 67.925,274.248 74.092,277.332 80.259,274.248 80.259,266.539 		"/>
		<polygon fill="#394CD3" points="67.925,266.539 74.092,263.455 80.259,266.539 74.092,269.623 		"/>
	</g>
	
		<line fill="none" stroke="#1F38B2" stroke-width="2" stroke-linecap="round" stroke-linejoin="round" stroke-miterlimit="10" x1="74.091" y1="227.415" x2="74.091" y2="266.164"/>
	<g>
		<polygon fill="#1F38B2" points="101.926,202.54 101.926,210.248 108.093,213.331 114.26,210.248 114.26,202.54 		"/>
		<polygon fill="#394CD3" points="101.926,202.54 108.093,199.456 114.26,202.54 108.093,205.622 		"/>
	</g>
	<g>
		<polygon fill="#1F38B2" points="101.926,155.873 101.926,163.581 108.093,166.664 114.26,163.581 114.26,155.873 		"/>
		<polygon fill="#394CD3" points="101.926,155.873 108.093,152.789 114.26,155.873 108.093,158.955 		"/>
	</g>
	<g>
		<polygon fill="#FF553E" points="101.926,248.873 101.926,256.582 108.093,259.665 114.26,256.582 114.26,248.873 		"/>
		<polygon fill="#FF7061" points="101.926,248.873 108.093,245.789 114.26,248.873 108.093,251.956 		"/>
	</g>
	
		<line fill="none" stroke="#1F38B2" stroke-width="2" stroke-linecap="round" stroke-linejoin="round" stroke-miterlimit="10" x1="75.759" y1="269.998" x2="105.134" y2="253.873"/>
	
		<line fill="none" stroke="#1F38B2" stroke-width="2" stroke-linecap="round" stroke-linejoin="round" stroke-miterlimit="10" x1="108.092" y1="210.081" x2="108.092" y2="248.831"/>
	
		<line fill="none" stroke="#1F38B2" stroke-width="2" stroke-linecap="round" stroke-linejoin="round" stroke-miterlimit="10" x1="108.092" y1="163.081" x2="108.092" y2="201.831"/>
</g>
<g>
	<g>
		<g>
			<path fill="#1F38B2" d="M270.208,44.276c0,0,0.229,75.225,0.635,136c-0.14-0.141-0.563-0.563-0.982-0.983
				c36.732-0.22,89.931-0.407,148.507-0.407c1.227,0,2.439,0,3.492,0c-0.551,0.555-0.971,0.975-1.391,1.395
				c0.004-37.293,0.084-112.45,0.201-136c0.539,0.539,0.857,0.864,1.188,1.188c-92.771-0.303-151.999-0.844-151.999-0.844
				s62.938-0.971,151.999-1.463c0.613-0.003,1.111,0.49,1.115,1.104v0.014c0.164,29.487,0.271,101.975,0.279,136
				c0,0.771-0.625,1.396-1.396,1.396l0,0c-0.564,0-1.156,0-1.746,0c-57.875,0-110.807-0.314-150.253-0.673h-0.013
				c-0.396-0.002-0.714-0.325-0.71-0.724C269.628,120.716,270.208,44.276,270.208,44.276z"/>
		</g>
	</g>
</g>
<g>
	<g>
		<g>
			<path fill="#1F38B2" d="M307.359,167.86c0,0-32.692,0.449-88,0.744c0.156-0.156,0.618-0.617,1.078-1.078
				c0.146,18.563,0.255,63.013,0.255,93.636c0,0.829,0,1.657,0,2.364c-0.535-0.535-0.936-0.934-1.333-1.332
				c34.129,0.006,65.899,0.146,88,0.318c-0.447,0.441-0.729,0.729-1.016,1.014c0.293-49.85,0.684-96,0.684-96s0.688,47.326,1.176,96
				l0.012,0.832l-0.854,0.011c-24.263,0.272-55.059,0.485-88,0.491h-1.333v-1.334c0-0.379,0-0.78,0-1.182
				c0-29.152,0.164-72.455,0.396-94.818l0.009-0.951l0.937,0.009C272.54,167.076,307.359,167.86,307.359,167.86z"/>
		</g>
	</g>
</g>
<g>
	<g>
		<g>
			<path fill="#1F38B2" d="M254.859,79.026c0,0-52.692,0.449-108,0.745c0.156-0.157,0.618-0.617,1.078-1.078
				c0.146,18.563,0.255,67.011,0.255,97.635c0,0.829,0,1.657,0,2.364c-0.535-0.535-0.936-0.934-1.333-1.332
				c34.129,0.006,85.899,0.146,108,0.318c-0.443,0.441-0.729,0.729-1.016,1.014c0.293-49.849,0.683-100,0.683-100
				s0.688,51.325,1.181,100l0.008,0.832l-0.854,0.011c-24.264,0.272-75.06,0.485-108,0.491h-1.333v-1.334c0-0.379,0-0.78,0-1.182
				c0-29.155,0.164-76.457,0.396-98.82l0.009-0.952l0.937,0.009C200.04,78.243,254.859,79.026,254.859,79.026z"/>
		</g>
	</g>
</g>
<polygon fill="#394CD3" points="209.376,102.359 201.376,114.359 193.376,102.359 193.376,34.36 197.376,30.36 205.376,30.36 
	209.376,34.36 "/>
<path fill="#FFB640" d="M205.362,30.368h-8l-4,4l4,4h8l4-4L205.362,30.368z M201.342,36.285c-1.733,0-3.146-0.734-3.146-1.643
	s1.411-1.646,3.146-1.646c1.739,0,3.146,0.735,3.146,1.646S203.081,36.285,201.342,36.285z"/>
<polygon fill="#FFB640" points="193.376,102.359 197.376,106.359 205.376,106.359 209.376,102.359 201.376,119.359 "/>
<polygon fill="#1F38B2" points="205.376,38.359 209.376,34.359 209.376,102.359 205.376,106.359 "/>
<polygon fill="#4B65E2" points="197.376,38.359 193.376,34.359 193.376,102.359 197.376,106.359 "/>
<g>
	
		<polygon fill="none" stroke="#1F38B2" stroke-width="2" stroke-linecap="round" stroke-linejoin="round" stroke-miterlimit="10" points="
		296.262,97.299 294.762,115.049 344.424,145.083 373.834,138.783 390.502,110.116 392.762,79.049 369.262,71.549 327.012,68.799 	
		"/>
	
		<polyline fill="none" stroke="#1F38B2" stroke-width="2" stroke-linecap="round" stroke-linejoin="round" stroke-miterlimit="10" points="
		297.262,97.799 330.512,96.299 330.262,105.799 373.834,138.783 	"/>
	
		<polyline fill="none" stroke="#1F38B2" stroke-width="2" stroke-linecap="round" stroke-linejoin="round" stroke-miterlimit="10" points="
		331.512,96.299 370.012,100.299 390.502,110.116 	"/>
	
		<polyline fill="none" stroke="#1F38B2" stroke-width="2" stroke-linecap="round" stroke-linejoin="round" stroke-miterlimit="10" points="
		370.262,72.549 370.012,100.299 359.762,71.549 	"/>
	
		<polyline fill="none" stroke="#1F38B2" stroke-width="2" stroke-linecap="round" stroke-linejoin="round" stroke-miterlimit="10" points="
		344.512,70.549 330.512,96.299 327.012,68.799 	"/>
	
		<line fill="none" stroke="#1F38B2" stroke-width="2" stroke-linecap="round" stroke-linejoin="round" stroke-miterlimit="10" x1="294.762" y1="115.049" x2="330.262" y2="105.799"/>
</g>
<g opacity="0.4">
	
		<polygon fill="none" stroke="#FF553E" stroke-width="2" stroke-linecap="round" stroke-linejoin="round" stroke-miterlimit="10" points="
		244.145,208.47 266.552,193.412 282.034,200.623 286.719,217.802 268.385,238.162 242.719,226.922 	"/>
	
		<line fill="none" stroke="#FF553E" stroke-width="2" stroke-linecap="round" stroke-linejoin="round" stroke-miterlimit="10" x1="264.242" y1="225.294" x2="268.385" y2="238.162"/>
	
		<line fill="none" stroke="#FF553E" stroke-width="2" stroke-linecap="round" stroke-linejoin="round" stroke-miterlimit="10" x1="242.719" y1="226.922" x2="256.978" y2="217.59"/>
	
		<polyline fill="none" stroke="#FF553E" stroke-width="2" stroke-linecap="round" stroke-linejoin="round" stroke-miterlimit="10" points="
		244.145,208.47 260.034,209.106 264.242,225.294 	"/>
	
		<polyline fill="none" stroke="#FF553E" stroke-width="2" stroke-linecap="round" stroke-linejoin="round" stroke-miterlimit="10" points="
		260.034,209.106 286.719,217.802 264.242,225.294 256.978,217.59 260.034,209.106 282.034,200.623 	"/>
</g>
<polyline fill="none" stroke="#FFB640" stroke-width="2" stroke-miterlimit="10" points="165.091,116.415 178.801,140.994 
	202.801,148.994 228.801,126.494 200.876,119.359 "/>
<g>
	<path fill="none" stroke="#394CD3" stroke-width="2" stroke-miterlimit="10" d="M547.883,118.108
		c-0.332,0.337-0.668,0.667-1.01,0.99c-0.544,0.515-1.103,1.011-1.669,1.489c-0.18,0.15-0.354,0.301-0.538,0.445
		c-14.804,12.021-36.59,11.27-50.523-2.4c-12.979-12.731-14.894-32.491-5.615-47.289"/>
	<path fill="none" stroke="#394CD3" stroke-width="2" stroke-miterlimit="10" d="M493.618,64.894
		c0.472-0.479,0.947-0.942,1.438-1.392c0.579-0.532,1.173-1.045,1.772-1.534c14.805-12.021,36.591-11.267,50.525,2.4
		c13.353,13.096,14.991,33.621,4.795,48.538"/>
	<polyline fill="none" stroke="#394CD3" stroke-width="2" stroke-miterlimit="10" points="495.365,51.943 492.473,65.717 
		506.504,64.637 	"/>
	<polyline fill="none" stroke="#394CD3" stroke-width="2" stroke-miterlimit="10" points="544.209,131.694 547.883,118.108 
		533.811,118.391 	"/>
</g>
<g>
	<g>
		<g>
			<polyline fill="#F7A328" points="470.49,106.148 470.49,117.614 481.957,129.081 522.091,111.881 533.558,94.681 533.558,83.214 
							"/>
			<polygon fill="#FFB640" points="522.091,71.748 533.558,83.214 522.091,100.415 481.957,117.614 470.49,106.148 499.156,77.481 
							"/>
		</g>
		<polygon fill="#EA931F" points="470.49,106.148 481.957,117.614 481.957,129.081 470.49,117.614 		"/>
	</g>
	
		<line fill="none" stroke="#EA931F" stroke-width="2" stroke-miterlimit="10" x1="440.156" y1="116.748" x2="451.156" y2="114.748"/>
	<line fill="none" stroke="#EA931F" stroke-width="2" stroke-miterlimit="10" x1="442.156" y1="96.748" x2="451.156" y2="99.748"/>
	<line fill="none" stroke="#EA931F" stroke-width="2" stroke-miterlimit="10" x1="460.156" y1="80.748" x2="463.156" y2="90.415"/>
</g>
<radialGradient id="SVGID_4_" cx="-582.8684" cy="2213.1289" r="45.5734" gradientTransform="matrix(-0.7728 0.6347 0.4399 0.5357 -1050.9781 -535.751)" gradientUnits="userSpaceOnUse">
	<stop  offset="0" style="stop-color:#FFB640"/>
	<stop  offset="1" style="stop-color:#FFB640;stop-opacity:0"/>
</radialGradient>
<path opacity="0.4" fill="url(#SVGID_4_)" enable-background="new    " d="M378.961,285.511l-33.537,31.822
	c0,0-24.234-10.281-20.563-14.934c3.672-4.649,45.287-19.828,45.287-19.828L378.961,285.511z"/>
<linearGradient id="SVGID_5_" gradientUnits="userSpaceOnUse" x1="-127.927" y1="1209.126" x2="-113.1184" y2="1209.126" gradientTransform="matrix(1 0 0 -1 502.3999 1405.9297)">
	<stop  offset="0" style="stop-color:#4B65E2"/>
	<stop  offset="0.3925" style="stop-color:#1F38B2"/>
	<stop  offset="0.9301" style="stop-color:#1F38B2"/>
</linearGradient>
<path fill="url(#SVGID_5_)" d="M386.566,169.003c0.044-0.182,0.063-0.355,0.033-0.512c-0.209-1.09-3.142-1.872-5.924-1.34
	c-2.783,0.533-4.361,2.18-4.152,3.269l-2.05,56.206h14.809L386.566,169.003z"/>
<linearGradient id="SVGID_6_" gradientUnits="userSpaceOnUse" x1="-140.6594" y1="1205.8213" x2="-125.8459" y2="1205.8213" gradientTransform="matrix(1 0 0 -1 502.3999 1405.9297)">
	<stop  offset="0" style="stop-color:#4B65E2"/>
	<stop  offset="0.3925" style="stop-color:#1F38B2"/>
	<stop  offset="0.9301" style="stop-color:#1F38B2"/>
</linearGradient>
<path fill="url(#SVGID_6_)" d="M373.834,172.3c0.044-0.178,0.062-0.35,0.031-0.504c-0.209-1.089-3.139-1.871-5.923-1.34
	c-2.783,0.533-4.358,2.18-4.149,3.27l-2.053,56.205h14.813L373.834,172.3z"/>
<linearGradient id="SVGID_7_" gradientUnits="userSpaceOnUse" x1="-1140.4812" y1="665.2051" x2="-1128.608" y2="643.7146" gradientTransform="matrix(1 0 0 -1 1507.1992 890.959)">
	<stop  offset="0" style="stop-color:#4B65E2"/>
	<stop  offset="0.8978" style="stop-color:#1F38B2"/>
</linearGradient>
<polygon fill="url(#SVGID_7_)" points="355.461,276.452 411.275,235.326 396.586,214.765 355.461,229.451 "/>
<linearGradient id="SVGID_8_" gradientUnits="userSpaceOnUse" x1="-1125.7952" y1="659.332" x2="-1113.9224" y2="637.842" gradientTransform="matrix(1 0 0 -1 1507.1992 890.959)">
	<stop  offset="0" style="stop-color:#4B65E2"/>
	<stop  offset="0.8978" style="stop-color:#1F38B2"/>
</linearGradient>
<polygon fill="url(#SVGID_8_)" points="370.149,282.327 425.962,241.201 411.275,220.64 370.149,235.326 "/>
<linearGradient id="SVGID_9_" gradientUnits="userSpaceOnUse" x1="-1111.1062" y1="653.458" x2="-1099.233" y2="631.9675" gradientTransform="matrix(1 0 0 -1 1507.1992 890.959)">
	<stop  offset="0" style="stop-color:#4B65E2"/>
	<stop  offset="0.8978" style="stop-color:#1F38B2"/>
</linearGradient>
<polygon fill="url(#SVGID_9_)" points="384.836,288.202 440.65,247.076 425.962,226.515 384.836,241.201 "/>
<g>
	<g>
		<g>
			<g>
				<defs>
					<polygon id="SVGID_10_" points="384.836,288.202 440.65,247.076 425.962,226.515 384.836,241.201 					"/>
				</defs>
				<clipPath id="SVGID_11_">
					<use xlink:href="#SVGID_10_"  overflow="visible"/>
				</clipPath>
				<polygon clip-path="url(#SVGID_11_)" fill="#4B65E2" points="459.951,217.502 466.031,216.843 465.668,213.491 470.602,210.03 
					464.323,201.081 463.991,198.05 462.323,198.229 459.743,194.558 455.434,197.582 453.211,195.497 452.408,196.349 
					452.18,196.103 449.709,198.429 446.893,199.903 445.959,200.005 445.689,199.515 445.03,199.88 441.698,198.708 
					441.441,199.44 440.496,198.92 438.036,203.358 433.76,202.704 431.957,201.899 431.379,203.196 430.153,202.597 
					429.794,203.327 426.648,207.951 424.526,208.835 420.524,206.506 419.261,208.677 417.215,207.696 416.156,209.903 
					413.676,209.204 412.991,211.622 411.74,212.573 409.391,211.856 408.65,211.353 408.49,211.583 408.033,211.442 
					407.589,212.907 406.7,214.206 405.8,213.285 401.988,217.024 398.709,217.548 395.74,216.097 394.984,217.646 394.977,217.64 
					394.24,218.343 392.615,218.239 392.505,220.009 392.154,220.345 390.975,219.095 389.682,220.313 389.196,219.828 
					386.45,222.573 382.551,222.833 382.651,224.327 377.813,224.271 377.73,231.308 375.38,233.659 377.675,235.951 
					377.582,243.817 385.647,243.913 388.755,247.019 390.073,245.696 390.63,246.286 393.055,244.001 393.159,244.001 
					393.94,244.813 394.766,244.021 395.365,244.028 395.399,244.062 395.436,244.028 396.484,244.041 396.492,243.065 
					398.363,241.373 402.39,241.104 404.141,241.96 404.941,240.323 405.082,240.47 407.465,238.132 410.919,238.354 
					410.986,237.31 411.16,237.543 411.731,237.112 413.255,238.151 416.128,233.938 416.191,233.903 416.641,233.833 
					421.218,235.229 422.227,231.923 426.571,233.146 426.573,233.134 426.684,233.188 426.864,232.813 427.03,232.909 
					428.75,229.95 429.321,229.868 429.22,229.172 432.4,227.159 435.698,229.403 437.25,227.126 439.388,228.173 440.012,226.897 
					441.256,227.454 442.723,224.166 442.849,224.101 446.49,224.593 447.556,225.183 448.192,224.034 448.516,224.083 
					448.651,223.208 449.463,221.741 450.899,223.267 451.892,222.331 453.865,223.026 454.202,222.067 455.666,220.511 				"/>
			</g>
		</g>
	</g>
</g>
<g>
	<g>
		<g>
			<g>
				<defs>
					<polygon id="SVGID_12_" points="370.149,282.327 425.962,241.201 411.275,220.64 370.149,235.326 					"/>
				</defs>
				<clipPath id="SVGID_13_">
					<use xlink:href="#SVGID_12_"  overflow="visible"/>
				</clipPath>
				<polygon clip-path="url(#SVGID_13_)" fill="#4B65E2" points="422.134,221.175 428.211,220.517 427.848,217.166 432.781,213.704 
					426.502,204.754 426.174,201.724 424.504,201.903 421.926,198.229 417.614,201.256 415.391,199.17 414.592,200.022 
					414.36,199.774 411.89,202.101 409.073,203.577 408.14,203.679 407.866,203.188 407.209,203.554 403.878,202.382 
					403.617,203.114 402.68,202.595 400.22,207.032 395.941,206.377 394.138,205.573 393.559,206.87 392.332,206.269 391.974,207 
					388.825,211.625 386.703,212.509 382.7,210.179 381.441,212.349 379.395,211.369 378.338,213.577 375.856,212.878 
					375.175,215.295 373.919,216.248 371.571,215.53 370.827,215.024 370.672,215.256 370.216,215.116 369.769,216.581 
					368.883,217.88 367.98,216.959 364.166,220.698 360.89,221.222 357.921,219.771 357.16,221.319 357.156,221.313 
					356.422,222.017 354.798,221.912 354.685,223.681 354.332,224.019 353.156,222.769 351.863,223.987 351.375,223.501 
					348.633,226.246 344.731,226.506 344.827,228 339.99,227.942 339.906,234.979 337.56,237.332 339.855,239.625 339.762,247.491 
					347.823,247.587 350.936,250.69 352.254,249.37 352.81,249.96 355.235,247.674 355.343,247.675 356.116,248.485 
					356.946,247.694 357.548,247.701 357.575,247.735 357.615,247.702 358.66,247.714 358.675,246.739 360.541,245.046 
					364.57,244.778 366.322,245.634 367.117,243.998 367.263,244.144 369.645,241.806 373.099,242.026 373.162,240.981 
					373.343,241.218 373.907,240.786 375.435,241.826 378.308,237.612 378.368,237.578 378.821,237.507 383.398,238.903 
					384.406,235.597 388.75,236.819 388.754,236.808 388.864,236.86 389.043,236.485 389.209,236.582 390.932,233.623 
					391.5,233.541 391.4,232.847 394.576,230.833 397.88,233.078 399.431,230.799 401.568,231.847 402.192,230.571 403.436,231.127 
					404.903,227.84 405.029,227.772 408.671,228.267 409.736,228.854 410.369,227.707 410.697,227.757 410.827,226.882 
					411.644,225.414 413.075,226.938 414.072,226.005 416.048,226.698 416.385,225.739 417.846,224.183 				"/>
			</g>
		</g>
	</g>
</g>
<g>
	<g>
		<g>
			<g>
				<defs>
					<polygon id="SVGID_14_" points="355.461,276.573 411.275,235.448 396.586,214.886 355.461,229.573 					"/>
				</defs>
				<clipPath id="SVGID_15_">
					<use xlink:href="#SVGID_14_"  overflow="visible"/>
				</clipPath>
				<polygon clip-path="url(#SVGID_15_)" fill="#4B65E2" points="398.879,218.972 404.953,218.313 404.593,214.963 409.527,211.501 
					403.244,202.552 402.919,199.521 401.246,199.701 398.671,196.026 394.359,199.054 392.136,196.968 391.337,197.819 
					391.105,197.571 388.634,199.897 385.818,201.374 384.885,201.476 384.614,200.983 383.951,201.351 380.62,200.179 
					380.365,200.911 379.424,200.392 376.964,204.829 372.685,204.174 370.883,203.37 370.304,204.667 369.074,204.065 
					368.719,204.797 365.573,209.422 363.448,210.306 359.448,207.976 358.186,210.146 356.14,209.166 355.082,211.374 
					352.601,210.674 351.919,213.093 350.661,214.044 348.316,213.327 347.573,212.821 347.416,213.054 346.961,212.914 
					346.514,214.378 345.628,215.677 344.725,214.756 340.909,218.496 337.635,219.019 334.662,217.567 333.906,219.116 
					333.902,219.108 333.166,219.813 331.543,219.709 331.43,221.478 331.075,221.813 329.9,220.563 328.607,221.784 
					328.117,221.298 325.378,224.043 321.476,224.304 321.573,225.797 316.738,225.739 316.655,232.776 314.305,235.129 
					316.6,237.422 316.507,245.288 324.572,245.384 327.681,248.487 328.996,247.167 329.555,247.757 331.98,245.472 
					332.087,245.472 332.865,246.282 333.691,245.491 334.293,245.498 334.323,245.532 334.361,245.499 335.406,245.511 
					335.42,244.537 337.284,242.843 341.315,242.575 343.066,243.431 343.865,241.795 344.008,241.938 346.39,239.603 
					349.844,239.823 349.907,238.778 350.088,239.015 350.656,238.583 352.18,239.623 355.053,235.409 355.115,235.375 
					355.566,235.304 360.143,236.7 361.152,233.394 365.492,234.616 365.496,234.604 365.609,234.657 365.785,234.282 
					365.951,234.379 367.677,231.42 368.242,231.338 368.145,230.644 371.323,228.63 374.625,230.875 376.176,228.597 
					378.313,229.644 378.937,228.369 380.181,228.924 381.648,225.638 381.774,225.569 385.412,226.063 386.481,226.651 
					387.115,225.504 387.441,225.554 387.573,224.679 388.388,223.211 389.823,224.735 390.817,223.802 392.793,224.496 
					393.13,223.537 394.591,221.979 				"/>
			</g>
		</g>
	</g>
</g>
<polygon fill="#1131A5" points="355.461,240.298 355.461,276.228 399.524,294.077 399.524,294.077 399.524,261.765 399.524,261.765 
	384.836,241.201 384.836,255.89 370.149,235.326 370.149,250.015 355.461,229.451 "/>
<linearGradient id="SVGID_16_" gradientUnits="userSpaceOnUse" x1="-1107.6755" y1="620.3818" x2="-1066.5496" y2="620.3818" gradientTransform="matrix(1 0 0 -1 1507.1992 890.959)">
	<stop  offset="0" style="stop-color:#3F58D4"/>
	<stop  offset="1" style="stop-color:#1F38B2"/>
</linearGradient>
<polygon fill="url(#SVGID_16_)" points="440.65,279.39 399.524,294.077 399.524,261.765 440.65,247.076 "/>
<linearGradient id="SVGID_17_" gradientUnits="userSpaceOnUse" x1="-1136.4636" y1="626.4697" x2="-1128.8239" y2="605.4799" gradientTransform="matrix(1 0 0 -1 1507.1992 890.959)">
	<stop  offset="0.4419" style="stop-color:#FFB640"/>
	<stop  offset="0.7527" style="stop-color:#1F38B2"/>
</linearGradient>
<polygon fill="url(#SVGID_17_)" points="370.149,282.327 370.149,264.702 378.961,267.64 378.961,285.265 "/>
<path fill="#102470" d="M372.683,172.22c0.161,0.844-1.109,2.254-3.273,2.67c-2.161,0.414-4.396-0.326-4.558-1.17
	c-0.163-0.848,1.063-2.127,3.227-2.541S372.521,171.372,372.683,172.22z"/>
<path fill="#102470" d="M385.494,168.905c0.161,0.846-1.108,2.256-3.272,2.671c-2.162,0.413-4.396-0.325-4.559-1.169
	c-0.163-0.848,1.063-2.129,3.228-2.543S385.332,168.06,385.494,168.905z"/>
<linearGradient id="SVGID_18_" gradientUnits="userSpaceOnUse" x1="-1139.1355" y1="739.9805" x2="-1037.0525" y2="739.9805" gradientTransform="matrix(1 0 0 -1 1507.1992 890.959)">
	<stop  offset="0" style="stop-color:#4B65E2"/>
	<stop  offset="0.8978" style="stop-color:#1F38B2;stop-opacity:0"/>
</linearGradient>
<path fill="url(#SVGID_18_)" d="M368.349,167.581c-0.138,2.197-0.734-5.508,0.367-9.547c1.101-4.039,7.711-8.813,13.586-8.446
	c5.876,0.367,13.587,3.305,17.993,1.469c4.403-1.836,11.016-7.344,16.153-8.078c5.143-0.734,2.57,3.672,16.156,0.734
	s16.156-8.445,19.095-9.547c2.939-1.102,16.894,3.305,16.894,3.305s2.567,18.36,1.102,17.258s-15.789-8.813-19.829-7.344
	c-4.039,1.469-16.891,9.18-22.766,8.079s-9.547-4.407-17.625-0.734c-8.078,3.672-11.75,5.141-14.688,5.141
	c-2.938,0-14.318-3.305-18.728-1.836C371.652,159.504,368.716,161.706,368.349,167.581z"/>
<linearGradient id="SVGID_19_" gradientUnits="userSpaceOnUse" x1="-1126.2849" y1="743.2861" x2="-1024.2014" y2="743.2861" gradientTransform="matrix(1 0 0 -1 1507.1992 890.959)">
	<stop  offset="0" style="stop-color:#4B65E2"/>
	<stop  offset="0.8978" style="stop-color:#1F38B2;stop-opacity:0"/>
</linearGradient>
<path opacity="0.5" fill="url(#SVGID_19_)" enable-background="new    " d="M381.198,164.276c-0.137,2.197-0.731-5.508,0.367-9.547
	c1.104-4.04,7.712-8.813,13.587-8.446c5.875,0.367,13.586,3.305,17.992,1.469s11.016-7.344,16.156-8.078
	c5.14-0.734,2.567,3.672,16.153,0.734c13.59-2.938,16.157-8.445,19.098-9.547c2.938-1.102,16.891,3.305,16.891,3.305
	s2.57,18.36,1.104,17.258c-1.472-1.102-15.789-8.813-19.828-7.344c-4.039,1.469-16.895,9.18-22.77,8.079
	c-5.875-1.101-9.547-4.407-17.625-0.735c-8.075,3.672-11.75,5.141-14.688,5.141c-2.938,0-14.32-3.305-18.729-1.836
	C384.504,156.198,381.568,158.401,381.198,164.276z"/>
</svg>
