<?xml version="1.0" encoding="utf-8"?>
<!-- Generator: Adobe Illustrator 16.0.0, SVG Export Plug-In . SVG Version: 6.00 Build 0)  -->
<!DOCTYPE svg PUBLIC "-//W3C//DTD SVG 1.1//EN" "http://www.w3.org/Graphics/SVG/1.1/DTD/svg11.dtd">
<svg version="1.1" id="Layer_1" xmlns="http://www.w3.org/2000/svg" xmlns:xlink="http://www.w3.org/1999/xlink" x="0px" y="0px"
	 width="545.091px" height="325.83px" viewBox="0 0 545.091 325.83" enable-background="new 0 0 545.091 325.83"
	 xml:space="preserve">
<g>
	<g>
		<g>
			<path fill="#1F38B2" d="M287.861,160.282c0,0,0.24,79.026,0.667,142.874c-0.147-0.148-0.592-0.593-1.032-1.033
				c38.589-0.231,94.477-0.427,156.013-0.427c1.289,0,2.562,0,3.668,0c-0.579,0.582-1.02,1.023-1.461,1.465
				c0.004-39.178,0.088-118.133,0.211-142.873c0.566,0.566,0.9,0.908,1.248,1.249c-97.459-0.319-159.681-0.888-159.681-0.888
				s66.119-1.02,159.681-1.537c0.645-0.003,1.167,0.515,1.171,1.16v0.015c0.173,30.978,0.285,107.128,0.294,142.873
				c0,0.811-0.656,1.467-1.467,1.467l0,0c-0.592,0-1.214,0-1.835,0c-60.8,0-116.406-0.33-157.846-0.708h-0.014
				c-0.416-0.002-0.75-0.341-0.746-0.76C287.251,240.585,287.861,160.282,287.861,160.282z"/>
		</g>
	</g>
</g>
<g>
	<g>
		<g>
			<path fill="#1F38B2" d="M384.335,30.496c0,0-35.75,0.491-96.232,0.813c0.171-0.17,0.676-0.675,1.179-1.179
				c0.16,20.299,0.279,68.907,0.279,102.395c0,0.907,0,1.812,0,2.585c-0.584-0.585-1.023-1.022-1.458-1.457
				c37.322,0.006,72.064,0.159,96.232,0.348c-0.488,0.481-0.797,0.796-1.11,1.108c0.32-54.513,0.747-104.98,0.747-104.98
				s0.753,51.754,1.287,104.98l0.013,0.91l-0.935,0.011c-26.532,0.298-60.209,0.531-96.231,0.538h-1.458v-1.458
				c0-0.415,0-0.854,0-1.293c0-31.878,0.18-79.231,0.434-103.687l0.01-1.04l1.025,0.009
				C346.26,29.638,384.335,30.496,384.335,30.496z"/>
		</g>
	</g>
</g>
<g>
	<g>
		<g>
			<path fill="#1F38B2" d="M301.773,79.887c0,0-57.62,0.491-118.103,0.814c0.171-0.172,0.676-0.675,1.179-1.179
				c0.161,20.299,0.279,73.279,0.279,106.767c0,0.907,0,1.813,0,2.586c-0.585-0.585-1.023-1.022-1.458-1.456
				c37.322,0.006,93.935,0.159,118.103,0.348c-0.483,0.482-0.796,0.797-1.111,1.108c0.32-54.511,0.747-109.354,0.747-109.354
				s0.753,56.126,1.292,109.354l0.008,0.91l-0.934,0.012c-26.534,0.297-82.081,0.531-118.103,0.537h-1.458v-1.459
				c0-0.414,0-0.853,0-1.292c0-31.882,0.18-83.609,0.434-108.064l0.01-1.041l1.025,0.009
				C241.826,79.031,301.773,79.887,301.773,79.887z"/>
		</g>
	</g>
</g>
<polygon fill="#394CD3" points="252.036,105.403 243.287,118.525 234.539,105.403 234.539,31.043 238.913,26.669 247.661,26.669 
	252.036,31.043 "/>
<path fill="#FFB640" d="M247.646,26.677h-8.749l-4.374,4.375l4.374,4.374h8.749l4.374-4.374L247.646,26.677z M243.25,33.148
	c-1.896,0-3.441-0.802-3.441-1.796s1.543-1.801,3.441-1.801c1.902,0,3.439,0.805,3.439,1.801S245.152,33.148,243.25,33.148z"/>
<polygon fill="#FFB640" points="234.539,105.403 238.913,109.777 247.661,109.777 252.036,105.403 243.287,123.993 "/>
<polygon fill="#1F38B2" points="247.661,35.416 252.036,31.042 252.036,105.403 247.661,109.777 "/>
<polygon fill="#4B65E2" points="238.913,35.416 234.539,31.042 234.539,105.403 238.913,109.777 "/>
<g>
	
		<polygon fill="none" stroke="#1F38B2" stroke-width="2.1011" stroke-linecap="round" stroke-linejoin="round" stroke-miterlimit="10" points="
		315.231,215.985 313.656,234.632 365.827,266.183 396.724,259.565 414.234,229.45 416.608,196.812 391.92,188.933 347.535,186.045 
			"/>
	
		<polyline fill="none" stroke="#1F38B2" stroke-width="2.1011" stroke-linecap="round" stroke-linejoin="round" stroke-miterlimit="10" points="
		316.281,216.51 351.212,214.934 350.949,224.914 396.724,259.565 	"/>
	
		<polyline fill="none" stroke="#1F38B2" stroke-width="2.1011" stroke-linecap="round" stroke-linejoin="round" stroke-miterlimit="10" points="
		352.263,214.934 392.708,219.136 414.234,229.45 	"/>
	
		<polyline fill="none" stroke="#1F38B2" stroke-width="2.1011" stroke-linecap="round" stroke-linejoin="round" stroke-miterlimit="10" points="
		392.971,189.984 392.708,219.136 381.94,188.933 	"/>
	
		<polyline fill="none" stroke="#1F38B2" stroke-width="2.1011" stroke-linecap="round" stroke-linejoin="round" stroke-miterlimit="10" points="
		365.919,187.883 351.212,214.934 347.535,186.045 	"/>
	
		<line fill="none" stroke="#1F38B2" stroke-width="2.1011" stroke-linecap="round" stroke-linejoin="round" stroke-miterlimit="10" x1="313.656" y1="234.632" x2="350.949" y2="224.914"/>
</g>
<g opacity="0.4">
	
		<polygon fill="none" stroke="#FF553E" stroke-width="2.0668" stroke-linecap="round" stroke-linejoin="round" stroke-miterlimit="10" points="
		319.061,81.253 342.217,65.691 358.216,73.143 363.058,90.896 344.111,111.936 317.587,100.32 	"/>
	
		<line fill="none" stroke="#FF553E" stroke-width="2.0668" stroke-linecap="round" stroke-linejoin="round" stroke-miterlimit="10" x1="339.83" y1="98.638" x2="344.111" y2="111.936"/>
	
		<line fill="none" stroke="#FF553E" stroke-width="2.0668" stroke-linecap="round" stroke-linejoin="round" stroke-miterlimit="10" x1="317.587" y1="100.32" x2="332.323" y2="90.677"/>
	
		<polyline fill="none" stroke="#FF553E" stroke-width="2.0668" stroke-linecap="round" stroke-linejoin="round" stroke-miterlimit="10" points="
		319.061,81.253 335.482,81.91 339.83,98.638 	"/>
	
		<polyline fill="none" stroke="#FF553E" stroke-width="2.0668" stroke-linecap="round" stroke-linejoin="round" stroke-miterlimit="10" points="
		335.482,81.91 363.058,90.896 339.83,98.638 332.323,90.677 335.482,81.91 358.216,73.143 	"/>
</g>
<polyline fill="none" stroke="#FFB640" stroke-width="2.1164" stroke-miterlimit="10" points="223.238,121.964 237.745,147.973 
	263.142,156.439 290.655,132.629 261.105,125.079 "/>
<g>
	<path fill="none" stroke="#394CD3" stroke-width="2" stroke-miterlimit="10" d="M495.883,175.108
		c-0.332,0.337-0.668,0.667-1.011,0.99c-0.544,0.515-1.103,1.011-1.669,1.488c-0.18,0.15-0.354,0.302-0.538,0.445
		c-14.804,12.021-36.59,11.271-50.522-2.4c-12.979-12.73-14.895-32.49-5.615-47.288"/>
	<path fill="none" stroke="#394CD3" stroke-width="2" stroke-miterlimit="10" d="M441.617,121.894
		c0.473-0.479,0.947-0.942,1.438-1.393c0.579-0.531,1.173-1.045,1.771-1.533c14.806-12.021,36.592-11.268,50.525,2.399
		c13.354,13.096,14.991,33.621,4.795,48.538"/>
	<polyline fill="none" stroke="#394CD3" stroke-width="2" stroke-miterlimit="10" points="443.365,108.943 440.473,122.717 
		454.504,121.637 	"/>
	<polyline fill="none" stroke="#394CD3" stroke-width="2" stroke-miterlimit="10" points="492.208,188.694 495.883,175.108 
		481.811,175.391 	"/>
</g>
<g>
	<g>
		<g>
			<polyline fill="#F7A328" points="427.49,160.148 427.49,171.614 438.956,183.081 479.091,165.881 490.558,148.681 
				490.558,137.214 			"/>
			<polygon fill="#FFB640" points="479.091,125.748 490.558,137.214 479.091,154.415 438.956,171.614 427.49,160.148 
				456.156,131.481 			"/>
		</g>
		<polygon fill="#EA931F" points="427.49,160.148 438.956,171.614 438.956,183.081 427.49,171.614 		"/>
	</g>
	
		<line fill="none" stroke="#EA931F" stroke-width="2" stroke-miterlimit="10" x1="397.156" y1="170.748" x2="408.156" y2="168.748"/>
	
		<line fill="none" stroke="#EA931F" stroke-width="2" stroke-miterlimit="10" x1="399.156" y1="150.748" x2="408.156" y2="153.748"/>
	
		<line fill="none" stroke="#EA931F" stroke-width="2" stroke-miterlimit="10" x1="417.156" y1="134.748" x2="420.156" y2="144.415"/>
</g>
<g>
	
		<radialGradient id="SVGID_1_" cx="-763.3494" cy="-1522.1394" r="53.1433" gradientTransform="matrix(-0.7728 0.6347 -0.4399 -0.5357 -1195.04 -93.22)" gradientUnits="userSpaceOnUse">
		<stop  offset="0" style="stop-color:#FFB640"/>
		<stop  offset="1" style="stop-color:#FFB640;stop-opacity:0"/>
	</radialGradient>
	<path opacity="0.4" fill="url(#SVGID_1_)" enable-background="new    " d="M71.395,244.263L32.288,281.37
		c0,0-28.259-11.987-23.979-17.414c4.283-5.42,52.809-23.121,52.809-23.121L71.395,244.263z"/>
	
		<linearGradient id="SVGID_2_" gradientUnits="userSpaceOnUse" x1="-715.3386" y1="-517.509" x2="-698.0706" y2="-517.509" gradientTransform="matrix(1 0 0 1 781.5 658.3301)">
		<stop  offset="0" style="stop-color:#4B65E2"/>
		<stop  offset="0.3925" style="stop-color:#1F38B2"/>
		<stop  offset="0.9301" style="stop-color:#1F38B2"/>
	</linearGradient>
	<path fill="url(#SVGID_2_)" d="M80.263,108.404c0.051-0.212,0.074-0.413,0.039-0.597c-0.244-1.271-3.664-2.183-6.908-1.563
		c-3.246,0.622-5.086,2.542-4.842,3.812l-2.391,65.541h17.268L80.263,108.404z"/>
	
		<linearGradient id="SVGID_3_" gradientUnits="userSpaceOnUse" x1="-730.1868" y1="-513.6545" x2="-712.9128" y2="-513.6545" gradientTransform="matrix(1 0 0 1 781.5 658.3301)">
		<stop  offset="0" style="stop-color:#4B65E2"/>
		<stop  offset="0.3925" style="stop-color:#1F38B2"/>
		<stop  offset="0.9301" style="stop-color:#1F38B2"/>
	</linearGradient>
	<path fill="url(#SVGID_3_)" d="M65.417,112.249c0.051-0.208,0.072-0.408,0.035-0.588c-0.244-1.27-3.66-2.182-6.906-1.563
		c-3.245,0.622-5.081,2.543-4.837,3.814l-2.395,65.54h17.274L65.417,112.249z"/>
	
		<linearGradient id="SVGID_4_" gradientUnits="userSpaceOnUse" x1="-1729.1799" y1="31.2205" x2="-1715.3347" y2="56.2804" gradientTransform="matrix(1 0 0 1 1786.2988 143.3594)">
		<stop  offset="0" style="stop-color:#4B65E2"/>
		<stop  offset="0.8978" style="stop-color:#1F38B2"/>
	</linearGradient>
	<polygon fill="url(#SVGID_4_)" points="43.992,233.699 109.075,185.743 91.948,161.767 43.992,178.892 	"/>
	
		<linearGradient id="SVGID_5_" gradientUnits="userSpaceOnUse" x1="-1712.0535" y1="38.0696" x2="-1698.2092" y2="63.1278" gradientTransform="matrix(1 0 0 1 1786.2988 143.3594)">
		<stop  offset="0" style="stop-color:#4B65E2"/>
		<stop  offset="0.8978" style="stop-color:#1F38B2"/>
	</linearGradient>
	<polygon fill="url(#SVGID_5_)" points="61.119,240.55 126.202,192.594 109.075,168.618 61.119,185.743 	"/>
	
		<linearGradient id="SVGID_6_" gradientUnits="userSpaceOnUse" x1="-1694.9265" y1="44.9197" x2="-1681.0813" y2="69.9796" gradientTransform="matrix(1 0 0 1 1786.2988 143.3594)">
		<stop  offset="0" style="stop-color:#4B65E2"/>
		<stop  offset="0.8978" style="stop-color:#1F38B2"/>
	</linearGradient>
	<polygon fill="url(#SVGID_6_)" points="78.246,247.401 143.329,199.444 126.202,175.469 78.246,192.594 	"/>
	<g>
		<g>
			<g>
				<g>
					<g>
						<defs>
							<polygon id="SVGID_7_" points="78.246,247.401 143.329,199.444 126.202,175.469 78.246,192.594 							"/>
						</defs>
						<clipPath id="SVGID_8_">
							<use xlink:href="#SVGID_7_"  overflow="visible"/>
						</clipPath>
						<polygon clip-path="url(#SVGID_8_)" fill="#4B65E2" points="165.836,164.958 172.926,164.19 172.502,160.282 178.256,156.245 
							170.934,145.81 170.547,142.275 168.602,142.485 165.593,138.204 160.569,141.73 157.977,139.299 157.04,140.293 
							156.775,140.006 153.892,142.718 150.61,144.437 149.52,144.555 149.205,143.985 148.437,144.409 144.551,143.043 
							144.252,143.897 143.15,143.29 140.281,148.466 135.295,147.702 133.192,146.764 132.519,148.277 131.089,147.578 
							130.671,148.429 127.002,153.821 124.528,154.852 119.861,152.135 118.388,154.669 116.003,153.524 114.767,156.097 
							111.876,155.282 111.076,158.102 109.617,159.211 106.879,158.375 106.015,157.788 105.828,158.055 105.295,157.892 
							104.778,159.6 103.741,161.115 102.692,160.041 98.246,164.401 94.423,165.011 90.96,163.321 90.079,165.127 90.071,165.12 
							89.211,165.94 87.316,165.818 87.189,167.883 86.779,168.274 85.404,166.817 83.897,168.237 83.329,167.671 80.128,170.872 
							75.581,171.175 75.698,172.917 70.056,172.852 69.959,181.058 67.219,183.799 69.895,186.471 69.787,195.644 79.191,195.756 
							82.816,199.379 84.352,197.835 85.002,198.523 87.83,195.858 87.951,195.858 88.862,196.805 89.825,195.883 90.523,195.89 
							90.563,195.93 90.606,195.89 91.828,195.905 91.838,194.767 94.019,192.794 98.715,192.481 100.757,193.478 101.69,191.57 
							101.855,191.742 104.633,189.014 108.661,189.274 108.739,188.056 108.943,188.328 109.608,187.826 111.385,189.037 
							114.735,184.125 114.808,184.084 115.333,184.002 120.67,185.63 121.847,181.774 126.912,183.201 126.914,183.187 
							127.044,183.25 127.254,182.812 127.447,182.925 129.452,179.473 130.118,179.379 130.001,178.566 133.709,176.219 
							137.555,178.837 139.365,176.18 141.858,177.401 142.586,175.914 144.036,176.563 145.747,172.729 145.894,172.654 
							150.139,173.227 151.383,173.916 152.124,172.575 152.502,172.632 152.659,171.612 153.607,169.901 155.281,171.681 
							156.439,170.589 158.739,171.4 159.132,170.282 160.839,168.468 						"/>
					</g>
				</g>
			</g>
		</g>
	</g>
	<g>
		<g>
			<g>
				<g>
					<g>
						<defs>
							<polygon id="SVGID_9_" points="61.119,240.55 126.202,192.594 109.075,168.618 61.119,185.743 							"/>
						</defs>
						<clipPath id="SVGID_10_">
							<use xlink:href="#SVGID_9_"  overflow="visible"/>
						</clipPath>
						<polygon clip-path="url(#SVGID_10_)" fill="#4B65E2" points="121.739,169.241 128.825,168.475 128.402,164.566 
							134.154,160.53 126.832,150.093 126.449,146.56 124.502,146.769 121.496,142.485 116.467,146.014 113.875,143.581 
							112.944,144.575 112.673,144.286 109.793,147 106.508,148.72 105.42,148.84 105.1,148.267 104.335,148.695 100.45,147.327 
							100.147,148.181 99.053,147.576 96.185,152.75 91.195,151.986 89.093,151.048 88.417,152.56 86.987,151.86 86.569,152.712 
							82.898,158.105 80.423,159.137 75.756,156.42 74.286,158.95 71.901,157.807 70.669,160.382 67.774,159.566 66.98,162.385 
							65.516,163.496 62.777,162.659 61.91,162.069 61.729,162.339 61.198,162.177 60.676,163.885 59.643,165.399 58.59,164.325 
							54.143,168.685 50.323,169.297 46.861,167.604 45.973,169.409 45.968,169.403 45.113,170.223 43.219,170.1 43.087,172.165 
							42.676,172.558 41.303,171.1 39.796,172.52 39.228,171.954 36.03,175.155 31.48,175.458 31.592,177.2 25.951,177.133 
							25.853,185.339 23.117,188.082 25.794,190.756 25.685,199.928 35.085,200.04 38.715,203.659 40.253,202.119 40.901,202.807 
							43.728,200.141 43.854,200.142 44.755,201.088 45.723,200.165 46.426,200.173 46.458,200.213 46.503,200.175 47.723,200.188 
							47.74,199.052 49.916,197.077 54.614,196.764 56.656,197.762 57.584,195.855 57.754,196.026 60.531,193.3 64.559,193.555 
							64.633,192.338 64.844,192.614 65.501,192.109 67.283,193.322 70.634,188.409 70.704,188.369 71.231,188.286 76.569,189.914 
							77.744,186.059 82.81,187.484 82.815,187.471 82.942,187.532 83.152,187.094 83.345,187.207 85.354,183.757 86.017,183.661 
							85.9,182.852 89.604,180.504 93.456,183.121 95.265,180.464 97.756,181.686 98.484,180.198 99.935,180.846 101.645,177.013 
							101.792,176.934 106.04,177.511 107.281,178.196 108.02,176.858 108.402,176.916 108.554,175.896 109.506,174.184 
							111.176,175.962 112.337,174.874 114.642,175.681 115.034,174.563 116.739,172.75 						"/>
					</g>
				</g>
			</g>
		</g>
	</g>
	<g>
		<g>
			<g>
				<g>
					<g>
						<defs>
							<polygon id="SVGID_11_" points="43.992,233.841 109.075,185.885 91.948,161.909 43.992,179.034 							"/>
						</defs>
						<clipPath id="SVGID_12_">
							<use xlink:href="#SVGID_11_"  overflow="visible"/>
						</clipPath>
						<polygon clip-path="url(#SVGID_12_)" fill="#4B65E2" points="94.621,166.673 101.704,165.905 101.284,161.997 
							107.037,157.961 99.712,147.526 99.332,143.991 97.382,144.201 94.379,139.916 89.35,143.447 86.758,141.014 85.826,142.007 
							85.556,141.717 82.675,144.43 79.39,146.152 78.303,146.271 77.987,145.696 77.214,146.125 73.33,144.759 73.031,145.612 
							71.935,145.007 69.067,150.18 64.076,149.416 61.975,148.479 61.3,149.991 59.865,149.29 59.452,150.143 55.783,155.536 
							53.305,156.567 48.64,153.851 47.169,156.382 44.783,155.237 43.551,157.812 40.657,156.996 39.862,159.817 38.395,160.927 
							35.66,160.091 34.793,159.501 34.611,159.772 34.08,159.608 33.559,161.315 32.526,162.831 31.473,161.757 27.024,166.118 
							23.205,166.727 19.739,165.034 18.856,166.841 18.852,166.831 17.994,167.653 16.102,167.532 15.969,169.594 15.556,169.985 
							14.185,168.528 12.677,169.952 12.107,169.385 8.913,172.586 4.362,172.891 4.475,174.631 -1.163,174.563 -1.26,182.769 
							-4,185.512 -1.323,188.186 -1.432,197.359 7.972,197.47 11.598,201.09 13.132,199.551 13.783,200.238 16.611,197.574 
							16.736,197.574 17.642,198.518 18.606,197.596 19.308,197.604 19.343,197.644 19.387,197.605 20.606,197.62 20.623,196.483 
							22.797,194.509 27.496,194.196 29.538,195.194 30.469,193.286 30.637,193.453 33.414,190.73 37.442,190.987 37.515,189.768 
							37.727,190.045 38.388,189.541 40.166,190.754 43.516,185.84 43.588,185.8 44.114,185.718 49.451,187.344 50.628,183.49 
							55.69,184.915 55.694,184.901 55.825,184.963 56.031,184.525 56.225,184.638 58.237,181.187 58.896,181.093 58.782,180.284 
							62.488,177.934 66.339,180.552 68.148,177.896 70.639,179.118 71.367,177.631 72.818,178.277 74.528,174.446 74.675,174.366 
							78.918,174.941 80.164,175.627 80.903,174.29 81.283,174.348 81.437,173.328 82.388,171.616 84.061,173.393 85.22,172.305 
							87.525,173.114 87.917,171.996 89.621,170.179 						"/>
					</g>
				</g>
			</g>
		</g>
	</g>
	<polygon fill="#1131A5" points="43.992,191.54 43.992,233.438 95.373,254.252 95.373,254.252 95.373,216.573 95.373,216.573 
		78.246,192.594 78.246,209.722 61.119,185.743 61.119,202.872 43.992,178.892 	"/>
	
		<linearGradient id="SVGID_13_" gradientUnits="userSpaceOnUse" x1="-1690.926" y1="83.4885" x2="-1642.9695" y2="83.4885" gradientTransform="matrix(1 0 0 1 1786.2988 143.3594)">
		<stop  offset="0" style="stop-color:#3F58D4"/>
		<stop  offset="1" style="stop-color:#1F38B2"/>
	</linearGradient>
	<polygon fill="url(#SVGID_13_)" points="143.329,237.126 95.373,254.252 95.373,216.573 143.329,199.444 	"/>
	
		<linearGradient id="SVGID_14_" gradientUnits="userSpaceOnUse" x1="-1724.4958" y1="76.3894" x2="-1715.5869" y2="100.8663" gradientTransform="matrix(1 0 0 1 1786.2988 143.3594)">
		<stop  offset="0.4419" style="stop-color:#FFB640"/>
		<stop  offset="0.7527" style="stop-color:#1F38B2"/>
	</linearGradient>
	<polygon fill="url(#SVGID_14_)" points="61.119,240.55 61.119,219.998 71.395,223.425 71.395,243.976 	"/>
	<path fill="#102470" d="M64.074,112.156c0.188,0.984-1.293,2.628-3.816,3.114c-2.52,0.482-5.126-0.38-5.315-1.364
		c-0.19-0.99,1.24-2.48,3.764-2.963C61.23,110.46,63.885,111.167,64.074,112.156z"/>
	<path fill="#102470" d="M79.013,108.29c0.187,0.986-1.292,2.63-3.816,3.114c-2.521,0.482-5.125-0.379-5.316-1.363
		c-0.19-0.989,1.239-2.482,3.764-2.965C76.17,106.594,78.824,107.305,79.013,108.29z"/>
	
		<linearGradient id="SVGID_15_" gradientUnits="userSpaceOnUse" x1="-1727.6106" y1="-55.9734" x2="-1608.5735" y2="-55.9734" gradientTransform="matrix(1 0 0 1 1786.2988 143.3594)">
		<stop  offset="0" style="stop-color:#4B65E2"/>
		<stop  offset="0.8978" style="stop-color:#1F38B2;stop-opacity:0"/>
	</linearGradient>
	<path fill="url(#SVGID_15_)" d="M59.02,106.746c-0.161,2.563-0.856-6.422,0.428-11.132c1.283-4.71,8.992-10.276,15.842-9.849
		c6.852,0.428,15.844,3.854,20.982,1.714c5.133-2.141,12.845-8.564,18.835-9.42c5.998-0.856,2.997,4.282,18.839,0.855
		c15.842-3.426,18.84-9.847,22.266-11.133c3.428-1.284,19.701,3.855,19.701,3.855s2.993,21.409,1.285,20.124
		c-1.708-1.286-18.412-10.277-23.123-8.563c-4.71,1.712-19.696,10.705-26.547,9.42c-6.851-1.284-11.132-5.138-20.552-0.855
		c-9.42,4.282-13.702,5.995-17.127,5.995c-3.426,0-16.696-3.854-21.839-2.141C62.872,97.327,59.448,99.895,59.02,106.746z"/>
	
		<linearGradient id="SVGID_16_" gradientUnits="userSpaceOnUse" x1="-1712.6257" y1="-59.8274" x2="-1593.5876" y2="-59.8274" gradientTransform="matrix(1 0 0 1 1786.2988 143.3594)">
		<stop  offset="0" style="stop-color:#4B65E2"/>
		<stop  offset="0.8978" style="stop-color:#1F38B2;stop-opacity:0"/>
	</linearGradient>
	<path opacity="0.5" fill="url(#SVGID_16_)" enable-background="new    " d="M74.003,102.892c-0.16,2.563-0.852-6.422,0.428-11.132
		c1.288-4.711,8.993-10.277,15.843-9.849s15.842,3.854,20.98,1.713c5.138-2.141,12.845-8.563,18.84-9.42
		c5.993-0.855,2.992,4.283,18.835,0.856c15.847-3.426,18.841-9.848,22.271-11.133c3.425-1.286,19.696,3.854,19.696,3.854
		s2.998,21.41,1.288,20.124c-1.717-1.284-18.412-10.276-23.122-8.563c-4.709,1.713-19.701,10.706-26.552,9.421
		c-6.851-1.283-11.132-5.139-20.552-0.857c-9.415,4.283-13.701,5.996-17.127,5.996c-3.426,0-16.699-3.854-21.84-2.141
		C77.859,93.472,74.435,96.042,74.003,102.892z"/>
</g>
<g>
	<polygon fill="#FFB640" points="287.094,249.393 287.094,249.672 270.641,263.98 270.641,263.702 254.185,249.393 254.185,249.672 
		237.729,263.98 237.729,263.702 221.275,249.393 221.275,249.672 204.82,263.98 204.82,239.488 221.275,225.179 221.275,224.902 
		237.729,239.21 237.729,239.488 254.185,225.179 254.185,224.902 270.641,239.21 270.641,239.488 287.094,225.179 287.094,224.902 
		303.547,239.21 303.547,263.702 	"/>
	<polygon fill="#F7A328" points="287.094,249.393 287.094,224.902 303.547,239.21 303.547,263.702 	"/>
	<polygon fill="#F7A328" points="221.275,249.393 221.275,224.902 237.729,239.21 237.729,263.702 	"/>
	<polygon fill="#F7A328" points="254.185,249.393 254.185,224.902 270.641,239.21 270.641,263.702 	"/>
</g>
</svg>
