<?xml version="1.0" encoding="utf-8"?>
<!-- Generator: Adobe Illustrator 16.0.0, SVG Export Plug-In . SVG Version: 6.00 Build 0)  -->
<!DOCTYPE svg PUBLIC "-//W3C//DTD SVG 1.1//EN" "http://www.w3.org/Graphics/SVG/1.1/DTD/svg11.dtd">
<svg version="1.1" id="Layer_1" xmlns="http://www.w3.org/2000/svg" xmlns:xlink="http://www.w3.org/1999/xlink" x="0px" y="0px"
	 width="1525px" height="616px" viewBox="0 0 1525 616" enable-background="new 0 0 1525 616" xml:space="preserve">
<g id="Layer_1_1_">
</g>
<g id="Layer_2_1_">
	
		<radialGradient id="SVGID_1_" cx="101.8025" cy="739.1116" r="797.2313" gradientTransform="matrix(1.9125 0 0 1.5636 579.8164 241.7104)" gradientUnits="userSpaceOnUse">
		<stop  offset="0.6059" style="stop-color:#FFE5FF"/>
		<stop  offset="1" style="stop-color:#FFFFFF;stop-opacity:0"/>
	</radialGradient>
	<path opacity="0.3" fill="url(#SVGID_1_)" enable-background="new    " d="M2526.72,1397.386
		c0,688.72-784.492,1247.032-1752.208,1247.032c-967.719,0-1752.208-558.313-1752.208-1247.032
		c0-688.715,784.488-1247.033,1752.208-1247.033C1742.228,150.353,2526.72,708.671,2526.72,1397.386z"/>
	<path opacity="0.07" fill="none" stroke="#8594FF" stroke-miterlimit="10" enable-background="new    " d="M1893.535,910.563
		c-247.789-314.435-661.832-520.475-1130.78-520.475c-468.95,0-882.993,206.04-1130.782,520.475H1893.535z"/>
	<path opacity="0.1" fill="none" stroke="#7676FF" stroke-width="1.1897" stroke-miterlimit="10" enable-background="new    " d="
		M2073.534,948.632c-287.229-383.951-767.184-635.544-1310.78-635.544c-543.598,0-1023.551,251.593-1310.782,635.544H2073.534z"/>
	<path opacity="0.1" fill="none" stroke="#7676FF" stroke-width="1.5642" stroke-miterlimit="10" enable-background="new    " d="
		M2379,1081.5c-356.965-534.054-953.438-884-1629.014-884s-1272.048,349.946-1629.016,884H2379z"/>
	<path opacity="0.07" fill="none" stroke="#EBEDE4" stroke-width="2.0256" stroke-miterlimit="10" enable-background="new    " d="
		M2791,1237.5C2345.509,519.894,1601.103,49.668,757.986,49.668S-829.533,519.894-1275.03,1237.5H2791z"/>
	<path fill="#EBEDE4" d="M1764.298,878.5C1544.91,629.346,1178.326,466.081,763.132,466.081
		c-415.196,0-781.78,163.265-1001.168,412.419H1764.298z"/>
	<ellipse fill="#DFE0DA" cx="702.819" cy="612.499" rx="66.39" ry="26.333"/>
	<path fill="#C3C4BB" d="M703.365,586.169c-1.1,0-2.19,0.012-3.277,0.03c35.143,0.681,52.295,12.689,50.742,26.688
		c-0.818,7.393-15.601,25.232-50.742,25.912c1.087,0.021,2.179,0.031,3.277,0.031c36.666,0,66.389-11.788,66.389-26.331
		C769.757,597.959,740.031,586.169,703.365,586.169z"/>
	<g id="Layer_3">
	</g>
	
		<ellipse transform="matrix(-0.971 -0.2389 0.2389 -0.971 1940.5824 1339.8468)" fill="#DFE0DA" cx="1051.492" cy="552.315" rx="37.181" ry="13.082"/>
	
		<ellipse transform="matrix(-0.971 -0.2389 0.2389 -0.971 2076.2839 1309.3016)" fill="#DFE0DA" cx="1117.491" cy="528.82" rx="37.181" ry="13.082"/>
	
		<ellipse transform="matrix(-0.997 -0.0773 0.0773 -0.997 1743.772 1246.2716)" fill="#DFE0DA" cx="896.007" cy="589.386" rx="29.341" ry="14.658"/>
	
		<ellipse transform="matrix(-0.9461 -0.324 0.324 -0.9461 2168.6262 1489.6294)" fill="#DFE0DA" cx="1208.311" cy="564.296" rx="17.766" ry="8.875"/>
	
		<ellipse transform="matrix(-0.9918 0.128 -0.128 -0.9918 1142.9072 994.231)" fill="#DFE0DA" cx="539.509" cy="533.838" rx="40.068" ry="16.078"/>
	<path fill="#C3C4BB" d="M579.739,530.175c-1.416-8.535-20.354-13.667-42.3-11.459c-1.55,0.153-3.07,0.347-4.563,0.563
		c20.894-1.604,29.761,5.729,31.124,13.944c0,0-4.232,13.739-23.874,16.61c0.809-0.063,1.619-0.133,2.438-0.215
		C564.511,547.418,581.155,538.71,579.739,530.175z"/>
	<path fill="#EBEDE4" d="M293,535.5c24-18,27-27,45-27s36-9,53-12s39-1,58-6s40-9,61-10s65-9,90-8s43,6,43,6s-297,51-321,58
		s-64,12-79,23s-41,19-41,19L293,535.5z"/>
	<path fill="#EBEDE4" d="M713,467.61c8.848-1.466,14.27-5.565,17.979-9.084c3.709-3.517,7.704-7.62,10.271-7.62
		c2.568,0,5.992,1.466,9.702,1.759c3.71,0.292,8.848-0.587,14.555-0.88c5.707-0.292,9.7-2.345,11.129-2.637
		c1.427-0.293,4.28-0.587,8.847,4.396c4.566,4.981,9.13,9.378,13.981,10.257c4.851,0.879,26.536,7.03,26.536,7.03L713,467.61z"/>
	<path fill="#EBEDE4" d="M1093,501.5c11.334,1.665,17,1.001,21.668,1.665c4.666,0.666,12.666,3.669,18,5
		c5.332,1.335,12.666,2.335,23,5C1166,515.831,1180,521.497,1190,523.831c10,2.335,20.334,5,29.334,9.669c9,4.665,10,6.331,17.334,9
		C1244,545.166,1093,501.5,1093,501.5z"/>
	<path fill="#EBEDE4" d="M944.668,476.831c10.666,0.669,22.666-1.334,33.666,0c11,1.335,23.666-1.334,28.334,2
		c4.666,3.335,8.332,4.67,12.332,6.335c4,1.666,5.334,5.665,11.334,6.665s-80-9.33-90.666-11.665
		c-10.668-2.335-27.334-5.666-27.334-5.666S923,471.497,927,472.831C931,474.166,944.668,476.831,944.668,476.831z"/>
	<path fill="#EBEDE4" d="M1264.666,554.166c8,0.666,12.668,1,19.668,1s10.332,1,12.332,2.334c2,1.331,3.334,2.334,8.334,3
		s4.668,2.334,12,6c7.334,3.666,12.666,9.666,18.666,13.331"/>
	<path fill="#C3C4BB" d="M1055.161,539.929c-0.589-0.146-12.034-2.389-12.62-2.521c18.731,4.982,30.718,11.936,32.093,20.223
		c0.603,3.634-8.585,11.464-27.479,7.134c0.58,0.152,1.162,0.304,1.751,0.448c19.629,4.857,36.941,3.138,38.668-3.847
		C1089.302,554.384,1074.791,544.784,1055.161,539.929z"/>
	<path fill="#C3C4BB" d="M899.601,574.769c-0.465-0.042-9.479-0.189-9.939-0.219c14.862,1.693,24.702,6.946,26.49,15.844
		c0.785,3.9-5.599,14.445-20.527,13.503c0.459,0.054,0.92,0.101,1.39,0.142c15.541,1.376,28.721-4.063,29.435-12.146
		C927.162,583.809,915.143,576.143,899.601,574.769z"/>
	<path fill="#EBEDE4" d="M697.666,470.5c-11.666-2-13.331-5.335-17.666-6c-4.334-0.669-9.334-2.666-11.668-1
		c-2.334,1.664-7,3.331-7.332,4.331c-0.334,1-8,2.669-10,3C649,471.165,697.666,470.5,697.666,470.5z"/>
</g>
<g id="Layer_8">
	<polygon fill="#657BE5" points="459.584,441.721 406.891,460.721 387.754,466.243 386.379,468.115 409.483,519.486 
		484.404,493.282 	"/>
	<path fill="#918C81" d="M516.325,495.031c0,0-6.624,2.706-12.034,3.505l-16.902-1.938l-65.057,22.749l-11.475-1.733l0.606,3.186
		l26.709,4.805l79.125-27.457L516.325,495.031z"/>
	<polygon fill="#0D0D3F" points="387.754,466.243 460.959,439.849 485.779,491.412 410.857,517.614 	"/>
	<polygon fill="#394CD3" points="391.877,468.218 459.038,443.978 480.576,488.739 411.927,512.807 	"/>
	<polygon fill="#657BE5" points="391.877,468.218 456.004,497.337 411.927,512.807 	"/>
	<polygon fill="#FFFFFF" points="410.857,517.614 485.779,491.412 516.689,494.961 437.564,522.418 	"/>
	<polygon fill="#DFE0DA" points="457.834,510.168 475,503.834 481.5,504.835 463.668,511.334 	"/>
</g>
<g id="Layer_4_1_">
</g>
<g id="Layer_5_1_">
	<g opacity="0.5">
		
			<ellipse transform="matrix(-0.1151 0.9934 -0.9934 -0.1151 1362.1284 -663.8206)" fill="#FFE576" cx="976.742" cy="274.806" rx="2.062" ry="2.751"/>
		
			<linearGradient id="SVGID_2_" gradientUnits="userSpaceOnUse" x1="-570.5486" y1="33.1399" x2="-665.0808" y2="33.1399" gradientTransform="matrix(0.9936 0.1132 0.1132 -0.9936 1635.1875 383.1947)">
			<stop  offset="0" style="stop-color:#FFFFFF;stop-opacity:0"/>
			<stop  offset="1" style="stop-color:#FFFFFF"/>
		</linearGradient>
		<polygon opacity="0.8" fill="url(#SVGID_2_)" enable-background="new    " points="978.313,273.23 1072.231,283.973 
			1071.842,287.431 977.924,276.688 		"/>
	</g>
</g>
<g id="Layer_7">
	<polygon fill="#2E3FBC" points="1109.677,530.909 1106.431,528.056 1130.402,432.494 1137.179,434.197 	"/>
	<polygon fill="#4861D8" points="1116.935,530.691 1109.677,530.908 1134.132,433.431 1140.907,435.131 	"/>
	<path fill="#E0402F" d="M1182.363,461.98l5.862-23.37l0.431-1.715c3.344-13.321-4.748-26.829-18.066-30.172l-52.586-13.191
		l-12.346,49.208l29.152,7.313L1182.363,461.98z"/>
	<path fill="#BF2519" d="M1129.209,448.391c0.313-0.848,0.589-1.719,0.813-2.615l5.566-22.19c3.342-13.322-4.748-26.83-18.07-30.175
		c-13.321-3.341-26.829,4.748-30.171,18.07l-5.567,22.193c-0.225,0.896-0.394,1.795-0.518,2.688L1129.209,448.391z"/>
	<polygon fill="#CACCC0" points="1095.433,409.574 1094.955,438.709 1128.676,447.268 1135.6,419.653 	"/>
	<polygon fill="#EBEDE4" points="1100.259,405.76 1100.502,440.231 1129.115,447.406 1135.927,421.28 1135.965,414.975 	"/>
	<path opacity="0.5" fill="#840A07" enable-background="new    " d="M1117.517,393.408c-2.072-0.52-4.147-0.762-6.189-0.752
		c9.748,5.282,15.079,16.663,12.259,27.913l-5.567,22.193c-0.226,0.896-0.5,1.767-0.813,2.615l12.004,3.011
		c0.313-0.85,0.588-1.719,0.813-2.615l5.566-22.192C1138.929,410.261,1130.842,396.753,1117.517,393.408z"/>
	<path fill="none" stroke="#E0402F" stroke-width="1.4921" stroke-miterlimit="10" d="M1128.905,448.572
		c0.315-0.847,0.591-1.718,0.815-2.616l5.564-22.19c3.344-13.322-4.748-26.83-18.069-30.172
		c-13.321-3.343-26.83,4.748-30.171,18.067l-5.567,22.193c-0.226,0.896-0.396,1.795-0.517,2.691L1128.905,448.572z"/>
	<polygon fill="#BF2519" points="1145.24,452.656 1185.179,450.303 1182.016,462.91 	"/>
	
		<rect x="1078.74" y="449.3" transform="matrix(0.97 0.2433 -0.2433 0.97 143.686 -262.2925)" fill="#E0402F" width="109.909" height="2.49"/>
	<path fill="#BF2519" d="M1129.817,451.013l-1.227-2.047l-10.743-2.537l-0.594,1.506l-35.084-8.78c0,0-12.547,17.304-14.689,21.061
		s-0.833,14.162,7.805,20.258c9.638,6.799,26.313,6.6,35.17-1.487c2.262-2.063,16.891-24.273,19.021-27.517
		C1129.686,451.188,1129.817,451.013,1129.817,451.013z"/>
	<path fill="#E0402F" d="M1081.102,435.364l47.571,11.904c0,0-16.85,25.699-19.287,27.925c-8.859,8.088-25.533,8.287-35.169,1.487
		c-8.64-6.095-9.95-16.5-7.806-20.257C1068.556,452.663,1081.102,435.364,1081.102,435.364z"/>
	<polygon fill="#2E3FBC" points="1104.527,410.311 1112.046,412.196 1112.31,420.898 1104.611,419.224 	"/>
	<polygon fill="#FFB640" points="1165.885,391.25 1156.671,388.938 1153.923,388.246 1153.195,388.066 1137.642,450.063 
		1141.118,450.934 1155.131,395.08 1164.344,397.393 	"/>
</g>
<g id="Layer_6">
	<g>
		<path fill="none" stroke="#EBEDE4" stroke-width="1.2546" stroke-miterlimit="10" d="M1267.256,497.137
			c0,0-32.399,7.341-41.515,21.322c-9.114,13.979-11.114,17.791-14.217,26.961c-3.103,9.167,1.237,17.667,5.085,13.018
			c3.847-4.65,11.063-16.066,21.293-24.373c10.229-8.307,9.438-8.892,23.776-21.651
			C1276.019,499.65,1275.962,494.759,1267.256,497.137z"/>
		<path fill="none" stroke="#EBEDE4" stroke-width="1.2546" stroke-miterlimit="10" d="M1272.902,497.785
			c0,0-23.788,12.827-34.754,23.235c-10.966,10.406-22.347,25.796-24.188,31.048"/>
		<path fill="none" stroke="#EBEDE4" stroke-width="1.2546" stroke-miterlimit="10" d="M1248.648,503.621
			c0.713-6.571-1.934-12.845-3.265-18.975c-1.774-8.174-3.661-14.099-9.505-4.354c-4.389,8.567-5.433,21.891-2.689,30.967"/>
		<path fill="none" stroke="#EBEDE4" stroke-width="1.2546" stroke-miterlimit="10" d="M1240.965,475.723
			c-0.676,4.979-2.021,10.241-2.104,15.135c-0.127,7.303,1.284,10.248,2.583,15.444"/>
		<path fill="none" stroke="#EBEDE4" stroke-width="1.2546" stroke-miterlimit="10" d="M1215.703,530.848
			c1.448-4.166,0.616-9.377,0.283-13.67c-0.174-5.143-0.35-10.28-0.521-15.42c-0.104-5.801-1.609-11.55-1.437-17.448
			c0.235-4.032,1.234-7.715,1.662-11.659c0.354-3.287-0.136-6.729-4.159-3.975c-2.098,1.566-3.183,5.438-4.229,7.722
			c-3.471,8.07-5.21,17.394-5.376,26.288c-0.243,12.078,3.171,21.691,6.181,33.193"/>
		<path fill="none" stroke="#EBEDE4" stroke-width="1.2546" stroke-miterlimit="10" d="M1214.51,468.198
			c-5.242,10.939-5.297,23.104-5.266,35.08c0.333,9.813,3.646,19.149,4.255,28.86"/>
	</g>
</g>
</svg>
