<?xml version="1.0" encoding="utf-8"?>
<!-- Generator: Adobe Illustrator 16.0.0, SVG Export Plug-In . SVG Version: 6.00 Build 0)  -->
<!DOCTYPE svg PUBLIC "-//W3C//DTD SVG 1.1//EN" "http://www.w3.org/Graphics/SVG/1.1/DTD/svg11.dtd">
<svg version="1.1" id="Layer_1" xmlns="http://www.w3.org/2000/svg" xmlns:xlink="http://www.w3.org/1999/xlink" x="0px" y="0px"
	 width="1525px" height="616px" viewBox="0 0 1525 616" enable-background="new 0 0 1525 616" xml:space="preserve">
<g id="Layer_1_1_">
</g>
<g id="Layer_2_1_">
	
		<radialGradient id="SVGID_1_" cx="217.6785" cy="31.6042" r="797.2307" gradientTransform="matrix(1.9125 0 0 -1.5636 358.2032 1416.8018)" gradientUnits="userSpaceOnUse">
		<stop  offset="0.6059" style="stop-color:#FFE5FF"/>
		<stop  offset="1" style="stop-color:#FFFFFF;stop-opacity:0"/>
	</radialGradient>
	<path opacity="0.3" fill="url(#SVGID_1_)" enable-background="new    " d="M2526.72,1367.386
		c0,688.72-784.492,1247.032-1752.208,1247.032c-967.718,0-1752.208-558.313-1752.208-1247.032
		c0-688.715,784.489-1247.033,1752.208-1247.033C1742.228,120.353,2526.72,678.671,2526.72,1367.386z"/>
	<path opacity="0.07" fill="none" stroke="#8594FF" stroke-miterlimit="10" enable-background="new    " d="M1893.535,880.563
		c-247.789-314.435-661.832-520.475-1130.781-520.475c-468.95,0-882.993,206.04-1130.782,520.475H1893.535z"/>
	<path opacity="0.1" fill="none" stroke="#7676FF" stroke-width="1.1897" stroke-miterlimit="10" enable-background="new    " d="
		M2073.534,918.632c-287.229-383.951-767.184-635.544-1310.78-635.544c-543.598,0-1023.551,251.593-1310.783,635.544H2073.534z"/>
	<path opacity="0.1" fill="none" stroke="#7676FF" stroke-width="1.5642" stroke-miterlimit="10" enable-background="new    " d="
		M2379,1051.5c-356.965-534.053-953.439-884-1629.014-884s-1272.048,349.947-1629.016,884H2379z"/>
	<path opacity="0.07" fill="none" stroke="#EBEDE4" stroke-width="2.0256" stroke-miterlimit="10" enable-background="new    " d="
		M2791,1207.5C2345.508,489.894,1601.103,19.668,757.986,19.668S-829.533,489.894-1275.03,1207.5H2791z"/>
	<path fill="#EBEDE4" d="M1764.297,848.5C1544.91,599.346,1178.326,436.082,763.131,436.082
		c-415.196,0-781.78,163.264-1001.167,412.418H1764.297z"/>
	<ellipse fill="#DFE0DA" cx="702.819" cy="582.499" rx="66.39" ry="26.333"/>
	<path fill="#C3C4BB" d="M703.365,556.169c-1.1,0-2.191,0.012-3.278,0.031c35.143,0.68,52.295,12.689,50.743,26.688
		c-0.819,7.393-15.601,25.233-50.743,25.912c1.087,0.021,2.179,0.032,3.278,0.032c36.666,0,66.389-11.789,66.389-26.332
		C769.756,567.959,740.031,556.169,703.365,556.169z"/>
	<g id="Layer_3">
	</g>
	
		<ellipse transform="matrix(0.2389 -0.971 0.971 0.2389 293.1729 1418.5594)" fill="#DFE0DA" cx="1051.506" cy="522.26" rx="13.083" ry="37.182"/>
	
		<ellipse transform="matrix(0.2389 -0.971 0.971 0.2389 366.2216 1464.7611)" fill="#DFE0DA" cx="1117.503" cy="498.762" rx="13.083" ry="37.183"/>
	
		<ellipse transform="matrix(0.0773 -0.997 0.997 0.0773 269.0308 1409.4846)" fill="#DFE0DA" cx="896.027" cy="559.391" rx="14.658" ry="29.341"/>
	
		<ellipse transform="matrix(0.324 -0.9461 0.9461 0.324 311.2894 1504.323)" fill="#DFE0DA" cx="1208.279" cy="534.34" rx="8.875" ry="17.765"/>
	
		<ellipse transform="matrix(-0.128 -0.9918 0.9918 -0.128 108.8468 1103.3977)" fill="#DFE0DA" cx="539.491" cy="503.848" rx="16.078" ry="40.067"/>
	<path fill="#C3C4BB" d="M579.739,500.175c-1.416-8.535-20.354-13.667-42.3-11.459c-1.55,0.154-3.07,0.347-4.563,0.564
		c20.894-1.604,29.761,5.728,31.124,13.944c0,0-4.232,13.739-23.874,16.61c0.809-0.063,1.62-0.132,2.438-0.214
		C564.511,517.418,581.155,508.71,579.739,500.175z"/>
	<path fill="#EBEDE4" d="M293,505.5c24-18,27-27,45-27s36-9,53-12s39-1,58-6s40-9,61-10s65-9,90-8s43,6,43,6s-297,51-321,58
		s-64,12-79,23s-41,19-41,19L293,505.5z"/>
	<path fill="#EBEDE4" d="M713,437.61c8.847-1.466,14.269-5.566,17.979-9.084c3.709-3.517,7.704-7.62,10.271-7.62
		c2.568,0,5.992,1.466,9.702,1.759c3.71,0.292,8.847-0.587,14.554-0.88c5.707-0.292,9.701-2.345,11.129-2.637
		c1.427-0.293,4.281-0.587,8.847,4.396c4.566,4.982,9.13,9.378,13.981,10.257c4.851,0.879,26.537,7.031,26.537,7.031L713,437.61z"/>
	<path fill="#EBEDE4" d="M1093,471.5c11.334,1.666,17,1.001,21.668,1.666c4.666,0.666,12.666,3.668,18,5
		c5.332,1.334,12.666,2.335,23,5C1166,485.832,1180,491.498,1190,493.832c10,2.335,20.334,5,29.334,9.668c9,4.666,10,6.332,17.334,9
		C1244,515.166,1093,471.5,1093,471.5z"/>
	<path fill="#EBEDE4" d="M944.668,446.832c10.666,0.668,22.666-1.334,33.666,0c11,1.335,23.666-1.334,28.334,2
		c4.666,3.335,8.332,4.669,12.332,6.335s5.334,5.665,11.334,6.665s-80-9.331-90.666-11.666c-10.668-2.334-27.334-5.666-27.334-5.666
		S923,441.498,927,442.832C931,444.167,944.668,446.832,944.668,446.832z"/>
	<path fill="#EBEDE4" d="M1264.666,524.166c8,0.666,12.668,1,19.668,1s10.332,1,12.332,2.334c2,1.332,3.334,2.334,8.334,3
		s4.668,2.334,12,6c7.334,3.666,12.666,9.666,18.666,13.332"/>
	<path fill="#C3C4BB" d="M1055.161,509.929c-0.589-0.146-12.034-2.388-12.62-2.521c18.731,4.982,30.717,11.935,32.092,20.222
		c0.603,3.634-8.585,11.464-27.479,7.134c0.58,0.153,1.162,0.304,1.751,0.448c19.629,4.858,36.941,3.138,38.668-3.846
		C1089.302,524.384,1074.791,514.785,1055.161,509.929z"/>
	<path fill="#C3C4BB" d="M899.601,544.769c-0.465-0.042-9.479-0.189-9.939-0.219c14.862,1.694,24.702,6.947,26.49,15.844
		c0.785,3.9-5.599,14.445-20.527,13.503c0.459,0.054,0.92,0.101,1.389,0.142c15.541,1.376,28.721-4.063,29.435-12.146
		C927.162,553.809,915.143,546.143,899.601,544.769z"/>
	<path fill="#EBEDE4" d="M697.666,440.5c-11.666-2-13.332-5.334-17.666-6c-4.334-0.668-9.334-2.666-11.668-1
		c-2.334,1.665-7,3.332-7.332,4.332c-0.334,1-8,2.668-10,3C649,441.166,697.666,440.5,697.666,440.5z"/>
</g>
<g id="Layer_8">
	<polygon fill="#657BE5" points="459.584,411.721 406.891,430.721 387.754,436.244 386.379,438.116 409.483,489.486 
		484.404,463.283 	"/>
	<path fill="#918C81" d="M516.325,465.031c0,0-6.624,2.706-12.034,3.505l-16.903-1.938l-65.056,22.749l-11.475-1.733l0.607,3.185
		l26.708,4.805l79.125-27.457L516.325,465.031z"/>
	<polygon fill="#0D0D3F" points="387.754,436.244 460.959,409.849 485.779,461.413 410.857,487.614 	"/>
	<polygon fill="#394CD3" points="391.877,438.218 459.038,413.978 480.576,458.739 411.927,482.807 	"/>
	<polygon fill="#657BE5" points="391.877,438.218 456.003,467.337 411.927,482.807 	"/>
	<polygon fill="#FFFFFF" points="410.857,487.614 485.779,461.413 516.689,464.961 437.564,492.418 	"/>
	<polygon fill="#DFE0DA" points="457.834,480.168 475,473.834 481.5,474.835 463.668,481.334 	"/>
</g>
<g id="Layer_4_1_">
</g>
<g id="Layer_5_1_">
	<g opacity="0.5">
		
			<ellipse transform="matrix(-0.9934 -0.115 0.115 -0.9934 1918.9382 600.2909)" fill="#FFE576" cx="976.792" cy="244.769" rx="2.75" ry="2.062"/>
		
			<linearGradient id="SVGID_2_" gradientUnits="userSpaceOnUse" x1="-295.8206" y1="667.6614" x2="-390.3518" y2="667.6614" gradientTransform="matrix(0.9936 0.1132 -0.1132 0.9936 1441.5466 -374.2196)">
			<stop  offset="0" style="stop-color:#FFFFFF;stop-opacity:0"/>
			<stop  offset="1" style="stop-color:#FFFFFF"/>
		</linearGradient>
		<polygon opacity="0.8" fill="url(#SVGID_2_)" enable-background="new    " points="978.313,243.23 1072.231,253.973 
			1071.841,257.431 977.923,246.688 		"/>
	</g>
</g>
<g id="Layer_7">
	<polygon fill="#2E3FBC" points="1109.677,500.91 1106.431,498.056 1130.402,402.495 1137.179,404.197 	"/>
	<polygon fill="#4861D8" points="1116.935,500.691 1109.677,500.909 1134.131,403.431 1140.907,405.131 	"/>
	<path fill="#E0402F" d="M1182.363,431.98l5.862-23.37l0.431-1.715c3.343-13.321-4.748-26.829-18.067-30.172l-52.586-13.191
		l-12.345,49.208l29.152,7.313L1182.363,431.98z"/>
	<path fill="#BF2519" d="M1129.209,418.391c0.313-0.848,0.588-1.719,0.813-2.615l5.566-22.191
		c3.342-13.322-4.748-26.83-18.07-30.174c-13.321-3.341-26.829,4.748-30.171,18.07l-5.567,22.193
		c-0.225,0.896-0.394,1.795-0.518,2.688L1129.209,418.391z"/>
	<polygon fill="#CACCC0" points="1095.433,379.575 1094.955,408.709 1128.675,417.268 1135.6,389.653 	"/>
	<polygon fill="#EBEDE4" points="1100.258,375.76 1100.502,410.231 1129.115,417.407 1135.927,391.28 1135.964,384.975 	"/>
	<path opacity="0.5" fill="#840A07" enable-background="new    " d="M1117.517,363.409c-2.072-0.52-4.147-0.762-6.189-0.752
		c9.748,5.282,15.079,16.663,12.258,27.913l-5.567,22.193c-0.226,0.896-0.5,1.767-0.813,2.615l12.004,3.011
		c0.313-0.849,0.588-1.719,0.813-2.615l5.566-22.192C1138.929,380.261,1130.841,366.753,1117.517,363.409z"/>
	<path fill="none" stroke="#E0402F" stroke-width="1.4921" stroke-miterlimit="10" d="M1128.905,418.572
		c0.315-0.847,0.591-1.718,0.815-2.616l5.565-22.191c3.344-13.322-4.748-26.83-18.07-30.172
		c-13.321-3.342-26.83,4.748-30.171,18.068l-5.567,22.193c-0.226,0.897-0.396,1.795-0.517,2.691L1128.905,418.572z"/>
	<polygon fill="#BF2519" points="1145.24,422.656 1185.179,420.303 1182.016,432.911 	"/>
	
		<rect x="1078.686" y="419.271" transform="matrix(-0.9699 -0.2433 0.2433 -0.9699 2130.9033 1104.2192)" fill="#E0402F" width="109.914" height="2.489"/>
	<path fill="#BF2519" d="M1129.817,421.013l-1.227-2.047l-10.743-2.537l-0.594,1.506l-35.084-8.78c0,0-12.546,17.303-14.689,21.06
		s-0.833,14.162,7.805,20.258c9.637,6.799,26.312,6.6,35.17-1.487c2.261-2.063,16.89-24.274,19.02-27.517
		C1129.686,421.188,1129.817,421.013,1129.817,421.013z"/>
	<path fill="#E0402F" d="M1081.102,405.364l47.571,11.904c0,0-16.849,25.699-19.287,27.925c-8.859,8.088-25.533,8.287-35.169,1.487
		c-8.64-6.095-9.95-16.5-7.806-20.257C1068.556,422.664,1081.102,405.364,1081.102,405.364z"/>
	<polygon fill="#2E3FBC" points="1104.527,380.311 1112.045,382.196 1112.31,390.898 1104.611,389.224 	"/>
	<polygon fill="#FFB640" points="1165.885,361.25 1156.67,358.938 1153.922,358.247 1153.195,358.066 1137.642,420.063 
		1141.118,420.934 1155.13,365.081 1164.344,367.393 	"/>
</g>
<g id="Layer_6">
	<g>
		<path fill="none" stroke="#EBEDE4" stroke-width="1.2546" stroke-miterlimit="10" d="M1267.255,467.137
			c0,0-32.399,7.341-41.514,21.322c-9.114,13.98-11.114,17.791-14.217,26.961c-3.103,9.167,1.237,17.667,5.085,13.018
			c3.847-4.65,11.063-16.066,21.293-24.373c10.229-8.307,9.438-8.892,23.776-21.651
			C1276.019,469.65,1275.961,464.759,1267.255,467.137z"/>
		<path fill="none" stroke="#EBEDE4" stroke-width="1.2546" stroke-miterlimit="10" d="M1272.902,467.786
			c0,0-23.788,12.827-34.754,23.235c-10.966,10.406-22.347,25.796-24.188,31.048"/>
		<path fill="none" stroke="#EBEDE4" stroke-width="1.2546" stroke-miterlimit="10" d="M1248.648,473.622
			c0.713-6.572-1.934-12.845-3.265-18.975c-1.774-8.174-3.661-14.099-9.505-4.354c-4.388,8.568-5.432,21.891-2.689,30.967"/>
		<path fill="none" stroke="#EBEDE4" stroke-width="1.2546" stroke-miterlimit="10" d="M1240.964,445.723
			c-0.675,4.98-2.021,10.241-2.104,15.135c-0.127,7.303,1.284,10.248,2.583,15.444"/>
		<path fill="none" stroke="#EBEDE4" stroke-width="1.2546" stroke-miterlimit="10" d="M1215.703,500.848
			c1.448-4.166,0.616-9.377,0.283-13.67c-0.174-5.142-0.35-10.28-0.522-15.42c-0.104-5.8-1.609-11.549-1.436-17.448
			c0.235-4.032,1.234-7.715,1.662-11.659c0.354-3.287-0.136-6.73-4.159-3.975c-2.098,1.567-3.183,5.439-4.229,7.722
			c-3.47,8.07-5.21,17.394-5.376,26.288c-0.243,12.078,3.171,21.691,6.181,33.193"/>
		<path fill="none" stroke="#EBEDE4" stroke-width="1.2546" stroke-miterlimit="10" d="M1214.51,438.198
			c-5.242,10.939-5.297,23.104-5.265,35.08c0.333,9.813,3.646,19.149,4.254,28.86"/>
	</g>
</g>
</svg>
