<?xml version="1.0" encoding="utf-8"?>
<!-- Generator: Adobe Illustrator 16.0.0, SVG Export Plug-In . SVG Version: 6.00 Build 0)  -->
<!DOCTYPE svg PUBLIC "-//W3C//DTD SVG 1.1//EN" "http://www.w3.org/Graphics/SVG/1.1/DTD/svg11.dtd">
<svg version="1.1" xmlns="http://www.w3.org/2000/svg" xmlns:xlink="http://www.w3.org/1999/xlink" x="0px" y="0px" width="1525px"
	 height="616px" viewBox="0 0 1525 616" enable-background="new 0 0 1525 616" xml:space="preserve">
<g id="Layer_5">
	<g>
		<path fill="#2E3FBC" d="M202.5,646.5c3.5-24,47-33.5,24.5-60.5c-8-9.5-14-19.5-7-31.5c6.5-10.5,23.5-20,24.5-33.5
			c1-11.5-11.5-8.5-17.5-16c-5.5-7.5-2.5-15.5,1-22.5c4-9,8.5-16.5,0-24c-8.5-7-20-5.5-23-17c-2.5-10.5,9-41.5-14-36
			c-17,4.5,0.5,33.5-13,44.5c-9,7-23.5,2.5-30.5,13.5c-10.5,15.5,12,26.5,19,38c11,18.5-4,26-17.5,35.5c-12,8-27,23-11.5,35.5
			c10.5,8.5,23,10,27,24.5c2.5,10,0.5,18-7.5,24c-11.5,9.5-49,31.5-15,40c12,3,28.5,1,40,6.5c8,4,4,6,6,13c4,14.5,20,8,22-5"/>
	</g>
	<path fill="#2E3FBC" d="M750.058,550.65c-0.192-0.616-1.275-4.393,0.515-5.993l-1.237-1.385c-2.482,2.22-1.498,6.418-1.121,7.702
		c-0.988,0.29-1.933,0.784-2.716,1.602c-1.891,1.975-5.739,5.147-8.2,7.126c2.015-8.572,3.011-21.281,3.063-21.975l-1.853-0.142
		c-0.008,0.104-0.396,5.056-1.147,10.817c-0.703-0.344-1.756-0.901-2.448-1.466c-0.372-0.305-1.761-1.846-3.975-8.909l-1.773,0.557
		c1.165,3.715,2.904,8.429,4.574,9.792c1.067,0.871,2.726,1.668,3.359,1.958c-0.82,5.808-1.994,11.97-3.51,14.624
		c-3.083,5.398-19.511,8.918-23.417,8.474c-0.245-0.027-0.502-0.015-0.763,0.017c-0.304-4.247-1.63-23.063-1.918-30.867
		c-0.326-8.921,0.464-16.549,1.184-21.378c0.451-3.03,3.653-4.547,6.479-5.885c1.265-0.6,2.459-1.165,3.326-1.835
		c2.839-2.189,6.033-9.312,6.169-9.613l-1.698-0.757c-0.864,1.939-3.557,7.319-5.605,8.899c-0.487,0.377-1.171,0.742-1.927,1.116
		c-0.523-1.413-1.533-4.658-1.92-9.513l-1.853,0.147c0.42,5.258,1.526,8.707,2.087,10.173c-2.956,1.415-6.338,3.249-6.896,6.992
		c-0.529,3.546-1.092,8.585-1.239,14.524c-1.127-0.361-4.023-1.408-6.702-3.386c-2.087-1.541-2.222-2.046-2.973-4.848
		c-0.413-1.538-0.978-3.646-2.111-6.817l-1.749,0.625c1.107,3.102,1.661,5.166,2.065,6.674c0.389,1.451,0.651,2.427,1.129,3.274
		c-1.137-0.005-3.106-0.315-5.432-1.988l-1.085,1.509c2.713,1.953,5.107,2.333,6.562,2.333c0.737,0,1.229-0.097,1.403-0.138
		c0.312,0.273,0.665,0.56,1.087,0.87c3.538,2.612,7.316,3.698,7.772,3.822c-0.016,1.696,0.004,3.453,0.07,5.266
		c0.137,3.714,0.508,9.902,0.893,15.841c-0.735,0.207-4.41,1.209-8.015,1.568c-1.163-2.671-2.269-5.51-2.278-6.109l-0.928-0.04
		l-0.928-0.051c-0.054,0.969,1.179,4.043,2.161,6.322c-1.152,0.023-2.235-0.051-3.139-0.28c-3.95-0.998-6.236-4.286-8.447-7.465
		c-0.234-0.337-0.467-0.671-0.7-1l-1.517,1.072c0.229,0.326,0.46,0.656,0.691,0.989c2.294,3.298,4.894,7.036,9.517,8.204
		c0.944,0.24,2.038,0.337,3.191,0.337c4.094,0,8.924-1.22,10.514-1.654c0.423,6.428,0.833,12.187,0.94,13.686
		c-0.746,0.402-1.527,0.979-2.331,1.747c-3.521,3.365-7.09,9.85-6.794,14.136c0.022,0.317,0.047,0.685,0.072,1.083
		c-5.403-4.201-23.646-18.313-28.359-21.004c-1.436-0.82-2.771-1.499-4.063-2.105c1.716-1.001,4.222-2.61,4.923-3.841
		c1.104-1.928,0.77-6.006-0.255-8.228l-1.688,0.778c0.864,1.875,1.037,5.291,0.329,6.527c-0.506,0.888-3.37,2.704-5.414,3.816
		c-1.159-0.498-2.303-0.959-3.471-1.43c-1.675-0.676-3.407-1.374-5.258-2.219c-5.068-2.313-13.002-10.703-14.855-13.482
		l-1.545,1.031c1.859,2.788,9.095,10.5,14.483,13.549c-0.615,0.595-1.485,1.352-2.313,1.766c-0.893,0.446-4.435,0.063-11.432-4.6
		l-1.03,1.546c4.943,3.295,9.028,5.055,11.624,5.055c0.654,0,1.214-0.113,1.669-0.34c1.292-0.646,2.574-1.869,3.241-2.561
		c1.654,0.738,3.214,1.37,4.721,1.978c3.068,1.237,5.967,2.405,9.41,4.372c2.52,1.439,9.25,6.415,15.661,11.274
		c-0.787,0.842-1.807,1.92-2.125,2.209c-0.102,0.057-1.164,0.531-7.563-0.424l-0.273,1.838c2.982,0.445,4.958,0.616,6.293,0.616
		c1.71,0,2.368-0.28,2.747-0.619c0.443-0.398,1.65-1.677,2.409-2.49c5.94,4.52,11.275,8.673,12.293,9.466
		c0.524,8.151,1.46,22.123,2.868,26.063c1.276,3.571,0.541,22.717,0.15,29.793l1.854,0.102c0.059-1.054,1.408-25.867-0.256-30.52
		c-1.371-3.84-2.35-19.097-2.819-26.429c-0.068-1.075-0.128-1.994-0.176-2.7c-0.258-3.711,3.073-9.653,6.223-12.665
		c1.351-1.289,2.603-1.974,3.417-1.882c2.313,0.263,9.876-0.891,16.24-3.315c0.731,2.961,2.578,9.95,4.03,11.34
		c1.668,1.6,7.854,2.826,9.078,3.057l0.343-1.826c-2.623-0.492-7.15-1.627-8.136-2.571c-0.807-0.772-2.406-5.914-3.576-10.708
		c3.278-1.434,6.038-3.23,7.262-5.374c0.46-0.805,0.887-1.891,1.283-3.158c1.434-1.124,7.663-6.049,10.355-8.86
		c2.514-2.625,7.885-0.699,7.938-0.68l0.643-1.743C755.255,551.378,752.741,550.472,750.058,550.65z"/>
	<path fill="#2E3FBC" d="M88.542,514.131c-0.232-0.742-1.537-5.293,0.62-7.222l-1.491-1.669c-2.991,2.675-1.805,7.734-1.351,9.281
		c-1.191,0.35-2.329,0.945-3.272,1.93c-2.278,2.38-6.916,6.203-9.881,8.587c2.428-10.329,3.628-25.644,3.691-26.479l-2.232-0.171
		c-0.009,0.125-0.477,6.092-1.382,13.034c-0.848-0.414-2.116-1.086-2.95-1.766c-0.448-0.367-2.122-2.225-4.789-10.735l-2.137,0.671
		c1.404,4.476,3.5,10.156,5.512,11.799c1.286,1.05,3.284,2.01,4.048,2.359c-0.988,6.998-2.403,14.423-4.229,17.621
		c-3.715,6.505-23.51,10.746-28.216,10.21c-0.295-0.032-0.605-0.018-0.919,0.021c-0.366-5.117-1.964-27.789-2.311-37.193
		c-0.393-10.75,0.559-19.941,1.426-25.76c0.544-3.651,4.402-5.479,7.807-7.091c1.523-0.723,2.963-1.404,4.008-2.211
		c3.42-2.639,7.27-11.221,7.433-11.584l-2.046-0.912c-1.041,2.337-4.286,8.819-6.754,10.724c-0.587,0.454-1.411,0.895-2.321,1.345
		c-0.631-1.702-1.848-5.613-2.313-11.462l-2.232,0.178c0.506,6.335,1.839,10.491,2.515,12.258c-3.562,1.705-7.637,3.915-8.309,8.425
		c-0.638,4.272-1.316,10.345-1.494,17.502c-1.358-0.436-4.848-1.697-8.076-4.08c-2.515-1.857-2.677-2.465-3.582-5.842
		c-0.498-1.853-1.178-4.393-2.544-8.214l-2.107,0.753c1.334,3.737,2.001,6.225,2.489,8.042c0.468,1.748,0.785,2.924,1.36,3.945
		c-1.37-0.006-3.743-0.38-6.545-2.396l-1.308,1.817c3.269,2.354,6.154,2.812,7.907,2.812c0.888,0,1.481-0.116,1.691-0.166
		c0.375,0.329,0.801,0.674,1.31,1.049c4.263,3.147,8.816,4.456,9.366,4.605c-0.019,2.044,0.004,4.16,0.084,6.345
		c0.165,4.475,0.612,11.932,1.076,19.088c-0.886,0.249-5.314,1.456-9.658,1.89c-1.401-3.219-2.733-6.64-2.745-7.361l-1.118-0.049
		l-1.118-0.062c-0.064,1.168,1.42,4.872,2.604,7.618c-1.388,0.028-2.693-0.061-3.782-0.337c-4.76-1.203-7.515-5.165-10.179-8.995
		c-0.282-0.406-0.563-0.809-0.844-1.205l-1.827,1.292c0.276,0.393,0.554,0.791,0.833,1.192c2.764,3.974,5.896,8.478,11.467,9.885
		c1.138,0.29,2.456,0.406,3.845,0.406c4.933,0,10.753-1.47,12.668-1.993c0.51,7.745,1.004,14.685,1.133,16.49
		c-0.899,0.485-1.84,1.181-2.809,2.105c-4.242,4.055-8.543,11.868-8.187,17.033c0.027,0.382,0.056,0.825,0.087,1.305
		c-6.511-5.063-28.493-22.065-34.172-25.309c-1.73-0.988-3.339-1.807-4.895-2.537c2.067-1.206,5.087-3.146,5.932-4.628
		c1.33-2.323,0.927-7.237-0.307-9.914l-2.033,0.938c1.042,2.26,1.25,6.376,0.396,7.865c-0.609,1.07-4.061,3.259-6.524,4.599
		c-1.396-0.6-2.774-1.155-4.182-1.723c-2.018-0.814-4.105-1.655-6.335-2.673c-6.107-2.787-15.667-12.897-17.9-16.246l-1.862,1.242
		c2.241,3.359,10.959,12.652,17.452,16.326c-0.742,0.717-1.79,1.629-2.787,2.128c-1.076,0.537-5.343,0.075-13.775-5.543
		l-1.241,1.863c5.957,3.97,10.879,6.091,14.006,6.091c0.789,0,1.463-0.137,2.011-0.41c1.557-0.779,3.102-2.252,3.905-3.085
		c1.994,0.89,3.873,1.65,5.688,2.383c3.697,1.491,7.19,2.898,11.339,5.268c3.036,1.735,11.146,7.73,18.871,13.586
		c-0.948,1.014-2.177,2.313-2.561,2.661c-0.123,0.068-1.403,0.641-9.114-0.511l-0.33,2.215c3.594,0.537,5.974,0.742,7.583,0.742
		c2.061,0,2.854-0.337,3.31-0.745c0.534-0.48,1.989-2.021,2.903-3.001c7.158,5.445,13.586,10.45,14.813,11.406
		c0.632,9.821,1.759,26.657,3.456,31.405c1.538,4.303,0.652,27.373,0.181,35.899l2.235,0.122c0.07-1.27,1.697-31.169-0.309-36.774
		c-1.652-4.627-2.831-23.011-3.397-31.846c-0.083-1.296-0.154-2.403-0.212-3.254c-0.311-4.472,3.703-11.632,7.498-15.261
		c1.627-1.554,3.136-2.378,4.118-2.268c2.786,0.316,11.9-1.073,19.569-3.995c0.881,3.567,3.106,11.989,4.856,13.664
		c2.01,1.928,9.464,3.405,10.939,3.684l0.413-2.201c-3.161-0.593-8.616-1.96-9.803-3.098c-0.972-0.931-2.899-7.127-4.309-12.903
		c3.95-1.728,7.275-3.893,8.75-6.476c0.554-0.97,1.068-2.277,1.546-3.806c1.727-1.354,9.233-7.288,12.478-10.676
		c3.029-3.163,9.501-0.843,9.566-0.819l0.774-2.101C94.804,515.008,91.775,513.915,88.542,514.131z"/>
	<g>
		<path fill="#2E3FBC" d="M1398.843,628.685c-4.875-13.648-6.338-27.298-13.649-40.947c-6.824-13.648-17.063-28.76-30.224-37.535
			c-1.948-1.462-33.147-15.109-33.635-3.898c0,4.387,4.875,0.974,6.338,2.437c2.438,2.925,0.487,5.362,2.925,8.287
			c1.95,2.438,4.875,0.976,7.312,4.388c0.487,1.463-1.463,4.388,0,5.362c0.975,1.461,3.899,0.974,4.387,1.95
			c2.438,3.411,4.388,2.924,1.95,8.773c5.362,2.438,5.851,2.438,8.286,6.824c0.976,1.462-1.462,3.412-0.487,5.362
			c1.95,2.925,6.338,2.438,9.263,3.9c4.875,2.925,4.875,1.462,5.362,7.313c0,1.948-2.925,3.411-2.438,5.85
			c0.487,2.924,4.388,3.411,4.875,5.361c0.975,3.412-3.412,6.823-2.438,9.263c0.975,3.411,4.874,2.436,6.825,4.386
			c2.437,2.438,1.461,1.463,2.924,4.388c0.487,0.975-1.463,3.9-0.976,4.875c1.463,2.924,4.388,0.976,6.338,2.924
			c3.898,2.438,5.849,6.338,11.211,7.313"/>
	</g>
	<g>
		<path fill="#2E3FBC" d="M1333.596,520.022c7.882,7.006,21.896-0.876,18.392,14.888c7.007,1.753,10.51,1.753,15.765,6.131
			c0.876,0.877-0.875,7.006,2.627,9.634c0.876,0.876,9.635,1.752,11.386,1.752c-4.379,10.51-2.627,7.883,0,15.765
			c0.876,2.627,5.255,2.627,7.006,5.255c0.876,2.627-3.502,5.255-3.502,7.006c1.751,10.509,1.751,20.143,5.255,29.777
			c3.502,11.384,0.875,17.516,0.875,29.775c0,5.255-5.255,14.89,7.007,9.635c4.378-2.627,6.13-12.262,7.882-16.641
			c9.634-33.279-4.38-103.344-36.783-121.735c-7.882-4.378-23.646-10.509-33.281-9.633c-9.633,1.751-16.639,14.013-3.502,19.268"/>
	</g>
	<g>
		<g>
			<g>
				<path fill="#2E3FBC" d="M1268.096,496.899c9.938,17.475,13.692,36.632,12.894,56.609c-0.674,16.859-5.644,32.313-12.67,47.54
					c-11.133,24.125-26.162,46.144-41.302,67.875c-1.174,1.686,1.581,3.271,2.742,1.604c16.21-23.268,32.159-46.88,43.585-72.949
					c14.35-32.739,15.505-70.611-2.507-102.282C1269.826,493.517,1267.081,495.116,1268.096,496.899L1268.096,496.899z"/>
			</g>
		</g>
		<ellipse fill="#2E3FBC" cx="1277.513" cy="491.863" rx="3.388" ry="3.811"/>
		<ellipse fill="#2E3FBC" cx="1260.997" cy="500.332" rx="3.388" ry="3.812"/>
		<ellipse fill="#2E3FBC" cx="1267.349" cy="512.19" rx="3.388" ry="3.812"/>
		<ellipse fill="#2E3FBC" cx="1262.267" cy="484.663" rx="3.388" ry="3.812"/>
		<ellipse fill="#2E3FBC" cx="1271.583" cy="524.895" rx="3.388" ry="3.812"/>
		<ellipse fill="#2E3FBC" cx="1273.701" cy="537.176" rx="3.388" ry="3.811"/>
		<ellipse fill="#2E3FBC" cx="1273.278" cy="549.88" rx="3.388" ry="3.812"/>
		<ellipse fill="#2E3FBC" cx="1271.583" cy="559.196" rx="3.388" ry="3.812"/>
		<ellipse fill="#2E3FBC" cx="1269.89" cy="570.207" rx="3.388" ry="3.812"/>
		<ellipse fill="#2E3FBC" cx="1267.773" cy="580.371" rx="3.388" ry="3.811"/>
		<ellipse fill="#2E3FBC" cx="1263.961" cy="591.381" rx="3.388" ry="3.812"/>
		<ellipse fill="#2E3FBC" cx="1259.727" cy="601.968" rx="3.388" ry="3.812"/>
		<ellipse fill="#2E3FBC" cx="1254.221" cy="613.402" rx="3.388" ry="3.812"/>
		<ellipse fill="#2E3FBC" cx="1246.599" cy="623.989" rx="3.388" ry="3.812"/>
		<ellipse fill="#2E3FBC" cx="1284.712" cy="507.108" rx="3.388" ry="3.812"/>
		<ellipse fill="#2E3FBC" cx="1288.949" cy="520.236" rx="3.388" ry="3.812"/>
		<ellipse fill="#2E3FBC" cx="1292.335" cy="536.328" rx="3.388" ry="3.812"/>
		<ellipse fill="#2E3FBC" cx="1292.335" cy="550.304" rx="3.388" ry="3.812"/>
		<ellipse fill="#2E3FBC" cx="1290.217" cy="563.855" rx="3.388" ry="3.812"/>
		<ellipse fill="#2E3FBC" cx="1287.676" cy="575.289" rx="3.388" ry="3.812"/>
		<ellipse fill="#2E3FBC" cx="1284.288" cy="587.993" rx="3.388" ry="3.812"/>
		<ellipse fill="#2E3FBC" cx="1280.477" cy="599.428" rx="3.388" ry="3.811"/>
		<ellipse fill="#2E3FBC" cx="1275.395" cy="610.861" rx="3.388" ry="3.812"/>
		<ellipse fill="#2E3FBC" cx="1269.89" cy="622.295" rx="3.388" ry="3.812"/>
		<ellipse fill="#2E3FBC" cx="1262.691" cy="633.306" rx="3.388" ry="3.812"/>
	</g>
	<g>
		<g>
			<g>
				<path fill="#2E3FBC" d="M1209.808,529.192c20.593,14.866,29.896,38.875,30.216,63.629c0.244,18.958-2.97,37.762-6.311,56.354
					c-0.249,1.388,1.872,1.981,2.123,0.586c3.623-20.171,6.969-40.531,6.294-61.101c-0.786-23.989-11.529-47.16-31.211-61.368
					C1209.766,526.459,1208.668,528.37,1209.808,529.192L1209.808,529.192z"/>
			</g>
		</g>
		
			<ellipse transform="matrix(0.9085 -0.4179 0.4179 0.9085 -107.5574 555.2552)" fill="#2E3FBC" cx="1214.205" cy="523.246" rx="2.349" ry="2.641"/>
		
			<ellipse transform="matrix(0.9085 -0.4178 0.4178 0.9085 -112.5132 552.725)" fill="#2E3FBC" cx="1206.257" cy="533.361" rx="2.348" ry="2.643"/>
		
			<ellipse transform="matrix(0.9085 -0.4179 0.4179 0.9085 -114.1831 556.4604)" fill="#2E3FBC" cx="1213.69" cy="538.989" rx="2.348" ry="2.642"/>
		
			<ellipse transform="matrix(0.9086 -0.4177 0.4177 0.9086 -108.5819 550.1136)" fill="#2E3FBC" cx="1202.52" cy="523.127" rx="2.348" ry="2.642"/>
		
			<ellipse transform="matrix(0.9085 -0.418 0.418 0.9085 -116.4318 559.8679)" fill="#2E3FBC" cx="1220.036" cy="545.763" rx="2.348" ry="2.641"/>
		
			<ellipse transform="matrix(0.9085 -0.4179 0.4179 0.9085 -118.9608 562.4462)" fill="#2E3FBC" cx="1224.925" cy="552.883" rx="2.349" ry="2.641"/>
		
			<ellipse transform="matrix(0.9085 -0.4178 0.4178 0.9085 -122.0427 564.478)" fill="#2E3FBC" cx="1228.338" cy="561.004" rx="2.348" ry="2.642"/>
		
			<ellipse transform="matrix(0.9085 -0.4178 0.4178 0.9085 -124.5497 565.7403)" fill="#2E3FBC" cx="1229.968" cy="567.362" rx="2.348" ry="2.642"/>
		
			<ellipse transform="matrix(0.9085 -0.4178 0.4178 0.9085 -127.4572 567.3057)" fill="#2E3FBC" cx="1232.09" cy="574.786" rx="2.348" ry="2.641"/>
		
			<ellipse transform="matrix(0.9085 -0.4178 0.4178 0.9085 -130.2396 568.6199)" fill="#2E3FBC" cx="1233.701" cy="581.798" rx="2.348" ry="2.641"/>
		
			<ellipse transform="matrix(0.9086 -0.4177 0.4177 0.9086 -133.5231 569.5649)" fill="#2E3FBC" cx="1234.488" cy="589.834" rx="2.348" ry="2.642"/>
		
			<ellipse transform="matrix(0.9085 -0.4179 0.4179 0.9085 -136.7881 570.6917)" fill="#2E3FBC" cx="1234.888" cy="597.727" rx="2.348" ry="2.641"/>
		
			<ellipse transform="matrix(0.9085 -0.4178 0.4178 0.9085 -140.4744 571.3117)" fill="#2E3FBC" cx="1234.732" cy="606.522" rx="2.348" ry="2.642"/>
		
			<ellipse transform="matrix(0.9085 -0.4179 0.4179 0.9085 -144.3445 571.5394)" fill="#2E3FBC" cx="1232.998" cy="615.396" rx="2.349" ry="2.641"/>
		
			<ellipse transform="matrix(0.9085 -0.4178 0.4178 0.9085 -109.8821 559.5458)" fill="#2E3FBC" cx="1223.153" cy="530.761" rx="2.348" ry="2.642"/>
		
			<ellipse transform="matrix(0.9086 -0.4177 0.4177 0.9086 -112.2336 562.7758)" fill="#2E3FBC" cx="1229.622" cy="537.801" rx="2.348" ry="2.641"/>
		
			<ellipse transform="matrix(0.9085 -0.4179 0.4179 0.9085 -115.4321 566.6838)" fill="#2E3FBC" cx="1236.413" cy="546.953" rx="2.348" ry="2.641"/>
		
			<ellipse transform="matrix(0.9085 -0.4178 0.4178 0.9085 -118.7404 569.0621)" fill="#2E3FBC" cx="1240.46" cy="555.753" rx="2.348" ry="2.642"/>
		
			<ellipse transform="matrix(0.9085 -0.4179 0.4179 0.9085 -122.3239 571.1201)" fill="#2E3FBC" cx="1243.051" cy="564.899" rx="2.349" ry="2.641"/>
		
			<ellipse transform="matrix(0.9085 -0.4178 0.4178 0.9085 -125.4835 572.421)" fill="#2E3FBC" cx="1244.761" cy="572.835" rx="2.348" ry="2.642"/>
		
			<ellipse transform="matrix(0.9085 -0.4179 0.4179 0.9085 -129.0948 574.0074)" fill="#2E3FBC" cx="1246.307" cy="581.816" rx="2.348" ry="2.641"/>
		
			<ellipse transform="matrix(0.9085 -0.4179 0.4179 0.9085 -132.4812 575.1479)" fill="#2E3FBC" cx="1247.218" cy="590.12" rx="2.348" ry="2.641"/>
		
			<ellipse transform="matrix(0.9085 -0.4178 0.4178 0.9085 -136.0923 575.8673)" fill="#2E3FBC" cx="1247.329" cy="598.791" rx="2.348" ry="2.642"/>
		
			<ellipse transform="matrix(0.9085 -0.418 0.418 0.9085 -139.7859 576.8687)" fill="#2E3FBC" cx="1247.173" cy="607.584" rx="2.348" ry="2.642"/>
		
			<ellipse transform="matrix(0.9085 -0.4178 0.4178 0.9085 -143.6708 576.8694)" fill="#2E3FBC" cx="1245.829" cy="616.602" rx="2.348" ry="2.642"/>
	</g>
	<g>
		<g>
			<g>
				<path fill="#2E3FBC" d="M62.627,304.618c-28.467,12.2-48.065,37.8-57.295,66.797c-7.592,23.849-10.454,48.92-13.083,73.706
					c-0.182,1.72,2.503,1.702,2.684,0C-2.599,421.84,0.271,398.568,6.749,376c8.603-29.971,27.995-56.534,57.233-69.065
					C65.568,306.255,64.2,303.944,62.627,304.618L62.627,304.618z"/>
			</g>
		</g>
		
			<ellipse transform="matrix(-0.7773 -0.6291 0.6291 -0.7773 -80.351 569.0985)" fill="#2E3FBC" cx="60.545" cy="298.77" rx="2.759" ry="3.34"/>
		
			<ellipse transform="matrix(-0.7774 -0.629 0.629 -0.7774 -78.9959 598.0399)" fill="#2E3FBC" cx="66.331" cy="312.999" rx="2.759" ry="3.341"/>
		
			<ellipse transform="matrix(-0.7774 -0.629 0.629 -0.7774 -100.7728 599.9945)" fill="#2E3FBC" cx="55.775" cy="317.828" rx="2.758" ry="3.341"/>
		
			<ellipse transform="matrix(-0.7774 -0.629 0.629 -0.7774 -57.9143 582.8523)" fill="#2E3FBC" cx="74.166" cy="301.673" rx="2.759" ry="3.341"/>
		
			<ellipse transform="matrix(-0.7774 -0.629 0.629 -0.7774 -122.0902 605.4169)" fill="#2E3FBC" cx="46.089" cy="324.313" rx="2.759" ry="3.34"/>
		
			<ellipse transform="matrix(-0.7774 -0.6291 0.6291 -0.7774 -141.095 613.2579)" fill="#2E3FBC" cx="37.979" cy="331.598" rx="2.759" ry="3.339"/>
		
			<ellipse transform="matrix(-0.7774 -0.629 0.629 -0.7774 -158.6183 624.8115)" fill="#2E3FBC" cx="31.243" cy="340.471" rx="2.758" ry="3.34"/>
		
			<ellipse transform="matrix(-0.7773 -0.6291 0.6291 -0.7773 -170.426 635.0471)" fill="#2E3FBC" cx="27.179" cy="347.686" rx="2.759" ry="3.341"/>
		
			<ellipse transform="matrix(-0.7774 -0.629 0.629 -0.7774 -184.5412 646.8023)" fill="#2E3FBC" cx="22.183" cy="356.056" rx="2.758" ry="3.341"/>
		
			<ellipse transform="matrix(-0.7775 -0.6289 0.6289 -0.7775 -197.1273 658.3818)" fill="#2E3FBC" cx="17.918" cy="364.067" rx="2.758" ry="3.34"/>
		
			<ellipse transform="matrix(-0.7774 -0.6291 0.6291 -0.7774 -209.6195 672.8505)" fill="#2E3FBC" cx="14.263" cy="373.521" rx="2.759" ry="3.341"/>
		
			<ellipse transform="matrix(-0.7775 -0.6289 0.6289 -0.7775 -221.072 687.5834)" fill="#2E3FBC" cx="11.107" cy="382.902" rx="2.758" ry="3.342"/>
		
			<ellipse transform="matrix(-0.7774 -0.6291 0.6291 -0.7774 -232.8155 704.627)" fill="#2E3FBC" cx="8.288" cy="393.514" rx="2.759" ry="3.341"/>
		
			<ellipse transform="matrix(-0.7775 -0.6289 0.6289 -0.7775 -241.5368 723.8024)" fill="#2E3FBC" cx="7.276" cy="404.63" rx="2.759" ry="3.341"/>
		
			<ellipse transform="matrix(-0.7774 -0.629 0.629 -0.7774 -107.5589 572.8782)" fill="#2E3FBC" cx="47.584" cy="305.47" rx="2.758" ry="3.341"/>
		
			<ellipse transform="matrix(-0.7774 -0.629 0.629 -0.7774 -129.4706 578.67)" fill="#2E3FBC" cx="37.666" cy="312.246" rx="2.759" ry="3.341"/>
		
			<ellipse transform="matrix(-0.7774 -0.629 0.629 -0.7774 -154.8405 588.1569)" fill="#2E3FBC" cx="26.651" cy="321.477" rx="2.759" ry="3.34"/>
		
			<ellipse transform="matrix(-0.7774 -0.629 0.629 -0.7774 -174.5389 600.2253)" fill="#2E3FBC" cx="18.946" cy="330.999" rx="2.759" ry="3.341"/>
		
			<ellipse transform="matrix(-0.7773 -0.6291 0.6291 -0.7773 -191.9412 614.697)" fill="#2E3FBC" cx="12.816" cy="341.317" rx="2.759" ry="3.341"/>
		
			<ellipse transform="matrix(-0.7774 -0.629 0.629 -0.7774 -205.9747 627.9283)" fill="#2E3FBC" cx="8.121" cy="350.41" rx="2.759" ry="3.339"/>
		
			<ellipse transform="matrix(-0.7774 -0.629 0.629 -0.7774 -221.162 643.328)" fill="#2E3FBC" cx="3.262" cy="360.801" rx="2.759" ry="3.341"/>
		
			<ellipse transform="matrix(-0.7774 -0.629 0.629 -0.7774 -234.1984 658.2069)" fill="#2E3FBC" cx="-0.628" cy="370.545" rx="2.758" ry="3.339"/>
		
			<ellipse transform="matrix(-0.7775 -0.6289 0.6289 -0.7775 -246.1745 674.7769)" fill="#2E3FBC" cx="-3.716" cy="380.938" rx="2.759" ry="3.34"/>
		
			<ellipse transform="matrix(-0.7774 -0.629 0.629 -0.7774 -257.9049 691.8229)" fill="#2E3FBC" cx="-6.533" cy="391.548" rx="2.758" ry="3.34"/>
		
			<ellipse transform="matrix(-0.7774 -0.6291 0.6291 -0.7774 -267.6481 710.7457)" fill="#2E3FBC" cx="-8.045" cy="402.738" rx="2.759" ry="3.341"/>
	</g>
	<g>
		<g>
			<g>
				<path fill="#2E3FBC" d="M405.125,499.089c-28.467,12.2-48.065,37.8-57.295,66.797c-7.592,23.849-10.454,48.92-13.083,73.706
					c-0.182,1.72,2.503,1.702,2.684,0c2.468-23.281,5.338-46.553,11.816-69.121c8.603-29.971,27.995-56.534,57.233-69.065
					C408.065,500.726,406.697,498.415,405.125,499.089L405.125,499.089z"/>
			</g>
		</g>
		
			<ellipse transform="matrix(-0.7773 -0.6291 0.6291 -0.7773 406.0324 1130.203)" fill="#2E3FBC" cx="403.043" cy="493.241" rx="2.759" ry="3.34"/>
		
			<ellipse transform="matrix(-0.7774 -0.629 0.629 -0.7774 407.4176 1159.1324)" fill="#2E3FBC" cx="408.829" cy="507.47" rx="2.759" ry="3.341"/>
		
			<ellipse transform="matrix(-0.7774 -0.629 0.629 -0.7774 385.6707 1161.0753)" fill="#2E3FBC" cx="398.272" cy="512.298" rx="2.758" ry="3.341"/>
		
			<ellipse transform="matrix(-0.7774 -0.629 0.629 -0.7774 428.5399 1143.929)" fill="#2E3FBC" cx="416.664" cy="496.144" rx="2.759" ry="3.341"/>
		
			<ellipse transform="matrix(-0.7774 -0.629 0.629 -0.7774 364.3233 1166.5095)" fill="#2E3FBC" cx="388.587" cy="518.784" rx="2.759" ry="3.34"/>
		
			<ellipse transform="matrix(-0.7774 -0.6291 0.6291 -0.7774 345.3088 1174.3544)" fill="#2E3FBC" cx="380.477" cy="526.069" rx="2.759" ry="3.339"/>
		
			<ellipse transform="matrix(-0.7774 -0.629 0.629 -0.7774 327.8252 1185.8923)" fill="#2E3FBC" cx="373.74" cy="534.942" rx="2.758" ry="3.34"/>
		
			<ellipse transform="matrix(-0.7773 -0.6291 0.6291 -0.7773 315.9574 1196.1516)" fill="#2E3FBC" cx="369.677" cy="542.157" rx="2.759" ry="3.341"/>
		
			<ellipse transform="matrix(-0.7774 -0.629 0.629 -0.7774 301.8819 1207.8911)" fill="#2E3FBC" cx="364.68" cy="550.527" rx="2.758" ry="3.341"/>
		
			<ellipse transform="matrix(-0.7775 -0.6289 0.6289 -0.7775 289.3366 1219.4546)" fill="#2E3FBC" cx="360.416" cy="558.538" rx="2.758" ry="3.34"/>
		
			<ellipse transform="matrix(-0.7774 -0.6291 0.6291 -0.7774 276.7844 1233.9469)" fill="#2E3FBC" cx="356.76" cy="567.992" rx="2.759" ry="3.341"/>
		
			<ellipse transform="matrix(-0.7775 -0.6289 0.6289 -0.7775 265.4016 1248.6525)" fill="#2E3FBC" cx="353.604" cy="577.373" rx="2.758" ry="3.342"/>
		
			<ellipse transform="matrix(-0.7774 -0.6291 0.6291 -0.7774 253.5884 1265.7234)" fill="#2E3FBC" cx="350.786" cy="587.985" rx="2.759" ry="3.341"/>
		
			<ellipse transform="matrix(-0.7775 -0.6289 0.6289 -0.7775 244.9475 1284.8672)" fill="#2E3FBC" cx="349.774" cy="599.101" rx="2.759" ry="3.341"/>
		
			<ellipse transform="matrix(-0.7774 -0.629 0.629 -0.7774 378.8846 1133.959)" fill="#2E3FBC" cx="390.081" cy="499.941" rx="2.758" ry="3.341"/>
		
			<ellipse transform="matrix(-0.7774 -0.629 0.629 -0.7774 356.9428 1139.7627)" fill="#2E3FBC" cx="380.164" cy="506.717" rx="2.759" ry="3.341"/>
		
			<ellipse transform="matrix(-0.7774 -0.629 0.629 -0.7774 331.5934 1149.2415)" fill="#2E3FBC" cx="369.148" cy="515.947" rx="2.759" ry="3.34"/>
		
			<ellipse transform="matrix(-0.7774 -0.629 0.629 -0.7774 311.8745 1161.318)" fill="#2E3FBC" cx="361.444" cy="525.47" rx="2.759" ry="3.341"/>
		
			<ellipse transform="matrix(-0.7773 -0.6291 0.6291 -0.7773 294.4519 1175.7976)" fill="#2E3FBC" cx="355.313" cy="535.788" rx="2.759" ry="3.341"/>
		
			<ellipse transform="matrix(-0.7774 -0.629 0.629 -0.7774 280.4592 1189.0129)" fill="#2E3FBC" cx="350.618" cy="544.881" rx="2.759" ry="3.339"/>
		
			<ellipse transform="matrix(-0.7774 -0.629 0.629 -0.7774 265.2515 1204.4207)" fill="#2E3FBC" cx="345.76" cy="555.271" rx="2.759" ry="3.341"/>
		
			<ellipse transform="matrix(-0.7774 -0.629 0.629 -0.7774 252.2246 1219.2957)" fill="#2E3FBC" cx="341.87" cy="565.016" rx="2.758" ry="3.339"/>
		
			<ellipse transform="matrix(-0.7775 -0.6289 0.6289 -0.7775 240.3099 1235.8416)" fill="#2E3FBC" cx="338.782" cy="575.409" rx="2.759" ry="3.34"/>
		
			<ellipse transform="matrix(-0.7774 -0.629 0.629 -0.7774 228.5182 1252.9117)" fill="#2E3FBC" cx="335.965" cy="586.019" rx="2.758" ry="3.34"/>
		
			<ellipse transform="matrix(-0.7774 -0.6291 0.6291 -0.7774 218.7557 1271.8422)" fill="#2E3FBC" cx="334.452" cy="597.208" rx="2.759" ry="3.341"/>
	</g>
	<g>
		<path fill="#2E3FBC" d="M1532.997,657.666c-3.334-24,2.666-46,20.666-63.333c15.334-14,38-18,53.334-32.667
			c32.666-29.333-31.334-42.667-52.667-24.667c-4.667,4-12.667,23.334-18.667,14.667c-3.333-4.667,2-16,4-20
			c8-19.333,18.667-41.333,4-60.667c-13.333-18-51.333-23.333-66-2.666c-13.333,18.666-4,41.333,10,55.333
			c7.334,7.333,18,11.333,24,19.333c7.334,9.334,8.667,19.334-5.333,14c-14-6-38-38.666-56-27.333c-20,12,1.333,39.333,14,45.333
			c4.667,2,66,4.667,54.667,20c-6.667,9.334-48.667-5.333-57.334-7.333c-6.666-2-16-5.333-22,0s-6.666,18-2.666,24.667
			c16.666,26,105.333-13.334,97.333,36.666"/>
	</g>
	<g>
		<g>
			<path fill="#2E3FBC" d="M1400.293,489.802c2.307,3.23,4.737,6.578,4.966,10.672c0.216,3.855-1.46,7.929-2.039,11.708
				c-1.073,7.002,3.478,10.713,5.664,16.749c2.643,7.294-3.202,13.681-1.948,20.887c0.639,3.674,2.087,6.252,4.667,8.877
				c1.767,1.797,3.68,3.473,3.912,6.224c0.195,2.316-1.465,5.251-1.936,7.523c-1.42,6.858,4.248,12.757,6.056,18.884
				c1.293,4.386-1.231,7.991-1.664,12.233c-0.308,3.011,2.237,5.468,4.38,7.141c1.02,0.796,2.117,1.495,3.176,2.236
				c3.009,2.107,2.607,5.271,1.522,8.226c-1.054,2.874-2.482,5.928-0.902,8.922c0.781,1.479,1.881,2.812,2.51,4.367
				c0.9,2.225,0.19,5.967,0.109,8.334c-0.135,3.949,0.455,7.46,2.194,11.018c0.899,1.84,3.638,0.229,2.742-1.604
				c-2.212-4.524-1.708-9.105-1.635-13.967c0.055-3.646-0.725-5.738-2.645-8.739c-2.453-3.837,2.052-9.498,1.829-13.825
				c-0.12-2.353-2.438-4.178-4.123-5.474c-3.85-2.961-7.041-4.557-5.184-10.021c1.167-3.434,1.514-6.087,0.752-9.692
				c-0.679-3.213-2.666-6.115-4.128-9c-2.698-5.327-1.378-9.487-0.072-14.881c0.651-2.692-0.412-5.043-1.923-7.196
				c-2.781-3.966-6.219-5.901-6.613-11.285c-0.273-3.729,1.743-7.547,2.477-11.146c0.682-3.349,0.27-6.787-0.885-9.972
				c-0.958-2.646-2.795-4.862-4.146-7.303c-2.354-4.251-0.675-9.278,0.298-13.677c1.572-7.106-0.501-11.985-4.669-17.822
				C1401.856,486.547,1399.1,488.131,1400.293,489.802L1400.293,489.802z"/>
		</g>
	</g>
</g>
<g id="Layer_2">
	<g>
		<g opacity="0.6">
			<g>
				<path fill="#EBEDE4" d="M170.496,510.334c5.645,11.766,9.182,24.387,14.591,36.258c5.498,12.067,12.807,23.548,20.841,34.078
					c13.096,17.167,33.321,27.728,52.683,36.208c0.794,0.349,1.486-0.821,0.686-1.172c-20.408-8.939-40.839-20.045-54.212-38.433
					c-7.183-9.876-13.613-20.316-18.825-31.367c-5.565-11.802-8.944-24.487-14.59-36.258
					C171.29,508.859,170.119,509.549,170.496,510.334L170.496,510.334z"/>
			</g>
		</g>
		<g opacity="0.6">
			<g>
				<path fill="#EBEDE4" d="M179.522,507.76c-0.641,5.658-2.497,11.078-3.138,16.738c-0.098,0.869,1.261,0.859,1.358,0
					c0.641-5.658,2.496-11.078,3.138-16.738C180.979,506.891,179.62,506.9,179.522,507.76L179.522,507.76z"/>
			</g>
		</g>
		<g opacity="0.6">
			<g>
				<path fill="#EBEDE4" d="M185.706,512.035c-2.172,7.604-3.084,15.47-4.909,23.152c-0.202,0.852,1.107,1.213,1.31,0.361
					c1.825-7.684,2.736-15.549,4.909-23.152C187.256,511.553,185.946,511.194,185.706,512.035L185.706,512.035z"/>
			</g>
		</g>
		<g opacity="0.6">
			<g>
				<path fill="#EBEDE4" d="M190.725,516.179c-0.98,9.597-2.855,19.192-6.16,28.271c-0.3,0.825,1.013,1.177,1.31,0.361
					c3.348-9.198,5.216-18.911,6.209-28.633C192.172,515.308,190.813,515.316,190.725,516.179L190.725,516.179z"/>
			</g>
		</g>
		<g opacity="0.6">
			<g>
				<path fill="#EBEDE4" d="M166.631,513.581c2.634,2.118,4.847,4.709,7.648,6.625c0.725,0.496,1.403-0.681,0.686-1.172
					c-2.702-1.849-4.832-4.369-7.374-6.414C166.916,512.077,165.948,513.031,166.631,513.581L166.631,513.581z"/>
			</g>
		</g>
		<g opacity="0.6">
			<g>
				<path fill="#EBEDE4" d="M163.517,519.379c2.037,1.439,4.006,2.969,6.107,4.315c2.413,1.547,5.327,2.263,7.454,4.235
					c0.641,0.595,1.604-0.364,0.96-0.961c-1.765-1.637-3.981-2.476-6.117-3.526c-2.781-1.367-5.199-3.456-7.718-5.235
					C163.485,517.7,162.808,518.879,163.517,519.379L163.517,519.379z"/>
			</g>
		</g>
		<g opacity="0.6">
			<g>
				<path fill="#EBEDE4" d="M162.513,525.866c5.369,3.275,11.126,5.74,16.823,8.372c0.79,0.365,1.48-0.806,0.686-1.172
					c-5.697-2.633-11.455-5.097-16.823-8.372C162.449,524.236,161.767,525.411,162.513,525.866L162.513,525.866z"/>
			</g>
		</g>
		<g opacity="0.6">
			<g>
				<path fill="#EBEDE4" d="M160.067,531.736c6.898,5.627,14.73,10.359,23.565,12.062c0.855,0.165,1.221-1.144,0.361-1.309
					c-8.601-1.658-16.249-6.234-22.966-11.714C160.354,530.228,159.388,531.182,160.067,531.736L160.067,531.736z"/>
			</g>
		</g>
		<g opacity="0.6">
			<g>
				<path fill="#EBEDE4" d="M159.074,540.159c8.007,6.762,18.186,10.973,28.578,12.158c0.869,0.1,0.86-1.26,0-1.357
					c-10.014-1.144-19.905-5.248-27.618-11.762C159.369,538.638,158.404,539.593,159.074,540.159L159.074,540.159z"/>
			</g>
		</g>
		<g opacity="0.6">
			<g>
				<path fill="#EBEDE4" d="M160.182,550.424c9.585,6.78,20.917,11.357,32.699,12.069c0.875,0.054,0.87-1.305,0-1.357
					c-11.549-0.699-22.624-5.243-32.013-11.884C160.151,548.744,159.474,549.923,160.182,550.424L160.182,550.424z"/>
			</g>
		</g>
		<g opacity="0.6">
			<g>
				<path fill="#EBEDE4" d="M159.993,559.027c5.183,4.098,11.502,6.116,17.749,8.001c6.439,1.942,13.208,4.303,20.001,3.242
					c0.863-0.134,0.495-1.442-0.361-1.309c-6.508,1.015-13.108-1.413-19.279-3.243c-5.998-1.777-12.177-3.721-17.149-7.652
					C160.274,557.53,159.306,558.484,159.993,559.027L159.993,559.027z"/>
			</g>
		</g>
		<g opacity="0.6">
			<g>
				<path fill="#EBEDE4" d="M162.473,571.162c6.647,4.945,14.537,6.843,22.622,7.963c6.135,0.851,13.122,2.263,18.968-0.401
					c0.796-0.362,0.105-1.532-0.686-1.172c-6.151,2.803-14.654,0.797-21.071-0.198c-6.867-1.065-13.529-3.184-19.148-7.363
					C162.455,569.467,161.779,570.646,162.473,571.162L162.473,571.162z"/>
			</g>
		</g>
		<g opacity="0.6">
			<g>
				<path fill="#EBEDE4" d="M170.561,583.599c6.897,1.786,13.81,3.285,20.904,4.014c6.042,0.621,13.075,1.462,18.845-0.855
					c0.802-0.321,0.452-1.636-0.361-1.309c-5.233,2.102-11.177,1.289-16.672,0.955c-7.583-0.461-15.025-2.216-22.354-4.113
					C170.073,582.07,169.713,583.38,170.561,583.599L170.561,583.599z"/>
			</g>
		</g>
		<g opacity="0.6">
			<g>
				<path fill="#EBEDE4" d="M182.713,596.183c7.165,0.614,14.267,0.472,21.426-0.136c4.637-0.394,9.602-0.596,13.112-3.993
					c0.63-0.61-0.331-1.569-0.96-0.961c-3.927,3.801-10.63,3.502-15.753,3.882c-5.944,0.44-11.89,0.358-17.825-0.149
					C181.84,594.75,181.848,596.108,182.713,596.183L182.713,596.183z"/>
			</g>
		</g>
		<g opacity="0.6">
			<g>
				<path fill="#EBEDE4" d="M195.287,523.195c-1.087,9.745-1.837,19.577-7.802,27.753c-0.517,0.709,0.662,1.386,1.173,0.686
					c6.097-8.358,6.875-18.475,7.987-28.438C196.742,522.326,195.383,522.335,195.287,523.195L195.287,523.195z"/>
			</g>
		</g>
		<g opacity="0.6">
			<g>
				<path fill="#EBEDE4" d="M200.962,530.703c-1.054,9.732-4.189,18.769-7.994,27.735c-0.338,0.797,0.832,1.489,1.173,0.686
					c3.901-9.196,7.098-18.44,8.179-28.421C202.415,529.833,201.056,529.842,200.962,530.703L200.962,530.703z"/>
			</g>
		</g>
		<g opacity="0.6">
			<g>
				<path fill="#EBEDE4" d="M206.562,537.053c-2.474,10.115-5.158,20.091-9.716,29.499c-0.38,0.784,0.791,1.474,1.173,0.686
					c4.606-9.509,7.352-19.595,9.853-29.823C208.08,536.563,206.77,536.202,206.562,537.053L206.562,537.053z"/>
			</g>
		</g>
		<g opacity="0.6">
			<g>
				<path fill="#EBEDE4" d="M211.463,540.411c-1.207,11.94-4.01,23.223-9.918,33.749c-0.429,0.765,0.744,1.449,1.173,0.686
					c6.013-10.713,8.875-22.276,10.104-34.435C212.909,539.54,211.55,539.549,211.463,540.411L211.463,540.411z"/>
			</g>
		</g>
		<g opacity="0.6">
			<g>
				<path fill="#EBEDE4" d="M217.812,547.026c-1.215,5.743-1.504,11.626-2.833,17.347c-1.396,6.01-4.644,11.44-7.704,16.721
					c-0.44,0.76,0.734,1.442,1.173,0.686c2.891-4.989,5.462-9.896,7.357-15.348c2.104-6.052,1.999-12.816,3.316-19.044
					C219.302,546.533,217.993,546.17,217.812,547.026L217.812,547.026z"/>
			</g>
		</g>
		<g opacity="0.6">
			<g>
				<path fill="#EBEDE4" d="M224.53,555.794c-0.808,5.448-1.488,10.901-2.777,16.264c-1.404,5.845-4.873,10.663-7.213,16.112
					c-0.341,0.796,0.828,1.488,1.173,0.686c1.898-4.42,4.567-8.438,6.313-12.928c2.41-6.195,2.846-13.253,3.813-19.772
					C225.967,555.299,224.658,554.931,224.53,555.794L224.53,555.794z"/>
			</g>
		</g>
		<g opacity="0.6">
			<g>
				<path fill="#EBEDE4" d="M230.511,564.098c-0.627,6.295-1.759,12.225-4.018,18.129c-0.817,2.138-3.31,11.188-6.126,11.761
					c-0.858,0.174-0.494,1.483,0.361,1.309c3.129-0.636,4.899-7.375,5.932-9.845c2.893-6.921,4.465-13.89,5.209-21.354
					C231.956,563.227,230.597,563.234,230.511,564.098L230.511,564.098z"/>
			</g>
		</g>
		<g opacity="0.6">
			<g>
				<path fill="#EBEDE4" d="M235.904,572.546c-0.946,9.594-2.681,18.58-8.459,26.529c-0.516,0.71,0.663,1.387,1.173,0.686
					c5.909-8.131,7.676-17.399,8.645-27.215C237.348,571.675,235.989,571.683,235.904,572.546L235.904,572.546z"/>
			</g>
		</g>
		<g opacity="0.6">
			<g>
				<path fill="#EBEDE4" d="M223.402,597.07c-6.901,4.496-15.587,4.341-23.529,4.611c-0.873,0.029-0.876,1.388,0,1.357
					c8.167-0.277,17.116-0.172,24.214-4.797C224.818,597.767,224.139,596.59,223.402,597.07L223.402,597.07z"/>
			</g>
		</g>
	</g>
	<g opacity="0.7">
		<g>
			<g>
				<path fill="#EBEDE4" d="M411.923,533.209c-5.838,10.237-9.985,21.3-15.393,31.755c-5.78,11.175-13.152,21.455-21.07,31.199
					c-14.351,17.658-34.801,27.396-55.876,34.734c-0.756,0.263-0.431,1.471,0.332,1.205c20.575-7.164,41.039-16.622,55.288-33.673
					c7.755-9.279,14.812-19.161,20.732-29.712c6.343-11.305,10.642-23.613,17.066-34.878
					C413.402,533.139,412.322,532.509,411.923,533.209L411.923,533.209z"/>
			</g>
		</g>
		<g>
			<g>
				<path fill="#EBEDE4" d="M403.408,530.428c0.099,5.717,1.368,11.322,1.467,17.038c0.014,0.806,1.264,0.807,1.25,0
					c-0.099-5.716-1.368-11.321-1.467-17.038C404.645,529.623,403.395,529.621,403.408,530.428L403.408,530.428z"/>
			</g>
		</g>
		<g>
			<g>
				<path fill="#EBEDE4" d="M397.201,534.466c1.364,7.763,1.514,15.653,2.544,23.457c0.104,0.787,1.355,0.798,1.25,0
					c-1.044-7.915-1.205-15.917-2.589-23.789C398.267,533.341,397.063,533.678,397.201,534.466L397.201,534.466z"/>
			</g>
		</g>
		<g>
			<g>
				<path fill="#EBEDE4" d="M392.049,537.785c0.066,9.798,0.974,19.68,3.319,29.209c0.192,0.782,1.398,0.45,1.205-0.332
					c-2.319-9.427-3.208-19.185-3.274-28.877C393.294,536.979,392.044,536.979,392.049,537.785L392.049,537.785z"/>
			</g>
		</g>
		<g>
			<g>
				<path fill="#EBEDE4" d="M415.627,536.472c-2.64,1.841-4.907,4.176-7.694,5.808c-0.695,0.407-0.066,1.488,0.631,1.08
					c2.79-1.635,5.053-3.967,7.694-5.808C416.914,537.094,416.29,536.01,415.627,536.472L415.627,536.472z"/>
			</g>
		</g>
		<g>
			<g>
				<path fill="#EBEDE4" d="M418.193,542.475c-2.312,1.4-4.542,2.92-6.961,4.135c-2.338,1.173-4.841,1.649-6.906,3.32
					c-0.627,0.508,0.264,1.387,0.884,0.885c1.914-1.55,4.438-2.121,6.653-3.126c2.451-1.112,4.667-2.745,6.961-4.134
					C419.512,543.138,418.884,542.057,418.193,542.475L418.193,542.475z"/>
			</g>
		</g>
		<g>
			<g>
				<path fill="#EBEDE4" d="M418.56,549.058c-5.31,2.733-10.941,4.638-16.524,6.714c-0.749,0.278-0.425,1.486,0.332,1.205
					c5.687-2.113,11.417-4.057,16.823-6.839C419.908,549.769,419.275,548.689,418.56,549.058L418.56,549.058z"/>
			</g>
		</g>
		<g>
			<g>
				<path fill="#EBEDE4" d="M420.209,555.252c-6.774,4.792-14.41,8.748-22.772,9.597c-0.794,0.081-0.802,1.331,0,1.25
					c8.594-0.872,16.431-4.836,23.403-9.767C421.492,555.87,420.869,554.785,420.209,555.252L420.209,555.252z"/>
			</g>
		</g>
		<g>
			<g>
				<path fill="#EBEDE4" d="M420.392,563.771c-7.853,5.759-17.62,9.013-27.351,9.208c-0.805,0.017-0.807,1.267,0,1.25
					c9.94-0.199,19.956-3.493,27.981-9.378C421.665,564.38,421.043,563.294,420.392,563.771L420.392,563.771z"/>
			</g>
		</g>
		<g>
			<g>
				<path fill="#EBEDE4" d="M418.56,573.84c-9.415,5.701-20.306,9.213-31.383,8.822c-0.807-0.028-0.804,1.222,0,1.25
					c11.286,0.397,22.419-3.183,32.014-8.992C419.879,574.503,419.251,573.422,418.56,573.84L418.56,573.84z"/>
			</g>
		</g>
		<g>
			<g>
				<path fill="#EBEDE4" d="M417.827,582.555c-4.699,3.215-10.21,4.604-15.698,5.817c-6.379,1.411-13.459,3.408-19.917,1.67
					c-0.779-0.21-1.11,0.996-0.332,1.205c5.898,1.588,12.035,0.099,17.877-1.103c6.473-1.33,13.161-2.721,18.7-6.51
					C419.119,583.183,418.495,582.099,417.827,582.555L417.827,582.555z"/>
			</g>
		</g>
		<g>
			<g>
				<path fill="#EBEDE4" d="M414.528,594.363c-6.086,3.883-12.839,5.132-19.943,5.6c-5.935,0.391-13.569,1.271-18.818-1.92
					c-0.691-0.42-1.318,0.662-0.631,1.08c5.238,3.185,11.979,2.349,17.843,2.165c7.78-0.243,15.537-1.607,22.181-5.845
					C415.836,595.011,415.21,593.929,414.528,594.363L414.528,594.363z"/>
			</g>
		</g>
		<g>
			<g>
				<path fill="#EBEDE4" d="M406.067,605.919c-6.488,1.097-12.957,1.92-19.542,2.001c-5.685,0.07-12.429,0.227-17.539-2.52
					c-0.71-0.381-1.341,0.698-0.631,1.08c4.956,2.663,10.833,2.479,16.311,2.669c7.289,0.255,14.567-0.814,21.732-2.025
					C407.193,606.99,406.855,605.785,406.067,605.919L406.067,605.919z"/>
			</g>
		</g>
		<g>
			<g>
				<path fill="#EBEDE4" d="M393.773,617.321c-6.11-0.063-12.101-0.704-18.118-1.771c-4.573-0.811-10.229-1.39-13.32-5.211
					c-0.507-0.626-1.386,0.264-0.884,0.885c2.974,3.675,7.633,4.296,12.033,5.182c6.698,1.349,13.458,2.094,20.29,2.165
					C394.579,618.58,394.579,617.33,393.773,617.321L393.773,617.321z"/>
			</g>
		</g>
		<g>
			<g>
				<path fill="#EBEDE4" d="M387.102,544.369c0.156,10.035-0.022,20.163,5.033,29.165c0.395,0.703,1.475,0.073,1.079-0.631
					c-4.938-8.795-4.71-18.746-4.862-28.534C388.339,543.563,387.089,543.563,387.102,544.369L387.102,544.369z"/>
			</g>
		</g>
		<g>
			<g>
				<path fill="#EBEDE4" d="M381.055,551.34c0.125,9.982,2.3,19.489,5.153,29.015c0.23,0.771,1.437,0.442,1.205-0.332
					c-2.818-9.407-4.985-18.814-5.108-28.683C382.295,550.534,381.045,550.533,381.055,551.34L381.055,551.34z"/>
			</g>
		</g>
		<g>
			<g>
				<path fill="#EBEDE4" d="M375.215,557.507c1.438,10.39,3.104,20.668,6.596,30.595c0.266,0.755,1.473,0.431,1.205-0.332
					c-3.492-9.927-5.158-20.206-6.596-30.595C376.31,556.379,375.105,556.719,375.215,557.507L375.215,557.507z"/>
			</g>
		</g>
		<g>
			<g>
				<path fill="#EBEDE4" d="M370.246,560.052c0.07,12.173,1.705,23.924,6.435,35.213c0.307,0.732,1.517,0.411,1.205-0.332
					c-4.681-11.172-6.32-22.826-6.39-34.881C371.491,559.246,370.241,559.245,370.246,560.052L370.246,560.052z"/>
			</g>
		</g>
		<g>
			<g>
				<path fill="#EBEDE4" d="M363.649,566.249c0.638,5.891,0.125,11.94,1.146,17.784c1.094,6.258,3.384,11.979,5.902,17.771
					c0.32,0.737,1.397,0.101,1.079-0.631c-2.249-5.174-4.199-10.232-5.471-15.73c-1.44-6.223-0.721-12.87-1.406-19.194
					C364.813,565.456,363.562,565.448,363.649,566.249L363.649,566.249z"/>
			</g>
		</g>
		<g>
			<g>
				<path fill="#EBEDE4" d="M356.503,574.38c0.278,5.581,0.443,11.151,1.189,16.695c0.807,6,3.672,11.249,5.429,16.969
					c0.236,0.769,1.442,0.44,1.205-0.332c-1.575-5.128-4.057-9.876-5.128-15.16c-1.205-5.938-1.145-12.143-1.445-18.172
					C357.713,573.578,356.463,573.574,356.503,574.38L356.503,574.38z"/>
			</g>
		</g>
		<g>
			<g>
				<path fill="#EBEDE4" d="M350.09,581.933c0.034,7.559,0.962,14.586,3.027,21.835c0.684,2.4,1.833,9.386,4.76,10.326
					c0.77,0.247,1.096-0.96,0.332-1.205c-2.458-0.79-3.846-9.277-4.458-11.488c-1.774-6.409-2.381-12.826-2.411-19.468
					C351.337,581.127,350.087,581.126,350.09,581.933L350.09,581.933z"/>
			</g>
		</g>
		<g>
			<g>
				<path fill="#EBEDE4" d="M344.228,589.871c0.037,9.854,0.883,19.25,5.765,28.003c0.393,0.704,1.472,0.074,1.079-0.631
					c-4.777-8.567-5.558-17.741-5.594-27.372C345.475,589.065,344.225,589.064,344.228,589.871L344.228,589.871z"/>
			</g>
		</g>
		<g>
			<g>
				<path fill="#EBEDE4" d="M354.304,616.646c6.229,5.259,14.668,6.066,22.447,7.131c0.788,0.108,1.128-1.097,0.332-1.205
					c-7.5-1.026-15.876-1.729-21.895-6.811C354.576,615.246,353.688,616.125,354.304,616.646L354.304,616.646z"/>
			</g>
		</g>
	</g>
</g>
<g id="Layer_1">
	<g>
		<path fill="none" stroke="#EBEDE4" stroke-width="1.4007" stroke-miterlimit="10" d="M1558.129,413.434
			c-26.839,3.867-38.718-14.207-47.211-36.171c-9.818-24.149-19.808-48.769-38.662-66.978
			c-14.623-13.882-34.685-23.661-54.889-20.601c-24.443,4.597-18.264,28.997-11.605,47.365"/>
		<g>
			<path fill="#EBEDE4" d="M1404.951,336.821c0,0,6.408,3.595,13.436-0.395C1411.101,331.599,1404.951,336.821,1404.951,336.821z"/>
			<path fill="#EBEDE4" d="M1394.367,344.73c0,0,7.308-0.772,10.734-8.091C1396.365,336.913,1394.367,344.73,1394.367,344.73z"/>
		</g>
		<g>
			<path fill="#EBEDE4" d="M1400.496,314.092c0,0,4.2,6.029,12.264,5.503C1408.307,312.072,1400.496,314.092,1400.496,314.092z"/>
			<path fill="#EBEDE4" d="M1387.522,316.597c0,0,6.914,2.489,13.188-2.603C1392.729,310.432,1387.522,316.597,1387.522,316.597z"/>
		</g>
		<g>
			<path fill="#EBEDE4" d="M1405.308,294.688c0,0,0.182,7.346,7.2,11.35C1412.938,297.309,1405.308,294.688,1405.308,294.688z"/>
			<path fill="#EBEDE4" d="M1393.102,289.627c0,0,4.397,5.888,12.438,5.098C1400.844,287.353,1393.102,289.627,1393.102,289.627z"/>
		</g>
		<g>
			<path fill="#EBEDE4" d="M1422.984,287.829c0,0-4.517,5.798-1.625,13.345C1427.225,294.693,1422.984,287.829,1422.984,287.829z"/>
			<path fill="#EBEDE4" d="M1416.75,276.18c0,0-0.331,7.341,6.39,11.826C1424.18,279.327,1416.75,276.18,1416.75,276.18z"/>
		</g>
		<g>
			<path fill="#EBEDE4" d="M1440.529,290.03c0,0-6.723,2.964-7.755,10.979C1441.012,298.084,1440.529,290.03,1440.529,290.03z"/>
			<path fill="#EBEDE4" d="M1440.563,276.816c0,0-3.771,6.308,0.022,13.442C1445.613,283.109,1440.563,276.816,1440.563,276.816z"/>
		</g>
		<g>
			<path fill="#EBEDE4" d="M1455.73,297.71c0,0-7.339,0.337-11.195,7.438C1453.271,305.395,1455.73,297.71,1455.73,297.71z"/>
			<path fill="#EBEDE4" d="M1456.514,284.617c0,0-3.97,6.185-0.405,13.437C1461.361,291.068,1456.514,284.617,1456.514,284.617z"/>
		</g>
		<g>
			<path fill="#EBEDE4" d="M1480.062,319.263c0,0-7.341,0.337-11.197,7.439C1477.602,326.948,1480.062,319.263,1480.062,319.263z"/>
			<path fill="#EBEDE4" d="M1480.844,306.171c0,0-3.97,6.184-0.406,13.436C1485.691,312.622,1480.844,306.171,1480.844,306.171z"/>
		</g>
		<g>
			<path fill="#EBEDE4" d="M1506.589,366.302c0,0-6.279-3.817-13.441-0.075C1500.26,371.306,1506.589,366.302,1506.589,366.302z"/>
			<path fill="#EBEDE4" d="M1514.545,355.873c0,0-6.745,2.918-7.835,10.923C1514.967,363.933,1514.545,355.873,1514.545,355.873z"/>
		</g>
		<g>
			<path fill="#EBEDE4" d="M1469.523,307.098c0,0-7.34,0.336-11.196,7.438C1467.064,314.782,1469.523,307.098,1469.523,307.098z"/>
			<path fill="#EBEDE4" d="M1465.612,293.981c0,0-2.044,7.058,3.438,12.995C1472.096,298.784,1465.612,293.981,1465.612,293.981z"/>
		</g>
		<g>
			<path fill="#EBEDE4" d="M1491.305,335.266c0,0-6.375-3.653-13.439,0.271C1485.105,340.432,1491.305,335.266,1491.305,335.266z"/>
			<path fill="#EBEDE4" d="M1495.041,322.1c0,0-5.512,4.859-4.072,12.811C1497.936,329.631,1495.041,322.1,1495.041,322.1z"/>
		</g>
		<g>
			<path fill="#EBEDE4" d="M1514.855,384.81c0,0-6.375-3.654-13.439,0.269C1508.656,389.975,1514.855,384.81,1514.855,384.81z"/>
			<path fill="#EBEDE4" d="M1518.592,371.643c0,0-5.512,4.859-4.071,12.81C1521.487,379.174,1518.592,371.643,1518.592,371.643z"/>
		</g>
		<g>
			<path fill="#EBEDE4" d="M1525.067,402.287c0,0-7.145-1.717-12.825,4.032C1520.568,408.986,1525.067,402.287,1525.067,402.287z"/>
			<path fill="#EBEDE4" d="M1524.956,388.603c0,0-3.925,6.211-0.311,13.438C1529.85,395.019,1524.956,388.603,1524.956,388.603z"/>
		</g>
		<g>
			<path fill="#EBEDE4" d="M1537.786,411.111c0,0-7.283,0.974-10.509,8.383C1536.004,418.981,1537.786,411.111,1537.786,411.111z"/>
			<path fill="#EBEDE4" d="M1532.751,398.386c0,0-1.422,7.208,4.553,12.646C1539.627,402.606,1532.751,398.386,1532.751,398.386z"/>
		</g>
		<g>
			<path fill="#EBEDE4" d="M1551.949,413.438c0,0-7.282,0.974-10.508,8.383C1550.167,421.308,1551.949,413.438,1551.949,413.438z"/>
			<path fill="#EBEDE4" d="M1546.915,400.712c0,0-1.423,7.209,4.553,12.646C1553.791,404.933,1546.915,400.712,1546.915,400.712z"/>
		</g>
		<g>
			<path fill="#EBEDE4" d="M1499.848,350.019c0,0-6.374-3.653-13.438,0.271C1493.649,355.185,1499.848,350.019,1499.848,350.019z"/>
			<path fill="#EBEDE4" d="M1503.585,336.853c0,0-5.513,4.86-4.071,12.81C1506.479,344.384,1503.585,336.853,1503.585,336.853z"/>
		</g>
		<path fill="#EBEDE4" d="M1405.378,337.509c0,0,4.939,4.071,4.589,11.925C1404.366,344.271,1405.378,337.509,1405.378,337.509z"/>
	</g>
	<g>
		<path fill="none" stroke="#0F0A2B" stroke-width="1.5783" stroke-miterlimit="10" d="M0,82.401
			c30.485,2.059,39.321,24.772,43.508,50.976c5.134,28.923,10.344,58.405,26.834,82.91c12.844,18.741,32.649,34.241,55.635,35.626
			c28.018,0.69,26.953-27.654,23.942-49.462"/>
		<g>
			<path fill="#0F0A2B" d="M150.255,202.172c0,0-6.215-5.471-14.899-2.729C142.249,206.479,150.255,202.172,150.255,202.172z"/>
			<path fill="#0F0A2B" d="M163.781,195.947c0,0-8.234-0.869-13.735,6.389C159.738,204.092,163.781,195.947,163.781,195.947z"/>
		</g>
		<g>
			<path fill="#0F0A2B" d="M149.813,228.269c0,0-3.209-7.635-12.218-8.952C140.729,228.654,149.813,228.269,149.813,228.269z"/>
			<path fill="#0F0A2B" d="M164.699,228.563c0,0-7.033-4.372-15.146-0.238C157.511,234.13,164.699,228.563,164.699,228.563z"/>
		</g>
		<g>
			<path fill="#0F0A2B" d="M139.942,248.517c0,0,1.529-8.137-5.261-14.202C132.15,243.833,139.942,248.517,139.942,248.517z"/>
			<path fill="#0F0A2B" d="M152.201,256.969c0,0-3.46-7.524-12.508-8.547C143.134,257.651,152.201,256.969,152.201,256.969z"/>
		</g>
		<g>
			<path fill="#0F0A2B" d="M118.848,251.914c0,0,6.341-5.326,4.933-14.322C115.791,243.352,118.848,251.914,118.848,251.914z"/>
			<path fill="#0F0A2B" d="M122.975,266.219c0,0,2.093-8.012-4.257-14.536C115.528,261.001,122.975,266.219,122.975,266.219z"/>
		</g>
		<g>
			<path fill="#0F0A2B" d="M100.031,245.356c0,0,8.106-1.683,11.131-10.272C101.397,236.367,100.031,245.356,100.031,245.356z"/>
			<path fill="#0F0A2B" d="M96.883,259.909c0,0,5.641-6.063,3.142-14.817C92.8,251.785,96.883,259.909,96.883,259.909z"/>
		</g>
		<g>
			<path fill="#0F0A2B" d="M85.088,233.314c0,0,8.167,1.357,14.089-5.561C89.608,225.425,85.088,233.314,85.088,233.314z"/>
			<path fill="#0F0A2B" d="M81.143,247.557c0,0,5.831-5.879,3.611-14.71C77.32,239.307,81.143,247.557,81.143,247.557z"/>
		</g>
		<g>
			<path fill="#0F0A2B" d="M63.352,203.835c0,0,8.168,1.357,14.09-5.562C67.873,195.945,63.352,203.835,63.352,203.835z"/>
			<path fill="#0F0A2B" d="M59.407,218.078c0,0,5.83-5.881,3.611-14.711C55.584,209.827,59.407,218.078,59.407,218.078z"/>
		</g>
		<g>
			<path fill="#0F0A2B" d="M45.195,145.753c0,0,6.021,5.686,14.795,3.249C53.348,141.729,45.195,145.753,45.195,145.753z"/>
			<path fill="#0F0A2B" d="M33.973,155.372c0,0,8.119-1.627,11.206-10.192C35.404,146.391,33.973,155.372,33.973,155.372z"/>
		</g>
		<g>
			<path fill="#0F0A2B" d="M72.1,219.723c0,0,8.167,1.357,14.09-5.562C76.619,211.833,72.1,219.723,72.1,219.723z"/>
			<path fill="#0F0A2B" d="M73.321,235.097c0,0,3.914-7.297-0.728-15.13C67.307,228.277,73.321,235.097,73.321,235.097z"/>
		</g>
		<g>
			<path fill="#0F0A2B" d="M54.73,183.553c0,0,6.164,5.527,14.874,2.866C62.778,179.32,54.73,183.553,54.73,183.553z"/>
			<path fill="#0F0A2B" d="M47.513,197.182c0,0,7.218-4.058,7.503-13.158C46.096,188.201,47.513,197.182,47.513,197.182z"/>
		</g>
		<g>
			<path fill="#0F0A2B" d="M40.444,123.413c0,0,6.164,5.527,14.873,2.867C48.49,119.18,40.444,123.413,40.444,123.413z"/>
			<path fill="#0F0A2B" d="M33.226,137.042c0,0,7.219-4.058,7.503-13.157C31.809,128.061,33.226,137.042,33.226,137.042z"/>
		</g>
		<g>
			<path fill="#0F0A2B" d="M33.306,101.747c0,0,7.469,3.574,15.082-1.424C39.841,95.424,33.306,101.747,33.306,101.747z"/>
			<path fill="#0F0A2B" d="M30.206,116.854c0,0,5.788-5.921,3.507-14.735C26.324,108.63,30.206,116.854,30.206,116.854z"/>
		</g>
		<g>
			<path fill="#0F0A2B" d="M21.367,89.028c0,0,8.255,0.642,13.554-6.763C25.185,80.776,21.367,89.028,21.367,89.028z"/>
			<path fill="#0F0A2B" d="M23.919,104.238c0,0,3.265-7.61-2.039-15.009C17.336,97.967,23.919,104.238,23.919,104.238z"/>
		</g>
		<g>
			<path fill="#0F0A2B" d="M6.307,83.13c0,0,8.255,0.642,13.555-6.763C10.125,74.878,6.307,83.13,6.307,83.13z"/>
			<path fill="#0F0A2B" d="M8.859,98.34c0,0,3.265-7.61-2.04-15.008C2.275,92.069,8.859,98.34,8.859,98.34z"/>
		</g>
		<g>
			<path fill="#0F0A2B" d="M48.79,165.284c0,0,6.164,5.527,14.872,2.867C56.836,161.05,48.79,165.284,48.79,165.284z"/>
			<path fill="#0F0A2B" d="M41.571,178.912c0,0,7.219-4.057,7.503-13.158C40.155,169.932,41.571,178.912,41.571,178.912z"/>
		</g>
		<path fill="#0F0A2B" d="M149.947,201.313c0,0-4.485-5.649-2.248-14.221C152.654,194.101,149.947,201.313,149.947,201.313z"/>
	</g>
	<g>
		<g>
			<path fill="#EBEDE4" d="M1390.367,641.711c0.383-12.707-3.899-23.07-8.727-34.557c-2.792-6.646-1.597-12.506-1.548-19.429
				c0.034-4.703-1.252-8.518-4.42-11.98c-4.459-4.874-9.132-8.717-9.36-15.869c-0.182-5.677,2.868-11.376,4.305-16.759
				c1.21-4.539,1.521-9.451-0.307-13.849c-1.756-4.224-5.681-7.131-8.934-10.143c-5.393-4.992-8.245-11.704-4.801-18.627
				c2.771-5.567,7.396-9.941,9.897-15.696c2.366-5.445,0.93-10.021-3.935-13.231c-6.104-4.028-13.518-5.714-16.266-13.337
				c-2.121-5.883,2.458-10.406,4.722-15.34c1.603-3.493,1.434-7.728-0.504-11.034c-3.423-5.841-21.906-6.654-17.61-16.134
				c1.476-3.258,3.468-5.601,3.758-9.313c0.283-3.638-1.995-7.418-5.257-8.902c-6.607-3.008-13.904,3.758-16.051,9.439
				c-2.04,5.399,2.185,11.744,2.371,17.159c0.205,5.97-4.776,11.437-3.392,17.532c0.885,3.893,3.086,6.466,6.469,8.477
				c4.002,2.376,9.166,3.121,10.841,8.081c2.098,6.212-3.507,11.699-6.82,16.231c-2.33,3.187-4.104,7.081-4.478,11.031
				c-1.249,13.179,20.952,12.027,24.102,23.267c2.586,9.225-8.891,15.49-12.917,22.42c-3.406,5.86-1.622,12.412,4.226,15.505
				c3.163,1.672,6.684,2.482,9.787,4.304c7.766,4.559,3.157,12.162,0.208,17.981c-2.67,5.269-5.354,13.211,0.667,17.142
				c5.407,3.53,15.44,2.284,16.449,10.767c0.501,4.211-3.322,8.584-5.628,11.732c-2.549,3.481-5.145,6.933-6.372,11.126
				c-4.65,15.891,22.093,23.088,31.563,28.646c1.754,1.03,3.337-1.69,1.588-2.717c-8.346-4.899-17.979-7.529-25.396-13.974
				c-10.32-8.968-0.644-17.903,4.682-26.336c4.254-6.736,3.082-13.893-4.044-17.893c-2.777-1.559-6.02-2.143-9.024-3.098
				c-6.049-1.923-4.44-7.722-2.413-12.448c1.966-4.581,4.88-8.511,5.337-13.604c0.406-4.512-3.286-8.434-6.865-10.535
				c-3.32-1.949-7.199-2.687-10.499-4.691c-6.414-3.895-0.854-11.969,2.569-15.701c5.518-6.015,11.808-12.066,8.656-20.922
				c-2.049-5.758-8.201-8.574-13.33-10.969c-6.194-2.893-12.063-5.85-9.3-13.66c2.99-8.448,14.58-15.666,9.795-25.812
				c-4.334-9.187-19.442-6.647-16.286-20.063c1.281-5.45,3.461-9.708,2.633-15.436c-0.521-3.605-2.158-6.839-2.432-10.522
				c-0.258-3.48,2.68-6.518,5.313-8.309c5.739-3.903,11.668,0.547,9.602,7.259c-1.104,3.59-4.179,5.927-3.798,9.971
				c0.851,9.011,12.361,9.123,17.7,13.57c4.911,4.091,0.367,10.82-1.999,14.855c-2.348,4.002-2.911,8.271-1.33,12.655
				c2.325,6.451,8.51,9.64,14.23,12.555c4.492,2.289,7.859,4.665,6.142,10.16c-2.505,8.009-10.209,13.251-12.061,21.622
				c-1.521,6.877,3.423,13.475,8.143,17.844c2.954,2.734,6.12,5.216,7.712,9.044c1.929,4.642,0.17,10.359-1.262,14.892
				c-2.178,6.896-4.65,13.312-2.015,20.458c1.309,3.548,3.911,6.379,6.542,8.996c3.784,3.765,5.826,6.592,5.95,12.182
				c0.099,4.492-0.849,8.889-0.384,13.382c0.426,4.115,2.497,7.988,4.109,11.746c4.094,9.539,6.865,18.345,6.549,28.857
				C1387.159,643.741,1390.307,643.735,1390.367,641.711L1390.367,641.711z"/>
		</g>
	</g>
	<g>
		<g>
			<path fill="#EBEDE4" d="M1291.977,444.843c-3.843,8.384-8.854,14.952-4.217,23.949c2.344,4.547,5.677,7.418,9.08,11.057
				c5.51,5.891-0.73,12.017-3.148,17.412c-1.439,3.212-1.354,7.154,0.646,10.07c2.826,4.122,8.676,5.415,10.329,10.457
				c1.32,4.025-5.434,7.087-7.749,9.429c-2.056,2.079-3.564,5.887-2.226,8.705c1.67,3.516,5.002,5.596,8.099,7.75
				c3.081,2.144,5.014,4.114,2.978,8.076c-1.28,2.488-3.763,4.264-5.447,6.457c-5.085,6.621-1.848,14.004,3.582,19.161
				c2.746,2.608,5.957,4.764,8.092,7.952c3.77,5.627-2.47,9.254-5.915,12.787c-2.455,2.518-3.517,6.274-2.691,9.736
				c1.173,4.919,5.511,7.972,6.79,12.856c2.17,8.287-1.184,17.185-2.394,25.37c-1.126,7.622,0.001,14.762,3.594,21.576
				c0.649,1.231,2.512,0.141,1.863-1.09c-6.761-12.823-1.468-24.635-0.367-37.944c0.38-4.605-0.268-9.354-2.715-13.316
				c-3.448-5.58-7.631-10.456-1.763-16.473c2.52-2.585,6.009-4.562,6.911-8.285c0.654-2.702-0.883-5.873-2.576-7.864
				c-5.261-6.186-17.606-12.646-11.268-22.439c2.499-3.861,6.488-6.083,7.397-10.879c0.605-3.185-1.834-5.201-4.11-6.923
				c-4.519-3.417-11.657-7.371-6.308-13.688c2.37-2.799,6.045-4.1,7.921-7.367c1.316-2.293,0.347-5.507-1.262-7.376
				c-3.79-4.405-10.292-6.138-10.189-12.895c0.068-4.546,4.419-8.433,5.842-12.625c1.306-3.846-0.454-8.09-3.079-10.896
				c-4.203-4.493-9.171-8.908-10.017-15.437c-0.689-5.32,4.077-11.625,6.181-16.216
				C1294.416,444.677,1292.556,443.579,1291.977,444.843L1291.977,444.843z"/>
		</g>
	</g>
	<g>
		<g>
			<path fill="#EBEDE4" d="M480.742,494.854c-2.072,3.802-5.036,7.614-5.899,11.937c-0.775,3.883,1.912,8.203,3.865,11.274
				c1.204,1.894,3.062,3.27,4.361,5.093c2.361,3.313,0.506,6.917-1.499,9.688c-2.299,3.177-3.564,5.86-3.026,9.832
				c0.467,3.44,5.644,5.916,7.565,8.444c3.453,4.544-4.638,7.361-6.895,10.174c-1.896,2.363-1.634,5.159-0.066,7.542
				c2.725,4.144,11.016,6.185,5.893,12.22c-2.317,2.73-5.279,4.373-6.027,8.099c-0.658,3.274,0.603,6.367,2.499,8.96
				c2.193,2.998,5.354,5.126,7.389,8.257c3.523,5.423-3.532,7.729-6.111,11.157c-1.753,2.329-2.354,5.744-1.188,8.498
				c0.829,1.957,2.111,3.621,3.169,5.455c1.807,3.133,1.35,7.351,0.791,10.758c-1.732,10.568-5.921,18.899-1.3,29.466
				c0.44,1.007,1.911,0.137,1.475-0.861c-4.956-11.331,1.154-20.959,1.964-32.264c0.294-4.114-0.932-7.339-3.172-10.688
				c-4.622-6.911,0.945-10.121,5.361-14.3c4.503-4.26-0.654-9.907-3.783-12.995c-3.432-3.386-7.14-7.709-4.891-12.899
				c1.635-3.772,6.06-5.266,7.314-9.438c2.318-7.71-17.259-10.287-4.861-18.619c2.029-1.363,4.078-2.489,4.887-4.924
				c1.054-3.169-2.238-6.118-4.283-7.889c-2.603-2.253-4.68-3.795-4.105-7.853c0.323-2.287,2.174-4.301,3.482-6.108
				c2.15-2.972,2.659-5.947,1.473-9.428c-0.383-1.124-1.212-2.042-1.977-2.919c-2.121-2.433-3.854-4.614-5.318-7.522
				c-3.282-6.517,1.346-11.703,4.389-17.285C482.744,494.748,481.27,493.887,480.742,494.854L480.742,494.854z"/>
		</g>
	</g>
	<g>
		<g>
			<path fill="#EBEDE4" d="M238.044,402.936c-4.282,7.917-11.389,16.047-8.943,25.587c1.214,4.737,4.001,9.451,6.964,13.274
				c3.85,4.968,8.928,8.285,6.996,15.576c-2.025,7.649-12.979,14.317-8.019,23.445c3.802,6.995,20.072,14.262,8.632,22.042
				c-5.043,3.43-13.105,8.767-9.615,16.135c1.797,3.797,5.104,6.373,8.318,8.938c1.588,1.268,3.14,2.547,4.503,4.059
				c2.708,3-0.053,6.93-2.189,9.299c-2.894,3.209-6.444,5.617-8.507,9.517c-1.768,3.343-1.355,7.944-0.289,11.426
				c2.209,7.216,9.176,11.742,13.789,17.295c2.973,3.579,4.308,8.285,0.804,11.976c-2.932,3.086-7.091,4.933-9.583,8.472
				c-5.607,7.962-0.176,14.997,3.683,22.007c5.427,9.861-0.458,23.525-2.945,33.449c-2.656,10.597-2.505,20.76,2.042,30.819
				c0.725,1.604,3.079,0.214,2.359-1.379c-5.779-12.788-2.836-24.844,0.646-37.741c2.521-9.339,4.429-19.744-0.861-28.465
				c-3.091-5.097-5.464-8.611-3.915-14.929c1.162-4.741,8.038-7.701,11.206-11.038c4.842-5.098,1.18-12.087-2.653-16.45
				c-5.898-6.716-14.031-12.064-12.438-22.216c1.286-8.198,15.189-11.637,12.398-21.341c-2.349-8.164-19.353-10.739-12.802-21.487
				c3.635-5.964,13.618-6.597,13.043-15.074c-0.604-8.907-13.153-10.887-13.78-19.718c-0.619-8.723,9.575-13.646,9.293-22.512
				c-0.113-3.535-1.512-6.56-3.733-9.233c-3.395-4.086-6.498-7.509-8.928-12.362c-2.33-4.652-3.061-9.058-0.941-13.895
				c2.143-4.89,5.29-9.406,7.827-14.097C241.242,402.765,238.883,401.385,238.044,402.936L238.044,402.936z"/>
		</g>
	</g>
	<g>
		<g>
			<path fill="#FFB640" d="M8.106,627.596c11.466-0.612,22.971-0.219,34.397-1.527c8.651-0.991,18.289-3.119,24.158-10.087
				c8.352-9.916-0.04-21.272,1.74-32.416c1.913-11.98,14.369-16.384,24.69-18.545c12.006-2.514,32.292-2.261,36.206-17.056
				c2.77-10.471-3.898-21.225-6.833-30.831c-5.06-16.563,9.891-24.436,22.325-30.019c10.476-4.704,20.349-11.055,25.679-21.592
				c1.99-3.936,2.816-8.301,1.77-12.609c-1.03-4.241-4.757-7.52-7.24-10.915c-3.372-4.612-4.809-10.723-3.167-16.228
				c1.505-5.048,6.013-8.938,9.747-12.383c5.389-4.973,12.814-10.827,10.413-19.078c-2.145-7.368-11.353-11.268-18.096-12.766
				c-8.833-1.961-16.781,1.275-22.94,7.697c-7.083,7.385-10.083,17.812-16.017,26.033c-6.89,9.546-18.909,8.433-29.349,9.6
				c-8.066,0.901-17.292,4.299-20.505,12.546c-4.268,10.953,3.948,21.416,2.051,32.456c-2.026,11.797-17.732,12.582-26.36,17.195
				c-6.373,3.407-9.421,9.862-9.66,16.852c-0.26,7.59,2.45,15.166,4.383,22.396c1.687,6.311,4.203,14.963-1.313,20.09
				c-3.644,3.388-9.818,3.654-14.428,4.054c-6.126,0.53-12.253,0.683-18.323,1.747c-10.57,1.854-19.19,8.676-22.578,18.969
				c-2.964,9.005,0.058,19.291,3.611,27.644c2.266,5.325,5.06,10.383,7.439,15.651c2.065,4.574,3.904,9.001,7.316,12.755
				c1.086,1.195,2.849-0.578,1.768-1.768c-3.619-3.982-5.438-8.957-7.623-13.795c-2.678-5.929-5.849-11.537-8.117-17.662
				c-4.558-12.307-4.231-24.787,6.107-33.964c9.763-8.667,25.898-5.978,37.866-8c6.143-1.037,11.377-4.628,12.542-10.979
				c2.692-14.675-9.98-28.691-5.058-43.497c3.339-10.044,16.139-11.354,24.494-15.059c9.105-4.038,11.751-12.397,10.167-21.732
				c-0.956-5.633-3.06-10.943-3.147-16.72c-0.11-7.241,5.52-12.679,11.877-15.048c9.044-3.37,19.186-1.456,28.375-4.403
				c20.145-6.462,17.547-40.783,41.779-41.179c8.193-0.134,23.745,5.655,21.517,16.204c-0.958,4.532-5.874,8.241-9.116,11.218
				c-3.394,3.115-6.731,6.243-9.271,10.118c-4.809,7.34-2.824,16.854,2.318,23.461c3.324,4.271,6.762,7.697,6.5,13.493
				c-0.336,7.416-6.583,14.091-11.936,18.535c-9.091,7.548-21.194,9.81-30.474,17.007c-4.047,3.139-6.711,7.665-8.238,12.485
				c-1.91,6.03,0.587,12.672,2.744,18.242c3.355,8.664,8.928,21.301,1.15,29.261c-5.307,5.431-14.805,6.309-21.872,7.515
				c-8.705,1.485-17.666,2.771-25.33,7.449c-8.158,4.98-11.837,14.202-10.369,23.505c1.054,6.675,3.825,13.112,0.728,19.664
				c-2.645,5.595-8.664,8.396-14.247,10.072c-11.193,3.364-23.525,2.887-35.09,3.121c-3.056,0.063-6.111,0.157-9.164,0.32
				C6.503,625.182,6.495,627.682,8.106,627.596L8.106,627.596z"/>
		</g>
	</g>
	<path fill="none" stroke="#FFB640" stroke-width="0.5" stroke-miterlimit="10" d="M155.951,376.063"/>
	<path fill="none" stroke="#FFB640" stroke-width="0.5" stroke-miterlimit="10" d="M155.951,376.063"/>
	<path fill="none" stroke="#FFB640" stroke-width="2" stroke-miterlimit="10" d="M167.893,389.086c0,0-61.748,103.594-86.499,136.92
		C56.643,559.332,15.253,616,15.253,616"/>
	<g>
		<g>
			<path fill="#FFB640" d="M192.348,690.488c19.343-1.683,47.692,0.014,57.32-12.921c6.736-9.049,1.493-15.82,0.406-25.057
				c-1.407-11.717,4.828-19.677,15.354-24.057c21.489-8.512,53.884-2.8,42.602-35.628c-3.509-10.034-9.991-18.879-5.438-28.942
				c4.611-11.18,15.516-14.196,25.419-19.504c9.657-4.872,19.489-13.094,22.302-24.144c2.624-11.73-7.12-13.804-10.441-23.156
				c-6.758-16.473,9.961-23.665,16.994-34.048c9.004-13.862-15.53-24.316-27.174-19.996c-16.227,6.323-17.342,23.507-27.158,35.759
				c-11.484,14.182-36.585,1.684-46.938,19.953c-6.221,11.993,6.975,25.217,1.189,37.455c-4.553,10.063-19.996,9.934-27.971,16.908
				c-19.721,17.56,19.793,54.317-9.889,61.062c-11.773,2.522-26.912,0.841-36.932,8.381c-18.241,14.951-8.12,35.628,1.306,52.463
				C187.36,683.064,188.302,686.472,192.348,690.488"/>
		</g>
		<path fill="#FFB640" d="M347.004,445.951"/>
		<path fill="#FFB640" d="M347.004,445.951"/>
		<path fill="none" stroke="#394CD3" stroke-miterlimit="10" d="M338.328,459.233c0,0-58.711,105.344-82.482,139.376
			c-23.772,34.031-63.498,91.879-63.498,91.879"/>
		<line fill="none" stroke="#394CD3" stroke-miterlimit="10" x1="231.309" y1="556.823" x2="261.875" y2="589.086"/>
		<line fill="none" stroke="#394CD3" stroke-miterlimit="10" x1="266.703" y1="500.445" x2="300.098" y2="525.689"/>
		<line fill="none" stroke="#394CD3" stroke-miterlimit="10" x1="346.02" y1="516.654" x2="306.753" y2="513.944"/>
		<path fill="none" stroke="#394CD3" stroke-miterlimit="10" d="M306.653,606.413c0,0-52.332,3.104-53.638,2.364"/>
		<polyline fill="none" stroke="#394CD3" stroke-miterlimit="10" points="182.327,629.064 209.994,665.432 243.883,672.564 		"/>
		<line fill="none" stroke="#394CD3" stroke-miterlimit="10" x1="286.367" y1="587.446" x2="266.473" y2="608.356"/>
		<line fill="none" stroke="#394CD3" stroke-miterlimit="10" x1="252.508" y1="553.894" x2="248.738" y2="574.745"/>
		<polyline fill="none" stroke="#394CD3" stroke-miterlimit="10" points="287.162,498.82 287.787,516.989 268.863,514.888 		"/>
		<line fill="none" stroke="#394CD3" stroke-miterlimit="10" x1="329.229" y1="503.691" x2="322.631" y2="514.32"/>
		<line fill="none" stroke="#394CD3" stroke-miterlimit="10" x1="203.827" y1="628.986" x2="199.11" y2="650.835"/>
		<line fill="none" stroke="#394CD3" stroke-miterlimit="10" x1="183.923" y1="641.463" x2="192.608" y2="642.361"/>
		<line fill="none" stroke="#394CD3" stroke-miterlimit="10" x1="235.08" y1="656.658" x2="223.277" y2="668.36"/>
	</g>
	<path fill="#0F0A2B" d="M404.924,379.27c0,0.001,1.018,0.986,2.725,2.927c1.709,1.939,4.133,4.818,6.931,8.714
		c2.789,3.906,5.991,8.816,8.939,15.122c2.906,6.285,5.682,14.115,6.17,23.772c0.244,4.798-0.192,10.032-1.616,15.275
		c-1.369,5.247-3.778,10.456-7.144,14.915c-0.417,0.56-0.838,1.117-1.273,1.666c-0.445,0.536-0.902,1.056-1.365,1.576
		c-0.913,1.059-1.899,2.025-2.904,2.977l-0.754,0.715l-0.095,0.088c0.863-1.042,0.194-0.245,0.366-0.458l-0.158,0.153l-0.316,0.307
		l-1.279,1.22c-0.813,0.757-1.63,1.519-2.451,2.284c-0.712,0.703-1.493,1.348-2.246,2.093c-0.757,0.769-1.518,1.541-2.283,2.316
		c-0.721,0.813-1.446,1.628-2.174,2.447c-0.719,0.836-1.354,1.72-2.056,2.6c-2.655,3.566-4.818,7.691-6.203,12.276
		c-1.413,4.576-2.032,9.545-2.245,14.613c-0.091,2.545-0.118,5.11-0.056,7.704c0.025,1.292,0.078,2.603,0.136,3.906l0.059,0.979
		l0.015,0.245l0.007,0.123c-0.008,0.261,0,0.143,0,0.232l0.019,0.491l0.073,1.965c0.06,1.327,0.184,2.595,0.211,3.974l-0.009,4.373
		c0.046,1.493-0.074,2.923-0.172,4.38c-0.118,1.456-0.101,2.936-0.372,4.407l-0.657,4.476l-1.092,4.48
		c-0.101,0.374-0.184,0.757-0.301,1.126l-0.385,1.101l-0.791,2.213c-0.286,0.729-0.52,1.495-0.861,2.199l-1.016,2.131
		c-2.759,5.677-6.6,10.82-10.841,15.028c-4.246,4.211-8.715,7.779-13.096,11.074c-4.373,3.198-8.73,6.181-12.946,8.873
		c-1,0.644-1.996,1.285-2.987,1.923c-1.024,0.661-2.05,1.31-3.078,1.943c-0.499,0.315-1.056,0.645-1.502,0.947l-1.285,0.871
		c-0.855,0.577-1.705,1.151-2.567,1.696c-0.862,0.519-1.704,1.167-2.566,1.751c-0.86,0.589-1.716,1.176-2.566,1.758
		c-0.885,0.551-1.65,1.188-2.464,1.778c-0.815,0.587-1.625,1.17-2.43,1.748c-1.579,1.18-3.04,2.402-4.57,3.553
		c-1.458,1.192-2.795,2.438-4.227,3.592c-1.327,1.217-2.54,2.481-3.833,3.67c-1.198,1.237-2.303,2.504-3.455,3.726
		c-4.371,4.991-7.652,10.188-10.13,15.253c-0.312,0.638-0.618,1.266-0.919,1.884c-0.153,0.312-0.304,0.621-0.455,0.928
		c-0.139,0.312-0.234,0.631-0.363,0.941c-0.493,1.267-0.967,2.487-1.423,3.659c-0.121,0.299-0.24,0.594-0.358,0.885
		c-0.103,0.296-0.18,0.594-0.271,0.888c-0.176,0.591-0.348,1.17-0.516,1.735c-0.331,1.139-0.699,2.236-1.024,3.292
		c-0.49,2.127-0.916,4.075-1.35,5.801c-0.239,0.862-0.339,1.667-0.471,2.41c-0.128,0.744-0.231,1.423-0.355,2.038
		c-0.233,1.242-0.412,2.194-0.532,2.835c-0.137,0.653-0.208,0.99-0.208,0.99l-2.604,0.424c0,0-0.149-0.313-0.439-0.921
		c-0.273-0.619-0.678-1.537-1.206-2.735c-0.271-0.604-0.539-1.287-0.849-2.043c-0.312-0.756-0.655-1.585-0.894-2.507
		c-0.542-1.835-1.147-3.98-1.735-6.438c-0.193-1.233-0.423-2.548-0.608-3.939c-0.095-0.699-0.192-1.415-0.292-2.146
		c-0.046-0.367-0.105-0.74-0.141-1.118c-0.016-0.377-0.031-0.758-0.046-1.144c-0.037-1.559-0.075-3.183-0.114-4.866
		c-0.006-0.425-0.02-0.855,0.003-1.286c0.037-0.43,0.074-0.862,0.112-1.299c0.08-0.881,0.16-1.775,0.242-2.686
		c0.746-7.269,2.975-15.595,7.263-23.759c4.268-8.157,10.457-16.057,17.965-22.89c1.906-1.644,3.831-3.379,5.872-4.934
		c1.031-0.76,2.069-1.523,3.112-2.293c1.043-0.771,2.094-1.523,3.249-2.242c1.127-0.733,2.279-1.444,3.434-2.159l1.74-1.07
		c0.571-0.335,1.069-0.588,1.609-0.887c1.059-0.581,2.128-1.153,3.209-1.718l1.768-0.938l1.602-0.81
		c4.343-2.143,8.564-4.288,12.744-6.492c4.091-2.228,7.983-4.602,11.553-7.138c3.558-2.549,6.738-5.216,9.704-8.265l1.128-1.148
		c0.389-0.381,0.677-0.823,1.027-1.235l1.039-1.259l0.53-0.637c0.169-0.218,0.307-0.454,0.464-0.682l1.895-2.788l1.647-3.042
		c0.603-1.007,0.967-2.142,1.455-3.233c0.445-1.106,0.943-2.227,1.244-3.345l1.016-3.41c0.277-1.223,0.488-2.57,0.724-3.849
		l0.306-1.941l0.077-0.485c0.004,0.009,0.018-0.19,0.013-0.012l0.017-0.121l0.032-0.243l0.131-0.974
		c0.154-1.299,0.296-2.59,0.424-3.893c0.249-2.6,0.459-5.209,0.628-7.818c0.366-5.231,0.593-10.49,1.031-15.865
		c0.442-5.363,1.172-10.875,2.525-16.285c0.367-1.332,0.696-2.702,1.118-4.018c0.438-1.304,0.87-2.624,1.331-3.928
		c0.499-1.267,1.009-2.533,1.537-3.793c0.545-1.262,1.19-2.523,1.821-3.767l0.479-0.937l0.45-0.857
		c0.279-0.527,0.568-1.046,0.858-1.561l0.873-1.537l0.22-0.381l0.11-0.19c0.216-0.27-0.408,0.47,0.5-0.629l0.045-0.078l0.365-0.613
		c0.49-0.811,0.998-1.591,1.418-2.387l0.675-1.159c0.194-0.395,0.4-0.777,0.608-1.155c1.624-3.046,2.891-5.9,3.871-8.798
		c0.989-2.891,1.549-5.865,1.857-8.925c0.62-6.108,0.079-12.512-0.679-18.426c-0.773-5.923-1.705-11.374-2.386-15.956
		c-0.698-4.586-1.169-8.31-1.409-10.881c-0.249-2.568-0.274-3.987-0.274-3.986L404.924,379.27z"/>
	<g>
		<path fill="#0F0A2B" d="M1104.233,510.611c0,0,0.222,0.043,0.65,0.128c0.43,0.108,1.033,0.206,1.873,0.466
			c0.848,0.288,1.932,0.676,3.09,1.313c1.188,0.609,2.502,1.522,3.84,2.827c1.332,1.313,2.577,3.136,3.477,5.313
			c0.886,2.182,1.366,4.663,1.512,7.134c0.303,4.958-0.57,9.891-0.731,14.217c-0.029,1.048-0.062,2.103,0.047,3.021
			c0.022,0.489,0.11,0.897,0.153,1.35c0.108,0.4,0.146,0.84,0.276,1.205c0.431,1.522,1.061,2.797,2.209,4.275l0.086,0.106
			c0.012,0.01,0.016,0.01,0.023,0.016l0.038,0.028c0.024,0.021,0.041,0.05,0.058,0.081c0.017,0.032,0.03,0.068,0.043,0.11
			c0.075,0.064,0.152,0.127,0.223,0.199c0.151,0.138,0.273,0.296,0.446,0.439l0.553,0.43c0.789,0.589,1.744,1.202,2.897,1.768
			c2.256,1.187,5.091,2.187,8.083,3.083c3.001,0.906,6.215,1.611,9.502,2.253c3.291,0.634,6.678,1.168,10.168,1.995
			c1.739,0.455,3.519,0.997,5.284,1.813c1.768,0.785,3.545,1.938,5.04,3.505c1.512,1.552,2.665,3.513,3.42,5.553
			c0.134,0.644,0.05,0.223,0.085,0.386l0.022,0.078l0.047,0.153l0.096,0.308l0.095,0.309c0.033,0.079,0.06,0.339,0.085,0.502
			c0.052,0.372,0.092,0.752,0.121,1.133c0.023,0.366,0.011,0.642,0.011,0.97c-0.01,1.274-0.229,2.445-0.487,3.514
			c-0.517,2.121-1.207,3.881-1.572,5.305c-0.217,0.729-0.306,1.328-0.357,1.856c-0.009,0.496,0.022,0.898,0.153,1.143l0.033,0.094
			l0.013,0.047c0.01,0.307-0.008-0.398,0.001-0.291l0.015,0.078l0.118,0.629l0.237,1.256c0.108,0.144,0.196,0.278,0.267,0.412
			c0.041,0.068,0.053,0.127,0.104,0.205l0.168,0.24c0.169,0.36,0.419,0.556,0.582,0.79c0.131,0.08,0.245,0.159,0.33,0.258
			c0.08,0.102,0.256,0.155,0.355,0.247c0.512,0.316,1.225,0.698,2.24,1.05c1.055,0.342,2.303,0.661,3.688,0.942
			c2.808,0.574,6.098,0.995,9.516,1.84c2.778,0.568,5.755,1.101,8.865,1.808c3.098,0.71,6.352,1.556,9.703,2.969
			c3.324,1.394,6.829,3.464,9.608,6.369c0.667,0.747,1.313,1.499,1.934,2.249c0.546,0.803,1.084,1.598,1.577,2.403
			c0.865,1.635,1.667,3.276,2.125,4.864c0.132,0.397,0.256,0.794,0.374,1.189l0.257,0.851l0.083,0.466
			c0.111,0.618,0.221,1.23,0.329,1.835c0.207,1.009,0.359,2.021,0.598,3.005c0.456,1.949,0.943,3.66,1.575,5.15
			c1.215,2.95,3.221,5.272,5.288,7.165c2.064,1.869,4.006,3.253,5.293,4.221c1.316,0.95,2.022,1.496,2.022,1.496l-0.518,1.49
			c0,0-0.892-0.036-2.572-0.177c-1.665-0.223-4.134-0.457-7.295-1.453c-1.573-0.528-3.348-1.188-5.208-2.295
			c-1.848-1.082-3.831-2.571-5.547-4.509c-1.729-1.92-3.243-4.169-4.5-6.539c-0.641-1.17-1.234-2.425-1.807-3.729
			c-0.243-0.563-0.489-1.134-0.738-1.711l-0.188-0.435c-0.087-0.26,0.092,0.292,0.064,0.224l-0.022-0.035l-0.046-0.071l-0.091-0.142
			c-0.123-0.188-0.239-0.379-0.35-0.571c-1.913-3.156-3.892-4.408-8.162-5.809c-2.118-0.662-4.712-1.261-7.591-1.929
			c-2.873-0.665-6.033-1.435-9.425-2.483c-2.701-0.967-5.793-1.76-9.305-2.967c-1.771-0.616-3.659-1.348-5.641-2.349
			c-1.99-1.045-4.148-2.45-6.019-4.489c-0.453-0.534-0.934-1.023-1.323-1.618c-0.399-0.586-0.769-1.192-1.123-1.8
			c-0.592-1.267-1.154-2.553-1.412-3.833l-0.223-0.963c-0.066-0.326-0.097-0.691-0.141-1.035c-0.077-0.698-0.138-1.395-0.178-2.083
			l0.259-3.256c0.194-1.453,0.652-2.71,1.131-3.833c0.499-1.077,1.049-2.055,1.582-2.851c1.091-1.646,2.082-2.855,2.771-3.92
			c0.329-0.524,0.603-0.997,0.767-1.416l0.131-0.298c0.023-0.044,0.059-0.09,0.104-0.143c0.015-0.048,0.065-0.003,0.058-0.134
			v-0.322l0.001-0.322l-0.001-0.161l-0.001-0.08c0.025,0.111-0.06-0.363,0.057,0.229c-0.093-1.252-0.413-2.425-1.056-3.489
			c-1.253-2.17-4.045-3.621-7-4.441c-3.004-0.83-6.236-1.098-9.476-1.07c-3.248,0.026-6.507,0.315-9.849,0.557
			c-3.344,0.222-6.753,0.387-10.408-0.109c-1.813-0.223-3.702-0.714-5.602-1.446l-1.422-0.635c-0.473-0.229-0.946-0.518-1.416-0.783
			l-0.696-0.421l-0.8-0.605l-0.782-0.633l-0.381-0.327l-0.185-0.162l-0.1-0.095c-2.916-2.723-5.029-6.671-5.77-10.521
			c-0.845-3.871-0.475-7.326-0.035-10.255c0.534-2.912,1.227-5.383,1.889-7.563c0.636-2.188,1.233-4.061,1.61-5.729
			c0.78-3.322,0.808-5.728,0.046-8.013c-0.767-2.245-2.168-4.09-3.068-5.272c-0.48-0.632-0.968-1.096-1.236-1.425
			c-0.28-0.334-0.425-0.507-0.425-0.507L1104.233,510.611z"/>
	</g>
	<path fill="none" stroke="#FFB640" stroke-width="2" stroke-miterlimit="10" d="M669.656,529.909c0,0-42.079,32.155-46.002,58.47
		c-3.922,26.314-4.292,33.166-2.699,48.514c1.592,15.347,13.525,24.783,16.014,15.489c2.487-9.294,5.364-30.631,14.673-49.462
		c9.308-18.831,7.771-19.154,20.079-47.17C684.028,527.731,680.694,520.681,669.656,529.909z"/>
	<path fill="none" stroke="#FFB640" stroke-width="2" stroke-miterlimit="10" d="M678.274,527.101c0,0-25.957,34.388-34.937,56.753
		c-8.98,22.364-15.253,52.227-14.434,61.06"/>
	<g>
		<path fill="#FFB640" d="M561.333,617.333c4.333-2,9.333-6.333,14.333-6.333c2.333,0,3.333,1.667,5.667,2
			c3.667,0.333,5-1.667,8-3.333c5.667-3.667,7-2.334,12.333,0c6.333,3,10-1,16.667-2C624,607,628.667,612.333,634,611
			c6-1.333,7.333-6.333,14.333-2.667c6.333,3,6.333,3,13,2.667c6.333-0.667,27.333,3.667,32,7.334c3.667,2.333-11,5.666-19,6.666
			c-7,1-15.667-1.333-22.667-1.667C644.333,623.333,637,624,630,624c-5,0-8-1.667-12.667-3.333c-8-2.334-18-2.334-26-1
			c-7,1.333-14,0.666-21,2.333"/>
	</g>
	<path fill="none" stroke="#FFB640" stroke-width="2" stroke-miterlimit="10" d="M647,551.667
		c-3.333-10-11.333-17.333-17.333-25.333c-8-10.667-14.667-18-16.667,0c-0.667,15.333,6.667,35.333,16.667,46.666"/>
	<path fill="none" stroke="#FFB640" stroke-width="2" stroke-miterlimit="10" d="M617.333,516.334
		c2.333,7.668,3.873,16.185,7,23.333c4.667,10.667,8.667,14,14,20.667"/>
	<path fill="none" stroke="#FFB640" stroke-width="2" stroke-miterlimit="10" d="M617.333,613.001c-0.667-7-5.333-14-8.667-20
		c-3.667-7.334-7.333-14.667-11-22c-4-8.334-10-15.667-13.667-24.334c-2.333-6-3.333-12-5.333-18c-1.667-5-4.667-9.666-8.667-3
		c-2,3.667-1,10-1,14c0.333,14,4,28.667,9.667,41.667c7.667,17.667,19,29.333,31,44"/>
	<path fill="none" stroke="#FFB640" stroke-width="2" stroke-miterlimit="10" d="M574,523.001c-0.333,19.333,7.667,37,15.667,54.333
		c7,14,18,25.333,25.333,39"/>
	<g>
		<path fill="#EBEDE4" d="M777.334,620.001c5.666-1.667,11.333-4.334,17-5.334c7-1,12.333,0.667,19-2.333c8-3.667,14.666-8,24-6.667
			c4.666,0.667,7.333,1,12,1c5.666-0.333,8.666,3,14,3c4.333,0,8.333-1,12.333-0.333c2.667,0.333,5,1.667,7.333,1.667
			c4.667,0,9-2,13.334-1c5,1,8.666,3.333,13.666,3.333c4.667,0,8-2.667,12-3.333c4-0.667,7.667,2,11.334,2
			c3-0.334,3.333-2.334,5.666-3c3.334-0.667,10,1,13.667,1.666c5.667,1,10.667,3,17,2.667c10.333-1.333,17.333,1,27.667,2.667
			c6.333,1.333,13,1,19.333,2.333c4,0.667,6.667,2,9.667-0.333c3-2,1-4.667,5.666-6c5.667-1.334,12.334,2,17.667,3
			c4,1,9.667,0,12.333,3.333c1.667,2,2,8.333,2.334,10.667c-14.667,2.333-31,3-46,3.666c-14.334,0.667-28.667,1.667-43,1.667
			c-24.334,0-49-4-73.334-5c-21.666-1-43.333-1-64.666-2c-14-0.333-27.667-1-41.334,0.667c-13.666,1.666-27.333,2.666-41,2"/>
	</g>
	<path fill="#FFB640" d="M1773.772,234.57c-0.283-0.908-1.881-6.479,0.76-8.84l-1.826-2.043c-3.661,3.274-2.209,9.467-1.653,11.361
		c-1.457,0.429-2.851,1.157-4.005,2.362c-2.79,2.913-8.467,7.593-12.096,10.511c2.971-12.644,4.44-31.391,4.519-32.412l-2.732-0.21
		c-0.012,0.153-0.584,7.458-1.693,15.956c-1.036-0.506-2.59-1.329-3.61-2.162c-0.55-0.449-2.598-2.723-5.863-13.141l-2.615,0.82
		c1.718,5.479,4.283,12.434,6.746,14.443c1.574,1.285,4.021,2.461,4.956,2.889c-1.211,8.566-2.942,17.656-5.178,21.57
		c-4.548,7.963-28.779,13.155-34.541,12.5c-0.361-0.041-0.739-0.021-1.125,0.024c-0.447-6.265-2.404-34.019-2.828-45.53
		c-0.481-13.158,0.684-24.41,1.745-31.533c0.666-4.47,5.389-6.707,9.557-8.681c1.865-0.884,3.627-1.718,4.906-2.706
		c4.187-3.229,8.899-13.734,9.099-14.18l-2.504-1.116c-1.275,2.86-5.247,10.796-8.269,13.127c-0.72,0.556-1.728,1.095-2.843,1.646
		c-0.771-2.084-2.261-6.871-2.831-14.031l-2.732,0.218c0.618,7.755,2.251,12.843,3.077,15.005
		c-4.36,2.088-9.348,4.793-10.171,10.314c-0.78,5.23-1.61,12.662-1.828,21.423c-1.661-0.532-5.935-2.077-9.886-4.994
		c-3.078-2.272-3.277-3.018-4.385-7.149c-0.608-2.269-1.441-5.377-3.114-10.057l-2.58,0.922c1.635,4.575,2.451,7.621,3.047,9.845
		c0.573,2.14,0.961,3.579,1.666,4.829c-1.677-0.006-4.583-0.465-8.012-2.932l-1.602,2.225c4.003,2.881,7.534,3.441,9.68,3.441
		c1.087,0,1.813-0.143,2.069-0.203c0.459,0.404,0.981,0.825,1.603,1.283c5.22,3.854,10.792,5.455,11.465,5.639
		c-0.022,2.502,0.007,5.093,0.104,7.767c0.201,5.478,0.748,14.606,1.315,23.366c-1.084,0.305-6.504,1.782-11.821,2.313
		c-1.716-3.939-3.346-8.127-3.36-9.012l-1.369-0.059l-1.368-0.074c-0.079,1.428,1.739,5.963,3.188,9.325
		c-1.699,0.034-3.297-0.075-4.629-0.413c-5.827-1.473-9.199-6.322-12.46-11.011c-0.346-0.497-0.688-0.99-1.032-1.476l-2.238,1.582
		c0.34,0.48,0.679,0.967,1.021,1.459c3.384,4.864,7.219,10.378,14.037,12.102c1.394,0.354,3.007,0.496,4.708,0.496
		c6.038,0,13.162-1.799,15.508-2.439c0.623,9.48,1.229,17.975,1.387,20.186c-1.101,0.594-2.253,1.445-3.438,2.578
		c-5.192,4.964-10.458,14.527-10.021,20.851c0.032,0.468,0.068,1.009,0.106,1.598c-7.97-6.197-34.88-27.013-41.831-30.982
		c-2.118-1.209-4.088-2.211-5.993-3.104c2.531-1.478,6.228-3.852,7.263-5.666c1.627-2.844,1.134-8.859-0.377-12.136l-2.488,1.147
		c1.274,2.766,1.529,7.805,0.485,9.629c-0.747,1.309-4.972,3.988-7.986,5.629c-1.71-0.734-3.396-1.415-5.119-2.109
		c-2.471-0.996-5.026-2.026-7.756-3.272c-7.477-3.411-19.178-15.787-21.912-19.887l-2.279,1.521
		c2.743,4.113,13.415,15.488,21.363,19.985c-0.907,0.878-2.19,1.993-3.41,2.604c-1.317,0.658-6.542,0.093-16.862-6.784l-1.52,2.28
		c7.291,4.859,13.316,7.455,17.146,7.455c0.965,0,1.791-0.166,2.462-0.501c1.905-0.954,3.797-2.757,4.781-3.777
		c2.439,1.089,4.74,2.021,6.963,2.918c4.526,1.825,8.802,3.548,13.881,6.448c3.716,2.123,13.644,9.463,23.1,16.631
		c-1.161,1.241-2.664,2.831-3.135,3.258c-0.149,0.084-1.717,0.783-11.155-0.625l-0.404,2.71c4.4,0.657,7.313,0.909,9.282,0.909
		c2.522,0,3.494-0.413,4.053-0.912c0.654-0.588,2.435-2.475,3.554-3.674c8.762,6.666,16.631,12.792,18.132,13.963
		c0.773,12.022,2.154,32.631,4.231,38.444c1.883,5.267,0.798,33.507,0.221,43.944l2.736,0.15c0.086-1.555,2.077-38.154-0.377-45.018
		c-2.023-5.663-3.466-28.168-4.159-38.982c-0.102-1.587-0.188-2.941-0.26-3.982c-0.38-5.475,4.533-14.24,9.18-18.682
		c1.991-1.902,3.839-2.912,5.039-2.775c3.412,0.387,14.567-1.314,23.955-4.891c1.079,4.367,3.803,14.676,5.944,16.727
		c2.461,2.359,11.586,4.168,13.391,4.508l0.506-2.693c-3.868-0.727-10.547-2.399-12-3.793c-1.189-1.139-3.55-8.724-5.275-15.795
		c4.836-2.113,8.906-4.765,10.712-7.926c0.678-1.188,1.308-2.789,1.893-4.658c2.114-1.658,11.303-8.923,15.274-13.07
		c3.708-3.872,11.63-1.031,11.71-1.002l0.947-2.571C1781.438,235.645,1777.73,234.308,1773.772,234.57z"/>
	<g>
		<path fill="none" stroke="#EBEDE4" stroke-width="2" stroke-miterlimit="10" d="M1498.733,508.02c0,0-1.964,25.618-5.903,32.516
			c-3.939,6.899-23.871,10.996-28.495,10.467c-4.623-0.53-12.956,11.6-12.5,18.194c0.455,6.592,1.676,29.102,3.57,34.406
			c1.896,5.306,0.237,35.319,0.237,35.319"/>
		<path fill="none" stroke="#EBEDE4" stroke-width="2" stroke-miterlimit="10" d="M1517.079,525.182c0,0-6.974-2.575-10.459,1.064
			c-3.484,3.639-12.351,10.538-12.351,10.538"/>
		<path fill="none" stroke="#EBEDE4" stroke-width="2" stroke-miterlimit="10" d="M1487.744,508.781
			c1.746,5.569,3.565,9.774,5.006,10.95c1.439,1.175,3.979,2.272,3.979,2.272"/>
		<path fill="none" stroke="#EBEDE4" stroke-width="2" stroke-miterlimit="10" d="M1480.421,468.006c0,0-3.75,8.415-6.896,10.842
			c-3.144,2.426-11.025,3.904-11.896,9.741s-1.778,14.817-1.396,25.239c0.383,10.421,2.32,37.213,2.32,37.213"/>
		<path fill="none" stroke="#EBEDE4" stroke-width="2" stroke-miterlimit="10" d="M1444.273,488.178
			c3.791,10.608,2.125,11.064,6.332,14.171c4.208,3.105,8.793,4.317,8.793,4.317"/>
		<path fill="none" stroke="#EBEDE4" stroke-width="2" stroke-miterlimit="10" d="M1467.271,468.238
			c0.647,8.11,2.73,12.467,2.73,12.467"/>
		<path fill="none" stroke="#EBEDE4" stroke-width="2" stroke-miterlimit="10" d="M1381.869,522.904
			c2.274,3.41,11.712,13.375,17.853,16.177c6.139,2.803,10.99,4.166,17.357,7.802c6.367,3.637,34.832,25.875,34.832,25.875"/>
		<path fill="none" stroke="#EBEDE4" stroke-width="2" stroke-miterlimit="10" d="M1433.216,524.787
			c2.92,4.129,5.801,8.941,11.335,10.342c5.532,1.4,16.104-1.709,16.104-1.709"/>
		<path fill="none" stroke="#EBEDE4" stroke-width="2" stroke-miterlimit="10" d="M1447.049,527.057
			c-0.075,1.364,3.337,8.942,3.337,8.942"/>
		<path fill="none" stroke="#EBEDE4" stroke-width="2" stroke-miterlimit="10" d="M1417.34,529.794
			c1.1,2.386,1.405,6.783,0.343,8.64c-1.06,1.856-7.123,5.079-7.123,5.079"/>
		<path fill="none" stroke="#EBEDE4" stroke-width="2" stroke-miterlimit="10" d="M1484.002,546.754c0,0,2.884,12.2,4.703,13.942
			c1.819,1.744,10.081,3.295,10.081,3.295"/>
		<path fill="none" stroke="#EBEDE4" stroke-width="2" stroke-miterlimit="10" d="M1381.227,536.963
			c7.392,4.927,12.509,6.439,14.479,5.454c1.969-0.986,4.016-3.336,4.016-3.336"/>
		<path fill="none" stroke="#EBEDE4" stroke-width="2" stroke-miterlimit="10" d="M1510.183,523.706c0,0-2.011-5.723,0.87-8.299"/>
		<path fill="none" stroke="#EBEDE4" stroke-width="2" stroke-miterlimit="10" d="M1439.994,498.751
			c4.737,3.409,8.488,2.385,8.488,2.385"/>
		<path fill="none" stroke="#EBEDE4" stroke-width="2" stroke-miterlimit="10" d="M1423.374,564.2
			c5.836,0.871,8.981,0.907,9.701,0.264c0.721-0.646,3.486-3.639,3.486-3.639"/>
	</g>
	<g>
		<path fill="#0F0A2B" d="M121.999,705.749c0,0-0.022-0.237-0.065-0.696c-0.055-0.443-0.032-1.174-0.211-1.972
			c-0.23-1.604-0.778-3.996-1.92-6.834c-1.077-2.889-2.896-6.206-4.562-10.813c-0.417-1.161-0.774-2.418-1.08-3.779
			c-0.122-0.698-0.311-1.377-0.373-2.131c-0.038-0.372-0.077-0.747-0.115-1.124l-0.028-0.284l-0.007-0.071
			c-0.004,0.023,0.007-0.469,0.002-0.288l-0.003-0.118l-0.01-0.475c-0.007-0.316-0.014-0.636-0.021-0.957
			c-0.006-0.322-0.022-0.623,0.008-1.049c0.041-0.786,0.088-1.617,0.177-2.398c0.109-0.761,0.2-1.537,0.338-2.314
			c0.168-0.77,0.301-1.563,0.517-2.34c1.642-6.282,5.345-12.321,9.835-17.188c2.229-2.481,4.659-4.735,7.069-6.968
			c2.43-2.224,4.827-4.458,6.983-6.938c2.17-2.468,4.006-5.257,5.245-8.379c0.588-1.567,1.068-3.198,1.323-4.887l0.1-0.55
			l0.05-0.677c0.02-0.434,0.098-0.945,0.067-1.312l-0.021-1.188l-0.137-1.27c-0.426-3.411-1.595-6.856-2.66-10.504
			c-0.527-1.837-1.01-3.745-1.331-5.769c-0.306-2.032-0.377-4.196-0.088-6.394l0.291-1.646l0.295-1.403l0.294-1.365
			c0.152-0.508,0.374-1.084,0.571-1.626c0.208-0.546,0.418-1.11,0.645-1.644l0.73-1.438c0.253-0.473,0.483-0.979,0.762-1.426
			l0.853-1.337c2.337-3.534,5.186-6.405,7.946-8.96c2.77-2.554,5.477-4.86,7.747-7.19c2.278-2.319,4.091-4.636,5.163-6.883
			l0.113-0.208l0.057-0.104l0.029-0.052c0.056-0.117-0.388,0.862-0.187,0.41l0.222-0.609l0.443-1.217
			c0.106-0.251,0.051-0.264,0.075-0.384l0.033-0.285c0.017-0.093,0.038-0.184,0.062-0.274l0.039-0.136l0.018-0.205
			c0.037-0.556,0.158-1.076,0.117-1.675c-0.005-0.292,0.014-0.572,0-0.872c-0.035-0.309-0.048-0.617-0.069-0.925
			c-0.007-0.599-0.169-1.295-0.234-1.935c-0.137-0.692-0.259-1.356-0.417-2.081c-0.297-1.439-0.667-2.929-1.054-4.54
			c-0.197-0.766-0.367-1.652-0.54-2.468c-0.159-0.87-0.324-1.735-0.45-2.645c-0.106-0.943-0.249-1.825-0.268-2.837
			c-0.021-0.492-0.044-0.974-0.04-1.468c0.033-0.514,0.066-1.026,0.099-1.535l0.06-0.76c0.036-0.258,0.089-0.521,0.135-0.78
			c0.102-0.517,0.204-1.031,0.305-1.544l0.041-0.19c0.093-0.392,0.038-0.146,0.063-0.251l0.021-0.065l0.083-0.263l0.167-0.523
			l0.336-1.038l0.17-0.514l0.286-0.686c0.204-0.46,0.407-0.918,0.608-1.374c0.208-0.448,0.415-0.909,0.631-1.326
			c0.225-0.365,0.448-0.729,0.67-1.091c0.86-1.488,1.894-2.691,2.854-3.91c1.022-1.101,2.021-2.202,3.047-3.103
			c2.017-1.912,4.01-3.405,5.847-4.813c3.69-2.738,6.815-4.931,9.256-6.908c2.466-1.956,4.121-3.741,5.286-5
			c1.041-1.316,1.646-2.049,1.646-2.049l1.055,0.473c0,0-0.245,0.914-0.797,2.684c-0.351,0.833-0.78,1.895-1.382,3.087
			c-0.312,0.587-0.658,1.216-1.044,1.882c-0.391,0.659-0.849,1.315-1.316,2.039c-1.893,2.848-4.568,5.993-7.514,9.374
			c-1.444,1.691-2.983,3.465-4.356,5.319c-0.739,0.918-1.307,1.896-1.975,2.846c-0.533,0.98-1.136,1.961-1.516,2.968l-0.339,0.745
			l-0.176,0.629c-0.06,0.205-0.125,0.406-0.195,0.605c-0.035,0.107-0.073,0.183-0.109,0.315l-0.101,0.533l-0.21,1.07l-0.108,0.538
			l-0.055,0.27l-0.014,0.068c0.016-0.06-0.055,0.229,0.032-0.116l-0.001,0.081c-0.004,0.219-0.014,0.435-0.031,0.648l-0.025,0.323
			l0.028,0.361l0.035,0.72l0.115,0.801c0.039,0.514,0.205,1.14,0.315,1.728c0.139,0.614,0.322,1.27,0.498,1.932
			c0.207,0.705,0.415,1.415,0.624,2.13c0.845,2.975,1.989,6.38,2.337,10.586c0.038,0.525,0.083,1.053,0.107,1.582
			c0.011,0.54-0.02,1.103-0.034,1.654c0.004,1.097-0.199,2.251-0.362,3.388c-0.194,1.137-0.65,2.664-1.021,3.696l-0.513,1.188
			l-0.258,0.597c0.18-0.402-0.279,0.63-0.253,0.558l-0.053,0.089l-0.105,0.178l-0.212,0.355c-2.218,3.892-5.21,6.889-8.161,9.417
			c-2.974,2.531-5.977,4.683-8.794,6.814c-2.815,2.13-5.487,4.185-7.718,6.459l-0.84,0.854c-0.28,0.287-0.492,0.598-0.746,0.896
			l-0.745,0.911l-0.567,0.853c-0.193,0.296-0.404,0.541-0.608,0.886l-0.582,1.27c-0.184,0.41-0.409,0.878-0.56,1.24l-0.437,1.035
			c-0.496,1.424-0.803,2.985-0.89,4.648c-0.045,1.669,0.097,3.412,0.347,5.182c0.517,3.555,1.494,7.18,1.924,11.023l0.129,1.45
			l0.049,1.538c0.033,0.542-0.028,0.933-0.039,1.404l-0.034,0.678l-0.088,0.794l-0.159,1.423c-0.063,0.473-0.162,0.94-0.242,1.41
			c-0.13,0.948-0.369,1.87-0.574,2.803c-0.918,3.694-2.322,7.263-4.016,10.561c-3.402,6.63-7.714,12.188-11.374,17.006
			c-1.848,2.419-3.524,4.694-4.938,6.911c-1.397,2.229-2.51,4.419-3.29,6.617c-0.182,0.555-0.362,1.103-0.54,1.645
			c-0.159,0.55-0.28,1.103-0.425,1.646c-0.123,0.53-0.184,1.012-0.306,1.514c-0.063,0.218-0.095,0.562-0.131,0.881
			c-0.037,0.319-0.074,0.636-0.11,0.951l-0.054,0.472l-0.014,0.117c-0.006,0.22,0-0.232,0-0.17l-0.001,0.046l-0.006,0.185
			l-0.029,0.735c-0.048,0.482,0.01,1.003,0.004,1.498c0.04,1.011,0.177,2.033,0.31,3.062c0.645,4.122,1.639,8.19,1.86,11.667
			c0.289,3.491-0.075,6.247-0.58,8.1c-0.208,0.942-0.491,1.519-0.637,1.967c-0.167,0.43-0.254,0.651-0.254,0.651L121.999,705.749z"
			/>
	</g>
	<g>
		<path fill="#EBEDE4" d="M1297.119,683.821c-7.278-13.85,1.671-29.465-7.096-42.571c-5.348-7.744-11.443-13.257-11.803-23.304
			c-0.512-7.366,5.228-15.62,2.706-22.171c-3.191-7.519-10.779-8.57-11.141-18.616c0.083-6.92,5.896-14.651,4.416-21.351
			c-1.033-7.293-9.811-9.238-12.481-16.831c-1.185-4.614,2.543-12.051,0.391-15.997c-6.09-9.235-11.165,3.707-9.238,9.811
			c1.333,5.657,6.688,9.682,8.093,15.858c2.739,11.835-7.99,22.389-4.061,35.117c2.596,7.073,8.916,10.429,11.96,16.905
			c2.896,5.436,2.22,11.908,1.469,17.859c-0.753,5.954-2.62,11.531-0.766,17.114c1.928,6.104,7.279,10.128,9.656,15.638
			c3.115,6.998,2.733,15.555,3.767,22.848c1.476,10.42,7.723,13.254,11.655,22.264"/>
	</g>
	<g>
		<g>
			<path fill="#EBEDE4" d="M1443.664,377.5c3.225,0,3.225-5,0-5S1440.439,377.5,1443.664,377.5L1443.664,377.5z"/>
		</g>
	</g>
	<g>
		<g>
			<path fill="#EBEDE4" d="M1480.331,414.167c3.225,0,3.225-5,0-5S1477.106,414.167,1480.331,414.167L1480.331,414.167z"/>
		</g>
	</g>
	<g>
		<g>
			<path fill="#EBEDE4" d="M1323.668,352.835c3.225,0,3.225-5,0-5S1320.443,352.835,1323.668,352.835L1323.668,352.835z"/>
		</g>
	</g>
</g>
<g id="Layer_4">
	<g>
		<g>
			<g>
				<path fill="#EBEDE4" d="M1007.906,541.671c10.361,9.504,9.282,25.646,6.217,38.135c-3.876,15.789-14.239,28.839-21.271,43.237
					c-0.429,0.88,0.885,1.652,1.316,0.77c7.695-15.761,18.604-29.736,22.245-47.226c2.518-12.094,2.317-27.053-7.43-35.994
					C1008.262,539.93,1007.181,541.005,1007.906,541.671L1007.906,541.671z"/>
			</g>
		</g>
		<g>
			<g>
				<path fill="#EBEDE4" d="M991.072,545.856c8.498-0.137,17.06,1.309,20.315,10.218c1.747,4.781,1.545,10.598,1.545,15.626
					c-0.001,6.282-0.827,12.55-2.479,18.607c-0.26,0.949,1.211,1.352,1.469,0.404c1.701-6.234,2.405-12.559,2.533-19.012
					c0.109-5.512,0.201-12.178-2.088-17.34c-3.843-8.668-12.659-10.167-21.296-10.027
					C990.091,544.349,990.089,545.873,991.072,545.856L991.072,545.856z"/>
			</g>
		</g>
		<g>
			<g>
				<path fill="#EBEDE4" d="M1001.691,554.928c6.219,11.16,4.77,23.937,1.053,35.674c-1.915,6.051-4.078,11.915-6.554,17.762
					c-2.046,4.832-5.463,8.966-7.605,13.766c-0.396,0.89,0.916,1.665,1.316,0.77c2.604-5.834,6.394-10.977,8.929-16.866
					c2.534-5.886,4.534-12.009,6.338-18.152c3.27-11.14,3.61-23.364-2.16-33.722C1002.529,553.3,1001.213,554.068,1001.691,554.928
					L1001.691,554.928z"/>
			</g>
		</g>
		<g>
			<g>
				<path fill="#EBEDE4" d="M993.431,567.698c7.765,4.283,11.503,11.697,9.708,20.476c-0.196,0.959,1.272,1.367,1.469,0.404
					c1.929-9.43-2.011-17.563-10.407-22.196C993.339,565.907,992.57,567.224,993.431,567.698L993.431,567.698z"/>
			</g>
		</g>
		<g>
			<g>
				<path fill="#EBEDE4" d="M988.585,589.98c8.607,11.645,5.062,25.511-0.076,37.817c-0.379,0.906,1.097,1.298,1.469,0.404
					c5.298-12.688,8.757-27.04-0.076-38.991C989.324,588.43,988,589.188,988.585,589.98L988.585,589.98z"/>
			</g>
		</g>
		<circle fill="#FF5E52" cx="992.901" cy="566.126" r="2.744"/>
		<circle fill="#FF5E52" cx="1001.436" cy="553.629" r="2.743"/>
		<circle fill="#FF5E52" cx="989.853" cy="588.681" r="2.743"/>
		<circle fill="#FF5E52" cx="989.243" cy="545.095" r="2.743"/>
		<circle fill="#FF5E52" cx="1008.445" cy="540.827" r="2.743"/>
	</g>
</g>
<g id="bubbles">
	<g opacity="0.4">
		<circle fill="none" stroke="#EBEDE4" stroke-width="1.4" stroke-miterlimit="10" cx="452" cy="299.052" r="6.052"/>
		<circle fill="none" stroke="#EBEDE4" stroke-width="1.4" stroke-miterlimit="10" cx="504.235" cy="270.387" r="6.052"/>
		<circle fill="none" stroke="#EBEDE4" stroke-width="1.4" stroke-miterlimit="10" cx="445.311" cy="228.025" r="4.778"/>
		<circle fill="none" stroke="#EBEDE4" stroke-width="1.4" stroke-miterlimit="10" cx="517.931" cy="243.313" r="2.389"/>
		<circle fill="none" stroke="#EBEDE4" stroke-width="1.4" stroke-miterlimit="10" cx="486.24" cy="212.1" r="2.389"/>
		<circle fill="none" stroke="#EBEDE4" stroke-width="1.4" stroke-miterlimit="10" cx="464.9" cy="282.808" r="2.389"/>
		<circle fill="none" stroke="#EBEDE4" stroke-width="1.4" stroke-miterlimit="10" cx="433.208" cy="251.595" r="2.389"/>
		<circle fill="none" stroke="#EBEDE4" stroke-width="1.4" stroke-miterlimit="10" cx="487.354" cy="253.665" r="2.389"/>
	</g>
	<g opacity="0.5">
		<circle fill="none" stroke="#EBEDE4" stroke-width="1.4" stroke-miterlimit="10" cx="966.277" cy="161.666" r="6.052"/>
		<circle fill="none" stroke="#EBEDE4" stroke-width="1.4" stroke-miterlimit="10" cx="837.354" cy="119.304" r="4.777"/>
		<circle fill="none" stroke="#EBEDE4" stroke-width="1.4" stroke-miterlimit="10" cx="909.974" cy="134.592" r="2.389"/>
		<circle fill="none" stroke="#EBEDE4" stroke-width="1.4" stroke-miterlimit="10" cx="878.282" cy="103.378" r="2.389"/>
		<circle fill="none" stroke="#EBEDE4" stroke-width="1.4" stroke-miterlimit="10" cx="825.25" cy="142.874" r="2.389"/>
	</g>
	<circle opacity="0.4" fill="#EBEDE4" cx="425.573" cy="187.433" r="2.667"/>
	<circle fill="#EBEDE4" cx="1090" cy="381.666" r="2.666"/>
	<circle fill="#EBEDE4" cx="1110" cy="348.666" r="2.666"/>
	<circle fill="#EBEDE4" cx="1126" cy="249.666" r="2.666"/>
	<circle fill="#EBEDE4" cx="594" cy="497.666" r="2.666"/>
	<circle fill="#EBEDE4" cx="647" cy="505.666" r="2.666"/>
	<circle fill="#EBEDE4" cx="625" cy="443.666" r="2.666"/>
</g>
</svg>
