<?xml version="1.0" encoding="utf-8"?>
<!-- Generator: Adobe Illustrator 16.0.0, SVG Export Plug-In . SVG Version: 6.00 Build 0)  -->
<!DOCTYPE svg PUBLIC "-//W3C//DTD SVG 1.1//EN" "http://www.w3.org/Graphics/SVG/1.1/DTD/svg11.dtd">
<svg version="1.1" id="Layer_1" xmlns="http://www.w3.org/2000/svg" xmlns:xlink="http://www.w3.org/1999/xlink" x="0px" y="0px"
	 width="1201px" height="616px" viewBox="146 0 1201 616" enable-background="new 146 0 1201 616" xml:space="preserve">
<g id="Layer_3">
</g>
<radialGradient id="SVGID_1_" cx="98.0359" cy="685.5354" r="690.9606" gradientTransform="matrix(1.9125 0 0 1.5636 579.8164 241.7104)" gradientUnits="userSpaceOnUse">
	<stop  offset="0.6059" style="stop-color:#FFE5FF"/>
	<stop  offset="1" style="stop-color:#FFFFFF;stop-opacity:0"/>
</radialGradient>
<path opacity="0.3" fill="url(#SVGID_1_)" enable-background="new    " d="M2285.949,1313.615
	c0,596.913-679.92,1080.804-1518.64,1080.804c-838.722,0-1518.641-483.892-1518.641-1080.804
	c0-596.909,679.917-1080.805,1518.641-1080.805C1606.029,232.81,2285.949,716.705,2285.949,1313.615z"/>
<path opacity="0.07" fill="none" stroke="#8594FF" stroke-width="0.8667" stroke-miterlimit="10" enable-background="new    " d="
	M1737.166,891.686c-214.758-272.521-573.608-451.097-980.048-451.097c-406.438,0-765.291,178.574-980.049,451.097H1737.166z"/>
<path opacity="0.1" fill="none" stroke="#7676FF" stroke-width="1.0311" stroke-miterlimit="10" enable-background="new    " d="
	M1893.172,924.68C1644.23,591.908,1228.254,373.853,757.118,373.853S-129.994,591.908-378.938,924.68H1893.172z"/>
<path opacity="0.1" fill="none" stroke="#7676FF" stroke-width="1.3557" stroke-miterlimit="10" enable-background="new    " d="
	M2157.92,1039.836c-309.383-462.863-826.348-766.162-1411.867-766.162c-585.521,0-1102.484,303.299-1411.868,766.162H2157.92z"/>
<path opacity="0.07" fill="none" stroke="#EBEDE4" stroke-width="1.7556" stroke-miterlimit="10" enable-background="new    " d="
	M2515,1175.041C2128.891,553.092,1483.717,145.548,752.986,145.548c-730.729,0-1375.904,407.544-1762.016,1029.493H2515z"/>
<path fill="#EBEDE4" d="M1625.156,863.897c-190.143-215.942-507.86-357.443-867.711-357.443S79.876,647.954-110.266,863.897
	H1625.156z"/>
<ellipse fill="#DFE0DA" cx="705.174" cy="633.353" rx="57.539" ry="22.823"/>
<path fill="#C3C4BB" d="M705.646,610.532c-0.953,0-1.899,0.011-2.841,0.026c30.458,0.59,45.323,10.998,43.979,23.131
	c-0.71,6.406-13.521,21.869-43.979,22.458c0.941,0.019,1.888,0.027,2.841,0.027c31.779,0,57.54-10.218,57.54-22.822
	C763.186,620.75,737.426,610.532,705.646,610.532z"/>
<ellipse transform="matrix(-0.971 -0.2389 0.2389 -0.971 1846.9097 1386.0892)" fill="#DFE0DA" cx="1007.45" cy="581.124" rx="32.228" ry="11.339"/>
<ellipse transform="matrix(-0.997 -0.0774 0.0774 -0.997 1695.2058 1292.3918)" fill="#DFE0DA" cx="872.648" cy="613.344" rx="25.43" ry="12.704"/>
<ellipse transform="matrix(-0.9461 -0.324 0.324 -0.9461 2033.2438 1521.6686)" fill="#DFE0DA" cx="1143.293" cy="591.577" rx="15.397" ry="7.692"/>
<ellipse transform="matrix(-0.9918 0.128 -0.128 -0.9918 1194.9917 1053.5685)" fill="#DFE0DA" cx="563.644" cy="565.18" rx="34.727" ry="13.935"/>
<path fill="#C3C4BB" d="M598.5,562.003c-1.229-7.397-17.641-11.847-36.662-9.933c-1.344,0.134-2.661,0.3-3.954,0.489
	c18.107-1.391,25.794,4.964,26.975,12.086c0,0-3.668,11.907-20.692,14.396c0.701-0.054,1.404-0.113,2.114-0.186
	C585.302,576.948,599.726,569.401,598.5,562.003z"/>
<ellipse transform="matrix(-0.9991 0.0416 -0.0416 -0.9991 1558.7861 1040.7592)" fill="#DFE0DA" cx="768.563" cy="536.6" rx="25.303" ry="10.153"/>
<path fill="#C3C4BB" d="M794.069,536.442c-0.425-5.447-12.059-9.712-25.987-9.521c-0.982,0.012-1.95,0.05-2.9,0.104
	c13.232,0.133,18.411,5.23,18.818,10.477c0,0-3.414,8.411-15.93,9.145c0.514,0.005,1.027,0.006,1.547-0.001
	C783.545,546.457,794.492,541.889,794.069,536.442z"/>
<path fill="#EBEDE4" d="M349.982,566.617c20.801-15.601,23.4-23.4,39.001-23.4c15.6,0,31.201-7.801,45.935-10.4
	c14.734-2.6,33.802-0.866,50.27-5.2c16.467-4.333,34.668-7.8,52.869-8.667c18.2-0.866,56.335-7.8,78.002-6.934
	c21.668,0.867,37.268,5.2,37.268,5.2s-257.41,44.202-278.211,50.269c-20.8,6.067-55.469,10.4-68.469,19.934
	c-13,9.534-35.535,16.47-35.535,16.47L349.982,566.617z"/>
<path fill="#EBEDE4" d="M713.996,507.778c7.667-1.271,12.366-4.824,15.582-7.873c3.214-3.049,6.678-6.604,8.902-6.604
	c2.226,0,5.193,1.271,8.409,1.523c3.215,0.253,7.667-0.509,12.614-0.763c4.945-0.254,8.408-2.032,9.645-2.285
	c1.237-0.254,3.711-0.509,7.668,3.812c3.957,4.316,7.913,8.128,12.117,8.89c4.205,0.762,23,6.094,23,6.094L713.996,507.778z"/>
<path fill="#EBEDE4" d="M1043.343,537.151c9.823,1.443,14.733,0.867,18.78,1.443c4.043,0.578,10.978,3.179,15.601,4.334
	c4.621,1.156,10.978,2.023,19.934,4.334c8.956,2.31,21.089,7.221,29.757,9.243c8.667,2.023,17.623,4.334,25.424,8.38
	c7.801,4.044,8.666,5.486,15.022,7.8C1174.216,574.995,1043.343,537.151,1043.343,537.151z"/>
<path fill="#EBEDE4" d="M914.783,515.771c9.244,0.579,19.646-1.156,29.178,0c9.534,1.157,20.513-1.156,24.559,1.733
	c4.044,2.89,7.222,4.047,10.688,5.489c3.468,1.444,4.622,4.91,9.822,5.777c5.201,0.866-69.335-8.087-78.579-10.111
	c-9.247-2.022-23.69-4.911-23.69-4.911s9.244-2.602,12.712-1.444C902.936,513.461,914.783,515.771,914.783,515.771z"/>
<path fill="#EBEDE4" d="M1192.127,582.796c6.933,0.577,10.979,0.865,17.046,0.865c6.066,0,8.954,0.867,10.688,2.023
	c1.733,1.154,2.89,2.022,7.224,2.601c4.332,0.576,4.046,2.021,10.4,5.2c6.355,3.177,10.979,8.377,16.178,11.556"/>
<path fill="#C3C4BB" d="M1010.549,570.455c-0.512-0.126-10.431-2.067-10.938-2.185c16.234,4.317,26.622,10.344,27.813,17.525
	c0.521,3.148-7.441,9.936-23.816,6.184c0.503,0.132,1.008,0.264,1.518,0.388c17.014,4.211,32.018,2.721,33.514-3.332
	C1040.136,582.986,1027.56,574.664,1010.549,570.455z"/>
<path fill="#C3C4BB" d="M875.723,600.652c-0.402-0.036-8.214-0.163-8.614-0.188c12.882,1.469,21.409,6.021,22.96,13.73
	c0.681,3.381-4.854,12.521-17.792,11.703c0.398,0.047,0.797,0.088,1.204,0.123c13.469,1.192,24.892-3.521,25.511-10.527
	C899.611,608.488,889.194,601.843,875.723,600.652z"/>
<path fill="#EBEDE4" d="M700.706,510.282c-10.109-1.733-11.554-4.624-15.311-5.201c-3.756-0.577-8.09-2.311-10.113-0.865
	c-2.022,1.441-6.066,2.888-6.354,3.754c-0.29,0.867-6.935,2.313-8.667,2.601C658.528,510.86,700.706,510.282,700.706,510.282z"/>
<g id="Layer_8">
	<polygon fill="#657BE5" points="621.093,460.126 553.302,484.569 528.683,491.676 526.913,494.084 556.637,560.17 653.024,526.461 
			"/>
	<path fill="#918C81" d="M694.091,528.71c0,0-8.521,3.48-15.482,4.508l-21.745-2.493l-83.695,29.267l-14.762-2.229l0.782,4.098
		l34.36,6.183l101.794-35.323L694.091,528.71z"/>
	<polygon fill="#0D0D3F" points="528.683,491.676 622.862,457.717 654.794,524.055 558.406,557.761 	"/>
	<polygon fill="#394CD3" points="533.986,494.215 620.39,463.029 648.099,520.613 559.781,551.578 	"/>
	<polygon fill="#657BE5" points="533.986,494.215 616.485,531.677 559.781,551.578 	"/>
	<polygon fill="#FFFFFF" points="558.406,557.761 654.794,524.055 694.56,528.62 592.764,563.942 	"/>
	<polygon fill="#DFE0DA" points="618.842,548.184 640.927,540.033 649.288,541.323 626.346,549.684 	"/>
</g>
<g id="Layer_5_1_">
	<g opacity="0.5">
		
			<ellipse transform="matrix(-0.1154 0.9933 -0.9933 -0.1154 1389.6735 -556.3304)" fill="#FFE576" cx="942.569" cy="340.653" rx="1.786" ry="2.384"/>
		
			<linearGradient id="SVGID_2_" gradientUnits="userSpaceOnUse" x1="-609.8181" y1="-36.1672" x2="-691.7498" y2="-36.1672" gradientTransform="matrix(0.9936 0.1132 0.1132 -0.9936 1635.1875 383.1947)">
			<stop  offset="0" style="stop-color:#FFFFFF;stop-opacity:0"/>
			<stop  offset="1" style="stop-color:#FFFFFF"/>
		</linearGradient>
		<polygon opacity="0.8" fill="url(#SVGID_2_)" enable-background="new    " points="943.943,339.308 1025.344,348.618 
			1025.005,351.615 943.605,342.305 		"/>
	</g>
</g>
<g id="Layer_7">
	
		<ellipse transform="matrix(-0.971 -0.2389 0.2389 -0.971 1619.7112 1307.9929)" fill="#DFE0DA" cx="889.128" cy="555.832" rx="36.986" ry="13.015"/>
	<polygon fill="#2E3FBC" points="881.383,557.934 878.153,555.095 901.996,460.035 908.738,461.728 	"/>
	<polygon fill="#4861D8" points="888.601,557.715 881.382,557.933 905.705,460.967 912.446,462.657 	"/>
	<path fill="#E0402F" d="M953.683,489.365l5.833-23.247l0.428-1.706c3.325-13.25-4.723-26.688-17.973-30.013l-52.31-13.122
		l-12.279,48.949l28.998,7.273L953.683,489.365z"/>
	<path fill="#BF2519" d="M900.81,475.848c0.311-0.843,0.584-1.709,0.807-2.603l5.537-22.073
		c3.326-13.252-4.723-26.689-17.975-30.016c-13.25-3.322-26.688,4.724-30.014,17.977l-5.537,22.076
		c-0.224,0.891-0.392,1.784-0.516,2.674L900.81,475.848z"/>
	<polygon fill="#CACCC0" points="867.214,437.237 866.736,466.218 900.278,474.732 907.168,447.261 	"/>
	<polygon fill="#EBEDE4" points="872.01,433.442 872.255,467.731 900.718,474.868 907.493,448.879 907.53,442.609 	"/>
	<path opacity="0.5" fill="#840A07" enable-background="new    " d="M889.179,421.156c-2.063-0.518-4.126-0.758-6.156-0.748
		c9.695,5.255,15,16.575,12.193,27.767l-5.538,22.077c-0.226,0.891-0.498,1.758-0.811,2.601l11.941,2.995
		c0.311-0.843,0.584-1.709,0.807-2.603l5.537-22.073C910.48,437.919,902.432,424.483,889.179,421.156z"/>
	<path fill="none" stroke="#E0402F" stroke-width="1.4843" stroke-miterlimit="10" d="M900.509,476.028
		c0.313-0.841,0.588-1.708,0.811-2.602l5.536-22.074c3.327-13.253-4.723-26.689-17.976-30.014
		c-13.25-3.325-26.688,4.723-30.013,17.974l-5.537,22.075c-0.226,0.894-0.394,1.787-0.515,2.678L900.509,476.028z"/>
	<polygon fill="#BF2519" points="916.758,480.091 956.485,477.751 953.341,490.291 	"/>
	
		<rect x="850.594" y="476.767" transform="matrix(0.9699 0.2433 -0.2433 0.9699 143.5096 -205.8965)" fill="#E0402F" width="109.331" height="2.474"/>
	<path fill="#BF2519" d="M901.416,478.455l-1.221-2.034l-10.687-2.524l-0.591,1.498l-34.9-8.734c0,0-12.479,17.212-14.612,20.949
		c-2.132,3.737-0.827,14.089,7.766,20.152c9.585,6.763,26.174,6.563,34.984-1.48c2.247-2.053,16.8-24.146,18.919-27.372
		C901.285,478.631,901.416,478.455,901.416,478.455z"/>
	<path fill="#E0402F" d="M852.957,462.889l47.32,11.843c0,0-16.76,25.563-19.186,27.778c-8.813,8.045-25.399,8.243-34.983,1.479
		c-8.595-6.063-9.897-16.413-7.766-20.15C840.477,480.1,852.957,462.889,852.957,462.889z"/>
	<polygon fill="#2E3FBC" points="876.259,437.969 883.736,439.844 884,448.5 876.343,446.834 	"/>
	<polygon fill="#FFB640" points="937.295,419.008 928.127,416.707 925.392,416.022 924.672,415.841 909.199,477.512 
		912.656,478.378 926.594,422.819 935.76,425.117 	"/>
</g>
<g id="Layer_6">
	<g>
		<path fill="none" stroke="#EBEDE4" stroke-width="1.0874" stroke-miterlimit="10" d="M1194.369,533.367
			c0,0-28.081,6.363-35.979,18.48c-7.899,12.116-9.633,15.419-12.321,23.366c-2.688,7.945,1.071,15.313,4.407,11.282
			c3.333-4.029,9.587-13.925,18.454-21.124c8.864-7.198,8.179-7.706,20.606-18.766
			C1201.967,535.546,1201.916,531.308,1194.369,533.367z"/>
		<path fill="none" stroke="#EBEDE4" stroke-width="1.0874" stroke-miterlimit="10" d="M1199.263,533.932
			c0,0-20.617,11.117-30.121,20.139c-9.504,9.02-19.368,22.356-20.963,26.908"/>
		<path fill="none" stroke="#EBEDE4" stroke-width="1.0874" stroke-miterlimit="10" d="M1178.243,538.99
			c0.618-5.695-1.676-11.132-2.829-16.443c-1.537-7.085-3.174-12.222-8.237-3.775c-3.804,7.427-4.708,18.973-2.331,26.839"/>
		<path fill="none" stroke="#EBEDE4" stroke-width="1.0874" stroke-miterlimit="10" d="M1171.584,514.81
			c-0.586,4.315-1.752,8.876-1.824,13.116c-0.11,6.329,1.111,8.882,2.238,13.387"/>
		<path fill="none" stroke="#EBEDE4" stroke-width="1.0874" stroke-miterlimit="10" d="M1149.689,562.586
			c1.255-3.61,0.533-8.127,0.245-11.849c-0.15-4.457-0.303-8.909-0.452-13.364c-0.091-5.026-1.395-10.01-1.244-15.123
			c0.204-3.493,1.069-6.687,1.44-10.104c0.308-2.85-0.118-5.834-3.605-3.445c-1.817,1.359-2.758,4.715-3.664,6.692
			c-3.007,6.994-4.516,15.075-4.66,22.784c-0.21,10.468,2.748,18.801,5.356,28.77"/>
		<path fill="none" stroke="#EBEDE4" stroke-width="1.0874" stroke-miterlimit="10" d="M1148.656,508.286
			c-4.543,9.481-4.591,20.025-4.563,30.404c0.288,8.505,3.159,16.597,3.687,25.013"/>
	</g>
</g>
</svg>
