<?xml version="1.0" encoding="utf-8"?>
<!-- Generator: Adobe Illustrator 16.0.0, SVG Export Plug-In . SVG Version: 6.00 Build 0)  -->
<!DOCTYPE svg PUBLIC "-//W3C//DTD SVG 1.1//EN" "http://www.w3.org/Graphics/SVG/1.1/DTD/svg11.dtd">
<svg version="1.1" xmlns="http://www.w3.org/2000/svg" xmlns:xlink="http://www.w3.org/1999/xlink" x="0px" y="0px" width="1525px"
	 height="616px" viewBox="0 0 1525 616" enable-background="new 0 0 1525 616" xml:space="preserve">
<g id="Layer_1">
</g>
<g id="Layer_2_1_">
	
		<radialGradient id="SVGID_1_" cx="333.5618" cy="733.8586" r="797.2226" gradientTransform="matrix(1.9125 0 0 1.5636 136.5906 219.9108)" gradientUnits="userSpaceOnUse">
		<stop  offset="0.6059" style="stop-color:#FFE5FF"/>
		<stop  offset="1" style="stop-color:#FFFFFF;stop-opacity:0"/>
	</radialGradient>
	<path opacity="0.3" fill="url(#SVGID_1_)" enable-background="new    " d="M2526.72,1367.386
		c0,688.72-784.492,1247.032-1752.208,1247.032c-967.717,0-1752.208-558.313-1752.208-1247.032
		c0-688.715,784.49-1247.033,1752.208-1247.033C1742.228,120.353,2526.72,678.671,2526.72,1367.386z"/>
	<path opacity="0.07" fill="none" stroke="#8594FF" stroke-miterlimit="10" d="M1893.534,880.563
		c-247.788-314.435-661.832-520.475-1130.781-520.475c-468.95,0-882.993,206.04-1130.782,520.475H1893.534z"/>
	<path opacity="0.1" fill="none" stroke="#7676FF" stroke-width="1.1897" stroke-miterlimit="10" d="M2073.534,918.632
		c-287.23-383.951-767.184-635.544-1310.781-635.544S-260.797,534.681-548.03,918.632H2073.534z"/>
	<path opacity="0.1" fill="none" stroke="#7676FF" stroke-width="1.5642" stroke-miterlimit="10" d="M2379,1051.5
		c-356.965-534.052-953.44-884-1629.014-884s-1272.048,349.948-1629.016,884H2379z"/>
	<path opacity="0.07" fill="none" stroke="#EBEDE4" stroke-width="2.0256" stroke-miterlimit="10" d="M2791,1207.5
		C2345.507,489.894,1601.103,19.668,757.986,19.668S-829.533,489.894-1275.03,1207.5H2791z"/>
	<path fill="#EBEDE4" d="M1764.296,848.5C1544.91,599.346,1178.326,436.083,763.13,436.083
		c-415.196,0-781.78,163.263-1001.166,412.417H1764.296z"/>
	<ellipse fill="#DFE0DA" cx="702.819" cy="582.5" rx="66.389" ry="26.333"/>
	<path fill="#C3C4BB" d="M703.365,556.169c-1.1,0-2.192,0.012-3.279,0.032c35.143,0.679,52.295,12.689,50.744,26.687
		c-0.82,7.393-15.601,25.234-50.744,25.912c1.087,0.021,2.179,0.033,3.279,0.033c36.666,0,66.389-11.79,66.389-26.333
		C769.755,567.959,740.031,556.169,703.365,556.169z"/>
	<g id="Layer_3">
	</g>
	
		<ellipse transform="matrix(0.971 0.2389 -0.2389 0.971 155.2074 -236.0819)" fill="#DFE0DA" cx="1051.564" cy="522.27" rx="37.184" ry="13.084"/>
	
		<ellipse transform="matrix(0.971 0.2389 -0.2389 0.971 151.5044 -252.5287)" fill="#DFE0DA" cx="1117.564" cy="498.77" rx="37.184" ry="13.084"/>
	
		<ellipse transform="matrix(0.997 0.0773 -0.0773 0.997 45.923 -67.5904)" fill="#DFE0DA" cx="896.033" cy="559.397" rx="29.341" ry="14.658"/>
	
		<ellipse transform="matrix(0.9461 0.324 -0.324 0.9461 238.2754 -362.6329)" fill="#DFE0DA" cx="1208.241" cy="534.302" rx="17.764" ry="8.875"/>
	
		<ellipse transform="matrix(0.9918 -0.128 0.128 0.9918 -60.0702 73.2287)" fill="#DFE0DA" cx="539.498" cy="503.807" rx="40.066" ry="16.078"/>
	<path fill="#C3C4BB" d="M579.739,500.175c-1.416-8.535-20.354-13.667-42.3-11.459c-1.55,0.155-3.07,0.347-4.563,0.565
		c20.894-1.605,29.761,5.727,31.124,13.944c0,0-4.232,13.739-23.874,16.61c0.809-0.062,1.621-0.131,2.439-0.213
		C564.511,517.418,581.155,508.71,579.739,500.175z"/>
	<path fill="#EBEDE4" d="M293,505.5c24-18,27-27,45-27s36-9,53-12s39-1,58-6s40-9,61-10s65-9,90-8s43,6,43,6s-297,51-321,58
		s-64,12-79,23s-41,19-41,19L293,505.5z"/>
	<path fill="#EBEDE4" d="M713,437.61c8.846-1.466,14.268-5.567,17.978-9.084c3.709-3.517,7.704-7.62,10.272-7.62
		s5.992,1.466,9.702,1.759c3.71,0.292,8.846-0.587,14.553-0.88c5.707-0.292,9.701-2.345,11.129-2.637
		c1.427-0.293,4.281-0.587,8.847,4.396s9.13,9.378,13.981,10.257S826,440.833,826,440.833L713,437.61z"/>
	<path fill="#EBEDE4" d="M1093,471.5c11.334,1.667,17,1.001,21.667,1.667s12.667,3.667,18,5s12.667,2.334,23,5
		S1180,491.499,1190,493.833s20.334,5,29.334,9.667s10,6.333,17.333,9S1093,471.5,1093,471.5z"/>
	<path fill="#EBEDE4" d="M944.667,446.833c10.667,0.667,22.667-1.334,33.667,0s23.666-1.334,28.333,2s8.333,4.668,12.333,6.334
		s5.334,5.666,11.334,6.666s-80-9.332-90.667-11.666s-27.333-5.667-27.333-5.667S923,441.499,927,442.833
		S944.667,446.833,944.667,446.833z"/>
	<path fill="#EBEDE4" d="M1264.666,524.166c8,0.667,12.667,1,19.667,1s10.333,1.001,12.333,2.334s3.334,2.334,8.334,3
		s4.667,2.334,12,6s12.666,9.666,18.666,13.333"/>
	<path fill="#C3C4BB" d="M1055.161,509.929c-0.589-0.146-12.035-2.387-12.621-2.521c18.732,4.982,30.717,11.934,32.092,20.221
		c0.603,3.634-8.585,11.464-27.479,7.134c0.58,0.154,1.162,0.304,1.751,0.449c19.629,4.858,36.941,3.137,38.668-3.846
		C1089.301,524.384,1074.79,514.786,1055.161,509.929z"/>
	<path fill="#C3C4BB" d="M899.601,544.769c-0.465-0.042-9.478-0.189-9.939-0.219c14.862,1.695,24.702,6.948,26.49,15.844
		c0.785,3.9-5.599,14.445-20.527,13.503c0.458,0.054,0.92,0.101,1.388,0.142c15.541,1.376,28.721-4.063,29.435-12.146
		C927.162,553.809,915.143,546.143,899.601,544.769z"/>
	<path fill="#EBEDE4" d="M697.666,440.5c-11.667-2-13.333-5.333-17.667-6s-9.333-2.666-11.667-1s-7,3.333-7.333,4.333s-8,2.667-10,3
		S697.666,440.5,697.666,440.5z"/>
</g>
<g id="Layer_8">
	<polygon fill="#657BE5" points="459.583,411.721 406.891,430.721 387.754,436.245 386.379,438.117 409.483,489.486 
		484.404,463.284 	"/>
	<path fill="#918C81" d="M516.325,465.032c0,0-6.624,2.706-12.035,3.505l-16.903-1.939l-65.056,22.749l-11.474-1.733l0.608,3.184
		l26.707,4.805l79.125-27.457L516.325,465.032z"/>
	<polygon fill="#0D0D3F" points="387.754,436.245 460.958,409.849 485.779,461.414 410.857,487.614 	"/>
	<polygon fill="#394CD3" points="391.877,438.218 459.038,413.978 480.576,458.739 411.926,482.807 	"/>
	<polygon fill="#657BE5" points="391.877,438.218 456.002,467.337 411.926,482.807 	"/>
	<polygon fill="#FFFFFF" points="410.857,487.614 485.779,461.414 516.689,464.961 437.564,492.418 	"/>
	<polygon fill="#DFE0DA" points="457.833,480.168 475,473.834 481.5,474.835 463.667,481.334 	"/>
</g>
<g id="Layer_4_1_">
</g>
<g id="Layer_5_1_">
	<g opacity="0.5">
		
			<ellipse transform="matrix(0.1151 -0.9934 0.9934 0.1151 621.1808 1186.8976)" fill="#FFE576" cx="976.752" cy="244.803" rx="2.062" ry="2.75"/>
		
			<linearGradient id="SVGID_2_" gradientUnits="userSpaceOnUse" x1="-17.6995" y1="118.7341" x2="-112.2327" y2="118.7341" gradientTransform="matrix(0.9936 0.1132 0.1132 -0.9936 1076.1813 375.6576)">
			<stop  offset="0" style="stop-color:#FFFFFF;stop-opacity:0"/>
			<stop  offset="1" style="stop-color:#FFFFFF"/>
		</linearGradient>
		<polygon opacity="0.8" fill="url(#SVGID_2_)" enable-background="new    " points="978.313,243.23 1072.231,253.973 
			1071.84,257.431 977.922,246.688 		"/>
	</g>
</g>
<g id="Layer_7">
	<polygon fill="#2E3FBC" points="1109.677,500.911 1106.431,498.056 1130.402,402.496 1137.179,404.197 	"/>
	<polygon fill="#4861D8" points="1116.935,500.691 1109.676,500.91 1134.13,403.431 1140.907,405.131 	"/>
	<path fill="#E0402F" d="M1182.363,431.98l5.862-23.37l0.431-1.715c3.342-13.321-4.748-26.829-18.068-30.172l-52.586-13.191
		l-12.344,49.208l29.152,7.312L1182.363,431.98z"/>
	<path fill="#BF2519" d="M1129.208,418.391c0.313-0.848,0.588-1.719,0.813-2.615l5.566-22.192
		c3.342-13.322-4.748-26.83-18.07-30.173c-13.321-3.341-26.829,4.748-30.171,18.07l-5.567,22.193
		c-0.225,0.896-0.394,1.795-0.518,2.689L1129.208,418.391z"/>
	<polygon fill="#CACCC0" points="1095.433,379.576 1094.955,408.709 1128.674,417.268 1135.6,389.653 	"/>
	<polygon fill="#EBEDE4" points="1100.257,375.76 1100.502,410.231 1129.115,417.408 1135.927,391.28 1135.963,384.975 	"/>
	<path opacity="0.5" fill="#840A07" d="M1117.517,363.41c-2.072-0.52-4.147-0.762-6.189-0.752
		c9.748,5.282,15.079,16.663,12.257,27.913l-5.567,22.193c-0.225,0.896-0.5,1.767-0.813,2.615l12.003,3.011
		c0.313-0.848,0.588-1.719,0.813-2.615l5.566-22.192C1138.929,380.261,1130.84,366.753,1117.517,363.41z"/>
	<path fill="none" stroke="#E0402F" stroke-width="1.4921" stroke-miterlimit="10" d="M1128.905,418.572
		c0.315-0.847,0.591-1.718,0.815-2.616l5.566-22.192c3.343-13.322-4.748-26.83-18.071-30.172
		c-13.321-3.342-26.83,4.748-30.171,18.069l-5.567,22.193c-0.226,0.897-0.395,1.795-0.517,2.691L1128.905,418.572z"/>
	<polygon fill="#BF2519" points="1145.24,422.656 1185.179,420.303 1182.016,432.912 	"/>
	
		<rect x="1078.737" y="419.298" transform="matrix(0.9699 0.2433 -0.2433 0.9699 136.3876 -263.1968)" fill="#E0402F" width="109.92" height="2.488"/>
	<path fill="#BF2519" d="M1129.817,421.013l-1.227-2.047l-10.743-2.537l-0.593,1.506l-35.084-8.78c0,0-12.546,17.302-14.69,21.059
		s-0.833,14.162,7.805,20.258c9.636,6.799,26.311,6.6,35.17-1.487c2.26-2.064,16.889-24.275,19.019-27.517
		C1129.686,421.188,1129.817,421.013,1129.817,421.013z"/>
	<path fill="#E0402F" d="M1081.102,405.364l47.571,11.904c0,0-16.848,25.699-19.287,27.925c-8.859,8.088-25.533,8.287-35.169,1.487
		c-8.639-6.095-9.95-16.5-7.805-20.257C1068.556,422.665,1081.102,405.364,1081.102,405.364z"/>
	<polygon fill="#2E3FBC" points="1104.527,380.311 1112.044,382.196 1112.31,390.898 1104.611,389.224 	"/>
	<polygon fill="#FFB640" points="1165.885,361.25 1156.669,358.938 1153.921,358.248 1153.195,358.066 1137.642,420.063 
		1141.118,420.934 1155.129,365.082 1164.343,367.393 	"/>
</g>
<g id="Layer_6">
	<g>
		<path fill="none" stroke="#EBEDE4" stroke-width="1.2546" stroke-miterlimit="10" d="M1267.254,467.137
			c0,0-32.399,7.341-41.513,21.322s-11.115,17.792-14.217,26.961c-3.103,9.167,1.237,17.667,5.085,13.018
			c3.847-4.65,11.063-16.066,21.293-24.373c10.229-8.307,9.437-8.892,23.776-21.651
			C1276.019,469.65,1275.96,464.759,1267.254,467.137z"/>
		<path fill="none" stroke="#EBEDE4" stroke-width="1.2546" stroke-miterlimit="10" d="M1272.902,467.787
			c0,0-23.788,12.827-34.754,23.235c-10.966,10.406-22.347,25.796-24.188,31.048"/>
		<path fill="none" stroke="#EBEDE4" stroke-width="1.2546" stroke-miterlimit="10" d="M1248.648,473.623
			c0.713-6.573-1.934-12.845-3.265-18.975c-1.774-8.174-3.661-14.099-9.505-4.355c-4.387,8.569-5.431,21.891-2.689,30.967"/>
		<path fill="none" stroke="#EBEDE4" stroke-width="1.2546" stroke-miterlimit="10" d="M1240.963,445.723
			c-0.674,4.981-2.021,10.241-2.104,15.135c-0.127,7.303,1.284,10.248,2.583,15.444"/>
		<path fill="none" stroke="#EBEDE4" stroke-width="1.2546" stroke-miterlimit="10" d="M1215.703,500.848
			c1.448-4.166,0.616-9.377,0.283-13.67c-0.174-5.141-0.35-10.28-0.523-15.42c-0.104-5.799-1.609-11.548-1.435-17.448
			c0.235-4.032,1.234-7.715,1.662-11.659c0.355-3.287-0.136-6.731-4.159-3.975c-2.098,1.568-3.183,5.44-4.229,7.722
			c-3.469,8.07-5.21,17.394-5.376,26.288c-0.243,12.078,3.171,21.691,6.181,33.193"/>
		<path fill="none" stroke="#EBEDE4" stroke-width="1.2546" stroke-miterlimit="10" d="M1214.51,438.199
			c-5.242,10.939-5.297,23.104-5.264,35.08c0.333,9.813,3.645,19.149,4.254,28.86"/>
	</g>
</g>
</svg>
