<?xml version="1.0" encoding="utf-8"?>
<!-- Generator: Adobe Illustrator 16.0.0, SVG Export Plug-In . SVG Version: 6.00 Build 0)  -->
<!DOCTYPE svg PUBLIC "-//W3C//DTD SVG 1.1//EN" "http://www.w3.org/Graphics/SVG/1.1/DTD/svg11.dtd">
<svg version="1.1" id="Layer_1" xmlns="http://www.w3.org/2000/svg" xmlns:xlink="http://www.w3.org/1999/xlink" x="0px" y="0px"
	 width="1525px" height="616px" viewBox="0 0 1525 616" enable-background="new 0 0 1525 616" xml:space="preserve">
<g id="Layer_1_1_">
</g>
<radialGradient id="SVGID_1_" cx="-129.9495" cy="725.1702" r="797.2315" gradientTransform="matrix(1.9125 0 0 1.5636 1023.042 263.5112)" gradientUnits="userSpaceOnUse">
	<stop  offset="0.6059" style="stop-color:#FFE5FF"/>
	<stop  offset="1" style="stop-color:#FFFFFF;stop-opacity:0"/>
</radialGradient>
<path opacity="0.3" fill="url(#SVGID_1_)" enable-background="new    " d="M2526.72,1397.386
	c0,688.72-784.492,1247.032-1752.208,1247.032c-967.721,0-1752.208-558.313-1752.208-1247.032
	c0-688.715,784.486-1247.033,1752.208-1247.033C1742.228,150.353,2526.72,708.671,2526.72,1397.386z"/>
<path opacity="0.07" fill="none" stroke="#8594FF" stroke-miterlimit="10" enable-background="new    " d="M1893.535,910.563
	c-247.789-314.435-661.832-520.475-1130.778-520.475c-468.95,0-882.993,206.04-1130.782,520.475H1893.535z"/>
<path opacity="0.1" fill="none" stroke="#7676FF" stroke-width="1.1897" stroke-miterlimit="10" enable-background="new    " d="
	M2073.534,948.632c-287.229-383.951-767.184-635.544-1310.78-635.544c-543.598,0-1023.551,251.593-1310.78,635.544H2073.534z"/>
<path opacity="0.1" fill="none" stroke="#7676FF" stroke-width="1.5642" stroke-miterlimit="10" enable-background="new    " d="
	M2379,1081.5c-356.965-534.056-953.438-884-1629.014-884s-1272.048,349.944-1629.016,884H2379z"/>
<path fill="#EBEDE4" d="M1764.3,878.5c-219.39-249.154-585.974-412.421-1001.166-412.421c-415.196,0-781.78,163.267-1001.17,412.421
	H1764.3z"/>
<ellipse fill="#DFE0DA" cx="702.819" cy="612.499" rx="66.39" ry="26.333"/>
<path fill="#C3C4BB" d="M703.365,586.169c-1.1,0-2.188,0.012-3.275,0.028c35.143,0.683,52.295,12.689,50.74,26.688
	c-0.816,7.393-15.601,25.23-50.74,25.912c1.087,0.021,2.179,0.029,3.275,0.029c36.666,0,66.389-11.788,66.389-26.331
	C769.759,597.959,740.031,586.169,703.365,586.169z"/>
<g id="Layer_3">
</g>
<ellipse transform="matrix(0.971 0.2389 -0.2389 0.971 162.3933 -235.2251)" fill="#DFE0DA" cx="1051.547" cy="552.292" rx="37.178" ry="13.08"/>
<ellipse transform="matrix(0.971 0.2389 -0.2389 0.971 158.705 -251.6904)" fill="#DFE0DA" cx="1117.584" cy="528.818" rx="37.178" ry="13.082"/>
<ellipse transform="matrix(0.997 0.0773 -0.0773 0.997 48.2421 -67.5007)" fill="#DFE0DA" cx="896.034" cy="589.397" rx="29.341" ry="14.658"/>
<ellipse transform="matrix(0.9461 0.324 -0.324 0.9461 248.0005 -361.0218)" fill="#DFE0DA" cx="1208.242" cy="564.299" rx="17.768" ry="8.875"/>
<ellipse transform="matrix(0.9918 -0.128 0.128 0.9918 -63.8934 73.4438)" fill="#DFE0DA" cx="539.476" cy="533.839" rx="40.07" ry="16.08"/>
<path fill="#C3C4BB" d="M579.739,530.175c-1.416-8.535-20.354-13.667-42.3-11.459c-1.55,0.151-3.07,0.347-4.563,0.563
	c20.894-1.604,29.761,5.729,31.124,13.944c0,0-4.232,13.739-23.874,16.609c0.809-0.063,1.617-0.134,2.438-0.216
	C564.511,547.418,581.155,538.71,579.739,530.175z"/>
<path fill="#EBEDE4" d="M293,535.5c24-18,27-27,45-27s36-9,53-12s39-1,58-6s40-9,61-10s65-9,90-8s43,6,43,6s-297,51-321,58
	s-64,12-79,23s-41,19-41,19L293,535.5z"/>
<path fill="#EBEDE4" d="M713,467.61c8.85-1.466,14.271-5.563,17.979-9.084c3.709-3.517,7.704-7.62,10.271-7.62
	c2.568,0,5.992,1.466,9.702,1.759c3.71,0.292,8.85-0.587,14.557-0.88c5.707-0.292,9.698-2.345,11.129-2.637
	c1.427-0.293,4.278-0.587,8.847,4.396c4.566,4.979,9.13,9.378,13.981,10.257c4.85,0.879,26.534,7.028,26.534,7.028L713,467.61z"/>
<path fill="#EBEDE4" d="M1093,501.5c11.334,1.663,17,1.001,21.668,1.663c4.666,0.666,12.666,3.671,18,5
	c5.332,1.337,12.666,2.337,23,5C1166,515.829,1180,521.495,1190,523.829c10,2.337,20.334,5,29.334,9.671c9,4.663,10,6.329,17.334,9
	C1244,545.166,1093,501.5,1093,501.5z"/>
<path fill="#EBEDE4" d="M944.668,476.829c10.666,0.671,22.666-1.334,33.666,0c11,1.335,23.666-1.334,28.334,2
	c4.666,3.335,8.332,4.671,12.332,6.335c4,1.666,5.334,5.665,11.334,6.665s-80-9.329-90.666-11.665
	c-10.668-2.335-27.334-5.664-27.334-5.664S923,471.495,927,472.829C931,474.164,944.668,476.829,944.668,476.829z"/>
<path fill="#EBEDE4" d="M1264.666,554.166c8,0.666,12.668,1,19.668,1s10.332,1,12.332,2.334c2,1.329,3.334,2.334,8.334,3
	s4.668,2.334,12,6c7.334,3.666,12.666,9.666,18.666,13.329"/>
<path fill="#C3C4BB" d="M1055.161,539.929c-0.589-0.146-12.034-2.391-12.62-2.521c18.731,4.982,30.72,11.938,32.095,20.225
	c0.603,3.634-8.585,11.464-27.479,7.134c0.58,0.15,1.162,0.304,1.751,0.448c19.629,4.855,36.941,3.138,38.668-3.849
	C1089.302,554.384,1074.791,544.782,1055.161,539.929z"/>
<path fill="#C3C4BB" d="M899.601,574.769c-0.465-0.042-9.479-0.189-9.939-0.219c14.862,1.691,24.702,6.944,26.49,15.844
	c0.785,3.9-5.599,14.445-20.527,13.503c0.459,0.054,0.92,0.101,1.392,0.142c15.541,1.376,28.721-4.063,29.435-12.146
	C927.162,583.809,915.143,576.143,899.601,574.769z"/>
<path fill="#EBEDE4" d="M697.666,470.5c-11.666-2-13.329-5.337-17.666-6c-4.334-0.671-9.334-2.666-11.668-1
	c-2.334,1.662-7,3.329-7.332,4.329c-0.334,1-8,2.671-10,3C649,471.163,697.666,470.5,697.666,470.5z"/>
<g id="Layer_8">
	<polygon fill="#657BE5" points="459.584,441.721 406.891,460.721 387.754,466.241 386.379,468.115 409.483,519.486 
		484.404,493.281 	"/>
	<path fill="#918C81" d="M516.325,495.031c0,0-6.624,2.706-12.034,3.505l-16.9-1.938l-65.059,22.749l-11.475-1.733l0.604,3.188
		l26.711,4.805l79.125-27.457L516.325,495.031z"/>
	<polygon fill="#0D0D3F" points="387.754,466.241 460.959,439.849 485.779,491.41 410.857,517.614 	"/>
	<polygon fill="#394CD3" points="391.877,468.218 459.038,443.978 480.576,488.739 411.927,512.807 	"/>
	<polygon fill="#657BE5" points="391.877,468.218 456.006,497.337 411.927,512.807 	"/>
	<polygon fill="#FFFFFF" points="410.857,517.614 485.779,491.41 516.689,494.961 437.564,522.418 	"/>
	<polygon fill="#DFE0DA" points="457.834,510.168 475,503.834 481.5,504.835 463.668,511.334 	"/>
</g>
<g id="Layer_4_1_">
</g>
<g id="Layer_5_1_">
	<g opacity="0.5">
		
			<ellipse transform="matrix(0.2643 -0.9645 0.9645 0.2643 559.6592 1361.3522)" fill="#FFE576" cx="1172.099" cy="313.859" rx="2.062" ry="2.752"/>
		
			<linearGradient id="SVGID_2_" gradientUnits="userSpaceOnUse" x1="-920.6501" y1="-97.7502" x2="-1015.1833" y2="-97.7503" gradientTransform="matrix(0.965 0.2624 0.2624 -0.965 2178.7107 486.2797)">
			<stop  offset="0" style="stop-color:#FFFFFF;stop-opacity:0"/>
			<stop  offset="1" style="stop-color:#FFFFFF"/>
		</linearGradient>
		<polygon opacity="0.8" fill="url(#SVGID_2_)" enable-background="new    " points="1173.871,312.526 1265.078,337.368 
			1264.171,340.728 1172.964,315.885 		"/>
	</g>
</g>
<g id="Layer_7">
	<polygon fill="#2E3FBC" points="1109.677,530.907 1106.431,528.056 1130.402,432.492 1137.179,434.197 	"/>
	<polygon fill="#4861D8" points="1116.935,530.691 1109.677,530.906 1134.134,433.431 1140.907,435.131 	"/>
	<path fill="#E0402F" d="M1182.363,461.98l5.862-23.37l0.431-1.715c3.346-13.321-4.748-26.829-18.064-30.172l-52.586-13.191
		l-12.348,49.208l29.152,7.313L1182.363,461.98z"/>
	<path fill="#BF2519" d="M1129.209,448.391c0.313-0.848,0.591-1.719,0.813-2.615l5.566-22.188
		c3.342-13.322-4.748-26.83-18.07-30.177c-13.321-3.341-26.829,4.748-30.171,18.07l-5.567,22.193
		c-0.225,0.896-0.394,1.795-0.518,2.688L1129.209,448.391z"/>
	<polygon fill="#CACCC0" points="1095.433,409.573 1094.955,438.709 1128.677,447.268 1135.6,419.653 	"/>
	<polygon fill="#EBEDE4" points="1100.26,405.76 1100.502,440.231 1129.115,447.406 1135.927,421.28 1135.967,414.975 	"/>
	<path opacity="0.5" fill="#840A07" enable-background="new    " d="M1117.517,393.406c-2.072-0.52-4.147-0.762-6.189-0.752
		c9.748,5.282,15.079,16.663,12.261,27.913l-5.567,22.193c-0.226,0.896-0.5,1.767-0.813,2.614l12.005,3.012
		c0.313-0.852,0.588-1.721,0.813-2.615l5.566-22.192C1138.929,410.261,1130.844,396.753,1117.517,393.406z"/>
	<path fill="none" stroke="#E0402F" stroke-width="1.4921" stroke-miterlimit="10" d="M1128.905,448.572
		c0.315-0.847,0.591-1.718,0.815-2.616l5.563-22.188c3.346-13.322-4.748-26.83-18.067-30.172
		c-13.321-3.343-26.83,4.748-30.171,18.065l-5.567,22.193c-0.226,0.896-0.396,1.795-0.517,2.691L1128.905,448.572z"/>
	<polygon fill="#BF2519" points="1145.24,452.656 1185.179,450.303 1182.016,462.908 	"/>
	
		<rect x="1078.743" y="449.288" transform="matrix(0.97 0.2433 -0.2433 0.97 143.6724 -262.2797)" fill="#E0402F" width="109.92" height="2.49"/>
	<path fill="#BF2519" d="M1129.817,451.013l-1.227-2.047l-10.743-2.537l-0.594,1.506l-35.084-8.78c0,0-12.549,17.306-14.689,21.063
		s-0.833,14.162,7.805,20.258c9.64,6.799,26.313,6.6,35.17-1.487c2.264-2.063,16.893-24.271,19.021-27.517
		C1129.686,451.188,1129.817,451.013,1129.817,451.013z"/>
	<path fill="#E0402F" d="M1081.102,435.364l47.571,11.904c0,0-16.852,25.699-19.287,27.925c-8.859,8.088-25.533,8.287-35.169,1.487
		c-8.64-6.095-9.95-16.5-7.806-20.257C1068.556,452.661,1081.102,435.364,1081.102,435.364z"/>
	<polygon fill="#2E3FBC" points="1104.527,410.311 1112.048,412.196 1112.31,420.898 1104.611,419.224 	"/>
	<polygon fill="#FFB640" points="1165.885,391.25 1156.673,388.938 1153.925,388.244 1153.195,388.066 1137.642,450.063 
		1141.118,450.934 1155.133,395.078 1164.344,397.393 	"/>
</g>
<g id="Layer_6">
	<g>
		<path fill="none" stroke="#EBEDE4" stroke-width="1.2546" stroke-miterlimit="10" d="M1267.258,497.137
			c0,0-32.399,7.341-41.517,21.322c-9.114,13.979-11.114,17.791-14.217,26.961c-3.103,9.167,1.237,17.667,5.085,13.018
			c3.847-4.65,11.063-16.066,21.293-24.373c10.229-8.307,9.438-8.892,23.776-21.651
			C1276.019,499.65,1275.964,494.759,1267.258,497.137z"/>
		<path fill="none" stroke="#EBEDE4" stroke-width="1.2546" stroke-miterlimit="10" d="M1272.902,497.783
			c0,0-23.788,12.827-34.754,23.235c-10.966,10.406-22.347,25.796-24.188,31.048"/>
		<path fill="none" stroke="#EBEDE4" stroke-width="1.2546" stroke-miterlimit="10" d="M1248.648,503.619
			c0.713-6.569-1.934-12.845-3.265-18.975c-1.774-8.174-3.661-14.099-9.505-4.354c-4.391,8.567-5.435,21.893-2.689,30.969"/>
		<path fill="none" stroke="#EBEDE4" stroke-width="1.2546" stroke-miterlimit="10" d="M1240.967,475.723
			c-0.678,4.979-2.021,10.241-2.104,15.135c-0.127,7.303,1.284,10.248,2.583,15.444"/>
		<path fill="none" stroke="#EBEDE4" stroke-width="1.2546" stroke-miterlimit="10" d="M1215.703,530.848
			c1.448-4.166,0.616-9.377,0.283-13.67c-0.174-5.145-0.35-10.28-0.521-15.42c-0.104-5.801-1.609-11.55-1.438-17.448
			c0.235-4.032,1.234-7.715,1.662-11.659c0.354-3.287-0.136-6.729-4.159-3.975c-2.098,1.564-3.183,5.438-4.229,7.722
			c-3.473,8.07-5.21,17.396-5.376,26.288c-0.243,12.078,3.171,21.691,6.181,33.193"/>
		<path fill="none" stroke="#EBEDE4" stroke-width="1.2546" stroke-miterlimit="10" d="M1214.51,468.198
			c-5.242,10.939-5.297,23.104-5.268,35.08c0.333,9.813,3.646,19.149,4.257,28.86"/>
	</g>
</g>
</svg>
