<?xml version="1.0" encoding="utf-8"?>
<!-- Generator: Adobe Illustrator 16.0.0, SVG Export Plug-In . SVG Version: 6.00 Build 0)  -->
<!DOCTYPE svg PUBLIC "-//W3C//DTD SVG 1.1//EN" "http://www.w3.org/Graphics/SVG/1.1/DTD/svg11.dtd">
<svg version="1.1" xmlns="http://www.w3.org/2000/svg" xmlns:xlink="http://www.w3.org/1999/xlink" x="0px" y="0px" width="1525px"
	 height="616px" viewBox="0 0 1525 616" enable-background="new 0 0 1525 616" xml:space="preserve">
<g id="Layer_2">
	<g>
		<g opacity="0.6">
			<g>
				<path fill="#EBEDE4" d="M170.496,510.334c5.645,11.766,9.182,24.387,14.591,36.258c5.498,12.067,12.807,23.548,20.841,34.078
					c13.096,17.167,33.321,27.728,52.683,36.208c0.794,0.349,1.486-0.821,0.686-1.172c-20.408-8.939-40.839-20.045-54.212-38.433
					c-7.183-9.876-13.613-20.316-18.825-31.367c-5.565-11.802-8.944-24.487-14.59-36.258
					C171.29,508.859,170.119,509.549,170.496,510.334L170.496,510.334z"/>
			</g>
		</g>
		<g opacity="0.6">
			<g>
				<path fill="#EBEDE4" d="M179.522,507.76c-0.641,5.658-2.497,11.078-3.138,16.738c-0.098,0.869,1.261,0.859,1.358,0
					c0.641-5.658,2.496-11.078,3.138-16.738C180.979,506.891,179.62,506.9,179.522,507.76L179.522,507.76z"/>
			</g>
		</g>
		<g opacity="0.6">
			<g>
				<path fill="#EBEDE4" d="M185.706,512.035c-2.172,7.604-3.084,15.47-4.909,23.152c-0.202,0.852,1.107,1.213,1.31,0.361
					c1.825-7.684,2.736-15.549,4.909-23.152C187.256,511.553,185.946,511.194,185.706,512.035L185.706,512.035z"/>
			</g>
		</g>
		<g opacity="0.6">
			<g>
				<path fill="#EBEDE4" d="M190.725,516.179c-0.98,9.597-2.855,19.192-6.16,28.271c-0.3,0.825,1.013,1.177,1.31,0.361
					c3.348-9.198,5.216-18.911,6.209-28.633C192.172,515.308,190.813,515.316,190.725,516.179L190.725,516.179z"/>
			</g>
		</g>
		<g opacity="0.6">
			<g>
				<path fill="#EBEDE4" d="M166.631,513.581c2.634,2.118,4.847,4.709,7.648,6.625c0.725,0.496,1.403-0.681,0.686-1.172
					c-2.702-1.849-4.832-4.369-7.374-6.414C166.916,512.077,165.948,513.031,166.631,513.581L166.631,513.581z"/>
			</g>
		</g>
		<g opacity="0.6">
			<g>
				<path fill="#EBEDE4" d="M163.517,519.379c2.037,1.439,4.006,2.969,6.107,4.315c2.413,1.547,5.327,2.263,7.454,4.235
					c0.641,0.595,1.604-0.364,0.96-0.961c-1.765-1.637-3.981-2.476-6.117-3.526c-2.781-1.367-5.199-3.456-7.718-5.235
					C163.485,517.7,162.808,518.879,163.517,519.379L163.517,519.379z"/>
			</g>
		</g>
		<g opacity="0.6">
			<g>
				<path fill="#EBEDE4" d="M162.513,525.866c5.369,3.275,11.126,5.74,16.823,8.372c0.79,0.365,1.48-0.806,0.686-1.172
					c-5.697-2.633-11.455-5.097-16.823-8.372C162.449,524.236,161.767,525.411,162.513,525.866L162.513,525.866z"/>
			</g>
		</g>
		<g opacity="0.6">
			<g>
				<path fill="#EBEDE4" d="M160.067,531.736c6.898,5.627,14.73,10.359,23.565,12.062c0.855,0.165,1.221-1.144,0.361-1.309
					c-8.601-1.658-16.249-6.234-22.966-11.714C160.354,530.228,159.388,531.182,160.067,531.736L160.067,531.736z"/>
			</g>
		</g>
		<g opacity="0.6">
			<g>
				<path fill="#EBEDE4" d="M159.074,540.159c8.007,6.762,18.186,10.973,28.578,12.158c0.869,0.1,0.86-1.26,0-1.357
					c-10.014-1.144-19.905-5.248-27.618-11.762C159.369,538.638,158.404,539.593,159.074,540.159L159.074,540.159z"/>
			</g>
		</g>
		<g opacity="0.6">
			<g>
				<path fill="#EBEDE4" d="M160.182,550.424c9.585,6.78,20.917,11.357,32.699,12.069c0.875,0.054,0.87-1.305,0-1.357
					c-11.549-0.699-22.624-5.243-32.013-11.884C160.151,548.744,159.474,549.923,160.182,550.424L160.182,550.424z"/>
			</g>
		</g>
		<g opacity="0.6">
			<g>
				<path fill="#EBEDE4" d="M159.993,559.027c5.183,4.098,11.502,6.116,17.749,8.001c6.439,1.942,13.208,4.303,20.001,3.242
					c0.863-0.134,0.495-1.442-0.361-1.309c-6.508,1.015-13.108-1.413-19.279-3.243c-5.998-1.777-12.177-3.721-17.149-7.652
					C160.274,557.53,159.306,558.484,159.993,559.027L159.993,559.027z"/>
			</g>
		</g>
		<g opacity="0.6">
			<g>
				<path fill="#EBEDE4" d="M162.473,571.162c6.647,4.945,14.537,6.843,22.622,7.963c6.135,0.851,13.122,2.263,18.968-0.401
					c0.796-0.362,0.105-1.532-0.686-1.172c-6.151,2.803-14.654,0.797-21.071-0.198c-6.867-1.065-13.529-3.184-19.148-7.363
					C162.455,569.467,161.779,570.646,162.473,571.162L162.473,571.162z"/>
			</g>
		</g>
		<g opacity="0.6">
			<g>
				<path fill="#EBEDE4" d="M170.561,583.599c6.897,1.786,13.81,3.285,20.904,4.014c6.042,0.621,13.075,1.462,18.845-0.855
					c0.802-0.321,0.452-1.636-0.361-1.309c-5.233,2.102-11.177,1.289-16.672,0.955c-7.583-0.461-15.025-2.216-22.354-4.113
					C170.073,582.07,169.713,583.38,170.561,583.599L170.561,583.599z"/>
			</g>
		</g>
		<g opacity="0.6">
			<g>
				<path fill="#EBEDE4" d="M182.713,596.183c7.165,0.614,14.267,0.472,21.426-0.136c4.637-0.394,9.602-0.596,13.112-3.993
					c0.63-0.61-0.331-1.569-0.96-0.961c-3.927,3.801-10.63,3.502-15.753,3.882c-5.944,0.44-11.89,0.358-17.825-0.149
					C181.84,594.75,181.848,596.108,182.713,596.183L182.713,596.183z"/>
			</g>
		</g>
		<g opacity="0.6">
			<g>
				<path fill="#EBEDE4" d="M195.287,523.195c-1.087,9.745-1.837,19.577-7.802,27.753c-0.517,0.709,0.662,1.386,1.173,0.686
					c6.097-8.358,6.875-18.475,7.987-28.438C196.742,522.326,195.383,522.335,195.287,523.195L195.287,523.195z"/>
			</g>
		</g>
		<g opacity="0.6">
			<g>
				<path fill="#EBEDE4" d="M200.962,530.703c-1.054,9.732-4.189,18.769-7.994,27.735c-0.338,0.797,0.832,1.489,1.173,0.686
					c3.901-9.196,7.098-18.44,8.179-28.421C202.415,529.833,201.056,529.842,200.962,530.703L200.962,530.703z"/>
			</g>
		</g>
		<g opacity="0.6">
			<g>
				<path fill="#EBEDE4" d="M206.562,537.053c-2.474,10.115-5.158,20.091-9.716,29.499c-0.38,0.784,0.791,1.474,1.173,0.686
					c4.606-9.509,7.352-19.595,9.853-29.823C208.08,536.563,206.77,536.202,206.562,537.053L206.562,537.053z"/>
			</g>
		</g>
		<g opacity="0.6">
			<g>
				<path fill="#EBEDE4" d="M211.463,540.411c-1.207,11.94-4.01,23.223-9.918,33.749c-0.429,0.765,0.744,1.449,1.173,0.686
					c6.013-10.713,8.875-22.276,10.104-34.435C212.909,539.54,211.55,539.549,211.463,540.411L211.463,540.411z"/>
			</g>
		</g>
		<g opacity="0.6">
			<g>
				<path fill="#EBEDE4" d="M217.812,547.026c-1.215,5.743-1.504,11.626-2.833,17.347c-1.396,6.01-4.644,11.44-7.704,16.721
					c-0.44,0.76,0.734,1.442,1.173,0.686c2.891-4.989,5.462-9.896,7.357-15.348c2.104-6.052,1.999-12.816,3.316-19.044
					C219.302,546.533,217.993,546.17,217.812,547.026L217.812,547.026z"/>
			</g>
		</g>
		<g opacity="0.6">
			<g>
				<path fill="#EBEDE4" d="M224.53,555.794c-0.808,5.448-1.488,10.901-2.777,16.264c-1.404,5.845-4.873,10.663-7.213,16.112
					c-0.341,0.796,0.828,1.488,1.173,0.686c1.898-4.42,4.567-8.438,6.313-12.928c2.41-6.195,2.846-13.253,3.813-19.772
					C225.967,555.299,224.658,554.931,224.53,555.794L224.53,555.794z"/>
			</g>
		</g>
		<g opacity="0.6">
			<g>
				<path fill="#EBEDE4" d="M230.511,564.098c-0.627,6.295-1.759,12.225-4.018,18.129c-0.817,2.138-3.31,11.188-6.126,11.761
					c-0.858,0.174-0.494,1.483,0.361,1.309c3.129-0.636,4.899-7.375,5.932-9.845c2.893-6.921,4.465-13.89,5.209-21.354
					C231.956,563.227,230.597,563.234,230.511,564.098L230.511,564.098z"/>
			</g>
		</g>
		<g opacity="0.6">
			<g>
				<path fill="#EBEDE4" d="M235.904,572.546c-0.946,9.594-2.681,18.58-8.459,26.529c-0.516,0.71,0.663,1.387,1.173,0.686
					c5.909-8.131,7.676-17.399,8.645-27.215C237.348,571.675,235.989,571.683,235.904,572.546L235.904,572.546z"/>
			</g>
		</g>
		<g opacity="0.6">
			<g>
				<path fill="#EBEDE4" d="M223.402,597.07c-6.901,4.496-15.587,4.341-23.529,4.611c-0.873,0.029-0.876,1.388,0,1.357
					c8.167-0.277,17.116-0.172,24.214-4.797C224.818,597.767,224.139,596.59,223.402,597.07L223.402,597.07z"/>
			</g>
		</g>
	</g>
	<g opacity="0.7">
		<g>
			<g>
				<path fill="#EBEDE4" d="M411.923,533.209c-5.838,10.237-9.985,21.3-15.393,31.755c-5.78,11.175-13.152,21.455-21.07,31.199
					c-14.351,17.658-34.801,27.396-55.876,34.734c-0.756,0.263-0.431,1.471,0.332,1.205c20.575-7.164,41.039-16.622,55.288-33.673
					c7.755-9.279,14.812-19.161,20.732-29.712c6.343-11.305,10.642-23.613,17.066-34.878
					C413.402,533.139,412.322,532.509,411.923,533.209L411.923,533.209z"/>
			</g>
		</g>
		<g>
			<g>
				<path fill="#EBEDE4" d="M403.408,530.428c0.099,5.717,1.368,11.322,1.467,17.038c0.014,0.806,1.264,0.807,1.25,0
					c-0.099-5.716-1.368-11.321-1.467-17.038C404.645,529.623,403.395,529.621,403.408,530.428L403.408,530.428z"/>
			</g>
		</g>
		<g>
			<g>
				<path fill="#EBEDE4" d="M397.201,534.466c1.364,7.763,1.514,15.653,2.544,23.457c0.104,0.787,1.355,0.798,1.25,0
					c-1.044-7.915-1.205-15.917-2.589-23.789C398.267,533.341,397.063,533.678,397.201,534.466L397.201,534.466z"/>
			</g>
		</g>
		<g>
			<g>
				<path fill="#EBEDE4" d="M392.049,537.785c0.066,9.798,0.974,19.68,3.319,29.209c0.192,0.782,1.398,0.45,1.205-0.332
					c-2.319-9.427-3.208-19.185-3.274-28.877C393.294,536.979,392.044,536.979,392.049,537.785L392.049,537.785z"/>
			</g>
		</g>
		<g>
			<g>
				<path fill="#EBEDE4" d="M415.627,536.472c-2.64,1.841-4.907,4.176-7.694,5.808c-0.695,0.407-0.066,1.488,0.631,1.08
					c2.79-1.635,5.053-3.967,7.694-5.808C416.914,537.094,416.29,536.01,415.627,536.472L415.627,536.472z"/>
			</g>
		</g>
		<g>
			<g>
				<path fill="#EBEDE4" d="M418.193,542.475c-2.312,1.4-4.542,2.92-6.961,4.135c-2.338,1.173-4.841,1.649-6.906,3.32
					c-0.627,0.508,0.264,1.387,0.884,0.885c1.914-1.55,4.438-2.121,6.653-3.126c2.451-1.112,4.667-2.745,6.961-4.134
					C419.512,543.138,418.884,542.057,418.193,542.475L418.193,542.475z"/>
			</g>
		</g>
		<g>
			<g>
				<path fill="#EBEDE4" d="M418.56,549.058c-5.31,2.733-10.941,4.638-16.524,6.714c-0.749,0.278-0.425,1.486,0.332,1.205
					c5.687-2.113,11.417-4.057,16.823-6.839C419.908,549.769,419.275,548.689,418.56,549.058L418.56,549.058z"/>
			</g>
		</g>
		<g>
			<g>
				<path fill="#EBEDE4" d="M420.209,555.252c-6.774,4.792-14.41,8.748-22.772,9.597c-0.794,0.081-0.802,1.331,0,1.25
					c8.594-0.872,16.431-4.836,23.403-9.767C421.492,555.87,420.869,554.785,420.209,555.252L420.209,555.252z"/>
			</g>
		</g>
		<g>
			<g>
				<path fill="#EBEDE4" d="M420.392,563.771c-7.853,5.759-17.62,9.013-27.351,9.208c-0.805,0.017-0.807,1.267,0,1.25
					c9.94-0.199,19.956-3.493,27.981-9.378C421.665,564.38,421.043,563.294,420.392,563.771L420.392,563.771z"/>
			</g>
		</g>
		<g>
			<g>
				<path fill="#EBEDE4" d="M418.56,573.84c-9.415,5.701-20.306,9.213-31.383,8.822c-0.807-0.028-0.804,1.222,0,1.25
					c11.286,0.397,22.419-3.183,32.014-8.992C419.879,574.503,419.251,573.422,418.56,573.84L418.56,573.84z"/>
			</g>
		</g>
		<g>
			<g>
				<path fill="#EBEDE4" d="M417.827,582.555c-4.699,3.215-10.21,4.604-15.698,5.817c-6.379,1.411-13.459,3.408-19.917,1.67
					c-0.779-0.21-1.11,0.996-0.332,1.205c5.898,1.588,12.035,0.099,17.877-1.103c6.473-1.33,13.161-2.721,18.7-6.51
					C419.119,583.183,418.495,582.099,417.827,582.555L417.827,582.555z"/>
			</g>
		</g>
		<g>
			<g>
				<path fill="#EBEDE4" d="M414.528,594.363c-6.086,3.883-12.839,5.132-19.943,5.6c-5.935,0.391-13.569,1.271-18.818-1.92
					c-0.691-0.42-1.318,0.662-0.631,1.08c5.238,3.185,11.979,2.349,17.843,2.165c7.78-0.243,15.537-1.607,22.181-5.845
					C415.836,595.011,415.21,593.929,414.528,594.363L414.528,594.363z"/>
			</g>
		</g>
		<g>
			<g>
				<path fill="#EBEDE4" d="M406.067,605.919c-6.488,1.097-12.957,1.92-19.542,2.001c-5.685,0.07-12.429,0.227-17.539-2.52
					c-0.71-0.381-1.341,0.698-0.631,1.08c4.956,2.663,10.833,2.479,16.311,2.669c7.289,0.255,14.567-0.814,21.732-2.025
					C407.193,606.99,406.855,605.785,406.067,605.919L406.067,605.919z"/>
			</g>
		</g>
		<g>
			<g>
				<path fill="#EBEDE4" d="M393.773,617.321c-6.11-0.063-12.101-0.704-18.118-1.771c-4.573-0.811-10.229-1.39-13.32-5.211
					c-0.507-0.626-1.386,0.264-0.884,0.885c2.974,3.675,7.633,4.296,12.033,5.182c6.698,1.349,13.458,2.094,20.29,2.165
					C394.579,618.58,394.579,617.33,393.773,617.321L393.773,617.321z"/>
			</g>
		</g>
		<g>
			<g>
				<path fill="#EBEDE4" d="M387.102,544.369c0.156,10.035-0.022,20.163,5.033,29.165c0.395,0.703,1.475,0.073,1.079-0.631
					c-4.938-8.795-4.71-18.746-4.862-28.534C388.339,543.563,387.089,543.563,387.102,544.369L387.102,544.369z"/>
			</g>
		</g>
		<g>
			<g>
				<path fill="#EBEDE4" d="M381.055,551.34c0.125,9.982,2.3,19.489,5.153,29.015c0.23,0.771,1.437,0.442,1.205-0.332
					c-2.818-9.407-4.985-18.814-5.108-28.683C382.295,550.534,381.045,550.533,381.055,551.34L381.055,551.34z"/>
			</g>
		</g>
		<g>
			<g>
				<path fill="#EBEDE4" d="M375.215,557.507c1.438,10.39,3.104,20.668,6.596,30.595c0.266,0.755,1.473,0.431,1.205-0.332
					c-3.492-9.927-5.158-20.206-6.596-30.595C376.31,556.379,375.105,556.719,375.215,557.507L375.215,557.507z"/>
			</g>
		</g>
		<g>
			<g>
				<path fill="#EBEDE4" d="M370.246,560.052c0.07,12.173,1.705,23.924,6.435,35.213c0.307,0.732,1.517,0.411,1.205-0.332
					c-4.681-11.172-6.32-22.826-6.39-34.881C371.491,559.246,370.241,559.245,370.246,560.052L370.246,560.052z"/>
			</g>
		</g>
		<g>
			<g>
				<path fill="#EBEDE4" d="M363.649,566.249c0.638,5.891,0.125,11.94,1.146,17.784c1.094,6.258,3.384,11.979,5.902,17.771
					c0.32,0.737,1.397,0.101,1.079-0.631c-2.249-5.174-4.199-10.232-5.471-15.73c-1.44-6.223-0.721-12.87-1.406-19.194
					C364.813,565.456,363.562,565.448,363.649,566.249L363.649,566.249z"/>
			</g>
		</g>
		<g>
			<g>
				<path fill="#EBEDE4" d="M356.503,574.38c0.278,5.581,0.443,11.151,1.189,16.695c0.807,6,3.672,11.249,5.429,16.969
					c0.236,0.769,1.442,0.44,1.205-0.332c-1.575-5.128-4.057-9.876-5.128-15.16c-1.205-5.938-1.145-12.143-1.445-18.172
					C357.713,573.578,356.463,573.574,356.503,574.38L356.503,574.38z"/>
			</g>
		</g>
		<g>
			<g>
				<path fill="#EBEDE4" d="M350.09,581.933c0.034,7.559,0.962,14.586,3.027,21.835c0.684,2.4,1.833,9.386,4.76,10.326
					c0.77,0.247,1.096-0.96,0.332-1.205c-2.458-0.79-3.846-9.277-4.458-11.488c-1.774-6.409-2.381-12.826-2.411-19.468
					C351.337,581.127,350.087,581.126,350.09,581.933L350.09,581.933z"/>
			</g>
		</g>
		<g>
			<g>
				<path fill="#EBEDE4" d="M344.228,589.871c0.037,9.854,0.883,19.25,5.765,28.003c0.393,0.704,1.472,0.074,1.079-0.631
					c-4.777-8.567-5.558-17.741-5.594-27.372C345.475,589.065,344.225,589.064,344.228,589.871L344.228,589.871z"/>
			</g>
		</g>
		<g>
			<g>
				<path fill="#EBEDE4" d="M354.304,616.646c6.229,5.259,14.668,6.066,22.447,7.131c0.788,0.108,1.128-1.097,0.332-1.205
					c-7.5-1.026-15.876-1.729-21.895-6.811C354.576,615.246,353.688,616.125,354.304,616.646L354.304,616.646z"/>
			</g>
		</g>
	</g>
</g>
<g id="Layer_1">
	<path fill="none" stroke="#EBEDE4" stroke-width="2" stroke-miterlimit="10" d="M365.148-454.2
		c-7.868,37.91-37.91,45.063-71.528,45.778c-37.195,1.431-75.105,2.861-108.724,19.313c-25.75,12.875-48.64,35.049-54.362,63.661
		c-5.722,35.05,30.042,38.626,57.938,38.626"/>
	<g>
		<path fill="none" stroke="#EBEDE4" stroke-width="1.4007" stroke-miterlimit="10" d="M1558.129,413.434
			c-26.839,3.867-38.718-14.207-47.211-36.171c-9.818-24.149-19.808-48.769-38.662-66.978
			c-14.623-13.882-34.685-23.661-54.889-20.601c-24.443,4.597-18.264,28.997-11.605,47.365"/>
		<g>
			<path fill="#EBEDE4" d="M1404.951,336.821c0,0,6.408,3.595,13.436-0.395C1411.101,331.599,1404.951,336.821,1404.951,336.821z"/>
			<path fill="#EBEDE4" d="M1394.367,344.73c0,0,7.308-0.772,10.734-8.091C1396.365,336.913,1394.367,344.73,1394.367,344.73z"/>
		</g>
		<g>
			<path fill="#EBEDE4" d="M1400.496,314.092c0,0,4.2,6.029,12.264,5.503C1408.307,312.072,1400.496,314.092,1400.496,314.092z"/>
			<path fill="#EBEDE4" d="M1387.522,316.597c0,0,6.914,2.489,13.188-2.603C1392.729,310.432,1387.522,316.597,1387.522,316.597z"/>
		</g>
		<g>
			<path fill="#EBEDE4" d="M1405.308,294.688c0,0,0.182,7.346,7.2,11.35C1412.938,297.309,1405.308,294.688,1405.308,294.688z"/>
			<path fill="#EBEDE4" d="M1393.102,289.627c0,0,4.397,5.888,12.438,5.098C1400.844,287.353,1393.102,289.627,1393.102,289.627z"/>
		</g>
		<g>
			<path fill="#EBEDE4" d="M1422.984,287.829c0,0-4.517,5.798-1.625,13.345C1427.225,294.693,1422.984,287.829,1422.984,287.829z"/>
			<path fill="#EBEDE4" d="M1416.75,276.18c0,0-0.331,7.341,6.39,11.826C1424.18,279.327,1416.75,276.18,1416.75,276.18z"/>
		</g>
		<g>
			<path fill="#EBEDE4" d="M1440.529,290.03c0,0-6.723,2.964-7.755,10.979C1441.012,298.084,1440.529,290.03,1440.529,290.03z"/>
			<path fill="#EBEDE4" d="M1440.563,276.816c0,0-3.771,6.308,0.022,13.442C1445.613,283.109,1440.563,276.816,1440.563,276.816z"/>
		</g>
		<g>
			<path fill="#EBEDE4" d="M1455.73,297.71c0,0-7.339,0.337-11.195,7.438C1453.271,305.395,1455.73,297.71,1455.73,297.71z"/>
			<path fill="#EBEDE4" d="M1456.514,284.617c0,0-3.97,6.185-0.405,13.437C1461.361,291.068,1456.514,284.617,1456.514,284.617z"/>
		</g>
		<g>
			<path fill="#EBEDE4" d="M1480.062,319.263c0,0-7.341,0.337-11.197,7.439C1477.602,326.948,1480.062,319.263,1480.062,319.263z"/>
			<path fill="#EBEDE4" d="M1480.844,306.171c0,0-3.97,6.184-0.406,13.436C1485.691,312.622,1480.844,306.171,1480.844,306.171z"/>
		</g>
		<g>
			<path fill="#EBEDE4" d="M1506.589,366.302c0,0-6.279-3.817-13.441-0.075C1500.26,371.306,1506.589,366.302,1506.589,366.302z"/>
			<path fill="#EBEDE4" d="M1514.545,355.873c0,0-6.745,2.918-7.835,10.923C1514.967,363.933,1514.545,355.873,1514.545,355.873z"/>
		</g>
		<g>
			<path fill="#EBEDE4" d="M1469.523,307.098c0,0-7.34,0.336-11.196,7.438C1467.064,314.782,1469.523,307.098,1469.523,307.098z"/>
			<path fill="#EBEDE4" d="M1465.612,293.981c0,0-2.044,7.058,3.438,12.995C1472.096,298.784,1465.612,293.981,1465.612,293.981z"/>
		</g>
		<g>
			<path fill="#EBEDE4" d="M1491.305,335.266c0,0-6.375-3.653-13.439,0.271C1485.105,340.432,1491.305,335.266,1491.305,335.266z"/>
			<path fill="#EBEDE4" d="M1495.041,322.1c0,0-5.512,4.859-4.072,12.811C1497.936,329.631,1495.041,322.1,1495.041,322.1z"/>
		</g>
		<g>
			<path fill="#EBEDE4" d="M1514.855,384.81c0,0-6.375-3.654-13.439,0.269C1508.656,389.975,1514.855,384.81,1514.855,384.81z"/>
			<path fill="#EBEDE4" d="M1518.592,371.643c0,0-5.512,4.859-4.071,12.81C1521.487,379.174,1518.592,371.643,1518.592,371.643z"/>
		</g>
		<g>
			<path fill="#EBEDE4" d="M1525.067,402.287c0,0-7.145-1.717-12.825,4.032C1520.568,408.986,1525.067,402.287,1525.067,402.287z"/>
			<path fill="#EBEDE4" d="M1524.956,388.603c0,0-3.925,6.211-0.311,13.438C1529.85,395.019,1524.956,388.603,1524.956,388.603z"/>
		</g>
		<g>
			<path fill="#EBEDE4" d="M1537.786,411.111c0,0-7.283,0.974-10.509,8.383C1536.004,418.981,1537.786,411.111,1537.786,411.111z"/>
			<path fill="#EBEDE4" d="M1532.751,398.386c0,0-1.422,7.208,4.553,12.646C1539.627,402.606,1532.751,398.386,1532.751,398.386z"/>
		</g>
		<g>
			<path fill="#EBEDE4" d="M1551.949,413.438c0,0-7.282,0.974-10.508,8.383C1550.167,421.308,1551.949,413.438,1551.949,413.438z"/>
			<path fill="#EBEDE4" d="M1546.915,400.712c0,0-1.423,7.209,4.553,12.646C1553.791,404.933,1546.915,400.712,1546.915,400.712z"/>
		</g>
		<g>
			<path fill="#EBEDE4" d="M1499.848,350.019c0,0-6.374-3.653-13.438,0.271C1493.649,355.185,1499.848,350.019,1499.848,350.019z"/>
			<path fill="#EBEDE4" d="M1503.585,336.853c0,0-5.513,4.86-4.071,12.81C1506.479,344.384,1503.585,336.853,1503.585,336.853z"/>
		</g>
		<path fill="#EBEDE4" d="M1405.378,337.509c0,0,4.939,4.071,4.589,11.925C1404.366,344.271,1405.378,337.509,1405.378,337.509z"/>
	</g>
	<g>
		<path fill="#0F0A2B" d="M314.764-178.351c0,0,7.944-6.854,6.009-18.229C310.746-189.149,314.764-178.351,314.764-178.351z"/>
		<path fill="#0F0A2B" d="M320.233-160.294c0,0,2.518-10.186-5.639-18.348C310.71-166.781,320.233-160.294,320.233-160.294z"/>
	</g>
	<g>
		<path fill="#0F0A2B" d="M282.083-183.429c0,0,10.139-2.706,13.354-13.786C283.173-194.899,282.083-183.429,282.083-183.429z"/>
		<path fill="#0F0A2B" d="M279.134-164.795c0,0,6.706-8.069,2.923-18.97C273.391-174.784,279.134-164.795,279.134-164.795z"/>
	</g>
	<g>
		<path fill="#0F0A2B" d="M258.377-199.33c0,0,9.949,3.329,18.739-4.144C265.607-208.299,258.377-199.33,258.377-199.33z"/>
		<path fill="#0F0A2B" d="M245.644-185.407c0,0,10.044-3.038,12.896-14.218C246.358-196.906,245.644-185.407,245.644-185.407z"/>
	</g>
	<g>
		<path fill="#0F0A2B" d="M257.769-226.396c0,0,5.587,8.882,17.124,8.673C269.047-228.75,257.769-226.396,257.769-226.396z"/>
		<path fill="#0F0A2B" d="M239.098-223.696c0,0,9.693,4.016,18.984-2.824C246.938-232.139,239.098-223.696,239.098-223.696z"/>
	</g>
	<g>
		<path fill="#0F0A2B" d="M269.261-248.88c0,0,0.708,10.468,10.966,15.753C280.308-245.608,269.261-248.88,269.261-248.88z"/>
		<path fill="#0F0A2B" d="M251.54-255.354c0,0,6.632,8.13,18.056,6.512C262.445-259.071,251.54-255.354,251.54-255.354z"/>
	</g>
	<g>
		<path fill="#0F0A2B" d="M286.967-265.55c0,0-3.119,10.017,4.538,18.65C296.087-258.509,286.967-265.55,286.967-265.55z"/>
		<path fill="#0F0A2B" d="M269.773-272.971c0,0,6.37,8.338,17.839,7.083C280.792-276.34,269.773-272.971,269.773-272.971z"/>
	</g>
	<g>
		<path fill="#0F0A2B" d="M327.739-287.724c0,0-3.119,10.018,4.538,18.65C336.859-280.683,327.739-287.724,327.739-287.724z"/>
		<path fill="#0F0A2B" d="M310.544-295.145c0,0,6.37,8.337,17.839,7.083C321.563-298.514,310.544-295.145,310.544-295.145z"/>
	</g>
	<g>
		<path fill="#0F0A2B" d="M403.792-300.45c0,0-8.18,6.572-6.642,18.009C407.43-289.518,403.792-300.45,403.792-300.45z"/>
		<path fill="#0F0A2B" d="M393.664-316.203c0,0,0.635,10.474,10.852,15.833C404.688-312.85,393.664-316.203,393.664-316.203z"/>
	</g>
	<g>
		<path fill="#0F0A2B" d="M306.28-279.498c0,0-3.119,10.018,4.538,18.65C315.4-272.457,306.28-279.498,306.28-279.498z"/>
		<path fill="#0F0A2B" d="M286.77-280.629c0,0,8.48,6.178,19.117,1.708C296.373-286.997,286.77-280.629,286.77-280.629z"/>
	</g>
	<g>
		<path fill="#0F0A2B" d="M354.692-295.031c0,0-8.006,6.78-6.176,18.173C358.611-284.196,354.692-295.031,354.692-295.031z"/>
		<path fill="#0F0A2B" d="M338.835-306.454c0,0,3.842,9.764,15.216,11.699C350.354-306.675,338.835-306.454,338.835-306.454z"/>
	</g>
	<g>
		<path fill="#0F0A2B" d="M432.659-302.542c0,0-8.007,6.78-6.177,18.173C436.577-291.707,432.659-302.542,432.659-302.542z"/>
		<path fill="#0F0A2B" d="M416.802-313.964c0,0,3.842,9.764,15.215,11.699C428.321-314.185,416.802-313.964,416.802-313.964z"/>
	</g>
	<g>
		<path fill="#0F0A2B" d="M461.091-307.746c0,0-5.781,8.755-0.827,19.177C467.895-298.446,461.091-307.746,461.091-307.746z"/>
		<path fill="#0F0A2B" d="M442.666-314.256c0,0,6.429,8.292,17.889,6.957C453.661-317.703,442.666-314.256,442.666-314.256z"/>
	</g>
	<g>
		<path fill="#0F0A2B" d="M479.125-320.527c0,0-2.236,10.251,6.14,18.186C488.823-314.305,479.125-320.527,479.125-320.527z"/>
		<path fill="#0F0A2B" d="M459.592-319.96c0,0,8.985,5.417,19.192,0.042C468.604-327.137,459.592-319.96,459.592-319.96z"/>
	</g>
	<g>
		<path fill="#0F0A2B" d="M489.139-338.409c0,0-2.236,10.25,6.141,18.186C498.836-332.187,489.139-338.409,489.139-338.409z"/>
		<path fill="#0F0A2B" d="M469.606-337.842c0,0,8.986,5.418,19.192,0.042C478.619-345.019,469.606-337.842,469.606-337.842z"/>
	</g>
	<g>
		<path fill="#0F0A2B" d="M378.654-299.323c0,0-8.006,6.78-6.176,18.173C382.573-288.488,378.654-299.323,378.654-299.323z"/>
		<path fill="#0F0A2B" d="M362.797-310.745c0,0,3.842,9.764,15.216,11.699C374.316-310.966,362.797-310.745,362.797-310.745z"/>
	</g>
	<path fill="#0F0A2B" d="M315.896-178.59c0,0,7.868-4.649,18.24-0.357C324.48-173.941,315.896-178.59,315.896-178.59z"/>
	<g>
		<g>
			<path fill="#EBEDE4" d="M1261.069,665.267c1.069-5.423,1.321-10.657,0.53-16.136c-1.059-7.331-4.501-14.302-2.706-21.767
				c1-4.157,2.796-9.177,0.86-13.357c-2.798-6.042-8.046-9.961-6.305-17.392c2.146-9.155,10.871-16.058,5.319-25.929
				c-2.943-5.234-7.577-8.551-7.626-15.158c-0.045-6.173,8-10.6,11.237-15.102c3.801-5.285,3.123-9.626-1.989-13.532
				c-2.896-2.214-5.912-4.218-7.924-7.335c-3.88-6.015,0.66-10.459,4.109-15.05c1.809-2.406,2.716-6.623,1.11-9.361
				c-1.888-3.222-5.373-4.564-8.361-6.553c-2.459-1.637-4.949-4.925-3.271-7.853c0.801-1.396,2.117-2.553,3.053-3.874
				c1.998-2.822,1.807-6.733-0.153-9.486c-3.997-5.614-12.545-0.582-15.194,3.69c-3.105,5.009,0.799,11.794-1.724,17.314
				c-2.041,4.467-5.052,8.353-3.091,13.429c1.174,3.039,4.272,4.826,6.823,6.563c7.191,4.895,2.357,11.366-2.448,15.805
				c-4.323,3.994-8.897,10.264-4.619,15.85c3.822,4.991,11.311,6.634,13.729,12.803c2.163,5.517-2.76,9.689-6.671,12.592
				c-3.484,2.587-6.646,5.091-8.023,9.342c-3.422,10.563,14.94,10.159,12.712,20.255c-1.339,6.069-13.517,14.066-6.392,20.668
				c3.919,3.632,13.089,4.312,11.218,11.821c-1.464,5.877-9.137,9.392-11.991,14.701c-6.396,11.9,13.884,21.376,20.612,26.994
				c1.228,1.025,3.007-0.733,1.768-1.768c-6.825-5.699-20.042-10.858-20.851-20.957c-0.372-4.634,5.077-8.524,7.994-11.398
				c2.572-2.534,4.815-5.274,5.232-8.955c0.325-2.861-1.787-5.883-3.945-7.518c-2.591-1.961-8.154-3.087-9.455-6.264
				c-1.828-4.466,5.098-10.826,7.184-14.266c2.042-3.368,1.73-7.79-0.99-10.731c-2.742-2.964-6.623-4.251-9.55-6.956
				c-5.71-5.277,4.566-11.774,7.917-14.451c5.502-4.396,8.463-11.056,3.714-17.21c-3.548-4.597-11.547-6.649-13.383-12.376
				c-1.351-4.209,3.825-8.807,6.453-11.235c3.407-3.147,5.914-6.19,6.112-10.979c0.128-3.079-1.935-5.68-4.3-7.375
				c-1.729-1.24-3.537-2.336-5.093-3.802c-3.795-3.574-1.128-8.407,0.854-12.081c2.787-5.168,2.008-9.482,1.716-15.156
				c-0.413-8.012,14.103-11.87,12.631-2.292c-0.508,3.307-4.219,5.091-4.944,8.409c-0.673,3.08,2.031,6.608,4.322,8.321
				c3.99,2.983,9.553,4.273,8.412,10.442c-0.897,4.852-6.402,7.354-7.195,12.6c-1.057,6.986,5.15,11.737,10.027,15.38
				c3.237,2.418,5.072,4.797,2.916,8.772c-2.746,5.066-8.141,8.191-11.237,13.059c-6.642,10.439,7.327,17.459,8.054,26.687
				c0.426,5.41-3.706,10.717-5.913,15.361c-1.931,4.064-2.306,8.147-0.918,12.428c1.351,4.164,5.036,6.99,6.385,11.121
				c1.49,4.563-1.559,10.378-2.094,14.991c-0.554,4.771,1.595,9.986,2.647,14.57c1.479,6.442,1.573,12.534,0.294,19.022
				C1258.349,666.177,1260.758,666.848,1261.069,665.267L1261.069,665.267z"/>
		</g>
	</g>
	<g>
		<g>
			<path fill="#EBEDE4" d="M1299.452,444.448c-2.403,4.427-5.467,8.698-7.104,13.492c-1.322,3.874,0.263,7.817,1.923,11.296
				c2.265,4.745,7.129,8.045,8.961,12.801c2.427,6.295-3.818,10.697-6.03,15.842c-1.426,3.315-1.044,7.053,1.099,9.905
				c2.619,3.486,11.09,7.361,8.575,12.779c-1.418,3.054-6.353,4.646-8.703,7.069c-2.117,2.184-3.247,6.01-1.699,8.794
				c2.019,3.631,5.538,5.852,8.606,8.515c5.861,5.087-2.428,10.212-5.675,14.013c-5.028,5.887-1.325,13.676,3.124,18.512
				c2.57,2.793,5.604,5.156,7.523,8.488c3.358,5.826-3.199,9.075-6.85,12.347c-2.627,2.354-3.857,6.061-3.27,9.554
				c0.835,4.962,4.945,8.271,5.897,13.206c1.608,8.343-2.306,16.988-4.072,24.998c-1.675,7.596-1.025,14.887,2.144,21.994
				c0.565,1.27,2.425,0.17,1.863-1.09c-5.733-12.861-0.081-24.053,2.075-36.858c0.655-3.888,0.923-8.695-0.694-12.395
				c-2.426-5.55-8.299-10.912-3.189-17.098c2.583-3.127,6.688-4.614,8.672-8.29c1.363-2.522,0.185-5.902-1.12-8.165
				c-4.372-7.585-14.063-11.003-11.864-21.39c0.891-4.212,6.807-7.065,8.931-10.813c1.649-2.909,0.836-5.598-1.264-7.871
				c-3.235-3.504-10.27-6.239-9.178-12.016c0.841-4.449,6.533-6.193,9.503-8.977c6.729-6.309-4.99-13.093-8.094-17.226
				c-3.851-5.127,2.259-11.072,4.761-15.181c2.195-3.605,1.94-7.814,0.003-11.46c-1.021-1.922-2.915-3.425-4.361-5.006
				c-2.617-2.861-4.525-6.943-5.6-10.628c-1.791-6.146,4.248-13.039,6.97-18.054
				C1301.979,444.314,1300.116,443.225,1299.452,444.448L1299.452,444.448z"/>
		</g>
	</g>
	<g>
		<g>
			<path fill="#EBEDE4" d="M1321.551,472.335c-2.403,4.427-5.467,8.698-7.104,13.492c-1.322,3.874,0.263,7.817,1.923,11.296
				c2.265,4.745,7.129,8.045,8.962,12.801c2.427,6.295-3.819,10.698-6.031,15.842c-1.426,3.315-1.044,7.054,1.099,9.905
				c2.619,3.487,11.091,7.361,8.575,12.779c-1.418,3.054-6.353,4.646-8.703,7.069c-2.117,2.184-3.247,6.01-1.699,8.795
				c2.019,3.631,5.538,5.851,8.606,8.514c5.861,5.087-2.428,10.211-5.675,14.013c-5.027,5.887-1.325,13.676,3.124,18.512
				c2.57,2.793,5.603,5.156,7.523,8.488c3.358,5.825-3.199,9.075-6.849,12.347c-2.628,2.354-3.858,6.061-3.271,9.555
				c0.835,4.961,4.946,8.271,5.897,13.205c1.608,8.343-2.306,16.988-4.072,24.998c-1.674,7.596-1.024,14.887,2.145,21.994
				c0.565,1.27,2.426,0.17,1.863-1.09c-5.734-12.861-0.082-24.053,2.074-36.858c0.655-3.888,0.923-8.695-0.694-12.395
				c-2.425-5.55-8.3-10.912-3.189-17.097c2.583-3.127,6.688-4.615,8.673-8.291c1.362-2.523,0.184-5.902-1.121-8.165
				c-4.371-7.585-14.063-11.003-11.863-21.39c0.892-4.212,6.806-7.064,8.93-10.813c1.648-2.909,0.836-5.598-1.264-7.871
				c-3.235-3.503-10.27-6.238-9.178-12.016c0.84-4.449,6.533-6.193,9.503-8.977c6.729-6.309-4.99-13.092-8.094-17.225
				c-3.852-5.127,2.259-11.073,4.761-15.182c2.196-3.605,1.942-7.814,0.003-11.46c-1.021-1.922-2.914-3.425-4.361-5.006
				c-2.617-2.861-4.525-6.942-5.6-10.628c-1.791-6.145,4.248-13.039,6.97-18.054
				C1324.078,472.201,1322.215,471.111,1321.551,472.335L1321.551,472.335z"/>
		</g>
	</g>
	<g>
		<g>
			<path fill="#EBEDE4" d="M238.044,402.936c-4.282,7.917-11.389,16.047-8.943,25.587c1.214,4.737,4.001,9.451,6.964,13.274
				c3.85,4.968,8.928,8.285,6.996,15.576c-2.025,7.649-12.979,14.317-8.019,23.445c3.802,6.995,20.072,14.262,8.632,22.042
				c-5.043,3.43-13.105,8.767-9.615,16.135c1.797,3.797,5.104,6.373,8.318,8.938c1.588,1.268,3.14,2.547,4.503,4.059
				c2.708,3-0.053,6.93-2.189,9.299c-2.894,3.209-6.444,5.617-8.507,9.517c-1.768,3.343-1.355,7.944-0.289,11.426
				c2.209,7.216,9.176,11.742,13.789,17.295c2.973,3.579,4.308,8.285,0.804,11.976c-2.932,3.086-7.091,4.933-9.583,8.472
				c-5.607,7.962-0.176,14.997,3.683,22.007c5.427,9.861-0.458,23.525-2.945,33.449c-2.656,10.597-2.505,20.76,2.042,30.819
				c0.725,1.604,3.079,0.214,2.359-1.379c-5.779-12.788-2.836-24.844,0.646-37.741c2.521-9.339,4.429-19.744-0.861-28.465
				c-3.091-5.097-5.464-8.611-3.915-14.929c1.162-4.741,8.038-7.701,11.206-11.038c4.842-5.098,1.18-12.087-2.653-16.45
				c-5.898-6.716-14.031-12.064-12.438-22.216c1.286-8.198,15.189-11.637,12.398-21.341c-2.349-8.164-19.353-10.739-12.802-21.487
				c3.635-5.964,13.618-6.597,13.043-15.074c-0.604-8.907-13.153-10.887-13.78-19.718c-0.619-8.723,9.575-13.646,9.293-22.512
				c-0.113-3.535-1.512-6.56-3.733-9.233c-3.395-4.086-6.498-7.509-8.928-12.362c-2.33-4.652-3.061-9.058-0.941-13.895
				c2.143-4.89,5.29-9.406,7.827-14.097C241.242,402.765,238.883,401.385,238.044,402.936L238.044,402.936z"/>
		</g>
	</g>
	<g>
		<g>
			<path fill="#FFB640" d="M8.106,627.596c11.466-0.612,22.971-0.219,34.397-1.527c8.651-0.991,18.289-3.119,24.158-10.087
				c8.352-9.916-0.04-21.272,1.74-32.416c1.913-11.98,14.369-16.384,24.69-18.545c12.006-2.514,32.292-2.261,36.206-17.056
				c2.77-10.471-3.898-21.225-6.833-30.831c-5.06-16.563,9.891-24.436,22.325-30.019c10.476-4.704,20.349-11.055,25.679-21.592
				c1.99-3.936,2.816-8.301,1.77-12.609c-1.03-4.241-4.757-7.52-7.24-10.915c-3.372-4.612-4.809-10.723-3.167-16.228
				c1.505-5.048,6.013-8.938,9.747-12.383c5.389-4.973,12.814-10.827,10.413-19.078c-2.145-7.368-11.353-11.268-18.096-12.766
				c-8.833-1.961-16.781,1.275-22.94,7.697c-7.083,7.385-10.083,17.812-16.017,26.033c-6.89,9.546-18.909,8.433-29.349,9.6
				c-8.066,0.901-17.292,4.299-20.505,12.546c-4.268,10.953,3.948,21.416,2.051,32.456c-2.026,11.797-17.732,12.582-26.36,17.195
				c-6.373,3.407-9.421,9.862-9.66,16.852c-0.26,7.59,2.45,15.166,4.383,22.396c1.687,6.311,4.203,14.963-1.313,20.09
				c-3.644,3.388-9.818,3.654-14.428,4.054c-6.126,0.53-12.253,0.683-18.323,1.747c-10.57,1.854-19.19,8.676-22.578,18.969
				c-2.964,9.005,0.058,19.291,3.611,27.644c2.266,5.325,5.06,10.383,7.439,15.651c2.065,4.574,3.904,9.001,7.316,12.755
				c1.086,1.195,2.849-0.578,1.768-1.768c-3.619-3.982-5.438-8.957-7.623-13.795c-2.678-5.929-5.849-11.537-8.117-17.662
				c-4.558-12.307-4.231-24.787,6.107-33.964c9.763-8.667,25.898-5.978,37.866-8c6.143-1.037,11.377-4.628,12.542-10.979
				c2.692-14.675-9.98-28.691-5.058-43.497c3.339-10.044,16.139-11.354,24.494-15.059c9.105-4.038,11.751-12.397,10.167-21.732
				c-0.956-5.633-3.06-10.943-3.147-16.72c-0.11-7.241,5.52-12.679,11.877-15.048c9.044-3.37,19.186-1.456,28.375-4.403
				c20.145-6.462,17.547-40.783,41.779-41.179c8.193-0.134,23.745,5.655,21.517,16.204c-0.958,4.532-5.874,8.241-9.116,11.218
				c-3.394,3.115-6.731,6.243-9.271,10.118c-4.809,7.34-2.824,16.854,2.318,23.461c3.324,4.271,6.762,7.697,6.5,13.493
				c-0.336,7.416-6.583,14.091-11.936,18.535c-9.091,7.548-21.194,9.81-30.474,17.007c-4.047,3.139-6.711,7.665-8.238,12.485
				c-1.91,6.03,0.587,12.672,2.744,18.242c3.355,8.664,8.928,21.301,1.15,29.261c-5.307,5.431-14.805,6.309-21.872,7.515
				c-8.705,1.485-17.666,2.771-25.33,7.449c-8.158,4.98-11.837,14.202-10.369,23.505c1.054,6.675,3.825,13.112,0.728,19.664
				c-2.645,5.595-8.664,8.396-14.247,10.072c-11.193,3.364-23.525,2.887-35.09,3.121c-3.056,0.063-6.111,0.157-9.164,0.32
				C6.503,625.182,6.495,627.682,8.106,627.596L8.106,627.596z"/>
		</g>
	</g>
	<path fill="none" stroke="#FFB640" stroke-width="0.5" stroke-miterlimit="10" d="M155.951,376.063"/>
	<path fill="none" stroke="#FFB640" stroke-width="0.5" stroke-miterlimit="10" d="M155.951,376.063"/>
	<path fill="none" stroke="#FFB640" stroke-width="2" stroke-miterlimit="10" d="M167.893,389.086c0,0-61.748,103.594-86.499,136.92
		C56.643,559.332,15.253,616,15.253,616"/>
	<g>
		<g>
			<path fill="#FFB640" d="M192.348,690.488c19.343-1.683,47.692,0.014,57.32-12.921c6.736-9.049,1.493-15.82,0.406-25.057
				c-1.407-11.717,4.828-19.677,15.354-24.057c21.489-8.512,53.884-2.8,42.602-35.628c-3.509-10.034-9.991-18.879-5.438-28.942
				c4.611-11.18,15.516-14.196,25.419-19.504c9.657-4.872,19.489-13.094,22.302-24.144c2.624-11.73-7.12-13.804-10.441-23.156
				c-6.758-16.473,9.961-23.665,16.994-34.048c9.004-13.862-15.53-24.316-27.174-19.996c-16.227,6.323-17.342,23.507-27.158,35.759
				c-11.484,14.182-36.585,1.684-46.938,19.953c-6.221,11.993,6.975,25.217,1.189,37.455c-4.553,10.063-19.996,9.934-27.971,16.908
				c-19.721,17.56,19.793,54.317-9.889,61.062c-11.773,2.522-26.912,0.841-36.932,8.381c-18.241,14.951-8.12,35.628,1.306,52.463
				C187.36,683.064,188.302,686.472,192.348,690.488"/>
		</g>
		<path fill="#FFB640" d="M347.004,445.951"/>
		<path fill="#FFB640" d="M347.004,445.951"/>
		<path fill="none" stroke="#394CD3" stroke-miterlimit="10" d="M338.328,459.233c0,0-58.711,105.344-82.482,139.376
			c-23.772,34.031-63.498,91.879-63.498,91.879"/>
		<line fill="none" stroke="#394CD3" stroke-miterlimit="10" x1="231.309" y1="556.823" x2="261.875" y2="589.086"/>
		<line fill="none" stroke="#394CD3" stroke-miterlimit="10" x1="266.703" y1="500.445" x2="300.098" y2="525.689"/>
		<line fill="none" stroke="#394CD3" stroke-miterlimit="10" x1="346.02" y1="516.654" x2="306.753" y2="513.944"/>
		<path fill="none" stroke="#394CD3" stroke-miterlimit="10" d="M306.653,606.413c0,0-52.332,3.104-53.638,2.364"/>
		<polyline fill="none" stroke="#394CD3" stroke-miterlimit="10" points="182.327,629.064 209.994,665.432 243.883,672.564 		"/>
		<line fill="none" stroke="#394CD3" stroke-miterlimit="10" x1="286.367" y1="587.446" x2="266.473" y2="608.356"/>
		<line fill="none" stroke="#394CD3" stroke-miterlimit="10" x1="252.508" y1="553.894" x2="248.738" y2="574.745"/>
		<polyline fill="none" stroke="#394CD3" stroke-miterlimit="10" points="287.162,498.82 287.787,516.989 268.863,514.888 		"/>
		<line fill="none" stroke="#394CD3" stroke-miterlimit="10" x1="329.229" y1="503.691" x2="322.631" y2="514.32"/>
		<line fill="none" stroke="#394CD3" stroke-miterlimit="10" x1="203.827" y1="628.986" x2="199.11" y2="650.835"/>
		<line fill="none" stroke="#394CD3" stroke-miterlimit="10" x1="183.923" y1="641.463" x2="192.608" y2="642.361"/>
		<line fill="none" stroke="#394CD3" stroke-miterlimit="10" x1="235.08" y1="656.658" x2="223.277" y2="668.36"/>
	</g>
	<g>
		<path fill="#0F0A2B" d="M404.924,379.27c0,0.001,1.018,0.986,2.725,2.927c1.709,1.939,4.133,4.818,6.931,8.714
			c2.789,3.906,5.991,8.816,8.939,15.122c2.906,6.285,5.682,14.115,6.17,23.772c0.244,4.798-0.192,10.032-1.616,15.275
			c-1.369,5.247-3.778,10.456-7.144,14.915c-0.417,0.56-0.838,1.117-1.273,1.666c-0.445,0.536-0.902,1.056-1.365,1.576
			c-0.913,1.059-1.899,2.025-2.904,2.977l-0.754,0.715l-0.095,0.088c0.863-1.042,0.194-0.245,0.366-0.458l-0.158,0.153l-0.316,0.307
			l-1.279,1.22c-0.813,0.757-1.63,1.519-2.451,2.284c-0.712,0.703-1.493,1.348-2.246,2.093c-0.757,0.769-1.518,1.541-2.283,2.316
			c-0.721,0.813-1.446,1.628-2.174,2.447c-0.719,0.836-1.354,1.72-2.056,2.6c-2.655,3.566-4.818,7.691-6.203,12.276
			c-1.413,4.576-2.032,9.545-2.245,14.613c-0.091,2.545-0.118,5.11-0.056,7.704c0.025,1.292,0.078,2.603,0.136,3.906l0.059,0.979
			l0.015,0.245l0.007,0.123c-0.008,0.261,0,0.143,0,0.232l0.019,0.491l0.073,1.965c0.06,1.327,0.184,2.595,0.211,3.974l-0.009,4.373
			c0.046,1.493-0.074,2.923-0.172,4.38c-0.118,1.456-0.101,2.936-0.372,4.407l-0.657,4.476l-1.092,4.48
			c-0.101,0.374-0.184,0.757-0.301,1.126l-0.385,1.101l-0.791,2.213c-0.286,0.729-0.52,1.495-0.861,2.199l-1.016,2.131
			c-2.759,5.677-6.6,10.82-10.841,15.028c-4.246,4.211-8.715,7.779-13.096,11.074c-4.373,3.198-8.73,6.181-12.946,8.873
			c-1,0.644-1.996,1.285-2.987,1.923c-1.024,0.661-2.05,1.31-3.078,1.943c-0.499,0.315-1.056,0.645-1.502,0.947l-1.285,0.871
			c-0.855,0.577-1.705,1.151-2.567,1.696c-0.862,0.519-1.704,1.167-2.566,1.751c-0.86,0.589-1.716,1.176-2.566,1.758
			c-0.885,0.551-1.65,1.188-2.464,1.778c-0.815,0.587-1.625,1.17-2.43,1.748c-1.579,1.18-3.04,2.402-4.57,3.553
			c-1.458,1.192-2.795,2.438-4.227,3.592c-1.327,1.217-2.54,2.481-3.833,3.67c-1.198,1.237-2.303,2.504-3.455,3.726
			c-4.371,4.991-7.652,10.188-10.13,15.253c-0.312,0.638-0.618,1.266-0.919,1.884c-0.153,0.312-0.304,0.621-0.455,0.928
			c-0.139,0.312-0.234,0.631-0.363,0.941c-0.493,1.267-0.967,2.487-1.423,3.659c-0.121,0.299-0.24,0.594-0.358,0.885
			c-0.103,0.296-0.18,0.594-0.271,0.888c-0.176,0.591-0.348,1.17-0.516,1.735c-0.331,1.139-0.699,2.236-1.024,3.292
			c-0.49,2.127-0.916,4.075-1.35,5.801c-0.239,0.862-0.339,1.667-0.471,2.41c-0.128,0.744-0.231,1.423-0.355,2.038
			c-0.233,1.242-0.412,2.194-0.532,2.835c-0.137,0.653-0.208,0.99-0.208,0.99l-2.604,0.424c0,0-0.149-0.313-0.439-0.921
			c-0.273-0.619-0.678-1.537-1.206-2.735c-0.271-0.604-0.539-1.287-0.849-2.043c-0.312-0.756-0.655-1.585-0.894-2.507
			c-0.542-1.835-1.147-3.98-1.735-6.438c-0.193-1.233-0.423-2.548-0.608-3.939c-0.095-0.699-0.192-1.415-0.292-2.146
			c-0.046-0.367-0.105-0.74-0.141-1.118c-0.016-0.377-0.031-0.758-0.046-1.144c-0.037-1.559-0.075-3.183-0.114-4.866
			c-0.006-0.425-0.02-0.855,0.003-1.286c0.037-0.43,0.074-0.862,0.112-1.299c0.08-0.881,0.16-1.775,0.242-2.686
			c0.746-7.269,2.975-15.595,7.263-23.759c4.268-8.157,10.457-16.057,17.965-22.89c1.906-1.644,3.831-3.379,5.872-4.934
			c1.031-0.76,2.069-1.523,3.112-2.293c1.043-0.771,2.094-1.523,3.249-2.242c1.127-0.733,2.279-1.444,3.434-2.159l1.74-1.07
			c0.571-0.335,1.069-0.588,1.609-0.887c1.059-0.581,2.128-1.153,3.209-1.718l1.768-0.938l1.602-0.81
			c4.343-2.143,8.564-4.288,12.744-6.492c4.091-2.228,7.983-4.602,11.553-7.138c3.558-2.549,6.738-5.216,9.704-8.265l1.128-1.148
			c0.389-0.381,0.677-0.823,1.027-1.235l1.039-1.259l0.53-0.637c0.169-0.218,0.307-0.454,0.464-0.682l1.895-2.788l1.647-3.042
			c0.603-1.007,0.967-2.142,1.455-3.233c0.445-1.106,0.943-2.227,1.244-3.345l1.016-3.41c0.277-1.223,0.488-2.57,0.724-3.849
			l0.306-1.941l0.077-0.485c0.004,0.009,0.018-0.19,0.013-0.012l0.017-0.121l0.032-0.243l0.131-0.974
			c0.154-1.299,0.296-2.59,0.424-3.893c0.249-2.6,0.459-5.209,0.628-7.818c0.366-5.231,0.593-10.49,1.031-15.865
			c0.442-5.363,1.172-10.875,2.525-16.285c0.367-1.332,0.696-2.702,1.118-4.018c0.438-1.304,0.87-2.624,1.331-3.928
			c0.499-1.267,1.009-2.533,1.537-3.793c0.545-1.262,1.19-2.523,1.821-3.767l0.479-0.937l0.45-0.857
			c0.279-0.527,0.568-1.046,0.858-1.561l0.873-1.537l0.22-0.381l0.11-0.19c0.216-0.27-0.408,0.47,0.5-0.629l0.045-0.078l0.365-0.613
			c0.49-0.811,0.998-1.591,1.418-2.387l0.675-1.159c0.194-0.395,0.4-0.777,0.608-1.155c1.624-3.046,2.891-5.9,3.871-8.798
			c0.989-2.891,1.549-5.865,1.857-8.925c0.62-6.108,0.079-12.512-0.679-18.426c-0.773-5.923-1.705-11.374-2.386-15.956
			c-0.698-4.586-1.169-8.31-1.409-10.881c-0.249-2.568-0.274-3.987-0.274-3.986L404.924,379.27z"/>
	</g>
	<g>
		<path fill="#0F0A2B" d="M1036.233,495.611c0,0,0.222,0.043,0.65,0.128c0.43,0.108,1.033,0.206,1.873,0.466
			c0.848,0.288,1.932,0.676,3.09,1.313c1.188,0.609,2.502,1.522,3.84,2.827c1.332,1.313,2.577,3.136,3.477,5.313
			c0.886,2.182,1.366,4.663,1.512,7.134c0.303,4.958-0.57,9.891-0.731,14.217c-0.029,1.048-0.062,2.103,0.047,3.021
			c0.022,0.489,0.11,0.897,0.153,1.35c0.108,0.4,0.146,0.84,0.276,1.205c0.431,1.522,1.061,2.797,2.209,4.275l0.086,0.106
			c0.012,0.01,0.016,0.01,0.023,0.016l0.038,0.028c0.024,0.021,0.041,0.05,0.058,0.081c0.017,0.032,0.03,0.068,0.043,0.11
			c0.075,0.064,0.152,0.127,0.223,0.199c0.151,0.138,0.273,0.296,0.446,0.439l0.553,0.43c0.789,0.589,1.744,1.202,2.897,1.768
			c2.256,1.187,5.091,2.187,8.083,3.083c3.001,0.906,6.215,1.611,9.502,2.253c3.291,0.634,6.678,1.168,10.168,1.995
			c1.739,0.455,3.519,0.997,5.284,1.813c1.768,0.785,3.545,1.938,5.04,3.505c1.512,1.552,2.665,3.513,3.42,5.553
			c0.134,0.644,0.05,0.223,0.085,0.386l0.022,0.078l0.047,0.153l0.096,0.308l0.095,0.309c0.033,0.079,0.06,0.339,0.085,0.502
			c0.052,0.372,0.092,0.752,0.121,1.133c0.023,0.366,0.011,0.642,0.011,0.97c-0.01,1.274-0.229,2.445-0.487,3.514
			c-0.517,2.121-1.207,3.881-1.572,5.305c-0.217,0.729-0.306,1.328-0.357,1.856c-0.009,0.496,0.022,0.898,0.153,1.143l0.033,0.094
			l0.013,0.047c0.01,0.307-0.008-0.398,0.001-0.291l0.015,0.078l0.118,0.629l0.237,1.256c0.108,0.144,0.196,0.278,0.267,0.412
			c0.041,0.068,0.053,0.127,0.104,0.205l0.168,0.24c0.169,0.36,0.419,0.556,0.582,0.79c0.131,0.08,0.245,0.159,0.33,0.258
			c0.08,0.102,0.256,0.155,0.355,0.247c0.512,0.316,1.225,0.698,2.24,1.05c1.055,0.342,2.303,0.661,3.688,0.942
			c2.808,0.574,6.098,0.995,9.516,1.84c2.778,0.568,5.755,1.101,8.865,1.808c3.098,0.71,6.352,1.556,9.703,2.969
			c3.324,1.394,6.829,3.464,9.608,6.369c0.667,0.747,1.313,1.499,1.934,2.249c0.546,0.803,1.084,1.598,1.577,2.403
			c0.865,1.635,1.667,3.276,2.125,4.864c0.132,0.397,0.256,0.794,0.374,1.189l0.257,0.851l0.083,0.466
			c0.111,0.618,0.221,1.23,0.329,1.835c0.207,1.009,0.359,2.021,0.598,3.005c0.456,1.949,0.943,3.66,1.575,5.15
			c1.215,2.95,3.221,5.272,5.288,7.165c2.064,1.869,4.006,3.253,5.293,4.221c1.316,0.95,2.022,1.496,2.022,1.496l-0.518,1.49
			c0,0-0.892-0.036-2.572-0.177c-1.665-0.223-4.134-0.457-7.295-1.453c-1.573-0.528-3.348-1.188-5.208-2.295
			c-1.848-1.082-3.831-2.571-5.547-4.509c-1.729-1.92-3.243-4.169-4.5-6.539c-0.641-1.17-1.234-2.425-1.807-3.729
			c-0.243-0.563-0.489-1.134-0.738-1.711l-0.188-0.435c-0.087-0.26,0.092,0.292,0.064,0.224l-0.022-0.035l-0.046-0.071l-0.091-0.142
			c-0.123-0.188-0.239-0.379-0.35-0.571c-1.913-3.156-3.892-4.408-8.162-5.809c-2.118-0.662-4.712-1.261-7.591-1.929
			c-2.873-0.665-6.033-1.435-9.425-2.483c-2.701-0.967-5.793-1.76-9.305-2.967c-1.771-0.616-3.659-1.348-5.641-2.349
			c-1.99-1.045-4.148-2.45-6.019-4.489c-0.453-0.534-0.934-1.023-1.323-1.618c-0.399-0.586-0.769-1.192-1.123-1.8
			c-0.592-1.267-1.154-2.553-1.412-3.833l-0.223-0.963c-0.066-0.326-0.097-0.691-0.141-1.035c-0.077-0.698-0.138-1.395-0.178-2.083
			l0.259-3.256c0.194-1.453,0.652-2.71,1.131-3.833c0.499-1.077,1.049-2.055,1.582-2.851c1.091-1.646,2.082-2.855,2.771-3.92
			c0.329-0.524,0.603-0.997,0.767-1.416l0.131-0.298c0.023-0.044,0.059-0.09,0.104-0.143c0.015-0.048,0.065-0.003,0.058-0.134
			v-0.322l0.001-0.322l-0.001-0.161l-0.001-0.08c0.025,0.111-0.06-0.363,0.057,0.229c-0.093-1.252-0.413-2.425-1.056-3.489
			c-1.253-2.17-4.045-3.621-7-4.441c-3.004-0.83-6.236-1.098-9.476-1.07c-3.248,0.026-6.507,0.315-9.849,0.557
			c-3.344,0.222-6.753,0.387-10.408-0.109c-1.813-0.223-3.702-0.714-5.602-1.446l-1.422-0.635c-0.473-0.229-0.946-0.518-1.416-0.783
			l-0.696-0.421l-0.8-0.605l-0.782-0.633l-0.381-0.327l-0.185-0.162l-0.1-0.095c-2.916-2.723-5.029-6.671-5.77-10.521
			c-0.845-3.871-0.475-7.326-0.035-10.255c0.534-2.912,1.227-5.383,1.889-7.563c0.636-2.188,1.233-4.061,1.61-5.729
			c0.78-3.322,0.808-5.728,0.046-8.013c-0.767-2.245-2.168-4.09-3.068-5.272c-0.48-0.632-0.968-1.096-1.236-1.425
			c-0.28-0.334-0.425-0.507-0.425-0.507L1036.233,495.611z"/>
	</g>
	<path fill="none" stroke="#FFB640" stroke-width="2" stroke-miterlimit="10" d="M669.656,529.909c0,0-42.079,32.155-46.002,58.47
		c-3.922,26.314-4.292,33.166-2.699,48.514c1.592,15.347,13.525,24.783,16.014,15.489c2.487-9.294,5.364-30.631,14.673-49.462
		c9.308-18.831,7.771-19.154,20.079-47.17C684.028,527.731,680.694,520.681,669.656,529.909z"/>
	<path fill="none" stroke="#FFB640" stroke-width="2" stroke-miterlimit="10" d="M678.274,527.101c0,0-25.957,34.388-34.937,56.753
		c-8.98,22.364-15.253,52.227-14.434,61.06"/>
	<g>
		<path fill="#FFB640" d="M561.333,617.333c4.333-2,9.333-6.333,14.333-6.333c2.333,0,3.333,1.667,5.667,2
			c3.667,0.333,5-1.667,8-3.333c5.667-3.667,7-2.334,12.333,0c6.333,3,10-1,16.667-2C624,607,628.667,612.333,634,611
			c6-1.333,7.333-6.333,14.333-2.667c6.333,3,6.333,3,13,2.667c6.333-0.667,27.333,3.667,32,7.334c3.667,2.333-11,5.666-19,6.666
			c-7,1-15.667-1.333-22.667-1.667C644.333,623.333,637,624,630,624c-5,0-8-1.667-12.667-3.333c-8-2.334-18-2.334-26-1
			c-7,1.333-14,0.666-21,2.333"/>
	</g>
	<path fill="none" stroke="#FFB640" stroke-width="2" stroke-miterlimit="10" d="M647,551.667
		c-3.333-10-11.333-17.333-17.333-25.333c-8-10.667-14.667-18-16.667,0c-0.667,15.333,6.667,35.333,16.667,46.666"/>
	<path fill="none" stroke="#FFB640" stroke-width="2" stroke-miterlimit="10" d="M617.333,516.334
		c2.333,7.668,3.873,16.185,7,23.333c4.667,10.667,8.667,14,14,20.667"/>
	<path fill="none" stroke="#FFB640" stroke-width="2" stroke-miterlimit="10" d="M617.333,613.001c-0.667-7-5.333-14-8.667-20
		c-3.667-7.334-7.333-14.667-11-22c-4-8.334-10-15.667-13.667-24.334c-2.333-6-3.333-12-5.333-18c-1.667-5-4.667-9.666-8.667-3
		c-2,3.667-1,10-1,14c0.333,14,4,28.667,9.667,41.667c7.667,17.667,19,29.333,31,44"/>
	<path fill="none" stroke="#FFB640" stroke-width="2" stroke-miterlimit="10" d="M574,523.001c-0.333,19.333,7.667,37,15.667,54.333
		c7,14,18,25.333,25.333,39"/>
	<g>
		<path fill="#EBEDE4" d="M1217.334,618.668c5.666-1.667,11.333-4.334,17-5.334c7-1,12.333,0.667,19-2.333
			c8-3.667,14.666-8,24-6.667c4.666,0.667,7.333,1,12,1c5.666-0.333,8.666,3,14,3c4.333,0,8.333-1,12.333-0.333
			c2.667,0.333,5,1.667,7.333,1.667c4.667,0,9-2,13.334-1c5,1,8.666,3.333,13.666,3.333c4.667,0,8-2.667,12-3.333
			c4-0.667,7.667,2,11.334,2c3-0.334,3.333-2.334,5.666-3c3.334-0.667,10,1,13.667,1.666c5.667,1,10.667,3,17,2.667
			c10.333-1.333,17.333,1,27.667,2.667c6.333,1.333,13,1,19.333,2.333c4,0.667,6.667,2,9.667-0.333c3-2,1-4.667,5.666-6
			c5.667-1.334,12.334,2,17.667,3c4,1,9.667,0,12.333,3.333c1.667,2,2,8.333,2.334,10.667c-14.667,2.333-31,3-46,3.666
			c-14.334,0.667-28.667,1.667-43,1.667c-24.334,0-49-4-73.334-5c-21.666-1-43.333-1-64.666-2c-14-0.333-27.667-1-41.334,0.667
			c-13.666,1.666-27.333,2.666-41,2"/>
	</g>
	<g>
		<path fill="none" stroke="#FFB640" stroke-width="2.7405" stroke-miterlimit="10" d="M1678.608,6.915
			c0,0-2.474,32.263-7.435,40.95c-4.962,8.688-30.063,13.849-35.887,13.182c-5.822-0.668-16.317,14.608-15.742,22.913
			c0.572,8.303,2.109,36.651,4.496,43.332c2.389,6.682,0.299,44.48,0.299,44.48"/>
		<path fill="none" stroke="#FFB640" stroke-width="2.7405" stroke-miterlimit="10" d="M1701.713,28.529
			c0,0-8.783-3.243-13.172,1.34s-15.555,13.271-15.555,13.271"/>
		<path fill="none" stroke="#FFB640" stroke-width="2.7405" stroke-miterlimit="10" d="M1664.768,7.874
			c2.199,7.015,4.49,12.311,6.305,13.791c1.813,1.479,5.012,2.862,5.012,2.862"/>
		<path fill="none" stroke="#FFB640" stroke-width="2.7405" stroke-miterlimit="10" d="M1655.545-43.478
			c0,0-4.723,10.598-8.684,13.653c-3.959,3.056-13.886,4.918-14.981,12.269s-2.239,18.661-1.759,31.786
			c0.482,13.124,2.923,46.865,2.923,46.865"/>
		<path fill="none" stroke="#FFB640" stroke-width="2.7405" stroke-miterlimit="10" d="M1610.021-18.074
			c4.774,13.36,2.676,13.935,7.975,17.848c5.299,3.911,11.074,5.437,11.074,5.437"/>
		<path fill="none" stroke="#FFB640" stroke-width="2.7405" stroke-miterlimit="10" d="M1638.984-43.186
			c0.814,10.214,3.438,15.701,3.438,15.701"/>
		<path fill="none" stroke="#FFB640" stroke-width="2.7405" stroke-miterlimit="10" d="M1531.43,25.66
			c2.865,4.296,14.75,16.845,22.483,20.373c7.731,3.53,13.841,5.247,21.86,9.826c8.019,4.58,43.867,32.586,43.867,32.586"/>
		<path fill="none" stroke="#FFB640" stroke-width="2.7405" stroke-miterlimit="10" d="M1596.096,28.031
			c3.678,5.201,7.305,11.262,14.275,13.024c6.967,1.765,20.281-2.151,20.281-2.151"/>
		<path fill="none" stroke="#FFB640" stroke-width="2.7405" stroke-miterlimit="10" d="M1613.517,30.89
			c-0.095,1.719,4.203,11.263,4.203,11.263"/>
		<path fill="none" stroke="#FFB640" stroke-width="2.7405" stroke-miterlimit="10" d="M1576.102,34.337
			c1.385,3.005,1.77,8.543,0.432,10.882c-1.334,2.338-8.971,6.396-8.971,6.396"/>
		<path fill="none" stroke="#FFB640" stroke-width="2.7405" stroke-miterlimit="10" d="M1660.055,55.696
			c0,0,3.633,15.365,5.924,17.56c2.291,2.196,12.695,4.149,12.695,4.149"/>
		<path fill="none" stroke="#FFB640" stroke-width="2.7405" stroke-miterlimit="10" d="M1530.621,43.366
			c9.309,6.204,15.753,8.109,18.234,6.869c2.48-1.242,5.058-4.202,5.058-4.202"/>
		<path fill="none" stroke="#FFB640" stroke-width="2.7405" stroke-miterlimit="10" d="M1693.027,26.671
			c0,0-2.532-7.207,1.096-10.452"/>
		<path fill="none" stroke="#FFB640" stroke-width="2.7405" stroke-miterlimit="10" d="M1604.632-4.758
			c5.966,4.293,10.69,3.004,10.69,3.004"/>
		<path fill="none" stroke="#FFB640" stroke-width="2.7405" stroke-miterlimit="10" d="M1583.701,77.668
			c7.35,1.098,11.311,1.143,12.218,0.332c0.907-0.813,4.39-4.582,4.39-4.582"/>
	</g>
	<g>
		<path fill="none" stroke="#EBEDE4" stroke-width="2" stroke-miterlimit="10" d="M1469.513,510.979c0,0-1.964,25.618-5.903,32.516
			c-3.939,6.899-23.871,10.996-28.495,10.467c-4.623-0.53-12.956,11.6-12.5,18.194c0.455,6.592,1.676,29.102,3.57,34.406
			c1.896,5.306,0.237,35.319,0.237,35.319"/>
		<path fill="none" stroke="#EBEDE4" stroke-width="2" stroke-miterlimit="10" d="M1487.858,528.141c0,0-6.974-2.575-10.459,1.064
			c-3.484,3.639-12.351,10.538-12.351,10.538"/>
		<path fill="none" stroke="#EBEDE4" stroke-width="2" stroke-miterlimit="10" d="M1458.523,511.74
			c1.746,5.569,3.565,9.774,5.006,10.95c1.439,1.175,3.979,2.272,3.979,2.272"/>
		<path fill="none" stroke="#EBEDE4" stroke-width="2" stroke-miterlimit="10" d="M1451.2,470.965c0,0-3.75,8.415-6.896,10.842
			c-3.144,2.426-11.025,3.904-11.896,9.741s-1.778,14.817-1.396,25.239c0.383,10.421,2.32,37.213,2.32,37.213"/>
		<path fill="none" stroke="#EBEDE4" stroke-width="2" stroke-miterlimit="10" d="M1415.053,491.137
			c3.791,10.608,2.125,11.064,6.332,14.171c4.208,3.105,8.793,4.317,8.793,4.317"/>
		<path fill="none" stroke="#EBEDE4" stroke-width="2" stroke-miterlimit="10" d="M1438.05,471.197
			c0.647,8.11,2.73,12.467,2.73,12.467"/>
		<path fill="none" stroke="#EBEDE4" stroke-width="2" stroke-miterlimit="10" d="M1352.648,525.863
			c2.274,3.41,11.712,13.375,17.853,16.177c6.139,2.803,10.99,4.166,17.357,7.802c6.367,3.637,34.832,25.875,34.832,25.875"/>
		<path fill="none" stroke="#EBEDE4" stroke-width="2" stroke-miterlimit="10" d="M1403.995,527.746
			c2.92,4.129,5.801,8.941,11.335,10.342c5.532,1.4,16.104-1.709,16.104-1.709"/>
		<path fill="none" stroke="#EBEDE4" stroke-width="2" stroke-miterlimit="10" d="M1417.828,530.016
			c-0.075,1.364,3.337,8.942,3.337,8.942"/>
		<path fill="none" stroke="#EBEDE4" stroke-width="2" stroke-miterlimit="10" d="M1388.119,532.753
			c1.1,2.386,1.405,6.783,0.343,8.64c-1.06,1.856-7.123,5.079-7.123,5.079"/>
		<path fill="none" stroke="#EBEDE4" stroke-width="2" stroke-miterlimit="10" d="M1454.781,549.713c0,0,2.884,12.2,4.703,13.942
			c1.819,1.744,10.081,3.295,10.081,3.295"/>
		<path fill="none" stroke="#EBEDE4" stroke-width="2" stroke-miterlimit="10" d="M1352.006,539.922
			c7.392,4.927,12.509,6.439,14.479,5.454c1.969-0.986,4.016-3.336,4.016-3.336"/>
		<path fill="none" stroke="#EBEDE4" stroke-width="2" stroke-miterlimit="10" d="M1480.962,526.665c0,0-2.011-5.723,0.87-8.299"/>
		<path fill="none" stroke="#EBEDE4" stroke-width="2" stroke-miterlimit="10" d="M1410.773,501.71
			c4.737,3.409,8.488,2.385,8.488,2.385"/>
		<path fill="none" stroke="#EBEDE4" stroke-width="2" stroke-miterlimit="10" d="M1394.153,567.159
			c5.836,0.871,8.981,0.907,9.701,0.264c0.721-0.646,3.486-3.639,3.486-3.639"/>
	</g>
	<g>
		<path fill="#0F0A2B" d="M121.999,705.749c0,0-0.022-0.237-0.065-0.696c-0.055-0.443-0.032-1.174-0.211-1.972
			c-0.23-1.604-0.778-3.996-1.92-6.834c-1.077-2.889-2.896-6.206-4.562-10.813c-0.417-1.161-0.774-2.418-1.08-3.779
			c-0.122-0.698-0.311-1.377-0.373-2.131c-0.038-0.372-0.077-0.747-0.115-1.124l-0.028-0.284l-0.007-0.071
			c-0.004,0.023,0.007-0.469,0.002-0.288l-0.003-0.118l-0.01-0.475c-0.007-0.316-0.014-0.636-0.021-0.957
			c-0.006-0.322-0.022-0.623,0.008-1.049c0.041-0.786,0.088-1.617,0.177-2.398c0.109-0.761,0.2-1.537,0.338-2.314
			c0.168-0.77,0.301-1.563,0.517-2.34c1.642-6.282,5.345-12.321,9.835-17.188c2.229-2.481,4.659-4.735,7.069-6.968
			c2.43-2.224,4.827-4.458,6.983-6.938c2.17-2.468,4.006-5.257,5.245-8.379c0.588-1.567,1.068-3.198,1.323-4.887l0.1-0.55
			l0.05-0.677c0.02-0.434,0.098-0.945,0.067-1.312l-0.021-1.188l-0.137-1.27c-0.426-3.411-1.595-6.856-2.66-10.504
			c-0.527-1.837-1.01-3.745-1.331-5.769c-0.306-2.032-0.377-4.196-0.088-6.394l0.291-1.646l0.295-1.403l0.294-1.365
			c0.152-0.508,0.374-1.084,0.571-1.626c0.208-0.546,0.418-1.11,0.645-1.644l0.73-1.438c0.253-0.473,0.483-0.979,0.762-1.426
			l0.853-1.337c2.337-3.534,5.186-6.405,7.946-8.96c2.77-2.554,5.477-4.86,7.747-7.19c2.278-2.319,4.091-4.636,5.163-6.883
			l0.113-0.208l0.057-0.104l0.029-0.052c0.056-0.117-0.388,0.862-0.187,0.41l0.222-0.609l0.443-1.217
			c0.106-0.251,0.051-0.264,0.075-0.384l0.033-0.285c0.017-0.093,0.038-0.184,0.062-0.274l0.039-0.136l0.018-0.205
			c0.037-0.556,0.158-1.076,0.117-1.675c-0.005-0.292,0.014-0.572,0-0.872c-0.035-0.309-0.048-0.617-0.069-0.925
			c-0.007-0.599-0.169-1.295-0.234-1.935c-0.137-0.692-0.259-1.356-0.417-2.081c-0.297-1.439-0.667-2.929-1.054-4.54
			c-0.197-0.766-0.367-1.652-0.54-2.468c-0.159-0.87-0.324-1.735-0.45-2.645c-0.106-0.943-0.249-1.825-0.268-2.837
			c-0.021-0.492-0.044-0.974-0.04-1.468c0.033-0.514,0.066-1.026,0.099-1.535l0.06-0.76c0.036-0.258,0.089-0.521,0.135-0.78
			c0.102-0.517,0.204-1.031,0.305-1.544l0.041-0.19c0.093-0.392,0.038-0.146,0.063-0.251l0.021-0.065l0.083-0.263l0.167-0.523
			l0.336-1.038l0.17-0.514l0.286-0.686c0.204-0.46,0.407-0.918,0.608-1.374c0.208-0.448,0.415-0.909,0.631-1.326
			c0.225-0.365,0.448-0.729,0.67-1.091c0.86-1.488,1.894-2.691,2.854-3.91c1.022-1.101,2.021-2.202,3.047-3.103
			c2.017-1.912,4.01-3.405,5.847-4.813c3.69-2.738,6.815-4.931,9.256-6.908c2.466-1.956,4.121-3.741,5.286-5
			c1.041-1.316,1.646-2.049,1.646-2.049l1.055,0.473c0,0-0.245,0.914-0.797,2.684c-0.351,0.833-0.78,1.895-1.382,3.087
			c-0.312,0.587-0.658,1.216-1.044,1.882c-0.391,0.659-0.849,1.315-1.316,2.039c-1.893,2.848-4.568,5.993-7.514,9.374
			c-1.444,1.691-2.983,3.465-4.356,5.319c-0.739,0.918-1.307,1.896-1.975,2.846c-0.533,0.98-1.136,1.961-1.516,2.968l-0.339,0.745
			l-0.176,0.629c-0.06,0.205-0.125,0.406-0.195,0.605c-0.035,0.107-0.073,0.183-0.109,0.315l-0.101,0.533l-0.21,1.07l-0.108,0.538
			l-0.055,0.27l-0.014,0.068c0.016-0.06-0.055,0.229,0.032-0.116l-0.001,0.081c-0.004,0.219-0.014,0.435-0.031,0.648l-0.025,0.323
			l0.028,0.361l0.035,0.72l0.115,0.801c0.039,0.514,0.205,1.14,0.315,1.728c0.139,0.614,0.322,1.27,0.498,1.932
			c0.207,0.705,0.415,1.415,0.624,2.13c0.845,2.975,1.989,6.38,2.337,10.586c0.038,0.525,0.083,1.053,0.107,1.582
			c0.011,0.54-0.02,1.103-0.034,1.654c0.004,1.097-0.199,2.251-0.362,3.388c-0.194,1.137-0.65,2.664-1.021,3.696l-0.513,1.188
			l-0.258,0.597c0.18-0.402-0.279,0.63-0.253,0.558l-0.053,0.089l-0.105,0.178l-0.212,0.355c-2.218,3.892-5.21,6.889-8.161,9.417
			c-2.974,2.531-5.977,4.683-8.794,6.814c-2.815,2.13-5.487,4.185-7.718,6.459l-0.84,0.854c-0.28,0.287-0.492,0.598-0.746,0.896
			l-0.745,0.911l-0.567,0.853c-0.193,0.296-0.404,0.541-0.608,0.886l-0.582,1.27c-0.184,0.41-0.409,0.878-0.56,1.24l-0.437,1.035
			c-0.496,1.424-0.803,2.985-0.89,4.648c-0.045,1.669,0.097,3.412,0.347,5.182c0.517,3.555,1.494,7.18,1.924,11.023l0.129,1.45
			l0.049,1.538c0.033,0.542-0.028,0.933-0.039,1.404l-0.034,0.678l-0.088,0.794l-0.159,1.423c-0.063,0.473-0.162,0.94-0.242,1.41
			c-0.13,0.948-0.369,1.87-0.574,2.803c-0.918,3.694-2.322,7.263-4.016,10.561c-3.402,6.63-7.714,12.188-11.374,17.006
			c-1.848,2.419-3.524,4.694-4.938,6.911c-1.397,2.229-2.51,4.419-3.29,6.617c-0.182,0.555-0.362,1.103-0.54,1.645
			c-0.159,0.55-0.28,1.103-0.425,1.646c-0.123,0.53-0.184,1.012-0.306,1.514c-0.063,0.218-0.095,0.562-0.131,0.881
			c-0.037,0.319-0.074,0.636-0.11,0.951l-0.054,0.472l-0.014,0.117c-0.006,0.22,0-0.232,0-0.17l-0.001,0.046l-0.006,0.185
			l-0.029,0.735c-0.048,0.482,0.01,1.003,0.004,1.498c0.04,1.011,0.177,2.033,0.31,3.062c0.645,4.122,1.639,8.19,1.86,11.667
			c0.289,3.491-0.075,6.247-0.58,8.1c-0.208,0.942-0.491,1.519-0.637,1.967c-0.167,0.43-0.254,0.651-0.254,0.651L121.999,705.749z"
			/>
	</g>
	<g>
		<path fill="#EBEDE4" d="M1283.103,647.161c-5.263-14.733,5.787-28.939-1.054-43.146c-4.209-8.418-9.471-14.731-8.418-24.729
			c0.526-7.365,7.366-14.732,5.788-21.572c-2.105-7.892-9.471-9.997-8.419-19.994c1.053-6.84,7.893-13.68,7.366-20.521
			c0-7.365-8.418-10.522-9.997-18.415c-0.526-4.735,4.209-11.575,2.631-15.784c-4.735-9.998-11.575,2.104-10.523,8.418
			c0.526,5.788,5.263,10.523,5.788,16.837c1.053,12.102-11.05,21.047-8.944,34.2c1.578,7.367,7.365,11.576,9.471,18.416
			c2.104,5.788,0.526,12.102-1.052,17.889c-1.579,5.789-4.21,11.05-3.157,16.838c1.052,6.313,5.787,11.049,7.366,16.837
			c2.104,7.366,0.525,15.784,0.525,23.15c0,10.523,5.788,14.206,8.419,23.678"/>
	</g>
	<g>
		<path fill="#0F0A2B" d="M-78.864-78.764c0,0,20.541-5.066,30.361-2.622c9.82,2.445,26.489,9.636,26.489,9.636
			s-20.629,2.311-31.022,0.987C-63.428-72.086-78.864-78.764-78.864-78.764z"/>
		<path fill="#0F0A2B" d="M-81.958-5.722c0,0,17.707-7.874,27.118-7.455c9.411,0.42,25.977,3.745,25.977,3.745
			s-18.323,5.521-28.038,6.164C-66.615-2.626-81.958-5.722-81.958-5.722z"/>
		<path fill="#0F0A2B" d="M-23.05-72.101c0,0,20.054-6.496,30.059-4.751c10.005,1.743,27.249,7.733,27.249,7.733
			s-20.378,3.757-30.859,3.171C-7.082-66.534-23.05-72.101-23.05-72.101z"/>
		<path fill="#0F0A2B" d="M-29.98-9.654c0,0,21.159-1.954,30.394,1.918S24.775,5.712,24.775,5.712S4.027,4.933-5.975,2.08
			C-15.977-0.769-29.98-9.654-29.98-9.654z"/>
		<path fill="#0F0A2B" d="M-77.136-95.737c0,0,20.938-3.436,30.481-0.227c9.544,3.209,25.452,11.686,25.452,11.686
			s-20.762,0.683-30.982-1.454C-62.407-87.868-77.136-95.737-77.136-95.737z"/>
		<path fill="#0F0A2B" d="M-21.383-84.554c0,0,18.797-6.692,28.333-5.26c9.536,1.435,26.065,6.764,26.065,6.764
			s-19.191,4.079-29.141,3.765C-6.075-79.6-21.383-84.554-21.383-84.554z"/>
		<path fill="#0F0A2B" d="M-66.78-110.676c0,0,18.708,0.524,26.401,4.649c7.694,4.123,19.972,13.54,19.972,13.54
			s-18.074-2.737-26.542-6.098C-55.416-101.941-66.78-110.676-66.78-110.676z"/>
		<path fill="#0F0A2B" d="M-20.35-92.514c0,0,17.003-7.192,25.946-6.675c8.942,0.517,24.628,3.862,24.628,3.862
			S12.684-90.36,3.431-89.881C-5.822-89.398-20.35-92.514-20.35-92.514z"/>
		<path fill="#0F0A2B" d="M-30.779,0.299c0,0,15.135-2.003,21.624,1.172c6.49,3.173,17.04,11.136,17.04,11.136
			S-6.89,12.259-13.952,9.973C-21.013,7.688-30.779,0.299-30.779,0.299z"/>
		<path fill="#0F0A2B" d="M-71.133,5.196c0,0,12.615-7.886,20.003-7.667c7.39,0.219,20.777,3.078,20.777,3.078
			S-43.797,6.25-51.264,7.054C-58.73,7.859-71.133,5.196-71.133,5.196z"/>
		<path fill="#0F0A2B" d="M-64.355,15.358c0,0,8.632-8.395,14.736-9.061c6.105-0.668,17.698,0.288,17.698,0.288
			s-9.798,6.52-15.745,8.092C-53.612,16.256-64.355,15.358-64.355,15.358z"/>
		<path fill="#0F0A2B" d="M-57.84,23.008c0,0,5.403-7.234,10.081-7.908c4.678-0.68,13.924-0.091,13.924-0.091
			s-6.622,5.677-11.029,7.113C-49.269,23.563-57.84,23.008-57.84,23.008z"/>
		<path fill="#0F0A2B" d="M-31.744,15.72c0,0,9.542-1.133,13.166,1.604c3.628,2.731,9.2,9.416,9.2,9.416s-9.046-0.733-13.126-2.776
			C-26.586,21.92-31.744,15.72-31.744,15.72z"/>
		<path fill="#0F0A2B" d="M-31.468,6.18c0,0,12.603,0.578,17.052,4.392c4.451,3.813,11.02,12.488,11.02,12.488
			s-11.76-2.6-16.876-5.718C-25.392,14.229-31.468,6.18-31.468,6.18z"/>
		<path fill="#0F0A2B" d="M-18.503-140.701c0,0,6.258,16.035,4.823,24.04c-1.434,8.005-6.631,21.803-6.631,21.803
			s-3.76-16.298-3.391-24.682C-23.335-127.924-18.503-140.701-18.503-140.701z"/>
		<g>
			<path fill="#0F0A2B" d="M-19.345-102.719c0,0-0.045,0.749-0.129,2.154c-0.094,1.404-0.198,3.467-0.397,6.087
				c-0.192,2.62-0.426,5.802-0.693,9.451c-0.266,3.649-0.581,7.767-0.989,12.252c-0.795,8.972-1.711,19.441-2.874,30.642
				c-0.608,5.598-1.236,11.381-1.875,17.259c-0.706,5.87-1.422,11.833-2.14,17.796c-0.799,5.954-1.531,11.915-2.38,17.769
				c-0.829,5.855-1.652,11.616-2.559,17.177c-0.868,5.565-1.747,10.939-2.705,16.016c-0.462,2.54-0.911,5.012-1.346,7.402
				c-0.433,2.39-0.94,4.685-1.379,6.896c-0.453,2.208-0.887,4.323-1.3,6.336c-0.41,2.012-0.93,3.896-1.348,5.679
				c-0.435,1.778-0.842,3.443-1.219,4.983c-0.188,0.77-0.369,1.507-0.541,2.212c-0.203,0.698-0.397,1.364-0.581,1.995
				c-1.512,5.035-2.375,7.912-2.375,7.912s0.705-2.917,1.938-8.023c0.156-0.637,0.32-1.308,0.492-2.011
				c0.142-0.711,0.29-1.456,0.444-2.231c0.309-1.552,0.643-3.229,1-5.021c0.757-3.573,1.422-7.645,2.209-12.072
				c0.379-2.217,0.824-4.516,1.192-6.913c0.37-2.396,0.753-4.874,1.146-7.421c0.822-5.087,1.535-10.478,2.354-16.04
				c0.847-5.559,1.534-11.331,2.36-17.178c0.822-5.847,1.522-11.807,2.299-17.755c0.743-5.954,1.486-11.907,2.217-17.769
				c0.706-5.864,1.399-11.636,2.071-17.222c1.319-11.175,2.549-21.606,3.604-30.547C-20.746-90.793-19.345-102.719-19.345-102.719z"
				/>
		</g>
		<path fill="#0F0A2B" d="M-49.71-132.083c0,0,2.833,11.949,5.798,16.36c5.326,7.919,23.84,21.02,23.84,21.02
			s-6.414-19.048-10.54-24.017C-37.156-126.6-49.71-132.083-49.71-132.083z"/>
		<path fill="#0F0A2B" d="M-19.922-95.813c0,0,10.976-1.138,15.218-3.2c7.619-3.706,21.19-18.137,21.19-18.137
			s-17.684,3.439-22.542,6.436C-13.761-105.965-19.922-95.813-19.922-95.813z"/>
		<path fill="#0F0A2B" d="M-79.294-66.801c0,0,20.957-1.953,29.84-0.582c8.884,1.371,25.441,9.301,25.441,9.301
			s-13.608,4.478-21.672,4.183c-8.063-0.295-18.397-4.01-23.795-6.963C-74.877-63.815-79.294-66.801-79.294-66.801z"/>
		<path fill="#0F0A2B" d="M33.337-51.599c0,0-21.537,2.877-30.776,1.898c-9.239-0.978-26.726-8.165-26.726-8.165
			S-10.339-62.938-2-63c8.339-0.062,19.191,3.193,24.911,5.903C28.63-54.385,33.337-51.599,33.337-51.599z"/>
		<path fill="#0F0A2B" d="M-79.169-53.199c0,0,13.355-0.606,27.744,1.658c14.389,2.266,26.276,8.785,26.276,8.785
			s-13.428,4.24-27.035,2.858c-13.607-1.383-30.873-11.18-33.161-12.016C-87.632-52.749-79.169-53.199-79.169-53.199z"/>
		<path fill="#0F0A2B" d="M-18.725-44.836c0,0,13.136-2.327,27.747-1.947c14.611,0.378,27.415,5.289,27.415,5.289
			s-12.634,5.932-26.333,6.323c-13.698,0.392-32.347-7.063-34.744-7.596C-27.037-43.295-18.725-44.836-18.725-44.836z"/>
		<path fill="#0F0A2B" d="M-19.867-32.513c0,0,11.804-1.787,24.894-0.833c13.091,0.955,24.498,6.326,24.498,6.326
			S18.12-21.644,5.839-21.798c-12.283-0.155-28.894-8.277-31.036-8.898C-27.339-31.317-19.867-32.513-19.867-32.513z"/>
		<path fill="#0F0A2B" d="M-32.967-33.704c0,0-11.884-3.813-25.608-5.235c-13.727-1.424-26.535,1.676-26.535,1.676
			s10.802,7.174,23.542,9.217c12.741,2.041,31.448-2.76,33.78-2.97C-25.458-31.229-32.967-33.704-32.967-33.704z"/>
		<path fill="#0F0A2B" d="M-34.067-23.742c0,0-12.403-2.095-26.22-1.576c-13.817,0.521-25.954,5.378-25.954,5.378
			s11.909,5.564,24.856,5.793c12.948,0.228,30.626-7.134,32.897-7.669C-26.218-22.354-34.067-23.742-34.067-23.742z"/>
		<path fill="#0F0A2B" d="M22.306-11.209c0,0-10.969-5.612-24.203-9.156c-13.237-3.543-26.43-2.482-26.43-2.482
			s9.267,8.758,21.415,12.759C5.237-6.091,24.556-7.908,26.891-7.751C29.226-7.599,22.306-11.209,22.306-11.209z"/>
	</g>
</g>
<g id="bubbles">
	<g>
		<circle fill="none" stroke="#EBEDE4" stroke-width="1.4" stroke-miterlimit="10" cx="452" cy="299.052" r="6.052"/>
		<circle fill="none" stroke="#EBEDE4" stroke-width="1.4" stroke-miterlimit="10" cx="504.235" cy="270.387" r="6.052"/>
		<circle fill="none" stroke="#EBEDE4" stroke-width="1.4" stroke-miterlimit="10" cx="445.311" cy="228.025" r="4.778"/>
		<circle fill="none" stroke="#EBEDE4" stroke-width="1.4" stroke-miterlimit="10" cx="517.931" cy="243.313" r="2.389"/>
		<circle fill="none" stroke="#EBEDE4" stroke-width="1.4" stroke-miterlimit="10" cx="486.24" cy="212.1" r="2.389"/>
		<circle fill="none" stroke="#EBEDE4" stroke-width="1.4" stroke-miterlimit="10" cx="464.9" cy="282.808" r="2.389"/>
		<circle fill="none" stroke="#EBEDE4" stroke-width="1.4" stroke-miterlimit="10" cx="433.208" cy="251.595" r="2.389"/>
		<circle fill="none" stroke="#EBEDE4" stroke-width="1.4" stroke-miterlimit="10" cx="487.354" cy="253.665" r="2.389"/>
	</g>
	<circle fill="#EBEDE4" cx="425.573" cy="187.433" r="2.667"/>
	<circle fill="#EBEDE4" cx="1090" cy="381.666" r="2.666"/>
	<circle fill="#EBEDE4" cx="1110" cy="348.666" r="2.666"/>
	<circle fill="#EBEDE4" cx="1126" cy="249.666" r="2.666"/>
	<circle fill="#EBEDE4" cx="594" cy="497.666" r="2.666"/>
	<circle fill="#EBEDE4" cx="647" cy="505.666" r="2.666"/>
	<circle fill="#EBEDE4" cx="625" cy="443.666" r="2.666"/>
</g>
</svg>
