<?xml version="1.0" encoding="utf-8"?>
<!-- Generator: Adobe Illustrator 16.0.0, SVG Export Plug-In . SVG Version: 6.00 Build 0)  -->
<!DOCTYPE svg PUBLIC "-//W3C//DTD SVG 1.1//EN" "http://www.w3.org/Graphics/SVG/1.1/DTD/svg11.dtd">
<svg version="1.1" xmlns="http://www.w3.org/2000/svg" xmlns:xlink="http://www.w3.org/1999/xlink" x="0px" y="0px" width="1600px"
	 height="672.236px" viewBox="0 0 1600 672.236" enable-background="new 0 0 1600 672.236" xml:space="preserve">
<g id="Layer_2_1_">
	<circle fill="#394CD3" cx="798.892" cy="345.908" r="210.5"/>
	<circle fill="#394CD3" cx="586.5" cy="140.164" r="13"/>
	
		<radialGradient id="SVGID_1_" cx="1284.7898" cy="-664.1233" r="18.938" fx="1289.4169" fy="-650.6736" gradientTransform="matrix(-0.1683 0.9858 0.9858 0.1683 1464.4331 -1009.45)" gradientUnits="userSpaceOnUse">
		<stop  offset="0.7783" style="stop-color:#FFFFFF;stop-opacity:0"/>
		<stop  offset="1" style="stop-color:#FFE5FF"/>
	</radialGradient>
	<circle opacity="0.2" fill="url(#SVGID_1_)" enable-background="new    " cx="586.499" cy="140.164" r="18.938"/>
	<circle opacity="0.3" fill="none" stroke="#394CD3" stroke-miterlimit="10" cx="799.166" cy="346.832" r="223.334"/>
	<path fill="#394CD3" d="M1000.499,387.498c0.667,9.333,4,11.333,2.667,19.333s-3.333,13.334-4,18.667s-0.001,10.666-4.667,13.333
		s-4.666,6.667-7.333,10s-1.333,10.666-9.333,11.333s-18,6.667-18,6.667L1000.499,387.498z"/>
	<path fill="#394CD3" d="M848.499,150.831c24.667,3.333,26.001,0,37.334,3.333s14-2,20,4.667s10.667,8.667,14,12
		s8.666,7.333,14.666,12s12.668,4.667,17.334,11.333s-0.668-0.667,8.666,12.667s11.334,11.334,11.334,18.667
		s-1.334,10.667,0.666,16.667S848.499,150.831,848.499,150.831z"/>
	<path fill="#2C42C4" d="M591.832,373.498c-2.667,4.666-3.333,14.666-3.333,16.666s-1.334,2,1.333,8s3.333,10,4,14s-6-1.334,1.333,8
		s4,6.668,7.333,9.334s5.333,7.333,6,9.333s6,2.666,7.333,5.333s10.667,9.334,10.667,9.334L591.832,373.498"/>
	<path fill="#2C42C4" d="M724.226,152.892c-5.943,1.569-11.677,1.662-15.765,2.891s-8.307-0.873-12.055,2.21
		s-10.069,5.201-12.303,6.09s-3.37,2.535-7.118,5.618c-3.748,3.083-8.593,5.41-11.205,6.847c-2.612,1.438-3.54,1.608-6.19,5.448
		c-2.65,3.841-5.641,5.827-8.462,8.741c-2.821,2.913-6.02,6.375-8.122,10.595c-2.102,4.22-6.646,10.804-8.917,14.096
		s-5.719,10.634-5.719,10.634L724.226,152.892"/>
	<path fill="#2C42C4" d="M721.166,150.164c7.333-4.667,12.667-8.667,18.667-10s20-2,26.667-2.667s10.667,4,10.667,4"/>
	<path fill="#394CD3" d="M729.166,540.831c6,2.667,23.333,12.001,32.667,14.667s19.333,3.999,24,4.666s22-1.332,30.667-2.666
		s14.667,0,22.667-2s13.999-6.666,23.333-12"/>
</g>
<g id="Layer_3">
	<g>
		<defs>
			<circle id="SVGID_2_" cx="798.892" cy="345.908" r="210.5"/>
		</defs>
		<clipPath id="SVGID_3_">
			<use xlink:href="#SVGID_2_"  overflow="visible"/>
		</clipPath>
		<g display="none" clip-path="url(#SVGID_3_)">
			<g display="inline">
				<g>
					<path fill="#2C42C4" d="M791.527,432.755c-3.086,5.871-2.162,1.382-4.637,5.671c-2.151-2.73-8.194-0.248-5.999-8.811
						C787.493,425.188,786.938,435.339,791.527,432.755z"/>
					<path fill="#2C42C4" d="M790.038,398.66c-0.503,1.887-1.491,2.119-1.756,1.733l-1.023-0.643
						c0.519-1.865,1.516-2.093,1.773-1.724L790.038,398.66z"/>
					<path fill="#2C42C4" d="M775.134,423.302c-1.396,2.421-2.282,3.617-2.801,3.914c-2.807,0.946-5.59,0.518-7.305-1.294
						c-1.577-1.835-2.047-5.042-0.522-9.629c4.076-2.136,5.5-0.855,6.583,1.201C772.21,419.519,772.934,422.382,775.134,423.302z"/>
					<path fill="#2C42C4" d="M759.923,442.098c0.045,2.403-2.308,2.288-2.334,1.37l-1.759-1.11
						c-0.012-2.376,2.342-2.249,2.355-1.354L759.923,442.098z"/>
					<path fill="#2C42C4" d="M757.428,437.685c-0.387,1.964-1.677,2.022-1.978,1.566c-2.766-1.476-5.718-2.915-8.688-4.069
						c-1.485-0.578-2.975-1.084-4.448-1.488c-1.427-0.444-2.841-0.783-4.221-0.984l-1.81-1.404l-0.906-0.703
						c1.436-1.827,1.512-1.187,2.075-1.431l1.496,1.161c2.143-1.094,2.553,1.039,5.57-1.763c1.333,2.727,4.208,3.248,6.824,3.999
						C754,433.311,756.422,434.211,757.428,437.685z"/>
					<path fill="#2C42C4" d="M757.788,408.501c-1.918,3.023-2.411,4.655-1.51,4.896c-5.389,2.891-5.761-3.432-9.216-4.118
						c1.193-3.872,3.791,0.847,3.82-3.114c4.088-2.251,6.368-1.546,8.223-0.041c0.936,0.74,1.723,1.728,2.633,2.542
						c0.903,0.823,1.855,1.563,2.997,1.93c-1.9,4.096-2.797,0.016-3.93,0.174C759.757,410.064,758.786,409.265,757.788,408.501z"/>
					<path fill="#2C42C4" d="M745.397,407.982c-2.509,4.013-2.266,1.108-2.605,0.962c-1.76-0.675-3.545-3.632-5.375-4.576
						c3.634-4.011,1.236,1.528,6.01-4.347c-2.876,4.503-2.377,4.928,1.575,1.341C742.766,405.656,743.31,407.539,745.397,407.982z"
						/>
					<path fill="#2C42C4" d="M714.994,386.637c6.125-5.31,4.611-1.727,5.633-1.159c1.479,0.81,2.687,2.267,3.905,3.775
						c1.201,1.521,2.539,2.998,4.067,3.964c-3.475,0.313-5.553-1.308-7.333-3.055C719.453,388.434,717.816,386.665,714.994,386.637z
						"/>
					<path fill="#2C42C4" d="M699.196,404.773c-0.84,1.799-1.99,1.655-2.238,1.158l-1.331-1.335
						c0.851-1.788,2.002-1.643,2.247-1.148L699.196,404.773z"/>
					<path fill="#2C42C4" d="M689.539,405.237c-0.639,2.275-2.742,1.7-2.516,0.841C687.669,403.808,689.775,404.374,689.539,405.237
						z"/>
					<path fill="#2C42C4" d="M686.249,405.249c-1.568,3.157-2.631,0.646-3.034,0.257c-2.471,0.33-4.38-0.1-5.14-1.991
						C685.507,398.155,683.435,404.785,686.249,405.249z"/>
					<path fill="#2C42C4" d="M770.857,115.718c-2.781-0.153-6.043-0.673-8.354-1.418c-1.155-0.374-2.074-0.805-2.577-1.285
						c-0.536-0.573-0.663-1.21-0.185-1.851c1.444,0.164,2.717,0.435,3.854,0.79c1.105,0.264,2.068,0.588,2.936,0.974
						C768.265,113.696,769.604,114.681,770.857,115.718z"/>
					<path fill="#2C42C4" d="M519.202,177.793c0.524,0.438-3.398,1.616-6.754,2.684c-4.584,1.706-8.065,3.187-13.585,4.967
						c-0.709,0.415-1.459,0.833-2.258,1.257c-0.786,0.492-1.618,1.011-2.511,1.524c-1.784,1.031-3.802,2.087-6.126,3.173
						c1.861,1.158-2.613,3.879-3.5,5.967c-1.929,0.922-4.493,1.903-6.974,2.878c-2.477,0.991-4.894,1.882-6.438,2.961
						c-0.771,1.592-2.337,3.42-3.835,5.265c-0.748,0.926-1.483,1.84-2.086,2.755c-0.557,1.06-0.988,2.095-1.187,3.072
						c-0.285,1.385-0.326,2.729-0.224,4.047c0.051,0.659,0.138,1.312,0.248,1.96c0.197,0.929,0.467,2.004,0.726,2.996
						c0.552,2.017,1.107,4.042,1.661,6.068c0.272,1.016,0.533,2.035,0.771,3.063l0.174,0.772l0.083,0.387
						c0.032,0.145,0.012,0.126,0.021,0.198c0.005,0.202,0.002,0.407-0.01,0.615c-0.086,1.282-0.172,2.558-0.257,3.828l-0.034,0.477
						l-0.017,0.238l-0.009,0.119l-0.002,0.03l-0.001,0.015l-0.001,0.007c-0.321-0.892,2.794,7.791,1.476,4.121l0.012,0.094
						l0.194,1.502c0.133,1.002,0.266,2.002,0.398,3c0.542,3.996,1.129,7.973,1.815,11.908c0.343,1.956,0.709,3.95,1.108,5.841
						c0.399,1.799,0.828,3.585,1.292,5.355c0.928,3.539,1.996,7.011,3.254,10.385c1.692,1.031,5.352,0.57,6.331,2.043
						c2.524,3.176,5.042,6.283,7.459,9.396c1.209,1.557,2.393,3.115,3.54,4.685c1.14,1.529,2.213,2.9,3.254,4.39
						c2.075,2.934,3.957,5.964,5.562,9.177c0.396,0.783,0.798,1.662,1.138,2.4c0.347,0.763,0.676,1.539,0.984,2.329
						c0.616,1.58,1.152,3.218,1.597,4.923c0.578,2.214,0.913,4.573,1.135,7.008l0.146,1.834l0.069,1.737l0.093,3.506
						c0.058,2.341,0.128,4.678,0.339,6.931c0.105,1.126,0.246,2.23,0.437,3.305c0.093,0.532,0.208,1.075,0.321,1.576
						c0.098,0.473,0.209,0.937,0.338,1.39c0.515,1.845,2.463,2.905,2.994,4.649c0.737,2.479-0.656,6.197-0.131,8.669
						c0.566,2.828,1.533,5.045,2.579,7.09c0.538,1.013,1.063,2.003,1.589,2.993l0.388,0.747l0.095,0.188l0.006,0.012l0.908,1.395
						l0.014,0.026l0.028,0.052l0.055,0.104l0.219,0.42c0.29,0.562,0.57,1.134,0.835,1.724c5.071,3.456,12.008,4.973,18.938,6.938
						c3.434,0.955,6.792,1.959,9.799,3.277c3.035,1.34,5.801,3.049,7.903,5.318c3.698-0.316,6.282,0.425,8.972,1.053
						c2.714,0.641,5.587,1.197,9.722,0.418l1.828,2.532c4.45-0.362,8.326-0.253,12.01,0.137c3.705,0.396,7.135,1.039,10.538,1.679
						c3.417,0.642,6.743,1.265,10.396,1.655c3.657,0.391,7.522,0.516,11.824,0.107c3.18,0.832,7.355,0.474,11.488,0.207
						c4.149-0.264,8.162-0.449,10.911,0.769c4.217-0.552,7.73-0.341,10.939,0.296c3.231,0.635,6.069,1.699,8.76,2.861
						c2.716,1.156,5.175,2.43,7.921,3.41c2.705,0.988,5.489,1.72,8.564,1.831c0.708,0.272,2.998-3.043-0.262-0.28
						c-3.179-3.057-7.786-4.842-12.518-6.542c-2.394-0.843-4.881-1.648-7.33-2.546c-1.222-0.449-2.444-0.921-3.622-1.433
						c-1.154-0.514-2.281-1.064-3.364-1.67c-4.568,1.42-6.695-0.003-9.711-0.436c-2.265-0.496-9.99,1.939-7.629-1.777
						c1.238-0.055,1.696,0.749,6.555-3.31c2.983-1.987,3.49-1.227,4.952-1.538c3.355-1.103,4.42,0.325,6.614,0.482
						c5.952-1.46,7.452,2.027,13.122,0.761c0.939,3.513,6.729,1.277,9.051,3.069c2.123-0.822,6.193-4.016,6.856-3.111
						c-0.6,3.109,2.217,1.748,4.986,1.953c2.728,1.967,5.77,3.511,8.7,5.153c0.735,0.409,1.454,0.83,2.177,1.257
						c0.737,0.421,1.462,0.856,2.167,1.315c1.412,0.918,2.747,1.93,3.961,3.106c3.298-0.803,5.071,0.443,7.525,0.726
						c0.338,0.348,0.708,0.678,1.065,1.013c2.417-2.615,0.859-2.18,0.605-2.74l-1.284-1.281l-1.282-1.281
						c-5.71-6.17-12.539-12.075-21.454-15.608c-2.219-2.93-5.994-5.495-10.088-7.952c-1.901-1.148-3.807-2.487-5.955-3.447
						c-2.034-0.909-5.313-0.771-8.031-1.007c-2.681-0.24-4.819-0.848-4.588-3.168c2.36,0.964,8.432-2.09,12.694-3.273
						c5.692,0.1,12.64-0.757,19.042-1.117c3.184-0.169,6.313-0.252,9.089-0.012c2.775,0.241,5.208,0.803,7.101,1.894
						c1.007,0.576,0.751,2.734,2.473,2.801c1.912,0.076,6.2-1.883,9.837-3.522c2.224,0.403,4.525,0.684,6.884,0.856
						c1.179,0.087,2.373,0.146,3.58,0.181c1.222,0.019,2.465,0.003,3.713-0.031l2.743,2.745c3.268-0.777,0.77-2.96,0.103-3.281
						c-1.127-1.145-2.29-2.251-3.387-3.427l-3.29-3.532c-2.183-2.365-4.425-4.67-6.515-7.131c0.227-1.684-4.696,0.045,1.494-5.59
						c3.49-0.55,4.71,1.448,6,3.403c1.321,1.909,2.689,3.807,6.247,2.991c0.605-2.982-0.071-5.032-1.222-6.46
						c-1.158-1.416-2.716-2.312-3.959-2.788c-3.661-1.481,0.303-8.945-5.764-6.605c-0.732-0.396-1.244-0.939,0.637-3.002
						c3.683-3.315-0.497-1.506,5.118-5.105c5.672-4.787,6.068-3.893,6.672-3.222c0.715,0.711,4.053-1.475,3.586,0.495
						c5.309-2.922,3.37,2.157,10.352-2.75c0.517-1.871,6.376-7.366,7.535-9.614c-1.333-0.678,1.806-4.354-0.587-4.297
						c2.316-4.579,0.385-6.332,3.253-11.149c0.27-2.134-4.819-0.856-1.138-5.156c0.173,0.226,0.349,0.442,0.526,0.652
						c0.869-0.133,2.637-2.153,1.512-1.93l-0.865-1.105c0.461-1.834,7.739-6.383,6.82-6.86c-1.192-0.334-0.801-1.654,0.36-3.433
						c0.032-1.083-1.456-1.237,4.493-5.931c8.605-6.782,6.901-3.531,10.761-5.73c3.077-1.315,6.945-3.44,9.121-3.924
						c1.092-0.068,1.969,0.051,2.69,0.301c0.722,0.22,1.289,0.574,1.76,1.014c0.943,0.879,1.505,2.1,2.156,3.252
						c0.649,1.142,1.387,2.252,2.664,2.789c1.276,0.505,3.091,0.507,5.874-0.447c-0.462-1.227-0.895-2.472-1.307-3.726
						c-0.413-1.316-0.804-2.666-1.183-4.002c-0.758-2.712-1.459-5.274-2.188-8.101c-0.729-2.774-1.469-5.422-2.308-8.058
						c-0.845-2.704-1.778-5.284-2.88-7.681c-0.392-1.206,4.464-4.313,0.703-3.09c4.503-7.305-10.011-1.61-6.054-8.42
						c4.645-3.177,2.592-0.354,6.655-3.043c-2.628-1.772-5.863-3.48-9.454-5.025c-3.604-1.599-7.598-3.199-11.675-4.504
						c-9.487,6.038,1.571,1.548-4.677,5.94c-1.579-0.5-3.059-1.019-4.499-1.53c-1.448-0.542-2.859-1.089-4.288-1.59
						c-2.859-1.006-5.795-1.861-9.297-2.357c0.207-0.324,0.539-0.71,0.945-1.132c0.224-0.224,0.442-0.441,0.658-0.657
						c-0.133-0.206,1.164,1.783,0.615,0.941l0.001-0.001l0.003-0.002l0.005-0.005l0.011-0.011l0.022-0.021l0.044-0.043l0.089-0.086
						l0.181-0.174l0.37-0.352c1-0.945,2.085-1.929,2.831-2.755c-3.794-0.825-6.441-2.944-8.544-5.366
						c-0.526-0.606-1.017-1.23-1.484-1.859c-0.454-0.61-0.877-1.213-1.289-1.812c-0.822-1.193-1.584-2.341-2.364-3.322
						c1.637-2.5,2.611-4.684,3.158-6.666c0.274-0.991,0.441-1.931,0.53-2.834c0.129-0.854,0.19-1.66,0.199-2.447
						c0.042-3.143-0.673-5.911-0.259-9.196c-1.237-0.978-2.216-1.72-3.147-2.655c-0.907-0.912-1.661-1.909-2.133-3.071
						c-0.468-1.158-0.675-2.501-0.437-4.054c0.322-1.476,1.055-3.191,2.332-5.212c-1.516-1.439-0.107-4.155,0.591-6.416
						c0.875-2.112,1.051-3.743-3.252-3.427c3.216-2.043,2.383-2.362,3.564-3.523c-2.782,0.844-3.062,0.339-2.608-0.382
						c0.476-0.705,1.595-1.696,1.421-2.021c-0.552-1.045-2.258-2.697-4.034-2.873c-0.603-0.064,1.89-1.342,1.96-1.488
						c0.373-1.172,1.034-2.389,1.877-3.584c0.421-0.598,0.888-1.191,1.386-1.773c0.249-0.291,0.506-0.579,0.769-0.864l0.049-0.053
						l0.013-0.013l0.006-0.007l0.002-0.001c2.893,8.062,0.802,2.232,1.448,4.031l0.002-0.007l0.016-0.057l0.066-0.229l0.133-0.455
						c0.093-0.304,0.184-0.604,0.275-0.903c0.347-1.097,0.687-2.169,1.019-3.217l0.251-0.783l0.062-0.194
						c0.026-0.05,0.025-0.175,0.093-0.109l0.32,0.151c0.423,0.202,0.837,0.41,1.239,0.622c0.804,0.424,1.563,0.867,2.265,1.328
						l0.515,0.349l0.249,0.175l0.168-0.126c0.211-0.163,0.42-0.324,0.627-0.483c0.201-0.162-2.601,0.585-2.382,0.38
						c0.086-0.031,0.497-0.178,1.038-0.372c0.526-0.189,1.082-0.396,1.218-0.488c0.208-0.138,0.357-0.257,0.459-0.359
						c0.051-0.051,0.09-0.099,0.119-0.143c0.03-0.036,0.048-0.081,0.044-0.184c0.001-0.338-0.138-0.618-0.33-0.874
						c-0.382-0.511-0.973-0.929-1.064-1.515c-0.016-0.107,0.016-0.186,0.063-0.342c0.043-0.171,0.116-0.35,0.207-0.534
						c0.182-0.367,0.438-0.753,0.679-1.132c0.482-0.758,0.905-1.489,0.563-1.997c-0.193-0.288-0.478-0.555-0.829-0.806
						c-0.175-0.125-0.367-0.247-0.572-0.365l-0.69-0.505c-0.966-0.675-2.089-1.308-3.157-1.944s-2.081-1.277-2.829-1.972
						c-0.187-0.173-0.357-0.351-0.508-0.532c-0.164-0.228-0.311-0.466-0.433-0.706c-0.245-0.48-0.397-0.98-0.431-1.507
						c-3.451-0.31-6.699-0.691-9.916-1.06c-1.608-0.178-3.218-0.356-4.823-0.533l-1.215-0.127l-1.247-0.188
						c-0.844-0.116-1.685-0.232-2.522-0.347c-6.786-0.871-14.114-1.27-23.31-0.431c-8.486,2.363-20.24,6.465-25.433,7.068
						c-13.196,5.591-24.417,8.2-41.035,13.589c-6.885,3.382-14.095,6.668-22.137,9.92c-7.403,1.094-16.422,4.658-25.456,7.022
						c-0.299,0.664-5.941,2.35-9.001,3.406c-3.499,1.203-4.705,2.239-9.192,2.773c0.692,0.694-0.221,1.616-4.209,2.928
						c-0.081,0.784-0.063,1.557-6.616,3.171c1.385-1.435-4.271-0.14-2.881-1.564c-16.29,4.5-23.063,5.29-35.029,8.323
						C527.904,175.376,524.504,176.464,519.202,177.793z M762.448,291.851c-1.023,1.973-2.789,1.587-2.401,0.831
						C761.067,290.721,762.83,291.105,762.448,291.851z M634.791,393.528c-5.398,4.81-3.85,1.977-4.707,1.788
						C632.762,393.509,634.091,393.176,634.791,393.528z"/>
				</g>
			</g>
		</g>
		<g display="none" clip-path="url(#SVGID_3_)">
			<g display="inline">
				<g>
					<path fill="#2C42C4" d="M803.822,343.633c5.709,3.376,1.272,2.229,5.432,4.915c-2.834,2.012-0.657,8.172-9.099,5.551
						C796.063,347.283,806.174,348.344,803.822,343.633z"/>
					<path fill="#2C42C4" d="M769.696,343.415c1.859,0.597,2.042,1.595,1.643,1.84l-0.693,0.99
						c-1.836-0.611-2.014-1.619-1.632-1.857L769.696,343.415z"/>
					<path fill="#2C42C4" d="M793.561,359.533c2.348,1.515,3.499,2.459,3.77,2.992c0.805,2.852,0.237,5.609-1.658,7.231
						c-1.911,1.483-5.138,1.793-9.643,0.04c-1.929-4.177-0.579-5.535,1.53-6.515C789.637,362.263,792.532,361.683,793.561,359.533z"
						/>
					<path fill="#2C42C4" d="M811.574,375.664c2.402,0.074,2.17,2.42,1.252,2.4l-1.197,1.701c-2.374-0.106-2.13-2.452-1.234-2.42
						L811.574,375.664z"/>
					<path fill="#2C42C4" d="M807.042,377.934c1.942,0.485,1.937,1.776,1.466,2.054c-1.613,2.689-3.197,5.565-4.5,8.474
						c-0.65,1.454-1.23,2.917-1.708,4.368c-0.515,1.403-0.924,2.799-1.194,4.167l-1.492,1.737l-0.748,0.869
						c-1.753-1.525-1.11-1.57-1.325-2.144l1.234-1.437c-0.985-2.194,1.165-2.498-1.482-5.65c2.79-1.194,3.455-4.04,4.335-6.616
						C802.502,381.139,803.521,378.766,807.042,377.934z"/>
					<path fill="#2C42C4" d="M777.911,376.117c2.923,2.066,4.529,2.641,4.815,1.752c2.617,5.527-3.715,5.583-4.574,8.999
						c-3.808-1.385,1.035-3.743-2.919-3.971c-2.043-4.196-1.226-6.438,0.37-8.215c0.786-0.897,1.812-1.634,2.671-2.502
						c0.867-0.861,1.653-1.774,2.077-2.897c3.996,2.103-0.124,2.795-0.022,3.934C779.571,374.228,778.725,375.158,777.911,376.117z"
						/>
					<path fill="#2C42C4" d="M776.774,388.467c3.882,2.706,0.994,2.318,0.831,2.65c-0.762,1.724-3.804,3.358-4.839,5.139
						c-3.824-3.83,1.588-1.158-4.041-6.22c4.354,3.098,4.803,2.62,1.418-1.506C774.32,390.977,776.227,390.528,776.774,388.467z"/>
					<path fill="#2C42C4" d="M753.935,417.763c-4.996-6.383-1.493-4.69-0.876-5.684c0.883-1.437,2.398-2.569,3.966-3.711
						c1.579-1.124,3.121-2.386,4.162-3.864c0.138,3.486-1.583,5.48-3.417,7.171C755.954,413.4,754.105,414.947,753.935,417.763z"/>
					<path fill="#2C42C4" d="M771.259,434.449c1.754,0.929,1.554,2.07,1.045,2.293l-1.399,1.263
						c-1.744-0.938-1.541-2.082-1.035-2.301L771.259,434.449z"/>
					<path fill="#2C42C4" d="M771.24,444.117c2.24,0.752,1.561,2.823,0.713,2.555C769.719,445.914,770.389,443.839,771.24,444.117z"
						/>
					<path fill="#2C42C4" d="M771.087,447.404c3.074,1.724,0.513,2.66,0.104,3.043c0.206,2.483-0.319,4.369-2.246,5.033
						C763.965,447.79,770.483,450.19,771.087,447.404z"/>
					<path fill="#2C42C4" d="M486.15,348.426c-0.292,2.77-0.974,6.002-1.834,8.272c-0.431,1.135-0.908,2.03-1.412,2.509
						c-0.599,0.507-1.242,0.602-1.857,0.092c0.236-1.435,0.57-2.691,0.981-3.81c0.319-1.091,0.69-2.037,1.12-2.884
						C484.001,350.913,485.052,349.625,486.15,348.426z"/>
					<path fill="#2C42C4" d="M535.562,602.869c0.464-0.501,1.444,3.476,2.343,6.881c1.474,4.663,2.779,8.214,4.281,13.816
						c0.379,0.729,0.76,1.499,1.142,2.318c0.453,0.81,0.929,1.667,1.397,2.584c0.941,1.833,1.895,3.901,2.863,6.277
						c1.25-1.801,3.744,2.804,5.785,3.794c0.824,1.973,1.676,4.582,2.525,7.108c0.866,2.523,1.635,4.982,2.636,6.578
						c1.551,0.851,3.299,2.506,5.067,4.095c0.887,0.793,1.763,1.573,2.646,2.221c1.03,0.609,2.042,1.092,3.008,1.339
						c1.369,0.354,2.708,0.463,4.03,0.427c0.661-0.018,1.317-0.072,1.97-0.149c0.937-0.149,2.024-0.365,3.027-0.575
						c2.042-0.45,4.092-0.902,6.144-1.354c1.028-0.221,2.059-0.431,3.097-0.617l0.78-0.136l0.391-0.063
						c0.146-0.025,0.127-0.007,0.199-0.011c0.202,0.005,0.406,0.018,0.613,0.041c1.276,0.149,2.546,0.299,3.811,0.448l0.474,0.058
						l0.237,0.029l0.118,0.014l0.03,0.004l0.015,0.002l0.008,0.001c-0.909,0.276,7.933-2.404,4.196-1.27l0.094-0.008l1.51-0.119
						c1.007-0.083,2.013-0.165,3.016-0.248c4.018-0.341,8.019-0.729,11.983-1.217c1.971-0.245,3.98-0.512,5.889-0.815
						c1.817-0.309,3.623-0.647,5.413-1.022c3.581-0.75,7.102-1.644,10.535-2.73c1.115-1.639,0.837-5.316,2.357-6.221
						c3.298-2.362,6.527-4.723,9.757-6.98c1.615-1.13,3.23-2.233,4.855-3.301c1.584-1.063,3.007-2.065,4.547-3.031
						c3.034-1.925,6.154-3.653,9.443-5.096c0.802-0.356,1.7-0.714,2.455-1.017c0.779-0.309,1.57-0.598,2.375-0.866
						c1.609-0.536,3.271-0.989,4.997-1.349c2.239-0.467,4.612-0.683,7.055-0.783l1.84-0.054l1.738,0.018l3.506,0.083
						c2.341,0.059,4.679,0.104,6.939,0.007c1.13-0.049,2.241-0.134,3.323-0.271c0.537-0.066,1.084-0.154,1.59-0.242
						c0.478-0.073,0.946-0.162,1.405-0.268c1.869-0.422,3.025-2.314,4.793-2.758c2.513-0.612,6.158,0.966,8.652,0.564
						c2.853-0.424,5.115-1.278,7.21-2.221c1.039-0.486,2.054-0.962,3.069-1.438l0.766-0.35l0.192-0.086l0.012-0.005l1.437-0.836
						l0.027-0.013l0.053-0.025l0.107-0.05l0.43-0.198c0.575-0.261,1.161-0.512,1.763-0.747c3.705-4.893,5.567-11.745,7.877-18.567
						c1.126-3.382,2.296-6.687,3.764-9.624c1.489-2.964,3.335-5.641,5.707-7.627c-0.131-3.709,0.738-6.254,1.5-8.908
						c0.775-2.679,1.475-5.521,0.903-9.689l2.621-1.698c-0.14-4.462,0.163-8.328,0.736-11.988c0.582-3.681,1.395-7.074,2.203-10.441
						c0.813-3.381,1.601-6.671,2.174-10.301c0.573-3.633,0.891-7.486,0.698-11.804c0.991-3.135,0.841-7.322,0.781-11.464
						c-0.056-4.157-0.041-8.174,1.313-10.858c-0.34-4.239,0.046-7.738,0.843-10.911c0.795-3.195,2.001-5.977,3.296-8.606
						c1.291-2.655,2.686-5.048,3.802-7.74c1.122-2.652,1.992-5.396,2.256-8.463c0.308-0.693-2.889-3.146-0.293,0.247
						c-3.211,3.023-5.225,7.534-7.159,12.176c-0.961,2.349-1.89,4.792-2.91,7.193c-0.51,1.198-1.042,2.395-1.611,3.545
						c-0.571,1.127-1.178,2.226-1.836,3.276c1.19,4.633-0.338,6.687-0.921,9.677c-0.608,2.236,1.438,10.074-2.157,7.531
						c0.008-1.239,0.833-1.657-2.978-6.712c-1.836-3.08-1.05-3.548-1.289-5.023c-0.934-3.407,0.545-4.398,0.813-6.582
						c-1.161-6.018,2.398-7.341,1.416-13.067c3.556-0.762,1.612-6.656,3.518-8.886c-0.715-2.162-3.701-6.386-2.765-7.003
						c3.076,0.754,1.857-2.127,2.201-4.883c2.1-2.626,3.795-5.586,5.581-8.431c0.446-0.714,0.902-1.411,1.365-2.112
						c0.458-0.715,0.929-1.417,1.422-2.099c0.987-1.364,2.064-2.647,3.3-3.801c-0.637-3.334,0.697-5.043,1.101-7.479
						c0.365-0.32,0.712-0.673,1.065-1.013c-2.491-2.545-2.134-0.968-2.707-0.741l-1.344,1.219l-1.343,1.217
						c-6.448,5.395-12.687,11.919-16.662,20.646c-3.037,2.069-5.787,5.712-8.447,9.678c-1.241,1.841-2.674,3.678-3.74,5.775
						c-1.01,1.985-1.035,5.267-1.407,7.971c-0.375,2.665-1.087,4.771-3.394,4.424c1.081-2.309-1.665-8.525-2.634-12.842
						c0.384-5.68-0.125-12.661-0.165-19.074c-0.009-3.188,0.064-6.317,0.443-9.078c0.38-2.76,1.063-5.161,2.247-6.997
						c0.626-0.977,2.768-0.613,2.92-2.329c0.172-1.906-1.57-6.286-3.026-10.002c0.514-2.201,0.909-4.485,1.2-6.832
						c0.146-1.174,0.265-2.363,0.359-3.566c0.08-1.22,0.126-2.462,0.155-3.71l2.879-2.603c-0.614-3.302-2.918-0.916-3.273-0.267
						c-1.199,1.068-2.362,2.174-3.592,3.212l-3.691,3.109c-2.472,2.062-4.886,4.186-7.448,6.15c-1.67-0.312-0.19,4.692-5.508-1.772
						c-0.375-3.513,1.681-4.631,3.699-5.822c1.973-1.224,3.936-2.495,3.299-6.089c-2.947-0.754-5.028-0.181-6.513,0.897
						c-1.472,1.086-2.444,2.597-2.982,3.814c-1.663,3.582-8.919-0.75-6.886,5.426c-0.432,0.712-1,1.195-2.966-0.786
						c-3.127-3.845-1.529,0.421-4.843-5.366c-4.498-5.904-3.584-6.256-2.884-6.825c0.746-0.679-1.27-4.121,0.674-3.558
						c-2.653-5.447,2.323-3.258-2.229-10.476c-1.843-0.61-7.038-6.736-9.226-8.007c-0.743,1.299-4.258-2.021-4.321,0.373
						c-4.457-2.543-6.305-0.701-10.973-3.808c-2.118-0.376-1.096,4.771-5.207,0.879c0.234-0.161,0.458-0.325,0.677-0.492
						c-0.089-0.875-2.018-2.742-1.852-1.606l-1.147,0.809c-1.809-0.552-5.988-8.049-6.51-7.154
						c-0.394,1.174-1.692,0.717-3.411-0.532c-1.08-0.086-1.308,1.393-5.699-4.784c-6.343-8.934-3.181-7.068-5.185-11.034
						c-1.16-3.139-3.088-7.108-3.463-9.305c-0.013-1.095,0.148-1.964,0.435-2.672c0.255-0.71,0.637-1.259,1.1-1.707
						c0.925-0.897,2.172-1.398,3.355-1.99c1.173-0.592,2.318-1.272,2.919-2.521c0.568-1.25,0.661-3.062-0.153-5.89
						c-1.249,0.4-2.514,0.771-3.787,1.119c-1.335,0.347-2.703,0.67-4.057,0.98c-2.747,0.622-5.34,1.193-8.2,1.78
						c-2.807,0.589-5.488,1.196-8.163,1.902c-2.743,0.708-5.366,1.512-7.815,2.491c-1.224,0.331-4.083-4.674-3.051-0.855
						c-7.071-4.863-2.108,9.917-8.712,5.624c-2.941-4.797-0.225-2.606-2.707-6.799c-1.901,2.536-3.769,5.682-5.492,9.191
						c-1.777,3.52-3.575,7.429-5.082,11.436c5.556,9.776,1.625-1.492,5.7,4.968c-0.578,1.552-1.171,3.004-1.753,4.417
						c-0.614,1.419-1.23,2.801-1.802,4.203c-1.148,2.805-2.149,5.695-2.819,9.168c-0.313-0.223-0.683-0.574-1.083-1.001
						l-0.307-0.333l-0.157-0.176l-0.08-0.09l-0.04-0.046l-0.02-0.022l-0.01-0.012l-0.005-0.005l-0.002-0.003l-0.001-0.002
						c0.433-0.253-0.97,0.564,0.97-0.566c-0.223-0.257-0.442-0.51-0.661-0.762c-0.894-1.046-1.822-2.179-2.609-2.965
						c-1.014,3.748-3.262,6.286-5.787,8.266c-0.631,0.494-1.28,0.954-1.931,1.389c-0.632,0.424-1.256,0.815-1.873,1.197
						c-1.233,0.761-2.417,1.465-3.436,2.194c-2.415-1.76-4.548-2.842-6.5-3.487c-0.976-0.323-1.907-0.537-2.805-0.672
						c-0.846-0.171-1.648-0.272-2.434-0.321c-3.137-0.199-5.938,0.377-9.197-0.2c-1.038,1.187-1.828,2.127-2.809,3.01
						c-0.956,0.86-1.989,1.563-3.174,1.977c-1.18,0.409-2.532,0.55-4.071,0.233c-1.458-0.396-3.134-1.213-5.089-2.59
						c-1.513,1.442-4.155-0.101-6.378-0.91c-2.066-0.979-3.685-1.237-3.585,3.077c-1.88-3.314-2.24-2.498-3.34-3.736
						c0.704,2.821,0.185,3.075-0.513,2.586c-0.68-0.51-1.614-1.678-1.948-1.52c-1.072,0.499-2.807,2.121-3.071,3.885
						c-0.094,0.599-1.246-1.954-1.388-2.032c-1.152-0.431-2.334-1.152-3.486-2.054c-0.576-0.45-1.145-0.946-1.702-1.473
						c-0.278-0.263-0.553-0.534-0.824-0.811l-0.051-0.052l-0.013-0.014l-0.006-0.006l-0.002-0.002
						c8.21-2.49,2.274-0.691,4.105-1.247l-0.007-0.003l-0.057-0.019l-0.225-0.077l-0.448-0.156c-0.298-0.107-0.594-0.214-0.888-0.32
						c-1.078-0.401-2.132-0.794-3.162-1.179l-0.769-0.29l-0.191-0.071c-0.049-0.028-0.173-0.034-0.104-0.099l0.167-0.312
						c0.223-0.413,0.451-0.815,0.682-1.206c0.463-0.782,0.943-1.518,1.438-2.195l0.375-0.497l0.187-0.239l-0.118-0.174
						c-0.152-0.22-0.302-0.437-0.451-0.651c-0.151-0.209,0.455,2.627,0.26,2.398c-0.027-0.088-0.153-0.506-0.319-1.056
						c-0.163-0.534-0.341-1.1-0.427-1.241c-0.128-0.214-0.239-0.369-0.336-0.476c-0.049-0.054-0.094-0.096-0.137-0.126
						c-0.035-0.032-0.079-0.053-0.182-0.055c-0.338-0.018-0.625,0.107-0.89,0.286c-0.53,0.356-0.977,0.926-1.566,0.987
						c-0.107,0.011-0.185-0.025-0.338-0.08c-0.169-0.052-0.344-0.134-0.523-0.233c-0.358-0.201-0.73-0.476-1.096-0.735
						c-0.733-0.519-1.442-0.978-1.967-0.662c-0.297,0.179-0.578,0.45-0.846,0.787c-0.134,0.169-0.265,0.354-0.394,0.553
						l-0.539,0.664c-0.723,0.932-1.41,2.021-2.099,3.056c-0.689,1.035-1.379,2.015-2.11,2.727c-0.183,0.179-0.368,0.34-0.557,0.48
						c-0.235,0.153-0.481,0.287-0.726,0.397c-0.492,0.221-0.999,0.348-1.527,0.355c-0.481,3.431-1.024,6.655-1.554,9.85
						c-0.258,1.598-0.516,3.197-0.773,4.791l-0.188,1.207l-0.25,1.235c-0.158,0.837-0.316,1.671-0.473,2.502
						c-1.209,6.733-1.974,14.033-1.596,23.259c1.935,8.594,5.445,20.539,5.787,25.755c4.924,13.459,6.968,24.796,11.52,41.663
						c3.034,7.046,5.955,14.411,8.801,22.605c0.722,7.449,3.831,16.635,5.74,25.775c0.648,0.331,2.049,6.051,2.951,9.16
						c1.026,3.555,2.001,4.811,2.31,9.319c0.728-0.656,1.603,0.301,2.714,4.351c0.779,0.12,1.552,0.142,2.837,6.766
						c-1.364-1.455-0.354,4.259-1.707,2.8c3.681,16.495,4.13,23.3,6.561,35.401C533.584,594.057,534.499,597.508,535.562,602.869z
						 M661.641,365.631c1.919,1.12,1.446,2.863,0.71,2.438C660.444,366.953,660.914,365.211,661.641,365.631z M756.808,498.212
						c4.534,5.631,1.782,3.943,1.55,4.79C756.687,500.236,756.421,498.893,756.808,498.212z"/>
				</g>
			</g>
		</g>
		<g display="none" clip-path="url(#SVGID_3_)">
			<g display="inline">
				<g>
					<path fill="#2C42C4" d="M847.156-85.7c5.709,3.376,1.272,2.229,5.432,4.915c-2.834,2.012-0.657,8.172-9.1,5.551
						C839.397-82.05,849.508-80.988,847.156-85.7z"/>
					<path fill="#2C42C4" d="M813.029-85.918c1.86,0.597,2.042,1.595,1.644,1.84l-0.693,0.99c-1.837-0.611-2.014-1.619-1.632-1.857
						L813.029-85.918z"/>
					<path fill="#2C42C4" d="M836.895-69.8c2.349,1.515,3.499,2.46,3.77,2.993c0.806,2.851,0.237,5.608-1.658,7.231
						c-1.91,1.482-5.138,1.792-9.643,0.04c-1.929-4.178-0.579-5.536,1.529-6.515C832.97-67.069,835.866-67.649,836.895-69.8z"/>
					<path fill="#2C42C4" d="M854.908-53.669c2.402,0.075,2.169,2.419,1.252,2.4l-1.197,1.701c-2.374-0.106-2.13-2.452-1.234-2.419
						L854.908-53.669z"/>
					<path fill="#2C42C4" d="M850.375-51.398c1.942,0.485,1.937,1.776,1.466,2.054c-1.612,2.688-3.197,5.565-4.499,8.474
						c-0.65,1.454-1.23,2.917-1.709,4.368c-0.515,1.404-0.924,2.799-1.193,4.167l-1.492,1.737l-0.748,0.869
						c-1.754-1.525-1.11-1.57-1.325-2.144l1.234-1.436c-0.985-2.195,1.165-2.498-1.482-5.651c2.79-1.194,3.454-4.04,4.336-6.616
						C845.836-48.193,846.854-50.566,850.375-51.398z"/>
					<path fill="#2C42C4" d="M821.245-53.216c2.924,2.067,4.529,2.641,4.815,1.752c2.617,5.527-3.716,5.583-4.574,9
						c-3.808-1.386,1.035-3.744-2.919-3.972c-2.044-4.196-1.227-6.437,0.37-8.214c0.785-0.897,1.812-1.634,2.671-2.502
						c0.866-0.86,1.653-1.774,2.076-2.896c3.996,2.102-0.124,2.794-0.022,3.933C822.905-55.104,822.059-54.175,821.245-53.216z"/>
					<path fill="#2C42C4" d="M820.107-40.866c3.883,2.707,0.994,2.318,0.831,2.65c-0.762,1.724-3.805,3.359-4.839,5.139
						c-3.824-3.83,1.588-1.157-4.041-6.219c4.354,3.098,4.803,2.62,1.418-1.505C817.653-38.355,819.561-38.805,820.107-40.866z"/>
					<path fill="#2C42C4" d="M797.269-11.569c-4.996-6.383-1.494-4.691-0.876-5.684c0.883-1.437,2.398-2.57,3.966-3.711
						c1.579-1.124,3.121-2.386,4.162-3.864c0.139,3.486-1.583,5.481-3.417,7.171C799.287-15.932,797.438-14.386,797.269-11.569z"/>
					<path fill="#2C42C4" d="M814.593,5.116c1.754,0.929,1.554,2.071,1.045,2.293l-1.399,1.262
						c-1.744-0.939-1.541-2.082-1.035-2.301L814.593,5.116z"/>
					<path fill="#2C42C4" d="M814.573,14.784c2.24,0.752,1.561,2.823,0.714,2.555C813.052,16.581,813.722,14.506,814.573,14.784z"/>
					<path fill="#2C42C4" d="M814.421,18.071c3.074,1.724,0.513,2.661,0.104,3.043c0.206,2.484-0.319,4.37-2.246,5.033
						C807.298,18.458,813.816,20.858,814.421,18.071z"/>
					<path fill="#2C42C4" d="M529.483-80.907c-0.292,2.77-0.974,6.002-1.834,8.272c-0.431,1.136-0.908,2.031-1.412,2.509
						c-0.599,0.506-1.242,0.602-1.857,0.092c0.236-1.435,0.57-2.692,0.981-3.81c0.319-1.091,0.69-2.037,1.12-2.884
						C527.335-78.42,528.386-79.708,529.483-80.907z"/>
					<path fill="#2C42C4" d="M578.896,173.537c0.464-0.501,1.444,3.475,2.343,6.88c1.474,4.664,2.779,8.214,4.281,13.817
						c0.379,0.729,0.76,1.499,1.142,2.318c0.453,0.81,0.929,1.667,1.397,2.584c0.941,1.833,1.895,3.902,2.863,6.277
						c1.25-1.801,3.744,2.804,5.785,3.794c0.824,1.972,1.676,4.583,2.525,7.109c0.866,2.522,1.635,4.982,2.636,6.578
						c1.551,0.85,3.299,2.505,5.067,4.094c0.887,0.793,1.763,1.574,2.646,2.221c1.03,0.609,2.043,1.092,3.008,1.339
						c1.369,0.354,2.708,0.462,4.03,0.426c0.661-0.018,1.317-0.072,1.97-0.149c0.938-0.15,2.024-0.366,3.027-0.575
						c2.042-0.451,4.092-0.903,6.144-1.355c1.028-0.221,2.059-0.431,3.097-0.617l0.78-0.135l0.391-0.064
						c0.146-0.025,0.127-0.006,0.199-0.011c0.202,0.005,0.406,0.018,0.613,0.041c1.276,0.15,2.547,0.3,3.811,0.448l0.474,0.058
						l0.237,0.029l0.118,0.015l0.03,0.003l0.015,0.002l0.007,0.001c-0.909,0.277,7.933-2.404,4.196-1.27l0.094-0.007l1.51-0.119
						c1.007-0.083,2.013-0.166,3.016-0.248c4.018-0.341,8.019-0.729,11.983-1.217c1.971-0.245,3.981-0.511,5.889-0.814
						c1.817-0.31,3.623-0.648,5.413-1.023c3.581-0.75,7.102-1.643,10.534-2.73c1.115-1.639,0.837-5.316,2.357-6.221
						c3.298-2.362,6.527-4.722,9.757-6.98c1.615-1.129,3.23-2.233,4.855-3.301c1.583-1.062,3.007-2.065,4.546-3.03
						c3.035-1.926,6.154-3.654,9.443-5.096c0.802-0.356,1.7-0.713,2.455-1.017c0.779-0.309,1.571-0.598,2.375-0.866
						c1.609-0.537,3.271-0.99,4.997-1.349c2.239-0.467,4.613-0.683,7.055-0.783l1.839-0.054l1.739,0.018l3.506,0.083
						c2.341,0.06,4.678,0.105,6.938,0.007c1.13-0.049,2.241-0.134,3.323-0.271c0.537-0.066,1.084-0.155,1.59-0.242
						c0.477-0.074,0.946-0.163,1.405-0.268c1.869-0.422,3.025-2.315,4.793-2.757c2.513-0.612,6.157,0.965,8.652,0.564
						c2.854-0.424,5.115-1.278,7.21-2.221c1.039-0.486,2.054-0.962,3.069-1.437l0.766-0.35l0.192-0.086l0.012-0.005l1.438-0.836
						l0.026-0.013l0.054-0.025l0.107-0.05l0.43-0.198c0.576-0.261,1.161-0.512,1.763-0.748c3.705-4.892,5.567-11.745,7.877-18.567
						c1.125-3.381,2.296-6.686,3.763-9.623c1.489-2.964,3.335-5.641,5.707-7.627c-0.131-3.709,0.738-6.253,1.5-8.908
						c0.776-2.678,1.475-5.52,0.903-9.689l2.621-1.699c-0.139-4.462,0.163-8.328,0.736-11.988c0.582-3.68,1.395-7.074,2.204-10.441
						c0.813-3.381,1.601-6.671,2.173-10.301c0.573-3.633,0.892-7.487,0.698-11.804c0.99-3.135,0.841-7.322,0.781-11.463
						c-0.056-4.158-0.04-8.174,1.313-10.859c-0.34-4.239,0.046-7.738,0.843-10.911c0.795-3.195,2.001-5.977,3.296-8.606
						c1.29-2.656,2.686-5.047,3.802-7.741c1.122-2.652,1.991-5.396,2.257-8.462c0.307-0.693-2.889-3.146-0.293,0.248
						c-3.212,3.022-5.225,7.534-7.159,12.175c-0.962,2.349-1.891,4.792-2.91,7.193c-0.51,1.198-1.042,2.395-1.611,3.545
						c-0.57,1.127-1.178,2.225-1.836,3.276c1.189,4.633-0.338,6.687-0.921,9.677c-0.608,2.237,1.438,10.074-2.157,7.531
						c0.008-1.239,0.833-1.657-2.977-6.712c-1.836-3.08-1.051-3.548-1.289-5.023c-0.934-3.407,0.546-4.398,0.813-6.582
						c-1.16-6.017,2.398-7.34,1.416-13.067c3.556-0.762,1.612-6.656,3.518-8.886c-0.715-2.162-3.701-6.386-2.765-7.003
						c3.076,0.754,1.856-2.127,2.201-4.882c2.1-2.625,3.794-5.586,5.581-8.431c0.445-0.714,0.901-1.411,1.364-2.111
						c0.457-0.716,0.929-1.417,1.423-2.1c0.987-1.363,2.063-2.646,3.3-3.8c-0.637-3.334,0.696-5.043,1.101-7.479
						c0.364-0.32,0.712-0.673,1.065-1.013c-2.492-2.544-2.135-0.967-2.707-0.741l-1.344,1.218l-1.344,1.217
						c-6.448,5.395-12.687,11.919-16.662,20.647c-3.037,2.069-5.787,5.712-8.447,9.677c-1.241,1.841-2.674,3.678-3.74,5.776
						c-1.01,1.986-1.035,5.267-1.407,7.971c-0.374,2.666-1.087,4.771-3.394,4.423c1.082-2.309-1.665-8.525-2.634-12.841
						c0.384-5.68-0.125-12.662-0.165-19.074c-0.009-3.188,0.064-6.317,0.443-9.078c0.38-2.76,1.063-5.162,2.247-6.998
						c0.626-0.977,2.768-0.613,2.92-2.329c0.172-1.906-1.57-6.286-3.026-10.001c0.514-2.201,0.909-4.485,1.2-6.833
						c0.146-1.173,0.265-2.363,0.359-3.565c0.08-1.22,0.126-2.462,0.155-3.71l2.879-2.603c-0.613-3.302-2.918-0.917-3.272-0.267
						c-1.2,1.068-2.362,2.174-3.592,3.211l-3.691,3.109c-2.472,2.062-4.886,4.186-7.448,6.15c-1.67-0.311-0.19,4.693-5.508-1.771
						c-0.375-3.513,1.682-4.632,3.699-5.823c1.973-1.224,3.937-2.495,3.299-6.089c-2.948-0.754-5.029-0.181-6.513,0.897
						c-1.473,1.086-2.444,2.597-2.982,3.814c-1.663,3.583-8.919-0.75-6.886,5.426c-0.432,0.711-1,1.195-2.966-0.786
						c-3.127-3.844-1.529,0.421-4.843-5.367c-4.497-5.904-3.584-6.255-2.884-6.825c0.746-0.679-1.27-4.121,0.674-3.557
						c-2.653-5.448,2.323-3.258-2.229-10.476c-1.843-0.61-7.038-6.736-9.226-8.006c-0.743,1.298-4.258-2.021-4.32,0.372
						c-4.457-2.542-6.305-0.701-10.973-3.807c-2.118-0.376-1.096,4.771-5.207,0.879c0.234-0.161,0.458-0.326,0.678-0.493
						c-0.089-0.875-2.018-2.742-1.852-1.606l-1.147,0.809c-1.809-0.552-5.988-8.049-6.51-7.155
						c-0.394,1.174-1.692,0.717-3.411-0.532c-1.079-0.086-1.308,1.393-5.699-4.784c-6.343-8.934-3.181-7.069-5.185-11.034
						c-1.159-3.139-3.088-7.108-3.463-9.305c-0.013-1.094,0.149-1.964,0.435-2.672c0.255-0.71,0.637-1.258,1.1-1.707
						c0.925-0.897,2.173-1.398,3.355-1.99c1.173-0.592,2.318-1.273,2.919-2.521c0.568-1.25,0.661-3.062-0.153-5.89
						c-1.249,0.4-2.514,0.77-3.787,1.119c-1.334,0.346-2.703,0.669-4.056,0.98c-2.747,0.622-5.34,1.194-8.2,1.78
						c-2.808,0.588-5.488,1.196-8.163,1.902c-2.743,0.708-5.366,1.512-7.815,2.492c-1.224,0.331-4.083-4.674-3.051-0.856
						c-7.071-4.863-2.108,9.918-8.712,5.625c-2.941-4.797-0.225-2.607-2.707-6.799c-1.901,2.536-3.769,5.682-5.492,9.191
						c-1.777,3.52-3.575,7.428-5.082,11.436c5.556,9.777,1.625-1.492,5.699,4.968c-0.578,1.552-1.171,3.004-1.752,4.417
						c-0.614,1.419-1.231,2.802-1.803,4.204c-1.147,2.805-2.148,5.695-2.819,9.168c-0.313-0.223-0.682-0.574-1.083-1.001
						c-0.212-0.235-0.419-0.464-0.623-0.69c1.94-1.131,0.537-0.314,0.97-0.567l-0.001-0.001l-0.002-0.003l-0.005-0.006l-0.01-0.011
						l-0.021-0.023l-0.041-0.046l-0.082-0.093l-0.165-0.189l-0.333-0.387c-0.894-1.046-1.823-2.179-2.61-2.964
						c-1.014,3.748-3.262,6.286-5.787,8.265c-0.631,0.495-1.28,0.955-1.93,1.39c-0.632,0.423-1.256,0.815-1.874,1.196
						c-1.233,0.761-2.417,1.465-3.436,2.195c-2.415-1.759-4.548-2.842-6.5-3.487c-0.976-0.323-1.907-0.537-2.804-0.671
						c-0.847-0.172-1.648-0.273-2.434-0.321c-3.137-0.199-5.937,0.376-9.197-0.201c-1.038,1.187-1.828,2.127-2.809,3.01
						c-0.956,0.861-1.989,1.563-3.174,1.977c-1.18,0.409-2.532,0.549-4.071,0.234c-1.458-0.396-3.134-1.213-5.089-2.59
						c-1.513,1.442-4.155-0.101-6.378-0.911c-2.066-0.98-3.685-1.237-3.585,3.077c-1.88-3.314-2.239-2.498-3.34-3.736
						c0.704,2.821,0.185,3.075-0.513,2.586c-0.679-0.51-1.614-1.678-1.948-1.52c-1.072,0.5-2.807,2.121-3.071,3.885
						c-0.094,0.599-1.246-1.955-1.388-2.032c-1.153-0.431-2.334-1.152-3.486-2.054c-0.576-0.451-1.145-0.946-1.702-1.473
						c-0.278-0.263-0.553-0.534-0.824-0.811l-0.051-0.052l-0.013-0.013l-0.006-0.007l-0.002-0.001
						c8.21-2.491,2.274-0.691,4.105-1.247l-0.007-0.002l-0.057-0.02l-0.225-0.077l-0.448-0.156
						c-0.298-0.107-0.594-0.214-0.887-0.319c-1.079-0.402-2.132-0.795-3.162-1.179l-0.77-0.29l-0.191-0.072
						c-0.049-0.028-0.173-0.033-0.104-0.099l0.167-0.311c0.223-0.413,0.451-0.815,0.682-1.207c0.463-0.782,0.943-1.518,1.438-2.195
						l0.374-0.497l0.187-0.239l-0.118-0.174c-0.152-0.219-0.302-0.436-0.451-0.651c-0.151-0.209,0.454,2.627,0.26,2.398
						c-0.027-0.088-0.153-0.505-0.319-1.056c-0.163-0.534-0.341-1.1-0.427-1.241c-0.128-0.214-0.239-0.369-0.336-0.476
						c-0.049-0.054-0.094-0.095-0.137-0.126c-0.035-0.032-0.079-0.052-0.182-0.054c-0.338-0.018-0.625,0.107-0.89,0.286
						c-0.53,0.356-0.976,0.925-1.566,0.987c-0.108,0.011-0.186-0.025-0.339-0.08c-0.169-0.052-0.344-0.134-0.523-0.234
						c-0.358-0.2-0.73-0.475-1.096-0.734c-0.733-0.52-1.442-0.979-1.967-0.662c-0.297,0.178-0.578,0.449-0.846,0.787
						c-0.134,0.169-0.265,0.354-0.393,0.553l-0.54,0.664c-0.723,0.932-1.41,2.021-2.099,3.056c-0.689,1.035-1.379,2.014-2.11,2.727
						c-0.183,0.178-0.368,0.339-0.557,0.48c-0.235,0.152-0.481,0.287-0.726,0.397c-0.492,0.221-0.999,0.348-1.527,0.355
						c-0.481,3.431-1.024,6.656-1.554,9.851c-0.258,1.597-0.516,3.196-0.773,4.79l-0.188,1.208l-0.25,1.236
						c-0.158,0.836-0.316,1.671-0.473,2.501c-1.209,6.733-1.974,14.033-1.596,23.259c1.935,8.593,5.445,20.538,5.787,25.754
						c4.924,13.459,6.968,24.796,11.52,41.663c3.033,7.046,5.955,14.411,8.801,22.605c0.722,7.449,3.831,16.635,5.74,25.775
						c0.648,0.332,2.049,6.052,2.951,9.161c1.026,3.555,2.001,4.811,2.31,9.319c0.728-0.656,1.603,0.302,2.714,4.351
						c0.779,0.121,1.552,0.142,2.837,6.767c-1.364-1.455-0.354,4.259-1.707,2.8c3.681,16.495,4.13,23.299,6.561,35.401
						C576.917,164.725,577.833,168.176,578.896,173.537z M704.975-63.702c1.919,1.12,1.445,2.864,0.709,2.439
						C703.777-62.379,704.248-64.122,704.975-63.702z M800.141,68.879c4.534,5.631,1.782,3.944,1.551,4.79
						C800.021,70.903,799.754,69.56,800.141,68.879z"/>
				</g>
			</g>
		</g>
		<g display="none" clip-path="url(#SVGID_3_)">
			<g display="inline">
				<g>
					<path fill="#2C42C4" d="M1208.375,393.175c2.892,1.629,0.313,1.635,2.37,3.016c-2.262,2.367-2.251,7.184-7.059,6.817
						C1202.599,398.055,1208.822,396.706,1208.375,393.175z"/>
					<path fill="#2C42C4" d="M1186.333,400.782c1.101,0.054,0.965,0.878,0.634,1.189l-0.723,1.032
						c-1.09-0.061-0.951-0.891-0.629-1.197L1186.333,400.782z"/>
					<path fill="#2C42C4" d="M1198.265,408.841c1.189,0.736,1.729,1.26,1.791,1.632c-0.084,2.12-1.005,4.41-2.561,6.092
						c-1.603,1.582-3.842,2.531-6.49,2.166c-0.353-2.884,0.916-4.293,2.537-5.553
						C1195.131,411.884,1197.136,410.795,1198.265,408.841z"/>
					<path fill="#2C42C4" d="M1206.519,417.982c1.501-0.39,0.918,1.448,0.345,1.604l-1.069,1.522
						c-1.485,0.374-0.897-1.465-0.335-1.613L1206.519,417.982z"/>
					<path fill="#2C42C4" d="M1203.219,420.595c1.14-0.005,0.919,0.975,0.537,1.29c-1.637,2.409-3.292,4.954-4.759,7.455
						c-0.733,1.251-1.42,2.491-2.034,3.698c-0.655,1.164-1.235,2.298-1.713,3.379l-1.388,1.614l-0.695,0.808
						c-0.874-0.766-0.424-0.937-0.448-1.32l1.152-1.34c-0.197-1.44,1.334-2.122,0.222-3.944c2.166-1.497,3.162-3.836,4.307-6.007
						C1199.529,424.027,1200.742,421.955,1203.219,420.595z"/>
					<path fill="#2C42C4" d="M1183.975,425.604c1.553,0.929,2.533,1.008,2.942,0.255c0.523,3.677-3.89,5.152-5.283,7.98
						c-2.36-0.162,1.588-3.115-1.139-2.358c-0.464-2.746,0.656-4.693,2.206-6.455c0.763-0.89,1.68-1.69,2.465-2.589
						c0.793-0.892,1.541-1.805,2.091-2.799c2.243,0.736-0.727,2.249-0.919,3.131
						C1185.601,423.758,1184.771,424.667,1183.975,425.604z"/>
					<path fill="#2C42C4" d="M1180.303,435.385c2.121,1.152,0.175,1.527-0.028,1.81c-0.949,1.465-3.512,3.387-4.67,4.956
						c-1.865-1.964,1.411-1.233-1.458-3.706c2.413,1.298,2.841,0.845,1.385-1.47
						C1177.959,437.834,1179.435,437.073,1180.303,435.385z"/>
					<path fill="#2C42C4" d="M1156.634,462.127c-2.323-3.351-0.043-2.982,0.657-3.832c1.01-1.232,2.43-2.398,3.891-3.58
						c1.473-1.165,2.886-2.469,4.013-3.786C1163.806,456.02,1158.151,458.047,1156.634,462.127z"/>
					<path fill="#2C42C4" d="M1165.904,469.919c1.099,0.264,0.703,1.102,0.278,1.367l-1.309,1.181
						c-1.094-0.269-0.697-1.106-0.273-1.37L1165.904,469.919z"/>
					<path fill="#2C42C4" d="M1163.816,476.612c1.518,0.041,0.558,1.6-0.021,1.596
						C1162.281,478.163,1163.236,476.603,1163.816,476.612z"/>
					<path fill="#2C42C4" d="M1162.987,478.89c1.937,0.525-0.187,1.703-0.575,2.05c-0.377,1.646-1.166,3.032-2.754,3.891
						C1157.529,480.681,1161.939,480.911,1162.987,478.89z"/>
					<path fill="#2C42C4" d="M913.942,486.444c-0.394,1.436-1.132,3.132-1.959,4.349c-0.414,0.608-0.852,1.097-1.284,1.373
						c-0.479,0.294-0.963,0.379-1.396,0.152c0.254-0.748,0.571-1.411,0.937-2.007c0.319-0.579,0.676-1.086,1.068-1.546
						C912.093,487.845,913.003,487.124,913.942,486.444z"/>
					<path fill="#2C42C4" d="M937.2,613.962c0.635-0.333,1.225,1.635,1.814,3.309c1.107,2.257,2.206,3.94,3.266,6.679
						c0.377,0.326,0.753,0.674,1.126,1.046c0.409,0.37,0.826,0.765,1.236,1.189c0.821,0.851,1.633,1.821,2.432,2.949
						c1.694-1.104,3.575,1.082,5.472,1.413c0.621,0.947,1.215,2.222,1.812,3.453c0.604,1.229,1.167,2.426,1.897,3.179
						c1.271,0.329,2.652,1.059,4.049,1.754c0.7,0.347,1.396,0.688,2.095,0.96c0.772,0.25,1.536,0.437,2.275,0.506
						c1.049,0.1,2.088,0.075,3.12-0.022c0.517-0.049,1.031-0.115,1.545-0.193c0.655-0.119,1.386-0.274,2.074-0.424
						c1.396-0.316,2.796-0.635,4.197-0.952l2.112-0.446l0.531-0.103c0.183-0.034,0.37-0.069,0.435-0.073l0.585-0.06
						c1.208-0.088,2.409-0.176,3.605-0.264l0.449-0.032l0.224-0.016l0.112-0.008l0.028-0.002l0.014-0.001h0.007l2.096-0.635
						l0.072-0.013l1.17-0.205c0.779-0.138,1.557-0.276,2.333-0.414c3.106-0.557,6.195-1.133,9.259-1.757
						c1.524-0.314,3.071-0.63,4.559-0.98c1.435-0.371,2.862-0.757,4.281-1.159c2.837-0.806,5.639-1.681,8.392-2.651
						c1.044-1.024,1.244-2.987,2.54-3.681c11.613-6.968,22.002-13.909,33.468-17.885c1.884-0.646,3.833-1.165,5.815-1.626
						l2.923-0.643l2.879-0.593c1.92-0.392,3.837-0.79,5.715-1.26c0.938-0.234,1.868-0.487,2.782-0.766l1.354-0.437
						c0.425-0.144,0.845-0.295,1.26-0.454c1.688-0.645,3.065-2.051,4.672-2.688c2.286-0.899,5.06-0.657,7.312-1.437
						c2.589-0.883,4.753-1.906,6.79-2.949c1.015-0.529,2.006-1.046,2.997-1.563l0.746-0.385l0.187-0.095l0.763-0.441l0.049-0.026
						l0.099-0.052l0.396-0.206c0.533-0.268,1.068-0.536,1.61-0.807c4.019-3.738,6.969-8.347,10.138-12.996
						c1.572-2.305,3.173-4.574,4.949-6.677c1.784-2.121,3.765-4.13,6.063-5.816c0.605-2.274,1.8-4.022,2.931-5.819
						c1.135-1.814,2.216-3.716,2.562-6.207l2.412-1.563c0.741-2.761,1.753-5.239,2.907-7.649c1.156-2.424,2.448-4.719,3.74-7.001
						c1.29-2.294,2.582-4.526,3.727-6.945c1.144-2.423,2.142-4.943,2.846-7.669c1.387-2.204,2.128-4.857,2.903-7.521
						c0.773-2.676,1.592-5.288,3.181-7.312c0.593-2.694,1.633-5.055,2.89-7.309c1.25-2.271,2.74-4.362,4.271-6.376
						c3.084-3.969,6.252-7.871,7.945-12.141c0.378-0.535-1.498-1.528-0.271,0.229c-3.048,2.721-5.47,6.206-7.945,9.686
						c-1.227,1.778-2.463,3.569-3.713,5.381c-0.636,0.898-1.282,1.802-1.955,2.678c-0.679,0.857-1.378,1.701-2.106,2.524
						c-0.04,2.79-1.641,4.44-2.696,6.506c-0.932,1.582-0.887,6.245-3.193,5.319c0.26-0.801,0.992-1.236-0.953-3.734
						c-0.805-1.621-0.102-2.089,0.014-3.001c-0.033-2.026,1.324-2.982,1.984-4.468c0.344-3.703,3.416-5.309,3.857-8.896
						c2.894-1.263,2.639-4.776,4.59-6.68c-0.085-1.296-1.47-3.494-0.609-4.112c2.209-0.153,1.904-1.827,2.756-3.785
						c2.165-2.253,4.101-4.65,6.091-6.996c1.001-1.17,2.006-2.344,3.021-3.53c1.034-1.17,2.118-2.306,3.292-3.385
						c0.265-2.194,1.644-3.692,2.498-5.5c0.347-0.304,0.674-0.638,1.007-0.959c-1.27-1.253-1.345-0.2-1.828,0.082l-1.28,1.159
						l-1.28,1.158c-6.003,5.265-12.273,11.206-17.287,18.018c-2.837,2.065-5.768,5.153-8.741,8.382
						c-1.393,1.497-2.934,3.029-4.236,4.652c-1.235,1.536-1.959,3.712-2.832,5.569c-0.884,1.825-1.906,3.35-3.683,3.616
						c1.363-1.736,0.511-5.213,0.691-7.841c1.538-3.84,2.682-8.376,4.128-12.674c0.734-2.132,1.5-4.28,2.439-6.254
						c0.94-1.973,2.049-3.78,3.428-5.319c0.729-0.821,2.351-1.061,2.871-2.289c0.578-1.368,0.242-4.009-0.008-6.27
						c0.938-1.675,1.811-3.385,2.624-5.122c0.407-0.868,0.8-1.743,1.179-2.624c0.364-0.898,0.706-1.811,1.039-2.723l2.9-2.621
						c0.359-2.254-2.045,0.071-2.488,0.637c-1.212,1.079-2.389,2.197-3.63,3.245l-3.728,3.14c-2.496,2.082-4.936,4.228-7.519,6.208
						c-1.281,0.197-1.316,3.312-4.041,0.132c0.573-2.361,2.549-3.659,4.491-5.006c1.903-1.385,3.8-2.791,4.215-5.206
						c-2.18,0.218-4.018,1.176-5.5,2.339c-1.472,1.172-2.675,2.459-3.425,3.459c-2.271,2.925-7.169,1.775-7.051,5.556
						c-0.54,0.597-1.134,1.07-2.271,0.194c-1.635-1.869-1.388,0.675-2.685-2.486c-2.261-2.943-1.396-3.424-0.653-4.001
						c0.809-0.659,0.016-2.554,1.505-2.682c-0.786-3.151,2.817-2.938,0.944-6.865c-1.392,0.067-4.117-2.895-5.642-3.189
						c-1.003,1.147-3.104-0.24-3.834,1.509c-3.152-0.577-5.282,1.239-8.51,0.353c-1.764,0.335-2.295,3.695-4.842,2.102
						c0.251-0.174,0.496-0.353,0.736-0.535c0.167-0.596-1.019-1.362-1.19-0.608l-1.243,0.878c-1.452,0.111-3.07-3.971-3.791-3.198
						c-0.685,0.932-1.718,0.975-2.91,0.586c-0.947,0.246-1.568,1.344-3.787-1.729c-3.202-4.445-0.854-4.056-1.521-6.274
						c-0.135-1.885-0.717-4.14-0.393-5.601c0.322-0.779,0.739-1.451,1.224-2.048c0.463-0.604,0.994-1.132,1.569-1.613
						c1.149-0.961,2.475-1.733,3.765-2.551c1.284-0.82,2.561-1.673,3.534-2.815c0.951-1.152,1.648-2.572,1.862-4.477
						c-10.544,5.935-22.229,10.598-32.774,16.216c-1.249,0.594-2.49-2.027-2.619,0.298c-5.237-1.334-4.787,7.392-9.729,6.283
						c-1.426-2.428,0.495-1.682-0.659-3.837c-2.47,2.224-5.057,4.827-7.597,7.635c-2.572,2.803-5.198,5.793-7.598,8.802
						c2.636,4.976,1.865-1.386,3.972,1.803c-0.918,1.158-1.822,2.254-2.705,3.32c-0.903,1.071-1.782,2.114-2.645,3.139
						c-1.711,2.079-3.307,4.175-4.736,6.562c-0.229-0.067-0.479-0.205-0.74-0.382l-0.197-0.141l-0.101-0.075l-0.051-0.038
						l-0.024-0.02l-0.013-0.01l-0.007-0.005l-0.003-0.003l-0.002-0.001l-0.001-0.001c-0.105,0.062,0.921-0.537,0.486-0.284
						l-0.414-0.332c-0.556-0.46-1.124-0.967-1.643-1.287c-3.397,5.124-10.09,8.307-14.33,11.029
						c-1.756-0.563-3.415-0.764-5.011-0.73c-0.798,0.018-1.581,0.093-2.352,0.211c-0.747,0.097-1.477,0.23-2.201,0.393
						c-2.896,0.647-5.674,1.711-8.608,2.155c-1.236,1.005-2.352,1.851-3.55,2.677c-1.187,0.813-2.405,1.542-3.699,2.128
						c-1.292,0.582-2.668,1.033-4.146,1.253c-1.445,0.164-3.006,0.121-4.718-0.195c-2.069,1.385-4.488,1.169-6.698,1.32
						c-2.15,0.028-4.079,0.417-5.368,3.195c-1.201-1.537-1.913-0.882-2.861-1.316c-0.067,1.602-0.738,1.93-1.492,1.858
						c-0.747-0.088-1.607-0.51-2.144-0.279c-1.716,0.735-4.794,2.456-5.782,3.69c-0.334,0.42-1.072-0.791-1.305-0.777
						c-1.786,0.209-3.524,0.253-5.185,0.183c-0.83-0.034-1.641-0.098-2.429-0.182c-0.395-0.048-0.783-0.095-1.165-0.141l-0.071-0.01
						l-0.018-0.003l-0.009-0.001h-0.003c4.093-1.242,1.133-0.345,2.045-0.622h-0.006l-0.052-0.003l-0.206-0.012l-0.41-0.024
						c-0.272-0.019-0.543-0.036-0.812-0.055c-0.983-0.073-1.944-0.145-2.885-0.215l-0.701-0.055
						c-0.098-0.015-0.275-0.003-0.305-0.041l-0.075-0.117c-0.094-0.152-0.188-0.303-0.28-0.451
						c-0.166-0.274-0.327-0.542-0.485-0.804l-0.106-0.177l-0.053-0.085l-0.204-0.056c-0.271-0.068-0.537-0.136-0.802-0.203
						c-0.277-0.062,0.007,1.361-0.351,1.302c-0.043-0.011-0.558-0.95-0.854-1.046c-0.457-0.146-0.793-0.185-1.199-0.144
						c-0.439,0.043-0.834,0.154-1.21,0.291c-0.75,0.272-1.422,0.644-2.201,0.769c-0.239,0.038-0.568,0.004-0.922-0.063
						c-0.344-0.07-0.695-0.177-1.042-0.275c-0.693-0.199-1.37-0.369-1.933-0.154c-0.319,0.12-0.631,0.288-0.936,0.488
						c-0.152,0.101-0.303,0.209-0.452,0.324l-0.525,0.38c-0.702,0.53-1.385,1.14-2.067,1.722c-0.682,0.581-1.362,1.135-2.06,1.554
						c-0.174,0.104-0.35,0.201-0.526,0.287c-0.2,0.093-0.405,0.177-0.609,0.249c-0.41,0.144-0.826,0.24-1.251,0.277
						c-0.599,1.788-1.241,3.477-1.88,5.15c-0.635,1.672-1.249,3.321-1.954,5.104c-1.331,3.534-2.396,7.341-2.75,12.078
						c0.916,4.31,2.858,10.238,2.733,12.914c2.988,6.609,3.792,12.328,6.24,20.722c2.026,3.406,3.979,6.976,5.839,10.973
						c-0.053,3.819,1.962,8.307,2.87,12.887c0.607,0.102,1.383,2.943,1.954,4.471c0.65,1.742,1.508,2.3,1.315,4.623
						c0.826-0.422,1.617-0.016,2.321,1.979c0.799-0.023,1.603-0.098,2.222,3.219c-1.277-0.605-0.866,2.271-2.139,1.663
						c1.953,8.226,1.612,11.738,2.638,17.835C936.172,609.56,936.714,611.273,937.2,613.962z M1094.073,449.138
						c1.385,0.259,0.485,1.6-0.047,1.504C1092.647,450.385,1093.546,449.045,1094.073,449.138z M1141.523,515.523
						c2.401,2.721,0.592,2.184,0.239,2.773C1141.015,516.852,1141.08,516.041,1141.523,515.523z"/>
				</g>
			</g>
		</g>
		<path clip-path="url(#SVGID_3_)" fill="#2C42C4" d="M717.166,542.164c-4-9.334-21.333-13.333-32.667-39.333s-4-10.666-18.667-44
			s-20.667-52-18.667-78s17.333-13.334,20.667-36.667s2-16.667,6.667-30s18-28.667,21.333-37.333s12-42,22-49.333
			s26.667-3.334,35.333-18.667s-12.667-14,14-33.333s51.333-33.333,72-36.667s7.333-4,7.333-4s-123.333-26.666-130.667-19.333
			s-164,154.667-166,176s-28.667,5.332-0.667,58.666s44.667,92,62.667,106.667s39.333,66.667,55.333,74
			S717.166,542.164,717.166,542.164z"/>
	</g>
	<path fill-rule="evenodd" clip-rule="evenodd" fill="#394CD3" d="M985.166,256.164c5.333,4,10.001,3.333,12.667,11.333
		s8.667,24.666,10,31.333s-2.001,12.667-3.334,16.667S985.166,256.164,985.166,256.164z"/>
</g>
<g id="Layer_4">
	
		<linearGradient id="SVGID_4_" gradientUnits="userSpaceOnUse" x1="769.717" y1="348.6638" x2="848.2502" y2="348.6638" gradientTransform="matrix(0.6707 0.7418 -0.7418 0.6707 520.2781 -474.5002)">
		<stop  offset="0.0148" style="stop-color:#FFFFFF;stop-opacity:0"/>
		<stop  offset="0.8818" style="stop-color:#FFE5FF"/>
	</linearGradient>
	<path opacity="0.4" fill="none" stroke="url(#SVGID_4_)" stroke-width="1.5" stroke-miterlimit="10" d="M941.804,190.635
		c10.686-1.924,18.584-0.697,22.93,4.11c19.631,21.712-40.671,108.225-134.688,193.232
		c-94.017,85.006-186.146,136.317-205.778,114.604c-5.82-6.438-4.614-18.57,2.414-34.672"/>
</g>
<g id="Layer_5">
	
		<ellipse transform="matrix(0.8411 0.5408 -0.5408 0.8411 233.7529 -434.7582)" fill="#2C42C4" cx="856.896" cy="180.501" rx="17.668" ry="10.085"/>
	
		<ellipse transform="matrix(0.8411 0.5409 -0.5409 0.8411 255.5447 -456.4901)" fill="#2C42C4" cx="904.664" cy="206.661" rx="13.34" ry="10.083"/>
	<path fill="#FFF3D9" d="M947.773,94.219c0,0-0.752,3.388-1.674,5.191c-0.92,1.8-2.773,4.323-4.212,6.892s-5.352,2.446-6.639,2.838
		c-1.29,0.389-3.828,2.429-4.577,3.387c-0.749,0.956-2.182,2.252-2.513,3.935c-0.333,1.684-13.224-5.884-11.305-5.505
		c3.487,0.686,10.473-7.603,11.617-11.058c1.147-3.454,3.621-9.869,5.829-9.71C936.505,90.346,947.773,94.219,947.773,94.219z"/>
	<g>
		
			<ellipse transform="matrix(0.4485 -0.8938 0.8938 0.4485 429.699 900.2386)" fill="none" stroke="#0F0A2B" stroke-miterlimit="10" cx="944.371" cy="101.906" rx="2.714" ry="2.751"/>
		<path fill="none" stroke="#0F0A2B" stroke-miterlimit="10" d="M940.184,96.769c-1.354-0.683-3.001-0.147-3.674,1.191
			c-0.673,1.339-0.116,2.978,1.241,3.659c1.357,0.683,3.003,0.149,3.675-1.191C942.102,99.089,941.546,97.449,940.184,96.769z"/>
	</g>
	<path fill="none" stroke="#FFFFFF" stroke-width="0.7271" stroke-linecap="round" stroke-miterlimit="10" d="M945.832,102.933
		c0.481-0.957,0.085-2.128-0.888-2.616"/>
	<path fill="none" stroke="#FFFFFF" stroke-width="0.7271" stroke-linecap="round" stroke-miterlimit="10" d="M940.35,100.244
		c0.48-0.958,0.086-2.129-0.886-2.615"/>
	<path fill="#E0402F" d="M934.926,92.597c0,0,4.394,2.071,8.979,3.259c4.587,1.188,5.908,1.268,7.98,0.535
		c2.074-0.732,4.106-4.025,2.578-5.564c-1.528-1.537-4.086-0.804-8.576-1.02c-4.486-0.218-6.191-2.327-9.59-3.185
		c-3.4-0.859-6.166-2.011-8.447,1.252c-2.283,3.263-3.918,8.649-6.554,11.746c-2.634,3.098-11.254,2.136-15.397,1.131
		c-7.434-0.917-14.227-0.526-16.958,1.875c-2.809,2.057-0.855,13.754,6.021,16.059c6.877,2.303,7.714,3.011,16.556-1.244
		c8.84-4.257,8.844-4.815,15.042-10.142c1.938-4.945,4.207-8.256,5.384-10.309C933.117,94.937,934.926,92.597,934.926,92.597z"/>
	<g>
		<g>
			<path fill="#E0402F" d="M939.633,106.82c-1.16-0.24-2.277-0.664-2.995-1.644c-0.341-0.461,0.269-1.678,0.713-1.07
				c0.616,0.837,1.603,1.153,2.586,1.357C940.546,105.591,940.247,106.949,939.633,106.82L939.633,106.82z"/>
		</g>
	</g>
	<g opacity="0.2">
		<g>
			<path fill="#E0402F" d="M935.005,102.902c-0.392-0.729-0.854-1.42-1.245-2.148c-0.222-0.41-0.204-0.893,0.058-1.284
				c0.175-0.263,0.677-0.547,0.895-0.144c0.393,0.731,0.856,1.422,1.248,2.15c0.221,0.409,0.202,0.89-0.059,1.284
				C935.728,103.022,935.223,103.306,935.005,102.902L935.005,102.902z"/>
		</g>
	</g>
	<path fill="#FFF3D9" d="M955.133,146.675c0,0,2.393,2.136,4.997,3.018c2.604,0.882,3.491,0.218,4.065-0.159
		c1.373-0.9,2.253-3.504,2.253-3.504s-1.472-2.334-5.537-2.175c-3.559,0.141-4.529-1.429-4.529-1.429L955.133,146.675z"/>
	
		<rect x="970.315" y="130.687" transform="matrix(0.7674 0.6411 -0.6411 0.7674 327.3471 -606.4552)" fill="#222F6D" width="58.5" height="34.55"/>
	
		<line fill="none" stroke="#5D75DB" stroke-width="3" stroke-linecap="round" stroke-linejoin="round" stroke-miterlimit="10" x1="911.957" y1="202.73" x2="988.188" y2="115.916"/>
	<path fill="#FFB640" d="M924.164,113.488c1.471,0.946,5.427,2.498,6.961,4.275c1.532,1.778,5.714,8.827,7.909,11.426
		c2.191,2.6,10.121,8.293,12.646,9.916c2.522,1.623,4.204,2.704,4.702,3.32c0.494,0.616-1.249,4.25-1.249,4.25
		s-4.191-1.801-9.507-4.627c-5.318-2.824-9.688-7.122-13.277-10.321c-3.589-3.2-2.725-2.542-5.093-1.787
		c-2.366,0.755-4.335,2.644-6.661,5.425c-2.583,3.095-2.924,4.856-3.534,7.042c-0.57,2.042,0.462,2.672-0.621,8.516
		c-1.085,5.842-22.689-12.014-22.689-12.014s3.733-0.572,8.854-6.688c5.301-6.329,2.994-6.501,2.963-8.302
		c-0.029-1.804,1.203-5.568,1.203-5.568s-11.016,2.032-11.469,2.732c-0.865,1.347,4.568,10.467,4.568,10.467l-2.776,2.772
		c0,0-9.867-13.777-7.897-16.375c1.968-2.6,20.478-8.428,24.083-8.488C916.884,109.399,922.693,112.539,924.164,113.488z"/>
	
		<radialGradient id="SVGID_5_" cx="0.4602" cy="1228.7185" r="19.8932" fx="5.3206" fy="1242.8466" gradientTransform="matrix(-0.0804 0.9968 -0.9968 -0.0804 2170.4436 194.4733)" gradientUnits="userSpaceOnUse">
		<stop  offset="0" style="stop-color:#FFFFFF;stop-opacity:0"/>
		<stop  offset="1" style="stop-color:#FFE5FF"/>
	</radialGradient>
	<path opacity="0.3" fill="url(#SVGID_5_)" enable-background="new    " d="M948.595,74.68c9.241,5.943,11.913,18.252,5.972,27.493
		c-5.942,9.24-18.251,11.917-27.49,5.974c-9.245-5.942-11.917-18.252-5.974-27.494C927.044,71.414,939.351,68.738,948.595,74.68z"/>
	<path fill="#FFB640" d="M901.712,133.92c-0.412,0.333-6.971,3.446-9.975,6.268c-3.007,2.825-12.23,9.774-13.423,13.167
		c0,0-13.771,11.555-17.605,14.438c-3.834,2.885-5.188,4.987-5.188,4.987l3.053,2.953c0,0,15.134-7.507,19.339-10.352
		c4.205-2.842,5.088-2.672,5.587-3.143c0.504-0.472,1.795-0.631,6.223-4.126c4.425-3.494,11.135-5.917,12.146-6.258
		c1.012-0.339,0.961,2.204,0.819,4.89c-0.138,2.682,0.35,18.254,0.859,21.159c0.51,2.903,2.892,12.758,2.833,17.473
		c-0.063,4.719-0.313,6.339-0.313,6.339s5.459,2.916,5.89,1.014c0.432-1.903,0.741-13.792,1.064-22.301
		c0.32-8.512,0.12-9.433,0.12-9.433s1.672-2.296,3.275-11.566c1.605-9.274,0.644-17.023,0.644-17.023"/>
	<path fill="none" stroke="#FFF3D9" stroke-miterlimit="10" d="M924.525,112.925c0,0-3.575,4.636-5.47,7.58
		c-1.889,2.945-4.175,4.648-5.686,8.232c-1.516,3.585-1.986,5.856-3.688,9.122c-1.702,3.264-4.178,7.421-4.899,8.542
		c-0.719,1.12-2.913,5.456-2.913,5.456"/>
	<path fill="#FFF3D9" d="M899.842,131.937c0,0,0.593,0.149,1.363,1.103c0.766,0.954,1.427,2.069,2.313,3.558
		c0.883,1.486,3.251,5.313,2.332,4.952c-0.918-0.361-3.229-3.917-3.229-3.917s2.334,4.951,1.358,4.325
		c-0.978-0.628-2.592-4.198-2.592-4.198s0.661,4.338-0.047,3.652c-0.709-0.687-1.245-3.792-1.245-3.792s0.328,3.43-0.498,2.21
		c-0.825-1.22-2.989-5.372-2.989-5.372L899.842,131.937z"/>
	<path fill="#FFF3D9" d="M856.531,172.44c-1.893,0.17-5.106,1.472-7.629,2.624c-2.524,1.151-2.966,2.453-2.966,2.453
		s-0.37,2.733,0.049,3.005c0.422,0.269,3.567,0.309,5.448-0.462c1.884-0.771,1.412-1.271,3.565-2.463
		c2.154-1.193,4.437-2.892,4.437-2.892L856.531,172.44z"/>
	<path fill="#FFF3D9" d="M909.602,201.233c1.128,1.421,2.379,4.568,3.273,7.13c0.896,2.565,0.326,3.81,0.326,3.81
		s-1.558,2.232-2.011,2.141c-0.454-0.091-2.541-2.22-3.268-4.068c-0.726-1.848-0.086-1.888-0.713-4.227
		c-0.628-2.339-1.003-5.138-1.003-5.138L909.602,201.233z"/>
	<path fill="#FFF3D9" d="M956.382,142.425c0,0,4.14,0.186,6.331,1.4c2.193,1.212,2.484,1.992,2.726,2.545
		c0.239,0.549-0.36,0.562-1.753,0.261c-1.392-0.303-2.606-0.883-3.345-0.964"/>
</g>
<g id="Layer_1">
	<circle fill="#FF553E" cx="1417.234" cy="72.687" r="20.667"/>
	<g>
		<g>
			<polygon fill="#1F38B2" points="1574.397,288.514 1569.014,297.704 1574.217,305.688 1583.719,306.318 1589.102,297.127 			"/>
			<polygon fill="#394CD3" points="1574.397,288.514 1583.904,289.144 1589.102,297.127 1579.598,296.496 			"/>
		</g>
		
			<line fill="none" stroke="#1F38B2" stroke-width="2.7633" stroke-miterlimit="10" x1="1527.584" y1="295.99" x2="1573.866" y2="297.278"/>
		
			<line fill="none" stroke="#1F38B2" stroke-width="2.8822" stroke-linecap="round" stroke-linejoin="round" stroke-miterlimit="10" x1="1519.65" y1="397.021" x2="1492.808" y2="355.481"/>
		<g>
			<polygon fill="#1F38B2" points="1519.302,288.267 1513.916,297.457 1519.115,305.442 1528.62,306.07 1534.007,296.879 			"/>
			<polygon fill="#394CD3" points="1519.302,288.267 1528.807,288.898 1534.007,296.879 1524.5,296.25 			"/>
		</g>
		<g>
			<polygon fill="#1F38B2" points="1486.945,343.507 1481.562,352.697 1486.762,360.681 1496.267,361.309 1501.65,352.117 			"/>
			<polygon fill="#394CD3" points="1486.945,343.507 1496.451,344.136 1501.65,352.117 1492.145,351.49 			"/>
		</g>
		
			<line fill="none" stroke="#1F38B2" stroke-width="2.7633" stroke-linecap="round" stroke-linejoin="round" stroke-miterlimit="10" x1="1521.188" y1="301.448" x2="1494.127" y2="347.648"/>
		<g>
			<polygon fill="#FF553E" points="1512.99,386.517 1507.608,395.71 1512.809,403.691 1522.313,404.322 1527.697,395.132 			"/>
			<polygon fill="#FF7061" points="1512.99,386.517 1522.498,387.148 1527.697,395.132 1518.192,394.503 			"/>
		</g>
	</g>
	<g>
		
			<line fill="none" stroke="#1F38B2" stroke-width="3.2697" stroke-linecap="round" stroke-linejoin="round" stroke-miterlimit="10" x1="80.305" y1="281.914" x2="128.33" y2="255.552"/>
		<g>
			<polygon fill="#1F38B2" points="124.176,246.832 124.176,259.433 134.258,264.473 144.34,259.433 144.34,246.832 			"/>
			<polygon fill="#394CD3" points="124.176,246.832 134.258,241.79 144.34,246.832 134.258,251.87 			"/>
		</g>
		<g>
			<polygon fill="#F7A328" points="68.044,276.804 68.044,289.407 78.127,294.448 88.208,289.407 88.208,276.804 			"/>
			<polygon fill="#FFB640" points="68.044,276.804 78.127,271.763 88.208,276.804 78.127,281.845 			"/>
		</g>
		
			<line fill="none" stroke="#1F38B2" stroke-width="3.2697" stroke-linecap="round" stroke-linejoin="round" stroke-miterlimit="10" x1="25.266" y1="311.885" x2="73.291" y2="285.524"/>
		<polyline fill="#F7A328" points="13.006,319.381 23.088,324.421 33.17,319.381 33.17,306.776 13.006,306.776 		"/>
		<polyline fill="#FFB640" points="13.006,306.776 23.088,301.735 33.17,306.776 23.088,311.816 13.006,306.776 		"/>
	</g>
	<circle fill="#394CD3" cx="1321.699" cy="121.526" r="34.878"/>
	<circle fill="#6978E2" cx="1331.429" cy="107.916" r="4.098"/>
	<circle fill="#6978E2" cx="1323.168" cy="123.219" r="7.421"/>
	<circle fill="#6978E2" cx="1307.066" cy="130.293" r="4.206"/>
	<circle fill="#6978E2" cx="1343.622" cy="122.75" r="3.102"/>
	<circle fill="#6978E2" cx="1305.32" cy="105.073" r="3.102"/>
	<circle fill="#6978E2" cx="1319.575" cy="146.073" r="4.206"/>
	<path opacity="0.7" fill="#1E3296" enable-background="new    " d="M1321.699,86.648c0,0-17.253,1.015-15.591,36.905
		c0.892,19.242,15.591,32.852,15.591,32.852s-5.807,0.2-12.047-2.277c-10.659-4.232-23.813-15.951-22.832-32.601
		c1.109-18.751,11.2-27.329,18.401-30.763C1313.635,86.752,1321.699,86.648,1321.699,86.648z"/>
	<circle fill="#FFFFFF" cx="1336.567" cy="42.081" r="1.879"/>
	<g opacity="0.7">
		<circle opacity="0.7" fill="#FFFFFF" enable-background="new    " cx="1278.5" cy="536.248" r="2.683"/>
		<circle opacity="0.7" fill="#FFFFFF" enable-background="new    " cx="1340.809" cy="495.957" r="2.179"/>
		<circle opacity="0.7" fill="#FFFFFF" enable-background="new    " cx="1253.469" cy="482.226" r="2.179"/>
		<circle opacity="0.7" fill="#FFFFFF" enable-background="new    " cx="1229.49" cy="468.283" r="2.18"/>
		<circle opacity="0.7" fill="#FFFFFF" enable-background="new    " cx="1212.287" cy="431.913" r="2.18"/>
		<circle fill="#FFFFFF" cx="1206.485" cy="483.115" r="2.18"/>
		
			<line opacity="0.7" fill="none" stroke="#FFFFFF" stroke-width="0.7725" stroke-miterlimit="10" enable-background="new    " x1="1340.81" y1="495.96" x2="1278.5" y2="536.251"/>
		
			<polyline opacity="0.7" fill="none" stroke="#FFFFFF" stroke-width="0.7725" stroke-miterlimit="10" enable-background="new    " points="
			1278.5,536.251 1253.469,482.226 1229.49,468.281 1212.291,431.914 		"/>
		
			<line opacity="0.7" fill="none" stroke="#FFFFFF" stroke-width="0.7725" stroke-miterlimit="10" enable-background="new    " x1="1229.49" y1="468.281" x2="1206.484" y2="483.114"/>
	</g>
	
		<path opacity="0.3" fill="none" stroke="#4D66E2" stroke-width="2.6147" stroke-linecap="round" stroke-linejoin="round" stroke-miterlimit="10" enable-background="new    " d="
		M1354.238,135.237c15.799,10.032,22.405,17.716,20.217,22.432c-3.278,7.064-31.336,0.999-62.659-13.547
		c-31.328-14.546-54.064-32.063-50.784-39.128c2.215-4.764,8.519-5.528,26.654,0.216"/>
	<path opacity="0.3" fill="none" stroke="#4D66E2" stroke-width="2.7536" stroke-miterlimit="10" enable-background="new    " d="
		M1354.238,135.237c17.575,10.87,28.163,20.8,25.967,25.532c-3.288,7.084-34.039-0.213-68.684-16.295
		c-34.646-16.086-60.063-34.869-56.771-41.953c2.218-4.777,13.335-3.646,33.291,2.938"/>
	
		<path opacity="0.3" fill="none" stroke="#4D66E2" stroke-width="2.8823" stroke-linecap="round" stroke-linejoin="round" stroke-miterlimit="10" enable-background="new    " d="
		M1357.271,137.128c20.992,12.155,34.891,23.973,32.867,28.385c-3.034,6.609-38.616-3.235-79.471-21.987
		c-40.856-18.752-71.519-39.317-68.479-45.926c2.048-4.457,22.207-0.576,45.478,7.608"/>
	<g opacity="0.7">
		<circle fill="#FFFFFF" cx="364.867" cy="119.159" r="2.244"/>
		<circle fill="#FFFFFF" cx="398.5" cy="120.164" r="2.243"/>
		<circle fill="#FFFFFF" cx="346.952" cy="178.389" r="2.243"/>
		
			<polyline opacity="0.3" fill="none" stroke="#FFFFFF" stroke-width="1.6733" stroke-miterlimit="10" enable-background="new    " points="
			364.892,118.597 398.5,120.164 384.677,188.004 346.926,178.948 364.867,119.159 		"/>
		
			<polyline opacity="0.3" fill="none" stroke="#FFFFFF" stroke-width="1.6733" stroke-miterlimit="10" enable-background="new    " points="
			548.606,42.945 492.23,48.18 429.767,75.588 398.5,120.164 		"/>
		<circle fill="#FFFFFF" cx="384.042" cy="188.205" r="2.393"/>
		<circle fill="#FFFFFF" cx="429.753" cy="75.865" r="2.394"/>
		<circle fill="#FFFFFF" cx="492.204" cy="47.781" r="2.395"/>
		<circle fill="#FFFFFF" cx="548.609" cy="42.947" r="2.395"/>
	</g>
	<circle fill="#FF7061" cx="1418.916" cy="63.334" r="6.25"/>
	<circle fill="#FF7061" cx="1408.666" cy="78.084" r="4.625"/>
	<circle fill="#FF7061" cx="1419.715" cy="84.084" r="1.953"/>
	<circle fill="#FF7061" cx="1404.715" cy="66.584" r="1.953"/>
	<circle fill="#FF7061" cx="1429.666" cy="72.084" r="3.125"/>
	<g id="Layer_2">
		<path fill="#FFB640" d="M419.736,467.1c-4.203,10.216-13.392,7.921-23.607,3.718c-10.213-4.202-17.588-8.722-13.387-18.936
			c4.205-10.216,15.89-15.09,26.107-10.886C419.064,445.197,423.938,456.885,419.736,467.1z"/>
		
			<rect x="382.083" y="452.38" transform="matrix(0.9249 0.3803 -0.3803 0.9249 203.9444 -118.6072)" fill="#FF553E" width="40.168" height="9.002"/>
		
			<linearGradient id="SVGID_6_" gradientUnits="userSpaceOnUse" x1="225.4958" y1="-225.6819" x2="319.1667" y2="-225.6819" gradientTransform="matrix(0.3805 -0.9248 0.9248 0.3805 482.7981 850.1384)">
			<stop  offset="0" style="stop-color:#FFFFFF;stop-opacity:0"/>
			<stop  offset="1" style="stop-color:#FFFFBC"/>
		</linearGradient>
		<polygon opacity="0.2" fill="url(#SVGID_6_)" enable-background="new    " points="337.992,544.88 390.658,467.119 
			403.035,472.211 382.428,565.019 		"/>
		<path fill="#394CD3" d="M431.07,472.845c-1.05,2.553-3.973,3.771-6.525,2.72l-51.789-21.307c-2.553-1.05-3.774-3.972-2.723-6.526
			l0.253-0.616c1.051-2.553,3.973-3.773,6.526-2.721l51.789,21.307c2.553,1.05,3.772,3.974,2.722,6.525L431.07,472.845z"/>
		<path fill="#394CD3" d="M423.857,474.386c-1.049,2.554-12.438,2.992-14.991,1.942l-25.433-10.462
			c-2.553-1.053-10.266-9.215-9.216-11.771l7.543,2.698c1.051-2.555,3.973-3.772,6.526-2.723l25.431,10.465
			c2.553,1.053,3.773,3.974,2.722,6.526L423.857,474.386z"/>
		<path fill="#FFB640" d="M402.635,460.921c-0.324,0.789-1.223,1.164-2.012,0.838c-0.788-0.324-1.163-1.225-0.838-2.013
			c0.322-0.784,1.224-1.16,2.012-0.836C402.583,459.23,402.958,460.134,402.635,460.921z"/>
		<circle fill="#FFB640" cx="390.96" cy="456.115" r="1.541"/>
		<circle fill="#FFB640" cx="383.677" cy="453.12" r="1.542"/>
		<circle fill="#FFB640" cx="378.127" cy="450.838" r="1.541"/>
		<circle fill="#FFB640" cx="373.735" cy="449.031" r="1.541"/>
		<circle fill="#FFB640" cx="412.114" cy="464.821" r="1.542"/>
		<circle fill="#FFB640" cx="418.357" cy="467.389" r="1.541"/>
		<circle fill="#FFB640" cx="424.367" cy="469.861" r="1.223"/>
		<circle fill="#FFB640" cx="428.528" cy="471.574" r="1.222"/>
		<path fill="#394CD3" d="M385.442,474.125c-0.236,0.574-0.894,0.848-1.467,0.612l-4.395-1.807c-0.573-0.238-0.849-0.896-0.609-1.47
			l0,0c0.234-0.574,0.891-0.848,1.465-0.61l4.394,1.809C385.404,472.893,385.679,473.551,385.442,474.125L385.442,474.125z"/>
		
			<line fill="none" stroke="#394CD3" stroke-width="3" stroke-miterlimit="10" x1="382.205" y1="472.795" x2="389.86" y2="466.345"/>
		<path fill="#394CD3" d="M402.731,481.239c-0.237,0.573,0.065,1.244,0.675,1.494l4.664,1.919c0.608,0.25,1.296-0.011,1.532-0.586
			l0,0c0.237-0.575-0.066-1.244-0.678-1.497l-4.663-1.917C403.654,480.4,402.967,480.665,402.731,481.239L402.731,481.239z"/>
		
			<line fill="none" stroke="#394CD3" stroke-width="3" stroke-miterlimit="10" x1="406.165" y1="482.65" x2="405.003" y2="472.577"/>
		<circle fill="#FFD399" cx="409.96" cy="450.015" r="3.376"/>
	</g>
</g>
<g id="Layer_6">
</g>
</svg>
