<?xml version="1.0" encoding="utf-8"?>
<!-- Generator: Adobe Illustrator 16.0.0, SVG Export Plug-In . SVG Version: 6.00 Build 0)  -->
<!DOCTYPE svg PUBLIC "-//W3C//DTD SVG 1.1//EN" "http://www.w3.org/Graphics/SVG/1.1/DTD/svg11.dtd">
<svg version="1.1" xmlns="http://www.w3.org/2000/svg" xmlns:xlink="http://www.w3.org/1999/xlink" x="0px" y="0px" width="1600px"
	 height="735.5px" viewBox="0 0 1600 735.5" enable-background="new 0 0 1600 735.5" xml:space="preserve">
<g id="Layer_1">
	<circle fill="#FF553E" cx="1417.234" cy="72.687" r="20.667"/>
	<g>
		<g>
			<polygon fill="#1F38B2" points="1574.397,288.514 1569.014,297.705 1574.215,305.688 1583.719,306.318 1589.102,297.127 			"/>
			<polygon fill="#394CD3" points="1574.397,288.514 1583.904,289.144 1589.102,297.127 1579.598,296.496 			"/>
		</g>
		
			<line fill="none" stroke="#1F38B2" stroke-width="2.7633" stroke-miterlimit="10" x1="1527.584" y1="295.99" x2="1573.866" y2="297.278"/>
		
			<line fill="none" stroke="#1F38B2" stroke-width="2.8822" stroke-linecap="round" stroke-linejoin="round" stroke-miterlimit="10" x1="1519.65" y1="397.021" x2="1492.808" y2="355.481"/>
		<g>
			<polygon fill="#1F38B2" points="1519.3,288.267 1513.916,297.457 1519.115,305.442 1528.62,306.07 1534.005,296.879 			"/>
			<polygon fill="#394CD3" points="1519.3,288.267 1528.807,288.898 1534.005,296.879 1524.5,296.25 			"/>
		</g>
		<g>
			<polygon fill="#1F38B2" points="1486.945,343.506 1481.562,352.697 1486.762,360.681 1496.267,361.309 1501.65,352.118 			"/>
			<polygon fill="#394CD3" points="1486.945,343.506 1496.451,344.136 1501.65,352.118 1492.145,351.49 			"/>
		</g>
		
			<line fill="none" stroke="#1F38B2" stroke-width="2.7633" stroke-linecap="round" stroke-linejoin="round" stroke-miterlimit="10" x1="1521.188" y1="301.448" x2="1494.127" y2="347.648"/>
		<g>
			<polygon fill="#FF553E" points="1512.99,386.517 1507.608,395.709 1512.809,403.691 1522.313,404.322 1527.697,395.131 			"/>
			<polygon fill="#FF7061" points="1512.99,386.517 1522.498,387.148 1527.697,395.131 1518.192,394.502 			"/>
		</g>
	</g>
	<g>
		
			<line fill="none" stroke="#1F38B2" stroke-width="3.2697" stroke-linecap="round" stroke-linejoin="round" stroke-miterlimit="10" x1="77.879" y1="319.379" x2="125.903" y2="293.017"/>
		<g>
			<polygon fill="#1F38B2" points="121.749,284.297 121.749,296.898 131.831,301.938 141.913,296.898 141.913,284.297 			"/>
			<polygon fill="#394CD3" points="121.749,284.297 131.831,279.255 141.913,284.297 131.831,289.335 			"/>
		</g>
		<g>
			<polygon fill="#F7A328" points="65.617,314.269 65.617,326.873 75.7,331.913 85.781,326.873 85.781,314.269 			"/>
			<polygon fill="#FFB640" points="65.617,314.269 75.7,309.228 85.781,314.269 75.7,319.31 			"/>
		</g>
		
			<line fill="none" stroke="#1F38B2" stroke-width="3.2697" stroke-linecap="round" stroke-linejoin="round" stroke-miterlimit="10" x1="22.84" y1="349.35" x2="70.864" y2="322.989"/>
		<polyline fill="#F7A328" points="10.579,356.845 20.661,361.885 30.743,356.845 30.743,344.241 10.579,344.241 		"/>
		<polyline fill="#FFB640" points="10.579,344.241 20.661,339.2 30.743,344.241 20.661,349.281 10.579,344.241 		"/>
	</g>
	<circle fill="#394CD3" cx="1321.699" cy="121.526" r="34.878"/>
	<circle fill="#6978E2" cx="1331.429" cy="107.916" r="4.098"/>
	<circle fill="#6978E2" cx="1323.167" cy="123.219" r="7.421"/>
	<circle fill="#6978E2" cx="1307.066" cy="130.293" r="4.206"/>
	<circle fill="#6978E2" cx="1343.622" cy="122.75" r="3.102"/>
	<circle fill="#6978E2" cx="1305.32" cy="105.073" r="3.102"/>
	<circle fill="#6978E2" cx="1319.575" cy="146.073" r="4.206"/>
	<path opacity="0.7" fill="#1E3296" d="M1321.699,86.648c0,0-17.253,1.014-15.591,36.905c0.891,19.243,15.591,32.852,15.591,32.852
		s-5.807,0.2-12.047-2.278c-10.659-4.233-23.815-15.952-22.832-32.6c1.109-18.751,11.2-27.329,18.401-30.763
		C1313.633,86.752,1321.699,86.648,1321.699,86.648z"/>
	<circle fill="#FFFFFF" cx="1336.567" cy="42.081" r="1.879"/>
	<g opacity="0.7">
		<circle opacity="0.7" fill="#FFFFFF" enable-background="new    " cx="1278.5" cy="536.248" r="2.683"/>
		<circle opacity="0.7" fill="#FFFFFF" enable-background="new    " cx="1340.809" cy="495.957" r="2.179"/>
		<circle opacity="0.7" fill="#FFFFFF" enable-background="new    " cx="1253.468" cy="482.226" r="2.179"/>
		<circle opacity="0.7" fill="#FFFFFF" enable-background="new    " cx="1229.49" cy="468.283" r="2.18"/>
		<circle opacity="0.7" fill="#FFFFFF" enable-background="new    " cx="1212.287" cy="431.913" r="2.18"/>
		<circle fill="#FFFFFF" cx="1206.485" cy="483.115" r="2.18"/>
		
			<line opacity="0.7" fill="none" stroke="#FFFFFF" stroke-width="0.7725" stroke-miterlimit="10" enable-background="new    " x1="1340.81" y1="495.959" x2="1278.5" y2="536.25"/>
		
			<polyline opacity="0.7" fill="none" stroke="#FFFFFF" stroke-width="0.7725" stroke-miterlimit="10" enable-background="new    " points="
			1278.5,536.25 1253.468,482.226 1229.49,468.282 1212.291,431.915 		"/>
		
			<line opacity="0.7" fill="none" stroke="#FFFFFF" stroke-width="0.7725" stroke-miterlimit="10" enable-background="new    " x1="1229.49" y1="468.282" x2="1206.484" y2="483.114"/>
	</g>
	
		<path opacity="0.3" fill="none" stroke="#4D66E2" stroke-width="2.6147" stroke-linecap="round" stroke-linejoin="round" stroke-miterlimit="10" enable-background="new    " d="
		M1354.238,135.237c15.799,10.032,22.405,17.715,20.217,22.431c-3.28,7.065-31.336,0.999-62.661-13.547
		c-31.328-14.546-54.064-32.063-50.784-39.128c2.215-4.763,8.519-5.528,26.656,0.216"/>
	<path opacity="0.3" fill="none" stroke="#4D66E2" stroke-width="2.7536" stroke-miterlimit="10" enable-background="new    " d="
		M1354.238,135.237c17.575,10.87,28.163,20.799,25.967,25.532c-3.29,7.084-34.04-0.213-68.684-16.295
		c-34.647-16.086-60.063-34.869-56.771-41.953c2.218-4.778,13.335-3.646,33.291,2.938"/>
	
		<path opacity="0.3" fill="none" stroke="#4D66E2" stroke-width="2.8823" stroke-linecap="round" stroke-linejoin="round" stroke-miterlimit="10" enable-background="new    " d="
		M1357.271,137.128c20.992,12.155,34.891,23.972,32.867,28.384c-3.034,6.61-38.616-3.235-79.47-21.987
		c-40.857-18.752-71.518-39.318-68.48-45.926c2.048-4.457,22.207-0.576,45.478,7.609"/>
	<g opacity="0.7">
		<circle fill="#FFFFFF" cx="592.401" cy="65.609" r="2.244"/>
		<circle fill="#FFFFFF" cx="626.034" cy="66.613" r="2.243"/>
		<circle fill="#FFFFFF" cx="574.486" cy="124.839" r="2.243"/>
		
			<polyline opacity="0.3" fill="none" stroke="#FFFFFF" stroke-width="1.6733" stroke-miterlimit="10" enable-background="new    " points="
			592.426,65.047 626.034,66.614 612.211,134.453 574.46,125.398 592.401,65.609 		"/>
		
			<polyline opacity="0.3" fill="none" stroke="#FFFFFF" stroke-width="1.6733" stroke-miterlimit="10" enable-background="new    " points="
			776.14,-10.605 719.764,-5.37 657.302,22.037 626.034,66.614 		"/>
		<circle fill="#FFFFFF" cx="611.576" cy="134.655" r="2.393"/>
		<circle fill="#FFFFFF" cx="657.287" cy="22.315" r="2.394"/>
		<circle fill="#FFFFFF" cx="719.738" cy="-5.769" r="2.395"/>
		<circle fill="#FFFFFF" cx="776.143" cy="-10.604" r="2.395"/>
	</g>
	<circle fill="#FF7061" cx="1418.916" cy="63.334" r="6.25"/>
	<circle fill="#FF7061" cx="1408.666" cy="78.084" r="4.625"/>
	<circle fill="#FF7061" cx="1419.713" cy="84.084" r="1.953"/>
	<circle fill="#FF7061" cx="1404.713" cy="66.584" r="1.953"/>
	<circle fill="#FF7061" cx="1429.666" cy="72.084" r="3.125"/>
	
		<linearGradient id="SVGID_1_" gradientUnits="userSpaceOnUse" x1="-786.9192" y1="93.7761" x2="-882.6443" y2="93.7761" gradientTransform="matrix(-1.5802 -0.7326 -0.4187 0.9081 -1135.3235 -613.6829)">
		<stop  offset="0" style="stop-color:#FFFFFF;stop-opacity:0"/>
		<stop  offset="1" style="stop-color:#FFFFBC"/>
	</linearGradient>
	<polygon opacity="0.5" fill="url(#SVGID_1_)" enable-background="new    " points="219.175,120.261 67.91,50.132 69.877,45.866 
		221.141,115.993 	"/>
	<circle opacity="0.7" fill="#FFD79C" cx="219.515" cy="117.761" r="2.785"/>
</g>
<g id="Layer_2">
	<path fill="#FFB640" d="M363.328,492.362c-3.882,10.342-13.138,8.335-23.479,4.453c-10.34-3.881-17.851-8.168-13.97-18.509
		c3.882-10.342,15.412-15.578,25.754-11.696C361.973,470.491,367.21,482.021,363.328,492.362z"/>
	
		<rect x="325.366" y="478.195" transform="matrix(0.9363 0.3512 -0.3512 0.9363 191.5246 -90.5735)" fill="#FF553E" width="40.167" height="9.001"/>
	
		<linearGradient id="SVGID_2_" gradientUnits="userSpaceOnUse" x1="208.6541" y1="434.3879" x2="302.322" y2="434.3879" gradientTransform="matrix(0.3514 -0.9362 0.9362 0.3514 -173.7367 625.5261)">
		<stop  offset="0" style="stop-color:#FFFFFF;stop-opacity:0"/>
		<stop  offset="1" style="stop-color:#FFFFBC"/>
	</linearGradient>
	<polygon opacity="0.2" fill="url(#SVGID_2_)" enable-background="new    " points="284.052,572.655 334.265,493.289 
		346.796,497.993 329.095,591.398 	"/>
	<path fill="#394CD3" d="M374.836,497.75c-0.97,2.585-3.853,3.894-6.438,2.923l-52.429-19.679c-2.584-0.97-3.894-3.853-2.923-6.438
		l0.233-0.624c0.971-2.585,3.854-3.895,6.439-2.924l52.428,19.68c2.585,0.971,3.895,3.853,2.924,6.438L374.836,497.75z"/>
	<path fill="#394CD3" d="M367.675,499.516c-0.97,2.585-12.338,3.379-14.923,2.409l-25.747-9.663
		c-2.585-0.971-10.55-8.888-9.579-11.475l7.623,2.461c0.97-2.586,3.852-3.895,6.438-2.925l25.746,9.665
		c2.585,0.971,3.895,3.853,2.924,6.438L367.675,499.516z"/>
	<path fill="#FFB640" d="M346.043,486.718c-0.3,0.799-1.188,1.202-1.986,0.902s-1.2-1.188-0.901-1.986
		c0.298-0.795,1.187-1.199,1.985-0.899C345.938,485.032,346.341,485.922,346.043,486.718z"/>
	<circle fill="#FFB640" cx="334.223" cy="482.281" r="1.541"/>
	<circle fill="#FFB640" cx="326.85" cy="479.514" r="1.542"/>
	<circle fill="#FFB640" cx="321.232" cy="477.406" r="1.541"/>
	<circle fill="#FFB640" cx="316.786" cy="475.738" r="1.541"/>
	<circle fill="#FFB640" cx="355.639" cy="490.321" r="1.542"/>
	<circle fill="#FFB640" cx="361.958" cy="492.693" r="1.541"/>
	<circle fill="#FFB640" cx="368.043" cy="494.977" r="1.223"/>
	<circle fill="#FFB640" cx="372.256" cy="496.558" r="1.223"/>
	<path fill="#394CD3" d="M329.27,500.455c-0.218,0.581-0.867,0.875-1.448,0.658l-4.447-1.669c-0.581-0.22-0.876-0.869-0.658-1.45
		l0,0c0.218-0.581,0.867-0.876,1.448-0.657l4.447,1.67C329.194,499.223,329.489,499.873,329.27,500.455L329.27,500.455z"/>
	
		<line fill="none" stroke="#394CD3" stroke-width="3" stroke-miterlimit="10" x1="325.994" y1="499.225" x2="333.442" y2="492.541"/>
	<path fill="#394CD3" d="M346.773,507.024c-0.219,0.581,0.105,1.242,0.722,1.474l4.721,1.771c0.617,0.232,1.295-0.052,1.513-0.634
		l0,0c0.219-0.581-0.105-1.24-0.723-1.473l-4.721-1.771C347.669,506.159,346.99,506.443,346.773,507.024L346.773,507.024z"/>
	
		<line fill="none" stroke="#394CD3" stroke-width="3" stroke-miterlimit="10" x1="350.251" y1="508.329" x2="348.773" y2="498.295"/>
	<circle fill="#FFD399" cx="353.023" cy="475.591" r="3.375"/>
</g>
</svg>
