<?xml version="1.0" encoding="utf-8"?>
<!-- Generator: Adobe Illustrator 16.0.0, SVG Export Plug-In . SVG Version: 6.00 Build 0)  -->
<!DOCTYPE svg PUBLIC "-//W3C//DTD SVG 1.1//EN" "http://www.w3.org/Graphics/SVG/1.1/DTD/svg11.dtd">
<svg version="1.1" id="Layer_1" xmlns="http://www.w3.org/2000/svg" xmlns:xlink="http://www.w3.org/1999/xlink" x="0px" y="0px"
	 width="558.046px" height="325.832px" viewBox="-20.954 0 558.046 325.832" enable-background="new -20.954 0 558.046 325.832"
	 xml:space="preserve">
<rect x="283.091" y="77.726" display="none" opacity="0.3" fill="none" stroke="#394CD3" stroke-width="2" stroke-miterlimit="10" enable-background="new    " width="408.001" height="239.727"/>
<line fill="none" stroke="#FF553E" stroke-width="3" stroke-miterlimit="10" x1="110.091" y1="56.416" x2="157.091" y2="94.416"/>
<line fill="none" stroke="#FF553E" stroke-width="4" stroke-miterlimit="10" x1="361.091" y1="66.081" x2="389.743" y2="41.171"/>
<line fill="none" stroke="#EBEDE4" stroke-width="6" stroke-miterlimit="10" x1="402.971" y1="92.102" x2="405.806" y2="116.511"/>
<line fill="none" stroke="#EBEDE4" stroke-width="7.1706" stroke-miterlimit="10" x1="89.189" y1="269.533" x2="72.091" y2="246.181"/>
<line fill="none" stroke="#EBEDE4" stroke-width="4" stroke-miterlimit="10" x1="429.758" y1="63.415" x2="472.875" y2="51.656"/>
<path fill="none" stroke="#EBEDE4" stroke-width="3" stroke-miterlimit="10" d="M123.261,91.014
	c-4.091,2.766-9.65,1.689-12.417-2.401l0,0c-2.768-4.091-1.691-9.652,2.399-12.418l32.813-22.18c4.09-2.768,9.65-1.691,12.417,2.399
	l0,0c2.766,4.092,1.69,9.652-2.401,12.417L123.261,91.014z"/>
<text transform="matrix(1 0 0 1 173.9587 285.3416)" fill="#FF553E" font-family="'Nickainley'" font-size="87.917">A</text>
<text transform="matrix(1 0 0 1 173.9587 285.3416)" fill="none" stroke="#FF553E" stroke-width="1.4653" stroke-miterlimit="10" font-family="'Nickainley'" font-size="87.917">A</text>
<g>
	
		<linearGradient id="SVGID_1_" gradientUnits="userSpaceOnUse" x1="-1152.6565" y1="768.6248" x2="-1152.6565" y2="668.3455" gradientTransform="matrix(0 1 1 0 -554.6167 1308.2803)">
		<stop  offset="0" style="stop-color:#FFB640;stop-opacity:0"/>
		<stop  offset="1" style="stop-color:#FFB640"/>
	</linearGradient>
	<path fill="url(#SVGID_1_)" d="M113.729,173.063v-34.88h87.2v0.35c0.703-0.229,1.431-0.35,2.18-0.35
		c6.017,0,10.899,7.808,10.899,17.439s-4.883,17.44-10.899,17.44c-0.75,0-1.478-0.122-2.18-0.352v0.352H113.729z"/>
	
		<linearGradient id="SVGID_2_" gradientUnits="userSpaceOnUse" x1="-1130.8342" y1="-234.3386" x2="-1107.9436" y2="-234.3386" gradientTransform="matrix(-1 0 0 1 -1003.48 389.9619)">
		<stop  offset="0" style="stop-color:#FFB640;stop-opacity:0"/>
		<stop  offset="1" style="stop-color:#FFB640"/>
	</linearGradient>
	
		<ellipse fill="#FFB640" stroke="url(#SVGID_2_)" stroke-width="1.09" stroke-miterlimit="10" cx="115.909" cy="155.623" rx="10.9" ry="17.44"/>
	
		<linearGradient id="SVGID_3_" gradientUnits="userSpaceOnUse" x1="-1117.7766" y1="738.1052" x2="-1117.7766" y2="637.8259" gradientTransform="matrix(0 1 1 0 -554.6167 1308.2803)">
		<stop  offset="0" style="stop-color:#FFB640;stop-opacity:0"/>
		<stop  offset="1" style="stop-color:#FFB640"/>
	</linearGradient>
	<path fill="url(#SVGID_3_)" d="M83.209,207.943v-34.88h87.2v0.349c0.704-0.228,1.431-0.349,2.18-0.349
		c6.018,0,10.9,7.808,10.9,17.438s-4.883,17.44-10.9,17.44c-0.75,0-1.477-0.121-2.18-0.353v0.353L83.209,207.943L83.209,207.943z"/>
	
		<linearGradient id="SVGID_4_" gradientUnits="userSpaceOnUse" x1="-1100.3137" y1="-199.4587" x2="-1077.4241" y2="-199.4587" gradientTransform="matrix(-1 0 0 1 -1003.48 389.9619)">
		<stop  offset="0" style="stop-color:#FFB640;stop-opacity:0"/>
		<stop  offset="1" style="stop-color:#FFB640"/>
	</linearGradient>
	
		<ellipse fill="#FFB640" stroke="url(#SVGID_4_)" stroke-width="1.09" stroke-miterlimit="10" cx="85.389" cy="190.503" rx="10.899" ry="17.44"/>
	<g>
		
			<ellipse fill="none" stroke="#FFB640" stroke-width="2.18" stroke-miterlimit="10" cx="113.729" cy="155.623" rx="13.08" ry="21.8"/>
		
			<ellipse fill="none" stroke="#FFB640" stroke-width="2.18" stroke-miterlimit="10" cx="83.209" cy="190.503" rx="13.08" ry="21.8"/>
		<path fill="none" stroke="#FFB640" stroke-width="2.18" stroke-miterlimit="10" d="M70.129,190.503c0,0-47.96,0-56.68,0
			s-17.44,0-17.44,13.08"/>
		<path fill="none" stroke="#FFB640" stroke-width="2.18" stroke-miterlimit="10" d="M126.809,151.263c0,0-47.96,0-56.681,0
			c-8.72,0-17.439,0-17.439,13.08"/>
		
			<line fill="none" stroke="#FFB640" stroke-width="2.18" stroke-miterlimit="10" x1="101.194" y1="163.797" x2="91.929" y2="173.063"/>
	</g>
</g>
<g id="Layer_2">
</g>
<g>
	<polygon fill="#394CD3" points="408.165,276.039 408.165,283.073 361.27,236.176 361.27,229.142 	"/>
	<polygon fill="#394CD3" points="337.821,301.832 408.165,283.073 361.27,236.176 290.924,254.935 	"/>
	<polygon opacity="0.5" fill="#FFFFFF" enable-background="new    " points="337.821,266.659 408.165,276.039 361.27,229.142 
		290.924,219.762 	"/>
	<polygon opacity="0.5" fill="#FFFFFF" enable-background="new    " points="337.821,292.453 408.165,283.073 361.27,236.176 
		290.924,245.555 	"/>
	<polygon opacity="0.5" fill="#FFFFFF" enable-background="new    " points="337.821,276.039 408.165,278.384 361.27,231.486 
		290.924,229.142 	"/>
	<polygon opacity="0.5" fill="#FFFFFF" enable-background="new    " points="337.821,280.728 408.165,280.728 361.27,233.832 
		290.924,233.832 	"/>
	<polygon opacity="0.8" fill="#394CD3" enable-background="new    " points="338.081,252.59 408.165,276.039 361.27,229.142 
		291.184,205.693 	"/>
</g>
<g>
	<polygon fill="#ED891B" points="247.766,103.477 256.374,103.477 297.27,144.374 288.66,144.374 	"/>
	<polygon fill="#F7A328" points="297.27,144.374 346.773,107.781 303.727,64.736 254.223,101.324 	"/>
	<polygon opacity="0.5" fill="#FFFFFF" enable-background="new    " points="295.117,144.374 318.792,86.26 275.746,43.213 
		252.071,101.324 	"/>
	<polygon opacity="0.5" fill="#FFFFFF" enable-background="new    " points="292.964,144.374 316.641,86.26 273.594,43.213 
		249.917,101.324 	"/>
	<polygon opacity="0.5" fill="#FFFFFF" enable-background="new    " points="290.813,144.374 314.489,86.26 271.442,43.213 
		247.766,101.324 	"/>
	<polygon opacity="0.5" fill="#FFFFFF" enable-background="new    " points="288.66,144.374 305.878,86.26 262.832,43.213 
		245.614,101.324 	"/>
	<polygon opacity="0.8" fill="#FF971A" enable-background="new    " points="287.943,144.374 281.487,84.106 238.44,41.06 
		244.897,101.324 	"/>
</g>
<g>
	
		<line fill="none" stroke="#FF553E" stroke-width="3" stroke-linecap="round" stroke-linejoin="round" stroke-miterlimit="10" x1="316.409" y1="115.732" x2="347.8" y2="193.644"/>
	
		<line fill="none" stroke="#FF553E" stroke-width="3" stroke-linecap="round" stroke-linejoin="round" stroke-miterlimit="10" x1="338.667" y1="106.762" x2="370.061" y2="184.677"/>
	
		<line fill="none" stroke="#FF553E" stroke-width="3" stroke-linecap="round" stroke-linejoin="round" stroke-miterlimit="10" x1="320.893" y1="126.861" x2="343.153" y2="117.892"/>
	
		<line fill="none" stroke="#FF553E" stroke-width="3" stroke-linecap="round" stroke-linejoin="round" stroke-miterlimit="10" x1="325.376" y1="137.991" x2="347.639" y2="129.022"/>
	
		<line fill="none" stroke="#FF553E" stroke-width="3" stroke-linecap="round" stroke-linejoin="round" stroke-miterlimit="10" x1="329.862" y1="149.123" x2="352.123" y2="140.153"/>
	
		<line fill="none" stroke="#FF553E" stroke-width="3" stroke-linecap="round" stroke-linejoin="round" stroke-miterlimit="10" x1="334.346" y1="160.254" x2="356.608" y2="151.284"/>
	
		<line fill="none" stroke="#FF553E" stroke-width="3" stroke-linecap="round" stroke-linejoin="round" stroke-miterlimit="10" x1="338.828" y1="171.385" x2="361.091" y2="162.416"/>
	
		<line fill="none" stroke="#FF553E" stroke-width="3" stroke-linecap="round" stroke-linejoin="round" stroke-miterlimit="10" x1="343.317" y1="182.513" x2="365.576" y2="173.547"/>
</g>
<g>
	<polygon fill="#FF553E" points="526.336,220.715 505.773,159.031 460.082,113.34 480.645,175.024 	"/>
	<polygon opacity="0.5" fill="#FFFFFF" enable-background="new    " points="508.058,222.998 505.773,159.031 460.082,113.34 
		462.367,177.307 	"/>
	<polygon opacity="0.5" fill="#FFFFFF" enable-background="new    " points="503.49,222.998 503.49,159.031 457.798,113.34 
		457.798,177.307 	"/>
	<polygon opacity="0.5" fill="#FFFFFF" enable-background="new    " points="501.204,222.998 501.204,159.031 455.513,113.34 
		455.513,177.307 	"/>
	<polygon opacity="0.5" fill="#FFFFFF" enable-background="new    " points="494.351,222.998 498.92,159.031 453.229,113.34 
		448.657,177.307 	"/>
	<polygon opacity="0.8" fill="#FF553E" enable-background="new    " points="478.36,222.998 496.636,159.031 450.944,113.34 
		432.668,177.307 	"/>
	<polygon fill="#FF553E" points="450.944,113.34 460.082,113.34 505.773,159.031 496.636,159.031 	"/>
</g>
</svg>
