<?xml version="1.0" encoding="utf-8"?>
<!-- Generator: Adobe Illustrator 16.0.0, SVG Export Plug-In . SVG Version: 6.00 Build 0)  -->
<!DOCTYPE svg PUBLIC "-//W3C//DTD SVG 1.1//EN" "http://www.w3.org/Graphics/SVG/1.1/DTD/svg11.dtd">
<svg version="1.1" xmlns="http://www.w3.org/2000/svg" xmlns:xlink="http://www.w3.org/1999/xlink" x="0px" y="0px"
	 width="653.182px" height="325.832px" viewBox="0 0 653.182 325.832" enable-background="new 0 0 653.182 325.832"
	 xml:space="preserve">
<g id="Layer_1">
	
		<rect x="283.091" y="77.726" display="none" opacity="0.3" fill="none" stroke="#394CD3" stroke-width="2" stroke-miterlimit="10" enable-background="new    " width="408" height="239.727"/>
	<line fill="none" stroke="#FF553E" stroke-width="2" stroke-miterlimit="10" x1="146.677" y1="32.004" x2="198.676" y2="108.504"/>
	<line fill="none" stroke="#394CD3" stroke-width="4" stroke-miterlimit="10" x1="220.078" y1="246.738" x2="307.94" y2="212.908"/>
	<line fill="none" stroke="#FF553E" stroke-width="4" stroke-miterlimit="10" x1="361.091" y1="66.081" x2="389.743" y2="41.171"/>
	
		<line fill="none" stroke="#EBEDE4" stroke-width="6" stroke-miterlimit="10" x1="630.424" y1="158.081" x2="611.849" y2="174.168"/>
	<line fill="none" stroke="#EBEDE4" stroke-width="6" stroke-miterlimit="10" x1="101.398" y1="255.621" x2="87.091" y2="236.081"/>
	
		<line fill="none" stroke="#394CD3" stroke-width="3.2857" stroke-miterlimit="10" x1="306.887" y1="173.232" x2="341.347" y2="180.268"/>
	<line fill="none" stroke="#EBEDE4" stroke-width="4" stroke-miterlimit="10" x1="429.757" y1="63.415" x2="472.874" y2="51.656"/>
	<path fill="none" stroke="#EBEDE4" stroke-width="2.5552" stroke-miterlimit="10" d="M148.261,82.014
		c-4.09,2.766-9.65,1.691-12.417-2.401l0,0c-2.767-4.091-1.691-9.652,2.4-12.418l32.812-22.18c4.09-2.766,9.651-1.691,12.417,2.401
		l0,0c2.766,4.092,1.691,9.652-2.401,12.417L148.261,82.014z"/>
	<path fill="none" stroke="#EBEDE4" stroke-width="2.6485" stroke-miterlimit="10" d="M270.71,163.524
		c-4.503-2.435-6.18-8.059-3.747-12.563l0,0c2.436-4.504,8.06-6.181,12.564-3.748l36.114,19.522
		c4.503,2.434,6.182,8.059,3.746,12.563l0,0c-2.435,4.504-8.059,6.181-12.563,3.748L270.71,163.524z"/>
	<text transform="matrix(1 0 0 1 134.676 268.3992)" fill="#FF553E" font-family="'Nickainley'" font-size="48.5446">A</text>
	
		<text transform="matrix(1 0 0 1 134.676 268.3992)" fill="none" stroke="#FF553E" stroke-width="0.8091" stroke-miterlimit="10" font-family="'Nickainley'" font-size="48.5446">A</text>
	
		<linearGradient id="SVGID_1_" gradientUnits="userSpaceOnUse" x1="551.1477" y1="-605.9846" x2="599.9524" y2="-605.9846" gradientTransform="matrix(1 0 0 1 -508.3574 684.4746)">
		<stop  offset="0" style="stop-color:#394CD3;stop-opacity:0"/>
		<stop  offset="1" style="stop-color:#394CD3"/>
	</linearGradient>
	<path fill="url(#SVGID_1_)" d="M91.595,98.695c0,6.882-10.928,12.463-24.403,12.463c-13.477,0-24.401-5.58-24.401-12.463
		c0-0.387,0.034-0.771,0.1-1.149l24.238-51.724L91.595,98.695z"/>
	<g>
		
			<linearGradient id="SVGID_2_" gradientUnits="userSpaceOnUse" x1="-558.8264" y1="-412.6326" x2="-498.1711" y2="-412.6326" gradientTransform="matrix(1 0 0 1 781.5 658.3301)">
			<stop  offset="0" style="stop-color:#394CD3;stop-opacity:0"/>
			<stop  offset="1" style="stop-color:#394CD3"/>
		</linearGradient>
		<path fill="url(#SVGID_2_)" d="M230.535,210.741c-7.951,5.107-10.253,15.694-5.142,23.645l26.429,41.125
			c5.11,7.951,15.698,10.254,23.646,5.144c7.949-5.108,10.252-15.695,5.143-23.645l-26.43-41.125
			C249.071,207.932,238.486,205.632,230.535,210.741z"/>
		<path fill="#394CD3" d="M256.967,251.867c-7.949,5.108-10.252,15.695-5.144,23.644c5.11,7.951,15.697,10.254,23.646,5.144
			c7.949-5.108,10.252-15.695,5.143-23.645C275.504,249.059,264.918,246.757,256.967,251.867z M273.569,277.697
			c-6.208,3.992-14.478,2.192-18.47-4.018c-3.99-6.207-2.19-14.477,4.018-18.468c6.211-3.99,14.478-2.191,18.468,4.017
			C281.578,265.439,279.779,273.707,273.569,277.697z"/>
	</g>
	<g>
		
			<linearGradient id="SVGID_3_" gradientUnits="userSpaceOnUse" x1="-618.9622" y1="518.9626" x2="-618.9622" y2="426.9626" gradientTransform="matrix(0 1 1 0 -308.9536 772.7856)">
			<stop  offset="0" style="stop-color:#FFB640;stop-opacity:0"/>
			<stop  offset="1" style="stop-color:#FFB640"/>
		</linearGradient>
		<path fill="url(#SVGID_3_)" d="M118.009,169.823v-32h80v0.321c0.646-0.21,1.313-0.321,2-0.321c5.521,0,10,7.163,10,16
			s-4.479,16-10,16c-0.688,0-1.354-0.111-2-0.321v0.321H118.009z"/>
		
			<linearGradient id="SVGID_4_" gradientUnits="userSpaceOnUse" x1="-84.4626" y1="-504.5071" x2="-63.4626" y2="-504.5071" gradientTransform="matrix(-1 0 0 1 46.0464 658.3301)">
			<stop  offset="0" style="stop-color:#FFB640;stop-opacity:0"/>
			<stop  offset="1" style="stop-color:#FFB640"/>
		</linearGradient>
		<ellipse fill="#FFB640" stroke="url(#SVGID_4_)" stroke-miterlimit="10" cx="120.009" cy="153.823" rx="10" ry="16"/>
		
			<linearGradient id="SVGID_5_" gradientUnits="userSpaceOnUse" x1="-586.9622" y1="490.9626" x2="-586.9622" y2="398.9626" gradientTransform="matrix(0 1 1 0 -308.9536 772.7856)">
			<stop  offset="0" style="stop-color:#FFB640;stop-opacity:0"/>
			<stop  offset="1" style="stop-color:#FFB640"/>
		</linearGradient>
		<path fill="url(#SVGID_5_)" d="M90.009,201.823v-32h80v0.32c0.646-0.209,1.313-0.32,2-0.32c5.521,0,10,7.163,10,16
			c0,8.836-4.479,16-10,16c-0.688,0-1.354-0.111-2-0.322v0.322H90.009z"/>
		
			<linearGradient id="SVGID_6_" gradientUnits="userSpaceOnUse" x1="-56.4626" y1="-472.5071" x2="-35.4626" y2="-472.5071" gradientTransform="matrix(-1 0 0 1 46.0464 658.3301)">
			<stop  offset="0" style="stop-color:#FFB640;stop-opacity:0"/>
			<stop  offset="1" style="stop-color:#FFB640"/>
		</linearGradient>
		<ellipse fill="#FFB640" stroke="url(#SVGID_6_)" stroke-miterlimit="10" cx="92.009" cy="185.823" rx="10" ry="16"/>
		<g>
			<ellipse fill="none" stroke="#FFB640" stroke-width="2" stroke-miterlimit="10" cx="118.009" cy="153.823" rx="12" ry="20"/>
			<ellipse fill="none" stroke="#FFB640" stroke-width="2" stroke-miterlimit="10" cx="90.009" cy="185.823" rx="12" ry="20"/>
			<path fill="none" stroke="#FFB640" stroke-width="2" stroke-miterlimit="10" d="M78.009,185.823c0,0-44,0-52,0s-16,0-16,12"/>
			<path fill="none" stroke="#FFB640" stroke-width="2" stroke-miterlimit="10" d="M130.009,149.823c0,0-44,0-52,0s-16,0-16,12"/>
			
				<line fill="none" stroke="#FFB640" stroke-width="2" stroke-miterlimit="10" x1="106.509" y1="161.322" x2="98.009" y2="169.823"/>
		</g>
	</g>
	<g>
		
			<line fill="none" stroke="#FF553E" stroke-width="2" stroke-linecap="round" stroke-linejoin="round" stroke-miterlimit="10" x1="552.573" y1="42.213" x2="546.804" y2="74.877"/>
		<circle fill="#394CD3" cx="545.709" cy="79.79" r="6.625"/>
		<circle fill="#394CD3" cx="556.789" cy="128.405" r="6.625"/>
		<circle fill="#394CD3" cx="601.416" cy="118.947" r="6.625"/>
		<circle fill="#394CD3" cx="502.465" cy="67.735" r="6.625"/>
		<circle fill="#FF553E" cx="553.503" cy="37.614" r="5.999"/>
		
			<line fill="none" stroke="#394CD3" stroke-width="2" stroke-linecap="round" stroke-linejoin="round" stroke-miterlimit="10" x1="541.739" y1="78.225" x2="504.381" y2="67.74"/>
		
			<line fill="none" stroke="#394CD3" stroke-width="2" stroke-linecap="round" stroke-linejoin="round" stroke-miterlimit="10" x1="547.295" y1="83.719" x2="555.758" y2="123.414"/>
		
			<line fill="none" stroke="#394CD3" stroke-width="2" stroke-linecap="round" stroke-linejoin="round" stroke-miterlimit="10" x1="599.385" y1="119.285" x2="560.896" y2="127.967"/>
	</g>
	
		<ellipse fill="none" stroke="#394CD3" stroke-width="1.8096" stroke-miterlimit="10" cx="581.343" cy="199.917" rx="12.667" ry="7.238"/>
	
		<linearGradient id="SVGID_7_" gradientUnits="userSpaceOnUse" x1="-209.2048" y1="-400.5071" x2="-191.1091" y2="-400.5071" gradientTransform="matrix(1 0 0 1 781.5 658.3301)">
		<stop  offset="0" style="stop-color:#394CD3;stop-opacity:0"/>
		<stop  offset="1" style="stop-color:#394CD3"/>
	</linearGradient>
	<path fill="url(#SVGID_7_)" d="M590.391,274.109c0,4.997-4.053,9.048-9.048,9.048l0,0c-4.996,0-9.048-4.051-9.048-9.048v-32.572
		c0-4.997,4.052-9.048,9.048-9.048l0,0c4.995,0,9.048,4.051,9.048,9.048V274.109z"/>
	<ellipse fill="#394CD3" cx="581.343" cy="237.918" rx="9.048" ry="5.429"/>
	<path fill="none" stroke="#394CD3" stroke-width="1.8096" stroke-miterlimit="10" d="M568.676,199.917
		c3.619,0,3.619,5.429,3.619,5.429v68.764c0,4.997,4.052,9.048,9.048,9.048l0,0c4.995,0,9.048-4.051,9.048-9.048v-68.764
		c0,0,0-5.429,3.619-5.429"/>
	<g id="Layer_2">
	</g>
	<g>
		<polygon fill="#394CD3" points="445.166,284.039 445.166,291.073 398.27,244.176 398.27,237.142 		"/>
		<polygon fill="#394CD3" points="374.821,309.832 445.166,291.073 398.27,244.176 327.924,262.935 		"/>
		<polygon opacity="0.5" fill="#FFFFFF" points="374.821,274.659 445.166,284.039 398.27,237.142 327.924,227.762 		"/>
		<polygon opacity="0.5" fill="#FFFFFF" points="374.821,300.453 445.166,291.073 398.27,244.176 327.924,253.555 		"/>
		<polygon opacity="0.5" fill="#FFFFFF" points="374.821,284.039 445.166,286.384 398.27,239.486 327.924,237.142 		"/>
		<polygon opacity="0.5" fill="#FFFFFF" points="374.821,288.728 445.166,288.728 398.27,241.832 327.924,241.832 		"/>
		<polygon opacity="0.8" fill="#394CD3" points="375.081,260.59 445.166,284.039 398.27,237.142 328.184,213.693 		"/>
	</g>
	<g>
		<polygon fill="#ED891B" points="409.297,163.364 417.906,163.364 458.801,204.26 450.192,204.26 		"/>
		<polygon fill="#F7A328" points="458.801,204.26 508.304,167.668 465.258,124.623 415.754,161.211 		"/>
		<polygon opacity="0.5" fill="#FFFFFF" points="456.649,204.26 480.324,146.146 437.278,103.099 413.602,161.211 		"/>
		<polygon opacity="0.5" fill="#FFFFFF" points="454.496,204.26 478.172,146.146 435.125,103.099 411.449,161.211 		"/>
		<polygon opacity="0.5" fill="#FFFFFF" points="452.344,204.26 476.02,146.146 432.973,103.099 409.297,161.211 		"/>
		<polygon opacity="0.5" fill="#FFFFFF" points="450.192,204.26 467.41,146.146 424.364,103.099 407.145,161.211 		"/>
		<polygon opacity="0.8" fill="#FF971A" points="449.474,204.26 443.018,143.993 399.971,100.947 406.428,161.211 		"/>
	</g>
	<g>
		
			<line fill="none" stroke="#FF553E" stroke-width="3" stroke-linecap="round" stroke-linejoin="round" stroke-miterlimit="10" x1="473.941" y1="179.619" x2="505.332" y2="257.531"/>
		
			<line fill="none" stroke="#FF553E" stroke-width="3" stroke-linecap="round" stroke-linejoin="round" stroke-miterlimit="10" x1="496.199" y1="170.649" x2="527.592" y2="248.564"/>
		
			<line fill="none" stroke="#FF553E" stroke-width="3" stroke-linecap="round" stroke-linejoin="round" stroke-miterlimit="10" x1="478.424" y1="190.748" x2="500.684" y2="181.779"/>
		
			<line fill="none" stroke="#FF553E" stroke-width="3" stroke-linecap="round" stroke-linejoin="round" stroke-miterlimit="10" x1="482.908" y1="201.878" x2="505.17" y2="192.909"/>
		
			<line fill="none" stroke="#FF553E" stroke-width="3" stroke-linecap="round" stroke-linejoin="round" stroke-miterlimit="10" x1="487.393" y1="213.009" x2="509.655" y2="204.04"/>
		
			<line fill="none" stroke="#FF553E" stroke-width="3" stroke-linecap="round" stroke-linejoin="round" stroke-miterlimit="10" x1="491.877" y1="224.14" x2="514.139" y2="215.171"/>
		
			<line fill="none" stroke="#FF553E" stroke-width="3" stroke-linecap="round" stroke-linejoin="round" stroke-miterlimit="10" x1="496.36" y1="235.271" x2="518.623" y2="226.302"/>
		
			<line fill="none" stroke="#FF553E" stroke-width="3" stroke-linecap="round" stroke-linejoin="round" stroke-miterlimit="10" x1="500.848" y1="246.4" x2="523.108" y2="237.433"/>
	</g>
	<g>
		<polygon fill="#FF553E" points="353.335,124.715 332.773,63.031 287.082,17.34 307.645,79.024 		"/>
		<polygon opacity="0.5" fill="#FFFFFF" points="335.058,126.998 332.773,63.031 287.082,17.34 289.367,81.307 		"/>
		<polygon opacity="0.5" fill="#FFFFFF" points="330.49,126.998 330.49,63.031 284.797,17.34 284.797,81.307 		"/>
		<polygon opacity="0.5" fill="#FFFFFF" points="328.204,126.998 328.204,63.031 282.513,17.34 282.513,81.307 		"/>
		<polygon opacity="0.5" fill="#FFFFFF" points="321.351,126.998 325.919,63.031 280.229,17.34 275.658,81.307 		"/>
		<polygon opacity="0.8" fill="#FF553E" points="305.36,126.998 323.636,63.031 277.944,17.34 259.667,81.307 		"/>
		<polygon fill="#FF553E" points="277.944,17.34 287.082,17.34 332.773,63.031 323.636,63.031 		"/>
	</g>
</g>
<g id="Layer_2_1_">
	<g opacity="0.6">
		<path fill-rule="evenodd" clip-rule="evenodd" fill="#394CD3" d="M580.045,42.547c1,1.373,2.025,2.88,3.004,4.541
			c0.979,1.658,1.904,3.512,2.521,5.626c0.585,2.07,0.758,4.592,0.116,7.019l-0.116,0.455l-0.06,0.229l-0.015,0.058l-0.002,0.007
			l-0.001,0.004l-0.056,0.126l-0.004,0.011l-0.008,0.023l-0.031,0.093l-0.251,0.741l-0.258,0.744
			c-0.095,0.256-0.218,0.538-0.328,0.807c-0.458,1.116-0.938,2.117-1.438,3.104c-0.096,0.405-0.305,0.88-0.5,1.327
			c-0.21,0.462-0.405,0.909-0.488,1.282c-0.854,1.196-0.726,1.809-0.841,2.505c0.341,0.379,0.747,0.685,1.105,0.939
			c0.163,0.131,0.289,0.256,0.425,0.387c0.058,0.065,0.1,0.131,0.119,0.203c0.029,0.078,0.085,0.183,0.093,0.289
			c0.011,0.076,0.006,0.148-0.006,0.224c0.016,0.092,0.02,0.181,0.017,0.271c-0.005,0.178-0.052,0.348-0.097,0.535
			c-0.015,0.418-0.14,0.828-0.137,1.355c0.183,0.309,0.37,0.623,0.561,0.944c0.182,0.317,0.458,0.665,0.686,1.001l0.361,0.512
			l0.09,0.128l0.012,0.017l0.006,0.008l0.003,0.004c0.217,0.321-0.295-0.436-0.241-0.356l0.002,0.002l0.031,0.036l0.062,0.07
			l0.248,0.285c0.155,0.172,0.356,0.424,0.478,0.531l0.385,0.371c1.166,1.184,2.836,2.492,4.647,4.757
			c1.099,1.371,2.396,3.403,2.844,5.49c0.54,2.403,0.435,4.696,0.108,6.606l-0.056,0.375l-0.015,0.094l-0.109,0.452l-0.029,0.126
			l-0.114,0.504c-0.093,0.365-0.082,0.535-0.388,1.367c-0.239,0.666-0.527,1.408-0.814,2.001c-0.268,0.512-0.548,1.026-0.84,1.544
			c-1.004,1.671-2.317,3.5-3.436,4.75c-1.148,1.277-1.956,2.01-2.718,2.093c-0.799,0.817-1.237,1.4-1.463,1.798
			c-0.177,0.407-0.3,0.598-0.36,0.93c-0.24,0.138-0.46-0.008-0.649,0.131c-0.035,0.102-0.056,0.205-0.073,0.309l-0.013,0.078
			l-0.001,0.004v0.003v0.001l0,0c-0.009-0.228,0.02,0.51-0.02-0.51v0.003l0.002,0.026l0.005,0.051l0.01,0.104l0.043,0.406l0.043,0.4
			c0.013,0.113,0.023,0.34,0.038,0.223c0.023-0.079,0.01-0.158-0.046-0.217c-0.021-0.022-0.048-0.039-0.077-0.053
			c-0.026-0.009-0.022,0.029-0.04,0.041c-0.025,0.037-0.059,0.074-0.092,0.112c-0.056,0.079-0.156,0.152-0.115,0.264
			c0.107,0.497,0.979,0.991,2.137,2.042c0.704,1.059,1.894,2.285,3.324,3.885c0.367,0.407,0.744,0.833,1.131,1.34l0.575,0.734
			l0.561,0.84c0.744,1.114,1.398,2.473,1.821,3.887l0.084,0.264l0.041,0.133l0.02,0.066l0.01,0.032l0.006,0.017l0.033,0.148
			l0.079,0.311l0.15,0.618l0.142,0.614c0.051,0.305,0.101,0.773,0.134,1.152c0.176,1.656-0.007,3.027-0.357,4.357
			c-0.512,1.68-1.362,2.684-2.172,3.891c-0.198,0.285-0.409,0.588-0.629,0.902c-0.221,0.306-0.454,0.563-0.689,0.855
			c-0.479,0.604-0.944,1.048-1.393,1.495c-1.268,1.192-2.605,2.334-3.517,3.243c-0.758,0.762-1.416,1.449-1.815,2.111
			c-0.139,0.163-0.2,0.335-0.293,0.502l-0.141,0.252l-0.037,0.063l-0.005,0.008l-0.003,0.004l-0.001,0.002
			c-0.021,0.063,0.174-0.539,0.091-0.283l-0.011,0.031l-0.021,0.063l-0.085,0.25l-0.344,1.002l-0.043,0.125
			c-0.004,0.021-0.001,0.028-0.003,0.043l-0.007,0.075c-0.008,0.05-0.02,0.099-0.037,0.147c-0.057,0.092-0.047,0.216-0.063,0.336
			l-0.036,0.182c0.011,0.039,0.016,0.078,0.015,0.118c0.002,0.04-0.013,0.086-0.013,0.127c0.018,0.035,0.028,0.071,0.034,0.11
			c-0.015,0.074,0.054,0.178,0.099,0.286c0.185,0.454,0.937,1.282,1.994,2.319c0.797,0.812,1.829,1.643,2.671,2.843
			c1.062,1.495,1.809,3.375,2.166,5.154c-0.037-0.142-0.075-0.283-0.11-0.416c0.384,1.382,0.684,2.942,0.535,4.759
			c-0.038,0.409-0.12,0.861-0.211,1.313c-0.138,0.463-0.261,0.95-0.482,1.42c-0.402,0.976-1.04,1.853-1.719,2.59
			c-1.393,1.442-2.82,2.201-3.955,2.803c-1.144,0.58-2.062,1.012-2.627,1.323c-0.563,0.326-0.721,0.386-0.902,0.409
			c-0.11-0.007-0.351,0.081-0.445,0.255c-0.08,0.266,0.108,0.644,0.144,1.128c0,0.027-0.003,0.057-0.009,0.088l-0.002,0.006v0.003
			l-0.001,0.001v0.001l-0.665,0.032h0.001l0,0l0.021,0.014l0.041,0.027l0.083,0.057c0.107,0.072,0.228,0.153,0.352,0.237
			l0.092,0.062c0.019,0.024,0.001,0.058,0.003,0.086c-0.001,0.094-0.019,0.028-0.032,0.022l-0.089-0.089
			c-0.013-0.01-0.07-0.063-0.053-0.025l0.046,0.104c0.041,0.073,0.038,0.13,0.111,0.22c0.124,0.169,0.209,0.328,0.339,0.515
			c0.536,0.893,1.028,1.898,1.95,2.913c0.703,0.783,1.702,1.54,2.572,2.754c0.468,0.632,0.869,1.438,1.171,2.292l0.173,0.688
			l0.076,0.344l0.01,0.043l0.039,0.195v0.008v0.016l0.001,0.063l0.003,0.126c0.012,0.339,0.023,0.675,0.035,1.008
			c0.049,0.465,0.013,1.105,0.003,1.682l-0.021,0.872l-0.076,0.78c-0.083,1.05-0.222,2.01-0.354,2.943
			c-0.285,1.835-0.556,3.405-0.956,4.772c-0.224,0.812-0.588,1.253-0.806,2.07c-0.516-0.288-0.741-1.813-0.912-2.548
			c-0.152-0.476-0.435-0.606-0.577-1.044c-0.135-0.496-0.321-1.237-0.47-2.014c-0.136-0.741-0.248-1.578-0.3-2.188
			c-0.055-0.615-0.009-1.271-0.018-1.879c0-0.313,0.001-0.633,0.001-0.966c-0.027-0.283-0.072-0.54-0.121-0.818
			c-0.035-0.38-0.356-1.152-0.618-1.787l-0.104-0.247l-0.026-0.063l-0.001-0.002c-0.06-0.298,0.08,0.405,0.065,0.333l0,0
			l-0.002-0.001l-0.003-0.001l-0.007-0.003l-0.013-0.007l-0.049-0.022l-0.167-0.083c-0.15-0.074-0.248-0.132-0.409-0.23
			c-0.272-0.174-0.679-0.55-1.174-0.854c-0.862-0.517-1.335-0.688-2.691-1.595c-0.82-0.569-1.657-1.055-2.598-1.809
			c-0.221-0.156-0.469-0.384-0.709-0.603c-0.242-0.23-0.469-0.408-0.726-0.721c-0.254-0.296-0.483-0.555-0.738-0.901
			c-0.319-0.513-0.608-1.065-0.85-1.634c-0.313-0.781-0.506-1.615-0.678-2.445c-0.074-0.442-0.128-0.908-0.177-1.358
			c-0.033-0.477-0.031-0.99-0.026-1.481c0.05-2.056,0.914-4.521,2.284-6.274c1.35-1.761,2.859-2.831,4.071-3.638
			c1.221-0.791,2.277-1.385,2.843-1.818c0.202-0.159,0.344-0.319,0.255-0.289c-0.07,0.012-0.439,0.342-0.688,0.868
			c-0.252,0.526-0.292,0.974-0.309,1.059c0.006,0.14-0.067-0.074-0.126-0.274l-0.179-0.676c-0.048-0.077-0.067-0.138-0.077-0.201
			c-0.102-0.248-0.179-0.436-0.67-0.989c-0.48-0.563-1.433-1.355-2.865-2.903l-0.534-0.602c-0.188-0.229-0.392-0.502-0.582-0.756
			c-0.193-0.266-0.38-0.507-0.569-0.8c-0.193-0.317-0.381-0.641-0.562-0.968c-0.371-0.621-0.672-1.391-0.938-2.154
			c-0.295-0.758-0.413-1.547-0.554-2.339c-0.157-0.821-0.123-1.503-0.135-2.253c-0.018-0.728,0.082-1.482,0.21-2.234
			c0.063-0.376,0.133-0.75,0.211-1.121l0.061-0.277c0.021-0.095,0.027-0.1,0.041-0.154l0.075-0.255l0.301-1.022l0.025-0.084
			l0.006-0.021l0.149-0.461l0.007-0.018l0.028-0.069l0.116-0.278l0.24-0.55c0.163-0.364,0.333-0.725,0.509-1.079
			c0.374-0.674,0.789-1.299,1.203-1.928c0.426-0.557,0.865-1.117,1.301-1.642c0.425-0.47,0.85-0.94,1.278-1.415
			c0.461-0.48,0.926-1.033,1.306-1.453l0.598-0.666c0.177-0.193,0.357-0.383,0.547-0.566c0.774-0.764,1.422-1.406,1.671-1.746
			c0.275-0.379,0.37-0.439,0.375-0.459c0.036,0.004,0.039-0.021,0.036-0.052c0.003-0.021,0.039-0.063,0.058-0.069
			c-0.009,0.026,0.004,0.056,0.038,0.079c0.018,0.011,0.04,0.021,0.067,0.029c0.026,0.041-0.012-0.106-0.016-0.157l-0.037-0.219
			l-0.145-0.876l-0.036-0.22l-0.019-0.109l-0.005-0.027c0.015,0.066-0.034-0.157,0.033,0.147l-0.001-0.001l-0.001-0.002
			l-0.003-0.009c-0.008-0.022-0.014-0.047-0.016-0.071c0.027-0.1-0.034-0.225-0.053-0.373c-0.13-0.319-0.379-0.809-0.904-1.443
			c-0.548-0.654-1.269-1.406-2.171-2.314c-0.912-0.934-1.972-2.014-3.072-3.434c-0.555-0.773-1.101-1.541-1.596-2.512
			c-0.257-0.445-0.479-0.953-0.682-1.486c-0.203-0.544-0.404-0.977-0.572-1.735c-0.137-0.567-0.25-1.142-0.337-1.712
			c-0.059-0.358-0.039-0.361-0.055-0.521l-0.023-0.381l-0.023-0.379l-0.012-0.189l-0.021-0.557l0.004-0.076l0.009-0.153l0.09-1.225
			c0.04-0.806,0.22-1.638,0.428-2.464c0.169-0.832,0.506-1.615,0.823-2.399c0.309-0.798,0.752-1.458,1.152-2.175
			c0.425-0.652,0.884-1.264,1.342-1.844c0.919-1.082,1.871-2.031,2.725-2.787c1.716-1.539,3.221-2.706,4.035-3.646
			c0.194-0.229,0.42-0.458,0.534-0.655c0.056-0.083,0.194-0.242,0.198-0.26c0.007-0.017,0.029-0.025,0.068-0.031
			c0.023-0.029,0.037,0.053,0.079-0.066l0.13-0.4l0.262-0.809l0.016-0.051c0.074-0.302-0.099,0.404-0.08,0.33v-0.004l0.002-0.008
			l0.004-0.015l0.013-0.062l0.028-0.123l0.06-0.246c0.049-0.17,0.088-0.331,0.098-0.463c0.121-0.561,0.079-0.895,0.049-1.228
			c-0.049-0.323-0.135-0.647-0.449-1.167c-0.3-0.508-0.774-1.149-1.332-1.857c-0.579-0.729-1.212-1.52-1.825-2.365
			c-0.255-0.359-0.53-0.748-0.822-1.16c-0.296-0.454-0.609-0.936-0.937-1.439c-0.234-0.457-0.479-0.935-0.731-1.428
			c-0.126-0.246-0.254-0.496-0.385-0.749c-0.121-0.275-0.244-0.555-0.369-0.837c-0.505-1.1-0.989-2.37-1.369-3.783
			c-0.166-0.74-0.371-1.434-0.434-2.265l-0.117-1.202c0.008-0.417,0.017-0.834,0.025-1.248c-0.002-0.66,0.112-1.248,0.189-1.793
			c0.071-0.558,0.207-1.011,0.349-1.426c0.269-0.862,0.648-1.401,1.165-1.793c0.94-1.722,1.898-3.043,2.744-4.268
			c0.872-1.221,1.6-2.313,2.316-3.25c0.19-0.289,0.401-0.535,0.615-0.781l0.321-0.373l0.159-0.197l0.039-0.051l0.01-0.013
			l0.001-0.002l0.001-0.001l0,0c-0.12,0.271-0.033,0.074-0.061,0.135l0.002-0.002l0.004-0.006l0.014-0.02l0.055-0.084
			c0.359-0.534,0.543-1.218,0.776-1.76c0.519-1.122,1.228-2.7,0.844-5.103c-0.109-0.632-0.302-1.177-0.457-1.862
			c-0.184-0.801-0.582-2.125-0.939-3.407c-0.357-1.279-0.628-2.542-0.544-3.083C579.823,42.683,579.909,42.586,580.045,42.547z"/>
	</g>
</g>
</svg>
