<?xml version="1.0" encoding="utf-8"?>
<!-- Generator: Adobe Illustrator 16.0.0, SVG Export Plug-In . SVG Version: 6.00 Build 0)  -->
<!DOCTYPE svg PUBLIC "-//W3C//DTD SVG 1.1//EN" "http://www.w3.org/Graphics/SVG/1.1/DTD/svg11.dtd">
<svg version="1.1" id="Layer_1" xmlns="http://www.w3.org/2000/svg" xmlns:xlink="http://www.w3.org/1999/xlink" x="0px" y="0px"
	 width="653.182px" height="325.832px" viewBox="0 0 653.182 325.832" enable-background="new 0 0 653.182 325.832"
	 xml:space="preserve">
<rect x="283.091" y="77.726" display="none" opacity="0.3" fill="none" stroke="#394CD3" stroke-width="2" stroke-miterlimit="10" enable-background="new    " width="408" height="239.727"/>
<line fill="none" stroke="#FF553E" stroke-width="2" stroke-miterlimit="10" x1="146.677" y1="32.004" x2="198.676" y2="108.504"/>
<line fill="none" stroke="#394CD3" stroke-width="4" stroke-miterlimit="10" x1="220.078" y1="246.738" x2="307.94" y2="212.908"/>
<line fill="none" stroke="#FF553E" stroke-width="4" stroke-miterlimit="10" x1="361.091" y1="66.081" x2="389.743" y2="41.171"/>
<line fill="none" stroke="#EBEDE4" stroke-width="6" stroke-miterlimit="10" x1="101.398" y1="255.621" x2="87.091" y2="236.081"/>
<line fill="none" stroke="#394CD3" stroke-width="3.2857" stroke-miterlimit="10" x1="306.887" y1="173.232" x2="341.347" y2="180.268"/>
<line fill="none" stroke="#EBEDE4" stroke-width="4" stroke-miterlimit="10" x1="429.757" y1="63.415" x2="472.874" y2="51.656"/>
<path fill="none" stroke="#EBEDE4" stroke-width="2.5552" stroke-miterlimit="10" d="M148.261,82.014
	c-4.09,2.766-9.65,1.688-12.417-2.401l0,0c-2.767-4.091-1.691-9.652,2.4-12.418l32.812-22.18c4.09-2.769,9.651-1.691,12.417,2.398
	l0,0c2.766,4.092,1.691,9.652-2.401,12.417L148.261,82.014z"/>
<path fill="none" stroke="#EBEDE4" stroke-width="2.6485" stroke-miterlimit="10" d="M270.71,163.524
	c-4.503-2.438-6.183-8.062-3.747-12.563l0,0c2.436-4.504,8.06-6.181,12.563-3.748l36.114,19.522
	c4.503,2.434,6.182,8.059,3.746,12.563l0,0c-2.437,4.507-8.059,6.184-12.563,3.748L270.71,163.524z"/>
<g enable-background="new    ">
	<path fill="#FF553E" d="M174.044,235.632c0.194,0.712,0.234,1.595,0.122,2.646c-0.114,1.052-0.333,2.193-0.656,3.423
		c-0.324,1.23-0.72,2.524-1.189,3.883c-0.47,1.359-0.931,2.688-1.384,3.981c-0.259,0.647-0.494,1.271-0.704,1.868
		c-0.211,0.6-0.397,1.142-0.559,1.627v0.048c-0.097,0.26-0.218,0.583-0.364,0.972c-0.146,0.388-0.316,0.825-0.51,1.311
		c-0.485,1.295-1.028,2.775-1.626,4.441c-0.599,1.667-1.165,3.302-1.699,4.903c-0.534,1.602-0.988,3.075-1.359,4.417
		c-0.373,1.343-0.558,2.322-0.558,2.938v0.194c0,0.582,0.048,1.141,0.146,1.675s0.274,0.995,0.534,1.383
		c0.259,0.356,0.583,0.639,0.971,0.85c0.388,0.211,0.89,0.316,1.505,0.316h0.097c0.258,0,0.493,0.104,0.704,0.315
		c0.21,0.21,0.315,0.461,0.315,0.752c0,0.259-0.105,0.493-0.315,0.704c-0.211,0.21-0.445,0.315-0.704,0.315h-0.097
		c-1.036-0.032-1.886-0.235-2.549-0.606c-0.664-0.373-1.206-0.883-1.626-1.529c-0.389-0.583-0.664-1.238-0.825-1.966
		c-0.163-0.729-0.243-1.465-0.243-2.209v-0.049v-0.146c0-0.745,0.194-1.82,0.583-3.229c0.388-1.407,0.865-2.944,1.432-4.611
		c0.566-1.667,1.157-3.35,1.772-5.049c0.614-1.699,1.165-3.195,1.65-4.49c0.064-0.259,0.129-0.438,0.194-0.534h-10.292
		c-1.003,1.716-2.039,3.374-3.107,4.976c-1.068,1.603-2.144,3.034-3.228,4.297c-1.084,1.262-2.185,2.306-3.301,3.131
		c-1.116,0.825-2.241,1.352-3.374,1.577c-0.292,0.065-0.591,0.114-0.898,0.146c-0.308,0.032-0.591,0.048-0.85,0.048
		c-0.874,0-1.716-0.121-2.524-0.364c-0.81-0.242-1.538-0.59-2.185-1.043c-1.359-1.003-2.217-2.313-2.573-3.933
		c-0.033-0.226-0.057-0.437-0.073-0.631c-0.017-0.194-0.024-0.404-0.024-0.631c0-1.197,0.259-2.347,0.777-3.447
		c0.355-0.68,0.776-1.302,1.262-1.868c0.485-0.566,1.002-1.044,1.553-1.433c1.229-0.841,2.524-1.262,3.884-1.262
		c0.809,0,1.553,0.162,2.233,0.485c0.259,0.13,0.437,0.323,0.534,0.582c0.097,0.26,0.081,0.519-0.048,0.777
		c-0.13,0.259-0.324,0.437-0.583,0.533c-0.259,0.098-0.518,0.082-0.777-0.048c-0.454-0.194-0.906-0.292-1.359-0.292
		c-0.907,0-1.813,0.309-2.719,0.923c-0.939,0.615-1.65,1.44-2.136,2.476c-0.163,0.389-0.3,0.801-0.413,1.238
		c-0.114,0.437-0.17,0.882-0.17,1.335c0,0.162,0.007,0.308,0.024,0.437c0.016,0.13,0.041,0.275,0.073,0.438
		c0.194,1.101,0.777,1.974,1.748,2.621c0.905,0.68,2.07,1.02,3.495,1.02c0.226,0,0.453,0,0.68,0c0.226,0,0.453-0.032,0.679-0.098
		c0.906-0.193,1.821-0.639,2.743-1.335c0.922-0.695,1.845-1.577,2.767-2.646c0.922-1.067,1.845-2.289,2.767-3.665
		c0.922-1.375,1.836-2.823,2.743-4.345h-2.379c-0.291,0-0.542-0.104-0.752-0.315c-0.211-0.21-0.315-0.444-0.315-0.704
		c0-0.291,0.104-0.541,0.315-0.752c0.21-0.21,0.461-0.315,0.752-0.315h3.592c0.614-1.068,1.214-2.144,1.796-3.229
		c0.583-1.084,1.165-2.144,1.748-3.18c1.132-2.136,2.208-4.109,3.228-5.923c1.02-1.812,1.966-3.284,2.84-4.417
		c0.356-0.421,0.72-0.801,1.092-1.141c0.372-0.34,0.784-0.639,1.238-0.898c0.906-0.55,1.796-0.825,2.67-0.825
		c0.906,0,1.699,0.291,2.379,0.874C173.251,233.932,173.72,234.693,174.044,235.632z M168.995,248.836
		c0.42-1.229,0.85-2.476,1.287-3.738c0.437-1.262,0.817-2.459,1.141-3.592c0.323-1.133,0.55-2.16,0.68-3.083
		c0.129-0.922,0.113-1.658-0.048-2.209c-0.163-0.55-0.405-0.986-0.728-1.311c-0.26-0.226-0.615-0.34-1.068-0.34
		c-0.454-0.031-1.003,0.13-1.65,0.485c-0.648,0.389-1.213,0.907-1.699,1.554c-0.842,1.068-1.756,2.492-2.743,4.272
		c-0.987,1.78-2.047,3.706-3.18,5.776c-0.485,0.874-0.979,1.771-1.48,2.694c-0.502,0.922-1.012,1.837-1.529,2.743h9.854
		c0.194-0.551,0.389-1.093,0.583-1.627C168.607,249.927,168.802,249.386,168.995,248.836z"/>
</g>
<g enable-background="new    ">
	<path fill="none" stroke="#FF553E" stroke-width="0.8091" stroke-miterlimit="10" d="M174.044,235.632
		c0.194,0.712,0.234,1.595,0.122,2.646c-0.114,1.052-0.333,2.193-0.656,3.423c-0.324,1.23-0.72,2.524-1.189,3.883
		c-0.47,1.359-0.931,2.688-1.384,3.981c-0.259,0.647-0.494,1.271-0.704,1.868c-0.211,0.6-0.397,1.142-0.559,1.627v0.048
		c-0.097,0.26-0.218,0.583-0.364,0.972c-0.146,0.388-0.316,0.825-0.51,1.311c-0.485,1.295-1.028,2.775-1.626,4.441
		c-0.599,1.667-1.165,3.302-1.699,4.903c-0.534,1.602-0.988,3.075-1.359,4.417c-0.373,1.343-0.558,2.322-0.558,2.938v0.194
		c0,0.582,0.048,1.141,0.146,1.675s0.274,0.995,0.534,1.383c0.259,0.356,0.583,0.639,0.971,0.85c0.388,0.211,0.89,0.316,1.505,0.316
		h0.097c0.258,0,0.493,0.104,0.704,0.315c0.21,0.21,0.315,0.461,0.315,0.752c0,0.259-0.105,0.493-0.315,0.704
		c-0.211,0.21-0.445,0.315-0.704,0.315h-0.097c-1.036-0.032-1.886-0.235-2.549-0.606c-0.664-0.373-1.206-0.883-1.626-1.529
		c-0.389-0.583-0.664-1.238-0.825-1.966c-0.163-0.729-0.243-1.465-0.243-2.209v-0.049v-0.146c0-0.745,0.194-1.82,0.583-3.229
		c0.388-1.407,0.865-2.944,1.432-4.611c0.566-1.667,1.157-3.35,1.772-5.049c0.614-1.699,1.165-3.195,1.65-4.49
		c0.064-0.259,0.129-0.438,0.194-0.534h-10.292c-1.003,1.716-2.039,3.374-3.107,4.976c-1.068,1.603-2.144,3.034-3.228,4.297
		c-1.084,1.262-2.185,2.306-3.301,3.131c-1.116,0.825-2.241,1.352-3.374,1.577c-0.292,0.065-0.591,0.114-0.898,0.146
		c-0.308,0.032-0.591,0.048-0.85,0.048c-0.874,0-1.716-0.121-2.524-0.364c-0.81-0.242-1.538-0.59-2.185-1.043
		c-1.359-1.003-2.217-2.313-2.573-3.933c-0.033-0.226-0.057-0.437-0.073-0.631c-0.017-0.194-0.024-0.404-0.024-0.631
		c0-1.197,0.259-2.347,0.777-3.447c0.355-0.68,0.776-1.302,1.262-1.868c0.485-0.566,1.002-1.044,1.553-1.433
		c1.229-0.841,2.524-1.262,3.884-1.262c0.809,0,1.553,0.162,2.233,0.485c0.259,0.13,0.437,0.323,0.534,0.582
		c0.097,0.26,0.081,0.519-0.048,0.777c-0.13,0.259-0.324,0.437-0.583,0.533c-0.259,0.098-0.518,0.082-0.777-0.048
		c-0.454-0.194-0.906-0.292-1.359-0.292c-0.907,0-1.813,0.309-2.719,0.923c-0.939,0.615-1.65,1.44-2.136,2.476
		c-0.163,0.389-0.3,0.801-0.413,1.238c-0.114,0.437-0.17,0.882-0.17,1.335c0,0.162,0.007,0.308,0.024,0.437
		c0.016,0.13,0.041,0.275,0.073,0.438c0.194,1.101,0.777,1.974,1.748,2.621c0.905,0.68,2.07,1.02,3.495,1.02c0.226,0,0.453,0,0.68,0
		c0.226,0,0.453-0.032,0.679-0.098c0.906-0.193,1.821-0.639,2.743-1.335c0.922-0.695,1.845-1.577,2.767-2.646
		c0.922-1.067,1.845-2.289,2.767-3.665c0.922-1.375,1.836-2.823,2.743-4.345h-2.379c-0.291,0-0.542-0.104-0.752-0.315
		c-0.211-0.21-0.315-0.444-0.315-0.704c0-0.291,0.104-0.541,0.315-0.752c0.21-0.21,0.461-0.315,0.752-0.315h3.592
		c0.614-1.068,1.214-2.144,1.796-3.229c0.583-1.084,1.165-2.144,1.748-3.18c1.132-2.136,2.208-4.109,3.228-5.923
		c1.02-1.812,1.966-3.284,2.84-4.417c0.356-0.421,0.72-0.801,1.092-1.141c0.372-0.34,0.784-0.639,1.238-0.898
		c0.906-0.55,1.796-0.825,2.67-0.825c0.906,0,1.699,0.291,2.379,0.874C173.251,233.932,173.72,234.693,174.044,235.632z
		 M168.995,248.836c0.42-1.229,0.85-2.476,1.287-3.738c0.437-1.262,0.817-2.459,1.141-3.592c0.323-1.133,0.55-2.16,0.68-3.083
		c0.129-0.922,0.113-1.658-0.048-2.209c-0.163-0.55-0.405-0.986-0.728-1.311c-0.26-0.226-0.615-0.34-1.068-0.34
		c-0.454-0.031-1.003,0.13-1.65,0.485c-0.648,0.389-1.213,0.907-1.699,1.554c-0.842,1.068-1.756,2.492-2.743,4.272
		c-0.987,1.78-2.047,3.706-3.18,5.776c-0.485,0.874-0.979,1.771-1.48,2.694c-0.502,0.922-1.012,1.837-1.529,2.743h9.854
		c0.194-0.551,0.389-1.093,0.583-1.627C168.607,249.927,168.802,249.386,168.995,248.836z"/>
</g>
<linearGradient id="SVGID_1_" gradientUnits="userSpaceOnUse" x1="-286.1497" y1="816.8474" x2="-237.3479" y2="816.8474" gradientTransform="matrix(1 0 0 -1 328.9429 895.3374)">
	<stop  offset="0" style="stop-color:#394CD3;stop-opacity:0"/>
	<stop  offset="1" style="stop-color:#394CD3"/>
</linearGradient>
<path fill="url(#SVGID_1_)" d="M91.595,98.695c0,6.882-10.928,12.463-24.403,12.463c-13.477,0-24.398-5.58-24.398-12.463
	c0-0.387,0.034-0.771,0.1-1.149L67.13,45.822L91.595,98.695z"/>
<g>
	
		<linearGradient id="SVGID_2_" gradientUnits="userSpaceOnUse" x1="-1396.1277" y1="623.4949" x2="-1335.4714" y2="623.4949" gradientTransform="matrix(1 0 0 -1 1618.7988 869.1929)">
		<stop  offset="0" style="stop-color:#394CD3;stop-opacity:0"/>
		<stop  offset="1" style="stop-color:#394CD3"/>
	</linearGradient>
	<path fill="url(#SVGID_2_)" d="M230.535,210.741c-7.951,5.107-10.256,15.694-5.145,23.646l26.429,41.125
		c5.11,7.948,15.698,10.254,23.646,5.144c7.949-5.108,10.252-15.695,5.143-23.645l-26.43-41.125
		C249.071,207.932,238.486,205.632,230.535,210.741z"/>
	<path fill="#394CD3" d="M256.967,251.867c-7.949,5.108-10.252,15.695-5.146,23.646c5.11,7.948,15.697,10.254,23.646,5.144
		c7.949-5.108,10.252-15.695,5.143-23.645C275.504,249.059,264.918,246.757,256.967,251.867z M273.569,277.697
		c-6.208,3.992-14.478,2.192-18.47-4.018c-3.99-6.207-2.188-14.479,4.021-18.471c6.211-3.987,14.478-2.188,18.468,4.02
		C281.578,265.439,279.779,273.707,273.569,277.697z"/>
</g>
<g>
	
		<linearGradient id="SVGID_3_" gradientUnits="userSpaceOnUse" x1="-1338.137" y1="-212.9724" x2="-1338.137" y2="-120.9724" gradientTransform="matrix(0 1 -1 0 23.0361 1488.9595)">
		<stop  offset="0" style="stop-color:#FFB640;stop-opacity:0"/>
		<stop  offset="1" style="stop-color:#FFB640"/>
	</linearGradient>
	<path fill="url(#SVGID_3_)" d="M144.009,166.823v-32h80v0.321c0.646-0.21,1.313-0.321,2-0.321c5.521,0,10,7.163,10,16
		s-4.479,16-10,16c-0.688,0-1.354-0.111-2-0.321v0.321H144.009z"/>
	
		<linearGradient id="SVGID_4_" gradientUnits="userSpaceOnUse" x1="-1510.616" y1="718.3699" x2="-1489.616" y2="718.3699" gradientTransform="matrix(-1 0 0 -1 -1354.1069 869.1929)">
		<stop  offset="0" style="stop-color:#FFB640;stop-opacity:0"/>
		<stop  offset="1" style="stop-color:#FFB640"/>
	</linearGradient>
	<ellipse fill="#FFB640" stroke="url(#SVGID_4_)" stroke-miterlimit="10" cx="146.009" cy="150.823" rx="10" ry="16"/>
	
		<linearGradient id="SVGID_5_" gradientUnits="userSpaceOnUse" x1="-1306.137" y1="-184.9724" x2="-1306.137" y2="-92.9724" gradientTransform="matrix(0 1 -1 0 23.0361 1488.9595)">
		<stop  offset="0" style="stop-color:#FFB640;stop-opacity:0"/>
		<stop  offset="1" style="stop-color:#FFB640"/>
	</linearGradient>
	<path fill="url(#SVGID_5_)" d="M116.009,198.823v-32h80v0.32c0.646-0.209,1.313-0.32,2-0.32c5.521,0,10,7.163,10,16
		c0,8.836-4.479,16-10,16c-0.688,0-1.354-0.111-2-0.322v0.322H116.009z"/>
	
		<linearGradient id="SVGID_6_" gradientUnits="userSpaceOnUse" x1="-1482.616" y1="686.3699" x2="-1461.616" y2="686.3699" gradientTransform="matrix(-1 0 0 -1 -1354.1069 869.1929)">
		<stop  offset="0" style="stop-color:#FFB640;stop-opacity:0"/>
		<stop  offset="1" style="stop-color:#FFB640"/>
	</linearGradient>
	<ellipse fill="#FFB640" stroke="url(#SVGID_6_)" stroke-miterlimit="10" cx="118.009" cy="182.823" rx="10" ry="16"/>
	<g>
		<ellipse fill="none" stroke="#FFB640" stroke-width="2" stroke-miterlimit="10" cx="144.009" cy="150.823" rx="12" ry="20"/>
		<ellipse fill="none" stroke="#FFB640" stroke-width="2" stroke-miterlimit="10" cx="116.009" cy="182.823" rx="12" ry="20"/>
		<path fill="none" stroke="#FFB640" stroke-width="2" stroke-miterlimit="10" d="M104.009,182.823c0,0-44,0-52,0s-16,0-16,12"/>
		<path fill="none" stroke="#FFB640" stroke-width="2" stroke-miterlimit="10" d="M156.009,146.823c0,0-44,0-52,0s-16,0-16,12"/>
		
			<line fill="none" stroke="#FFB640" stroke-width="2" stroke-miterlimit="10" x1="132.509" y1="158.322" x2="124.009" y2="166.823"/>
	</g>
</g>
<g>
	
		<line fill="none" stroke="#FF553E" stroke-width="2" stroke-linecap="round" stroke-linejoin="round" stroke-miterlimit="10" x1="552.573" y1="42.213" x2="546.804" y2="74.877"/>
	<circle fill="#394CD3" cx="545.708" cy="79.79" r="6.625"/>
	<circle fill="#394CD3" cx="556.786" cy="128.405" r="6.625"/>
	<circle fill="#394CD3" cx="601.413" cy="118.947" r="6.625"/>
	<circle fill="#394CD3" cx="502.465" cy="67.735" r="6.625"/>
	<circle fill="#FF553E" cx="553.503" cy="37.614" r="5.999"/>
	
		<line fill="none" stroke="#394CD3" stroke-width="2" stroke-linecap="round" stroke-linejoin="round" stroke-miterlimit="10" x1="541.739" y1="78.225" x2="504.381" y2="67.74"/>
	
		<line fill="none" stroke="#394CD3" stroke-width="2" stroke-linecap="round" stroke-linejoin="round" stroke-miterlimit="10" x1="547.295" y1="83.719" x2="555.758" y2="123.414"/>
	
		<line fill="none" stroke="#394CD3" stroke-width="2" stroke-linecap="round" stroke-linejoin="round" stroke-miterlimit="10" x1="599.385" y1="119.285" x2="560.896" y2="127.967"/>
</g>
<ellipse fill="none" stroke="#394CD3" stroke-width="1.8096" stroke-miterlimit="10" cx="581.343" cy="199.917" rx="12.667" ry="7.238"/>
<linearGradient id="SVGID_7_" gradientUnits="userSpaceOnUse" x1="-1046.5037" y1="611.3699" x2="-1028.408" y2="611.3699" gradientTransform="matrix(1 0 0 -1 1618.7988 869.1929)">
	<stop  offset="0" style="stop-color:#394CD3;stop-opacity:0"/>
	<stop  offset="1" style="stop-color:#394CD3"/>
</linearGradient>
<path fill="url(#SVGID_7_)" d="M590.391,274.109c0,4.997-4.053,9.048-9.048,9.048l0,0c-4.996,0-9.048-4.051-9.048-9.048v-32.572
	c0-4.997,4.052-9.048,9.048-9.048l0,0c4.995,0,9.048,4.051,9.048,9.048V274.109z"/>
<ellipse fill="#394CD3" cx="581.343" cy="237.918" rx="9.048" ry="5.429"/>
<path fill="none" stroke="#394CD3" stroke-width="1.8096" stroke-miterlimit="10" d="M568.676,199.917
	c3.619,0,3.619,5.432,3.619,5.432v68.764c0,4.997,4.052,9.048,9.048,9.048l0,0c4.995,0,9.048-4.051,9.048-9.048v-68.764
	c0,0,0-5.432,3.619-5.432"/>
<g id="Layer_2">
</g>
<g>
	<polygon fill="#394CD3" points="445.165,284.039 445.165,291.073 398.27,244.176 398.27,237.142 	"/>
	<polygon fill="#394CD3" points="374.821,309.832 445.165,291.073 398.27,244.176 327.924,262.935 	"/>
	<polygon opacity="0.5" fill="#FFFFFF" enable-background="new    " points="374.821,274.659 445.165,284.039 398.27,237.142 
		327.924,227.762 	"/>
	<polygon opacity="0.5" fill="#FFFFFF" enable-background="new    " points="374.821,300.453 445.165,291.073 398.27,244.176 
		327.924,253.555 	"/>
	<polygon opacity="0.5" fill="#FFFFFF" enable-background="new    " points="374.821,284.039 445.165,286.384 398.27,239.486 
		327.924,237.142 	"/>
	<polygon opacity="0.5" fill="#FFFFFF" enable-background="new    " points="374.821,288.728 445.165,288.728 398.27,241.832 
		327.924,241.832 	"/>
	<polygon opacity="0.8" fill="#394CD3" enable-background="new    " points="375.081,260.59 445.165,284.039 398.27,237.142 
		328.184,213.693 	"/>
</g>
<g>
	<polygon fill="#ED891B" points="409.297,163.364 417.906,163.364 458.801,204.26 450.192,204.26 	"/>
	<polygon fill="#F7A328" points="458.801,204.26 508.304,167.668 465.258,124.623 415.754,161.211 	"/>
	<polygon opacity="0.5" fill="#FFFFFF" enable-background="new    " points="456.649,204.26 480.323,146.146 437.278,103.099 
		413.602,161.211 	"/>
	<polygon opacity="0.5" fill="#FFFFFF" enable-background="new    " points="454.493,204.26 478.172,146.146 435.124,103.099 
		411.448,161.211 	"/>
	<polygon opacity="0.5" fill="#FFFFFF" enable-background="new    " points="452.344,204.26 476.02,146.146 432.973,103.099 
		409.297,161.211 	"/>
	<polygon opacity="0.5" fill="#FFFFFF" enable-background="new    " points="450.192,204.26 467.407,146.146 424.364,103.099 
		407.145,161.211 	"/>
	<polygon opacity="0.8" fill="#FF971A" enable-background="new    " points="449.474,204.26 443.018,143.993 399.971,100.947 
		406.428,161.211 	"/>
</g>
<g>
	
		<line fill="none" stroke="#FF553E" stroke-width="3" stroke-linecap="round" stroke-linejoin="round" stroke-miterlimit="10" x1="473.941" y1="179.619" x2="505.329" y2="257.531"/>
	
		<line fill="none" stroke="#FF553E" stroke-width="3" stroke-linecap="round" stroke-linejoin="round" stroke-miterlimit="10" x1="496.198" y1="170.649" x2="527.592" y2="248.564"/>
	
		<line fill="none" stroke="#FF553E" stroke-width="3" stroke-linecap="round" stroke-linejoin="round" stroke-miterlimit="10" x1="478.424" y1="190.748" x2="500.684" y2="181.779"/>
	
		<line fill="none" stroke="#FF553E" stroke-width="3" stroke-linecap="round" stroke-linejoin="round" stroke-miterlimit="10" x1="482.906" y1="201.878" x2="505.17" y2="192.909"/>
	
		<line fill="none" stroke="#FF553E" stroke-width="3" stroke-linecap="round" stroke-linejoin="round" stroke-miterlimit="10" x1="487.393" y1="213.01" x2="509.655" y2="204.04"/>
	
		<line fill="none" stroke="#FF553E" stroke-width="3" stroke-linecap="round" stroke-linejoin="round" stroke-miterlimit="10" x1="491.877" y1="224.14" x2="514.139" y2="215.171"/>
	
		<line fill="none" stroke="#FF553E" stroke-width="3" stroke-linecap="round" stroke-linejoin="round" stroke-miterlimit="10" x1="496.36" y1="235.271" x2="518.62" y2="226.302"/>
	
		<line fill="none" stroke="#FF553E" stroke-width="3" stroke-linecap="round" stroke-linejoin="round" stroke-miterlimit="10" x1="500.848" y1="246.4" x2="523.108" y2="237.433"/>
</g>
<g>
	<polygon fill="#FF553E" points="353.335,124.715 332.773,63.031 287.082,17.34 307.645,79.024 	"/>
	<polygon opacity="0.5" fill="#FFFFFF" enable-background="new    " points="335.058,126.998 332.773,63.031 287.082,17.34 
		289.367,81.307 	"/>
	<polygon opacity="0.5" fill="#FFFFFF" enable-background="new    " points="330.49,126.998 330.49,63.031 284.797,17.34 
		284.797,81.307 	"/>
	<polygon opacity="0.5" fill="#FFFFFF" enable-background="new    " points="328.204,126.998 328.204,63.031 282.513,17.34 
		282.513,81.307 	"/>
	<polygon opacity="0.5" fill="#FFFFFF" enable-background="new    " points="321.351,126.998 325.919,63.031 280.229,17.34 
		275.656,81.307 	"/>
	<polygon opacity="0.8" fill="#FF553E" enable-background="new    " points="305.36,126.998 323.636,63.031 277.944,17.34 
		259.667,81.307 	"/>
	<polygon fill="#FF553E" points="277.944,17.34 287.082,17.34 332.773,63.031 323.636,63.031 	"/>
</g>
<g id="Layer_2_1_">
	<g opacity="0.6">
		<path fill="#394CD3" d="M580.045,42.547c1,1.373,2.022,2.883,3.004,4.541c0.979,1.658,1.901,3.515,2.521,5.626
			c0.585,2.07,0.758,4.595,0.116,7.021l-0.116,0.455l-0.06,0.229l-0.018,0.061l-0.002,0.007l-0.001,0.004l-0.056,0.126l-0.004,0.011
			l-0.008,0.023l-0.031,0.093l-0.251,0.741l-0.258,0.744c-0.098,0.256-0.221,0.538-0.328,0.807
			c-0.458,1.116-0.938,2.117-1.438,3.104c-0.096,0.402-0.305,0.88-0.5,1.324c-0.21,0.463-0.402,0.909-0.485,1.282
			c-0.854,1.196-0.729,1.812-0.844,2.505c0.344,0.379,0.747,0.688,1.105,0.939c0.163,0.131,0.289,0.256,0.425,0.387
			c0.059,0.065,0.102,0.131,0.119,0.203c0.029,0.078,0.085,0.183,0.093,0.289c0.013,0.076,0.006,0.146-0.006,0.224
			c0.017,0.094,0.021,0.184,0.019,0.271c-0.007,0.178-0.054,0.348-0.099,0.535c-0.015,0.418-0.14,0.828-0.137,1.354
			c0.183,0.312,0.37,0.623,0.561,0.944c0.185,0.314,0.458,0.665,0.688,1.001l0.358,0.512l0.092,0.128l0.013,0.02l0.006,0.008
			l0.003,0.004c0.217,0.321-0.295-0.438-0.241-0.356l0.002,0.002l0.031,0.036l0.063,0.07l0.247,0.285
			c0.153,0.172,0.354,0.424,0.479,0.531l0.385,0.368c1.166,1.187,2.836,2.492,4.647,4.76c1.099,1.371,2.396,3.4,2.844,5.487
			c0.54,2.403,0.436,4.696,0.107,6.606l-0.058,0.375l-0.015,0.094l-0.109,0.452l-0.027,0.126l-0.113,0.504
			c-0.094,0.365-0.082,0.535-0.39,1.367c-0.237,0.666-0.525,1.408-0.813,2.001c-0.269,0.512-0.548,1.026-0.84,1.544
			c-1.004,1.671-2.317,3.5-3.438,4.75c-1.146,1.277-1.956,2.01-2.718,2.093c-0.799,0.817-1.237,1.4-1.463,1.798
			c-0.177,0.407-0.3,0.601-0.36,0.933c-0.238,0.138-0.46-0.008-0.646,0.131c-0.035,0.102-0.059,0.205-0.073,0.309l-0.013,0.078
			l-0.001,0.004v0.003v0.001l0,0c-0.011-0.228,0.02,0.513-0.021-0.51v0.003l0.002,0.026l0.005,0.051l0.013,0.104l0.043,0.403
			l0.043,0.4c0.013,0.113,0.021,0.34,0.038,0.223c0.021-0.079,0.01-0.158-0.046-0.217c-0.021-0.022-0.05-0.039-0.077-0.053
			c-0.026-0.012-0.022,0.026-0.04,0.041c-0.025,0.037-0.062,0.071-0.092,0.109c-0.059,0.079-0.156,0.152-0.115,0.267
			c0.104,0.497,0.979,0.989,2.137,2.042c0.704,1.059,1.896,2.285,3.324,3.885c0.367,0.407,0.744,0.833,1.131,1.34l0.575,0.734
			l0.561,0.84c0.744,1.114,1.398,2.473,1.821,3.887l0.084,0.267l0.041,0.133l0.021,0.063l0.012,0.032l0.006,0.017l0.033,0.148
			l0.078,0.312l0.148,0.617l0.144,0.614c0.052,0.305,0.102,0.773,0.135,1.152c0.176,1.653-0.008,3.024-0.357,4.354
			c-0.512,1.683-1.36,2.687-2.172,3.894c-0.198,0.283-0.409,0.588-0.629,0.899c-0.222,0.309-0.454,0.563-0.689,0.855
			c-0.479,0.604-0.941,1.048-1.393,1.495c-1.269,1.189-2.604,2.334-3.518,3.241c-0.76,0.764-1.416,1.448-1.814,2.11
			c-0.14,0.163-0.2,0.335-0.293,0.502l-0.142,0.252l-0.037,0.063l-0.006,0.008l-0.004,0.004v0.002
			c-0.021,0.063,0.175-0.539,0.092-0.283l-0.013,0.031l-0.021,0.063l-0.085,0.25l-0.346,1.002l-0.043,0.125
			c-0.005,0.021-0.001,0.025-0.003,0.043l-0.008,0.072c-0.008,0.053-0.02,0.102-0.037,0.147c-0.057,0.092-0.047,0.216-0.063,0.336
			l-0.036,0.182c0.011,0.039,0.016,0.078,0.015,0.118c0.002,0.04-0.013,0.086-0.013,0.127c0.019,0.035,0.028,0.071,0.034,0.11
			c-0.017,0.074,0.054,0.178,0.099,0.286c0.187,0.454,0.938,1.281,1.994,2.316c0.797,0.813,1.829,1.646,2.671,2.846
			c1.063,1.493,1.811,3.375,2.166,5.151c-0.037-0.142-0.074-0.281-0.109-0.416c0.386,1.383,0.686,2.942,0.535,4.762
			c-0.038,0.406-0.12,0.858-0.212,1.313c-0.138,0.463-0.261,0.95-0.479,1.42c-0.402,0.979-1.04,1.854-1.721,2.59
			c-1.394,1.442-2.818,2.201-3.954,2.806c-1.146,0.579-2.063,1.012-2.628,1.32c-0.563,0.326-0.722,0.389-0.9,0.409
			c-0.11-0.007-0.353,0.081-0.445,0.255c-0.08,0.269,0.108,0.646,0.146,1.128c0,0.027-0.004,0.06-0.011,0.089l-0.003,0.008v0.003
			v0.001v0.001l-0.665,0.032h0.001l0,0l0.021,0.014l0.041,0.026l0.083,0.058c0.106,0.072,0.229,0.153,0.352,0.237l0.095,0.062
			c0.019,0.024,0,0.059,0.003,0.086c-0.001,0.094-0.021,0.028-0.032,0.022l-0.089-0.09c-0.015-0.012-0.07-0.063-0.054-0.024
			l0.047,0.104c0.041,0.073,0.037,0.133,0.108,0.223c0.124,0.169,0.209,0.328,0.34,0.515c0.535,0.896,1.027,1.898,1.949,2.913
			c0.703,0.783,1.702,1.54,2.572,2.754c0.468,0.632,0.869,1.438,1.171,2.292l0.173,0.688l0.076,0.344l0.01,0.043l0.039,0.195v0.008
			v0.016l0.001,0.063l0.003,0.126c0.015,0.339,0.023,0.675,0.035,1.008c0.049,0.465,0.014,1.104,0.003,1.682l-0.021,0.872
			l-0.076,0.78c-0.083,1.05-0.224,2.01-0.354,2.943c-0.285,1.835-0.557,3.402-0.956,4.771c-0.225,0.813-0.589,1.253-0.807,2.07
			c-0.516-0.288-0.741-1.813-0.912-2.548c-0.151-0.479-0.435-0.606-0.577-1.046c-0.135-0.494-0.318-1.235-0.47-2.015
			c-0.136-0.741-0.248-1.578-0.3-2.188c-0.057-0.615-0.009-1.271-0.02-1.879c0-0.313,0.001-0.636,0.001-0.969
			c-0.025-0.28-0.07-0.54-0.12-0.815c-0.034-0.38-0.355-1.152-0.617-1.787l-0.104-0.247l-0.024-0.063v-0.002
			c-0.063-0.298,0.078,0.405,0.063,0.333l0,0l-0.002-0.001l-0.003-0.001l-0.007-0.003l-0.015-0.007l-0.05-0.021l-0.166-0.083
			c-0.148-0.074-0.248-0.135-0.409-0.23c-0.271-0.174-0.68-0.55-1.175-0.854c-0.859-0.52-1.335-0.688-2.688-1.598
			c-0.82-0.566-1.657-1.055-2.6-1.809c-0.222-0.156-0.47-0.384-0.709-0.604c-0.241-0.229-0.47-0.405-0.727-0.721
			c-0.254-0.296-0.482-0.555-0.738-0.901c-0.316-0.513-0.605-1.063-0.85-1.634c-0.313-0.78-0.506-1.615-0.678-2.444
			c-0.074-0.44-0.128-0.906-0.179-1.356c-0.031-0.479-0.029-0.99-0.024-1.481c0.05-2.056,0.914-4.521,2.284-6.271
			c1.35-1.761,2.856-2.831,4.068-3.64c1.222-0.789,2.277-1.386,2.844-1.816c0.202-0.159,0.346-0.319,0.256-0.289
			c-0.069,0.012-0.438,0.342-0.688,0.868c-0.252,0.523-0.292,0.974-0.309,1.059c0.006,0.143-0.067-0.074-0.126-0.271l-0.181-0.679
			c-0.049-0.074-0.065-0.138-0.077-0.198c-0.103-0.248-0.18-0.438-0.67-0.989c-0.479-0.563-1.434-1.355-2.863-2.903l-0.534-0.602
			c-0.188-0.229-0.394-0.502-0.582-0.756c-0.193-0.269-0.38-0.51-0.568-0.803c-0.191-0.314-0.382-0.641-0.563-0.968
			c-0.371-0.621-0.672-1.391-0.938-2.154c-0.296-0.758-0.413-1.547-0.555-2.339c-0.157-0.818-0.123-1.503-0.135-2.253
			c-0.02-0.728,0.082-1.479,0.21-2.231c0.063-0.376,0.133-0.75,0.211-1.121l0.062-0.277c0.021-0.095,0.026-0.1,0.041-0.154
			l0.074-0.255l0.302-1.021l0.024-0.084l0.006-0.021l0.149-0.461l0.007-0.018l0.026-0.069l0.116-0.278l0.239-0.55
			c0.163-0.364,0.333-0.725,0.509-1.079c0.375-0.674,0.789-1.299,1.203-1.928c0.427-0.557,0.865-1.117,1.302-1.642
			c0.425-0.473,0.852-0.94,1.277-1.415c0.461-0.48,0.927-1.033,1.307-1.453l0.6-0.666c0.177-0.193,0.355-0.383,0.547-0.566
			c0.772-0.764,1.422-1.405,1.671-1.746c0.274-0.379,0.37-0.438,0.375-0.459c0.036,0.004,0.039-0.021,0.036-0.052
			c0.003-0.021,0.039-0.063,0.059-0.069c-0.01,0.026,0.004,0.059,0.038,0.079c0.019,0.014,0.039,0.021,0.066,0.029
			c0.024,0.041-0.014-0.106-0.018-0.157l-0.037-0.219l-0.146-0.876l-0.036-0.22l-0.019-0.109l-0.006-0.027
			c0.016,0.066-0.033-0.154,0.032,0.147l-0.001-0.001l-0.001-0.002l-0.003-0.009c-0.009-0.022-0.015-0.047-0.017-0.071
			c0.025-0.1-0.033-0.225-0.054-0.373c-0.13-0.319-0.38-0.809-0.903-1.443c-0.548-0.651-1.27-1.403-2.171-2.313
			c-0.912-0.937-1.974-2.017-3.071-3.437c-0.556-0.771-1.103-1.541-1.597-2.512c-0.258-0.445-0.479-0.953-0.684-1.486
			c-0.202-0.544-0.402-0.977-0.57-1.732c-0.139-0.567-0.25-1.145-0.338-1.712c-0.06-0.358-0.039-0.361-0.056-0.521l-0.021-0.381
			l-0.022-0.379l-0.013-0.189l-0.021-0.557l0.005-0.076l0.01-0.15l0.09-1.228c0.04-0.806,0.221-1.638,0.428-2.464
			c0.17-0.832,0.507-1.615,0.823-2.397c0.31-0.8,0.752-1.458,1.151-2.177c0.426-0.649,0.885-1.264,1.343-1.844
			c0.919-1.082,1.87-2.031,2.725-2.787c1.717-1.539,3.222-2.706,4.035-3.646c0.193-0.229,0.42-0.458,0.534-0.655
			c0.056-0.083,0.192-0.242,0.197-0.26c0.008-0.02,0.027-0.025,0.066-0.031c0.022-0.029,0.037,0.053,0.079-0.066l0.13-0.397
			l0.263-0.812l0.018-0.051c0.073-0.302-0.101,0.404-0.08,0.33v-0.004l0.002-0.008l0.004-0.018l0.014-0.062l0.027-0.123l0.061-0.246
			c0.05-0.17,0.089-0.331,0.1-0.463c0.12-0.563,0.079-0.896,0.049-1.229c-0.049-0.32-0.135-0.646-0.448-1.167
			c-0.301-0.508-0.773-1.146-1.332-1.854c-0.579-0.729-1.212-1.521-1.824-2.365c-0.256-0.357-0.529-0.748-0.821-1.16
			c-0.296-0.454-0.608-0.936-0.938-1.438c-0.232-0.457-0.479-0.938-0.729-1.431c-0.126-0.243-0.255-0.493-0.387-0.749
			c-0.12-0.272-0.242-0.555-0.367-0.837c-0.507-1.1-0.989-2.368-1.369-3.78c-0.166-0.74-0.371-1.437-0.436-2.268l-0.117-1.202
			c0.01-0.417,0.019-0.834,0.024-1.248c-0.002-0.657,0.112-1.248,0.189-1.793c0.069-0.558,0.207-1.011,0.349-1.426
			c0.27-0.86,0.646-1.398,1.165-1.793c0.938-1.722,1.896-3.043,2.744-4.268c0.872-1.224,1.601-2.313,2.314-3.25
			c0.189-0.289,0.4-0.535,0.615-0.781l0.32-0.373l0.159-0.197l0.038-0.051l0.011-0.013l0.001-0.002l0.001-0.001l0,0
			c-0.12,0.271-0.033,0.071-0.063,0.135l0.002-0.002l0.005-0.006l0.015-0.021l0.056-0.084c0.358-0.534,0.543-1.218,0.775-1.76
			c0.52-1.122,1.229-2.7,0.844-5.103c-0.108-0.635-0.302-1.18-0.457-1.862c-0.184-0.801-0.581-2.125-0.938-3.407
			c-0.357-1.279-0.629-2.542-0.545-3.083C579.823,42.683,579.906,42.586,580.045,42.547z"/>
	</g>
</g>
</svg>
