<?xml version="1.0" encoding="utf-8"?>
<!-- Generator: Adobe Illustrator 16.0.0, SVG Export Plug-In . SVG Version: 6.00 Build 0)  -->
<!DOCTYPE svg PUBLIC "-//W3C//DTD SVG 1.1//EN" "http://www.w3.org/Graphics/SVG/1.1/DTD/svg11.dtd">
<svg version="1.1" id="Layer_1" xmlns="http://www.w3.org/2000/svg" xmlns:xlink="http://www.w3.org/1999/xlink" x="0px" y="0px"
	 width="558.047px" height="325.832px" viewBox="0 0 558.047 325.832" enable-background="new 0 0 558.047 325.832"
	 xml:space="preserve">
<rect x="283.091" y="77.726" display="none" opacity="0.3" fill="none" stroke="#394CD3" stroke-width="2" stroke-miterlimit="10" enable-background="new    " width="408.002" height="239.727"/>
<line fill="none" stroke="#FF553E" stroke-width="3" stroke-miterlimit="10" x1="110.091" y1="56.416" x2="157.091" y2="94.416"/>
<line fill="none" stroke="#FF553E" stroke-width="4" stroke-miterlimit="10" x1="361.091" y1="66.081" x2="389.743" y2="41.171"/>
<line fill="none" stroke="#EBEDE4" stroke-width="6" stroke-miterlimit="10" x1="402.971" y1="92.102" x2="405.806" y2="116.511"/>
<line fill="none" stroke="#EBEDE4" stroke-width="7.1706" stroke-miterlimit="10" x1="89.189" y1="269.533" x2="72.091" y2="246.181"/>
<line fill="none" stroke="#EBEDE4" stroke-width="4" stroke-miterlimit="10" x1="429.759" y1="63.415" x2="472.875" y2="51.656"/>
<path fill="none" stroke="#EBEDE4" stroke-width="3" stroke-miterlimit="10" d="M123.261,91.014
	c-4.092,2.766-9.65,1.688-12.417-2.401l0,0c-2.769-4.091-1.691-9.652,2.398-12.418l32.813-22.18
	c4.09-2.769,9.649-1.691,12.417,2.398l0,0c2.766,4.092,1.689,9.652-2.401,12.417L123.261,91.014z"/>
<g enable-background="new    ">
	<path fill="#FF553E" d="M245.26,225.998c0.352,1.29,0.424,2.888,0.22,4.791c-0.206,1.905-0.602,3.972-1.187,6.198
		c-0.586,2.229-1.305,4.572-2.154,7.033c-0.851,2.462-1.686,4.866-2.506,7.21c-0.47,1.173-0.894,2.301-1.274,3.385
		c-0.382,1.085-0.719,2.065-1.011,2.944v0.088c-0.176,0.471-0.396,1.056-0.659,1.759c-0.264,0.703-0.572,1.494-0.923,2.374
		c-0.879,2.345-1.861,5.026-2.945,8.044c-1.085,3.02-2.11,5.979-3.077,8.88c-0.967,2.901-1.789,5.569-2.461,8
		c-0.675,2.432-1.011,4.205-1.011,5.319v0.352c0,1.055,0.088,2.066,0.264,3.033s0.498,1.803,0.967,2.506
		c0.468,0.645,1.055,1.156,1.758,1.538c0.703,0.381,1.611,0.572,2.726,0.572h0.176c0.468,0,0.893,0.189,1.275,0.571
		c0.38,0.38,0.571,0.835,0.571,1.362c0,0.469-0.191,0.893-0.571,1.274c-0.382,0.381-0.807,0.572-1.275,0.572h-0.176
		c-1.876-0.06-3.415-0.426-4.616-1.1c-1.202-0.674-2.184-1.598-2.945-2.77c-0.703-1.055-1.202-2.241-1.495-3.561
		c-0.294-1.318-0.439-2.652-0.439-4v-0.088v-0.264c0-1.349,0.352-3.297,1.055-5.847c0.704-2.55,1.567-5.332,2.594-8.352
		c1.025-3.019,2.095-6.066,3.209-9.144c1.113-3.077,2.11-5.787,2.989-8.133c0.117-0.468,0.233-0.791,0.352-0.967h-18.638
		c-1.817,3.107-3.693,6.11-5.627,9.012s-3.883,5.495-5.846,7.78c-1.965,2.286-3.957,4.177-5.979,5.671s-4.06,2.448-6.11,2.857
		c-0.527,0.118-1.07,0.206-1.626,0.264c-0.558,0.059-1.07,0.088-1.539,0.088c-1.583,0-3.107-0.22-4.572-0.659
		c-1.465-0.439-2.784-1.069-3.956-1.891c-2.462-1.815-4.015-4.189-4.66-7.121c-0.059-0.409-0.103-0.791-0.132-1.143
		c-0.03-0.352-0.044-0.732-0.044-1.144c0-2.167,0.468-4.249,1.407-6.242c0.644-1.23,1.407-2.358,2.286-3.385
		c0.879-1.024,1.816-1.89,2.813-2.593c2.227-1.523,4.572-2.286,7.033-2.286c1.464,0,2.813,0.294,4.044,0.879
		c0.468,0.235,0.791,0.587,0.967,1.055c0.176,0.471,0.146,0.938-0.088,1.407c-0.235,0.47-0.586,0.791-1.055,0.967
		c-0.47,0.176-0.938,0.147-1.407-0.088c-0.822-0.352-1.642-0.527-2.462-0.527c-1.642,0-3.283,0.558-4.923,1.67
		c-1.701,1.114-2.989,2.609-3.868,4.484c-0.294,0.703-0.542,1.45-0.748,2.242c-0.206,0.791-0.308,1.598-0.308,2.417
		c0,0.294,0.014,0.558,0.044,0.792c0.029,0.234,0.073,0.498,0.132,0.791c0.352,1.993,1.407,3.575,3.165,4.747
		c1.64,1.231,3.75,1.847,6.33,1.847c0.41,0,0.82,0,1.231,0c0.409,0,0.82-0.058,1.231-0.176c1.64-0.352,3.297-1.157,4.967-2.418
		c1.67-1.26,3.341-2.857,5.011-4.791c1.67-1.935,3.341-4.146,5.011-6.638s3.326-5.113,4.967-7.869h-4.308
		c-0.527,0-0.982-0.189-1.363-0.571c-0.382-0.381-0.571-0.805-0.571-1.274c0-0.528,0.189-0.981,0.571-1.363
		c0.381-0.381,0.835-0.571,1.363-0.571h6.506c1.113-1.935,2.198-3.882,3.253-5.847c1.055-1.963,2.11-3.882,3.165-5.759
		c2.051-3.868,4-7.442,5.847-10.726c1.846-3.281,3.561-5.948,5.143-8c0.644-0.762,1.304-1.451,1.978-2.066
		c0.673-0.615,1.42-1.156,2.242-1.627c1.64-0.995,3.253-1.494,4.835-1.494c1.64,0,3.077,0.527,4.308,1.582
		C243.823,222.921,244.673,224.299,245.26,225.998z M236.116,249.911c0.761-2.227,1.539-4.483,2.33-6.77
		c0.791-2.286,1.479-4.453,2.066-6.506c0.585-2.051,0.996-3.912,1.231-5.583c0.233-1.67,0.205-3.003-0.088-4
		c-0.294-0.996-0.734-1.787-1.319-2.374c-0.47-0.409-1.114-0.615-1.934-0.615c-0.822-0.058-1.817,0.235-2.989,0.879
		c-1.173,0.704-2.198,1.642-3.077,2.813c-1.525,1.935-3.18,4.515-4.967,7.737c-1.789,3.224-3.708,6.712-5.759,10.462
		c-0.879,1.582-1.773,3.209-2.681,4.879c-0.91,1.671-1.833,3.327-2.77,4.968h17.847c0.352-0.996,0.703-1.979,1.055-2.945
		C235.413,251.889,235.764,250.908,236.116,249.911z"/>
</g>
<g enable-background="new    ">
	<path fill="none" stroke="#FF553E" stroke-width="1.4653" stroke-miterlimit="10" d="M245.26,225.998
		c0.352,1.29,0.424,2.888,0.22,4.791c-0.206,1.905-0.602,3.972-1.187,6.198c-0.586,2.229-1.305,4.572-2.154,7.033
		c-0.851,2.462-1.686,4.866-2.506,7.21c-0.47,1.173-0.894,2.301-1.274,3.385c-0.382,1.085-0.719,2.065-1.011,2.944v0.088
		c-0.176,0.471-0.396,1.056-0.659,1.759c-0.264,0.703-0.572,1.494-0.923,2.374c-0.879,2.345-1.861,5.026-2.945,8.044
		c-1.085,3.02-2.11,5.979-3.077,8.88c-0.967,2.901-1.789,5.569-2.461,8c-0.675,2.432-1.011,4.205-1.011,5.319v0.352
		c0,1.055,0.088,2.066,0.264,3.033s0.498,1.803,0.967,2.506c0.468,0.645,1.055,1.156,1.758,1.538
		c0.703,0.381,1.611,0.572,2.726,0.572h0.176c0.468,0,0.893,0.189,1.275,0.571c0.38,0.38,0.571,0.835,0.571,1.362
		c0,0.469-0.191,0.893-0.571,1.274c-0.382,0.381-0.807,0.572-1.275,0.572h-0.176c-1.876-0.06-3.415-0.426-4.616-1.1
		c-1.202-0.674-2.184-1.598-2.945-2.77c-0.703-1.055-1.202-2.241-1.495-3.561c-0.294-1.318-0.439-2.652-0.439-4v-0.088v-0.264
		c0-1.349,0.352-3.297,1.055-5.847c0.704-2.55,1.567-5.332,2.594-8.352c1.025-3.019,2.095-6.066,3.209-9.144
		c1.113-3.077,2.11-5.787,2.989-8.133c0.117-0.468,0.233-0.791,0.352-0.967h-18.638c-1.817,3.107-3.693,6.11-5.627,9.012
		s-3.883,5.495-5.846,7.78c-1.965,2.286-3.957,4.177-5.979,5.671s-4.06,2.448-6.11,2.857c-0.527,0.118-1.07,0.206-1.626,0.264
		c-0.558,0.059-1.07,0.088-1.539,0.088c-1.583,0-3.107-0.22-4.572-0.659c-1.465-0.439-2.784-1.069-3.956-1.891
		c-2.462-1.815-4.015-4.189-4.66-7.121c-0.059-0.409-0.103-0.791-0.132-1.143c-0.03-0.352-0.044-0.732-0.044-1.144
		c0-2.167,0.468-4.249,1.407-6.242c0.644-1.23,1.407-2.358,2.286-3.385c0.879-1.024,1.816-1.89,2.813-2.593
		c2.227-1.523,4.572-2.286,7.033-2.286c1.464,0,2.813,0.294,4.044,0.879c0.468,0.235,0.791,0.587,0.967,1.055
		c0.176,0.471,0.146,0.938-0.088,1.407c-0.235,0.47-0.586,0.791-1.055,0.967c-0.47,0.176-0.938,0.147-1.407-0.088
		c-0.822-0.352-1.642-0.527-2.462-0.527c-1.642,0-3.283,0.558-4.923,1.67c-1.701,1.114-2.989,2.609-3.868,4.484
		c-0.294,0.703-0.542,1.45-0.748,2.242c-0.206,0.791-0.308,1.598-0.308,2.417c0,0.294,0.014,0.558,0.044,0.792
		c0.029,0.234,0.073,0.498,0.132,0.791c0.352,1.993,1.407,3.575,3.165,4.747c1.64,1.231,3.75,1.847,6.33,1.847
		c0.41,0,0.82,0,1.231,0c0.409,0,0.82-0.058,1.231-0.176c1.64-0.352,3.297-1.157,4.967-2.418c1.67-1.26,3.341-2.857,5.011-4.791
		c1.67-1.935,3.341-4.146,5.011-6.638s3.326-5.113,4.967-7.869h-4.308c-0.527,0-0.982-0.189-1.363-0.571
		c-0.382-0.381-0.571-0.805-0.571-1.274c0-0.528,0.189-0.981,0.571-1.363c0.381-0.381,0.835-0.571,1.363-0.571h6.506
		c1.113-1.935,2.198-3.882,3.253-5.847c1.055-1.963,2.11-3.882,3.165-5.759c2.051-3.868,4-7.442,5.847-10.726
		c1.846-3.281,3.561-5.948,5.143-8c0.644-0.762,1.304-1.451,1.978-2.066c0.673-0.615,1.42-1.156,2.242-1.627
		c1.64-0.995,3.253-1.494,4.835-1.494c1.64,0,3.077,0.527,4.308,1.582C243.823,222.921,244.673,224.299,245.26,225.998z
		 M236.116,249.911c0.761-2.227,1.539-4.483,2.33-6.77c0.791-2.286,1.479-4.453,2.066-6.506c0.585-2.051,0.996-3.912,1.231-5.583
		c0.233-1.67,0.205-3.003-0.088-4c-0.294-0.996-0.734-1.787-1.319-2.374c-0.47-0.409-1.114-0.615-1.934-0.615
		c-0.822-0.058-1.817,0.235-2.989,0.879c-1.173,0.704-2.198,1.642-3.077,2.813c-1.525,1.935-3.18,4.515-4.967,7.737
		c-1.789,3.224-3.708,6.712-5.759,10.462c-0.879,1.582-1.773,3.209-2.681,4.879c-0.91,1.671-1.833,3.327-2.77,4.968h17.847
		c0.352-0.996,0.703-1.979,1.055-2.945C235.413,251.889,235.764,250.908,236.116,249.911z"/>
</g>
<g>
	
		<linearGradient id="SVGID_1_" gradientUnits="userSpaceOnUse" x1="-1438.9495" y1="-296.5847" x2="-1438.9495" y2="-196.3064" gradientTransform="matrix(0 1 -1 0 -82.5776 1594.5723)">
		<stop  offset="0" style="stop-color:#FFB640;stop-opacity:0"/>
		<stop  offset="1" style="stop-color:#FFB640"/>
	</linearGradient>
	<path fill="url(#SVGID_1_)" d="M113.729,173.063v-34.88h87.2v0.35c0.702-0.229,1.431-0.35,2.18-0.35
		c6.017,0,10.898,7.808,10.898,17.438s-4.883,17.44-10.898,17.44c-0.75,0-1.479-0.122-2.18-0.353v0.353L113.729,173.063
		L113.729,173.063z"/>
	
		<linearGradient id="SVGID_2_" gradientUnits="userSpaceOnUse" x1="-1692.6877" y1="713.5701" x2="-1669.7971" y2="713.5701" gradientTransform="matrix(-1 0 0 -1 -1565.3335 869.1929)">
		<stop  offset="0" style="stop-color:#FFB640;stop-opacity:0"/>
		<stop  offset="1" style="stop-color:#FFB640"/>
	</linearGradient>
	
		<ellipse fill="#FFB640" stroke="url(#SVGID_2_)" stroke-width="1.09" stroke-miterlimit="10" cx="115.909" cy="155.623" rx="10.9" ry="17.44"/>
	
		<linearGradient id="SVGID_3_" gradientUnits="userSpaceOnUse" x1="-1404.0696" y1="-266.0662" x2="-1404.0696" y2="-165.7859" gradientTransform="matrix(0 1 -1 0 -82.5776 1594.5723)">
		<stop  offset="0" style="stop-color:#FFB640;stop-opacity:0"/>
		<stop  offset="1" style="stop-color:#FFB640"/>
	</linearGradient>
	<path fill="url(#SVGID_3_)" d="M83.209,207.943v-34.88h87.2v0.349c0.704-0.228,1.431-0.349,2.18-0.349
		c6.019,0,10.9,7.808,10.9,17.438s-4.883,17.44-10.9,17.44c-0.75,0-1.477-0.121-2.18-0.354v0.354L83.209,207.943L83.209,207.943z"/>
	
		<linearGradient id="SVGID_4_" gradientUnits="userSpaceOnUse" x1="-1662.1663" y1="678.6892" x2="-1639.2786" y2="678.6892" gradientTransform="matrix(-1 0 0 -1 -1565.3335 869.1929)">
		<stop  offset="0" style="stop-color:#FFB640;stop-opacity:0"/>
		<stop  offset="1" style="stop-color:#FFB640"/>
	</linearGradient>
	
		<ellipse fill="#FFB640" stroke="url(#SVGID_4_)" stroke-width="1.09" stroke-miterlimit="10" cx="85.389" cy="190.503" rx="10.898" ry="17.44"/>
	<g>
		
			<ellipse fill="none" stroke="#FFB640" stroke-width="2.18" stroke-miterlimit="10" cx="113.729" cy="155.623" rx="13.08" ry="21.8"/>
		
			<ellipse fill="none" stroke="#FFB640" stroke-width="2.18" stroke-miterlimit="10" cx="83.209" cy="190.503" rx="13.08" ry="21.8"/>
		<path fill="none" stroke="#FFB640" stroke-width="2.18" stroke-miterlimit="10" d="M70.129,190.503c0,0-47.96,0-56.68,0
			s-17.44,0-17.44,13.08"/>
		<path fill="none" stroke="#FFB640" stroke-width="2.18" stroke-miterlimit="10" d="M126.809,151.263c0,0-47.96,0-56.682,0
			c-8.72,0-17.438,0-17.438,13.08"/>
		
			<line fill="none" stroke="#FFB640" stroke-width="2.18" stroke-miterlimit="10" x1="101.194" y1="163.797" x2="91.929" y2="173.063"/>
	</g>
</g>
<g id="Layer_2">
</g>
<g>
	<polygon fill="#394CD3" points="408.165,276.039 408.165,283.073 361.27,236.176 361.27,229.142 	"/>
	<polygon fill="#394CD3" points="337.821,301.832 408.165,283.073 361.27,236.176 290.924,254.935 	"/>
	<polygon opacity="0.5" fill="#FFFFFF" enable-background="new    " points="337.821,266.659 408.165,276.039 361.27,229.142 
		290.924,219.762 	"/>
	<polygon opacity="0.5" fill="#FFFFFF" enable-background="new    " points="337.821,292.453 408.165,283.073 361.27,236.176 
		290.924,245.555 	"/>
	<polygon opacity="0.5" fill="#FFFFFF" enable-background="new    " points="337.821,276.039 408.165,278.384 361.27,231.486 
		290.924,229.142 	"/>
	<polygon opacity="0.5" fill="#FFFFFF" enable-background="new    " points="337.821,280.728 408.165,280.728 361.27,233.832 
		290.924,233.832 	"/>
	<polygon opacity="0.8" fill="#394CD3" enable-background="new    " points="338.081,252.59 408.165,276.039 361.27,229.142 
		291.184,205.693 	"/>
</g>
<g>
	<polygon fill="#ED891B" points="247.766,103.477 256.374,103.477 297.27,144.374 288.66,144.374 	"/>
	<polygon fill="#F7A328" points="297.27,144.374 346.773,107.781 303.727,64.736 254.223,101.324 	"/>
	<polygon opacity="0.5" fill="#FFFFFF" enable-background="new    " points="295.117,144.374 318.792,86.26 275.746,43.213 
		252.071,101.324 	"/>
	<polygon opacity="0.5" fill="#FFFFFF" enable-background="new    " points="292.964,144.374 316.641,86.26 273.594,43.213 
		249.917,101.324 	"/>
	<polygon opacity="0.5" fill="#FFFFFF" enable-background="new    " points="290.813,144.374 314.489,86.26 271.442,43.213 
		247.766,101.324 	"/>
	<polygon opacity="0.5" fill="#FFFFFF" enable-background="new    " points="288.66,144.374 305.878,86.26 262.832,43.213 
		245.614,101.324 	"/>
	<polygon opacity="0.8" fill="#FF971A" enable-background="new    " points="287.943,144.374 281.487,84.106 238.44,41.06 
		244.897,101.324 	"/>
</g>
<g>
	
		<line fill="none" stroke="#FF553E" stroke-width="3" stroke-linecap="round" stroke-linejoin="round" stroke-miterlimit="10" x1="316.409" y1="115.732" x2="347.8" y2="193.644"/>
	
		<line fill="none" stroke="#FF553E" stroke-width="3" stroke-linecap="round" stroke-linejoin="round" stroke-miterlimit="10" x1="338.667" y1="106.762" x2="370.061" y2="184.677"/>
	
		<line fill="none" stroke="#FF553E" stroke-width="3" stroke-linecap="round" stroke-linejoin="round" stroke-miterlimit="10" x1="320.893" y1="126.861" x2="343.153" y2="117.892"/>
	
		<line fill="none" stroke="#FF553E" stroke-width="3" stroke-linecap="round" stroke-linejoin="round" stroke-miterlimit="10" x1="325.376" y1="137.991" x2="347.639" y2="129.022"/>
	
		<line fill="none" stroke="#FF553E" stroke-width="3" stroke-linecap="round" stroke-linejoin="round" stroke-miterlimit="10" x1="329.862" y1="149.123" x2="352.123" y2="140.153"/>
	
		<line fill="none" stroke="#FF553E" stroke-width="3" stroke-linecap="round" stroke-linejoin="round" stroke-miterlimit="10" x1="334.346" y1="160.254" x2="356.608" y2="151.284"/>
	
		<line fill="none" stroke="#FF553E" stroke-width="3" stroke-linecap="round" stroke-linejoin="round" stroke-miterlimit="10" x1="338.828" y1="171.385" x2="361.091" y2="162.416"/>
	
		<line fill="none" stroke="#FF553E" stroke-width="3" stroke-linecap="round" stroke-linejoin="round" stroke-miterlimit="10" x1="343.317" y1="182.513" x2="365.576" y2="173.547"/>
</g>
<g>
	<polygon fill="#FF553E" points="526.337,220.715 505.773,159.031 460.082,113.34 480.645,175.024 	"/>
	<polygon opacity="0.5" fill="#FFFFFF" enable-background="new    " points="508.058,222.998 505.773,159.031 460.082,113.34 
		462.367,177.307 	"/>
	<polygon opacity="0.5" fill="#FFFFFF" enable-background="new    " points="503.49,222.998 503.49,159.031 457.799,113.34 
		457.799,177.307 	"/>
	<polygon opacity="0.5" fill="#FFFFFF" enable-background="new    " points="501.204,222.998 501.204,159.031 455.513,113.34 
		455.513,177.307 	"/>
	<polygon opacity="0.5" fill="#FFFFFF" enable-background="new    " points="494.351,222.998 498.921,159.031 453.229,113.34 
		448.657,177.307 	"/>
	<polygon opacity="0.8" fill="#FF553E" enable-background="new    " points="478.36,222.998 496.636,159.031 450.944,113.34 
		432.668,177.307 	"/>
	<polygon fill="#FF553E" points="450.944,113.34 460.082,113.34 505.773,159.031 496.636,159.031 	"/>
</g>
</svg>
