<?xml version="1.0" encoding="utf-8"?>
<!-- Generator: Adobe Illustrator 16.0.0, SVG Export Plug-In . SVG Version: 6.00 Build 0)  -->
<!DOCTYPE svg PUBLIC "-//W3C//DTD SVG 1.1//EN" "http://www.w3.org/Graphics/SVG/1.1/DTD/svg11.dtd">
<svg version="1.1" id="Layer_1" xmlns="http://www.w3.org/2000/svg" xmlns:xlink="http://www.w3.org/1999/xlink" x="0px" y="0px"
	 width="611px" height="311.5px" viewBox="0 0 611 311.5" enable-background="new 0 0 611 311.5" xml:space="preserve">
<radialGradient id="SVGID_1_" cx="42.4739" cy="232.4817" r="97.2672" gradientTransform="matrix(0.9814 -0.1918 -0.1138 -0.5824 343.1716 221.0707)" gradientUnits="userSpaceOnUse">
	<stop  offset="0.129" style="stop-color:#FFFFFF;stop-opacity:0.4"/>
	<stop  offset="0.8925" style="stop-color:#FFFFFF;stop-opacity:0"/>
</radialGradient>
<path fill="url(#SVGID_1_)" d="M254.661,44.027l35.5,40l139-16.5l32-43C461.161,24.527,339.161-41.973,254.661,44.027z"/>
<rect x="72.716" y="89.788" display="none" fill="none" stroke="#394CD3" stroke-width="2" stroke-miterlimit="10" width="407.998" height="239.728"/>
<circle fill="#394CD3" cx="229.833" cy="127.788" r="12"/>
<circle fill="#394CD3" cx="272.508" cy="228.912" r="5.525"/>
<circle fill="#FF553E" cx="420.039" cy="184.315" r="5.525"/>
<path fill="none" stroke="#EBEDE4" stroke-width="8" stroke-miterlimit="10" d="M191.345,186.009
	c-12.824,15.192-35.539,17.111-50.731,4.289c-15.191-12.826-17.111-35.541-4.287-50.732"/>
<path fill="none" stroke="#394CD3" stroke-width="9" stroke-linejoin="round" stroke-miterlimit="10" d="M252.222,199.063
	c16.925-10.437,39.104-5.177,49.539,11.75c10.438,16.924,5.177,39.104-11.749,49.54"/>
<path fill="none" stroke="#EBEDE4" stroke-width="8" stroke-miterlimit="10" d="M409.66,122.46
	c5.979,18.963-4.556,39.183-23.521,45.155c-18.963,5.977-39.183-4.555-45.155-23.519"/>
<line fill="none" stroke="#EBEDE4" stroke-width="8" stroke-miterlimit="10" x1="51.806" y1="102.091" x2="66.014" y2="127.788"/>
<line fill="none" stroke="#EBEDE4" stroke-width="8" stroke-miterlimit="10" x1="474.015" y1="262.256" x2="492.015" y2="238.254"/>
<circle fill="#394CD3" cx="360.817" cy="130.295" r="9.348"/>
<circle fill="#394CD3" cx="287.247" cy="157.024" r="17.232"/>
<g>
	<g>
		<g>
			<path fill="#FF553E" d="M265.33,111.509c0.195,0.001,0.176-0.149,0.355-0.046c0.104,0.108,0.035,0.228,0.066,0.339
				c0.432,0.053,0.771,0.449,1.071,0.713c0.355-0.067,0.655,0.305,1.003,0.283c-0.144-0.2,0.06,0.018,0.121-0.047
				c-0.001-0.091-0.029-0.178-0.004-0.269c0.104,0.093,0.219,0.081,0.353-0.063c-0.092-0.068-0.234-0.064-0.122-0.221
				c0.171-0.04,0.313,0.122,0.476,0.155c-0.047-0.085-0.129-0.167-0.004-0.268c0.067,0.142,0.188-0.101,0.253,0.095
				c0.845-0.198,1.66-0.303,2.531-0.893c0.22-0.251,0.42-0.38,0.626-0.56c0.314-0.391,0.684-0.921,0.838-1.213
				c0.03-0.063,0.104-0.124,0.142-0.202c0.047-0.11,0.033-0.267,0.063-0.371c0.038-0.136,0.12-0.257,0.14-0.38
				c-0.059-0.147,0.035-0.316-0.021-0.463c0.143-0.093,0.028-0.147,0.113-0.23c-0.015-0.104-0.05-0.206,0.027-0.322
				c-0.342-1.088-1.063-2.082-1.479-3.191c-0.273-0.348-0.396-0.571-0.634-0.962c-0.482-0.389-0.998-1.063-1.104-1.616
				c-0.044-0.051-0.145,0.063-0.172-0.032c-0.546-1.151-1.055-1.986-1.839-3.25c0.021-0.701-0.56-1.395-1.036-2.029
				c-0.386-0.253-0.646-0.741-0.966-0.931c-0.171-0.369-0.395-0.678-0.556-1.179c-0.375-0.439-0.569-0.83-0.877-1.298
				c0.025-0.55,0.001-1.14-0.253-1.742c-0.269-0.642-0.618-0.889-0.713-1.337c0.104-0.043,0.098-0.104,0.194-0.147
				c-0.085-0.309-0.266-0.631-0.257-0.924c-0.247-0.569-0.355-0.741-0.661-1.338c-0.451-0.514-0.92-1.341-1.533-1.841
				c-0.103-0.275-0.332-0.306-0.414-0.613c-0.064,0.021-0.09-0.038-0.109-0.099c-0.122-0.002-0.232-0.023-0.351-0.041
				c-0.079-0.135-0.194-0.198-0.244-0.392c-0.154-0.038-0.175,0.086-0.255,0.167c-0.098-0.077-0.271-0.01-0.297-0.216
				c-0.135,0.126-0.36,0.232-0.545,0.25c0.042,0.109,0.088,0.219-0.066,0.283c0.062-0.104-0.064-0.204-0.17-0.225
				c0.088,0.118-0.03,0.189,0.078,0.313c-0.189,0.044-0.063,0.159-0.159,0.227c0.099,0.172,0.155,0.333-0.064,0.433
				c-0.094-0.109-0.096-0.391-0.244-0.391c0.061,0.088,0.061,0.161-0.033,0.217c-0.084-0.102-0.215-0.111-0.297-0.216
				c-0.151-0.168-0.027-0.396-0.209-0.455c-0.312,0.104-0.063,0.333-0.176,0.479c0.14,0.032,0.002,0.091,0.097,0.208
				c-0.02,0.096,0.104,0.222-0.067,0.282c-0.059-0.046-0.034-0.244-0.147-0.183c-0.062-0.066-0.041-0.283-0.204-0.156
				c-0.063,0.171,0.122,0.471,0.12,0.548c-0.028-0.104-0.181,0.025-0.224-0.049c-0.073-0.035-0.151-0.311-0.137-0.439
				c-0.164,0.103-0.164,0.272-0.257,0.02c-0.323,0.149-0.009,0.443-0.246,0.613c-0.027-0.176-0.155-0.167-0.204-0.308
				c-0.205,0.088-0.165,0.003-0.188-0.115c-0.186,0.117-0.034,0.545-0.341,0.407c0.126,0.152,0.037,0.257-0.028,0.366
				c-0.072-0.071-0.06-0.305-0.188-0.267c0.02,0.055,0.027,0.104-0.07,0.135c-0.182-0.043-0.317-0.32-0.302-0.516
				c-0.255,0.167,0.017,0.449,0.048,0.683c-0.063,0.034-0.123,0.07-0.068,0.133c0.021,0.283,0.104,0.351,0.155,0.63
				c0.067-0.022,0.151-0.078,0.185-0.034c-0.231,0.035-0.053,0.163-0.232,0.208c-0.159-0.225-0.296-0.335-0.451-0.695
				c-0.132-0.048-0.069,0.231-0.309,0.191c-0.027-0.104-0.082-0.154-0.149-0.183c-0.144-0.096,0.014-0.392-0.188-0.267
				c0.065,0.188,0.254,0.403,0.046,0.531c-0.183-0.046-0.179-0.438-0.395-0.423c0.087,0.086-0.161,0.281,0.063,0.273
				c-0.021-0.044-0.021-0.117,0.033-0.066c0.156,0.097,0.105,0.334,0.117,0.396c-0.067,0.061-0.306,0.081-0.254,0.167
				c0.076-0.029,0.104,0.079-0.018,0.106c0.021,0.065,0.089,0.146,0.021,0.19c-0.001-0.111-0.313-0.019-0.147-0.184l-0.152-0.332
				c-0.021-0.055,0.044-0.089-0.004-0.146c-0.069-0.071-0.057-0.306-0.188-0.268c0.104,0.197,0.051,0.358,0.193,0.564
				c-0.056,0.075-0.058,0.161-0.161,0.225l0.098,0.207c-0.228,0.124-0.058,0.335-0.177,0.482c0.027,0.073,0.069,0.124,0.131,0.141
				c-0.063,0.035-0.121,0.072-0.069,0.133c0.168,0.482,0.178,0.771,0.332,1.153c0.023,0.068-0.124,0.097-0.054,0.175
				c0.047,0.199,0.2,0.191,0.245,0.392c-0.218,0.019-0.162,0.081-0.232,0.208c-0.063-0.138-0.204-0.554-0.307-0.663
				c0.163,0.847,0.694,1.813,0.978,2.714c0.074-0.011,0.146-0.015,0.205,0.007c-0.247,0.035,0.07,0.193-0.078,0.251
				c0.073,0.129,0.271,0.209,0.14,0.413c0.246-0.01,0.146,0.283,0.317,0.375c0.042,0.085-0.119,0.128-0.021,0.226
				c0.241,0.318,0.234,0.665,0.307,0.864c0.113,0.353,0.365,0.619,0.493,0.923c0.034,0.082-0.021,0.176,0.008,0.268
				c0.021,0.063,0.14,0.121,0.165,0.183c0.146,0.339,0.149,0.646,0.293,0.925c0.949,1.298,1.46,2.727,2.578,3.758
				c-0.092,0.052-0.113,0.111-0.105,0.177c0.303,0.021,0.258,0.68,0.709,0.464c0.014,0.266,0.4,0.343,0.42,0.645
				c0.063-0.031,0.143-0.099,0.179-0.057c-0.057,0.044-0.146,0.084-0.126,0.137c0.152-0.021,0.184,0.327,0.359,0.225
				c-0.175,0.06,0.082,0.229,0.08,0.233c0.027,0.1,0.026,0.218,0.186,0.281c-0.024,0.123,0.026,0.254,0.106,0.388
				c0.021,0.053-0.015,0.101-0.047,0.147c0.224,0.212,0.259,0.854,0.479,1.065c-0.122,0.065,0.021,0.154-0.065,0.225l0.171,0.233
				c0.127,0.965,0.581,2.146,1.008,3.021l0.176,0.238c0.033,0.054-0.021,0.104,0.039,0.154c0.119,0.178,0.267,0.34,0.397,0.508
				c0.043,0.048,0.104,0.007,0.144,0.078c0.231,0.271,0.451,0.611,0.707,0.772c0.024,0.113-0.05,0.229,0.051,0.344
				c0.229,0.229,0.479,0.345,0.75,0.349c-0.063,0.063,0.033,0.129,0.08,0.191c0.126,0.067,0.598,0.224,0.349,0.422
				c-0.021-0.021-0.073-0.013-0.048,0.039C265.133,111.108,265.205,111.333,265.33,111.509z M256.863,86.749
				c0.305-0.004,0.146,0.426,0.356,0.638C256.919,87.195,257.062,87.132,256.863,86.749z M257.583,87.171
				c0.146-0.128-0.063-0.152-0.099-0.355l0.162-0.075c0.065,0.208,0.047,0.226,0.172,0.373
				C257.715,87.182,257.664,87.151,257.583,87.171z"/>
		</g>
	</g>
</g>
<g>
	<g>
		<g>
			<path fill="#FF553E" d="M555.119,228.468c0.157,0.011,0.229-0.063,0.313-0.006c0.021,0.061-0.103,0.108-0.143,0.164
				c0.309,0.049,0.347,0.262,0.434,0.401c0.316-0.003,0.341,0.191,0.627,0.218c0.004-0.104,0.033,0.014,0.12-0.009
				c0.053-0.041,0.078-0.084,0.149-0.124c0.027,0.055,0.127,0.061,0.314,0.007c-0.031-0.042-0.149-0.055,0.026-0.114
				c0.156,0,0.18,0.092,0.285,0.123c0.016-0.043-0.005-0.093,0.15-0.123c-0.024,0.071,0.208-0.022,0.146,0.071
				c0.786,0.007,1.503,0.077,2.544-0.061c0.317-0.086,0.558-0.113,0.823-0.165c0.479-0.138,1.074-0.341,1.363-0.464
				c0.059-0.023,0.156-0.043,0.229-0.076c0.102-0.051,0.177-0.139,0.26-0.188c0.104-0.063,0.238-0.114,0.32-0.181
				c0.034-0.094,0.201-0.168,0.235-0.265c0.165-0.021,0.104-0.075,0.22-0.104c0.045-0.063,0.07-0.129,0.197-0.18
				c0.308-0.705,0.273-1.479,0.417-2.234c-0.069-0.264-0.069-0.426-0.084-0.715c-0.22-0.323-0.339-0.832-0.257-1.18
				c-0.021-0.036-0.15,0.03-0.144-0.031c-0.067-0.771-0.156-1.38-0.488-2.209c0.238-0.476-0.063-0.941-0.291-1.366
				c-0.271-0.153-0.401-0.442-0.646-0.542c-0.063-0.229-0.189-0.411-0.217-0.73c-0.234-0.254-0.311-0.5-0.5-0.766
				c0.139-0.363,0.23-0.759,0.122-1.131c-0.117-0.394-0.377-0.513-0.387-0.796c0.104-0.048,0.104-0.085,0.202-0.132
				c-0.024-0.183-0.137-0.353-0.08-0.539c-0.134-0.315-0.201-0.404-0.382-0.728c-0.317-0.257-0.613-0.644-1.097-0.804
				c-0.049-0.144-0.254-0.106-0.28-0.274c-0.063,0.026-0.073-0.004-0.086-0.033c-0.107,0.022-0.208,0.04-0.31,0.056
				c-0.054-0.063-0.147-0.075-0.162-0.18c-0.135,0.013-0.17,0.092-0.255,0.157c-0.075-0.022-0.243,0.058-0.235-0.063
				c-0.141,0.106-0.363,0.225-0.531,0.274c0.021,0.059,0.046,0.113-0.104,0.188c0.069-0.077-0.027-0.107-0.118-0.097
				c0.063,0.052-0.058,0.123,0.021,0.173c-0.183,0.069-0.082,0.11-0.183,0.173c0.063,0.081,0.092,0.165-0.127,0.276
				c-0.063-0.046-0.021-0.216-0.161-0.183c0.04,0.038,0.028,0.086-0.063,0.142c-0.063-0.041-0.179-0.021-0.235-0.063
				c-0.111-0.063,0.035-0.23-0.118-0.229c-0.298,0.135-0.107,0.217-0.229,0.332c0.119-0.014-0.016,0.055,0.054,0.104
				c-0.029,0.063,0.063,0.111-0.104,0.188c-0.045-0.02,0.009-0.143-0.105-0.076c-0.044-0.026,0.007-0.162-0.16-0.049
				c-0.086,0.118,0.038,0.258,0.023,0.305c-0.01-0.058-0.166,0.059-0.192,0.021c-0.062-0.004-0.09-0.15-0.056-0.233
				c-0.165,0.102-0.191,0.203-0.234,0.069c-0.315,0.166-0.076,0.271-0.315,0.429c0-0.103-0.114-0.063-0.142-0.14
				c-0.199,0.103-0.146,0.039-0.146-0.026c-0.188,0.112-0.116,0.339-0.371,0.326c0.091,0.063-0.009,0.146-0.084,0.229
				c-0.059-0.025-0.006-0.172-0.129-0.117c0.007,0.027,0.01,0.061-0.087,0.1c-0.156,0.016-0.238-0.121-0.192-0.242
				c-0.257,0.16-0.058,0.271-0.063,0.398c-0.063,0.037-0.122,0.07-0.086,0.1c-0.021,0.167,0.039,0.188,0.048,0.346
				c0.063-0.028,0.147-0.082,0.172-0.063c-0.22,0.072-0.071,0.109-0.243,0.18c-0.109-0.102-0.22-0.135-0.304-0.315
				c-0.11,0-0.103,0.155-0.311,0.188c-0.009-0.059-0.051-0.074-0.107-0.076c-0.112-0.022,0.071-0.237-0.13-0.116
				c0.032,0.103,0.168,0.188-0.039,0.313c-0.154,0.014-0.094-0.228-0.29-0.166c0.063,0.03-0.188,0.207,0.015,0.149
				c-0.018-0.021-0.002-0.063,0.043-0.05c0.126,0.022,0.045,0.179,0.044,0.216c-0.071,0.055-0.288,0.117-0.256,0.158
				c0.074-0.035,0.084,0.023-0.031,0.068c0.008,0.036,0.062,0.065-0.01,0.108c0.017-0.065-0.28,0.063-0.107-0.074l-0.087-0.165
				c-0.011-0.028,0.054-0.064,0.021-0.093c-0.058-0.024-0.008-0.17-0.133-0.114c0.065,0.095-0.012,0.204,0.092,0.297
				c-0.063,0.058-0.075,0.108-0.185,0.173l0.059,0.104c-0.228,0.127-0.104,0.218-0.232,0.332c0.016,0.037,0.046,0.061,0.097,0.058
				c-0.063,0.036-0.122,0.069-0.085,0.097c0.077,0.255,0.042,0.427,0.123,0.622c0.014,0.035-0.128,0.087-0.073,0.117
				c0.013,0.108,0.15,0.067,0.161,0.18c-0.197,0.063-0.156,0.088-0.242,0.182c-0.039-0.064-0.102-0.287-0.177-0.332
				c0.033,0.479,0.313,0.934,0.396,1.403c0.064-0.021,0.132-0.04,0.182-0.04c-0.228,0.073,0.028,0.098-0.116,0.165
				c0.041,0.063,0.204,0.063,0.046,0.214c0.226-0.062,0.077,0.135,0.218,0.15c0.021,0.042-0.134,0.104-0.063,0.141
				c0.161,0.137,0.078,0.336,0.085,0.438c0.02,0.18,0.17,0.28,0.207,0.434c0.011,0.039-0.063,0.104-0.061,0.15
				c0.003,0.028,0.093,0.041,0.101,0.069c0.043,0.166-0.026,0.342,0.027,0.474c0.538,0.553,0.515,1.299,1.222,1.71
				c-0.096,0.041-0.134,0.078-0.146,0.111c0.271-0.028-0.005,0.347,0.459,0.172c-0.086,0.146,0.22,0.146,0.125,0.314
				c0.063-0.021,0.152-0.067,0.175-0.052c-0.063,0.031-0.158,0.063-0.158,0.093c0.141-0.031,0.037,0.162,0.229,0.088
				c-0.174,0.053-0.015,0.119-0.019,0.123c-0.012,0.056-0.057,0.116,0.056,0.142c-0.063,0.067-0.064,0.139-0.048,0.205
				c-0.003,0.024-0.049,0.055-0.095,0.084c0.113,0.098-0.092,0.44,0.021,0.541c-0.134,0.044-0.039,0.077-0.146,0.124l0.047,0.115
				c-0.293,0.519-0.405,1.104-0.418,1.531l0.047,0.114c0.009,0.023-0.063,0.053-0.038,0.077l0.069,0.248
				c0.01,0.021,0.08,0.002,0.073,0.038c0.047,0.134,0.048,0.302,0.17,0.383c-0.039,0.056-0.158,0.109-0.143,0.168
				c0.067,0.109,0.209,0.172,0.428,0.18c-0.084,0.029-0.039,0.063-0.034,0.095c0.064,0.034,0.367,0.125,0.061,0.211
				c-0.002-0.011-0.053-0.008-0.058,0.021C555.166,228.274,555.11,228.383,555.119,228.468z M555.574,215.172
				c0.276-0.067,0.068,0.228,0.228,0.308C555.559,215.429,555.695,215.361,555.574,215.172z M556.163,215.263
				c0.154-0.11-0.032-0.077-0.034-0.192l0.16-0.082c0.028,0.108,0.008,0.125,0.102,0.188
				C556.28,215.24,556.238,215.233,556.163,215.263z"/>
		</g>
	</g>
</g>
<g>
	<g>
		<g>
			<path fill="#394CD3" d="M428.109,287.608c0.079,0.147,0.197,0.127,0.183,0.27c-0.056,0.082-0.18,0.029-0.263,0.059
				c0.116,0.322-0.096,0.59-0.206,0.826c0.188,0.289-0.038,0.515,0.077,0.793c0.129-0.107,0.003,0.045,0.074,0.1
				c0.074,0.002,0.143-0.02,0.227,0.005c-0.051,0.081-0.008,0.18,0.152,0.289c0.035-0.072-0.012-0.189,0.154-0.097
				c0.082,0.14-0.021,0.256-0.006,0.389c0.063-0.036,0.108-0.104,0.229,0.002c-0.104,0.06,0.137,0.16-0.018,0.211
				c0.394,0.718,0.661,1.448,1.347,2.261c0.265,0.197,0.416,0.387,0.612,0.576c0.404,0.287,0.954,0.609,1.255,0.734
				c0.062,0.026,0.133,0.096,0.211,0.121c0.11,0.036,0.261,0.004,0.366,0.021c0.139,0.021,0.268,0.092,0.391,0.092
				c0.139-0.078,0.315-0.014,0.458-0.094c0.105,0.127,0.148,0.006,0.244,0.077c0.104-0.032,0.202-0.088,0.33-0.028
				c1.06-0.563,1.984-1.588,2.899-2.494c0.262-0.424,0.44-0.646,0.727-1.071c0.212-0.663,0.638-1.499,1.046-1.944
				c0.023-0.067-0.127-0.095-0.057-0.179c0.385-0.599,0.682-1.158,0.946-1.767c0.288-0.604,0.508-1.265,0.721-2.063
				c0.577-0.52,0.649-1.551,0.776-2.428c-0.129-0.488-0.021-1.086-0.147-1.461c0.113-0.434,0.101-0.842,0.27-1.389
				c-0.04-0.623,0.028-1.093-0.017-1.688c0.299-0.482,0.588-1.062,0.626-1.767c0.049-0.748-0.127-1.154-0.05-1.636
				c0.111,0.005,0.13-0.062,0.234-0.062c0.039-0.345-0.005-0.745,0.111-1.04c-0.012-0.688-0.079-0.896-0.162-1.625
				c-0.229-0.7-0.488-1.697-0.949-2.364c-0.024-0.316-0.241-0.378-0.243-0.661c-0.068,0.011-0.076-0.05-0.082-0.104
				c-0.117-0.023-0.223-0.063-0.326-0.102c-0.044-0.132-0.142-0.21-0.14-0.386c-0.141-0.063-0.188,0.043-0.286,0.103
				c-0.073-0.086-0.259-0.062-0.23-0.242c-0.159,0.086-0.406,0.136-0.588,0.117c0.014,0.104,0.027,0.207-0.138,0.231
				c0.084-0.082-0.015-0.188-0.105-0.227c0.055,0.119-0.077,0.16-0.004,0.289c-0.194,0.004-0.103,0.127-0.211,0.166
				c0.054,0.168,0.067,0.316-0.173,0.362c-0.063-0.11,0.008-0.354-0.139-0.386c0.033,0.087,0.018,0.151-0.087,0.186
				c-0.058-0.104-0.181-0.14-0.229-0.242c-0.105-0.174,0.07-0.354-0.089-0.438c-0.323,0.033-0.146,0.277-0.289,0.391
				c0.125,0.055-0.021,0.077,0.04,0.195c-0.041,0.08,0.044,0.214-0.138,0.234c-0.045-0.052,0.025-0.22-0.101-0.188
				c-0.04-0.067,0.03-0.256-0.157-0.176c-0.104,0.14,0,0.437-0.021,0.5c-0.001-0.096-0.18-0.01-0.199-0.084
				c-0.063-0.044-0.068-0.298-0.021-0.406c-0.186,0.058-0.229,0.206-0.25-0.03c-0.354,0.067-0.119,0.386-0.392,0.489
				c0.015-0.157-0.11-0.178-0.123-0.308c-0.22,0.039-0.16-0.027-0.148-0.136c-0.207,0.067-0.171,0.47-0.432,0.293
				c0.084,0.156-0.027,0.229-0.121,0.313c-0.051-0.073,0.021-0.272-0.113-0.268c0.004,0.05,0.002,0.097-0.104,0.104
				c-0.164-0.069-0.229-0.339-0.161-0.505c-0.288,0.102-0.101,0.396-0.124,0.604c-0.068,0.019-0.138,0.039-0.104,0.103
				c-0.053,0.251,0.012,0.323-0.006,0.579c0.068-0.008,0.165-0.04,0.186,0.004c-0.232-0.012-0.093,0.135-0.276,0.142
				c-0.099-0.229-0.2-0.349-0.263-0.689c-0.114-0.063-0.127,0.189-0.347,0.109c0-0.098-0.039-0.149-0.1-0.188
				c-0.113-0.106,0.107-0.339-0.114-0.268c0.02,0.178,0.145,0.397-0.088,0.473c-0.163-0.072-0.063-0.416-0.271-0.438
				c0.063,0.09-0.227,0.215-0.012,0.25c-0.012-0.043,0.007-0.106,0.052-0.056c0.126,0.113,0.021,0.313,0.015,0.369
				c-0.081,0.039-0.313,0.019-0.285,0.103c0.081-0.017,0.081,0.088-0.044,0.09c0.003,0.063,0.052,0.144-0.026,0.173
				c0.026-0.102-0.297-0.072-0.099-0.188l-0.063-0.315c-0.007-0.051,0.063-0.069,0.035-0.131c-0.053-0.074,0.021-0.274-0.114-0.27
				c0.054,0.192-0.043,0.322,0.046,0.528c-0.07,0.056-0.096,0.13-0.211,0.166l0.039,0.197c-0.248,0.063-0.139,0.28-0.289,0.39
				c0.011,0.069,0.038,0.12,0.092,0.146c-0.069,0.02-0.138,0.038-0.104,0.104c0.047,0.461-0.06,0.639-0.021,0.973
				c0.003,0.059-0.146,0.057-0.104,0.123c-0.021,0.158,0.132,0.184,0.113,0.339c-0.213-0.024-0.18,0.03-0.286,0.111
				c-0.021-0.111-0.023-0.446-0.086-0.549c-0.077,0.658,0.05,1.468-0.02,2.186c0.07,0.015,0.142,0.025,0.188,0.06
				c-0.241-0.037-0.004,0.156-0.166,0.158c0.016,0.105,0.165,0.217-0.039,0.321c0.229,0.062,0.021,0.237,0.145,0.351
				c0.004,0.068-0.16,0.057-0.108,0.146c0.095,0.287-0.043,0.522-0.078,0.684c-0.063,0.271,0.039,0.525,0.015,0.771
				c-0.01,0.065-0.104,0.106-0.117,0.177c-0.011,0.05,0.066,0.126,0.063,0.179c-0.021,0.271-0.181,0.465-0.189,0.688
				c0.107,0.585,0.063,1.146,0.003,1.676c-0.031,0.541-0.084,1.058,0.063,1.607c-0.104-0.02-0.155,0.002-0.188,0.039
				c0.235,0.17-0.204,0.477,0.268,0.602c-0.167,0.14,0.069,0.383-0.11,0.537c0.064,0.021,0.168,0.029,0.168,0.07
				c-0.069-0.01-0.164-0.041-0.185-0.004c0.13,0.074-0.079,0.256,0.12,0.309c-0.169-0.069-0.089,0.154-0.095,0.156
				c-0.043,0.063-0.121,0.115-0.058,0.234c-0.104,0.037-0.153,0.127-0.188,0.229c-0.021,0.033-0.078,0.033-0.134,0.035
				c0.011,0.224-0.396,0.511-0.388,0.729c-0.13-0.053-0.087,0.072-0.197,0.044l-0.063,0.188c-0.315,0.207-0.615,0.469-0.88,0.741
				c-0.271,0.269-0.531,0.535-0.725,0.783l-0.072,0.172c-0.019,0.037-0.087,0.01-0.091,0.063c-0.052,0.125-0.12,0.24-0.181,0.36
				c-0.016,0.037,0.053,0.072,0.015,0.109c-0.094,0.202-0.245,0.405-0.239,0.61c-0.075,0.033-0.199-0.004-0.24,0.081
				c-0.071,0.188-0.051,0.378,0.07,0.579c-0.078-0.04-0.086,0.037-0.114,0.076c0.005,0.1,0.094,0.473-0.177,0.299
				c0.011-0.016-0.021-0.057-0.052-0.031C428.332,287.427,428.19,287.502,428.109,287.608z M436.202,269.229
				c0.295,0.054,0.036,0.397,0.188,0.623C436.149,269.629,436.299,269.601,436.202,269.229z M436.792,269.73
				c0.177-0.085-0.021-0.146-0.005-0.329l0.178-0.035c0.014,0.192-0.014,0.203,0.07,0.356
				C436.915,269.767,436.875,269.726,436.792,269.73z"/>
		</g>
	</g>
</g>
<g>
	<g>
		<g>
			<path fill="#EBEDE4" d="M413.808,243.701c-0.146-0.107-0.232-0.007-0.296-0.171c0-0.125,0.131-0.158,0.188-0.244
				c-0.272-0.271-0.24-0.702-0.275-1.03c-0.305-0.162-0.259-0.558-0.521-0.742c-0.038,0.199-0.03-0.043-0.119-0.043
				c-0.063,0.056-0.104,0.123-0.186,0.16c-0.012-0.112-0.104-0.176-0.297-0.166c0.019,0.099,0.123,0.181-0.063,0.205
				c-0.149-0.074-0.142-0.258-0.23-0.367c-0.025,0.076-0.024,0.175-0.185,0.158c0.047-0.123-0.206-0.052-0.116-0.201
				c-0.743-0.375-1.398-0.806-2.438-0.979c-0.332,0.021-0.564-0.021-0.84-0.04c-0.498,0.044-1.133,0.148-1.444,0.236
				c-0.063,0.018-0.163,0.011-0.241,0.039c-0.109,0.039-0.209,0.146-0.305,0.193c-0.122,0.063-0.27,0.088-0.363,0.153
				c-0.063,0.131-0.245,0.183-0.31,0.313c-0.162-0.028-0.121,0.074-0.241,0.074c-0.063,0.076-0.106,0.166-0.243,0.192
				c-0.513,0.924-0.722,2.043-1.094,3.047c-0.019,0.402-0.066,0.631-0.146,1.039c0.105,0.56,0.074,1.324-0.184,1.785
				c0.002,0.063,0.149,0.037,0.113,0.123c-0.279,1.139-0.473,2.043-0.543,3.4c-0.429,0.506-0.365,1.338-0.354,2.064
				c0.18,0.403,0.129,0.928,0.294,1.244c-0.063,0.379-0.044,0.737-0.188,1.218c0.071,0.54,0.014,0.95,0.042,1.476
				c-0.309,0.428-0.589,0.92-0.685,1.531c-0.097,0.648,0.058,1.021-0.065,1.426c-0.111-0.014-0.135,0.043-0.239,0.034
				c-0.067,0.288-0.062,0.634-0.2,0.87c-0.044,0.578-0.024,0.771-0.033,1.396c0.149,0.639,0.217,1.455,0.553,2.08
				c-0.028,0.254,0.166,0.365,0.104,0.64c0.068,0.009,0.063,0.063,0.058,0.121c0.107,0.048,0.199,0.106,0.297,0.165
				c0.015,0.136,0.091,0.229,0.052,0.398c0.123,0.088,0.191-0.002,0.302-0.033c0.054,0.098,0.238,0.107,0.173,0.281
				c0.177-0.05,0.429-0.044,0.604,0.016c0.009-0.104,0.017-0.205,0.186-0.195c-0.102,0.062-0.029,0.188,0.056,0.24
				c-0.024-0.127,0.11-0.141,0.064-0.277c0.19,0.039,0.127-0.102,0.242-0.112c-0.016-0.174,0.004-0.32,0.248-0.313
				c0.034,0.122-0.085,0.342,0.051,0.398c-0.017-0.094,0.02-0.148,0.123-0.155c0.032,0.108,0.146,0.169,0.175,0.28
				c0.063,0.188-0.146,0.32-0.012,0.438c0.323,0.037,0.204-0.234,0.366-0.312c-0.108-0.078,0.038-0.07,0.006-0.198
				c0.059-0.067,0.003-0.214,0.186-0.194c0.031,0.06-0.074,0.204,0.058,0.2c0.022,0.075-0.088,0.237,0.113,0.2
				c0.136-0.107,0.098-0.414,0.132-0.478c-0.021,0.095,0.174,0.05,0.18,0.123c0.052,0.06,0.002,0.304-0.068,0.396
				c0.191-0.017,0.27-0.15,0.236,0.085c0.355,0.007,0.202-0.347,0.489-0.39c-0.052,0.147,0.066,0.19,0.053,0.318
				c0.224,0.011,0.147,0.063,0.115,0.161c0.22-0.021,0.271-0.413,0.482-0.188c-0.047-0.168,0.079-0.216,0.188-0.273
				c0.031,0.083-0.081,0.26,0.054,0.279c0.008-0.049,0.021-0.095,0.121-0.076c0.146,0.104,0.146,0.373,0.049,0.519
				c0.302-0.031,0.184-0.355,0.253-0.553c0.072-0.002,0.145-0.008,0.122-0.076c0.104-0.229,0.063-0.313,0.133-0.555
				c-0.068-0.009-0.17,0.004-0.18-0.043c0.227,0.063,0.118-0.107,0.303-0.074c0.045,0.237,0.12,0.377,0.104,0.719
				c0.099,0.092,0.165-0.15,0.357-0.027c-0.021,0.092,0.009,0.148,0.06,0.198c0.087,0.13-0.185,0.302,0.053,0.278
				c0.021-0.175-0.052-0.414,0.189-0.435c0.145,0.104-0.031,0.412,0.169,0.479c-0.041-0.101,0.269-0.157,0.063-0.234
				c0.002,0.041-0.029,0.102-0.063,0.036c-0.1-0.136,0.051-0.304,0.067-0.354c0.089-0.021,0.312,0.054,0.303-0.033
				c-0.083-0.005-0.063-0.103,0.063-0.078c0.013-0.06-0.02-0.146,0.063-0.154c-0.05,0.088,0.271,0.133,0.056,0.196l-0.009,0.318
				c-0.004,0.051-0.077,0.054-0.063,0.117c0.032,0.084-0.079,0.261,0.056,0.278c-0.012-0.192,0.11-0.3,0.07-0.517
				c0.081-0.039,0.12-0.104,0.243-0.115l0.004-0.195c0.257-0.013,0.195-0.24,0.366-0.313c0.008-0.068-0.012-0.124-0.057-0.161
				c0.071-0.002,0.144-0.008,0.122-0.075c0.06-0.44,0.177-0.67,0.203-1.028c0.008-0.063,0.152-0.027,0.123-0.115
				c0.047-0.174-0.098-0.229-0.052-0.4c0.202,0.07,0.183,0,0.303-0.069c0,0.131-0.06,0.511-0.017,0.638
				c0.211-0.744,0.191-1.646,0.355-2.42c-0.069-0.021-0.136-0.046-0.18-0.084c0.233,0.064,0.024-0.173,0.186-0.155
				c-0.005-0.123-0.146-0.259,0.067-0.354c-0.225-0.091-0.002-0.268-0.109-0.398c0.003-0.079,0.165-0.047,0.124-0.156
				c-0.066-0.325,0.096-0.582,0.145-0.749c0.08-0.295,0.001-0.586,0.047-0.853c0.014-0.072,0.108-0.114,0.131-0.189
				c0.016-0.053-0.059-0.143-0.05-0.192c0.05-0.301,0.2-0.517,0.224-0.771c-0.179-1.313,0.23-2.484-0.162-3.693
				c0.104,0.01,0.154-0.021,0.187-0.064c-0.246-0.154,0.164-0.574-0.324-0.651c0.146-0.186-0.127-0.43,0.033-0.643
				c-0.069-0.011-0.172-0.003-0.179-0.052c0.07-0.004,0.17,0.019,0.183-0.028c-0.139-0.063,0.043-0.313-0.162-0.331
				c0.178,0.048,0.064-0.192,0.07-0.197c0.035-0.08,0.104-0.157,0.017-0.278c0.094-0.068,0.124-0.187,0.139-0.313
				c0.016-0.045,0.067-0.062,0.124-0.074c-0.059-0.254,0.286-0.697,0.229-0.953c0.14,0.021,0.072-0.111,0.188-0.107l0.014-0.242
				c0.501-0.688,0.88-1.674,1.093-2.447l0.015-0.239c0.007-0.054,0.08-0.054,0.064-0.119l0.017-0.532
				c-0.002-0.056-0.075-0.063-0.06-0.125c-0.002-0.3,0.053-0.632-0.038-0.868c0.057-0.085,0.188-0.116,0.188-0.241
				c-0.027-0.267-0.146-0.478-0.348-0.629c0.091-0.006,0.06-0.099,0.063-0.164c-0.054-0.109-0.309-0.47,0.012-0.451
				c-0.001,0.021,0.048,0.049,0.063,0.002C413.698,244.06,413.789,243.879,413.808,243.701z M407.155,265.159
				c-0.274-0.114,0.053-0.391-0.044-0.638C407.297,264.788,407.142,264.783,407.155,265.159z M406.691,264.554
				c-0.19,0.043-0.017,0.146-0.068,0.313l-0.18-0.004c0.027-0.188,0.057-0.192,0.009-0.354
				C406.576,264.493,406.609,264.538,406.691,264.554z"/>
		</g>
	</g>
</g>
<g>
	<g>
		<g>
			<path fill="#394CD3" d="M353.052,289.406c0.189-0.005,0.188-0.148,0.352-0.052c0.083,0.107,0.005,0.221,0.02,0.329
				c0.395,0.06,0.658,0.456,0.912,0.721c0.366-0.044,0.58,0.339,0.905,0.372c-0.094-0.211,0.051,0.021,0.124-0.024
				c0.02-0.086,0.009-0.175,0.054-0.259c0.077,0.104,0.191,0.111,0.352-0.006c-0.073-0.084-0.215-0.104-0.074-0.233
				c0.171-0.013,0.274,0.172,0.427,0.23c-0.026-0.092-0.091-0.188,0.051-0.263c0.04,0.148,0.203-0.063,0.229,0.141
				c0.865-0.033,1.728,0.078,2.752-0.242c0.271-0.188,0.508-0.256,0.758-0.37c0.397-0.3,0.866-0.74,1.065-1.011
				c0.039-0.057,0.133-0.098,0.177-0.172c0.063-0.104,0.061-0.291,0.103-0.401c0.054-0.144,0.153-0.25,0.184-0.39
				c-0.059-0.201,0.057-0.363-0.002-0.565c0.159-0.052,0.036-0.168,0.139-0.23c-0.015-0.137-0.053-0.276,0.038-0.391
				c-0.395-1.496-1.354-3.052-2.189-4.488c-0.392-0.477-0.631-0.768-1.066-1.303c-0.355-0.271-0.748-0.627-1.102-0.998
				c-0.364-0.347-0.688-0.709-0.891-1.035c-0.076-0.061-0.138,0.084-0.218-0.028c-1.204-1.337-2.246-2.313-3.938-3.501
				c-0.428-0.8-1.543-1.385-2.486-1.932c-0.589-0.125-1.214-0.528-1.682-0.603c-0.441-0.323-0.896-0.526-1.431-0.974
				c-0.704-0.292-1.188-0.607-1.848-0.901c-0.395-0.537-0.884-1.104-1.596-1.551c-0.755-0.479-1.276-0.555-1.723-0.92
				c0.063-0.096,0.008-0.146,0.063-0.237c-0.328-0.24-0.758-0.447-0.987-0.726c-0.698-0.403-0.931-0.504-1.688-0.896
				c-0.857-0.264-1.824-0.694-2.715-0.774c-0.282-0.178-0.507-0.073-0.813-0.312c-0.041,0.058-0.104,0.017-0.173-0.026
				c-0.106,0.063-0.226,0.106-0.34,0.153c-0.17-0.075-0.319-0.069-0.508-0.216c-0.165,0.053-0.089,0.173-0.1,0.289
				c-0.146-0.019-0.244,0.141-0.426-0.029c-0.021,0.188-0.146,0.405-0.293,0.522c0.119,0.072,0.24,0.146,0.151,0.291
				c-0.024-0.129-0.212-0.146-0.315-0.108c0.164,0.063,0.115,0.188,0.309,0.239c-0.139,0.146,0.063,0.178,0.023,0.29
				c0.217,0.102,0.392,0.212,0.269,0.424c-0.164-0.048-0.375-0.298-0.509-0.216c0.115,0.047,0.174,0.111,0.134,0.212
				c-0.148-0.043-0.272,0.02-0.425-0.03c-0.262-0.063-0.322-0.34-0.525-0.295c-0.193,0.265,0.191,0.334,0.207,0.529
				c0.146-0.047,0.068,0.079,0.239,0.133c0.057,0.097,0.258,0.144,0.149,0.291c-0.086-0.01-0.214-0.198-0.271-0.08
				c-0.104-0.026-0.249-0.231-0.299-0.028c0.068,0.188,0.462,0.354,0.518,0.426c-0.103-0.075-0.138,0.121-0.23,0.076
				c-0.091,0.01-0.364-0.191-0.447-0.317c-0.07,0.181,0.06,0.336-0.214,0.153c-0.175,0.313,0.324,0.403,0.243,0.688
				c-0.156-0.144-0.267-0.063-0.411-0.162c-0.114,0.188-0.146,0.094-0.25-0.003c-0.075,0.208,0.377,0.511,0.006,0.554
				c0.227,0.067,0.226,0.211,0.246,0.348c-0.115-0.024-0.277-0.24-0.363-0.137c0.056,0.039,0.104,0.078,0.037,0.156
				c-0.192,0.063-0.521-0.111-0.651-0.296c-0.102,0.289,0.353,0.396,0.555,0.585c-0.028,0.066-0.057,0.133,0.036,0.158
				c0.229,0.243,0.354,0.258,0.611,0.479c0.042-0.059,0.075-0.151,0.137-0.131c-0.182,0.158,0.074,0.174-0.052,0.314
				c-0.311-0.115-0.512-0.142-0.921-0.378c-0.151,0.025,0.11,0.247-0.128,0.341c-0.104-0.078-0.188-0.094-0.271-0.082
				c-0.196-0.006-0.281-0.355-0.364-0.135c0.201,0.133,0.525,0.224,0.438,0.45c-0.193,0.06-0.485-0.299-0.663-0.164
				c0.144,0.029,0.067,0.342,0.259,0.215c-0.053-0.026-0.105-0.096-0.021-0.079c0.211,0.002,0.346,0.239,0.401,0.293
				c-0.019,0.091-0.208,0.237-0.101,0.289c0.046-0.07,0.151,0.013,0.065,0.104c0.064,0.049,0.188,0.078,0.161,0.158
				c-0.085-0.102-0.287,0.156-0.271-0.082l-0.385-0.215c-0.062-0.037-0.026-0.104-0.113-0.132c-0.115-0.022-0.276-0.241-0.363-0.137
				c0.241,0.117,0.313,0.295,0.596,0.397c0.008,0.099,0.069,0.177,0.024,0.291l0.238,0.134c-0.105,0.233,0.201,0.332,0.207,0.528
				c0.081,0.05,0.155,0.07,0.223,0.056c-0.029,0.065-0.058,0.131,0.037,0.157c0.51,0.343,0.757,0.595,1.193,0.854
				c0.075,0.049-0.033,0.154,0.094,0.188c0.196,0.154,0.329,0.063,0.525,0.218c-0.181,0.139-0.08,0.161-0.044,0.317
				c-0.164-0.087-0.618-0.389-0.8-0.434c0.855,0.688,1.978,1.23,2.864,1.869c0.059-0.053,0.115-0.095,0.184-0.105
				c-0.188,0.168,0.198,0.129,0.108,0.262c0.151,0.071,0.382,0.031,0.406,0.283c0.207-0.146,0.325,0.164,0.538,0.146
				c0.098,0.053-0.016,0.18,0.14,0.209c0.432,0.143,0.67,0.445,0.857,0.594c0.335,0.25,0.732,0.354,1.049,0.561
				c0.085,0.058,0.097,0.168,0.183,0.232c0.061,0.045,0.203,0.033,0.268,0.072c0.354,0.228,0.549,0.496,0.854,0.672
				c1.697,0.646,2.925,1.742,4.505,2.184c-0.058,0.086-0.047,0.148-0.007,0.207c0.299-0.115,0.589,0.51,0.896,0.13
				c0.135,0.249,0.53,0.17,0.688,0.45c0.046-0.059,0.086-0.147,0.145-0.123c-0.032,0.063-0.104,0.138-0.059,0.18
				c0.136-0.081,0.318,0.238,0.441,0.074c-0.141,0.121,0.183,0.185,0.185,0.188c0.068,0.084,0.122,0.193,0.301,0.197
				c0.024,0.129,0.132,0.233,0.263,0.334c0.039,0.045,0.023,0.104,0.015,0.156c0.298,0.127,0.582,0.723,0.879,0.848
				c-0.097,0.104,0.078,0.139,0.018,0.23c0.083,0.059,0.161,0.116,0.236,0.18c0.41,0.909,1.149,1.896,1.691,2.635l0.212,0.188
				c0.043,0.042-0.004,0.102,0.063,0.138c0.157,0.132,0.302,0.271,0.438,0.411c0.043,0.039,0.099-0.012,0.14,0.055
				c0.237,0.229,0.47,0.521,0.726,0.639c0.03,0.104-0.035,0.223,0.063,0.316c0.229,0.185,0.45,0.277,0.716,0.26
				c-0.063,0.064,0.028,0.119,0.073,0.18c0.118,0.055,0.576,0.176,0.326,0.374c-0.018-0.021-0.068-0.009-0.046,0.039
				C352.871,289.045,352.937,289.25,353.052,289.406z M332.817,269.177c0.268-0.17,0.447,0.306,0.796,0.377
				C333.201,269.547,333.279,269.412,332.817,269.177z M333.769,269.16c0.034-0.193-0.171-0.104-0.354-0.266l0.088-0.156
				c0.215,0.146,0.21,0.18,0.434,0.238C333.893,269.099,333.824,269.099,333.769,269.16z"/>
		</g>
	</g>
</g>
<g>
	<g>
		<g>
			<path fill="#394CD3" d="M482.715,193.935c0.168-0.09,0.101-0.217,0.288-0.201c0.122,0.062,0.104,0.195,0.163,0.286
				c0.375-0.122,0.794,0.114,1.139,0.235c0.311-0.201,0.673,0.047,0.979-0.067c-0.177-0.147,0.058-0.002,0.103-0.08
				c-0.021-0.084-0.068-0.158-0.067-0.253c0.117,0.059,0.222,0.014,0.312-0.161c-0.104-0.042-0.233,0.005-0.172-0.176
				c0.147-0.087,0.324,0.026,0.484,0.017c-0.064-0.065-0.164-0.127-0.071-0.256c0.104,0.116,0.154-0.146,0.27,0.023
				c0.763-0.418,1.58-0.7,2.354-1.445c0.16-0.29,0.34-0.455,0.514-0.67c0.228-0.444,0.444-1.049,0.507-1.379
				c0.013-0.066,0.071-0.146,0.08-0.231c0.011-0.123-0.074-0.288-0.089-0.404c-0.019-0.149,0.024-0.293-0.014-0.431
				c-0.139-0.153-0.109-0.35-0.254-0.506c0.122-0.117-0.04-0.166,0.021-0.271c-0.071-0.113-0.171-0.227-0.142-0.363
				c-1.019-1.165-2.567-2.129-3.962-3.042c-0.562-0.253-0.905-0.406-1.536-0.689c-0.438-0.085-0.947-0.228-1.429-0.4
				c-0.481-0.146-0.937-0.328-1.258-0.528c-0.099-0.021-0.086,0.136-0.209,0.065c-1.675-0.658-3.041-1.065-5.084-1.379
				c-0.739-0.522-1.998-0.552-3.089-0.617c-0.581,0.148-1.321,0.063-1.771,0.211c-0.542-0.094-1.038-0.072-1.714-0.232
				c-0.763,0.053-1.332-0.016-2.056,0.017c-0.593-0.307-1.281-0.598-2.117-0.68c-0.892-0.09-1.395,0.075-1.951-0.055
				c0.015-0.113-0.06-0.136-0.049-0.242c-0.402-0.069-0.879-0.063-1.208-0.209c-0.81-0.049-1.06-0.034-1.909-0.048
				c-0.889,0.146-1.944,0.189-2.777,0.515c-0.331-0.031-0.484,0.159-0.862,0.086c-0.016,0.069-0.093,0.063-0.167,0.053
				c-0.068,0.105-0.152,0.195-0.233,0.289c-0.188,0.012-0.319,0.082-0.551,0.033c-0.125,0.119-0.003,0.193,0.04,0.305
				c-0.135,0.051-0.157,0.231-0.396,0.16c0.063,0.18,0.053,0.432-0.025,0.602c0.14,0.014,0.278,0.023,0.267,0.191
				c-0.081-0.104-0.255-0.039-0.332,0.043c0.174-0.021,0.188,0.117,0.381,0.08c-0.058,0.188,0.136,0.129,0.152,0.244
				c0.235-0.006,0.438,0.021,0.427,0.264c-0.168,0.027-0.468-0.102-0.551,0.033c0.126-0.013,0.205,0.022,0.214,0.131
				c-0.153,0.025-0.236,0.14-0.396,0.16c-0.265,0.06-0.438-0.16-0.604-0.025c-0.057,0.32,0.321,0.213,0.422,0.38
				c0.109-0.106,0.099,0.04,0.273,0.013c0.093,0.063,0.294,0.015,0.266,0.193c-0.081,0.027-0.28-0.084-0.277,0.047
				c-0.104,0.021-0.322-0.1-0.275,0.105c0.146,0.14,0.566,0.109,0.648,0.148c-0.126-0.021-0.065,0.17-0.174,0.172
				c-0.077,0.05-0.414-0.01-0.545-0.086c0.019,0.192,0.202,0.274-0.121,0.233c-0.017,0.355,0.474,0.218,0.524,0.507
				c-0.204-0.06-0.27,0.062-0.441,0.039c-0.019,0.222-0.087,0.146-0.225,0.106c0.021,0.221,0.563,0.286,0.251,0.491
				c0.229-0.04,0.294,0.089,0.375,0.198c-0.115,0.03-0.357-0.091-0.391,0.042c0.066,0.01,0.132,0.021,0.104,0.125
				c-0.146,0.142-0.521,0.131-0.716,0.023c0.039,0.306,0.489,0.196,0.756,0.275c0.003,0.072,0.01,0.146,0.104,0.125
				c0.314,0.115,0.434,0.073,0.766,0.156c0.012-0.07-0.002-0.171,0.063-0.179c-0.091,0.224,0.146,0.123,0.097,0.306
				c-0.327,0.034-0.521,0.104-0.99,0.073c-0.124,0.094,0.21,0.17,0.036,0.358c-0.126-0.022-0.212,0-0.276,0.048
				c-0.181,0.082-0.411-0.191-0.388,0.041c0.237,0.028,0.569-0.031,0.596,0.209c-0.147,0.142-0.567-0.051-0.666,0.147
				c0.139-0.036,0.212,0.273,0.325,0.076c-0.062-0.002-0.142-0.035-0.055-0.063c0.188-0.092,0.416,0.063,0.49,0.084
				c0.025,0.092-0.08,0.311,0.04,0.305c0.011-0.082,0.146-0.059,0.106,0.063c0.082,0.018,0.202-0.011,0.217,0.071
				c-0.121-0.053-0.188,0.268-0.277,0.046l-0.438-0.021c-0.07-0.009-0.072-0.078-0.161-0.066c-0.116,0.029-0.357-0.092-0.387,0.042
				c0.269-0.001,0.406,0.125,0.709,0.094c0.051,0.083,0.143,0.124,0.149,0.248l0.274,0.014c0.009,0.26,0.328,0.207,0.421,0.383
				c0.095,0.01,0.171-0.008,0.223-0.052c0.002,0.072,0.012,0.146,0.104,0.126c0.604,0.076,0.94,0.192,1.451,0.231
				c0.09,0.008,0.038,0.154,0.166,0.125c0.245,0.051,0.318-0.092,0.564-0.041c-0.1,0.203,0,0.182,0.104,0.305
				c-0.188-0.004-0.729-0.067-0.906-0.028c1.07,0.229,2.316,0.225,3.396,0.396c0.026-0.068,0.063-0.134,0.113-0.177
				c-0.094,0.231,0.236,0.023,0.215,0.186c0.17-0.005,0.355-0.143,0.49,0.071c0.121-0.224,0.365,0.002,0.55-0.104
				c0.108,0.002,0.065,0.164,0.218,0.125c0.446-0.064,0.8,0.104,1.031,0.146c0.411,0.075,0.816-0.009,1.188,0.034
				c0.101,0.012,0.159,0.104,0.266,0.128c0.072,0.014,0.197-0.063,0.271-0.052c0.417,0.043,0.711,0.194,1.063,0.22
				c1.812-0.179,3.396,0.257,5.006-0.056c-0.013,0.104,0.025,0.154,0.087,0.188c0.219-0.234,0.757,0.192,0.859-0.283
				c0.229,0.163,0.551-0.084,0.813,0.1c0.018-0.068,0.013-0.172,0.069-0.174c0,0.068-0.025,0.168,0.03,0.187
				c0.084-0.134,0.395,0.071,0.43-0.131c-0.068,0.171,0.244,0.084,0.248,0.089c0.103,0.045,0.196,0.12,0.355,0.043
				c0.081,0.104,0.223,0.152,0.384,0.185c0.056,0.021,0.067,0.077,0.083,0.137c0.321-0.021,0.843,0.387,1.163,0.363
				c-0.039,0.137,0.132,0.088,0.116,0.2c0.101,0.015,0.196,0.031,0.292,0.054c0.771,0.633,1.876,1.188,2.688,1.604l0.271,0.07
				c0.058,0.02,0.041,0.092,0.119,0.094c0.196,0.047,0.39,0.105,0.572,0.174c0.058,0.017,0.081-0.053,0.146-0.014
				c0.313,0.096,0.648,0.256,0.933,0.248c0.074,0.08,0.065,0.214,0.199,0.254c0.289,0.061,0.528,0.05,0.758-0.084
				c-0.022,0.086,0.079,0.093,0.146,0.125c0.131-0.006,0.595-0.103,0.459,0.188c-0.022-0.011-0.065,0.023-0.022,0.057
				C482.39,193.691,482.539,193.847,482.715,193.935z M455.581,184.847c0.162-0.271,0.537,0.066,0.881-0.021
				C456.092,185.004,456.103,184.85,455.581,184.847z M456.428,184.405c-0.059-0.188-0.197-0.019-0.438-0.081l0.008-0.179
				c0.261,0.036,0.271,0.063,0.493,0.021C456.511,184.293,456.45,184.323,456.428,184.405z"/>
		</g>
	</g>
</g>
<g>
	<g>
		
			<ellipse fill="none" stroke="#394CD3" stroke-width="2" stroke-linecap="round" stroke-linejoin="round" stroke-miterlimit="10" cx="35.181" cy="180.34" rx="10" ry="4"/>
		<path fill="none" stroke="#394CD3" stroke-width="2" stroke-linecap="round" stroke-linejoin="round" stroke-miterlimit="10" d="
			M45.181,180.34v6.666v-1.065v2.399c0,2.209-4.479,4-10,4s-10-1.791-10-4l0,0v-1.334v-6.666"/>
	</g>
	<g>
		
			<ellipse fill="none" stroke="#394CD3" stroke-width="2" stroke-linecap="round" stroke-linejoin="round" stroke-miterlimit="10" cx="85.181" cy="180.34" rx="10" ry="4"/>
		<path fill="none" stroke="#394CD3" stroke-width="2" stroke-linecap="round" stroke-linejoin="round" stroke-miterlimit="10" d="
			M95.181,180.34v6.666v-1.065v2.399c0,2.209-4.479,4-10,4s-10-1.791-10-4l0,0v-1.334v-6.666"/>
	</g>
	<g>
		
			<ellipse fill="none" stroke="#394CD3" stroke-width="2" stroke-linecap="round" stroke-linejoin="round" stroke-miterlimit="10" cx="60.306" cy="188.34" rx="10" ry="4"/>
		<path fill="none" stroke="#394CD3" stroke-width="2" stroke-linecap="round" stroke-linejoin="round" stroke-miterlimit="10" d="
			M70.306,188.34v6.668v-1.067v2.4c0,2.209-4.479,4-10,4s-10-1.791-10-4l0,0v-1.334v-6.668"/>
	</g>
	<g>
		
			<ellipse fill="none" stroke="#394CD3" stroke-width="2" stroke-linecap="round" stroke-linejoin="round" stroke-miterlimit="10" cx="60.306" cy="171.34" rx="10" ry="4"/>
		<path fill="none" stroke="#394CD3" stroke-width="2" stroke-linecap="round" stroke-linejoin="round" stroke-miterlimit="10" d="
			M70.306,171.34v6.666v-1.065v2.399c0,2.209-4.479,4-10,4s-10-1.791-10-4l0,0v-1.334v-6.666"/>
	</g>
	
		<polygon fill="none" stroke="#394CD3" stroke-width="2" stroke-linecap="round" stroke-linejoin="round" stroke-miterlimit="10" points="
		14.181,189.34 60.181,206.34 60.181,243.341 14.181,226.341 	"/>
	<g>
		
			<line fill="none" stroke="#394CD3" stroke-width="2" stroke-linecap="round" stroke-linejoin="round" stroke-miterlimit="10" x1="95.332" y1="186.357" x2="105.431" y2="190.09"/>
		
			<line fill="none" stroke="#394CD3" stroke-width="2" stroke-linecap="round" stroke-linejoin="round" stroke-miterlimit="10" x1="71.015" y1="177.34" x2="75.539" y2="179.043"/>
	</g>
	<g>
		
			<line fill="none" stroke="#394CD3" stroke-width="2" stroke-linecap="round" stroke-linejoin="round" stroke-miterlimit="10" x1="24.715" y1="185.258" x2="14.347" y2="189.09"/>
		
			<line fill="none" stroke="#394CD3" stroke-width="2" stroke-linecap="round" stroke-linejoin="round" stroke-miterlimit="10" x1="49.681" y1="177" x2="45.036" y2="178.75"/>
	</g>
	
		<polygon fill="none" stroke="#394CD3" stroke-width="2" stroke-linecap="round" stroke-linejoin="round" stroke-miterlimit="10" points="
		106.181,190.34 59.847,206.34 59.847,243.341 106.181,227.341 	"/>
	<path fill="none" stroke="#394CD3" stroke-width="2" stroke-linecap="round" stroke-linejoin="round" stroke-miterlimit="10" d="
		M60.181,243.341"/>
	<path fill="none" stroke="#394CD3" stroke-width="2" stroke-linecap="round" stroke-linejoin="round" stroke-miterlimit="10" d="
		M69.366,193.444"/>
</g>
<g>
	<polygon fill="#F7A328" points="255.333,257.804 247.145,254.806 244.485,253.823 209.25,240.72 163.333,257.804 163.333,293.804 
		209,311.674 209,311.805 209.167,311.74 209.333,311.805 209.333,311.676 255.333,293.804 	"/>
	<g>
		<g>
			<polyline fill="#FFB640" points="209,275.922 255.333,257.922 247.145,254.924 244.485,253.94 209.25,240.838 163.333,257.922 
				209,274.922 			"/>
			<line fill="none" x1="220.167" y1="244.804" x2="224.693" y2="246.508"/>
		</g>
		<path fill="#F7A328" d="M194.333,247.804v6.666v-1.064v2.398c0,2.209-4.479,4-10,4c-5.522,0-10-1.791-10-4l0,0v-1.334v-6.666"/>
	</g>
	<g>
		<path fill="#F7A328" d="M244.333,247.804v6.666v-1.064v2.398c0,2.209-4.479,4-10,4c-5.522,0-10-1.791-10-4l0,0v-1.334v-6.666"/>
	</g>
	<g>
		<path fill="#F7A328" d="M219.458,255.804v6.666v-1.064v2.398c0,2.209-4.479,4-10,4c-5.522,0-10-1.791-10-4l0,0v-1.334v-6.666"/>
	</g>
	<g>
		<path fill="#F7A328" d="M219.458,238.804v6.666v-1.064v2.398c0,2.209-4.479,4-10,4c-5.522,0-10-1.791-10-4l0,0v-1.334v-6.666"/>
	</g>
	<ellipse fill="#FFB640" cx="184.333" cy="247.804" rx="10" ry="4"/>
	<ellipse fill="#FFB640" cx="234.333" cy="247.804" rx="10" ry="4"/>
	<ellipse fill="#FFB640" cx="209.458" cy="255.804" rx="10" ry="4"/>
	<ellipse fill="#FFB640" cx="209.458" cy="238.804" rx="10" ry="4"/>
	<g>
		<line fill="none" x1="173.869" y1="253.722" x2="163.5" y2="257.554"/>
		<line fill="none" x1="198.833" y1="244.465" x2="194.187" y2="246.213"/>
	</g>
	<polygon fill="#FFB640" points="255.333,257.922 209,274.922 209,311.921 255.333,293.922 	"/>
	<path fill="#F7A328" d="M209.333,311.805"/>
	<path fill="#F7A328" d="M218.517,260.907"/>
</g>
<g>
	<g>
		<polygon fill="#EBEDE4" points="167.167,119.788 167.167,155.788 171.167,157.788 175.167,155.788 175.167,119.788 		"/>
		<polygon fill="#939390" points="171.167,157.788 167.167,155.788 167.167,131.788 167.167,115.788 171.167,115.788 		"/>
	</g>
	<path fill="#FF553E" d="M183.167,123.788c0,6.628-5.373,12-12,12l0,0c-6.629,0-12-5.372-12-12v-52c0-6.627,5.371-12,12-12l0,0
		c6.627,0,12,5.373,12,12V123.788z"/>
	<path fill="#FFB640" d="M159.167,103.788c0,6.628,5.371,12,12,12l0,0c6.627,0,12-5.372,12-12v-44c0-6.627-5.373-12-12-12l0,0
		c-6.629,0-12,5.373-12,12V103.788z"/>
	<path fill="#FFB640" d="M179.167,123.788c0,2.209-1.791,4-4,4l0,0c-2.209,0-4-1.791-4-4v-48c0-2.209,1.791-4,4-4l0,0
		c2.209,0,4,1.791,4,4V123.788z"/>
</g>
<path fill="none" stroke="#FF553E" stroke-width="8" stroke-miterlimit="10" d="M84.355,215.722
	c20.066-1.711,37.724,13.166,39.432,33.231c1.711,20.071-13.17,37.726-33.235,39.437"/>
<g>
	<g>
		<g>
			
				<ellipse fill="none" stroke="#FF553E" stroke-width="2" stroke-linejoin="round" stroke-miterlimit="10" cx="480.515" cy="90.756" rx="10" ry="4"/>
			<path fill="none" stroke="#FF553E" stroke-width="2" stroke-linejoin="round" stroke-miterlimit="10" d="M490.515,90.756v6.666
				v-1.065v2.399c0,2.209-4.479,4-10,4c-5.522,0-10-1.791-10-4l0,0v-1.334v-6.666"/>
		</g>
		<g>
			
				<ellipse fill="none" stroke="#FF553E" stroke-width="2" stroke-linejoin="round" stroke-miterlimit="10" cx="504.515" cy="98.756" rx="10" ry="4"/>
			<path fill="none" stroke="#FF553E" stroke-width="2" stroke-linejoin="round" stroke-miterlimit="10" d="M514.515,98.756v6.666
				v-1.065v2.399c0,2.209-4.479,4-10,4c-5.522,0-10-1.791-10-4l0,0v-1.334v-6.666"/>
		</g>
		<g>
			
				<ellipse fill="none" stroke="#FF553E" stroke-width="2" stroke-linejoin="round" stroke-miterlimit="10" cx="528.515" cy="106.756" rx="10" ry="4"/>
			<path fill="none" stroke="#FF553E" stroke-width="2" stroke-linejoin="round" stroke-miterlimit="10" d="M538.515,106.756v6.666
				v-1.065v2.399c0,2.209-4.479,4-10,4c-5.522,0-10-1.791-10-4l0,0v-1.334v-6.666"/>
		</g>
		<polygon fill="none" stroke="#FF553E" stroke-width="2" stroke-linejoin="round" stroke-miterlimit="10" points="454.515,98.756 
			531.515,125.756 531.515,165.756 454.515,137.756 		"/>
		
			<line fill="none" stroke="#FF553E" stroke-width="2" stroke-linejoin="round" stroke-miterlimit="10" x1="531.515" y1="125.756" x2="555.515" y2="117.756"/>
		<polyline fill="none" stroke="#FF553E" stroke-width="2" stroke-linejoin="round" stroke-miterlimit="10" points="538.699,111.86 
			555.515,117.756 555.515,157.756 531.515,165.756 		"/>
		
			<line fill="none" stroke="#FF553E" stroke-width="2" stroke-linejoin="round" stroke-miterlimit="10" x1="514.525" y1="103.381" x2="518.997" y2="104.951"/>
		
			<line fill="none" stroke="#FF553E" stroke-width="2" stroke-linejoin="round" stroke-miterlimit="10" x1="490.304" y1="94.889" x2="495.233" y2="96.617"/>
		
			<line fill="none" stroke="#FF553E" stroke-width="2" stroke-linejoin="round" stroke-miterlimit="10" x1="454.515" y1="98.756" x2="470.205" y2="93.527"/>
	</g>
	
		<line fill="none" stroke="#FF553E" stroke-width="2" stroke-linejoin="round" stroke-miterlimit="10" x1="552.515" y1="74.756" x2="552.515" y2="86.756"/>
	
		<line fill="none" stroke="#FF553E" stroke-width="2" stroke-linejoin="round" stroke-miterlimit="10" x1="588.515" y1="122.756" x2="600.515" y2="122.756"/>
	
		<line fill="none" stroke="#FF553E" stroke-width="2" stroke-linejoin="round" stroke-miterlimit="10" x1="580.515" y1="94.756" x2="588.998" y2="86.272"/>
</g>
<g>
	<g>
		<polygon fill="#CBCEBC" points="429.664,68.405 421.074,71.724 373.694,51.519 373.694,45.734 429.724,62.739 		"/>
		<polygon fill="#EBEDE4" points="381.68,42.549 429.724,62.739 421.074,65.938 373.331,45.734 		"/>
		<polygon fill="#ADAF9E" points="421.074,65.938 421.074,71.724 373.331,51.519 373.331,45.734 		"/>
	</g>
	<g>
		<polygon fill="#CBCEBC" points="419.186,72.556 410.595,75.875 363.216,55.671 363.216,49.885 419.247,66.89 		"/>
		<polygon fill="#EBEDE4" points="371.204,46.699 419.247,66.89 410.595,70.089 362.854,49.885 		"/>
		<polygon fill="#ADAF9E" points="410.595,70.089 410.595,75.875 362.854,55.671 362.854,49.885 		"/>
	</g>
	<g>
		<polygon fill="#243CB5" points="402.567,57.348 398.915,59.05 370.457,47.046 370.457,44.646 402.516,55.448 		"/>
		<polygon fill="#394CD3" points="374.058,43.445 402.516,55.448 399.29,56.901 370.457,44.646 		"/>
	</g>
	<g>
		<polygon fill="#CBCEBC" points="408.664,76.78 400.074,80.099 352.694,59.894 352.694,54.109 408.723,71.114 		"/>
		<polygon fill="#EBEDE4" points="360.68,50.924 408.723,71.114 400.074,74.313 352.331,54.109 		"/>
		<polygon fill="#ADAF9E" points="400.074,74.313 400.074,80.099 352.331,59.894 352.331,54.109 		"/>
	</g>
	<g>
		<polygon fill="#CBCEBC" points="398.185,80.931 389.594,84.25 342.216,64.046 342.216,58.26 398.247,75.265 		"/>
		<polygon fill="#EBEDE4" points="350.204,55.074 398.247,75.265 389.594,78.464 341.854,58.26 		"/>
		<polygon fill="#ADAF9E" points="389.594,78.464 389.594,84.25 341.854,64.046 341.854,58.26 		"/>
	</g>
	<g>
		<polygon fill="#243CB5" points="391.817,61.723 388.165,63.425 359.707,51.421 359.707,49.021 391.766,59.823 		"/>
		<polygon fill="#394CD3" points="363.308,47.82 391.766,59.823 388.54,61.276 359.707,49.021 		"/>
	</g>
	<g>
		<polygon fill="#CBCEBC" points="387.914,85.03 379.324,88.349 331.944,68.144 331.944,62.359 387.973,79.364 		"/>
		<polygon fill="#EBEDE4" points="339.93,59.174 387.973,79.364 379.324,82.563 331.581,62.359 		"/>
		<polygon fill="#ADAF9E" points="379.324,82.563 379.324,88.349 331.581,68.144 331.581,62.359 		"/>
	</g>
	<g>
		<polygon fill="#CBCEBC" points="377.435,89.181 368.844,92.5 321.466,72.296 321.466,66.51 377.497,83.515 		"/>
		<polygon fill="#EBEDE4" points="329.454,63.324 377.497,83.515 368.844,86.714 321.104,66.51 		"/>
		<polygon fill="#ADAF9E" points="368.844,86.714 368.844,92.5 321.104,72.296 321.104,66.51 		"/>
	</g>
	<g>
		<polygon fill="#243CB5" points="370.817,69.973 367.165,71.675 338.707,59.671 338.707,57.271 370.766,68.073 		"/>
		<polygon fill="#394CD3" points="342.308,56.07 370.766,68.073 367.54,69.526 338.707,57.271 		"/>
	</g>
	<g>
		<polygon fill="#243CB5" points="361.067,74.223 357.415,75.925 328.957,63.921 328.957,61.521 361.016,72.323 		"/>
		<polygon fill="#394CD3" points="332.558,60.32 361.016,72.323 357.79,73.776 328.957,61.521 		"/>
	</g>
	<g>
		<polygon fill="#CBCEBC" points="366.914,93.28 358.324,96.599 310.944,76.394 310.944,70.609 366.973,87.614 		"/>
		<polygon fill="#EBEDE4" points="318.93,67.424 366.973,87.614 358.324,90.813 310.581,70.609 		"/>
		<polygon fill="#ADAF9E" points="358.324,90.813 358.324,96.599 310.581,76.394 310.581,70.609 		"/>
	</g>
	<g>
		<polygon fill="#CBCEBC" points="356.435,97.431 347.844,100.75 300.466,80.546 300.466,74.76 356.497,91.765 		"/>
		<polygon fill="#EBEDE4" points="308.454,71.574 356.497,91.765 347.844,94.964 300.104,74.76 		"/>
		<polygon fill="#ADAF9E" points="347.844,94.964 347.844,100.75 300.104,80.546 300.104,74.76 		"/>
	</g>
	<g>
		<polygon fill="#243CB5" points="349.817,78.223 346.165,79.925 317.707,67.921 317.707,65.521 349.766,76.323 		"/>
		<polygon fill="#394CD3" points="321.308,64.32 349.766,76.323 346.54,77.776 317.707,65.521 		"/>
	</g>
	<g>
		<polygon fill="#CBCEBC" points="345.914,101.405 337.324,104.724 289.944,84.519 289.944,78.734 345.973,95.739 		"/>
		<polygon fill="#EBEDE4" points="297.93,75.549 345.973,95.739 337.324,98.938 289.581,78.734 		"/>
		<polygon fill="#ADAF9E" points="337.324,98.938 337.324,104.724 289.581,84.519 289.581,78.734 		"/>
	</g>
	<g>
		<polygon fill="#243CB5" points="328.817,86.348 325.165,88.05 296.707,76.046 296.707,73.646 328.766,84.448 		"/>
		<polygon fill="#394CD3" points="300.308,72.445 328.766,84.448 325.54,85.901 296.707,73.646 		"/>
	</g>
</g>
<g>
	<polygon fill="#FF553E" points="350.014,186.256 338.014,190.256 338.014,214.256 382.014,230.256 382.014,206.256 
		394.014,202.256 	"/>
	<polygon fill="#FF553E" points="382.014,206.256 394.014,202.256 394.014,226.256 382.014,230.256 	"/>
	<polygon fill="#E0402F" points="338.014,190.256 382.014,206.256 382.014,230.256 338.014,214.256 	"/>
	<polygon fill="#FF5D55" points="382.014,206.256 394.014,202.256 394.014,226.256 382.014,230.256 	"/>
</g>
</svg>
