<?xml version="1.0" encoding="utf-8"?>
<!-- Generator: Adobe Illustrator 16.0.0, SVG Export Plug-In . SVG Version: 6.00 Build 0)  -->
<!DOCTYPE svg PUBLIC "-//W3C//DTD SVG 1.1//EN" "http://www.w3.org/Graphics/SVG/1.1/DTD/svg11.dtd">
<svg version="1.1" xmlns="http://www.w3.org/2000/svg" xmlns:xlink="http://www.w3.org/1999/xlink" x="0px" y="0px" width="611px"
	 height="311.5px" viewBox="-2.146 -33.314 611 311.5" enable-background="new -2.146 -33.314 611 311.5" xml:space="preserve">
<g id="Layer_2">
	
		<radialGradient id="SVGID_1_" cx="360.6042" cy="37.6729" r="97.2676" gradientTransform="matrix(0.9814 -0.1918 0.1138 0.5824 2.4089 84.9096)" gradientUnits="userSpaceOnUse">
		<stop  offset="0.129" style="stop-color:#FFFFFF;stop-opacity:0.4"/>
		<stop  offset="0.8925" style="stop-color:#FFFFFF;stop-opacity:0"/>
	</radialGradient>
	<path fill="url(#SVGID_1_)" d="M256.854,4.186l35.5,40l139-16.5l32-43C463.354-15.314,341.354-81.814,256.854,4.186z"/>
</g>
<g id="Layer_1">
	
		<rect x="74.909" y="49.948" display="none" fill="none" stroke="#394CD3" stroke-width="2" stroke-miterlimit="10" width="407.998" height="239.727"/>
	<circle fill="#394CD3" cx="232.026" cy="87.948" r="12"/>
	<circle fill="#394CD3" cx="274.701" cy="189.071" r="5.525"/>
	<circle fill="#FF553E" cx="422.232" cy="144.474" r="5.525"/>
	<path fill="none" stroke="#EBEDE4" stroke-width="8" stroke-miterlimit="10" d="M193.539,146.168
		c-12.824,15.193-35.539,17.112-50.732,4.289c-15.191-12.826-17.111-35.541-4.287-50.732"/>
	<path fill="none" stroke="#394CD3" stroke-width="9" stroke-linejoin="round" stroke-miterlimit="10" d="M254.416,159.222
		c16.925-10.437,39.104-5.177,49.539,11.75c10.437,16.924,5.177,39.104-11.749,49.54"/>
	<path fill="none" stroke="#EBEDE4" stroke-width="8" stroke-miterlimit="10" d="M411.853,82.619
		c5.979,18.963-4.555,39.183-23.52,45.156c-18.963,5.976-39.183-4.555-45.156-23.519"/>
	<line fill="none" stroke="#EBEDE4" stroke-width="8" stroke-miterlimit="10" x1="3.208" y1="63.999" x2="29.208" y2="98.948"/>
	
		<line fill="none" stroke="#EBEDE4" stroke-width="8" stroke-miterlimit="10" x1="476.209" y1="222.415" x2="494.209" y2="198.413"/>
	<circle fill="#394CD3" cx="363.01" cy="90.454" r="9.348"/>
	<circle fill="#394CD3" cx="289.44" cy="117.183" r="17.232"/>
	<g>
		<g>
			<g>
				<path fill="#FF553E" d="M267.523,71.668c0.195,0.001,0.176-0.149,0.356-0.046c0.104,0.109,0.035,0.228,0.066,0.339
					c0.432,0.053,0.771,0.449,1.071,0.713c0.356-0.067,0.656,0.305,1.003,0.283c-0.143-0.2,0.06,0.018,0.121-0.047
					c-0.001-0.09-0.029-0.177-0.004-0.268c0.104,0.093,0.219,0.081,0.353-0.063c-0.092-0.068-0.234-0.064-0.122-0.22
					c0.171-0.04,0.313,0.122,0.475,0.155c-0.046-0.085-0.128-0.167-0.003-0.268c0.067,0.142,0.188-0.1,0.252,0.095
					c0.845-0.198,1.661-0.303,2.532-0.892c0.219-0.251,0.42-0.38,0.626-0.56c0.314-0.391,0.683-0.921,0.838-1.213
					c0.03-0.062,0.104-0.124,0.141-0.202c0.047-0.11,0.033-0.267,0.063-0.371c0.038-0.136,0.12-0.257,0.139-0.38
					c-0.058-0.148,0.035-0.316-0.021-0.463c0.142-0.093,0.028-0.147,0.113-0.23c-0.015-0.104-0.05-0.206,0.027-0.323
					c-0.341-1.088-1.063-2.082-1.479-3.191c-0.273-0.348-0.397-0.571-0.634-0.962c-0.482-0.389-0.998-1.063-1.104-1.616
					c-0.044-0.051-0.145,0.063-0.172-0.032c-0.546-1.152-1.055-1.987-1.839-3.25c0.021-0.702-0.56-1.395-1.036-2.03
					c-0.386-0.253-0.646-0.741-0.966-0.93c-0.171-0.37-0.395-0.678-0.556-1.179c-0.375-0.44-0.569-0.83-0.877-1.298
					c0.026-0.55,0.001-1.14-0.253-1.742c-0.268-0.642-0.618-0.889-0.712-1.337c0.104-0.043,0.097-0.104,0.194-0.148
					c-0.085-0.308-0.266-0.63-0.257-0.923c-0.247-0.57-0.355-0.742-0.661-1.338c-0.451-0.514-0.92-1.341-1.533-1.841
					c-0.103-0.275-0.332-0.306-0.414-0.613c-0.065,0.021-0.09-0.038-0.11-0.099c-0.122-0.002-0.232-0.023-0.35-0.041
					c-0.079-0.135-0.195-0.198-0.244-0.392c-0.155-0.038-0.175,0.086-0.255,0.167c-0.098-0.077-0.271-0.009-0.297-0.215
					c-0.135,0.126-0.361,0.232-0.545,0.25c0.042,0.109,0.088,0.218-0.067,0.283c0.062-0.105-0.064-0.204-0.169-0.225
					c0.087,0.118-0.031,0.19,0.078,0.314c-0.19,0.044-0.063,0.159-0.16,0.226c0.099,0.172,0.156,0.333-0.064,0.433
					c-0.094-0.11-0.096-0.391-0.244-0.391c0.06,0.088,0.06,0.161-0.033,0.217c-0.084-0.102-0.215-0.111-0.297-0.216
					c-0.152-0.168-0.028-0.396-0.209-0.455c-0.312,0.104-0.064,0.333-0.176,0.48c0.14,0.032,0.002,0.09,0.097,0.208
					c-0.02,0.095,0.104,0.221-0.068,0.282c-0.058-0.046-0.034-0.244-0.147-0.183c-0.062-0.066-0.041-0.283-0.204-0.156
					c-0.064,0.171,0.122,0.471,0.12,0.548c-0.028-0.104-0.181,0.025-0.224-0.049c-0.073-0.035-0.151-0.311-0.136-0.439
					c-0.165,0.102-0.165,0.272-0.257,0.019c-0.324,0.149-0.009,0.443-0.246,0.613c-0.028-0.175-0.156-0.167-0.205-0.307
					c-0.205,0.088-0.165,0.003-0.188-0.116c-0.186,0.118-0.034,0.545-0.341,0.408c0.126,0.152,0.037,0.257-0.028,0.366
					c-0.072-0.071-0.06-0.305-0.188-0.267c0.02,0.055,0.028,0.105-0.07,0.135c-0.182-0.043-0.317-0.32-0.302-0.516
					c-0.255,0.167,0.017,0.45,0.048,0.683c-0.063,0.034-0.123,0.07-0.068,0.133c0.021,0.283,0.103,0.35,0.155,0.63
					c0.067-0.023,0.151-0.078,0.185-0.034c-0.232,0.035-0.053,0.163-0.233,0.208c-0.159-0.225-0.296-0.335-0.451-0.696
					c-0.132-0.048-0.069,0.232-0.309,0.192c-0.027-0.104-0.082-0.155-0.149-0.183c-0.144-0.096,0.014-0.392-0.188-0.267
					c0.066,0.189,0.254,0.404,0.046,0.532c-0.182-0.046-0.178-0.439-0.394-0.423c0.087,0.086-0.161,0.281,0.062,0.273
					c-0.021-0.044-0.021-0.117,0.034-0.066c0.156,0.097,0.105,0.334,0.117,0.396c-0.068,0.061-0.306,0.081-0.254,0.167
					c0.076-0.029,0.104,0.079-0.018,0.107c0.021,0.065,0.089,0.146,0.021,0.19c-0.001-0.111-0.313-0.018-0.148-0.183l-0.152-0.332
					c-0.021-0.055,0.044-0.089-0.004-0.147c-0.069-0.071-0.057-0.306-0.188-0.267c0.104,0.197,0.05,0.358,0.193,0.564
					c-0.056,0.075-0.058,0.161-0.161,0.225l0.097,0.207c-0.227,0.124-0.057,0.335-0.176,0.482c0.027,0.073,0.069,0.124,0.131,0.141
					c-0.063,0.035-0.122,0.072-0.07,0.133c0.168,0.482,0.178,0.77,0.332,1.153c0.024,0.068-0.124,0.097-0.053,0.175
					c0.046,0.199,0.2,0.191,0.245,0.391c-0.218,0.019-0.162,0.081-0.233,0.208c-0.063-0.137-0.204-0.553-0.306-0.663
					c0.163,0.847,0.694,1.813,0.977,2.714c0.074-0.011,0.146-0.015,0.205,0.007c-0.247,0.035,0.071,0.193-0.078,0.251
					c0.073,0.129,0.271,0.209,0.14,0.413c0.246-0.01,0.146,0.283,0.317,0.375c0.042,0.085-0.119,0.128-0.021,0.226
					c0.241,0.318,0.234,0.665,0.306,0.864c0.114,0.352,0.366,0.619,0.494,0.923c0.034,0.082-0.022,0.175,0.007,0.267
					c0.021,0.063,0.14,0.121,0.165,0.183c0.146,0.339,0.15,0.645,0.293,0.925c0.95,1.297,1.46,2.726,2.578,3.757
					c-0.091,0.052-0.113,0.112-0.105,0.177c0.303,0.022,0.258,0.68,0.709,0.464c0.014,0.266,0.4,0.343,0.42,0.645
					c0.063-0.032,0.142-0.099,0.179-0.057c-0.057,0.044-0.146,0.084-0.126,0.137c0.152-0.022,0.183,0.327,0.359,0.224
					c-0.175,0.06,0.082,0.229,0.08,0.234c0.027,0.099,0.026,0.217,0.186,0.281c-0.025,0.123,0.026,0.254,0.106,0.388
					c0.021,0.052-0.015,0.1-0.047,0.147c0.224,0.212,0.259,0.854,0.48,1.066c-0.122,0.065,0.021,0.154-0.066,0.224l0.171,0.234
					c0.127,0.964,0.581,2.146,1.008,3.021l0.176,0.238c0.033,0.054-0.021,0.104,0.039,0.155c0.119,0.177,0.266,0.339,0.397,0.507
					c0.043,0.048,0.104,0.007,0.144,0.079c0.231,0.271,0.451,0.611,0.707,0.772c0.024,0.113-0.05,0.229,0.051,0.344
					c0.229,0.228,0.479,0.344,0.75,0.348c-0.063,0.064,0.033,0.129,0.08,0.192c0.126,0.067,0.597,0.223,0.348,0.422
					c-0.021-0.021-0.073-0.013-0.047,0.039C267.326,71.267,267.398,71.492,267.523,71.668z M259.056,46.908
					c0.305-0.003,0.147,0.426,0.357,0.638C259.112,47.354,259.256,47.291,259.056,46.908z M259.776,47.33
					c0.147-0.128-0.063-0.152-0.099-0.355l0.163-0.075c0.065,0.208,0.046,0.225,0.171,0.373
					C259.908,47.341,259.857,47.31,259.776,47.33z"/>
			</g>
		</g>
	</g>
	<g>
		<g>
			<g>
				<path fill="#FF553E" d="M557.312,188.627c0.157,0.011,0.229-0.063,0.313-0.006c0.02,0.061-0.103,0.109-0.143,0.164
					c0.309,0.049,0.347,0.262,0.434,0.402c0.316-0.003,0.34,0.191,0.626,0.218c0.004-0.104,0.034,0.013,0.121-0.009
					c0.052-0.041,0.078-0.084,0.149-0.124c0.027,0.054,0.127,0.06,0.314,0.007c-0.031-0.042-0.149-0.055,0.027-0.115
					c0.156,0,0.18,0.092,0.285,0.123c0.016-0.043-0.005-0.092,0.15-0.123c-0.024,0.072,0.208-0.022,0.146,0.072
					c0.786,0.006,1.503,0.077,2.544-0.061c0.317-0.086,0.557-0.113,0.823-0.165c0.479-0.138,1.074-0.341,1.363-0.464
					c0.059-0.023,0.157-0.043,0.229-0.076c0.102-0.051,0.177-0.139,0.26-0.188c0.104-0.063,0.238-0.115,0.32-0.181
					c0.034-0.094,0.201-0.168,0.235-0.265c0.165-0.021,0.104-0.075,0.22-0.104c0.045-0.063,0.07-0.129,0.197-0.18
					c0.308-0.705,0.274-1.479,0.417-2.234c-0.069-0.264-0.069-0.426-0.084-0.715c-0.219-0.323-0.339-0.832-0.256-1.18
					c-0.021-0.036-0.151,0.03-0.144-0.031c-0.067-0.771-0.156-1.38-0.488-2.209c0.238-0.476-0.063-0.942-0.291-1.366
					c-0.272-0.154-0.402-0.443-0.646-0.542c-0.063-0.229-0.189-0.411-0.217-0.731c-0.234-0.254-0.31-0.5-0.5-0.765
					c0.139-0.364,0.231-0.759,0.122-1.131c-0.117-0.394-0.377-0.513-0.386-0.796c0.104-0.048,0.104-0.085,0.202-0.132
					c-0.025-0.183-0.137-0.353-0.08-0.539c-0.134-0.315-0.201-0.404-0.382-0.728c-0.317-0.256-0.613-0.643-1.097-0.803
					c-0.049-0.144-0.254-0.107-0.28-0.275c-0.063,0.027-0.073-0.004-0.086-0.033c-0.107,0.023-0.208,0.04-0.31,0.056
					c-0.053-0.063-0.147-0.075-0.162-0.18c-0.134,0.013-0.17,0.092-0.255,0.157c-0.075-0.022-0.243,0.058-0.235-0.063
					c-0.141,0.106-0.363,0.224-0.531,0.274c0.021,0.059,0.046,0.113-0.104,0.188c0.07-0.077-0.027-0.108-0.118-0.097
					c0.063,0.052-0.058,0.123,0.022,0.173c-0.183,0.069-0.082,0.11-0.183,0.173c0.063,0.081,0.092,0.165-0.127,0.276
					c-0.063-0.046-0.021-0.216-0.161-0.183c0.04,0.039,0.028,0.086-0.063,0.142c-0.062-0.041-0.178-0.021-0.235-0.063
					c-0.111-0.063,0.035-0.231-0.118-0.229c-0.298,0.135-0.108,0.217-0.23,0.332c0.12-0.014-0.015,0.055,0.054,0.104
					c-0.029,0.063,0.063,0.111-0.104,0.188c-0.045-0.019,0.008-0.142-0.106-0.076c-0.044-0.026,0.007-0.162-0.16-0.049
					c-0.086,0.118,0.038,0.258,0.023,0.305c-0.009-0.058-0.166,0.058-0.192,0.021c-0.062-0.004-0.09-0.15-0.056-0.233
					c-0.165,0.101-0.191,0.203-0.234,0.069c-0.315,0.166-0.076,0.271-0.315,0.429c0-0.103-0.115-0.063-0.142-0.14
					c-0.199,0.103-0.147,0.039-0.147-0.026c-0.188,0.112-0.116,0.339-0.371,0.326c0.091,0.063-0.008,0.146-0.084,0.229
					c-0.058-0.026-0.006-0.172-0.129-0.118c0.007,0.028,0.01,0.061-0.086,0.1c-0.157,0.016-0.239-0.121-0.193-0.242
					c-0.257,0.16-0.057,0.27-0.063,0.398c-0.063,0.037-0.122,0.071-0.086,0.1c-0.022,0.167,0.039,0.188,0.048,0.346
					c0.063-0.029,0.147-0.082,0.172-0.063c-0.22,0.072-0.072,0.109-0.244,0.18c-0.109-0.102-0.219-0.135-0.303-0.316
					c-0.111,0-0.103,0.156-0.311,0.188c-0.009-0.059-0.051-0.074-0.107-0.076c-0.113-0.023,0.071-0.238-0.13-0.117
					c0.032,0.103,0.168,0.188-0.039,0.313c-0.155,0.014-0.094-0.228-0.29-0.166c0.063,0.03-0.188,0.207,0.014,0.149
					c-0.017-0.021-0.002-0.063,0.043-0.049c0.126,0.022,0.045,0.178,0.044,0.215c-0.071,0.055-0.288,0.118-0.256,0.159
					c0.075-0.036,0.084,0.023-0.031,0.068c0.008,0.036,0.062,0.065-0.01,0.108c0.017-0.065-0.28,0.063-0.107-0.074l-0.087-0.165
					c-0.011-0.028,0.054-0.064,0.021-0.093c-0.057-0.024-0.007-0.17-0.132-0.114c0.065,0.095-0.012,0.204,0.091,0.297
					c-0.063,0.058-0.075,0.108-0.184,0.173l0.058,0.104c-0.227,0.127-0.104,0.218-0.232,0.332c0.016,0.037,0.046,0.061,0.097,0.058
					c-0.063,0.036-0.122,0.069-0.085,0.097c0.077,0.254,0.042,0.426,0.123,0.622c0.014,0.035-0.128,0.087-0.073,0.117
					c0.012,0.108,0.15,0.067,0.161,0.18c-0.197,0.063-0.156,0.087-0.242,0.181c-0.039-0.064-0.102-0.287-0.177-0.332
					c0.033,0.479,0.313,0.934,0.396,1.403c0.065-0.021,0.132-0.04,0.182-0.04c-0.228,0.074,0.028,0.098-0.116,0.165
					c0.041,0.063,0.204,0.063,0.046,0.214c0.225-0.061,0.077,0.135,0.217,0.151c0.021,0.042-0.133,0.103-0.063,0.14
					c0.161,0.137,0.078,0.336,0.085,0.438c0.019,0.18,0.17,0.28,0.207,0.433c0.011,0.04-0.063,0.105-0.061,0.151
					c0.003,0.028,0.093,0.041,0.101,0.069c0.043,0.166-0.026,0.342,0.027,0.474c0.538,0.553,0.515,1.299,1.222,1.71
					c-0.096,0.041-0.134,0.078-0.146,0.111c0.271-0.028-0.005,0.347,0.459,0.172c-0.086,0.146,0.219,0.146,0.125,0.314
					c0.063-0.021,0.152-0.067,0.174-0.051c-0.063,0.031-0.158,0.063-0.158,0.092c0.141-0.031,0.037,0.163,0.229,0.088
					c-0.174,0.053-0.015,0.119-0.019,0.123c-0.012,0.056-0.057,0.117,0.056,0.142c-0.064,0.067-0.065,0.139-0.048,0.205
					c-0.003,0.024-0.049,0.055-0.095,0.084c0.113,0.098-0.092,0.44,0.021,0.541c-0.134,0.044-0.039,0.077-0.146,0.124l0.047,0.115
					c-0.293,0.519-0.405,1.105-0.418,1.532l0.047,0.114c0.009,0.023-0.063,0.053-0.038,0.077l0.069,0.248
					c0.01,0.021,0.08,0.002,0.073,0.038c0.047,0.134,0.048,0.302,0.17,0.383c-0.039,0.056-0.158,0.109-0.142,0.168
					c0.067,0.109,0.209,0.172,0.428,0.18c-0.084,0.029-0.039,0.063-0.035,0.094c0.065,0.035,0.368,0.125,0.061,0.211
					c-0.002-0.01-0.053-0.008-0.058,0.021C557.359,188.433,557.303,188.542,557.312,188.627z M557.767,175.331
					c0.276-0.067,0.068,0.228,0.228,0.308C557.752,175.588,557.888,175.52,557.767,175.331z M558.356,175.422
					c0.154-0.11-0.032-0.077-0.034-0.192l0.16-0.082c0.028,0.108,0.008,0.125,0.101,0.187
					C558.473,175.399,558.431,175.392,558.356,175.422z"/>
			</g>
		</g>
	</g>
	<g>
		<g>
			<g>
				<path fill="#394CD3" d="M430.302,247.767c0.079,0.147,0.197,0.127,0.183,0.269c-0.056,0.082-0.18,0.03-0.263,0.059
					c0.116,0.322-0.096,0.59-0.206,0.826c0.188,0.289-0.038,0.515,0.077,0.793c0.129-0.107,0.003,0.045,0.074,0.1
					c0.075,0.002,0.143-0.02,0.227,0.005c-0.051,0.081-0.008,0.179,0.152,0.289c0.036-0.073-0.011-0.19,0.155-0.097
					c0.082,0.14-0.021,0.256-0.006,0.389c0.063-0.036,0.108-0.104,0.229,0.002c-0.104,0.059,0.137,0.16-0.017,0.211
					c0.393,0.717,0.661,1.448,1.346,2.26c0.265,0.198,0.416,0.387,0.613,0.576c0.404,0.288,0.954,0.61,1.255,0.735
					c0.061,0.026,0.132,0.096,0.211,0.121c0.11,0.036,0.26,0.004,0.366,0.021c0.138,0.021,0.267,0.092,0.39,0.092
					c0.139-0.078,0.316-0.013,0.458-0.094c0.106,0.127,0.149,0.006,0.244,0.078c0.104-0.033,0.203-0.088,0.331-0.029
					c1.059-0.563,1.984-1.588,2.899-2.494c0.262-0.424,0.44-0.646,0.727-1.071c0.212-0.663,0.637-1.499,1.046-1.944
					c0.023-0.068-0.127-0.095-0.057-0.179c0.385-0.599,0.681-1.158,0.946-1.767c0.288-0.604,0.508-1.264,0.721-2.063
					c0.577-0.52,0.649-1.551,0.776-2.428c-0.129-0.488-0.02-1.086-0.147-1.461c0.113-0.434,0.1-0.842,0.269-1.389
					c-0.04-0.623,0.029-1.092-0.016-1.687c0.298-0.483,0.588-1.062,0.626-1.767c0.048-0.748-0.127-1.154-0.05-1.635
					c0.111,0.004,0.13-0.062,0.234-0.062c0.039-0.345-0.005-0.745,0.111-1.04c-0.011-0.688-0.079-0.896-0.162-1.625
					c-0.229-0.7-0.488-1.697-0.949-2.364c-0.024-0.317-0.241-0.378-0.243-0.661c-0.068,0.01-0.076-0.05-0.082-0.105
					c-0.117-0.023-0.223-0.063-0.326-0.101c-0.044-0.132-0.142-0.21-0.14-0.386c-0.141-0.063-0.188,0.043-0.286,0.102
					c-0.073-0.086-0.259-0.061-0.23-0.242c-0.16,0.086-0.407,0.136-0.588,0.117c0.013,0.104,0.027,0.207-0.138,0.232
					c0.084-0.082-0.015-0.189-0.106-0.227c0.055,0.119-0.077,0.16-0.003,0.289c-0.195,0.004-0.103,0.127-0.211,0.166
					c0.053,0.168,0.067,0.317-0.173,0.363c-0.063-0.111,0.008-0.355-0.139-0.386c0.033,0.087,0.018,0.151-0.087,0.185
					c-0.057-0.104-0.18-0.139-0.229-0.242c-0.106-0.174,0.07-0.354-0.089-0.438c-0.323,0.033-0.146,0.277-0.289,0.39
					c0.125,0.055-0.021,0.078,0.04,0.196c-0.041,0.08,0.044,0.214-0.138,0.234c-0.045-0.052,0.026-0.22-0.1-0.188
					c-0.041-0.068,0.03-0.256-0.158-0.176c-0.104,0.139,0,0.436-0.021,0.5c-0.001-0.096-0.18-0.01-0.199-0.084
					c-0.063-0.044-0.069-0.298-0.021-0.406c-0.185,0.057-0.228,0.206-0.25-0.031c-0.353,0.068-0.119,0.386-0.392,0.49
					c0.015-0.158-0.11-0.178-0.123-0.308c-0.219,0.039-0.16-0.027-0.148-0.136c-0.207,0.068-0.171,0.47-0.432,0.293
					c0.084,0.156-0.027,0.229-0.121,0.313c-0.051-0.074,0.021-0.273-0.113-0.268c0.004,0.05,0.002,0.097-0.103,0.104
					c-0.165-0.07-0.229-0.339-0.162-0.505c-0.288,0.101-0.1,0.396-0.124,0.604c-0.068,0.019-0.137,0.039-0.103,0.103
					c-0.053,0.251,0.012,0.323-0.006,0.579c0.068-0.008,0.165-0.04,0.185,0.004c-0.232-0.012-0.092,0.135-0.276,0.141
					c-0.098-0.228-0.2-0.348-0.263-0.689c-0.114-0.064-0.126,0.189-0.346,0.109c0-0.097-0.039-0.149-0.1-0.188
					c-0.113-0.107,0.108-0.339-0.114-0.268c0.02,0.178,0.145,0.398-0.088,0.473c-0.163-0.072-0.063-0.416-0.271-0.438
					c0.063,0.09-0.227,0.215-0.012,0.25c-0.012-0.043,0.007-0.106,0.052-0.055c0.126,0.113,0.021,0.313,0.014,0.369
					c-0.081,0.039-0.313,0.018-0.285,0.102c0.081-0.016,0.081,0.088-0.044,0.09c0.003,0.063,0.052,0.144-0.026,0.173
					c0.026-0.101-0.297-0.072-0.099-0.188l-0.063-0.316c-0.007-0.051,0.063-0.069,0.035-0.131c-0.053-0.074,0.021-0.274-0.114-0.269
					c0.053,0.192-0.043,0.322,0.045,0.528c-0.07,0.056-0.095,0.13-0.211,0.166l0.04,0.197c-0.249,0.064-0.139,0.281-0.289,0.39
					c0.01,0.069,0.038,0.12,0.091,0.147c-0.069,0.019-0.137,0.038-0.103,0.103c0.047,0.461-0.06,0.639-0.021,0.973
					c0.003,0.058-0.146,0.056-0.103,0.123c-0.021,0.158,0.132,0.183,0.113,0.339c-0.213-0.025-0.18,0.03-0.286,0.111
					c-0.021-0.111-0.023-0.446-0.086-0.549c-0.077,0.658,0.05,1.468-0.02,2.186c0.071,0.014,0.142,0.025,0.188,0.059
					c-0.241-0.037-0.004,0.156-0.166,0.158c0.016,0.106,0.165,0.217-0.039,0.322c0.229,0.061,0.021,0.237,0.144,0.35
					c0.004,0.069-0.16,0.057-0.108,0.147c0.095,0.287-0.043,0.522-0.078,0.683c-0.063,0.271,0.039,0.526,0.014,0.771
					c-0.009,0.065-0.103,0.106-0.117,0.177c-0.01,0.049,0.067,0.126,0.063,0.178c-0.021,0.271-0.181,0.465-0.19,0.689
					c0.108,0.585,0.063,1.145,0.003,1.676c-0.031,0.541-0.084,1.057,0.063,1.607c-0.104-0.02-0.155,0.002-0.188,0.039
					c0.236,0.17-0.204,0.477,0.268,0.602c-0.167,0.139,0.069,0.382-0.111,0.537c0.065,0.021,0.168,0.029,0.169,0.07
					c-0.07-0.01-0.165-0.041-0.185-0.004c0.13,0.074-0.079,0.256,0.12,0.309c-0.169-0.07-0.089,0.154-0.095,0.156
					c-0.043,0.063-0.121,0.115-0.057,0.234c-0.104,0.037-0.154,0.127-0.188,0.23c-0.021,0.033-0.078,0.033-0.134,0.035
					c0.011,0.224-0.396,0.511-0.387,0.729c-0.13-0.052-0.087,0.073-0.198,0.044l-0.063,0.188c-0.316,0.207-0.615,0.469-0.88,0.741
					c-0.271,0.269-0.531,0.535-0.725,0.783l-0.072,0.172c-0.018,0.037-0.087,0.01-0.091,0.063c-0.051,0.125-0.12,0.24-0.18,0.36
					c-0.016,0.037,0.052,0.072,0.014,0.109c-0.093,0.203-0.245,0.406-0.239,0.611c-0.075,0.033-0.199-0.004-0.24,0.081
					c-0.071,0.188-0.051,0.378,0.07,0.579c-0.078-0.04-0.086,0.037-0.114,0.076c0.005,0.1,0.094,0.473-0.177,0.299
					c0.011-0.016-0.021-0.057-0.052-0.031C430.525,247.586,430.383,247.661,430.302,247.767z M438.395,229.388
					c0.295,0.054,0.036,0.397,0.188,0.623C438.342,229.788,438.492,229.76,438.395,229.388z M438.985,229.889
					c0.177-0.085-0.021-0.146-0.005-0.329l0.178-0.035c0.013,0.192-0.014,0.203,0.07,0.356
					C439.108,229.926,439.068,229.885,438.985,229.889z"/>
			</g>
		</g>
	</g>
	<g>
		<g>
			<g>
				<path fill="#EBEDE4" d="M416.002,203.861c-0.146-0.108-0.233-0.007-0.296-0.171c0-0.125,0.131-0.158,0.187-0.244
					c-0.272-0.271-0.24-0.703-0.275-1.031c-0.305-0.162-0.259-0.557-0.521-0.742c-0.038,0.199-0.03-0.043-0.119-0.043
					c-0.063,0.056-0.103,0.123-0.185,0.16c-0.012-0.112-0.104-0.175-0.297-0.166c0.018,0.099,0.123,0.181-0.063,0.205
					c-0.149-0.074-0.141-0.257-0.23-0.367c-0.026,0.076-0.025,0.175-0.185,0.158c0.047-0.123-0.206-0.051-0.116-0.201
					c-0.743-0.375-1.398-0.805-2.438-0.978c-0.332,0.021-0.564-0.022-0.839-0.04c-0.498,0.044-1.133,0.148-1.445,0.236
					c-0.063,0.018-0.163,0.011-0.241,0.039c-0.109,0.039-0.209,0.146-0.305,0.193c-0.122,0.063-0.269,0.088-0.363,0.154
					c-0.063,0.131-0.245,0.182-0.309,0.313c-0.163-0.028-0.122,0.074-0.242,0.074c-0.063,0.077-0.106,0.166-0.243,0.193
					c-0.513,0.924-0.722,2.043-1.094,3.047c-0.018,0.402-0.066,0.631-0.146,1.039c0.105,0.559,0.074,1.324-0.184,1.785
					c0.002,0.063,0.15,0.037,0.114,0.123c-0.28,1.139-0.473,2.043-0.543,3.4c-0.429,0.506-0.366,1.338-0.354,2.065
					c0.18,0.403,0.129,0.928,0.294,1.244c-0.063,0.379-0.044,0.737-0.187,1.218c0.071,0.54,0.013,0.95,0.042,1.475
					c-0.309,0.428-0.589,0.92-0.685,1.532c-0.097,0.648,0.058,1.021-0.065,1.425c-0.112-0.013-0.135,0.043-0.24,0.035
					c-0.067,0.288-0.061,0.633-0.2,0.87c-0.044,0.578-0.024,0.771-0.033,1.396c0.149,0.639,0.217,1.455,0.553,2.08
					c-0.029,0.254,0.166,0.365,0.104,0.64c0.068,0.009,0.063,0.063,0.058,0.121c0.107,0.048,0.199,0.106,0.297,0.165
					c0.014,0.136,0.09,0.229,0.051,0.398c0.123,0.088,0.192-0.002,0.302-0.033c0.054,0.098,0.238,0.108,0.173,0.281
					c0.177-0.049,0.429-0.043,0.603,0.016c0.009-0.104,0.017-0.205,0.186-0.195c-0.102,0.061-0.029,0.188,0.056,0.24
					c-0.025-0.127,0.11-0.141,0.064-0.277c0.191,0.039,0.127-0.102,0.242-0.113c-0.015-0.173,0.004-0.32,0.248-0.313
					c0.035,0.122-0.085,0.342,0.051,0.398c-0.016-0.093,0.02-0.148,0.123-0.155c0.032,0.108,0.146,0.169,0.175,0.28
					c0.063,0.189-0.146,0.321-0.012,0.438c0.324,0.037,0.204-0.235,0.367-0.312c-0.109-0.078,0.038-0.07,0.005-0.198
					c0.059-0.067,0.003-0.214,0.186-0.194c0.031,0.059-0.074,0.204,0.058,0.2c0.022,0.075-0.088,0.237,0.113,0.2
					c0.136-0.107,0.097-0.414,0.132-0.477c-0.021,0.094,0.173,0.049,0.179,0.123c0.052,0.059,0.002,0.303-0.068,0.396
					c0.191-0.016,0.27-0.15,0.236,0.085c0.356,0.007,0.202-0.347,0.49-0.39c-0.052,0.148,0.066,0.191,0.052,0.319
					c0.224,0.011,0.148,0.063,0.116,0.161c0.219-0.021,0.271-0.413,0.482-0.188c-0.047-0.168,0.079-0.215,0.188-0.273
					c0.032,0.083-0.081,0.26,0.054,0.279c0.008-0.049,0.021-0.094,0.121-0.076c0.146,0.104,0.146,0.373,0.049,0.519
					c0.302-0.032,0.184-0.356,0.253-0.553c0.072-0.002,0.145-0.008,0.122-0.076c0.104-0.229,0.063-0.313,0.133-0.555
					c-0.068-0.009-0.17,0.004-0.18-0.043c0.227,0.063,0.118-0.107,0.303-0.074c0.045,0.237,0.12,0.377,0.104,0.719
					c0.099,0.091,0.165-0.151,0.358-0.028c-0.021,0.092,0.009,0.149,0.059,0.199c0.087,0.129-0.184,0.301,0.053,0.278
					c0.021-0.175-0.052-0.414,0.19-0.435c0.144,0.104-0.032,0.412,0.169,0.479c-0.041-0.101,0.268-0.157,0.063-0.235
					c0.002,0.041-0.029,0.102-0.063,0.037c-0.1-0.136,0.05-0.304,0.067-0.354c0.089-0.021,0.311,0.054,0.303-0.033
					c-0.083-0.005-0.063-0.103,0.063-0.078c0.013-0.06-0.019-0.146,0.063-0.155c-0.05,0.088,0.271,0.133,0.055,0.197l-0.008,0.318
					c-0.004,0.051-0.078,0.054-0.063,0.117c0.032,0.084-0.079,0.261,0.056,0.279c-0.012-0.193,0.11-0.3,0.07-0.517
					c0.081-0.039,0.12-0.104,0.243-0.115l0.004-0.196c0.257-0.012,0.195-0.24,0.366-0.313c0.008-0.068-0.011-0.124-0.056-0.161
					c0.071-0.002,0.143-0.008,0.122-0.075c0.059-0.441,0.176-0.67,0.203-1.029c0.008-0.063,0.152-0.027,0.123-0.115
					c0.047-0.174-0.098-0.229-0.052-0.4c0.202,0.07,0.183,0,0.303-0.07c0,0.131-0.06,0.511-0.017,0.638
					c0.211-0.744,0.192-1.646,0.356-2.42c-0.07-0.021-0.136-0.046-0.18-0.084c0.233,0.065,0.024-0.173,0.186-0.155
					c-0.005-0.123-0.146-0.259,0.067-0.355c-0.225-0.09-0.002-0.267-0.109-0.398c0.003-0.079,0.165-0.047,0.124-0.156
					c-0.067-0.326,0.095-0.582,0.144-0.749c0.08-0.295,0.001-0.586,0.047-0.853c0.014-0.072,0.108-0.114,0.131-0.189
					c0.016-0.053-0.059-0.143-0.05-0.193c0.05-0.301,0.2-0.516,0.224-0.771c-0.179-1.313,0.23-2.485-0.162-3.694
					c0.104,0.01,0.154-0.021,0.186-0.064c-0.246-0.154,0.164-0.574-0.324-0.651c0.146-0.186-0.127-0.43,0.033-0.643
					c-0.069-0.011-0.172-0.003-0.179-0.052c0.071-0.004,0.17,0.019,0.183-0.028c-0.139-0.063,0.043-0.313-0.162-0.331
					c0.178,0.048,0.064-0.193,0.07-0.197c0.035-0.08,0.104-0.158,0.017-0.279c0.094-0.068,0.124-0.186,0.138-0.313
					c0.016-0.045,0.068-0.062,0.124-0.074c-0.058-0.254,0.287-0.698,0.229-0.954c0.14,0.021,0.072-0.111,0.188-0.107l0.014-0.242
					c0.501-0.689,0.88-1.674,1.093-2.447l0.015-0.24c0.006-0.053,0.08-0.053,0.064-0.119l0.017-0.532
					c-0.002-0.056-0.076-0.063-0.06-0.125c-0.002-0.3,0.053-0.632-0.038-0.868c0.057-0.085,0.187-0.116,0.188-0.241
					c-0.027-0.267-0.145-0.478-0.347-0.629c0.091-0.006,0.059-0.099,0.063-0.164c-0.053-0.11-0.308-0.47,0.012-0.452
					c-0.001,0.022,0.048,0.049,0.062,0.002C415.891,204.219,415.982,204.038,416.002,203.861z M409.348,225.319
					c-0.274-0.115,0.053-0.391-0.044-0.638C409.49,224.948,409.336,224.943,409.348,225.319z M408.884,224.713
					c-0.19,0.043-0.016,0.146-0.068,0.314l-0.18-0.004c0.028-0.188,0.057-0.193,0.009-0.355
					C408.769,224.653,408.802,224.698,408.884,224.713z"/>
			</g>
		</g>
	</g>
	<g>
		<g>
			<g>
				<path fill="#394CD3" d="M355.245,249.566c0.189-0.005,0.188-0.149,0.351-0.052c0.083,0.107,0.005,0.221,0.02,0.329
					c0.394,0.06,0.658,0.456,0.912,0.721c0.366-0.044,0.58,0.339,0.905,0.372c-0.093-0.211,0.051,0.021,0.124-0.025
					c0.02-0.086,0.009-0.174,0.054-0.258c0.077,0.104,0.191,0.111,0.352-0.006c-0.074-0.084-0.215-0.104-0.075-0.234
					c0.171-0.012,0.275,0.172,0.427,0.231c-0.026-0.092-0.091-0.188,0.051-0.263c0.04,0.149,0.203-0.063,0.229,0.141
					c0.866-0.033,1.728,0.078,2.752-0.242c0.271-0.189,0.508-0.256,0.758-0.371c0.398-0.299,0.866-0.74,1.066-1.01
					c0.039-0.057,0.132-0.098,0.176-0.172c0.063-0.105,0.061-0.291,0.103-0.402c0.054-0.143,0.153-0.25,0.184-0.389
					c-0.059-0.201,0.056-0.363-0.002-0.566c0.159-0.051,0.036-0.168,0.138-0.23c-0.014-0.137-0.052-0.276,0.038-0.391
					c-0.394-1.496-1.354-3.051-2.189-4.488c-0.392-0.477-0.631-0.768-1.066-1.303c-0.356-0.271-0.749-0.627-1.102-0.998
					c-0.364-0.346-0.688-0.709-0.891-1.035c-0.076-0.06-0.137,0.084-0.217-0.028c-1.205-1.337-2.247-2.313-3.938-3.501
					c-0.428-0.8-1.543-1.385-2.486-1.932c-0.589-0.125-1.214-0.528-1.682-0.602c-0.441-0.324-0.896-0.527-1.431-0.974
					c-0.704-0.292-1.188-0.607-1.847-0.901c-0.395-0.537-0.884-1.104-1.596-1.551c-0.755-0.479-1.276-0.555-1.723-0.92
					c0.063-0.096,0.008-0.146,0.063-0.237c-0.328-0.241-0.758-0.448-0.987-0.726c-0.699-0.403-0.931-0.504-1.688-0.896
					c-0.857-0.264-1.824-0.695-2.715-0.775c-0.282-0.178-0.507-0.073-0.813-0.311c-0.041,0.057-0.105,0.016-0.173-0.027
					c-0.107,0.064-0.226,0.107-0.34,0.154c-0.17-0.076-0.319-0.07-0.508-0.216c-0.165,0.052-0.089,0.173-0.099,0.289
					c-0.146-0.019-0.245,0.14-0.426-0.03c-0.021,0.188-0.146,0.406-0.293,0.523c0.119,0.072,0.24,0.146,0.151,0.291
					c-0.024-0.129-0.212-0.147-0.315-0.108c0.164,0.062,0.115,0.188,0.308,0.239c-0.138,0.145,0.063,0.178,0.024,0.29
					c0.217,0.101,0.391,0.212,0.268,0.424c-0.164-0.048-0.375-0.298-0.508-0.216c0.115,0.047,0.173,0.111,0.133,0.212
					c-0.148-0.043-0.272,0.019-0.424-0.03c-0.262-0.064-0.323-0.34-0.526-0.295c-0.193,0.264,0.192,0.334,0.207,0.529
					c0.146-0.047,0.069,0.079,0.239,0.133c0.057,0.096,0.258,0.143,0.15,0.291c-0.086-0.01-0.214-0.199-0.271-0.08
					c-0.104-0.027-0.249-0.232-0.298-0.029c0.068,0.189,0.461,0.354,0.517,0.426c-0.102-0.075-0.138,0.121-0.23,0.076
					c-0.091,0.01-0.365-0.191-0.448-0.317c-0.07,0.181,0.06,0.336-0.213,0.153c-0.175,0.313,0.324,0.404,0.243,0.688
					c-0.157-0.144-0.267-0.063-0.411-0.162c-0.115,0.188-0.146,0.093-0.25-0.003c-0.076,0.208,0.377,0.51,0.005,0.553
					c0.227,0.068,0.226,0.211,0.247,0.348c-0.116-0.024-0.278-0.24-0.364-0.137c0.056,0.039,0.104,0.078,0.037,0.157
					c-0.192,0.062-0.521-0.112-0.651-0.296c-0.102,0.289,0.353,0.396,0.555,0.585c-0.029,0.066-0.057,0.132,0.036,0.158
					c0.229,0.243,0.354,0.258,0.611,0.479c0.042-0.058,0.075-0.151,0.137-0.131c-0.182,0.159,0.074,0.174-0.052,0.315
					c-0.31-0.115-0.512-0.142-0.921-0.378c-0.151,0.025,0.111,0.247-0.128,0.341c-0.103-0.078-0.188-0.094-0.27-0.082
					c-0.197-0.006-0.281-0.356-0.364-0.135c0.201,0.133,0.525,0.224,0.438,0.45c-0.193,0.06-0.485-0.299-0.663-0.164
					c0.143,0.029,0.067,0.342,0.259,0.215c-0.053-0.026-0.106-0.096-0.021-0.079c0.211,0.002,0.346,0.239,0.402,0.293
					c-0.019,0.091-0.208,0.237-0.101,0.289c0.046-0.07,0.151,0.013,0.065,0.104c0.065,0.049,0.188,0.079,0.162,0.159
					c-0.085-0.102-0.288,0.156-0.271-0.082l-0.385-0.215c-0.061-0.037-0.026-0.104-0.113-0.132
					c-0.115-0.023-0.276-0.241-0.363-0.137c0.241,0.117,0.312,0.295,0.595,0.398c0.008,0.098,0.07,0.176,0.025,0.291l0.238,0.133
					c-0.105,0.234,0.201,0.332,0.207,0.529c0.081,0.05,0.155,0.07,0.223,0.055c-0.029,0.066-0.058,0.131,0.037,0.158
					c0.51,0.342,0.757,0.594,1.193,0.854c0.076,0.049-0.033,0.154,0.094,0.188c0.196,0.154,0.329,0.063,0.525,0.217
					c-0.18,0.139-0.08,0.162-0.043,0.318c-0.165-0.087-0.619-0.389-0.8-0.434c0.855,0.688,1.977,1.231,2.864,1.869
					c0.059-0.052,0.115-0.094,0.184-0.105c-0.188,0.168,0.198,0.129,0.108,0.262c0.151,0.071,0.382,0.031,0.406,0.283
					c0.207-0.146,0.325,0.164,0.538,0.146c0.098,0.053-0.015,0.18,0.14,0.209c0.432,0.143,0.67,0.446,0.857,0.594
					c0.335,0.25,0.733,0.354,1.049,0.561c0.085,0.057,0.097,0.168,0.183,0.232c0.06,0.045,0.203,0.033,0.267,0.072
					c0.354,0.228,0.549,0.496,0.854,0.672c1.697,0.646,2.925,1.742,4.505,2.184c-0.058,0.086-0.047,0.148-0.007,0.207
					c0.299-0.115,0.589,0.51,0.896,0.13c0.135,0.249,0.531,0.17,0.688,0.45c0.046-0.059,0.086-0.148,0.144-0.123
					c-0.032,0.063-0.103,0.137-0.058,0.179c0.136-0.081,0.318,0.239,0.441,0.075c-0.14,0.121,0.183,0.184,0.185,0.188
					c0.068,0.084,0.122,0.194,0.301,0.197c0.024,0.129,0.131,0.234,0.262,0.334c0.039,0.045,0.024,0.104,0.015,0.157
					c0.298,0.127,0.582,0.722,0.879,0.847c-0.097,0.104,0.078,0.139,0.017,0.231c0.083,0.058,0.162,0.116,0.237,0.179
					c0.41,0.91,1.149,1.896,1.691,2.635l0.212,0.188c0.043,0.042-0.004,0.101,0.063,0.137c0.157,0.132,0.301,0.271,0.438,0.412
					c0.043,0.039,0.099-0.012,0.14,0.054c0.237,0.229,0.469,0.521,0.725,0.639c0.031,0.104-0.035,0.223,0.064,0.316
					c0.229,0.185,0.45,0.278,0.716,0.26c-0.063,0.065,0.028,0.119,0.073,0.18c0.118,0.054,0.576,0.176,0.326,0.374
					c-0.018-0.021-0.068-0.009-0.046,0.039C355.064,249.204,355.131,249.409,355.245,249.566z M335.01,229.336
					c0.268-0.17,0.448,0.306,0.796,0.377C335.394,229.706,335.472,229.572,335.01,229.336z M335.963,229.32
					c0.034-0.194-0.171-0.104-0.354-0.266l0.088-0.156c0.215,0.146,0.21,0.179,0.434,0.238
					C336.087,229.258,336.017,229.258,335.963,229.32z"/>
			</g>
		</g>
	</g>
	<g>
		<g>
			<g>
				<path fill="#394CD3" d="M484.908,154.094c0.168-0.09,0.1-0.217,0.288-0.201c0.122,0.061,0.104,0.195,0.163,0.286
					c0.375-0.122,0.794,0.114,1.139,0.235c0.31-0.201,0.672,0.047,0.978-0.067c-0.177-0.147,0.058-0.002,0.103-0.08
					c-0.022-0.084-0.069-0.158-0.068-0.253c0.117,0.059,0.222,0.014,0.312-0.161c-0.104-0.042-0.234,0.005-0.172-0.176
					c0.147-0.087,0.324,0.026,0.484,0.017c-0.064-0.066-0.164-0.127-0.071-0.256c0.104,0.116,0.154-0.146,0.27,0.023
					c0.762-0.418,1.58-0.7,2.354-1.445c0.16-0.29,0.34-0.455,0.514-0.67c0.227-0.444,0.444-1.049,0.507-1.379
					c0.012-0.066,0.071-0.146,0.08-0.231c0.01-0.123-0.075-0.288-0.089-0.405c-0.019-0.149,0.024-0.293-0.014-0.43
					c-0.139-0.154-0.109-0.35-0.254-0.506c0.122-0.117-0.04-0.166,0.021-0.271c-0.072-0.113-0.171-0.226-0.142-0.363
					c-1.018-1.165-2.567-2.129-3.962-3.042c-0.561-0.253-0.905-0.406-1.536-0.689c-0.438-0.085-0.947-0.228-1.429-0.401
					c-0.481-0.146-0.936-0.328-1.258-0.528c-0.098-0.021-0.085,0.136-0.208,0.065c-1.675-0.658-3.042-1.065-5.085-1.379
					c-0.739-0.522-1.997-0.551-3.088-0.617c-0.581,0.149-1.322,0.064-1.771,0.211c-0.542-0.094-1.038-0.072-1.714-0.232
					c-0.762,0.052-1.332-0.016-2.055,0.016c-0.593-0.306-1.282-0.597-2.118-0.679c-0.891-0.09-1.394,0.075-1.951-0.055
					c0.015-0.113-0.059-0.136-0.049-0.242c-0.402-0.07-0.878-0.063-1.208-0.209c-0.809-0.049-1.059-0.034-1.909-0.048
					c-0.888,0.146-1.944,0.189-2.777,0.515c-0.331-0.032-0.484,0.159-0.862,0.086c-0.016,0.069-0.093,0.063-0.167,0.052
					c-0.069,0.106-0.153,0.196-0.234,0.289c-0.188,0.012-0.319,0.082-0.551,0.034c-0.125,0.119-0.003,0.193,0.04,0.304
					c-0.134,0.051-0.157,0.232-0.396,0.16c0.063,0.18,0.053,0.432-0.025,0.602c0.139,0.014,0.278,0.023,0.266,0.191
					c-0.081-0.104-0.255-0.039-0.332,0.043c0.174-0.021,0.188,0.117,0.381,0.08c-0.058,0.188,0.136,0.129,0.152,0.245
					c0.236-0.006,0.439,0.021,0.427,0.263c-0.168,0.028-0.468-0.101-0.551,0.033c0.126-0.012,0.205,0.023,0.214,0.131
					c-0.153,0.026-0.236,0.14-0.395,0.16c-0.265,0.06-0.439-0.16-0.604-0.025c-0.057,0.32,0.321,0.213,0.422,0.38
					c0.109-0.107,0.099,0.04,0.273,0.013c0.093,0.063,0.294,0.014,0.266,0.193c-0.081,0.027-0.28-0.084-0.277,0.047
					c-0.104,0.021-0.323-0.1-0.276,0.105c0.146,0.14,0.567,0.11,0.649,0.149c-0.126-0.022-0.066,0.17-0.174,0.172
					c-0.077,0.049-0.414-0.01-0.545-0.086c0.019,0.192,0.202,0.274-0.121,0.233c-0.017,0.356,0.474,0.218,0.524,0.507
					c-0.204-0.06-0.269,0.061-0.441,0.039c-0.018,0.222-0.087,0.146-0.225,0.106c0.021,0.221,0.563,0.287,0.251,0.492
					c0.229-0.04,0.294,0.088,0.375,0.198c-0.115,0.03-0.357-0.091-0.39,0.042c0.066,0.01,0.132,0.021,0.104,0.125
					c-0.146,0.141-0.52,0.131-0.716,0.023c0.039,0.306,0.49,0.197,0.756,0.276c0.003,0.072,0.01,0.146,0.104,0.125
					c0.314,0.115,0.433,0.073,0.765,0.156c0.012-0.07-0.002-0.171,0.063-0.179c-0.091,0.224,0.146,0.123,0.097,0.306
					c-0.327,0.034-0.521,0.104-0.991,0.073c-0.124,0.094,0.21,0.17,0.037,0.359c-0.126-0.023-0.212,0-0.277,0.047
					c-0.18,0.082-0.411-0.191-0.387,0.041c0.237,0.029,0.569-0.031,0.595,0.209c-0.147,0.142-0.567-0.05-0.666,0.148
					c0.139-0.036,0.212,0.273,0.325,0.076c-0.061-0.002-0.141-0.035-0.054-0.063c0.188-0.092,0.416,0.063,0.49,0.084
					c0.025,0.091-0.08,0.31,0.04,0.304c0.011-0.082,0.146-0.058,0.106,0.063c0.082,0.017,0.203-0.011,0.217,0.071
					c-0.121-0.053-0.188,0.268-0.277,0.046l-0.438-0.021c-0.07-0.008-0.072-0.078-0.161-0.066c-0.116,0.029-0.357-0.092-0.387,0.042
					c0.269-0.001,0.407,0.125,0.709,0.094c0.051,0.083,0.143,0.124,0.15,0.248l0.274,0.013c0.009,0.26,0.328,0.207,0.421,0.383
					c0.095,0.01,0.171-0.008,0.223-0.052c0.002,0.073,0.012,0.146,0.104,0.126c0.605,0.077,0.941,0.193,1.452,0.232
					c0.089,0.008,0.038,0.154,0.165,0.125c0.246,0.051,0.319-0.092,0.565-0.041c-0.1,0.203,0,0.182,0.104,0.305
					c-0.188-0.004-0.729-0.068-0.907-0.029c1.071,0.23,2.317,0.225,3.396,0.396c0.026-0.069,0.063-0.134,0.113-0.177
					c-0.094,0.231,0.236,0.023,0.215,0.186c0.17-0.005,0.355-0.143,0.49,0.071c0.121-0.224,0.365,0.002,0.55-0.104
					c0.108,0.002,0.065,0.164,0.218,0.125c0.446-0.064,0.8,0.104,1.031,0.146c0.411,0.075,0.816-0.009,1.188,0.034
					c0.101,0.012,0.16,0.105,0.266,0.128c0.072,0.014,0.197-0.063,0.272-0.052c0.417,0.043,0.711,0.195,1.062,0.22
					c1.812-0.179,3.396,0.257,5.006-0.056c-0.013,0.104,0.025,0.155,0.087,0.188c0.219-0.235,0.757,0.192,0.859-0.283
					c0.23,0.163,0.551-0.084,0.814,0.099c0.017-0.068,0.012-0.172,0.069-0.174c0,0.069-0.025,0.168,0.03,0.187
					c0.084-0.134,0.395,0.071,0.43-0.131c-0.068,0.171,0.244,0.084,0.248,0.089c0.103,0.045,0.196,0.12,0.356,0.043
					c0.081,0.104,0.222,0.152,0.383,0.184c0.056,0.021,0.068,0.078,0.083,0.137c0.322-0.021,0.843,0.387,1.163,0.363
					c-0.039,0.137,0.132,0.088,0.117,0.201c0.1,0.014,0.196,0.031,0.292,0.053c0.771,0.633,1.876,1.188,2.688,1.605l0.272,0.07
					c0.057,0.02,0.041,0.092,0.119,0.094c0.196,0.047,0.389,0.105,0.572,0.174c0.058,0.016,0.081-0.053,0.146-0.014
					c0.313,0.096,0.649,0.256,0.933,0.248c0.074,0.08,0.066,0.214,0.199,0.254c0.289,0.061,0.529,0.05,0.758-0.084
					c-0.022,0.086,0.079,0.093,0.146,0.125c0.13-0.006,0.594-0.103,0.459,0.188c-0.023-0.01-0.066,0.024-0.023,0.057
					C484.584,153.85,484.732,154.006,484.908,154.094z M457.774,145.006c0.162-0.271,0.537,0.067,0.881-0.021
					C458.285,145.163,458.296,145.009,457.774,145.006z M458.622,144.564c-0.059-0.188-0.198-0.019-0.438-0.081l0.008-0.179
					c0.261,0.036,0.27,0.063,0.493,0.021C458.705,144.452,458.643,144.482,458.622,144.564z"/>
			</g>
		</g>
	</g>
	<g>
		<g>
			
				<ellipse fill="none" stroke="#394CD3" stroke-width="2" stroke-linecap="round" stroke-linejoin="round" stroke-miterlimit="10" cx="37.375" cy="140.499" rx="10" ry="4"/>
			<path fill="none" stroke="#394CD3" stroke-width="2" stroke-linecap="round" stroke-linejoin="round" stroke-miterlimit="10" d="
				M47.375,140.499v6.666v-1.065v2.399c0,2.209-4.479,4-10,4c-5.522,0-10-1.791-10-4l0,0v-1.334v-6.666"/>
		</g>
		<g>
			
				<ellipse fill="none" stroke="#394CD3" stroke-width="2" stroke-linecap="round" stroke-linejoin="round" stroke-miterlimit="10" cx="87.375" cy="140.499" rx="10" ry="4"/>
			<path fill="none" stroke="#394CD3" stroke-width="2" stroke-linecap="round" stroke-linejoin="round" stroke-miterlimit="10" d="
				M97.375,140.499v6.666v-1.065v2.399c0,2.209-4.479,4-10,4c-5.522,0-10-1.791-10-4l0,0v-1.334v-6.666"/>
		</g>
		<g>
			
				<ellipse fill="none" stroke="#394CD3" stroke-width="2" stroke-linecap="round" stroke-linejoin="round" stroke-miterlimit="10" cx="62.5" cy="148.499" rx="10" ry="4"/>
			<path fill="none" stroke="#394CD3" stroke-width="2" stroke-linecap="round" stroke-linejoin="round" stroke-miterlimit="10" d="
				M72.5,148.499v6.668V154.1v2.4c0,2.209-4.479,4-10,4c-5.522,0-10-1.791-10-4l0,0v-1.334v-6.668"/>
		</g>
		<g>
			
				<ellipse fill="none" stroke="#394CD3" stroke-width="2" stroke-linecap="round" stroke-linejoin="round" stroke-miterlimit="10" cx="62.5" cy="131.499" rx="10" ry="4"/>
			<path fill="none" stroke="#394CD3" stroke-width="2" stroke-linecap="round" stroke-linejoin="round" stroke-miterlimit="10" d="
				M72.5,131.499v6.666v-1.065v2.399c0,2.209-4.479,4-10,4c-5.522,0-10-1.791-10-4l0,0v-1.334v-6.666"/>
		</g>
		
			<polygon fill="none" stroke="#394CD3" stroke-width="2" stroke-linecap="round" stroke-linejoin="round" stroke-miterlimit="10" points="
			16.375,149.499 62.375,166.499 62.375,203.5 16.375,186.5 		"/>
		<g>
			
				<line fill="none" stroke="#394CD3" stroke-width="2" stroke-linecap="round" stroke-linejoin="round" stroke-miterlimit="10" x1="97.525" y1="146.516" x2="107.625" y2="150.249"/>
			
				<line fill="none" stroke="#394CD3" stroke-width="2" stroke-linecap="round" stroke-linejoin="round" stroke-miterlimit="10" x1="73.209" y1="137.499" x2="77.732" y2="139.202"/>
		</g>
		<g>
			
				<line fill="none" stroke="#394CD3" stroke-width="2" stroke-linecap="round" stroke-linejoin="round" stroke-miterlimit="10" x1="26.908" y1="145.417" x2="16.541" y2="149.249"/>
			
				<line fill="none" stroke="#394CD3" stroke-width="2" stroke-linecap="round" stroke-linejoin="round" stroke-miterlimit="10" x1="51.875" y1="137.159" x2="47.229" y2="138.909"/>
		</g>
		
			<polygon fill="none" stroke="#394CD3" stroke-width="2" stroke-linecap="round" stroke-linejoin="round" stroke-miterlimit="10" points="
			108.375,150.499 62.041,166.499 62.041,203.5 108.375,187.5 		"/>
		<path fill="none" stroke="#394CD3" stroke-width="2" stroke-linecap="round" stroke-linejoin="round" stroke-miterlimit="10" d="
			M62.375,203.5"/>
		<path fill="none" stroke="#394CD3" stroke-width="2" stroke-linecap="round" stroke-linejoin="round" stroke-miterlimit="10" d="
			M71.559,153.603"/>
	</g>
	<g>
		<polygon fill="#F7A328" points="257.526,217.963 249.339,214.965 246.678,213.982 211.443,200.879 165.526,217.963 
			165.526,253.963 211.193,271.833 211.193,271.964 211.36,271.9 211.526,271.964 211.526,271.835 257.526,253.963 		"/>
		<g>
			<g>
				<polyline fill="#FFB640" points="211.193,236.081 257.526,218.081 249.339,215.083 246.678,214.099 211.443,200.997 
					165.526,218.081 211.193,235.081 				"/>
				<line fill="none" x1="222.36" y1="204.963" x2="226.886" y2="206.667"/>
			</g>
			<path fill="#F7A328" d="M196.526,207.963v6.666v-1.064v2.398c0,2.209-4.479,4-10,4c-5.522,0-10-1.791-10-4l0,0v-1.334v-6.666"/>
		</g>
		<g>
			<path fill="#F7A328" d="M246.526,207.963v6.666v-1.064v2.398c0,2.209-4.479,4-10,4c-5.522,0-10-1.791-10-4l0,0v-1.334v-6.666"/>
		</g>
		<g>
			<path fill="#F7A328" d="M221.651,215.963v6.666v-1.064v2.398c0,2.209-4.479,4-10,4c-5.522,0-10-1.791-10-4l0,0v-1.334v-6.666"/>
		</g>
		<g>
			<path fill="#F7A328" d="M221.651,198.963v6.666v-1.064v2.398c0,2.209-4.479,4-10,4c-5.522,0-10-1.791-10-4l0,0v-1.334v-6.666"/>
		</g>
		<ellipse fill="#FFB640" cx="186.526" cy="207.963" rx="10" ry="4"/>
		<ellipse fill="#FFB640" cx="236.526" cy="207.963" rx="10" ry="4"/>
		<ellipse fill="#FFB640" cx="211.651" cy="215.963" rx="10" ry="4"/>
		<ellipse fill="#FFB640" cx="211.651" cy="198.963" rx="10" ry="4"/>
		<g>
			<line fill="none" x1="176.062" y1="213.881" x2="165.693" y2="217.713"/>
			<line fill="none" x1="201.026" y1="204.624" x2="196.381" y2="206.372"/>
		</g>
		<polygon fill="#FFB640" points="257.526,218.081 211.193,235.081 211.193,272.08 257.526,254.081 		"/>
		<path fill="#F7A328" d="M211.526,271.964"/>
		<path fill="#F7A328" d="M220.711,221.067"/>
	</g>
	<g>
		<g>
			<polygon fill="#EBEDE4" points="169.36,79.948 169.36,115.948 173.36,117.948 177.36,115.948 177.36,79.948 			"/>
			<polygon fill="#939390" points="173.36,117.948 169.36,115.948 169.36,91.948 169.36,75.948 173.36,75.948 			"/>
		</g>
		<path fill="#FF553E" d="M185.36,83.948c0,6.627-5.373,12-12,12l0,0c-6.629,0-12-5.373-12-12v-52c0-6.627,5.371-12,12-12l0,0
			c6.627,0,12,5.373,12,12V83.948z"/>
		<path fill="#FFB640" d="M161.36,63.948c0,6.627,5.371,12,12,12l0,0c6.627,0,12-5.373,12-12v-44c0-6.627-5.373-12-12-12l0,0
			c-6.629,0-12,5.373-12,12V63.948z"/>
		<path fill="#FFB640" d="M181.36,83.948c0,2.209-1.791,4-4,4l0,0c-2.209,0-4-1.791-4-4v-48c0-2.209,1.791-4,4-4l0,0
			c2.209,0,4,1.791,4,4V83.948z"/>
	</g>
	<path fill="none" stroke="#FF553E" stroke-width="8" stroke-miterlimit="10" d="M86.549,175.881
		c20.066-1.711,37.723,13.166,39.431,33.232c1.711,20.071-13.17,37.725-33.235,39.436"/>
	<g>
		<g>
			<g>
				
					<ellipse fill="none" stroke="#FF553E" stroke-width="2" stroke-linejoin="round" stroke-miterlimit="10" cx="482.709" cy="50.915" rx="10" ry="4"/>
				<path fill="none" stroke="#FF553E" stroke-width="2" stroke-linejoin="round" stroke-miterlimit="10" d="M492.709,50.915v6.666
					v-1.065v2.399c0,2.209-4.479,4-10,4c-5.523,0-10-1.791-10-4l0,0v-1.334v-6.666"/>
			</g>
			<g>
				
					<ellipse fill="none" stroke="#FF553E" stroke-width="2" stroke-linejoin="round" stroke-miterlimit="10" cx="506.709" cy="58.915" rx="10" ry="4"/>
				<path fill="none" stroke="#FF553E" stroke-width="2" stroke-linejoin="round" stroke-miterlimit="10" d="M516.709,58.915v6.666
					v-1.065v2.399c0,2.209-4.479,4-10,4c-5.523,0-10-1.791-10-4l0,0v-1.334v-6.666"/>
			</g>
			<g>
				
					<ellipse fill="none" stroke="#FF553E" stroke-width="2" stroke-linejoin="round" stroke-miterlimit="10" cx="530.709" cy="66.915" rx="10" ry="4"/>
				<path fill="none" stroke="#FF553E" stroke-width="2" stroke-linejoin="round" stroke-miterlimit="10" d="M540.709,66.915v6.666
					v-1.065v2.399c0,2.209-4.479,4-10,4c-5.523,0-10-1.791-10-4l0,0v-1.334v-6.666"/>
			</g>
			<polygon fill="none" stroke="#FF553E" stroke-width="2" stroke-linejoin="round" stroke-miterlimit="10" points="456.709,58.915 
				533.709,85.915 533.709,125.915 456.709,97.915 			"/>
			
				<line fill="none" stroke="#FF553E" stroke-width="2" stroke-linejoin="round" stroke-miterlimit="10" x1="533.709" y1="85.915" x2="557.709" y2="77.915"/>
			<polyline fill="none" stroke="#FF553E" stroke-width="2" stroke-linejoin="round" stroke-miterlimit="10" points="
				540.892,72.019 557.709,77.915 557.709,117.915 533.709,125.915 			"/>
			
				<line fill="none" stroke="#FF553E" stroke-width="2" stroke-linejoin="round" stroke-miterlimit="10" x1="516.718" y1="63.54" x2="521.19" y2="65.111"/>
			
				<line fill="none" stroke="#FF553E" stroke-width="2" stroke-linejoin="round" stroke-miterlimit="10" x1="492.498" y1="55.048" x2="497.426" y2="56.777"/>
			
				<line fill="none" stroke="#FF553E" stroke-width="2" stroke-linejoin="round" stroke-miterlimit="10" x1="456.709" y1="58.915" x2="472.398" y2="53.686"/>
		</g>
		
			<line fill="none" stroke="#FF553E" stroke-width="2" stroke-linejoin="round" stroke-miterlimit="10" x1="554.709" y1="34.915" x2="554.709" y2="46.915"/>
		
			<line fill="none" stroke="#FF553E" stroke-width="2" stroke-linejoin="round" stroke-miterlimit="10" x1="590.709" y1="82.915" x2="602.709" y2="82.915"/>
		
			<line fill="none" stroke="#FF553E" stroke-width="2" stroke-linejoin="round" stroke-miterlimit="10" x1="582.709" y1="54.915" x2="591.191" y2="46.431"/>
	</g>
	<g>
		<g>
			<polygon fill="#CBCEBC" points="431.857,28.564 423.267,31.883 375.887,11.678 375.887,5.893 431.918,22.898 			"/>
			<polygon fill="#EBEDE4" points="383.874,2.708 431.918,22.898 423.267,26.097 375.524,5.893 			"/>
			<polygon fill="#ADAF9E" points="423.267,26.097 423.267,31.883 375.524,11.678 375.524,5.893 			"/>
		</g>
		<g>
			<polygon fill="#CBCEBC" points="421.379,32.715 412.789,36.034 365.409,15.83 365.409,10.044 421.44,27.049 			"/>
			<polygon fill="#EBEDE4" points="373.397,6.859 421.44,27.049 412.789,30.248 365.048,10.044 			"/>
			<polygon fill="#ADAF9E" points="412.789,30.248 412.789,36.034 365.048,15.83 365.048,10.044 			"/>
		</g>
		<g>
			<polygon fill="#243CB5" points="404.76,17.507 401.108,19.209 372.65,7.205 372.65,4.805 404.71,15.608 			"/>
			<polygon fill="#394CD3" points="376.252,3.604 404.71,15.608 401.483,17.06 372.65,4.805 			"/>
		</g>
		<g>
			<polygon fill="#CBCEBC" points="410.857,36.939 402.267,40.258 354.887,20.053 354.887,14.268 410.917,31.273 			"/>
			<polygon fill="#EBEDE4" points="362.874,11.083 410.917,31.273 402.267,34.472 354.524,14.268 			"/>
			<polygon fill="#ADAF9E" points="402.267,34.472 402.267,40.258 354.524,20.053 354.524,14.268 			"/>
		</g>
		<g>
			<polygon fill="#CBCEBC" points="400.379,41.09 391.788,44.409 344.409,24.205 344.409,18.419 400.44,35.424 			"/>
			<polygon fill="#EBEDE4" points="352.397,15.234 400.44,35.424 391.788,38.623 344.048,18.419 			"/>
			<polygon fill="#ADAF9E" points="391.788,38.623 391.788,44.409 344.048,24.205 344.048,18.419 			"/>
		</g>
		<g>
			<polygon fill="#243CB5" points="394.01,21.882 390.358,23.584 361.9,11.58 361.9,9.18 393.96,19.983 			"/>
			<polygon fill="#394CD3" points="365.502,7.979 393.96,19.983 390.733,21.435 361.9,9.18 			"/>
		</g>
		<g>
			<polygon fill="#CBCEBC" points="390.107,45.189 381.517,48.508 334.137,28.303 334.137,22.518 390.167,39.523 			"/>
			<polygon fill="#EBEDE4" points="342.124,19.333 390.167,39.523 381.517,42.722 333.774,22.518 			"/>
			<polygon fill="#ADAF9E" points="381.517,42.722 381.517,48.508 333.774,28.303 333.774,22.518 			"/>
		</g>
		<g>
			<polygon fill="#CBCEBC" points="379.629,49.34 371.038,52.659 323.659,32.455 323.659,26.669 379.69,43.674 			"/>
			<polygon fill="#EBEDE4" points="331.647,23.484 379.69,43.674 371.038,46.873 323.298,26.669 			"/>
			<polygon fill="#ADAF9E" points="371.038,46.873 371.038,52.659 323.298,32.455 323.298,26.669 			"/>
		</g>
		<g>
			<polygon fill="#243CB5" points="373.01,30.132 369.358,31.834 340.9,19.83 340.9,17.43 372.96,28.233 			"/>
			<polygon fill="#394CD3" points="344.502,16.229 372.96,28.233 369.733,29.685 340.9,17.43 			"/>
		</g>
		<g>
			<polygon fill="#243CB5" points="363.26,34.382 359.608,36.084 331.15,24.08 331.15,21.68 363.21,32.483 			"/>
			<polygon fill="#394CD3" points="334.752,20.479 363.21,32.483 359.983,33.935 331.15,21.68 			"/>
		</g>
		<g>
			<polygon fill="#CBCEBC" points="369.107,53.439 360.517,56.758 313.137,36.553 313.137,30.768 369.167,47.773 			"/>
			<polygon fill="#EBEDE4" points="321.124,27.583 369.167,47.773 360.517,50.972 312.774,30.768 			"/>
			<polygon fill="#ADAF9E" points="360.517,50.972 360.517,56.758 312.774,36.553 312.774,30.768 			"/>
		</g>
		<g>
			<polygon fill="#CBCEBC" points="358.629,57.59 350.038,60.909 302.659,40.705 302.659,34.919 358.69,51.924 			"/>
			<polygon fill="#EBEDE4" points="310.647,31.734 358.69,51.924 350.038,55.123 302.298,34.919 			"/>
			<polygon fill="#ADAF9E" points="350.038,55.123 350.038,60.909 302.298,40.705 302.298,34.919 			"/>
		</g>
		<g>
			<polygon fill="#243CB5" points="352.01,38.382 348.358,40.084 319.9,28.08 319.9,25.68 351.96,36.483 			"/>
			<polygon fill="#394CD3" points="323.502,24.479 351.96,36.483 348.733,37.935 319.9,25.68 			"/>
		</g>
		<g>
			<polygon fill="#CBCEBC" points="348.107,61.564 339.517,64.883 292.137,44.678 292.137,38.893 348.167,55.898 			"/>
			<polygon fill="#EBEDE4" points="300.124,35.708 348.167,55.898 339.517,59.097 291.774,38.893 			"/>
			<polygon fill="#ADAF9E" points="339.517,59.097 339.517,64.883 291.774,44.678 291.774,38.893 			"/>
		</g>
		<g>
			<polygon fill="#243CB5" points="331.01,46.507 327.358,48.209 298.9,36.205 298.9,33.805 330.96,44.608 			"/>
			<polygon fill="#394CD3" points="302.502,32.604 330.96,44.608 327.733,46.06 298.9,33.805 			"/>
		</g>
	</g>
	<g>
		<polygon fill="#FF553E" points="352.208,146.415 340.208,150.415 340.208,174.415 384.208,190.415 384.208,166.415 
			396.208,162.415 		"/>
		<polygon fill="#FF553E" points="384.208,166.415 396.208,162.415 396.208,186.415 384.208,190.415 		"/>
		<polygon fill="#E0402F" points="340.208,150.415 384.208,166.415 384.208,190.415 340.208,174.415 		"/>
		<polygon fill="#FF5D55" points="384.208,166.415 396.208,162.415 396.208,186.415 384.208,190.415 		"/>
	</g>
</g>
</svg>
