<?xml version="1.0" encoding="utf-8"?>
<!-- Generator: Adobe Illustrator 16.0.0, SVG Export Plug-In . SVG Version: 6.00 Build 0)  -->
<!DOCTYPE svg PUBLIC "-//W3C//DTD SVG 1.1//EN" "http://www.w3.org/Graphics/SVG/1.1/DTD/svg11.dtd">
<svg version="1.1" xmlns="http://www.w3.org/2000/svg" xmlns:xlink="http://www.w3.org/1999/xlink" x="0px" y="0px" width="1133px"
	 height="451px" viewBox="-148.5 -4.5 1133 451" enable-background="new -148.5 -4.5 1133 451" xml:space="preserve">
<g id="Layer_1">
	<path fill="none" stroke="#394CD3" stroke-width="1.3" stroke-miterlimit="10" d="M878.892-313.524c0,0-9.722,0-23.333,9.723
		c-13.611,9.722-15.556,13.61-15.556,13.61l5.833,7.778l-7.777-1.944c0,0-5.833,9.722-7.778,17.5
		c-1.944,7.777-3.889,9.722-3.889,9.722l9.723,3.89l-11.667,1.944c0,0-1.944,7.777-1.944,11.666c0,3.89,0,29.167,0,29.167
		s23.333-3.889,35-9.723c11.667-5.833,19.444-17.5,19.444-17.5s-11.667-9.722-5.833-11.666c5.833-1.944,9.722,1.944,9.722,1.944
		s7.778-13.611,9.723-25.278c1.944-11.666,1.944-19.444,1.944-19.444h-7.777l5.833-5.833l-1.944-17.5L878.892-313.524z"/>
	<g>
		<g>
			<path fill="#6040FF" d="M-723.762-317.765c3.9,14.464,12.654,26.912,27.902,30.42c12.788,2.942,25.905,0.067,38.787-0.312
				c1.871-0.055,3.741-0.021,5.609,0.067c0.862,0.041,1.72,0.124,2.578,0.21c-2.527-0.252,0.115,0.046,0.557,0.128
				c1.52,0.282,3.001,0.725,4.456,1.237c2.407,0.85-1.933-0.934,0.35,0.189c0.679,0.334,1.326,0.729,1.97,1.121
				c0.363,0.222,2.418,1.75,0.488,0.236c0.64,0.502,1.235,1.057,1.832,1.608c1.293,1.198,2.443,2.548,3.555,3.913
				c-1.272-1.564,0.714,1.068,0.756,1.127c0.527,0.758,0.997,1.564,1.511,2.33c1.267,1.895,2.693,3.686,4.119,5.459
				c4.404,5.477,10.543,9.432,17.269,11.391c7.814,2.277,16.095,1.322,23.992,0.191c5.436-0.777,8.337-7.597,7.024-12.369
				c-1.59-5.779-6.949-7.801-12.371-7.025c0.957-0.117,0.834-0.102-0.368,0.044c-0.953,0.115-1.909,0.197-2.864,0.276
				c-1.744,0.146-3.494,0.182-5.242,0.156c-0.684-0.011-4.887-0.486-1.992-0.055c-1.421-0.211-2.811-0.584-4.177-1.025
				c-1.034-0.387-0.876-0.3,0.472,0.258c-0.632-0.27-1.237-0.598-1.841-0.924c-0.609-0.33-1.186-0.716-1.761-1.1
				c-2.009-1.34,1.67,1.42-0.209-0.175c-1.16-0.983-2.194-2.106-3.194-3.248c-0.225-0.257-1.838-2.394-0.479-0.567
				c-0.531-0.713-1.023-1.453-1.517-2.191c-4.254-6.355-8.895-12.045-15.502-16.072c-6.339-3.865-13.917-5.074-21.213-5.309
				c-12-0.386-23.926,2.523-35.933,1.315c-1.124-0.134-0.907-0.104,0.651,0.089c-0.66-0.1-1.315-0.234-1.968-0.371
				c-1.279-0.266-2.528-0.651-3.76-1.086c-1.011-0.393-0.806-0.3,0.615,0.279c-0.59-0.262-1.156-0.568-1.721-0.876
				c-0.571-0.31-1.113-0.669-1.654-1.026c-1.918-1.268,1.722,1.461-0.06-0.047c-0.882-0.748-1.671-1.598-2.434-2.463
				c-1.629-1.852,1.247,1.777-0.216-0.313c-0.451-0.643-0.849-1.322-1.247-1.997c-0.423-0.718-0.792-1.466-1.162-2.21
				c-1.275-2.57,0.702,1.912-0.4-0.895c-0.733-1.868-1.293-3.803-1.815-5.738c-1.426-5.29-7.108-8.472-12.37-7.024
				C-722.041-328.678-725.188-323.055-723.762-317.765L-723.762-317.765z"/>
		</g>
	</g>
	<g>
		<g>
			<path fill="#6040FF" d="M-296.321,132.799c-2.321,9.052-1.387,18.5,5.819,25.084c6.043,5.522,14.05,7.987,21.163,11.734
				c1.033,0.544,2.038,1.138,3.026,1.758c0.456,0.287,0.896,0.595,1.336,0.905c-1.295-0.912,0.048,0.063,0.263,0.241
				c0.739,0.619,1.407,1.314,2.04,2.039c1.046,1.198-0.764-1.101,0.132,0.211c0.267,0.39,0.498,0.802,0.726,1.213
				c0.129,0.232,0.776,1.693,0.192,0.279c0.193,0.468,0.347,0.953,0.501,1.435c0.335,1.047,0.546,2.133,0.73,3.217
				c-0.211-1.24,0.061,0.8,0.065,0.843c0.054,0.574,0.061,1.154,0.105,1.731c0.106,1.416,0.332,2.826,0.562,4.227
				c0.711,4.327,2.833,8.36,5.884,11.488c3.545,3.635,8.336,5.659,12.972,7.467c3.191,1.244,6.86-1.568,7.611-4.563
				c0.91-3.627-1.38-6.372-4.563-7.614c0.556,0.23,0.484,0.203-0.213-0.089c-0.553-0.229-1.098-0.479-1.641-0.729
				c-0.992-0.456-1.954-0.974-2.895-1.524c-0.368-0.216-2.505-1.765-1.065-0.64c-0.707-0.551-1.347-1.181-1.954-1.839
				c-0.442-0.526-0.384-0.432,0.178,0.284c-0.261-0.341-0.488-0.705-0.716-1.066c-0.229-0.366-0.425-0.753-0.619-1.14
				c-0.68-1.341,0.472,1.284-0.06-0.157c-0.328-0.891-0.545-1.817-0.738-2.744c-0.043-0.209-0.264-1.865-0.086-0.456
				c-0.069-0.548-0.11-1.102-0.151-1.655c-0.36-4.757-1.134-9.271-3.488-13.488c-2.256-4.043-6.001-7.026-9.893-9.394
				c-6.399-3.892-13.77-5.971-19.921-10.313c-0.568-0.417-0.46-0.334,0.326,0.249c-0.327-0.258-0.642-0.531-0.955-0.806
				c-0.613-0.537-1.173-1.13-1.708-1.746c-0.429-0.521-0.347-0.408,0.248,0.342c-0.241-0.322-0.455-0.662-0.667-1.002
				c-0.215-0.346-0.398-0.706-0.583-1.066c-0.652-1.278,0.487,1.321-0.018-0.044c-0.25-0.679-0.418-1.381-0.566-2.085
				c-0.316-1.506,0.132,1.349-0.021-0.236c-0.047-0.488-0.055-0.977-0.064-1.467c-0.009-0.519,0.02-1.04,0.047-1.557
				c0.096-1.786-0.205,1.255,0.057-0.609c0.176-1.239,0.464-2.462,0.776-3.674c0.849-3.312-1.261-6.781-4.563-7.611
				C-292.037,127.398-295.473,129.487-296.321,132.799L-296.321,132.799z"/>
		</g>
	</g>
	<g>
		<g>
			<path fill="#6040FF" d="M-321.884-16.053c7.158,8.514,18.632,7.287,28.111,10.867c-2.245-0.848-0.753-0.318-0.251-0.076
				c0.678,0.327,1.32,0.726,1.961,1.119c0.322,0.198,2.039,1.457,0.339,0.136c0.531,0.412,1.013,0.881,1.48,1.364
				c1.144,1.183-1.056-1.555-0.22-0.29c1.085,1.642-0.424-1.413-0.101-0.31c0.17,0.811,0.12,0.408-0.15-1.207
				c-0.014,0.817,0.06,0.403,0.221-1.242c-0.254,1.718,0.849-1.579,0.289-0.526c-0.62,1.164,1.393-1.63,0.502-0.603
				c-0.437,0.504-1.832,1.479,0.316-0.112c-0.408,0.304-0.855,0.552-1.3,0.795c-1.833,1.003,1.35-0.478,0.018,0.023
				c-0.987,0.372-2.018,0.618-3.05,0.825c-0.311,0.06-0.623,0.111-0.936,0.157c1.333-0.171,1.561-0.212,0.684-0.122
				c-0.658,0.062-1.319,0.075-1.979,0.082c-4.362,0.045-8.003,3.606-8.003,8.003c0,4.329,3.64,8.049,8.003,8.004
				c6.162-0.064,13.549-1.705,17.779-6.583c2.959-3.414,3.755-7.031,3.11-11.439c-0.487-3.328-3.235-6.499-5.787-8.483
				c-3.215-2.499-6.516-4.317-10.416-5.556c-2.592-0.823-5.3-1.266-7.971-1.753c-2.653-0.483-5.301-0.998-7.86-1.863
				c-0.287-0.1-0.572-0.205-0.855-0.316c1.212,0.527,1.436,0.618,0.671,0.273c-0.539-0.247-1.054-0.539-1.563-0.841
				c-0.25-0.152-0.497-0.313-0.738-0.481c1.024,0.822,1.216,0.97,0.575,0.442c-0.577-0.478-1.082-1.033-1.562-1.605
				c-2.81-3.342-8.434-2.884-11.318,0C-325.167-24.089-324.689-19.389-321.884-16.053L-321.884-16.053z"/>
		</g>
	</g>
	<g>
		<g>
			<path fill="#6040FF" d="M-261.884,90.614c7.158,8.514,18.632,7.287,28.111,10.867c-2.245-0.848-0.753-0.318-0.251-0.076
				c0.678,0.327,1.32,0.726,1.961,1.119c0.322,0.198,2.039,1.457,0.339,0.136c0.531,0.412,1.013,0.881,1.48,1.364
				c1.144,1.183-1.056-1.555-0.22-0.29c1.085,1.642-0.424-1.413-0.101-0.31c0.17,0.811,0.12,0.408-0.15-1.207
				c-0.014,0.817,0.06,0.403,0.221-1.242c-0.254,1.718,0.849-1.579,0.289-0.526c-0.62,1.164,1.393-1.63,0.502-0.603
				c-0.437,0.504-1.832,1.479,0.316-0.112c-0.408,0.304-0.855,0.552-1.3,0.795c-1.833,1.003,1.35-0.478,0.018,0.023
				c-0.987,0.372-2.018,0.618-3.05,0.825c-0.311,0.06-0.623,0.111-0.936,0.157c1.333-0.171,1.561-0.212,0.684-0.122
				c-0.658,0.062-1.319,0.075-1.979,0.082c-4.362,0.045-8.003,3.606-8.003,8.003c0,4.329,3.64,8.049,8.003,8.004
				c6.162-0.064,13.549-1.705,17.779-6.583c2.959-3.414,3.755-7.031,3.11-11.439c-0.487-3.328-3.235-6.499-5.787-8.483
				c-3.215-2.499-6.516-4.317-10.416-5.556c-2.592-0.823-5.3-1.266-7.971-1.753c-2.653-0.483-5.301-0.998-7.86-1.863
				c-0.287-0.1-0.572-0.205-0.855-0.316c1.212,0.527,1.436,0.618,0.671,0.273c-0.539-0.247-1.054-0.539-1.563-0.841
				c-0.25-0.152-0.497-0.313-0.738-0.481c1.024,0.822,1.216,0.97,0.575,0.442c-0.577-0.478-1.082-1.033-1.562-1.605
				c-2.81-3.342-8.434-2.884-11.318,0C-265.166,82.578-264.688,87.278-261.884,90.614L-261.884,90.614z"/>
		</g>
	</g>
	<circle fill="#13237F" cx="-55.5" cy="325.499" r="27.179"/>
	<circle fill="#2239AA" cx="-53.86" cy="311.617" r="5.783"/>
	<circle fill="#2239AA" cx="-44.898" cy="330.703" r="5.783"/>
	<circle fill="#2239AA" cx="-67.065" cy="332.053" r="3.277"/>
	<circle fill="#2239AA" cx="-37.958" cy="316.438" r="3.277"/>
	<circle fill="#2239AA" cx="-57.163" cy="324.868" r="2.417"/>
	<circle fill="#2239AA" cx="-67.312" cy="313.687" r="2.417"/>
	<circle fill="#2239AA" cx="-57.62" cy="344.581" r="3.277"/>
	<circle fill="#FFE576" cx="639.5" cy="44.208" r="4"/>
	<linearGradient id="SVGID_1_" gradientUnits="userSpaceOnUse" x1="779" y1="44.208" x2="641.5" y2="44.208">
		<stop  offset="0" style="stop-color:#FFFFFF;stop-opacity:0"/>
		<stop  offset="1" style="stop-color:#FFE576"/>
	</linearGradient>
	<rect x="641.5" y="40.833" opacity="0.8" fill="url(#SVGID_1_)" width="137.5" height="6.75"/>
	<g>
		<g>
			<path fill="#394CD3" d="M-72.842,146.453c-2.778-4.398-6.991-7.485-9.949-11.725c-4.258-6.104-0.068-13.04,0.229-19.507
				c0.263-5.723-2.01-10.203-4.267-15.323c-4.006-9.093-3.017-17.749,5.036-24.033c4.297-3.353,9.18-5.654,12.839-9.794
				c3.374-3.817,5.591-8.82,10.093-11.496c4.978-2.958,12.168-1.197,17.48-0.281c5.67,0.977,10.684,1.2,16.02-1.201
				c5.467-2.461,9.67-6.025,15.678-7.407c5.721-1.315,11.689-1.079,17.48-1.86c7.939-1.071,13.602-6.279,12.6-14.503
				c-1.158-9.514-10.146-16.228-19.086-17.449c-4.398-0.602-9.064,1.118-12.545,3.742c-3.002,2.263-5.758,7.323-9.875,7.153
				c-2.973-0.123-6.057-2.522-8.527-3.916c-2.696-1.521-5.395-2.989-8.252-4.188c-5.447-2.286-10.911-1.7-16.265,0.48
				c-4.888,1.991-8.767,5.961-12.681,9.355c-5.305,4.6-10.789,6.596-17.754,6.874c-8.52,0.341-20.495-1.893-26.619,5.837
				c-2.424,3.061-4.395,6.825-3.557,10.863c1.073,5.166,4.814,9.634,4.941,15.003c0.152,6.489-9.45,11.492-13.961,14.578
				c-3.853,2.636-9.404,5.974-9.894,11.144c-0.573,6.05,7.082,9.735,11.312,12.218c6.306,3.702,11.844,8.435,7.395,16.351
				c-2.232,3.969-6.343,6.592-8.786,10.454c-2.034,3.215-2.091,7.724-0.259,11.038c2.405,4.354,6.37,5.939,11.128,6.575
				c6.347,0.85,13.048-0.781,18.731,2.813c4.66,2.945,8.893,8.181,14.783,5.112c0.795-0.415,0.471-2.499-0.42-2.035
				c-5.955,3.102-10.23-3.161-14.993-5.735c-4.144-2.238-8.931-1.896-13.518-1.993c-5.271-0.109-10.914-0.567-14.201-5.238
				c-4.732-6.725,2.538-12.368,6.544-16.84c5.077-5.67,5.704-13.313-0.087-18.569c-4.157-3.772-20.235-8.919-15.108-16.619
				c5.476-8.226,24.817-12.369,22.607-24.882c-0.918-5.195-4.428-9.608-4.975-14.834c-0.909-8.678,9.273-12.406,15.939-12.982
				c10.662-0.921,20.147,1.238,29.354-5.571c4.938-3.652,8.848-8.191,14.496-10.88c7.356-3.502,14.156-1.469,20.918,2.132
				c3.966,2.112,8.503,6.058,13.296,5.528c2.98-0.329,5.215-4.098,7.195-5.947C-1.351,8.64,16.095,15.952,19.069,29.919
				c3.086,14.485-21.832,12.043-29.924,13.904c-4.982,1.146-9.189,3.781-13.471,6.452c-5.833,3.641-12.115,2.76-18.496,1.659
				c-5.131-0.884-10.527-1.688-15.527,0.161c-3.746,1.386-6.145,5.179-8.359,8.263c-3.768,5.249-8.116,8.454-13.442,12.007
				c-4.267,2.847-7.213,5.866-9.388,10.494c-1.961,4.171-1.606,9.41-0.166,13.664c2.578,7.609,6.91,13.77,5.17,22.149
				c-1.08,5.203-2.282,10.035-0.45,15.221c1.979,5.604,8.091,9.167,11.195,14.083C-73.106,149.058-72.374,147.195-72.842,146.453
				L-72.842,146.453z"/>
		</g>
	</g>
	<circle opacity="0.6" fill="#FFE576" cx="596.364" cy="18.126" r="2.65"/>
	<linearGradient id="SVGID_2_" gradientUnits="userSpaceOnUse" x1="645.7139" y1="18.126" x2="596.7432" y2="18.126">
		<stop  offset="0" style="stop-color:#FFFFFF;stop-opacity:0"/>
		<stop  offset="1" style="stop-color:#FFE576"/>
	</linearGradient>
	<rect x="596.743" y="16.422" opacity="0.6" fill="url(#SVGID_2_)" width="48.971" height="3.408"/>
	<circle opacity="0.6" fill="#FFFFFF" cx="595.733" cy="18" r="1.767"/>
	<circle opacity="0.6" fill="#FFE576" cx="376.797" cy="184.292" r="2.65"/>
	<linearGradient id="SVGID_3_" gradientUnits="userSpaceOnUse" x1="426.1465" y1="184.2925" x2="377.1763" y2="184.2925">
		<stop  offset="0" style="stop-color:#FFFFFF;stop-opacity:0"/>
		<stop  offset="1" style="stop-color:#FFE576"/>
	</linearGradient>
	<rect x="377.176" y="182.588" opacity="0.6" fill="url(#SVGID_3_)" width="48.971" height="3.408"/>
	<circle opacity="0.6" fill="#FFFFFF" cx="376.166" cy="184.167" r="1.767"/>
	<g id="Layer_2_1_">
		
			<radialGradient id="SVGID_4_" cx="218.7109" cy="949.1904" r="97.2672" gradientTransform="matrix(0.9814 -0.1918 -0.1138 -0.5824 246.1348 299.2759)" gradientUnits="userSpaceOnUse">
			<stop  offset="0.129" style="stop-color:#FFFFFF;stop-opacity:0.4"/>
			<stop  offset="0.8925" style="stop-color:#FFFFFF;stop-opacity:0"/>
		</radialGradient>
		<path fill="url(#SVGID_4_)" d="M249.021-328.981l35.5,40l139-16.5l32-43C455.521-348.481,333.521-414.981,249.021-328.981z"/>
	</g>
	<g id="Layer_1_1_">
		
			<rect x="67.076" y="-283.219" display="none" fill="none" stroke="#394CD3" stroke-width="2" stroke-miterlimit="10" width="407.999" height="239.728"/>
		<circle fill="#394CD3" cx="224.193" cy="-245.219" r="12"/>
		<circle fill="#394CD3" cx="266.868" cy="-144.096" r="5.525"/>
		<circle fill="#FF553E" cx="414.398" cy="-188.693" r="5.525"/>
		<path fill="none" stroke="#EBEDE4" stroke-width="8" stroke-miterlimit="10" d="M185.706-186.999
			c-12.824,15.192-35.539,17.111-50.731,4.289c-15.191-12.826-17.111-35.541-4.287-50.732"/>
		<path fill="none" stroke="#394CD3" stroke-width="9" stroke-linejoin="round" stroke-miterlimit="10" d="M246.583-173.945
			c16.925-10.437,39.104-5.177,49.539,11.75c10.438,16.924,5.177,39.104-11.749,49.54"/>
		<path fill="none" stroke="#EBEDE4" stroke-width="8" stroke-miterlimit="10" d="M404.02-250.547
			c5.979,18.963-4.555,39.183-23.52,45.155c-18.963,5.977-39.183-4.555-45.155-23.519"/>
		
			<line fill="none" stroke="#EBEDE4" stroke-width="8" stroke-miterlimit="10" x1="-4.625" y1="-269.167" x2="21.375" y2="-234.219"/>
		
			<line fill="none" stroke="#EBEDE4" stroke-width="8" stroke-miterlimit="10" x1="468.375" y1="-110.751" x2="486.375" y2="-134.753"/>
		<circle fill="#394CD3" cx="355.177" cy="-242.713" r="9.348"/>
		<circle fill="#394CD3" cx="281.607" cy="-215.983" r="17.232"/>
		<g>
			<g>
				<g>
					<path fill="#FF553E" d="M259.69-261.499c0.195,0.001,0.176-0.149,0.355-0.046c0.104,0.108,0.035,0.228,0.066,0.339
						c0.432,0.053,0.771,0.449,1.071,0.713c0.355-0.067,0.655,0.305,1.003,0.283c-0.144-0.2,0.06,0.018,0.121-0.047
						c-0.001-0.091-0.029-0.178-0.004-0.269c0.104,0.093,0.219,0.081,0.353-0.063c-0.092-0.068-0.234-0.064-0.122-0.221
						c0.171-0.04,0.313,0.122,0.475,0.155c-0.046-0.085-0.128-0.167-0.003-0.268c0.067,0.142,0.188-0.101,0.252,0.095
						c0.846-0.198,1.661-0.303,2.532-0.893c0.22-0.251,0.42-0.38,0.626-0.56c0.314-0.391,0.684-0.921,0.838-1.213
						c0.03-0.063,0.104-0.124,0.142-0.202c0.047-0.11,0.033-0.267,0.063-0.371c0.038-0.136,0.12-0.257,0.14-0.38
						c-0.059-0.147,0.034-0.316-0.021-0.463c0.143-0.093,0.028-0.147,0.113-0.23c-0.016-0.104-0.05-0.206,0.027-0.322
						c-0.342-1.088-1.063-2.082-1.479-3.191c-0.273-0.348-0.397-0.571-0.634-0.962c-0.482-0.389-0.998-1.063-1.104-1.616
						c-0.044-0.051-0.145,0.063-0.172-0.032c-0.546-1.151-1.055-1.986-1.839-3.25c0.021-0.701-0.56-1.395-1.036-2.029
						c-0.386-0.253-0.646-0.741-0.966-0.931c-0.171-0.369-0.395-0.678-0.556-1.179c-0.375-0.439-0.569-0.83-0.877-1.298
						c0.025-0.55,0.001-1.14-0.253-1.742c-0.269-0.642-0.618-0.889-0.713-1.337c0.104-0.043,0.098-0.104,0.194-0.147
						c-0.085-0.309-0.266-0.631-0.257-0.924c-0.247-0.569-0.355-0.741-0.661-1.338c-0.451-0.514-0.92-1.341-1.533-1.841
						c-0.103-0.275-0.332-0.306-0.414-0.613c-0.064,0.021-0.09-0.038-0.109-0.099c-0.122-0.002-0.232-0.023-0.351-0.041
						c-0.079-0.135-0.194-0.198-0.244-0.392c-0.154-0.038-0.175,0.086-0.255,0.167c-0.098-0.077-0.271-0.01-0.297-0.216
						c-0.135,0.126-0.36,0.232-0.545,0.25c0.042,0.109,0.088,0.219-0.066,0.283c0.062-0.104-0.064-0.204-0.17-0.225
						c0.088,0.118-0.03,0.189,0.078,0.313c-0.189,0.044-0.063,0.159-0.16,0.227c0.1,0.172,0.156,0.333-0.063,0.433
						c-0.094-0.109-0.096-0.391-0.244-0.391c0.061,0.088,0.061,0.161-0.033,0.217c-0.084-0.102-0.215-0.111-0.297-0.216
						c-0.151-0.168-0.027-0.396-0.209-0.455c-0.312,0.104-0.063,0.333-0.176,0.479c0.14,0.032,0.002,0.091,0.097,0.208
						c-0.02,0.096,0.104,0.222-0.067,0.282c-0.059-0.046-0.034-0.244-0.147-0.183c-0.062-0.066-0.041-0.283-0.204-0.156
						c-0.063,0.171,0.122,0.471,0.12,0.548c-0.028-0.104-0.181,0.025-0.224-0.049c-0.073-0.035-0.151-0.311-0.137-0.439
						c-0.165,0.103-0.165,0.272-0.257,0.02c-0.323,0.149-0.009,0.443-0.246,0.613c-0.027-0.176-0.155-0.167-0.205-0.308
						c-0.204,0.088-0.164,0.003-0.188-0.115c-0.186,0.117-0.034,0.545-0.341,0.407c0.126,0.152,0.037,0.257-0.028,0.366
						c-0.072-0.071-0.06-0.305-0.188-0.267c0.02,0.055,0.027,0.104-0.07,0.135c-0.182-0.043-0.317-0.32-0.302-0.516
						c-0.255,0.167,0.017,0.449,0.048,0.683c-0.063,0.034-0.123,0.07-0.068,0.133c0.021,0.283,0.104,0.351,0.155,0.63
						c0.067-0.022,0.151-0.078,0.185-0.034c-0.231,0.035-0.053,0.163-0.232,0.208c-0.159-0.225-0.296-0.335-0.451-0.695
						c-0.132-0.048-0.069,0.231-0.309,0.191c-0.027-0.104-0.082-0.154-0.149-0.183c-0.144-0.096,0.014-0.392-0.188-0.267
						c0.066,0.188,0.255,0.403,0.047,0.531c-0.183-0.046-0.179-0.438-0.395-0.423c0.087,0.086-0.161,0.281,0.063,0.273
						c-0.021-0.044-0.021-0.117,0.033-0.066c0.156,0.097,0.105,0.334,0.117,0.396c-0.067,0.061-0.306,0.081-0.254,0.167
						c0.076-0.029,0.104,0.079-0.018,0.106c0.021,0.065,0.089,0.146,0.021,0.19c-0.001-0.111-0.313-0.019-0.147-0.184l-0.152-0.332
						c-0.021-0.055,0.044-0.089-0.004-0.146c-0.069-0.071-0.057-0.306-0.188-0.268c0.104,0.197,0.051,0.358,0.193,0.564
						c-0.056,0.075-0.058,0.161-0.161,0.225l0.097,0.207c-0.227,0.124-0.057,0.335-0.176,0.482c0.027,0.073,0.069,0.124,0.131,0.141
						c-0.063,0.035-0.122,0.072-0.069,0.133c0.168,0.482,0.178,0.771,0.332,1.153c0.023,0.068-0.124,0.097-0.054,0.175
						c0.046,0.199,0.2,0.191,0.245,0.392c-0.218,0.019-0.162,0.081-0.232,0.208c-0.063-0.138-0.204-0.554-0.307-0.663
						c0.163,0.847,0.694,1.813,0.978,2.714c0.074-0.011,0.146-0.015,0.205,0.007c-0.247,0.035,0.07,0.193-0.078,0.251
						c0.073,0.129,0.271,0.209,0.14,0.413c0.246-0.01,0.146,0.283,0.317,0.375c0.042,0.085-0.119,0.128-0.021,0.226
						c0.241,0.318,0.234,0.665,0.307,0.864c0.113,0.353,0.365,0.619,0.493,0.923c0.034,0.082-0.021,0.176,0.008,0.268
						c0.021,0.063,0.14,0.121,0.165,0.183c0.146,0.339,0.149,0.646,0.293,0.925c0.949,1.298,1.46,2.727,2.577,3.758
						c-0.091,0.052-0.112,0.111-0.104,0.177c0.303,0.021,0.258,0.68,0.709,0.464c0.014,0.266,0.4,0.343,0.42,0.645
						c0.063-0.031,0.142-0.099,0.179-0.057c-0.057,0.044-0.146,0.084-0.126,0.137c0.152-0.021,0.184,0.327,0.359,0.225
						c-0.175,0.06,0.082,0.229,0.08,0.233c0.027,0.1,0.025,0.218,0.186,0.281c-0.024,0.123,0.026,0.254,0.106,0.388
						c0.021,0.053-0.016,0.101-0.047,0.147c0.224,0.212,0.259,0.854,0.479,1.065c-0.122,0.065,0.021,0.154-0.065,0.225l0.171,0.233
						c0.127,0.965,0.581,2.146,1.008,3.021l0.176,0.238c0.033,0.054-0.021,0.104,0.039,0.154c0.119,0.178,0.266,0.34,0.397,0.508
						c0.043,0.048,0.104,0.007,0.144,0.078c0.231,0.271,0.451,0.611,0.707,0.772c0.024,0.113-0.05,0.229,0.051,0.344
						c0.229,0.229,0.479,0.345,0.75,0.349c-0.063,0.063,0.033,0.129,0.08,0.191c0.126,0.067,0.598,0.224,0.349,0.422
						c-0.021-0.021-0.073-0.013-0.048,0.039C259.493-261.9,259.565-261.674,259.69-261.499z M251.223-286.258
						c0.305-0.004,0.146,0.426,0.356,0.638C251.279-285.813,251.422-285.875,251.223-286.258z M251.943-285.836
						c0.146-0.128-0.063-0.152-0.099-0.355l0.162-0.075c0.065,0.208,0.047,0.226,0.172,0.373
						C252.075-285.826,252.024-285.857,251.943-285.836z"/>
				</g>
			</g>
		</g>
		<g>
			<g>
				<g>
					<path fill="#FF553E" d="M549.479-144.54c0.158,0.011,0.229-0.063,0.313-0.006c0.021,0.061-0.102,0.108-0.143,0.164
						c0.309,0.049,0.348,0.262,0.434,0.401c0.316-0.003,0.342,0.191,0.627,0.218c0.004-0.104,0.033,0.014,0.121-0.009
						c0.053-0.041,0.078-0.084,0.148-0.124c0.027,0.055,0.127,0.061,0.314,0.007c-0.031-0.042-0.148-0.055,0.027-0.114
						c0.156,0,0.18,0.092,0.285,0.123c0.016-0.043-0.006-0.093,0.15-0.123c-0.025,0.071,0.207-0.022,0.145,0.071
						c0.787,0.007,1.504,0.077,2.545-0.061c0.316-0.086,0.557-0.113,0.822-0.165c0.479-0.138,1.074-0.341,1.363-0.464
						c0.059-0.023,0.156-0.043,0.229-0.076c0.102-0.051,0.178-0.139,0.26-0.188c0.105-0.063,0.238-0.114,0.32-0.181
						c0.035-0.094,0.201-0.168,0.236-0.265c0.164-0.021,0.104-0.075,0.219-0.104c0.045-0.063,0.07-0.129,0.197-0.18
						c0.309-0.705,0.273-1.479,0.418-2.234c-0.07-0.264-0.07-0.426-0.084-0.715c-0.221-0.323-0.34-0.832-0.258-1.18
						c-0.02-0.036-0.15,0.03-0.143-0.031c-0.068-0.771-0.156-1.38-0.488-2.209c0.238-0.476-0.063-0.941-0.291-1.366
						c-0.271-0.153-0.402-0.442-0.646-0.542c-0.063-0.229-0.189-0.411-0.217-0.73c-0.234-0.254-0.311-0.5-0.5-0.766
						c0.139-0.363,0.23-0.759,0.123-1.131c-0.117-0.394-0.377-0.513-0.387-0.796c0.104-0.048,0.104-0.085,0.201-0.132
						c-0.023-0.183-0.137-0.353-0.08-0.539c-0.133-0.315-0.201-0.404-0.381-0.728c-0.318-0.257-0.613-0.644-1.098-0.804
						c-0.049-0.144-0.254-0.106-0.279-0.274c-0.063,0.026-0.074-0.004-0.086-0.033c-0.107,0.022-0.209,0.04-0.311,0.056
						c-0.053-0.063-0.146-0.075-0.162-0.18c-0.135,0.013-0.17,0.092-0.254,0.157c-0.076-0.022-0.244,0.058-0.236-0.063
						c-0.141,0.106-0.363,0.225-0.531,0.274c0.021,0.059,0.047,0.113-0.104,0.188c0.07-0.077-0.027-0.107-0.117-0.097
						c0.063,0.052-0.059,0.123,0.021,0.173c-0.184,0.069-0.082,0.11-0.184,0.173c0.063,0.081,0.092,0.165-0.127,0.276
						c-0.063-0.046-0.021-0.216-0.16-0.183c0.039,0.038,0.027,0.086-0.063,0.142c-0.063-0.041-0.18-0.021-0.236-0.063
						c-0.111-0.063,0.035-0.23-0.117-0.229c-0.299,0.135-0.107,0.217-0.23,0.332c0.119-0.014-0.016,0.055,0.055,0.104
						c-0.029,0.063,0.063,0.111-0.105,0.188c-0.045-0.02,0.01-0.143-0.105-0.076c-0.043-0.026,0.008-0.162-0.16-0.049
						c-0.086,0.118,0.039,0.258,0.023,0.305c-0.01-0.058-0.166,0.059-0.191,0.021c-0.063-0.004-0.09-0.15-0.057-0.233
						c-0.164,0.102-0.191,0.203-0.234,0.069c-0.314,0.166-0.076,0.271-0.314,0.429c0-0.103-0.115-0.063-0.143-0.14
						c-0.199,0.103-0.146,0.039-0.146-0.026c-0.188,0.112-0.115,0.339-0.371,0.326c0.092,0.063-0.008,0.146-0.084,0.229
						c-0.059-0.025-0.006-0.172-0.129-0.117c0.008,0.027,0.01,0.061-0.086,0.1c-0.156,0.016-0.238-0.121-0.193-0.242
						c-0.256,0.16-0.057,0.271-0.063,0.398c-0.063,0.037-0.123,0.07-0.086,0.1c-0.021,0.167,0.039,0.188,0.047,0.346
						c0.064-0.028,0.148-0.082,0.172-0.063c-0.219,0.072-0.07,0.109-0.242,0.18c-0.109-0.102-0.221-0.135-0.305-0.315
						c-0.109,0-0.102,0.155-0.311,0.188c-0.008-0.059-0.051-0.074-0.107-0.076c-0.111-0.022,0.072-0.237-0.129-0.116
						c0.031,0.103,0.168,0.188-0.039,0.313c-0.154,0.014-0.094-0.228-0.291-0.166c0.064,0.03-0.188,0.207,0.016,0.149
						c-0.018-0.021-0.002-0.063,0.043-0.05c0.125,0.022,0.045,0.179,0.043,0.216c-0.07,0.055-0.287,0.117-0.256,0.158
						c0.074-0.035,0.084,0.023-0.031,0.068c0.008,0.036,0.063,0.065-0.01,0.108c0.018-0.065-0.279,0.063-0.107-0.074l-0.086-0.165
						c-0.012-0.028,0.053-0.064,0.021-0.093c-0.059-0.024-0.008-0.17-0.133-0.114c0.064,0.095-0.012,0.204,0.092,0.297
						c-0.064,0.058-0.076,0.108-0.186,0.173l0.059,0.104c-0.227,0.127-0.104,0.218-0.232,0.332c0.016,0.037,0.047,0.061,0.098,0.058
						c-0.063,0.036-0.123,0.069-0.086,0.097c0.078,0.255,0.043,0.427,0.123,0.622c0.014,0.035-0.127,0.087-0.072,0.117
						c0.012,0.108,0.15,0.067,0.16,0.18c-0.197,0.063-0.156,0.088-0.242,0.182c-0.039-0.064-0.102-0.287-0.176-0.332
						c0.033,0.479,0.313,0.934,0.396,1.403c0.064-0.021,0.131-0.04,0.182-0.04c-0.229,0.073,0.027,0.098-0.117,0.165
						c0.041,0.063,0.205,0.063,0.047,0.214c0.225-0.062,0.076,0.135,0.217,0.15c0.021,0.042-0.133,0.104-0.063,0.141
						c0.16,0.137,0.078,0.336,0.084,0.438c0.02,0.18,0.17,0.28,0.207,0.434c0.012,0.039-0.063,0.104-0.061,0.15
						c0.004,0.028,0.094,0.041,0.102,0.069c0.043,0.166-0.027,0.342,0.027,0.474c0.537,0.553,0.514,1.299,1.221,1.71
						c-0.096,0.041-0.133,0.078-0.146,0.111c0.271-0.028-0.004,0.347,0.459,0.172c-0.086,0.146,0.221,0.146,0.125,0.314
						c0.064-0.021,0.152-0.067,0.176-0.052c-0.064,0.031-0.158,0.063-0.158,0.093c0.141-0.031,0.037,0.162,0.229,0.088
						c-0.174,0.053-0.016,0.119-0.02,0.123c-0.012,0.056-0.057,0.116,0.057,0.142c-0.064,0.067-0.064,0.139-0.049,0.205
						c-0.002,0.024-0.049,0.055-0.094,0.084c0.113,0.098-0.092,0.44,0.02,0.541c-0.133,0.044-0.039,0.077-0.145,0.124l0.047,0.115
						c-0.293,0.519-0.406,1.104-0.418,1.531l0.047,0.114c0.008,0.023-0.063,0.053-0.039,0.077l0.07,0.248
						c0.01,0.021,0.08,0.002,0.072,0.038c0.047,0.134,0.049,0.302,0.17,0.383c-0.039,0.056-0.158,0.109-0.143,0.168
						c0.068,0.109,0.209,0.172,0.428,0.18c-0.084,0.029-0.039,0.063-0.033,0.095c0.064,0.035,0.367,0.125,0.061,0.211
						c-0.002-0.011-0.053-0.008-0.059,0.021C549.525-144.734,549.471-144.625,549.479-144.54z M549.934-157.835
						c0.277-0.067,0.068,0.228,0.229,0.308C549.92-157.579,550.055-157.647,549.934-157.835z M550.523-157.745
						c0.154-0.11-0.033-0.077-0.035-0.192l0.16-0.082c0.029,0.108,0.008,0.125,0.102,0.188
						C550.641-157.768,550.598-157.775,550.523-157.745z"/>
				</g>
			</g>
		</g>
		<g>
			<g>
				<g>
					<path fill="#394CD3" d="M422.469-85.4c0.08,0.147,0.197,0.127,0.184,0.27c-0.057,0.082-0.18,0.029-0.264,0.059
						c0.117,0.322-0.096,0.59-0.205,0.826c0.188,0.289-0.039,0.515,0.076,0.793c0.129-0.107,0.004,0.045,0.074,0.1
						c0.074,0.002,0.143-0.02,0.227,0.005c-0.051,0.081-0.008,0.18,0.152,0.289c0.035-0.072-0.012-0.189,0.154-0.097
						c0.082,0.14-0.02,0.256-0.006,0.389c0.064-0.036,0.109-0.104,0.23,0.002c-0.105,0.06,0.137,0.16-0.018,0.211
						c0.393,0.718,0.66,1.448,1.346,2.261c0.266,0.197,0.416,0.387,0.613,0.576c0.404,0.287,0.953,0.609,1.254,0.734
						c0.063,0.026,0.133,0.096,0.211,0.121c0.111,0.036,0.262,0.004,0.367,0.021c0.139,0.021,0.268,0.092,0.391,0.092
						c0.139-0.078,0.314-0.014,0.457-0.094c0.105,0.127,0.148,0.006,0.244,0.077c0.104-0.032,0.203-0.088,0.33-0.028
						c1.061-0.563,1.984-1.588,2.9-2.494c0.262-0.424,0.439-0.646,0.727-1.071c0.211-0.663,0.637-1.499,1.045-1.944
						c0.023-0.067-0.127-0.095-0.057-0.179c0.385-0.599,0.682-1.158,0.947-1.767c0.287-0.604,0.508-1.265,0.721-2.063
						c0.576-0.52,0.648-1.551,0.775-2.428c-0.129-0.488-0.02-1.086-0.146-1.461c0.113-0.434,0.1-0.842,0.27-1.389
						c-0.041-0.623,0.027-1.093-0.018-1.688c0.299-0.482,0.588-1.062,0.627-1.767c0.049-0.748-0.127-1.154-0.051-1.636
						c0.111,0.005,0.131-0.062,0.234-0.062c0.039-0.345-0.004-0.745,0.111-1.04c-0.012-0.688-0.078-0.896-0.162-1.625
						c-0.229-0.7-0.488-1.697-0.949-2.364c-0.023-0.316-0.24-0.378-0.242-0.661c-0.068,0.011-0.076-0.05-0.082-0.104
						c-0.117-0.023-0.223-0.063-0.326-0.102c-0.045-0.132-0.143-0.21-0.141-0.386c-0.141-0.063-0.188,0.043-0.285,0.103
						c-0.074-0.086-0.26-0.062-0.23-0.242c-0.16,0.086-0.406,0.136-0.588,0.117c0.014,0.104,0.027,0.207-0.139,0.231
						c0.084-0.082-0.014-0.188-0.105-0.227c0.055,0.119-0.076,0.16-0.004,0.289c-0.193,0.004-0.102,0.127-0.211,0.166
						c0.055,0.168,0.068,0.316-0.172,0.362c-0.063-0.11,0.008-0.354-0.139-0.386c0.033,0.087,0.018,0.151-0.088,0.186
						c-0.057-0.104-0.18-0.14-0.229-0.242c-0.105-0.174,0.07-0.354-0.09-0.438c-0.322,0.033-0.145,0.277-0.289,0.391
						c0.125,0.055-0.02,0.078,0.041,0.195c-0.041,0.08,0.043,0.214-0.139,0.234c-0.045-0.052,0.025-0.22-0.1-0.188
						c-0.041-0.067,0.029-0.256-0.158-0.176c-0.104,0.14,0,0.437-0.021,0.5c0-0.096-0.18-0.01-0.199-0.084
						c-0.063-0.044-0.068-0.298-0.02-0.406c-0.186,0.058-0.229,0.206-0.25-0.03c-0.354,0.067-0.119,0.386-0.393,0.489
						c0.016-0.157-0.109-0.178-0.123-0.308c-0.219,0.039-0.16-0.027-0.148-0.136c-0.207,0.067-0.17,0.47-0.432,0.293
						c0.084,0.156-0.027,0.229-0.121,0.313c-0.051-0.073,0.021-0.272-0.113-0.268c0.004,0.05,0.002,0.097-0.104,0.104
						c-0.164-0.069-0.229-0.339-0.16-0.505c-0.289,0.102-0.102,0.396-0.125,0.604c-0.068,0.019-0.137,0.039-0.104,0.103
						c-0.053,0.251,0.012,0.323-0.006,0.579c0.068-0.008,0.166-0.04,0.186,0.004c-0.232-0.012-0.092,0.135-0.275,0.142
						c-0.1-0.229-0.201-0.349-0.264-0.689c-0.113-0.063-0.127,0.189-0.346,0.109c0-0.098-0.039-0.149-0.1-0.188
						c-0.113-0.106,0.107-0.339-0.115-0.268c0.02,0.178,0.145,0.397-0.088,0.473c-0.162-0.072-0.063-0.416-0.271-0.438
						c0.064,0.09-0.227,0.215-0.012,0.25c-0.012-0.043,0.008-0.106,0.053-0.056c0.125,0.113,0.021,0.313,0.014,0.369
						c-0.08,0.039-0.313,0.019-0.285,0.103c0.082-0.017,0.082,0.088-0.043,0.09c0.002,0.063,0.051,0.144-0.027,0.173
						c0.027-0.102-0.297-0.072-0.098-0.188l-0.064-0.315c-0.006-0.051,0.064-0.069,0.035-0.131c-0.053-0.074,0.021-0.274-0.113-0.27
						c0.053,0.192-0.043,0.322,0.045,0.528c-0.07,0.056-0.096,0.13-0.211,0.166l0.039,0.197c-0.248,0.063-0.139,0.28-0.289,0.39
						c0.012,0.069,0.039,0.12,0.092,0.147c-0.068,0.019-0.137,0.037-0.104,0.103c0.047,0.461-0.059,0.639-0.02,0.973
						c0.002,0.059-0.146,0.057-0.104,0.123c-0.021,0.158,0.131,0.184,0.113,0.339c-0.213-0.024-0.18,0.03-0.287,0.111
						c-0.02-0.111-0.023-0.446-0.086-0.549c-0.076,0.658,0.051,1.468-0.02,2.186c0.07,0.015,0.143,0.025,0.188,0.06
						c-0.24-0.037-0.004,0.156-0.166,0.158c0.016,0.105,0.166,0.217-0.039,0.321c0.23,0.062,0.021,0.237,0.145,0.351
						c0.004,0.068-0.16,0.057-0.107,0.146c0.094,0.287-0.043,0.522-0.078,0.684c-0.063,0.271,0.039,0.525,0.014,0.771
						c-0.01,0.065-0.104,0.106-0.117,0.177c-0.01,0.05,0.066,0.126,0.063,0.179c-0.02,0.271-0.18,0.465-0.189,0.688
						c0.107,0.585,0.063,1.146,0.004,1.676c-0.031,0.541-0.084,1.058,0.063,1.607c-0.104-0.02-0.156,0.002-0.188,0.039
						c0.234,0.17-0.205,0.477,0.268,0.602c-0.168,0.14,0.068,0.383-0.111,0.537c0.064,0.021,0.168,0.029,0.168,0.07
						c-0.068-0.01-0.164-0.041-0.184-0.004c0.129,0.074-0.08,0.256,0.119,0.309c-0.168-0.069-0.088,0.154-0.094,0.156
						c-0.043,0.063-0.121,0.115-0.059,0.234c-0.104,0.037-0.152,0.127-0.188,0.229c-0.021,0.033-0.078,0.033-0.133,0.035
						c0.01,0.224-0.396,0.511-0.389,0.729c-0.129-0.053-0.086,0.072-0.197,0.044l-0.063,0.188c-0.316,0.207-0.615,0.469-0.881,0.741
						c-0.271,0.269-0.531,0.535-0.725,0.783l-0.072,0.172c-0.018,0.037-0.086,0.01-0.09,0.063c-0.053,0.125-0.121,0.24-0.182,0.36
						c-0.016,0.037,0.053,0.072,0.016,0.109c-0.094,0.202-0.246,0.405-0.24,0.61c-0.074,0.033-0.199-0.004-0.24,0.081
						c-0.07,0.188-0.051,0.378,0.07,0.579c-0.078-0.04-0.086,0.037-0.113,0.076c0.004,0.1,0.094,0.473-0.178,0.299
						c0.012-0.016-0.021-0.057-0.051-0.031C422.691-85.581,422.551-85.505,422.469-85.4z M430.563-103.779
						c0.295,0.054,0.035,0.397,0.188,0.623C430.51-103.378,430.658-103.407,430.563-103.779z M431.152-103.278
						c0.176-0.085-0.021-0.146-0.006-0.329l0.178-0.035c0.014,0.192-0.014,0.203,0.07,0.356
						C431.275-103.241,431.234-103.282,431.152-103.278z"/>
				</g>
			</g>
		</g>
		<g>
			<g>
				<g>
					<path fill="#EBEDE4" d="M408.168-129.306c-0.145-0.107-0.232-0.007-0.295-0.171c0-0.125,0.131-0.158,0.188-0.244
						c-0.273-0.271-0.24-0.702-0.275-1.03c-0.305-0.162-0.26-0.558-0.521-0.742c-0.037,0.199-0.029-0.043-0.119-0.043
						c-0.063,0.056-0.104,0.123-0.186,0.16c-0.012-0.112-0.104-0.176-0.297-0.166c0.02,0.099,0.123,0.181-0.063,0.205
						c-0.148-0.074-0.141-0.258-0.23-0.367c-0.025,0.076-0.023,0.175-0.184,0.158c0.047-0.123-0.207-0.052-0.117-0.201
						c-0.742-0.375-1.398-0.806-2.438-0.979c-0.332,0.021-0.564-0.021-0.84-0.04c-0.498,0.044-1.133,0.148-1.443,0.236
						c-0.064,0.018-0.164,0.011-0.242,0.039c-0.109,0.039-0.209,0.146-0.305,0.193c-0.121,0.063-0.27,0.088-0.363,0.153
						c-0.063,0.131-0.245,0.183-0.31,0.313c-0.162-0.028-0.121,0.074-0.241,0.074c-0.063,0.076-0.106,0.166-0.243,0.192
						c-0.513,0.924-0.722,2.043-1.094,3.047c-0.019,0.402-0.066,0.631-0.146,1.039c0.105,0.56,0.074,1.324-0.184,1.785
						c0.002,0.063,0.149,0.037,0.113,0.123c-0.279,1.139-0.473,2.043-0.543,3.4c-0.429,0.506-0.365,1.338-0.354,2.064
						c0.18,0.403,0.129,0.928,0.294,1.244c-0.063,0.379-0.044,0.737-0.188,1.218c0.071,0.54,0.014,0.95,0.042,1.476
						c-0.309,0.428-0.589,0.92-0.685,1.531c-0.097,0.648,0.058,1.021-0.065,1.426c-0.111-0.014-0.135,0.043-0.239,0.035
						c-0.067,0.287-0.062,0.633-0.2,0.869c-0.044,0.578-0.024,0.771-0.033,1.396c0.149,0.639,0.217,1.455,0.553,2.08
						c-0.028,0.254,0.166,0.365,0.104,0.64c0.068,0.009,0.063,0.063,0.058,0.121c0.107,0.048,0.199,0.106,0.297,0.165
						c0.015,0.136,0.091,0.229,0.052,0.398c0.123,0.088,0.191-0.002,0.302-0.033c0.054,0.098,0.238,0.107,0.173,0.281
						c0.177-0.05,0.429-0.044,0.604,0.016c0.009-0.104,0.017-0.205,0.186-0.195c-0.102,0.062-0.029,0.188,0.056,0.24
						c-0.024-0.127,0.11-0.141,0.064-0.277c0.19,0.039,0.127-0.102,0.242-0.112c-0.016-0.174,0.004-0.32,0.248-0.313
						c0.034,0.122-0.085,0.342,0.051,0.398c-0.017-0.094,0.02-0.148,0.123-0.155c0.032,0.108,0.146,0.169,0.175,0.28
						c0.063,0.188-0.146,0.32-0.012,0.438c0.323,0.037,0.204-0.234,0.366-0.312c-0.108-0.078,0.038-0.07,0.006-0.198
						c0.059-0.067,0.003-0.214,0.186-0.194c0.031,0.06-0.074,0.204,0.058,0.2c0.022,0.075-0.088,0.237,0.113,0.2
						c0.136-0.107,0.098-0.414,0.132-0.478c-0.021,0.095,0.174,0.05,0.18,0.123c0.051,0.06,0.002,0.304-0.068,0.396
						c0.191-0.017,0.27-0.15,0.236,0.085c0.355,0.007,0.201-0.347,0.488-0.39c-0.051,0.147,0.066,0.19,0.053,0.318
						c0.225,0.011,0.148,0.063,0.115,0.161c0.221-0.021,0.271-0.413,0.482-0.188c-0.047-0.168,0.08-0.216,0.189-0.273
						c0.031,0.083-0.082,0.26,0.053,0.279c0.008-0.049,0.021-0.095,0.121-0.076c0.146,0.104,0.146,0.373,0.049,0.519
						c0.303-0.031,0.184-0.355,0.254-0.553c0.072-0.002,0.145-0.008,0.121-0.076c0.104-0.229,0.063-0.313,0.133-0.555
						c-0.068-0.009-0.17,0.004-0.18-0.043c0.227,0.063,0.119-0.107,0.303-0.074c0.045,0.237,0.121,0.377,0.105,0.719
						c0.098,0.092,0.164-0.15,0.357-0.027c-0.021,0.092,0.008,0.148,0.059,0.198c0.088,0.13-0.184,0.302,0.053,0.278
						c0.021-0.175-0.051-0.414,0.189-0.435c0.145,0.104-0.031,0.412,0.17,0.479c-0.041-0.101,0.268-0.157,0.063-0.234
						c0.002,0.041-0.029,0.102-0.063,0.036c-0.1-0.136,0.051-0.304,0.066-0.354c0.09-0.021,0.313,0.054,0.303-0.033
						c-0.082-0.005-0.063-0.103,0.064-0.078c0.012-0.06-0.02-0.146,0.063-0.154c-0.051,0.088,0.271,0.133,0.055,0.196l-0.008,0.318
						c-0.004,0.051-0.078,0.054-0.063,0.117c0.031,0.084-0.08,0.261,0.055,0.278c-0.012-0.192,0.111-0.3,0.07-0.517
						c0.082-0.039,0.121-0.104,0.244-0.115l0.004-0.195c0.256-0.013,0.195-0.24,0.365-0.313c0.008-0.068-0.012-0.124-0.057-0.161
						c0.072-0.002,0.145-0.008,0.123-0.075c0.059-0.44,0.176-0.67,0.203-1.028c0.008-0.063,0.152-0.027,0.123-0.115
						c0.047-0.174-0.098-0.229-0.053-0.4c0.203,0.07,0.184,0,0.303-0.069c0,0.131-0.059,0.511-0.016,0.638
						c0.211-0.744,0.191-1.646,0.355-2.42c-0.07-0.021-0.137-0.046-0.18-0.084c0.232,0.064,0.023-0.173,0.186-0.155
						c-0.006-0.123-0.146-0.259,0.066-0.354c-0.225-0.091-0.002-0.268-0.109-0.398c0.004-0.079,0.166-0.047,0.125-0.156
						c-0.066-0.325,0.096-0.582,0.145-0.749c0.08-0.295,0-0.586,0.047-0.853c0.014-0.072,0.107-0.114,0.131-0.189
						c0.016-0.053-0.059-0.143-0.051-0.192c0.051-0.301,0.201-0.517,0.225-0.771c-0.18-1.313,0.23-2.484-0.162-3.693
						c0.104,0.01,0.154-0.021,0.186-0.064c-0.246-0.154,0.164-0.574-0.324-0.651c0.146-0.186-0.127-0.43,0.033-0.643
						c-0.068-0.011-0.172-0.003-0.178-0.052c0.07-0.004,0.17,0.019,0.182-0.028c-0.139-0.063,0.043-0.313-0.162-0.331
						c0.178,0.048,0.064-0.192,0.07-0.197c0.035-0.08,0.104-0.157,0.018-0.278c0.094-0.068,0.123-0.187,0.139-0.313
						c0.016-0.045,0.066-0.062,0.123-0.074c-0.059-0.254,0.287-0.697,0.229-0.953c0.141,0.021,0.072-0.111,0.189-0.107l0.014-0.242
						c0.5-0.688,0.879-1.674,1.092-2.447l0.016-0.239c0.006-0.054,0.08-0.054,0.064-0.119l0.016-0.532
						c-0.002-0.056-0.074-0.063-0.059-0.125c-0.002-0.3,0.053-0.632-0.039-0.868c0.057-0.085,0.188-0.116,0.189-0.241
						c-0.027-0.267-0.146-0.478-0.348-0.629c0.09-0.006,0.059-0.099,0.063-0.164c-0.053-0.109-0.309-0.47,0.012-0.451
						c0,0.021,0.049,0.049,0.063,0.002C408.059-128.948,408.148-129.128,408.168-129.306z M401.516-107.848
						c-0.275-0.114,0.053-0.391-0.045-0.638C401.656-108.219,401.502-108.224,401.516-107.848z M401.051-108.454
						c-0.189,0.043-0.016,0.146-0.068,0.313l-0.18-0.004c0.027-0.188,0.057-0.192,0.01-0.354
						C400.936-108.514,400.969-108.469,401.051-108.454z"/>
				</g>
			</g>
		</g>
		<g>
			<g>
				<g>
					<path fill="#394CD3" d="M347.412-83.601c0.189-0.005,0.188-0.148,0.352-0.052c0.083,0.107,0.005,0.221,0.02,0.329
						c0.395,0.06,0.658,0.456,0.912,0.721c0.366-0.044,0.58,0.339,0.905,0.372c-0.094-0.211,0.051,0.021,0.124-0.024
						c0.02-0.086,0.009-0.175,0.054-0.259c0.077,0.104,0.191,0.111,0.352-0.006c-0.073-0.084-0.215-0.104-0.074-0.233
						c0.171-0.013,0.274,0.172,0.427,0.23c-0.026-0.092-0.091-0.188,0.051-0.263c0.04,0.148,0.203-0.063,0.229,0.141
						c0.865-0.033,1.728,0.078,2.752-0.242c0.271-0.188,0.508-0.256,0.758-0.37c0.397-0.3,0.866-0.74,1.065-1.011
						c0.039-0.057,0.133-0.098,0.177-0.172c0.063-0.104,0.061-0.291,0.103-0.401c0.054-0.144,0.153-0.25,0.184-0.39
						c-0.059-0.201,0.057-0.363-0.002-0.565c0.159-0.052,0.036-0.168,0.139-0.23c-0.015-0.137-0.053-0.276,0.038-0.391
						c-0.395-1.496-1.354-3.052-2.189-4.488c-0.392-0.477-0.631-0.768-1.066-1.303c-0.355-0.271-0.748-0.627-1.102-0.998
						c-0.364-0.347-0.688-0.709-0.891-1.035c-0.076-0.061-0.138,0.084-0.218-0.028c-1.204-1.337-2.246-2.313-3.938-3.501
						c-0.428-0.8-1.543-1.385-2.486-1.932c-0.589-0.125-1.214-0.528-1.682-0.603c-0.441-0.323-0.896-0.526-1.431-0.974
						c-0.704-0.292-1.188-0.607-1.848-0.901c-0.395-0.536-0.884-1.104-1.596-1.551c-0.755-0.479-1.276-0.555-1.723-0.92
						c0.063-0.096,0.008-0.146,0.063-0.237c-0.328-0.24-0.758-0.447-0.987-0.726c-0.698-0.403-0.931-0.504-1.688-0.896
						c-0.857-0.264-1.824-0.694-2.715-0.774c-0.282-0.178-0.507-0.073-0.813-0.312c-0.041,0.058-0.104,0.017-0.173-0.026
						c-0.106,0.063-0.226,0.106-0.34,0.153c-0.17-0.075-0.319-0.069-0.508-0.216c-0.165,0.053-0.089,0.173-0.1,0.289
						c-0.146-0.019-0.244,0.141-0.426-0.029c-0.021,0.188-0.146,0.405-0.293,0.522c0.119,0.072,0.24,0.146,0.151,0.291
						c-0.024-0.129-0.212-0.146-0.315-0.108c0.164,0.063,0.115,0.188,0.309,0.239c-0.139,0.146,0.063,0.178,0.023,0.29
						c0.217,0.102,0.392,0.212,0.269,0.424c-0.164-0.048-0.375-0.298-0.509-0.216c0.115,0.047,0.174,0.111,0.134,0.212
						c-0.148-0.043-0.272,0.02-0.425-0.029c-0.262-0.064-0.322-0.341-0.525-0.296c-0.193,0.265,0.191,0.334,0.207,0.529
						c0.146-0.047,0.068,0.079,0.239,0.133c0.057,0.097,0.258,0.144,0.149,0.291c-0.086-0.01-0.214-0.198-0.271-0.08
						c-0.104-0.026-0.249-0.231-0.299-0.028c0.068,0.188,0.462,0.354,0.518,0.426c-0.103-0.075-0.138,0.121-0.23,0.076
						c-0.091,0.01-0.364-0.191-0.447-0.317c-0.07,0.181,0.06,0.336-0.214,0.153c-0.175,0.313,0.324,0.403,0.243,0.688
						c-0.156-0.144-0.267-0.063-0.411-0.162c-0.114,0.188-0.146,0.094-0.25-0.003c-0.075,0.208,0.377,0.511,0.006,0.554
						c0.227,0.067,0.226,0.211,0.246,0.348c-0.115-0.024-0.277-0.24-0.363-0.137c0.056,0.039,0.104,0.078,0.037,0.156
						c-0.192,0.063-0.521-0.111-0.651-0.296c-0.102,0.289,0.353,0.396,0.555,0.585c-0.028,0.066-0.057,0.133,0.036,0.158
						c0.229,0.243,0.354,0.258,0.611,0.479c0.042-0.059,0.075-0.151,0.137-0.131c-0.182,0.158,0.074,0.174-0.052,0.314
						c-0.311-0.115-0.512-0.142-0.921-0.378c-0.151,0.025,0.11,0.247-0.128,0.341c-0.104-0.078-0.188-0.094-0.271-0.082
						c-0.196-0.006-0.281-0.355-0.364-0.135c0.201,0.133,0.525,0.224,0.438,0.45c-0.193,0.06-0.485-0.299-0.663-0.164
						c0.143,0.029,0.067,0.342,0.259,0.215c-0.053-0.026-0.105-0.096-0.021-0.079c0.211,0.002,0.346,0.239,0.401,0.293
						c-0.019,0.091-0.208,0.237-0.101,0.289c0.046-0.07,0.151,0.013,0.065,0.104c0.064,0.049,0.188,0.078,0.161,0.158
						c-0.085-0.102-0.287,0.156-0.271-0.082l-0.385-0.215c-0.062-0.037-0.026-0.104-0.113-0.132
						c-0.115-0.022-0.276-0.241-0.363-0.137c0.241,0.117,0.313,0.295,0.596,0.397c0.008,0.099,0.069,0.177,0.024,0.291l0.238,0.134
						c-0.105,0.233,0.201,0.332,0.207,0.528c0.081,0.05,0.155,0.07,0.223,0.056c-0.029,0.065-0.058,0.131,0.037,0.157
						c0.51,0.343,0.757,0.595,1.193,0.854c0.075,0.049-0.033,0.154,0.094,0.188c0.196,0.154,0.329,0.063,0.525,0.218
						c-0.181,0.139-0.08,0.161-0.044,0.317c-0.164-0.087-0.618-0.389-0.8-0.434c0.855,0.688,1.978,1.23,2.864,1.869
						c0.059-0.053,0.115-0.095,0.184-0.105c-0.188,0.168,0.198,0.129,0.108,0.262c0.151,0.071,0.382,0.031,0.406,0.283
						c0.207-0.146,0.325,0.164,0.538,0.146c0.098,0.053-0.016,0.18,0.14,0.209c0.432,0.143,0.67,0.445,0.857,0.594
						c0.335,0.25,0.732,0.354,1.049,0.561c0.085,0.058,0.097,0.168,0.183,0.232c0.061,0.045,0.203,0.033,0.268,0.072
						c0.354,0.228,0.549,0.496,0.854,0.672c1.697,0.646,2.925,1.742,4.505,2.184c-0.058,0.086-0.047,0.148-0.007,0.207
						c0.299-0.115,0.589,0.51,0.896,0.13c0.135,0.249,0.53,0.17,0.688,0.45c0.046-0.059,0.086-0.147,0.145-0.123
						c-0.032,0.063-0.104,0.138-0.059,0.18c0.136-0.081,0.318,0.238,0.441,0.074c-0.141,0.121,0.183,0.185,0.185,0.188
						c0.068,0.084,0.122,0.193,0.301,0.197c0.024,0.129,0.132,0.233,0.263,0.334c0.039,0.045,0.023,0.104,0.015,0.156
						c0.298,0.127,0.582,0.723,0.879,0.848c-0.097,0.104,0.078,0.139,0.018,0.23c0.083,0.059,0.161,0.116,0.236,0.18
						c0.41,0.909,1.149,1.896,1.691,2.635l0.212,0.188c0.043,0.042-0.004,0.102,0.063,0.138c0.157,0.132,0.302,0.271,0.438,0.411
						c0.043,0.039,0.099-0.012,0.14,0.055c0.237,0.229,0.47,0.521,0.726,0.639c0.03,0.104-0.035,0.223,0.063,0.316
						c0.229,0.185,0.45,0.277,0.716,0.26c-0.063,0.064,0.028,0.119,0.073,0.18c0.118,0.055,0.576,0.176,0.326,0.374
						c-0.018-0.021-0.068-0.009-0.046,0.039C347.231-83.962,347.297-83.757,347.412-83.601z M327.177-103.831
						c0.268-0.17,0.447,0.306,0.796,0.377C327.561-103.46,327.639-103.595,327.177-103.831z M328.129-103.847
						c0.034-0.193-0.171-0.104-0.354-0.266l0.088-0.156c0.215,0.146,0.21,0.18,0.434,0.238
						C328.253-103.909,328.184-103.909,328.129-103.847z"/>
				</g>
			</g>
		</g>
		<g>
			<g>
				<g>
					<path fill="#394CD3" d="M477.074-179.073c0.168-0.09,0.102-0.217,0.289-0.201c0.121,0.062,0.104,0.195,0.162,0.286
						c0.375-0.122,0.795,0.114,1.139,0.235c0.311-0.201,0.674,0.047,0.979-0.067c-0.176-0.147,0.059-0.002,0.104-0.08
						c-0.021-0.084-0.068-0.158-0.068-0.253c0.117,0.059,0.223,0.014,0.313-0.161c-0.104-0.042-0.234,0.005-0.172-0.176
						c0.146-0.087,0.324,0.026,0.484,0.017c-0.064-0.065-0.164-0.127-0.072-0.256c0.104,0.116,0.154-0.146,0.27,0.023
						c0.764-0.418,1.58-0.7,2.355-1.445c0.16-0.29,0.34-0.455,0.514-0.67c0.227-0.444,0.443-1.049,0.506-1.379
						c0.014-0.066,0.072-0.146,0.08-0.231c0.012-0.123-0.074-0.288-0.088-0.404c-0.02-0.149,0.023-0.293-0.014-0.431
						c-0.139-0.153-0.109-0.35-0.254-0.506c0.121-0.117-0.041-0.166,0.02-0.271c-0.07-0.113-0.17-0.227-0.141-0.363
						c-1.02-1.165-2.568-2.129-3.963-3.042c-0.561-0.253-0.904-0.406-1.535-0.689c-0.439-0.085-0.947-0.228-1.43-0.4
						c-0.48-0.146-0.936-0.328-1.258-0.528c-0.098-0.021-0.086,0.136-0.209,0.065c-1.674-0.658-3.041-1.065-5.084-1.379
						c-0.738-0.522-1.998-0.552-3.088-0.617c-0.582,0.148-1.322,0.063-1.771,0.211c-0.541-0.094-1.037-0.072-1.713-0.232
						c-0.764,0.053-1.332-0.016-2.057,0.017c-0.592-0.307-1.281-0.598-2.117-0.68c-0.891-0.09-1.395,0.075-1.951-0.055
						c0.016-0.113-0.059-0.136-0.049-0.242c-0.402-0.069-0.879-0.063-1.207-0.209c-0.811-0.049-1.061-0.034-1.91-0.048
						c-0.889,0.146-1.943,0.189-2.777,0.515c-0.33-0.031-0.484,0.159-0.861,0.086c-0.016,0.069-0.094,0.063-0.168,0.053
						c-0.068,0.105-0.152,0.195-0.232,0.289c-0.189,0.012-0.32,0.082-0.551,0.033c-0.125,0.119-0.004,0.193,0.039,0.305
						c-0.135,0.051-0.156,0.231-0.396,0.16c0.063,0.18,0.053,0.432-0.025,0.602c0.141,0.014,0.279,0.023,0.268,0.191
						c-0.082-0.104-0.256-0.039-0.332,0.043c0.174-0.021,0.188,0.117,0.381,0.08c-0.059,0.188,0.135,0.129,0.152,0.244
						c0.234-0.006,0.438,0.021,0.426,0.264c-0.168,0.027-0.467-0.102-0.551,0.033c0.127-0.013,0.205,0.022,0.215,0.131
						c-0.154,0.025-0.236,0.14-0.396,0.16c-0.264,0.06-0.438-0.16-0.604-0.025c-0.057,0.32,0.322,0.213,0.422,0.38
						c0.109-0.106,0.1,0.04,0.273,0.013c0.094,0.063,0.295,0.015,0.266,0.193c-0.08,0.027-0.279-0.084-0.277,0.047
						c-0.104,0.021-0.322-0.1-0.275,0.105c0.146,0.14,0.566,0.109,0.648,0.148c-0.125-0.021-0.064,0.17-0.174,0.172
						c-0.076,0.05-0.414-0.01-0.545-0.086c0.02,0.192,0.203,0.274-0.121,0.233c-0.016,0.355,0.475,0.218,0.525,0.507
						c-0.205-0.06-0.27,0.062-0.441,0.039c-0.02,0.222-0.088,0.146-0.225,0.106c0.02,0.221,0.563,0.286,0.25,0.491
						c0.229-0.04,0.295,0.089,0.375,0.198c-0.115,0.03-0.357-0.091-0.391,0.042c0.066,0.01,0.133,0.021,0.105,0.125
						c-0.146,0.142-0.521,0.131-0.717,0.023c0.039,0.306,0.49,0.196,0.756,0.275c0.004,0.072,0.01,0.146,0.104,0.125
						c0.314,0.115,0.434,0.073,0.766,0.156c0.012-0.07-0.002-0.171,0.063-0.179c-0.09,0.224,0.146,0.123,0.098,0.306
						c-0.328,0.034-0.521,0.104-0.99,0.073c-0.125,0.094,0.209,0.17,0.035,0.358c-0.125-0.022-0.211,0-0.275,0.048
						c-0.182,0.082-0.412-0.191-0.389,0.041c0.238,0.028,0.57-0.031,0.596,0.209c-0.146,0.142-0.566-0.051-0.666,0.147
						c0.139-0.036,0.213,0.273,0.326,0.076c-0.063-0.002-0.143-0.035-0.055-0.063c0.188-0.092,0.416,0.063,0.49,0.084
						c0.025,0.092-0.08,0.311,0.039,0.305c0.012-0.082,0.146-0.059,0.107,0.063c0.082,0.018,0.201-0.011,0.217,0.071
						c-0.121-0.053-0.189,0.268-0.277,0.046l-0.438-0.021c-0.07-0.009-0.072-0.078-0.162-0.066
						c-0.115,0.029-0.357-0.092-0.387,0.042c0.27-0.001,0.406,0.125,0.709,0.094c0.051,0.083,0.143,0.124,0.15,0.248l0.273,0.014
						c0.01,0.26,0.328,0.207,0.422,0.383c0.094,0.01,0.17-0.008,0.223-0.052c0.002,0.072,0.012,0.146,0.104,0.126
						c0.605,0.076,0.941,0.192,1.451,0.231c0.09,0.008,0.039,0.154,0.166,0.125c0.246,0.051,0.318-0.092,0.564-0.041
						c-0.1,0.203,0,0.182,0.104,0.305c-0.188-0.004-0.729-0.067-0.906-0.028c1.07,0.229,2.316,0.225,3.396,0.396
						c0.025-0.068,0.063-0.134,0.113-0.177c-0.094,0.231,0.236,0.023,0.215,0.186c0.17-0.005,0.355-0.143,0.49,0.071
						c0.121-0.224,0.365,0.002,0.549-0.104c0.109,0.002,0.066,0.164,0.219,0.125c0.445-0.064,0.799,0.104,1.031,0.146
						c0.41,0.075,0.816-0.009,1.188,0.034c0.102,0.012,0.16,0.104,0.266,0.128c0.072,0.014,0.197-0.063,0.271-0.052
						c0.418,0.043,0.711,0.194,1.063,0.22c1.813-0.179,3.396,0.257,5.006-0.056c-0.012,0.104,0.025,0.154,0.088,0.188
						c0.219-0.234,0.756,0.192,0.859-0.283c0.229,0.163,0.551-0.084,0.813,0.1c0.018-0.068,0.014-0.172,0.07-0.174
						c0,0.068-0.025,0.168,0.029,0.187c0.084-0.134,0.395,0.071,0.43-0.131c-0.068,0.171,0.244,0.084,0.248,0.089
						c0.104,0.045,0.197,0.12,0.355,0.043c0.082,0.104,0.223,0.152,0.385,0.185c0.055,0.021,0.066,0.077,0.082,0.137
						c0.322-0.021,0.844,0.387,1.164,0.363c-0.039,0.137,0.131,0.088,0.115,0.2c0.102,0.015,0.197,0.031,0.293,0.054
						c0.771,0.633,1.875,1.188,2.688,1.604l0.271,0.07c0.059,0.02,0.041,0.092,0.119,0.094c0.197,0.047,0.391,0.105,0.572,0.174
						c0.059,0.017,0.082-0.053,0.146-0.014c0.313,0.096,0.648,0.256,0.934,0.248c0.074,0.08,0.064,0.214,0.199,0.254
						c0.289,0.061,0.527,0.05,0.758-0.084c-0.023,0.086,0.078,0.093,0.145,0.125c0.131-0.006,0.596-0.103,0.459,0.188
						c-0.021-0.011-0.064,0.023-0.021,0.057C476.75-179.317,476.898-179.161,477.074-179.073z M449.941-188.161
						c0.162-0.271,0.537,0.066,0.881-0.021C450.451-188.003,450.463-188.158,449.941-188.161z M450.789-188.603
						c-0.059-0.188-0.197-0.019-0.438-0.081l0.008-0.179c0.26,0.036,0.27,0.063,0.492,0.021
						C450.871-188.714,450.811-188.685,450.789-188.603z"/>
				</g>
			</g>
		</g>
		<g>
			<g>
				
					<ellipse fill="none" stroke="#394CD3" stroke-width="2" stroke-linecap="round" stroke-linejoin="round" stroke-miterlimit="10" cx="29.542" cy="-192.667" rx="10" ry="4"/>
				
					<path fill="none" stroke="#394CD3" stroke-width="2" stroke-linecap="round" stroke-linejoin="round" stroke-miterlimit="10" d="
					M39.542-192.667v6.666v-1.065v2.399c0,2.209-4.479,4-10,4s-10-1.791-10-4l0,0v-1.334v-6.666"/>
			</g>
			<g>
				
					<ellipse fill="none" stroke="#394CD3" stroke-width="2" stroke-linecap="round" stroke-linejoin="round" stroke-miterlimit="10" cx="79.542" cy="-192.667" rx="10" ry="4"/>
				
					<path fill="none" stroke="#394CD3" stroke-width="2" stroke-linecap="round" stroke-linejoin="round" stroke-miterlimit="10" d="
					M89.542-192.667v6.666v-1.065v2.399c0,2.209-4.479,4-10,4s-10-1.791-10-4l0,0v-1.334v-6.666"/>
			</g>
			<g>
				
					<ellipse fill="none" stroke="#394CD3" stroke-width="2" stroke-linecap="round" stroke-linejoin="round" stroke-miterlimit="10" cx="54.667" cy="-184.667" rx="10" ry="4"/>
				
					<path fill="none" stroke="#394CD3" stroke-width="2" stroke-linecap="round" stroke-linejoin="round" stroke-miterlimit="10" d="
					M64.667-184.667V-178v-1.067v2.4c0,2.209-4.479,4-10,4s-10-1.791-10-4l0,0V-178v-6.668"/>
			</g>
			<g>
				
					<ellipse fill="none" stroke="#394CD3" stroke-width="2" stroke-linecap="round" stroke-linejoin="round" stroke-miterlimit="10" cx="54.667" cy="-201.667" rx="10" ry="4"/>
				
					<path fill="none" stroke="#394CD3" stroke-width="2" stroke-linecap="round" stroke-linejoin="round" stroke-miterlimit="10" d="
					M64.667-201.667v6.666v-1.065v2.399c0,2.209-4.479,4-10,4s-10-1.791-10-4l0,0v-1.334v-6.666"/>
			</g>
			
				<polygon fill="none" stroke="#394CD3" stroke-width="2" stroke-linecap="round" stroke-linejoin="round" stroke-miterlimit="10" points="
				8.542,-183.667 54.542,-166.667 54.542,-129.667 8.542,-146.667 			"/>
			<g>
				
					<line fill="none" stroke="#394CD3" stroke-width="2" stroke-linecap="round" stroke-linejoin="round" stroke-miterlimit="10" x1="89.692" y1="-186.651" x2="99.792" y2="-182.917"/>
				
					<line fill="none" stroke="#394CD3" stroke-width="2" stroke-linecap="round" stroke-linejoin="round" stroke-miterlimit="10" x1="65.375" y1="-195.667" x2="69.899" y2="-193.964"/>
			</g>
			<g>
				
					<line fill="none" stroke="#394CD3" stroke-width="2" stroke-linecap="round" stroke-linejoin="round" stroke-miterlimit="10" x1="19.075" y1="-187.75" x2="8.708" y2="-183.917"/>
				
					<line fill="none" stroke="#394CD3" stroke-width="2" stroke-linecap="round" stroke-linejoin="round" stroke-miterlimit="10" x1="44.042" y1="-196.007" x2="39.396" y2="-194.257"/>
			</g>
			
				<polygon fill="none" stroke="#394CD3" stroke-width="2" stroke-linecap="round" stroke-linejoin="round" stroke-miterlimit="10" points="
				100.542,-182.667 54.208,-166.667 54.208,-129.667 100.542,-145.667 			"/>
			<path fill="none" stroke="#394CD3" stroke-width="2" stroke-linecap="round" stroke-linejoin="round" stroke-miterlimit="10" d="
				M54.542-129.667"/>
			<path fill="none" stroke="#394CD3" stroke-width="2" stroke-linecap="round" stroke-linejoin="round" stroke-miterlimit="10" d="
				M63.726-179.564"/>
		</g>
		<g>
			<polygon fill="#F7A328" points="249.693,-115.204 241.505,-118.202 238.845,-119.185 203.61,-132.288 157.693,-115.204 
				157.693,-79.204 203.36,-61.333 203.36,-61.203 203.527,-61.267 203.693,-61.203 203.693,-61.332 249.693,-79.204 			"/>
			<g>
				<g>
					<polyline fill="#FFB640" points="203.36,-97.085 249.693,-115.085 241.505,-118.083 238.845,-119.068 203.61,-132.169 
						157.693,-115.085 203.36,-98.085 					"/>
					<line fill="none" x1="214.527" y1="-128.204" x2="219.053" y2="-126.5"/>
				</g>
				<path fill="#F7A328" d="M188.693-125.204v6.666v-1.064v2.398c0,2.209-4.479,4-10,4c-5.522,0-10-1.791-10-4l0,0v-1.334v-6.666"/>
			</g>
			<g>
				<path fill="#F7A328" d="M238.693-125.204v6.666v-1.064v2.398c0,2.209-4.479,4-10,4c-5.522,0-10-1.791-10-4l0,0v-1.334v-6.666"/>
			</g>
			<g>
				<path fill="#F7A328" d="M213.818-117.204v6.666v-1.064v2.398c0,2.209-4.479,4-10,4c-5.522,0-10-1.791-10-4l0,0v-1.334v-6.666"/>
			</g>
			<g>
				<path fill="#F7A328" d="M213.818-134.204v6.666v-1.064v2.398c0,2.209-4.479,4-10,4c-5.522,0-10-1.791-10-4l0,0v-1.334v-6.666"/>
			</g>
			<ellipse fill="#FFB640" cx="178.693" cy="-125.204" rx="10" ry="4"/>
			<ellipse fill="#FFB640" cx="228.693" cy="-125.204" rx="10" ry="4"/>
			<ellipse fill="#FFB640" cx="203.818" cy="-117.204" rx="10" ry="4"/>
			<ellipse fill="#FFB640" cx="203.818" cy="-134.204" rx="10" ry="4"/>
			<g>
				<line fill="none" x1="168.229" y1="-119.286" x2="157.86" y2="-115.454"/>
				<line fill="none" x1="193.193" y1="-128.542" x2="188.547" y2="-126.794"/>
			</g>
			<polygon fill="#FFB640" points="249.693,-115.085 203.36,-98.085 203.36,-61.086 249.693,-79.085 			"/>
			<path fill="#F7A328" d="M203.693-61.203"/>
			<path fill="#F7A328" d="M212.877-112.1"/>
		</g>
		<g>
			<g>
				<polygon fill="#EBEDE4" points="161.527,-253.219 161.527,-217.219 165.527,-215.219 169.527,-217.219 169.527,-253.219 				"/>
				<polygon fill="#939390" points="165.527,-215.219 161.527,-217.219 161.527,-241.219 161.527,-257.219 165.527,-257.219 				"/>
			</g>
			<path fill="#FF553E" d="M177.527-249.219c0,6.628-5.373,12-12,12l0,0c-6.629,0-12-5.372-12-12v-52c0-6.627,5.371-12,12-12l0,0
				c6.627,0,12,5.373,12,12V-249.219z"/>
			<path fill="#FFB640" d="M153.527-269.219c0,6.628,5.371,12,12,12l0,0c6.627,0,12-5.372,12-12v-44c0-6.627-5.373-12-12-12l0,0
				c-6.629,0-12,5.373-12,12V-269.219z"/>
			<path fill="#FFB640" d="M173.527-249.219c0,2.209-1.791,4-4,4l0,0c-2.209,0-4-1.791-4-4v-48c0-2.209,1.791-4,4-4l0,0
				c2.209,0,4,1.791,4,4V-249.219z"/>
		</g>
		<path fill="none" stroke="#FF553E" stroke-width="8" stroke-miterlimit="10" d="M78.715-157.286
			c20.066-1.711,37.724,13.166,39.432,33.231c1.711,20.071-13.17,37.726-33.235,39.437"/>
		<g>
			<g>
				<g>
					
						<ellipse fill="none" stroke="#FF553E" stroke-width="2" stroke-linejoin="round" stroke-miterlimit="10" cx="474.875" cy="-282.251" rx="10" ry="4"/>
					<path fill="none" stroke="#FF553E" stroke-width="2" stroke-linejoin="round" stroke-miterlimit="10" d="M484.875-282.251
						v6.666v-1.065v2.399c0,2.209-4.479,4-10,4s-10-1.791-10-4l0,0v-1.334v-6.666"/>
				</g>
				<g>
					
						<ellipse fill="none" stroke="#FF553E" stroke-width="2" stroke-linejoin="round" stroke-miterlimit="10" cx="498.875" cy="-274.251" rx="10" ry="4"/>
					<path fill="none" stroke="#FF553E" stroke-width="2" stroke-linejoin="round" stroke-miterlimit="10" d="M508.875-274.251
						v6.666v-1.065v2.399c0,2.209-4.479,4-10,4s-10-1.791-10-4l0,0v-1.334v-6.666"/>
				</g>
				<g>
					
						<ellipse fill="none" stroke="#FF553E" stroke-width="2" stroke-linejoin="round" stroke-miterlimit="10" cx="522.875" cy="-266.251" rx="10" ry="4"/>
					<path fill="none" stroke="#FF553E" stroke-width="2" stroke-linejoin="round" stroke-miterlimit="10" d="M532.875-266.251
						v6.666v-1.065v2.399c0,2.209-4.479,4-10,4s-10-1.791-10-4l0,0v-1.334v-6.666"/>
				</g>
				<polygon fill="none" stroke="#FF553E" stroke-width="2" stroke-linejoin="round" stroke-miterlimit="10" points="
					448.875,-274.251 525.875,-247.251 525.875,-207.251 448.875,-235.251 				"/>
				
					<line fill="none" stroke="#FF553E" stroke-width="2" stroke-linejoin="round" stroke-miterlimit="10" x1="525.875" y1="-247.251" x2="549.875" y2="-255.251"/>
				<polyline fill="none" stroke="#FF553E" stroke-width="2" stroke-linejoin="round" stroke-miterlimit="10" points="
					533.059,-261.148 549.875,-255.251 549.875,-215.251 525.875,-207.251 				"/>
				
					<line fill="none" stroke="#FF553E" stroke-width="2" stroke-linejoin="round" stroke-miterlimit="10" x1="508.885" y1="-269.626" x2="513.357" y2="-268.056"/>
				
					<line fill="none" stroke="#FF553E" stroke-width="2" stroke-linejoin="round" stroke-miterlimit="10" x1="484.664" y1="-278.119" x2="489.594" y2="-276.39"/>
				
					<line fill="none" stroke="#FF553E" stroke-width="2" stroke-linejoin="round" stroke-miterlimit="10" x1="448.875" y1="-274.251" x2="464.564" y2="-279.481"/>
			</g>
			
				<line fill="none" stroke="#FF553E" stroke-width="2" stroke-linejoin="round" stroke-miterlimit="10" x1="546.875" y1="-298.251" x2="546.875" y2="-286.251"/>
			
				<line fill="none" stroke="#FF553E" stroke-width="2" stroke-linejoin="round" stroke-miterlimit="10" x1="582.875" y1="-250.251" x2="594.875" y2="-250.251"/>
			
				<line fill="none" stroke="#FF553E" stroke-width="2" stroke-linejoin="round" stroke-miterlimit="10" x1="574.875" y1="-278.251" x2="583.357" y2="-286.736"/>
		</g>
		<g>
			<g>
				<polygon fill="#CBCEBC" points="424.023,-304.603 415.434,-301.284 368.054,-321.489 368.054,-327.274 424.084,-310.269 				"/>
				<polygon fill="#EBEDE4" points="376.041,-330.458 424.084,-310.269 415.434,-307.07 367.691,-327.274 				"/>
				<polygon fill="#ADAF9E" points="415.434,-307.07 415.434,-301.284 367.691,-321.489 367.691,-327.274 				"/>
			</g>
			<g>
				<polygon fill="#CBCEBC" points="413.547,-300.452 404.955,-297.132 357.576,-317.336 357.576,-323.123 413.607,-306.118 				"/>
				<polygon fill="#EBEDE4" points="365.564,-326.308 413.607,-306.118 404.955,-302.918 357.214,-323.123 				"/>
				<polygon fill="#ADAF9E" points="404.955,-302.918 404.955,-297.132 357.214,-317.336 357.214,-323.123 				"/>
			</g>
			<g>
				<polygon fill="#243CB5" points="396.927,-315.66 393.275,-313.958 364.817,-325.961 364.817,-328.362 396.876,-317.559 				"/>
				<polygon fill="#394CD3" points="368.418,-329.563 396.876,-317.559 393.65,-316.107 364.817,-328.362 				"/>
			</g>
			<g>
				<polygon fill="#CBCEBC" points="403.023,-296.228 394.434,-292.909 347.054,-313.114 347.054,-318.899 403.084,-301.894 				"/>
				<polygon fill="#EBEDE4" points="355.041,-322.083 403.084,-301.894 394.434,-298.695 346.691,-318.899 				"/>
				<polygon fill="#ADAF9E" points="394.434,-298.695 394.434,-292.909 346.691,-313.114 346.691,-318.899 				"/>
			</g>
			<g>
				<polygon fill="#CBCEBC" points="392.545,-292.077 383.955,-288.757 336.576,-308.961 336.576,-314.748 392.607,-297.743 				"/>
				<polygon fill="#EBEDE4" points="344.564,-317.933 392.607,-297.743 383.955,-294.543 336.214,-314.748 				"/>
				<polygon fill="#ADAF9E" points="383.955,-294.543 383.955,-288.757 336.214,-308.961 336.214,-314.748 				"/>
			</g>
			<g>
				<polygon fill="#243CB5" points="386.177,-311.285 382.525,-309.583 354.067,-321.586 354.067,-323.987 386.126,-313.184 				"/>
				<polygon fill="#394CD3" points="357.668,-325.188 386.126,-313.184 382.9,-311.732 354.067,-323.987 				"/>
			</g>
			<g>
				<polygon fill="#CBCEBC" points="382.274,-287.978 373.684,-284.659 326.304,-304.864 326.304,-310.649 382.333,-293.644 				"/>
				<polygon fill="#EBEDE4" points="334.291,-313.833 382.333,-293.644 373.684,-290.445 325.941,-310.649 				"/>
				<polygon fill="#ADAF9E" points="373.684,-290.445 373.684,-284.659 325.941,-304.864 325.941,-310.649 				"/>
			</g>
			<g>
				<polygon fill="#CBCEBC" points="371.795,-283.827 363.205,-280.507 315.826,-300.711 315.826,-306.498 371.857,-289.493 				"/>
				<polygon fill="#EBEDE4" points="323.814,-309.683 371.857,-289.493 363.205,-286.293 315.464,-306.498 				"/>
				<polygon fill="#ADAF9E" points="363.205,-286.293 363.205,-280.507 315.464,-300.711 315.464,-306.498 				"/>
			</g>
			<g>
				<polygon fill="#243CB5" points="365.177,-303.035 361.525,-301.333 333.067,-313.336 333.067,-315.737 365.126,-304.934 				"/>
				<polygon fill="#394CD3" points="336.668,-316.938 365.126,-304.934 361.9,-303.482 333.067,-315.737 				"/>
			</g>
			<g>
				<polygon fill="#243CB5" points="355.427,-298.785 351.775,-297.083 323.317,-309.086 323.317,-311.487 355.376,-300.684 				"/>
				<polygon fill="#394CD3" points="326.918,-312.688 355.376,-300.684 352.15,-299.232 323.317,-311.487 				"/>
			</g>
			<g>
				<polygon fill="#CBCEBC" points="361.274,-279.728 352.684,-276.409 305.304,-296.614 305.304,-302.399 361.333,-285.394 				"/>
				<polygon fill="#EBEDE4" points="313.291,-305.583 361.333,-285.394 352.684,-282.195 304.941,-302.399 				"/>
				<polygon fill="#ADAF9E" points="352.684,-282.195 352.684,-276.409 304.941,-296.614 304.941,-302.399 				"/>
			</g>
			<g>
				<polygon fill="#CBCEBC" points="350.795,-275.577 342.205,-272.257 294.826,-292.461 294.826,-298.248 350.857,-281.243 				"/>
				<polygon fill="#EBEDE4" points="302.814,-301.433 350.857,-281.243 342.205,-278.043 294.464,-298.248 				"/>
				<polygon fill="#ADAF9E" points="342.205,-278.043 342.205,-272.257 294.464,-292.461 294.464,-298.248 				"/>
			</g>
			<g>
				<polygon fill="#243CB5" points="344.177,-294.785 340.525,-293.083 312.067,-305.086 312.067,-307.487 344.126,-296.684 				"/>
				<polygon fill="#394CD3" points="315.668,-308.688 344.126,-296.684 340.9,-295.232 312.067,-307.487 				"/>
			</g>
			<g>
				<polygon fill="#CBCEBC" points="340.274,-271.603 331.684,-268.284 284.304,-288.489 284.304,-294.274 340.333,-277.269 				"/>
				<polygon fill="#EBEDE4" points="292.291,-297.458 340.333,-277.269 331.684,-274.07 283.941,-294.274 				"/>
				<polygon fill="#ADAF9E" points="331.684,-274.07 331.684,-268.284 283.941,-288.489 283.941,-294.274 				"/>
			</g>
			<g>
				<polygon fill="#243CB5" points="323.177,-286.66 319.525,-284.958 291.067,-296.961 291.067,-299.362 323.126,-288.559 				"/>
				<polygon fill="#394CD3" points="294.668,-300.563 323.126,-288.559 319.9,-287.107 291.067,-299.362 				"/>
			</g>
		</g>
		<g>
			<polygon fill="#FF553E" points="344.375,-186.751 332.375,-182.751 332.375,-158.751 376.375,-142.751 376.375,-166.751 
				388.375,-170.751 			"/>
			<polygon fill="#FF553E" points="376.375,-166.751 388.375,-170.751 388.375,-146.751 376.375,-142.751 			"/>
			<polygon fill="#E0402F" points="332.375,-182.751 376.375,-166.751 376.375,-142.751 332.375,-158.751 			"/>
			<polygon fill="#FF5D55" points="376.375,-166.751 388.375,-170.751 388.375,-146.751 376.375,-142.751 			"/>
		</g>
	</g>
	<path fill="#E59123" d="M223.5,163.664c0,0-1.754-1.37-5.963-1.827c-4.209-0.457-5.537-2.67-8.068-5.479
		c-1.834-2.036-5.635-8.073-5.635-3.857c0,7.333,3.562,12.34,5.667,14.167c2.104,1.827,7.097,4.76,8.5,7.5
		c1.403,2.74,3.395,0,3.395,0L223.5,163.664z"/>
	<path fill="#E8921F" d="M250.815,220.795c0,0,30.006-8.396,35.692-9.052c5.686-0.656,8.483,3.146,10.67,4.24
		c2.187,1.095,7.83,3.76,7.83,3.76s0.624,3.219-5.5,3c-6.124-0.22-9.984-4.572-9.984-4.572s-3.717,2.624-12.684,5.248
		c-8.967,2.625-19.245,6.342-19.245,6.342l-17.933-7.653L250.815,220.795z"/>
	<path fill="#D68522" d="M150.375,251.78c-5.278,4.975-10.086,3.211-10.086,3.211s-3.592,0.794-4.44,2.118
		c-0.85,1.325-12.254,14.506-14.848,17.808c-2.75,3.5-2.942,5.579-4.5,8.25c-1.75,3-1.5,8.5,4.5,5.25c3.504-1.897,3.75-6.5,5-9
		c1.929-3.858,8.742-11.489,11.75-12.75c3.008-1.262,8.068-2.369,10.75-1.75c2.682,0.62,19.854,8.728,32.798,0.201
		c12.943-8.525-10.075-33.508-11.17-33.001C169.032,232.625,150.375,251.78,150.375,251.78z"/>
	<path fill="#FFB640" d="M253,221.667c0,0-4.5,5.5,4.5,18.5s11,16.5,9.5,16s-30-10.5-32-10.5s-2-24-2-24H253z"/>
	<path fill="#FFB640" d="M274.019,257.472l-21.296-16.756c3.273-4.799,5.415-9.939,6.277-15.549
		c1.229-7.991-3.019-17.866-6.477-24.294c-1.782-8.946-5.068-20.56-4.357-21.373c7-7.999,9.806-14.693,10.333-17.333
		c0.5-2.5,0.5-4,0.5-4l-0.824,0.773c0.702-1.266,1.211-2.688,1.324-4.273c0.5-7-2.5-10-2.5-10l-12.167,8.167
		c0,0-26.833,1.833-27.833,19.833c-0.358,6.449,1.5,13.833,0.833,25.5c-2.531,4.72-4.793,6.361-13.667,13.333
		c-14,11-38.167,10.667-46.667,17.667c-0.266,0.219-0.521,0.449-0.765,0.689c-3.375-0.965-8.568-5.022-15.235-13.689
		c-1.717-2.232-3.293-5.121-4.714-8.308c-5.592-12.538-8.786-29.692-8.786-29.692s1.167,11.833,1.167,19.333s2.5,16.167,8,23.667
		s12.333,12.333,16.667,16.667c-2.319,6.105-0.656,19.052,2.666,25.333c-0.188,0.243,4.965,0.081,7.667,0.334
		c10.667,1,48-1.001,61-7.001c5.416-2.5,11.089-5.67,14.667-9.333c6.271,4.011,14.833,9.012,17.332,10.667
		c4.661,3.087,25.344,12.048,30.668,13c5.324,0.951,7-2.334,7-2.334S280.483,262.29,274.019,257.472z"/>
	<g display="none">
		<defs>
			<path id="SVGID_5_" d="M290.019,282.805l-21.296-16.756c3.273-4.799,5.415-9.939,6.277-15.549
				c1.229-7.991-3.019-17.866-6.477-24.294c-1.782-8.946-3.389-17.134-3.523-18.206c-0.5-4,8.972-17.86,9.5-20.5
				c0.5-2.5,0.5-4,0.5-4l-0.824,0.773c0.702-1.266,1.211-2.688,1.324-4.273c0.5-7-2.5-10-2.5-10l-12.167,8.167
				c0,0-26.833,1.833-27.833,19.833c-0.358,6.449,1.234,16.372,3.051,25.438c-2.531,4.72-5.177,12.09-14.051,19.062
				c-14,11-40,5-48.5,12c-0.266,0.219-0.521,0.449-0.765,0.689c-3.375-0.965-7.355-3.169-11.235-8.189c-8.5-11-17.5-43.5-17.5-43.5
				s-7.5,6-7.5,13.5s0,18,5.5,25.5s13.5,13,16,14.5c1.85,1.109,8.347,2.492,11.605,3.137c-2.319,6.105-1.364,14.354,1.958,20.635
				c-0.188,0.243-0.368,0.488-0.563,0.729c-6.5,8-14.5,13.5-15,17s-5.5,12.5-11,20s1.5,17,2,15.5s6-13,11.5-21.5s13.5-10.5,15-10.5
				s9.999,0.5,16.999-3.5c0,0,7.972-3.599,9.292-5.347c18.497,0.809,41.258-3.466,50.376-9.653c4.936-3.35,6.087-2.67,9.665-6.333
				c6.271,4.011,10.834,4.345,13.333,6c4.661,3.087,24.588,14.685,29.912,15.637c5.324,0.951,7.373-2.627,7.373-2.627
				S296.483,287.623,290.019,282.805z"/>
		</defs>
		<clipPath id="SVGID_6_" display="inline">
			<use xlink:href="#SVGID_5_"  overflow="visible"/>
		</clipPath>
		<g display="inline" clip-path="url(#SVGID_6_)">
			<path fill="#EBEDE4" d="M271.166,163.167c-6.667,2.667-19.333,6-22,8s-7.333,6-9.333,8s-4,5.333-4,5.333s6-4.667,8-1.333
				s10-8.667,14-6.667s11.333,29.333,13.333,30.667s0.667,8.001,4.667,0.667s14.667-8.667,8-20.667S271.166,163.167,271.166,163.167
				z"/>
			<path fill="#EBEDE4" d="M295.832,244.5c0,9.573-2.795,18.667-12,18.667s-18.667-11.094-18.667-20.667
				c0-9.572-6.87-38.5,2.334-38.5S295.832,234.928,295.832,244.5z"/>
			<path fill="#EBEDE4" d="M231,231c-3.832,3.333-0.333,12.167-5,17.5s-11.501,10-22.834,10s-13.333,2-19.333-1.333
				s-9.333-4.667-11.333-6.667s10-8.666,12-8.666S231,231,231,231z"/>
			<path fill="#EBEDE4" d="M307.5,287c-7,5-13.5,5.5-12.5,10.5s3.5,8.5,7.5,7.5s4.5-2,6-4.5s3.5-7.5,3.5-7.5L307.5,287z"/>
			<path fill="#EBEDE4" d="M260.5,280c-1.5-0.5-6.5-2-11.5-1s-5,4-14,4.5s-12-7-18-8s-11.5,3-15,9.5
				c-1.442,2.678-1.419,2.807-2.209,8.153S211.5,307,221.5,303.5S260.5,280,260.5,280z"/>
			<path fill="#894E40" d="M151.5,255.5c-5-8-6-9-5.5-17s4-6,5.5-13.5s2-8,2-12.5s-8-17-9.5-16s-18.5,2-15.5,17.5s5,27.5,10.5,33.5
				S151.5,255.5,151.5,255.5z"/>
		</g>
	</g>
	<path fill="#E59123" d="M221.833,164.167c0,0,3.932-3.511,6.667-8c4.089-6.712,10-11,11.667-15
		c1.112-2.668-3.333,13.667-4.167,17.5c-1.211,5.571-1.878,5.334-3.833,7.833C230.211,169,221.833,164.167,221.833,164.167z"/>
	
		<ellipse fill="#2D1F1E" stroke="#2D1F1E" stroke-width="0.6875" stroke-miterlimit="10" cx="242.5" cy="159.886" rx="1.547" ry="1.719"/>
	<g>
		<g>
			<path fill="#2D1F1E" d="M251.413,168.19c3.188-1.664,5.379-4.393,7.352-7.328c0.582-0.866-0.353-2.979-1.194-1.726
				c-1.788,2.662-3.754,5.162-6.648,6.672C249.991,166.295,250.371,168.734,251.413,168.19L251.413,168.19z"/>
		</g>
	</g>
	<path fill="#E0402F" d="M333.747,88.456c0.895,5.153-2.557,10.055-7.709,10.951c-5.152,0.895-10.055-2.557-10.95-7.708
		c-0.442-2.547,0.178-5.033,1.54-7.004c1.393-2.016,3.563-3.494,6.168-3.946C327.949,79.853,332.852,83.304,333.747,88.456z"/>
	
		<linearGradient id="SVGID_7_" gradientUnits="userSpaceOnUse" x1="334.4248" y1="105.7778" x2="465.4248" y2="105.7778" gradientTransform="matrix(0.9852 -0.1712 0.1712 0.9852 -15.4851 71.9061)">
		<stop  offset="0.0161" style="stop-color:#E92700"/>
		<stop  offset="1" style="stop-color:#FFFFFF;stop-opacity:0"/>
	</linearGradient>
	<path opacity="0.3" fill="url(#SVGID_7_)" d="M325.948,83.411c0,0,46.242-5.496,89.63,16.4
		c39.95,20.162,51.676,31.622,51.676,31.622l-18.142,3.659c0,0-22.432-19.283-49.77-29.415
		c-29.833-11.057-71.426-10.936-71.426-10.936L325.948,83.411z"/>
	<path fill="#E0402F" d="M34.167,61.5"/>
	<g>
		<path fill="#EBEDE4" d="M-70.06,140.814c-2.488-3.426-9.216-2.783-15.024,1.438c-5.654,4.107-8.341,10.082-6.185,13.557
			l-0.023,0.016l16.652,22.926l20.479-15.906l-13.462-18.959C-67.724,143.02-69.563,141.496-70.06,140.814z"/>
		
			<ellipse transform="matrix(0.8091 -0.5877 0.5877 0.8091 -112.468 -5.4752)" fill="#DBB3A5" cx="-64.661" cy="170.366" rx="12.999" ry="7.668"/>
		<g>
			<g>
				<path fill="#EBEDE4" d="M-87.177,157.11c-3.756-0.127-8.09,0.479-10.787,3.362c-2.533,2.708-1.518,6.661,0.602,9.216
					c5.127,6.181,15.885,7.224,21.482,1.183c1.367-1.475,0.037-6.168-1.748-4.242c-3.457,3.73-8.935,3.989-13.468,2.266
					c-1.716-0.652-6.591-3.521-3.805-5.312c2.263-1.453,5.247-1.601,7.847-1.514C-84.871,162.144-84.945,157.186-87.177,157.11
					L-87.177,157.11z"/>
			</g>
		</g>
	</g>
	<circle fill="#394CD3" cx="886.073" cy="71.403" r="25.598"/>
	
		<path opacity="0.7" fill="none" stroke="#4D66E2" stroke-width="2.0375" stroke-linecap="round" stroke-linejoin="round" stroke-miterlimit="10" d="
		M907.562,56.754c14.468-1.845,24.762-0.902,25.795,3.014c1.549,5.869-18.294,16.192-44.317,23.057
		c-26.026,6.865-48.377,7.672-49.926,1.804c-1.043-3.956,7.632-9.937,21.37-15.518"/>
	<path opacity="0.7" fill="none" stroke="#4D66E2" stroke-width="2.1457" stroke-miterlimit="10" d="M910.073,56.376
		c15.948-2.229,27.239-1.54,28.276,2.388c1.554,5.885-20.521,16.812-49.297,24.403c-28.781,7.592-53.369,8.974-54.923,3.089
		c-1.046-3.967,8.641-10.226,23.884-16.208"/>
	
		<path opacity="0.7" fill="none" stroke="#4D66E2" stroke-width="2.246" stroke-linecap="round" stroke-linejoin="round" stroke-miterlimit="10" d="
		M912.833,56c18.637-3.158,32.85-2.986,33.833,0.667c1.47,5.475-24.768,17.275-58.596,26.357
		c-33.834,9.083-62.45,12.006-63.921,6.532c-0.99-3.69,11.32-10.72,29.351-17.389"/>
	<circle fill="#2239AA" cx="-43.229" cy="331.576" r="1.376"/>
	<g>
		<polygon fill="#FFB640" points="537.919,-81.158 538.019,-81.344 554.139,-84.977 554.038,-84.791 559.875,-69.331 
			559.975,-69.516 576.097,-73.147 575.997,-72.962 581.833,-57.502 581.933,-57.687 598.055,-61.319 589.251,-44.978 
			573.13,-41.347 573.03,-41.16 567.193,-56.621 567.294,-56.807 551.173,-53.175 551.072,-52.989 545.235,-68.449 545.335,-68.636 
			529.216,-65.003 529.116,-64.817 523.279,-80.277 532.083,-96.619 		"/>
		<polygon fill="#F7A328" points="537.919,-81.158 529.116,-64.817 523.279,-80.277 532.083,-96.619 		"/>
		<polygon fill="#F7A328" points="581.833,-57.502 573.03,-41.16 567.193,-56.621 575.997,-72.962 		"/>
		<polygon fill="#F7A328" points="559.875,-69.331 551.072,-52.989 545.235,-68.449 554.038,-84.791 		"/>
	</g>
	<path fill="none" stroke="#394CD3" stroke-width="1.3" stroke-miterlimit="10" d="M888.614-315.468c0,0-13.611,20.5-26.611,44.5
		s-17,37-24,46s-15.5,14.5-15.5,14.5"/>
	<path fill="#EFE4D3" d="M248.833,150.5l8.167-5.833c0,0,4,6.167,3.5,9.667s-4.289,4.409-3.333,2.5c0.667-1.333-1.333-4.667-5-4.667
		C249.81,152.167,248.833,150.5,248.833,150.5z"/>
	<path fill="#30200A" d="M255.833,147.833l2.167-2.5c0,0,1.833,2.5,1.833,3.833S257.5,148.5,257.5,148.5L255.833,147.833z"/>
	<path fill="#FFB640" d="M285.167,264.5c0,0,6.333-0.333,9.333,0.667s2.333,0.999,0.333,3.333S285.167,264.5,285.167,264.5z"/>
	<path fill="#F4E9D9" d="M128.833,171.833c-0.333-6.333-2,6.988-2,11.334c0,12.667,2.052,19.72,4.333,26.666
		c1.833,5.584,1.083,0.334,3.333-0.333c1.011-0.3,3,0,3,0s-4.333-10.334-6.333-20.667S128.833,171.833,128.833,171.833z"/>
	<g opacity="0.7">
		<path fill="none" stroke="#F4E9D9" stroke-width="2" stroke-linecap="round" stroke-linejoin="round" stroke-miterlimit="10" d="
			M-165.337-257.926c-4.016-2.665-7.014-6.862-8.043-11.96c-2.06-10.197,4.536-20.132,14.731-22.191"/>
		
			<path opacity="0.7" fill="none" stroke="#F4E9D9" stroke-width="2" stroke-linecap="round" stroke-linejoin="round" stroke-miterlimit="10" d="
			M-179.128-265.964c-2.933-1.947-5.123-5.013-5.875-8.736c-1.504-7.448,3.313-14.704,10.76-16.208"/>
		
			<path opacity="0.4" fill="none" stroke="#F4E9D9" stroke-width="2" stroke-linecap="round" stroke-linejoin="round" stroke-miterlimit="10" d="
			M-191.348-271.786c-2.275-1.51-3.973-3.888-4.557-6.776c-1.167-5.777,2.569-11.405,8.346-12.572"/>
	</g>
	<path fill="#FFB640" d="M151.745,263.403c-2.968,6.618-8.084,6.834-8.084,6.834s-3.134,2.131-3.411,3.68s-3,17.75-4,23.5
		c-0.719,4.137-1.871,7.018-0.25,9c1.621,1.98,3.233,1.701,3.75-2.25c0.517-3.95,0.771-1.387,2.75-7.5
		c0.353-1.09,3.206-13.683,5.5-16c2.294-2.318,4.036-2.045,6.75-2.5c2.714-0.456,21.983-1.465,30.668-14.302
		c8.685-12.838-22.153-27.084-22.97-26.196C161.631,238.558,151.745,263.403,151.745,263.403z"/>
	
		<path opacity="0.7" fill="none" stroke="#FFFFFF" stroke-width="2" stroke-linecap="round" stroke-linejoin="round" stroke-miterlimit="10" d="
		M320.331,83.165c0,0,5.5,1.833,7.833,5.333s2,7.833,2,7.833"/>
	<path fill="#FFB640" d="M142.5,296.667c0,0,0.002,12.197-2,14.5c-5,5.75-8.25,1.5-8-2.5s3.5-4.5,3.75-6.25s0.25-7,0.5-7.75
		S142.5,296.667,142.5,296.667z"/>
	<path fill="#D68522" d="M126.32,277.874c0,0-4.227,11.441-6.904,12.906c-6.684,3.66-8.258-1.453-6.637-5.119
		c1.622-3.665,4.843-3.007,5.685-4.562s2.662-6.479,3.156-7.096C122.115,273.388,126.32,277.874,126.32,277.874z"/>
	
		<path opacity="0.7" fill="none" stroke="#FFFFFF" stroke-width="2" stroke-linecap="round" stroke-linejoin="round" stroke-miterlimit="10" d="
		M327.164,88.498c0,0-2.664,6.002-8.667,7.333"/>
	<circle fill="#FFFFFF" cx="-45.837" cy="295.83" r="2.667"/>
	<circle fill="#FFFFFF" cx="-44.167" cy="36.5" r="2"/>
	<circle fill="#FFFFFF" cx="-56.833" cy="108.167" r="2"/>
	<circle fill="#FFFFFF" cx="23.833" cy="113.833" r="2"/>
	<circle fill="#FFFFFF" cx="241.834" cy="385.166" r="2"/>
	<circle fill="#FFFFFF" cx="59.167" cy="395.833" r="2"/>
	<circle fill="#FFFFFF" cx="637.834" cy="407.166" r="2"/>
	<circle fill="#FFFFFF" cx="621.834" cy="331.166" r="2"/>
	<circle fill="#FFFFFF" cx="107.167" cy="166.5" r="2.333"/>
</g>
<g id="Layer_2">
	
		<radialGradient id="SVGID_8_" cx="580.501" cy="700.5264" r="43.8209" fx="591.2075" fy="731.6477" gradientTransform="matrix(0.4715 0.8819 -0.8819 0.4715 601.9685 -675.4434)" gradientUnits="userSpaceOnUse">
		<stop  offset="0" style="stop-color:#FFFFFF;stop-opacity:0"/>
		<stop  offset="1" style="stop-color:#FFE5FF"/>
	</radialGradient>
	<circle opacity="0.3" fill="url(#SVGID_8_)" cx="237.824" cy="167.332" r="43.822"/>
	
		<radialGradient id="SVGID_9_" cx="582.0332" cy="1033.2188" r="43.0069" fx="592.5409" fy="1063.762" gradientTransform="matrix(0.4715 0.8819 -0.8819 0.4715 601.9685 -675.4434)" gradientUnits="userSpaceOnUse">
		<stop  offset="0" style="stop-color:#FFFFFF;stop-opacity:0"/>
		<stop  offset="1" style="stop-color:#FFE5FF"/>
	</radialGradient>
	<circle opacity="0.2" fill="url(#SVGID_9_)" cx="-54.474" cy="325.532" r="43.007"/>
	
		<radialGradient id="SVGID_10_" cx="801.5215" cy="83.1621" r="41.4401" fx="811.6464" fy="112.5926" gradientTransform="matrix(0.4715 0.8819 -0.8819 0.4715 601.9685 -675.4434)" gradientUnits="userSpaceOnUse">
		<stop  offset="0" style="stop-color:#FFFFFF;stop-opacity:0"/>
		<stop  offset="1" style="stop-color:#FFE5FF"/>
	</radialGradient>
	<circle opacity="0.2" fill="url(#SVGID_10_)" cx="887.561" cy="71.14" r="41.44"/>
	
		<radialGradient id="SVGID_11_" cx="775.4844" cy="234.3037" r="30.4541" fx="782.925" fy="255.932" gradientTransform="matrix(0.4715 0.8819 -0.8819 0.4715 601.9685 -675.4434)" gradientUnits="userSpaceOnUse">
		<stop  offset="0" style="stop-color:#FFFFFF;stop-opacity:0"/>
		<stop  offset="1" style="stop-color:#FFE5FF"/>
	</radialGradient>
	<circle opacity="0.2" fill="url(#SVGID_11_)" cx="747.025" cy="119.297" r="30.454"/>
	<g>
		<circle fill="#FFFFFF" cx="-232.165" cy="-175.836" r="1.333"/>
		<circle fill="#FFFFFF" cx="-212.165" cy="-176.169" r="1.333"/>
		<circle fill="#FFFFFF" cx="-194.832" cy="-203.503" r="1.333"/>
		<circle fill="#FFFFFF" cx="-158.499" cy="-221.503" r="1.333"/>
		<circle fill="#FFFFFF" cx="-125.166" cy="-226.503" r="1.333"/>
		<circle fill="#FFFFFF" cx="-241.165" cy="-140.169" r="1.333"/>
		<circle fill="#FFFFFF" cx="-218.499" cy="-135.503" r="1.333"/>
		<polyline fill="none" stroke="#FFFFFF" stroke-width="0.5" stroke-miterlimit="10" points="-232.166,-176.169 -212.165,-176.169 
			-218.499,-135.503 -241.166,-139.836 -232.165,-175.836 		"/>
		<polyline fill="none" stroke="#FFFFFF" stroke-width="0.5" stroke-miterlimit="10" points="-125.166,-226.17 -158.499,-221.503 
			-194.832,-203.503 -212.165,-176.169 		"/>
	</g>
	<circle fill="#FFFFFF" cx="11.022" cy="162.725" r="2.681"/>
	<circle fill="#FFFFFF" cx="51.235" cy="162.055" r="2.681"/>
	<circle fill="#FFFFFF" cx="86.085" cy="107.096" r="2.681"/>
	<circle fill="#FFFFFF" cx="159.138" cy="70.904" r="2.681"/>
	<circle fill="#FFFFFF" cx="226.16" cy="60.851" r="3.686"/>
	<circle fill="#FFFFFF" cx="-7.074" cy="234.438" r="2.681"/>
	<circle fill="#FFFFFF" cx="38.5" cy="243.82" r="2.681"/>
	<polyline opacity="0.3" fill="none" stroke="#FFFFFF" stroke-width="2" stroke-miterlimit="10" points="11.021,162.054 
		51.235,162.055 38.5,243.82 -7.074,235.106 11.022,162.725 	"/>
	<polyline opacity="0.3" fill="none" stroke="#FFFFFF" stroke-width="2" stroke-miterlimit="10" points="226.16,61.521 
		159.139,70.904 86.086,107.096 51.235,162.055 	"/>
	<g>
		<circle fill="#FFFFFF" cx="-306.835" cy="-237.5" r="2.083"/>
		<circle fill="#FFFFFF" cx="-334.168" cy="-233.192" r="1.693"/>
		<circle fill="#FFFFFF" cx="-262.237" cy="-223.329" r="2.303"/>
		<circle fill="#FFFFFF" cx="-334.834" cy="-164.525" r="1.693"/>
		<circle fill="#FFFFFF" cx="-342.834" cy="-144.525" r="1.693"/>
		<circle fill="#FFFFFF" cx="-368.834" cy="-127.192" r="1.693"/>
		<circle fill="#FFFFFF" cx="-328.834" cy="-128.525" r="1.693"/>
		<polyline fill="none" stroke="#FFFFFF" stroke-width="0.6" stroke-miterlimit="10" points="-334.167,-233.192 -306.835,-237.5 
			-262.237,-223.33 		"/>
		<polyline fill="none" stroke="#FFFFFF" stroke-width="0.6" stroke-miterlimit="10" points="-306.835,-237.5 -334.834,-164.525 
			-342.834,-144.525 -368.834,-127.192 		"/>
		
			<line fill="none" stroke="#FFFFFF" stroke-width="0.6" stroke-miterlimit="10" x1="-342.834" y1="-144.525" x2="-328.834" y2="-128.525"/>
	</g>
	<circle fill="#FFFFFF" cx="418.5" cy="368.499" r="2.683"/>
	<circle fill="#FFFFFF" cx="480.808" cy="328.208" r="2.179"/>
	<circle fill="#FFFFFF" cx="393.466" cy="314.477" r="2.179"/>
	<circle fill="#FFFFFF" cx="369.491" cy="300.534" r="2.18"/>
	<circle fill="#FFFFFF" cx="352.289" cy="264.164" r="2.18"/>
	<circle fill="#FFFFFF" cx="346.484" cy="315.366" r="2.18"/>
	
		<line fill="none" stroke="#FFFFFF" stroke-width="0.7725" stroke-miterlimit="10" x1="480.809" y1="328.208" x2="418.5" y2="368.5"/>
	<polyline fill="none" stroke="#FFFFFF" stroke-width="0.7725" stroke-miterlimit="10" points="418.5,368.5 393.466,314.477 
		369.491,300.534 352.291,264.165 	"/>
	
		<line fill="none" stroke="#FFFFFF" stroke-width="0.7725" stroke-miterlimit="10" x1="369.491" y1="300.534" x2="346.483" y2="315.365"/>
</g>
<g id="Layer_4">
	
		<line fill="none" stroke="#FFB640" stroke-width="3" stroke-linecap="round" stroke-linejoin="round" stroke-miterlimit="10" x1="227.333" y1="318.5" x2="230.833" y2="322"/>
	
		<line fill="none" stroke="#FFB640" stroke-width="3" stroke-linecap="round" stroke-linejoin="round" stroke-miterlimit="10" x1="438.5" y1="236.5" x2="434.263" y2="241.283"/>
	
		<line fill="none" stroke="#FFB640" stroke-width="3" stroke-linecap="round" stroke-linejoin="round" stroke-miterlimit="10" x1="77.954" y1="48.692" x2="81.167" y2="44.5"/>
	
		<line fill="none" stroke="#FFB640" stroke-width="3" stroke-linecap="round" stroke-linejoin="round" stroke-miterlimit="10" x1="552.5" y1="56.167" x2="546.744" y2="52.913"/>
	
		<line fill="none" stroke="#E0402F" stroke-width="3.3488" stroke-linecap="round" stroke-linejoin="round" stroke-miterlimit="10" x1="826.023" y1="135.214" x2="823.643" y2="139.286"/>
	
		<line fill="none" stroke="#E0402F" stroke-width="3.3488" stroke-linecap="round" stroke-linejoin="round" stroke-miterlimit="10" x1="704.411" y1="352.65" x2="700.5" y2="356.5"/>
	
		<line fill="none" stroke="#E0402F" stroke-width="3.3488" stroke-linecap="round" stroke-linejoin="round" stroke-miterlimit="10" x1="567.443" y1="315.558" x2="562.032" y2="318.407"/>
	
		<line fill="none" stroke="#E0402F" stroke-width="3.3488" stroke-linecap="round" stroke-linejoin="round" stroke-miterlimit="10" x1="255.592" y1="21.394" x2="251.827" y2="18.615"/>
	
		<line fill="none" stroke="#E0402F" stroke-width="3.3488" stroke-linecap="round" stroke-linejoin="round" stroke-miterlimit="10" x1="442" y1="40" x2="439" y2="44.75"/>
	<g>
		<circle fill="#FFB640" cx="746.648" cy="119.135" r="20.833"/>
		<circle fill="#394CD3" cx="752.866" cy="108.665" r="4.092"/>
		<circle fill="#394CD3" cx="743.499" cy="118.499" r="5.527"/>
		<circle fill="#394CD3" cx="739.474" cy="132.262" r="3.455"/>
		<circle fill="#394CD3" cx="741.645" cy="104.672" r="2.179"/>
		<circle fill="#394CD3" cx="732.369" cy="118.864" r="2.179"/>
		<circle fill="#394CD3" cx="761.853" cy="114.992" r="2.18"/>
		<circle fill="#394CD3" cx="758.346" cy="125.887" r="3.454"/>
	</g>
</g>
<g id="girl">
	<path fill="#EADEBE" d="M571.126,207.876c-4.506-0.375-19.902-2.253-28.539-7.135s-15.396-8.637-32.294-25.159
		s-20.653-20.278-27.413-24.033c-1.076-0.598-2.181-1.176-3.294-1.728c-0.399-0.198-0.778-0.374-1.146-0.535
		c-3.588-2.089-7.107-4.119-7.107-4.119c-1.666-1.333-3.167-2.167-6.333-3.667s-9.5-0.667-6.333,0.167
		c2.683,0.706,4.999,1.166,6.333,2s-2.667-1-3.667-1.333s-4.333-0.5-6.333-1c-1.908-0.477-4.26-0.344-2.595,1.26
		c-0.135-0.031-0.281-0.063-0.405-0.094c-2-0.5-2.771-0.581-3,0.333c-0.152,0.607,1.012,1.386,2.322,2.056
		c-1.778,0.007-3.364,0.271-2.822,1.277c1.167,2.167,4.166,1,8.845,2.378c7.582,2.234,4.526,2.396,8.988,3.289
		c0,0-11.042-0.47-10.667,1.167c0.361,1.576,5.5,1.833,8.834,2.667c2.359,0.589,6.061,1.523,7.333,2
		c0.824,0.309,2.879-0.41,4.667,0.333c2.08,0.865,6.661,3.869,8.833,5.833c3.5,3.167,7.392,7.907,9.833,10.5
		c6.009,6.383,17.756,20.774,29.021,30.538c11.266,9.764,17.274,13.519,27.788,16.147c10.515,2.629,28.164,4.506,34.548,4.882
		c6.384,0.375,10.515-16.898,10.515-16.898C589.151,209.754,575.633,208.252,571.126,207.876z"/>
	<path fill="#EADEBE" d="M714.371,205.359c24.891-2.616,30.471-3.265,38.776-1.982c1.323,0.205,2.66,0.441,3.989,0.707
		c0.477,0.096,0.922,0.195,1.35,0.301c4.464,0.602,8.833,1.209,8.833,1.209c3.77-0.189,4.025,0.399,7.849,0.573
		c3.667,0.167,9.69,5.356,6.333,4c-2.844-1.149-5.874-1.547-7.566-1.725s3.946,1.255,5.066,1.558c2.301,0.622,4.5,2.167,5.358,2.969
		c1.591,1.485,4.065,2.458,1.628,2.696c0.14,0.062,0.291,0.131,0.422,0.186c2.105,0.877,2.852,1.308,2.53,2.2
		c-0.213,0.594-1.72,0.48-3.296,0.185c1.608,1.149,2.897,2.385,1.823,2.856c-2.312,1.019-4.359-1.862-9.403-3.747
		c-8.175-3.053-5.495-0.954-10.061-3.097c0,0,10.295,6.717,9.009,7.813c-1.239,1.054-6.053-2.041-9.561-3.505
		c-2.482-1.037-6.381-2.655-7.812-3.084c-0.928-0.277-2.377-2.185-4.43-2.729c-2.388-0.631-8.283-1.126-11.391-0.918
		c-5.007,0.332-11.279,1.698-14.996,2.243C719.68,215.413,689.481,207.976,714.371,205.359z"/>
	<path fill="#EADEBE" d="M862,236c0,0,6-1,9.5-1s5-1,11-2s26-1,31,0.5s16,10,16,10s2,2,0.5,3s-3.5,1-13,1s-14.5,0.5-19,0
		s-14,0.5-17.5,1s-20,0.5-20,0.5"/>
	<path fill="#EADEBE" d="M843.5,323.472c0,0,6,1.036,9.5,1.036s5,1.037,11,2.073s26,1.036,31-0.519s16-10.363,16-10.363
		s2-2.072,0.5-3.108s-3.5-1.036-13-1.036s-14.5-0.519-19,0c-4.5,0.518-14-0.519-17.5-1.036C858.5,310,842,310,842,310"/>
	<path fill="#EADEBE" d="M555.362,137.033c0,0,1.45,11.123,1.692,14.508c0.242,3.385,4.987,12.798,7.405,20.294
		c2.419,7.496,12.629,9.198,15.772,10.89c3.143,1.693,8.688,8.364,10.139,11.266s4.506,7.047,4.506,11.642
		c0,4.594,37.292-8.632,32.123-8.632c-9.388,0-23.278-25.39-24.487-35.062s-4.353-27.807-10.155-28.532
		S555.362,137.033,555.362,137.033z"/>
	<circle fill="none" stroke="#394CD3" stroke-width="2" stroke-miterlimit="10" cx="559.247" cy="155.636" r="7.27"/>
	<circle fill="none" stroke="#394CD3" stroke-width="2" stroke-miterlimit="10" cx="575.22" cy="155.636" r="7.27"/>
	<path fill="none" stroke="#FFFFFF" stroke-width="1.9344" stroke-linecap="round" stroke-miterlimit="10" d="M554.577,155.674
		c0-2.871,2.327-5.198,5.198-5.198"/>
	<path fill="none" stroke="#FFFFFF" stroke-width="1.9344" stroke-linecap="round" stroke-miterlimit="10" d="M570.709,155.823
		c0-2.871,2.327-5.198,5.199-5.198"/>
	<path fill="#E0402F" d="M589.507,139.412c0,0-12.447,3.172-24.949,3.923c-12.503,0.75-15.97,0.282-20.971-2.719
		s-8.592-12.707-3.842-15.958c4.751-3.25,11.003,0,22.755,1.75c11.753,1.75,17.248-2.909,26.5-3.409s17.009-2.093,21.261,7.66
		c4.251,9.752,5.751,24.755,11.002,34.256c5.251,9.502,31.652,21.249,42.904,20.751c11.252-0.502,28.082,11.583,30.833,14.833
		c2.75,3.252,7.004,18.5-12,21c-19.005,2.5-26.479,0.68-47.234-15.074C615.012,190.672,602,193.504,599.5,179.5
		c-2.501-14.002-2.499-20.999-4.5-27C593,146.499,589.507,139.412,589.507,139.412z"/>
	<path fill="#394CD3" d="M489.5,169.833c0,0,1.7,9.202,7.333,14.833c5.633,5.633,8.296,7.821,12.051,11.576
		c3.755,3.756,10.892,12.542,23.283,17.424c12.393,4.882,15.696,6.787,24.333,10.167c8.637,3.379,18.871,3.04,21.5,4.166
		c2.629,1.127,21.447,14.184,24.833,16.667c5,3.667,6.865,3.953,14,7.333s9.406,4.992,17.667,11c8.262,6.008,13.667,12.333,33,22
		c13.223,6.611,21.591,11.297,33,13.334c9.333,1.666,33.318,8.687,43.833,11.691c10.515,3.004,28.539,6.384,44.687,8.261
		c16.146,1.878,37.551,8.262,44.687,7.886c7.135-0.375,11.641-1.502,11.641-1.502L854,327l-3.396-7.963L853,307.5l-6-1.5
		c0,0-2.78,3.274-13.67-1.983c-10.89-5.257-7.658-8.654-30.83-10.017c-22.667-1.333-25.873-0.498-47.277-11.763
		c-21.404-11.266-27.037-10.891-37.176-14.646c-10.14-3.755-12.393-9.013-12.393-9.013s6.009-3.004,16.523-3.004
		c10.514,0,30.792-4.131,51.82-1.127c21.029,3.005,43.185,11.266,58.581,7.511s15.587-2.293,19.587-3.959s9.328-6.556,9.328-6.556
		l4.506-1.126l-1.502-16.147h-6.008c0,0-3.38,1.877-18.025-1.502c-14.646-3.38-12.299-4.335-31.168-4.131
		c-23.952,0.259-30.041-1.878-45.062-4.882s-31.919-2.629-43.936-3.38s-10.163-1.9-18.8-2.276
		c-8.637-0.375-17.334,3.333-17.334,3.333s-6.859,1.383-16.999-3.499c-10.139-4.882-4.57-7.496-14.334-10.5
		c-9.764-3.005-17.024-3.204-19.653-6.584s-12.392-6.009-12.392-6.009l-17.649,6.76c0,0-9.848-2.284-16.139-2.501
		c-5.045-0.174-15.783,1.84-23.5,0.833c-7.666-1-12.446-3.014-23.666-8c-9-4-17.618-6.154-24.001-15.167
		c-6.385-9.012-13.666-14.5-13.666-14.5L495.5,159L489.5,169.833z"/>
	<path fill="#394CD3" d="M619.88,195.007c0,0,9.278-5.173,15.287-5.173c6.008,0,16.118,1.164,21,2.667
		c4.882,1.502,19.665,4.009,25.674,4.009c6.008,0,13.894,1.502,21.028,2.254c7.135,0.751,15.771,0,21.78,1.877
		c6.008,1.878,18.351,0.86,18.351,0.86l1,13.5c0,0-11.867-0.5-17.5-0.5s-18.785,0.792-23.667,1.167
		c-4.882,0.376-19.604,0.742-25.333,0.333c-7-0.5-9.365,2.127-16.5,1c-7.135-1.126-20.091-5.846-23.846-5.846
		C633.398,211.154,619.88,195.007,619.88,195.007z"/>
	<g>
		<g>
			<path fill="#E0402F" d="M570.046,174.359c3.13-0.031,6.244-0.569,8.609-2.769c1.115-1.036,0.157-4.547-1.311-3.182
				c-2.024,1.882-4.734,2.204-7.391,2.231C568.3,170.657,568.383,174.377,570.046,174.359L570.046,174.359z"/>
		</g>
	</g>
	<g opacity="0.2">
		<g>
			<path fill="#E0402F" d="M584.041,166.455c1.39-1.715,2.943-3.286,4.333-5.001c0.78-0.962,0.982-2.24,0.501-3.407
				c-0.321-0.779-1.476-1.789-2.249-0.835c-1.39,1.714-2.944,3.286-4.333,5c-0.78,0.962-0.982,2.241-0.501,3.407
				C582.113,166.398,583.268,167.409,584.041,166.455L584.041,166.455z"/>
		</g>
	</g>
	
		<radialGradient id="SVGID_12_" cx="730.0986" cy="385.1719" r="53.7693" fx="743.2358" fy="423.3585" gradientTransform="matrix(0.4715 0.8819 -0.8819 0.4715 601.9685 -675.4434)" gradientUnits="userSpaceOnUse">
		<stop  offset="0" style="stop-color:#FFFFFF;stop-opacity:0"/>
		<stop  offset="1" style="stop-color:#FFE5FF"/>
	</radialGradient>
	<circle opacity="0.3" fill="url(#SVGID_12_)" cx="581.906" cy="150.703" r="53.769"/>
	<path fill="none" stroke="#263B9E" stroke-width="1.3" stroke-miterlimit="10" d="M603.139,201.501c0,0,8.361,14.999,19.361,23.499
		s19,13.5,24.5,15s25,9,33.5,11s25.154,7.579,25.154,7.579"/>
</g>
<g id="Layer_3" display="none">
	<g display="inline" opacity="0.3">
		
			<circle opacity="0.7" fill="none" stroke="#F4E9D9" stroke-width="2" stroke-linecap="round" stroke-linejoin="round" stroke-miterlimit="10" cx="705.764" cy="721.5" r="6.736"/>
		
			<circle opacity="0.7" fill="none" stroke="#F4E9D9" stroke-width="2" stroke-linecap="round" stroke-linejoin="round" stroke-miterlimit="10" cx="705.764" cy="721.5" r="30.135"/>
		
			<circle opacity="0.7" fill="none" stroke="#F4E9D9" stroke-width="2" stroke-linecap="round" stroke-linejoin="round" stroke-miterlimit="10" cx="705.764" cy="721.5" r="67.832"/>
		
			<path opacity="0.7" fill="none" stroke="#F4E9D9" stroke-width="2" stroke-linecap="round" stroke-linejoin="round" stroke-miterlimit="10" d="
			M820.096,721.5c0,63.147-51.185,114.332-114.332,114.332S591.432,784.647,591.432,721.5s51.185-114.332,114.332-114.332
			S820.096,658.353,820.096,721.5z"/>
	</g>
	<g display="inline">
		<path fill="#E0402F" d="M838.059,191.899c2.307-0.187,3.172,2.339,2.534,4.674c-0.524,1.916-3.423,6.776-9.62,10.146
			c-5.633,3.063-11.033,0.694-12.697-0.614c-2.564-2.018-1.297-5.321,1.194-5.366s6.204,0.846,9.751-0.847
			C832.768,198.201,836.016,192.063,838.059,191.899z"/>
		<path fill="#E0402F" d="M790.426,193.712c-1.78-1.571-0.754-4.028,1.23-5.236c1.627-0.99,6.886-2.34,13.541-0.18
			c6.052,1.964,8.389,7.662,8.73,9.833c0.525,3.349-2.543,4.786-4.363,2.976c-1.82-1.81-3.91-5.197-7.564-6.604
			S792.002,195.104,790.426,193.712z"/>
		<path fill="#E0402F" d="M843.939,186.087c-1.755,1.666-3.875,0.268-4.676-1.975c-0.658-1.838-1.056-7.538,2.043-14.252
			c2.818-6.102,8.507-7.817,10.586-7.894c3.204-0.117,4.043,3.295,2.06,4.971c-1.984,1.679-5.479,3.433-7.388,7.09
			C844.657,177.685,845.494,184.612,843.939,186.087z"/>
		<path fill="#E0402F" d="M785.025,187.661c0.865,2.284-1.136,3.928-3.42,3.986c-1.875,0.048-7.104-1.425-11.994-6.692
			c-4.447-4.79-3.959-10.984-3.291-13.068c1.033-3.211,4.375-2.924,5.168-0.409c0.794,2.512,1.119,6.549,3.706,9.637
			C777.781,184.201,784.262,185.64,785.025,187.661z"/>
		<path fill="#E0402F" d="M764.809,162.989c1.204,2.102-0.516,4.072-2.761,4.527c-1.842,0.375-7.228-0.167-12.862-4.51
			c-5.124-3.949-5.596-10.146-5.257-12.318c0.524-3.348,3.865-3.647,5.034-1.307c1.17,2.342,2.111,6.267,5.14,8.861
			C757.13,160.838,763.744,161.128,764.809,162.989z"/>
		<path fill="#E0402F" d="M727.057,126.312c-0.576-2.385,1.609-3.736,3.881-3.477c1.865,0.213,6.868,2.401,11.07,8.304
			c3.82,5.366,2.576,11.44,1.658,13.413c-1.418,3.04-4.697,2.291-5.174-0.312c-0.479-2.603-0.306-6.649-2.492-10.07
			C733.814,130.749,727.566,128.422,727.057,126.312z"/>
	</g>
</g>
</svg>
