<?xml version="1.0" encoding="utf-8"?>
<!-- Generator: Adobe Illustrator 16.0.0, SVG Export Plug-In . SVG Version: 6.00 Build 0)  -->
<!DOCTYPE svg PUBLIC "-//W3C//DTD SVG 1.1//EN" "http://www.w3.org/Graphics/SVG/1.1/DTD/svg11.dtd">
<svg version="1.1" id="Layer_1" xmlns="http://www.w3.org/2000/svg" xmlns:xlink="http://www.w3.org/1999/xlink" x="0px" y="0px"
	 width="1300px" height="451px" viewBox="-84 0 1300 451" enable-background="new -84 0 1300 451" xml:space="preserve">
<path fill="none" stroke="#394CD3" stroke-width="1.3" stroke-miterlimit="10" d="M1044.892-299.524c0,0-9.722,0-23.333,9.723
	c-13.611,9.722-15.556,13.61-15.556,13.61l5.833,7.777l-7.777-1.943c0,0-5.833,9.722-7.778,17.5
	c-1.943,7.776-3.889,9.722-3.889,9.722l9.723,3.89l-11.667,1.944c0,0-1.943,7.777-1.943,11.666c0,3.89,0,29.167,0,29.167
	s23.333-3.889,35-9.723c11.667-5.833,19.443-17.5,19.443-17.5s-11.667-9.723-5.833-11.666c5.833-1.944,9.723,1.943,9.723,1.943
	s7.777-13.61,9.723-25.277c1.944-11.666,1.944-19.444,1.944-19.444h-7.777l5.833-5.833l-1.944-17.5L1044.892-299.524z"/>
<g>
	<g>
		<path fill="#6040FF" d="M-557.762-303.765c3.9,14.464,12.654,26.912,27.902,30.42c12.788,2.942,25.905,0.067,38.787-0.312
			c1.871-0.056,3.741-0.021,5.609,0.066c0.861,0.041,1.72,0.124,2.577,0.21c-2.526-0.252,0.115,0.046,0.558,0.128
			c1.52,0.282,3.001,0.726,4.456,1.237c2.406,0.85-1.934-0.934,0.35,0.188c0.679,0.335,1.326,0.729,1.97,1.121
			c0.363,0.223,2.418,1.75,0.488,0.236c0.64,0.502,1.235,1.057,1.832,1.608c1.293,1.197,2.443,2.548,3.555,3.913
			c-1.271-1.564,0.714,1.067,0.756,1.127c0.527,0.758,0.997,1.563,1.512,2.33c1.267,1.895,2.692,3.686,4.119,5.459
			c4.403,5.477,10.543,9.432,17.269,11.391c7.814,2.277,16.095,1.322,23.992,0.191c5.436-0.777,8.337-7.598,7.023-12.369
			c-1.59-5.779-6.948-7.802-12.371-7.025c0.957-0.117,0.834-0.102-0.367,0.044c-0.953,0.115-1.909,0.197-2.864,0.276
			c-1.744,0.146-3.494,0.182-5.242,0.156c-0.684-0.012-4.887-0.486-1.992-0.056c-1.421-0.211-2.811-0.584-4.177-1.024
			c-1.034-0.388-0.876-0.301,0.472,0.258c-0.632-0.271-1.236-0.599-1.841-0.924c-0.608-0.33-1.186-0.717-1.761-1.101
			c-2.009-1.34,1.67,1.42-0.209-0.175c-1.16-0.983-2.194-2.106-3.194-3.248c-0.225-0.257-1.838-2.394-0.479-0.567
			c-0.531-0.713-1.023-1.452-1.518-2.19c-4.254-6.355-8.895-12.045-15.502-16.072c-6.339-3.865-13.917-5.074-21.213-5.309
			c-12-0.386-23.926,2.522-35.933,1.314c-1.124-0.134-0.907-0.104,0.65,0.089c-0.659-0.1-1.314-0.233-1.968-0.37
			c-1.279-0.267-2.528-0.651-3.76-1.087c-1.011-0.393-0.806-0.3,0.615,0.279c-0.591-0.262-1.156-0.567-1.722-0.876
			c-0.57-0.31-1.112-0.669-1.653-1.025c-1.918-1.269,1.722,1.461-0.061-0.048c-0.882-0.748-1.671-1.598-2.434-2.463
			c-1.629-1.852,1.247,1.777-0.216-0.313c-0.451-0.644-0.85-1.322-1.247-1.997c-0.423-0.718-0.792-1.466-1.162-2.21
			c-1.275-2.57,0.702,1.912-0.4-0.896c-0.732-1.868-1.293-3.803-1.814-5.737c-1.427-5.29-7.108-8.473-12.37-7.024
			C-556.041-314.678-559.188-309.055-557.762-303.765L-557.762-303.765z"/>
	</g>
</g>
<g>
	<g>
		<path fill="#6040FF" d="M-130.321,146.799c-2.321,9.053-1.387,18.5,5.819,25.085c6.043,5.521,14.05,7.986,21.163,11.733
			c1.032,0.544,2.037,1.138,3.025,1.758c0.456,0.287,0.896,0.596,1.336,0.905c-1.295-0.912,0.048,0.063,0.264,0.241
			c0.738,0.619,1.406,1.313,2.04,2.039c1.046,1.197-0.765-1.102,0.132,0.211c0.267,0.39,0.498,0.802,0.726,1.213
			c0.129,0.231,0.776,1.693,0.192,0.279c0.192,0.468,0.347,0.952,0.501,1.435c0.335,1.047,0.546,2.133,0.729,3.217
			c-0.211-1.24,0.062,0.8,0.065,0.843c0.054,0.574,0.061,1.154,0.104,1.731c0.106,1.416,0.332,2.826,0.563,4.227
			c0.711,4.327,2.833,8.36,5.884,11.488c3.545,3.635,8.336,5.659,12.972,7.467c3.191,1.244,6.86-1.567,7.611-4.563
			c0.91-3.627-1.38-6.372-4.563-7.614c0.556,0.23,0.483,0.203-0.214-0.089c-0.553-0.229-1.098-0.479-1.641-0.729
			c-0.992-0.456-1.954-0.975-2.895-1.524c-0.368-0.216-2.506-1.765-1.065-0.64c-0.707-0.552-1.347-1.182-1.954-1.84
			c-0.441-0.525-0.384-0.432,0.178,0.284c-0.261-0.341-0.487-0.705-0.716-1.065c-0.229-0.366-0.425-0.753-0.619-1.141
			c-0.68-1.341,0.473,1.284-0.06-0.156c-0.328-0.892-0.545-1.817-0.738-2.744c-0.043-0.209-0.264-1.865-0.086-0.456
			c-0.068-0.548-0.109-1.103-0.15-1.655c-0.36-4.757-1.135-9.271-3.488-13.488c-2.256-4.043-6.001-7.025-9.894-9.394
			c-6.398-3.893-13.77-5.971-19.921-10.313c-0.567-0.417-0.46-0.334,0.326,0.249c-0.327-0.258-0.642-0.53-0.955-0.806
			c-0.613-0.537-1.173-1.13-1.708-1.746c-0.429-0.521-0.347-0.408,0.248,0.342c-0.241-0.321-0.455-0.662-0.667-1.002
			c-0.215-0.346-0.397-0.706-0.583-1.065c-0.652-1.278,0.487,1.32-0.018-0.044c-0.25-0.68-0.418-1.382-0.566-2.085
			c-0.315-1.507,0.132,1.349-0.021-0.236c-0.048-0.488-0.056-0.978-0.064-1.467c-0.009-0.52,0.021-1.04,0.047-1.558
			c0.097-1.786-0.205,1.255,0.058-0.608c0.176-1.239,0.464-2.462,0.775-3.674c0.85-3.313-1.261-6.781-4.563-7.611
			C-126.037,141.398-129.473,143.487-130.321,146.799L-130.321,146.799z"/>
	</g>
</g>
<g>
	<g>
		<path fill="#6040FF" d="M-155.884-2.053c7.157,8.514,18.632,7.287,28.11,10.867c-2.245-0.849-0.753-0.318-0.251-0.076
			c0.678,0.327,1.32,0.726,1.961,1.119c0.322,0.198,2.039,1.457,0.339,0.136c0.531,0.412,1.014,0.881,1.48,1.364
			c1.144,1.183-1.056-1.555-0.22-0.29c1.085,1.642-0.425-1.413-0.102-0.311c0.17,0.812,0.12,0.408-0.149-1.206
			c-0.015,0.816,0.06,0.402,0.221-1.242c-0.254,1.718,0.849-1.579,0.289-0.526c-0.62,1.164,1.393-1.63,0.502-0.603
			c-0.438,0.504-1.832,1.479,0.315-0.112c-0.407,0.304-0.854,0.552-1.3,0.795c-1.833,1.003,1.351-0.478,0.019,0.023
			c-0.987,0.371-2.019,0.617-3.05,0.824c-0.312,0.061-0.623,0.111-0.937,0.157c1.333-0.171,1.562-0.212,0.684-0.122
			c-0.657,0.063-1.318,0.075-1.979,0.082c-4.362,0.045-8.003,3.606-8.003,8.003c0,4.329,3.64,8.049,8.003,8.004
			c6.162-0.063,13.549-1.705,17.779-6.583c2.959-3.414,3.755-7.03,3.109-11.438c-0.486-3.328-3.234-6.499-5.787-8.483
			c-3.215-2.499-6.516-4.316-10.416-5.556c-2.592-0.823-5.3-1.267-7.971-1.753c-2.653-0.483-5.301-0.998-7.86-1.863
			c-0.286-0.1-0.571-0.205-0.854-0.316c1.212,0.527,1.436,0.618,0.671,0.273c-0.539-0.247-1.054-0.539-1.563-0.841
			c-0.25-0.152-0.497-0.313-0.738-0.481c1.023,0.822,1.216,0.971,0.575,0.442c-0.577-0.479-1.082-1.033-1.563-1.605
			c-2.81-3.342-8.434-2.884-11.317,0C-159.167-10.089-158.689-5.389-155.884-2.053L-155.884-2.053z"/>
	</g>
</g>
<g>
	<g>
		<path fill="#6040FF" d="M-95.884,104.614c7.157,8.514,18.632,7.287,28.11,10.867c-2.245-0.848-0.753-0.318-0.251-0.076
			c0.678,0.327,1.32,0.726,1.961,1.119c0.322,0.198,2.039,1.457,0.339,0.136c0.531,0.412,1.014,0.881,1.48,1.364
			c1.144,1.183-1.056-1.555-0.22-0.29c1.085,1.642-0.425-1.413-0.102-0.311c0.17,0.812,0.12,0.408-0.149-1.206
			c-0.015,0.816,0.06,0.402,0.221-1.242c-0.254,1.718,0.849-1.579,0.289-0.526c-0.62,1.164,1.393-1.63,0.502-0.603
			c-0.438,0.504-1.832,1.479,0.315-0.112c-0.407,0.304-0.854,0.552-1.3,0.795c-1.833,1.003,1.351-0.478,0.019,0.023
			c-0.987,0.372-2.019,0.617-3.051,0.824c-0.311,0.061-0.622,0.111-0.936,0.157c1.333-0.171,1.561-0.212,0.684-0.122
			c-0.657,0.063-1.318,0.075-1.979,0.082c-4.362,0.045-8.003,3.606-8.003,8.003c0,4.329,3.64,8.049,8.003,8.004
			c6.162-0.063,13.549-1.705,17.779-6.583c2.959-3.414,3.755-7.03,3.109-11.438c-0.486-3.328-3.234-6.499-5.787-8.483
			c-3.215-2.499-6.516-4.316-10.416-5.556c-2.592-0.823-5.3-1.267-7.971-1.753c-2.653-0.483-5.301-0.998-7.86-1.863
			c-0.286-0.1-0.571-0.205-0.854-0.315c1.212,0.526,1.436,0.617,0.671,0.272c-0.539-0.247-1.054-0.539-1.563-0.841
			c-0.25-0.152-0.497-0.313-0.738-0.481c1.023,0.822,1.216,0.971,0.575,0.442c-0.577-0.479-1.082-1.033-1.563-1.605
			c-2.81-3.342-8.434-2.884-11.318,0C-99.166,96.578-98.688,101.278-95.884,104.614L-95.884,104.614z"/>
	</g>
</g>
<circle fill="#13237F" cx="110.5" cy="339.499" r="27.179"/>
<circle fill="#2239AA" cx="112.14" cy="325.617" r="5.783"/>
<circle fill="#2239AA" cx="121.102" cy="344.703" r="5.783"/>
<circle fill="#2239AA" cx="98.935" cy="346.053" r="3.277"/>
<circle fill="#2239AA" cx="128.042" cy="330.438" r="3.277"/>
<circle fill="#2239AA" cx="108.837" cy="338.868" r="2.417"/>
<circle fill="#2239AA" cx="98.688" cy="327.687" r="2.417"/>
<circle fill="#2239AA" cx="108.38" cy="358.581" r="3.277"/>
<circle fill="#FFE576" cx="805.5" cy="58.208" r="4"/>
<linearGradient id="SVGID_1_" gradientUnits="userSpaceOnUse" x1="542.5994" y1="1472.8923" x2="405.0994" y2="1472.8923" gradientTransform="matrix(1 0 0 -1 402.3999 1531.0991)">
	<stop  offset="0" style="stop-color:#FFFFFF;stop-opacity:0"/>
	<stop  offset="1" style="stop-color:#FFE576"/>
</linearGradient>
<rect x="807.5" y="54.833" opacity="0.8" fill="url(#SVGID_1_)" enable-background="new    " width="137.5" height="6.75"/>
<g>
	<g>
		<path fill="#394CD3" d="M93.158,160.453c-2.778-4.397-6.991-7.484-9.949-11.725c-4.258-6.104-0.068-13.04,0.229-19.507
			c0.264-5.724-2.01-10.203-4.267-15.323c-4.006-9.093-3.018-17.749,5.036-24.033c4.297-3.353,9.18-5.654,12.839-9.794
			c3.374-3.817,5.591-8.82,10.093-11.496c4.979-2.958,12.168-1.197,17.48-0.281c5.67,0.978,10.684,1.2,16.02-1.2
			c5.467-2.462,9.67-6.025,15.678-7.407c5.722-1.315,11.689-1.079,17.48-1.86c7.938-1.071,13.602-6.279,12.6-14.503
			c-1.158-9.514-10.146-16.228-19.086-17.449c-4.397-0.602-9.063,1.118-12.545,3.742c-3.002,2.263-5.758,7.323-9.875,7.153
			c-2.973-0.123-6.057-2.522-8.527-3.916c-2.695-1.521-5.395-2.989-8.252-4.188c-5.446-2.286-10.91-1.7-16.265,0.48
			c-4.888,1.991-8.767,5.961-12.681,9.354c-5.306,4.601-10.789,6.597-17.754,6.874c-8.521,0.341-20.495-1.893-26.619,5.837
			c-2.424,3.062-4.396,6.825-3.558,10.863c1.073,5.166,4.814,9.634,4.941,15.003c0.152,6.489-9.45,11.492-13.961,14.578
			c-3.854,2.636-9.404,5.974-9.895,11.144c-0.572,6.051,7.082,9.735,11.313,12.219c6.306,3.702,11.844,8.435,7.395,16.351
			c-2.231,3.969-6.343,6.592-8.785,10.454c-2.034,3.215-2.092,7.724-0.26,11.038c2.405,4.354,6.37,5.938,11.128,6.575
			c6.348,0.85,13.049-0.781,18.731,2.813c4.66,2.945,8.893,8.182,14.783,5.112c0.795-0.415,0.471-2.499-0.42-2.035
			c-5.955,3.103-10.23-3.161-14.993-5.735c-4.145-2.237-8.932-1.896-13.519-1.992c-5.271-0.109-10.914-0.567-14.2-5.238
			c-4.732-6.725,2.538-12.368,6.544-16.84c5.076-5.67,5.704-13.313-0.087-18.569c-4.157-3.771-20.235-8.919-15.108-16.619
			c5.476-8.226,24.817-12.369,22.607-24.882c-0.918-5.195-4.429-9.608-4.976-14.834c-0.909-8.678,9.273-12.406,15.939-12.982
			c10.662-0.921,20.146,1.238,29.354-5.57c4.938-3.652,8.849-8.191,14.496-10.88c7.356-3.502,14.156-1.47,20.918,2.132
			c3.966,2.112,8.503,6.058,13.296,5.528c2.98-0.329,5.215-4.099,7.195-5.947c10.976-10.255,28.422-2.943,31.396,11.023
			c3.086,14.485-21.832,12.043-29.924,13.904c-4.981,1.146-9.188,3.781-13.471,6.452c-5.833,3.641-12.115,2.76-18.496,1.659
			c-5.131-0.884-10.527-1.688-15.527,0.161c-3.746,1.386-6.145,5.179-8.358,8.263c-3.769,5.249-8.116,8.454-13.442,12.007
			c-4.267,2.847-7.213,5.866-9.388,10.494c-1.961,4.171-1.606,9.41-0.166,13.664c2.578,7.608,6.91,13.77,5.17,22.148
			c-1.08,5.203-2.282,10.035-0.45,15.222c1.979,5.604,8.091,9.167,11.195,14.083C92.894,163.058,93.626,161.195,93.158,160.453
			L93.158,160.453z"/>
	</g>
</g>
<circle opacity="0.6" fill="#FFE576" enable-background="new    " cx="762.364" cy="32.126" r="2.65"/>
<linearGradient id="SVGID_2_" gradientUnits="userSpaceOnUse" x1="409.3132" y1="1498.9744" x2="360.3416" y2="1498.9744" gradientTransform="matrix(1 0 0 -1 402.3999 1531.0991)">
	<stop  offset="0" style="stop-color:#FFFFFF;stop-opacity:0"/>
	<stop  offset="1" style="stop-color:#FFE576"/>
</linearGradient>
<rect x="762.742" y="30.422" opacity="0.6" fill="url(#SVGID_2_)" enable-background="new    " width="48.972" height="3.408"/>
<circle opacity="0.6" fill="#FFFFFF" enable-background="new    " cx="761.733" cy="32" r="1.767"/>
<circle opacity="0.6" fill="#FFE576" enable-background="new    " cx="542.797" cy="198.292" r="2.65"/>
<linearGradient id="SVGID_3_" gradientUnits="userSpaceOnUse" x1="189.7458" y1="1332.8083" x2="140.7751" y2="1332.8083" gradientTransform="matrix(1 0 0 -1 402.3999 1531.0991)">
	<stop  offset="0" style="stop-color:#FFFFFF;stop-opacity:0"/>
	<stop  offset="1" style="stop-color:#FFE576"/>
</linearGradient>
<rect x="543.176" y="196.588" opacity="0.6" fill="url(#SVGID_3_)" enable-background="new    " width="48.971" height="3.408"/>
<circle opacity="0.6" fill="#FFFFFF" enable-background="new    " cx="542.166" cy="198.167" r="1.767"/>
<g id="Layer_2_1_">
	
		<radialGradient id="SVGID_4_" cx="-55.8362" cy="1088.8835" r="97.2668" gradientTransform="matrix(0.9814 -0.1918 0.1138 0.5824 449.6421 -926.356)" gradientUnits="userSpaceOnUse">
		<stop  offset="0.129" style="stop-color:#FFFFFF;stop-opacity:0.4"/>
		<stop  offset="0.8925" style="stop-color:#FFFFFF;stop-opacity:0"/>
	</radialGradient>
	<path fill="url(#SVGID_4_)" d="M415.021-314.981l35.5,40l139-16.5l32-43C621.521-334.481,499.521-400.981,415.021-314.981z"/>
</g>
<rect x="233.076" y="-269.219" display="none" fill="none" stroke="#394CD3" stroke-width="2" stroke-miterlimit="10" width="407.998" height="239.729"/>
<circle fill="#394CD3" cx="390.193" cy="-231.219" r="12"/>
<circle fill="#394CD3" cx="432.868" cy="-130.096" r="5.525"/>
<circle fill="#FF553E" cx="580.398" cy="-174.693" r="5.525"/>
<path fill="none" stroke="#EBEDE4" stroke-width="8" stroke-miterlimit="10" d="M351.706-172.999
	c-12.824,15.192-35.539,17.111-50.731,4.289c-15.19-12.825-17.111-35.541-4.287-50.731"/>
<path fill="none" stroke="#394CD3" stroke-width="9" stroke-linejoin="round" stroke-miterlimit="10" d="M412.583-159.945
	c16.925-10.438,39.104-5.178,49.539,11.75c10.438,16.924,5.177,39.104-11.749,49.54"/>
<path fill="none" stroke="#EBEDE4" stroke-width="8" stroke-miterlimit="10" d="M570.02-236.547
	c5.979,18.963-4.555,39.184-23.52,45.155c-18.964,5.977-39.184-4.555-45.155-23.519"/>
<line fill="none" stroke="#EBEDE4" stroke-width="8" stroke-miterlimit="10" x1="161.375" y1="-255.167" x2="187.375" y2="-220.219"/>
<line fill="none" stroke="#EBEDE4" stroke-width="8" stroke-miterlimit="10" x1="634.375" y1="-96.751" x2="652.375" y2="-120.753"/>
<circle fill="#394CD3" cx="521.177" cy="-228.713" r="9.348"/>
<circle fill="#394CD3" cx="447.607" cy="-201.983" r="17.232"/>
<g>
	<g>
		<g>
			<path fill="#FF553E" d="M425.69-247.499c0.195,0.001,0.176-0.148,0.355-0.046c0.104,0.108,0.035,0.229,0.065,0.339
				c0.433,0.054,0.771,0.449,1.071,0.714c0.355-0.067,0.655,0.305,1.003,0.282c-0.144-0.199,0.061,0.019,0.121-0.047
				c-0.001-0.091-0.029-0.178-0.004-0.269c0.104,0.093,0.219,0.081,0.353-0.063c-0.092-0.067-0.233-0.063-0.121-0.221
				c0.171-0.04,0.313,0.122,0.475,0.155c-0.046-0.085-0.128-0.167-0.003-0.269c0.066,0.143,0.188-0.101,0.252,0.095
				c0.846-0.197,1.661-0.303,2.532-0.893c0.22-0.251,0.42-0.38,0.626-0.56c0.313-0.392,0.684-0.921,0.838-1.214
				c0.03-0.063,0.104-0.123,0.142-0.201c0.047-0.11,0.033-0.268,0.063-0.371c0.038-0.137,0.12-0.257,0.14-0.38
				c-0.059-0.147,0.034-0.316-0.021-0.464c0.143-0.093,0.027-0.146,0.112-0.229c-0.016-0.104-0.05-0.206,0.027-0.322
				c-0.342-1.088-1.063-2.082-1.479-3.19c-0.273-0.349-0.397-0.571-0.635-0.962c-0.481-0.39-0.998-1.063-1.104-1.616
				c-0.044-0.051-0.146,0.063-0.172-0.032c-0.546-1.151-1.056-1.986-1.839-3.25c0.021-0.701-0.561-1.395-1.036-2.029
				c-0.387-0.253-0.646-0.74-0.967-0.931c-0.171-0.369-0.395-0.678-0.556-1.179c-0.375-0.439-0.569-0.83-0.877-1.298
				c0.025-0.551,0.001-1.141-0.253-1.742c-0.269-0.643-0.618-0.89-0.713-1.337c0.104-0.043,0.098-0.104,0.194-0.147
				c-0.085-0.309-0.267-0.631-0.258-0.924c-0.247-0.569-0.354-0.741-0.66-1.338c-0.451-0.515-0.921-1.341-1.533-1.841
				c-0.104-0.275-0.332-0.307-0.414-0.613c-0.064,0.021-0.09-0.038-0.109-0.1c-0.122-0.002-0.231-0.022-0.351-0.04
				c-0.079-0.136-0.194-0.198-0.244-0.393c-0.154-0.038-0.175,0.086-0.255,0.167c-0.099-0.077-0.271-0.01-0.297-0.216
				c-0.136,0.126-0.36,0.231-0.545,0.25c0.042,0.109,0.088,0.219-0.066,0.283c0.062-0.104-0.064-0.204-0.17-0.226
				c0.088,0.118-0.03,0.189,0.078,0.313c-0.189,0.044-0.063,0.159-0.16,0.227c0.1,0.172,0.156,0.333-0.063,0.434
				c-0.094-0.109-0.096-0.392-0.243-0.392c0.061,0.088,0.061,0.161-0.033,0.217c-0.084-0.102-0.215-0.11-0.297-0.216
				c-0.151-0.168-0.027-0.396-0.209-0.455c-0.313,0.104-0.063,0.333-0.177,0.479c0.141,0.032,0.002,0.091,0.098,0.208
				c-0.021,0.096,0.104,0.222-0.067,0.282c-0.059-0.046-0.034-0.244-0.146-0.184c-0.063-0.065-0.041-0.283-0.204-0.155
				c-0.063,0.171,0.122,0.471,0.12,0.548c-0.028-0.104-0.182,0.024-0.225-0.05c-0.073-0.034-0.15-0.311-0.137-0.438
				c-0.165,0.103-0.165,0.271-0.257,0.02c-0.323,0.149-0.009,0.443-0.246,0.613c-0.027-0.176-0.155-0.167-0.205-0.308
				c-0.204,0.088-0.164,0.003-0.188-0.115c-0.186,0.117-0.033,0.545-0.341,0.407c0.126,0.151,0.037,0.257-0.027,0.366
				c-0.072-0.071-0.061-0.306-0.188-0.268c0.021,0.055,0.027,0.104-0.07,0.135c-0.182-0.043-0.316-0.319-0.302-0.516
				c-0.255,0.167,0.018,0.449,0.048,0.683c-0.063,0.034-0.123,0.07-0.067,0.134c0.021,0.282,0.104,0.351,0.154,0.63
				c0.067-0.022,0.151-0.078,0.186-0.034c-0.231,0.035-0.053,0.163-0.232,0.208c-0.159-0.225-0.296-0.335-0.451-0.695
				c-0.132-0.048-0.068,0.231-0.309,0.191c-0.027-0.104-0.082-0.154-0.149-0.184c-0.144-0.096,0.015-0.392-0.188-0.267
				c0.065,0.188,0.255,0.403,0.047,0.531c-0.183-0.046-0.179-0.438-0.395-0.423c0.087,0.086-0.161,0.28,0.063,0.272
				c-0.021-0.044-0.021-0.117,0.033-0.065c0.156,0.097,0.104,0.334,0.117,0.396c-0.067,0.062-0.307,0.081-0.254,0.167
				c0.075-0.029,0.104,0.079-0.019,0.106c0.021,0.064,0.089,0.146,0.021,0.189c-0.001-0.11-0.313-0.019-0.147-0.184l-0.152-0.332
				c-0.021-0.056,0.045-0.089-0.004-0.146c-0.068-0.07-0.057-0.306-0.188-0.268c0.104,0.197,0.051,0.357,0.192,0.563
				c-0.056,0.075-0.058,0.161-0.16,0.226l0.097,0.207c-0.228,0.124-0.057,0.335-0.176,0.481c0.026,0.073,0.068,0.124,0.131,0.142
				c-0.063,0.035-0.122,0.071-0.069,0.133c0.168,0.481,0.178,0.771,0.332,1.153c0.023,0.067-0.124,0.097-0.054,0.175
				c0.046,0.199,0.2,0.19,0.245,0.392c-0.218,0.02-0.162,0.081-0.232,0.208c-0.063-0.138-0.204-0.554-0.307-0.663
				c0.163,0.848,0.693,1.813,0.978,2.714c0.074-0.011,0.146-0.015,0.205,0.008c-0.247,0.034,0.07,0.192-0.078,0.251
				c0.073,0.129,0.271,0.209,0.141,0.412c0.246-0.01,0.146,0.283,0.316,0.375c0.042,0.086-0.119,0.129-0.021,0.227
				c0.241,0.318,0.233,0.665,0.307,0.864c0.113,0.353,0.365,0.619,0.493,0.923c0.034,0.082-0.021,0.176,0.008,0.268
				c0.021,0.063,0.141,0.121,0.165,0.184c0.146,0.339,0.149,0.646,0.293,0.925c0.949,1.298,1.46,2.727,2.577,3.758
				c-0.091,0.052-0.112,0.111-0.104,0.177c0.303,0.021,0.258,0.681,0.709,0.464c0.014,0.267,0.399,0.344,0.42,0.646
				c0.063-0.031,0.142-0.099,0.179-0.057c-0.057,0.044-0.146,0.084-0.126,0.137c0.152-0.021,0.184,0.327,0.358,0.225
				c-0.175,0.061,0.082,0.229,0.08,0.233c0.027,0.1,0.025,0.218,0.187,0.281c-0.024,0.122,0.025,0.254,0.105,0.388
				c0.021,0.053-0.016,0.101-0.047,0.146c0.225,0.212,0.26,0.854,0.479,1.065c-0.122,0.065,0.021,0.154-0.065,0.225l0.171,0.233
				c0.127,0.965,0.581,2.146,1.009,3.021l0.176,0.238c0.033,0.054-0.021,0.104,0.039,0.154c0.119,0.178,0.266,0.34,0.396,0.508
				c0.043,0.048,0.104,0.007,0.145,0.078c0.23,0.271,0.45,0.611,0.707,0.771c0.023,0.113-0.051,0.229,0.051,0.345
				c0.229,0.229,0.479,0.345,0.75,0.349c-0.063,0.063,0.033,0.129,0.08,0.191c0.126,0.066,0.598,0.224,0.349,0.422
				c-0.021-0.021-0.073-0.014-0.048,0.039C425.493-247.9,425.565-247.674,425.69-247.499z M417.223-272.258
				c0.305-0.004,0.146,0.426,0.356,0.638C417.279-271.813,417.422-271.875,417.223-272.258z M417.943-271.836
				c0.146-0.128-0.063-0.151-0.099-0.354l0.162-0.075c0.064,0.208,0.047,0.226,0.172,0.373
				C418.075-271.825,418.024-271.857,417.943-271.836z"/>
		</g>
	</g>
</g>
<g>
	<g>
		<g>
			<path fill="#FF553E" d="M715.479-130.54c0.158,0.012,0.229-0.063,0.313-0.006c0.021,0.062-0.102,0.108-0.143,0.164
				c0.309,0.049,0.348,0.262,0.434,0.401c0.316-0.003,0.343,0.19,0.628,0.218c0.004-0.104,0.032,0.014,0.12-0.009
				c0.054-0.041,0.078-0.084,0.148-0.124c0.027,0.055,0.127,0.061,0.314,0.007c-0.031-0.042-0.148-0.055,0.026-0.114
				c0.156,0,0.181,0.093,0.285,0.123c0.016-0.043-0.006-0.093,0.15-0.123c-0.025,0.071,0.207-0.021,0.145,0.071
				c0.787,0.007,1.504,0.077,2.545-0.061c0.316-0.087,0.558-0.113,0.822-0.165c0.479-0.139,1.074-0.342,1.363-0.465
				c0.059-0.022,0.155-0.043,0.229-0.075c0.103-0.052,0.178-0.14,0.26-0.188c0.105-0.063,0.238-0.114,0.32-0.181
				c0.035-0.094,0.201-0.168,0.236-0.266c0.164-0.021,0.104-0.074,0.219-0.104c0.045-0.063,0.07-0.129,0.197-0.18
				c0.309-0.705,0.272-1.479,0.418-2.234c-0.07-0.264-0.07-0.426-0.084-0.715c-0.222-0.323-0.34-0.832-0.258-1.18
				c-0.021-0.036-0.15,0.029-0.144-0.031c-0.067-0.771-0.156-1.38-0.488-2.209c0.238-0.477-0.063-0.941-0.291-1.366
				c-0.271-0.153-0.401-0.442-0.646-0.542c-0.063-0.229-0.189-0.411-0.217-0.73c-0.234-0.254-0.312-0.5-0.5-0.766
				c0.139-0.363,0.229-0.759,0.123-1.131c-0.117-0.395-0.377-0.513-0.388-0.796c0.104-0.048,0.104-0.085,0.201-0.132
				c-0.022-0.184-0.137-0.354-0.08-0.539c-0.133-0.315-0.201-0.404-0.381-0.729c-0.317-0.257-0.613-0.644-1.098-0.804
				c-0.049-0.145-0.254-0.106-0.279-0.274c-0.063,0.026-0.074-0.004-0.086-0.032c-0.107,0.021-0.209,0.04-0.311,0.056
				c-0.054-0.063-0.146-0.075-0.162-0.18c-0.135,0.013-0.17,0.092-0.254,0.156c-0.076-0.021-0.244,0.059-0.236-0.063
				c-0.141,0.105-0.363,0.225-0.531,0.273c0.021,0.06,0.047,0.113-0.104,0.188c0.069-0.077-0.027-0.107-0.117-0.097
				c0.063,0.052-0.06,0.123,0.021,0.173c-0.184,0.068-0.082,0.109-0.184,0.173c0.063,0.081,0.092,0.165-0.127,0.276
				c-0.063-0.047-0.021-0.217-0.16-0.184c0.039,0.038,0.027,0.086-0.063,0.143c-0.063-0.041-0.181-0.021-0.236-0.063
				c-0.111-0.063,0.035-0.229-0.117-0.229c-0.299,0.135-0.106,0.217-0.229,0.332c0.118-0.015-0.017,0.055,0.055,0.104
				c-0.029,0.063,0.063,0.111-0.105,0.188c-0.045-0.021,0.011-0.144-0.104-0.076c-0.043-0.026,0.008-0.162-0.16-0.049
				c-0.086,0.117,0.039,0.258,0.023,0.305c-0.011-0.059-0.166,0.059-0.191,0.021c-0.063-0.004-0.09-0.149-0.057-0.232
				c-0.164,0.102-0.191,0.203-0.234,0.068c-0.313,0.166-0.076,0.271-0.313,0.43c0-0.104-0.115-0.063-0.144-0.141
				c-0.199,0.104-0.146,0.039-0.146-0.025c-0.188,0.111-0.115,0.339-0.371,0.326c0.092,0.063-0.008,0.146-0.084,0.229
				c-0.06-0.025-0.006-0.172-0.129-0.117c0.008,0.027,0.01,0.062-0.086,0.101c-0.156,0.016-0.238-0.121-0.193-0.242
				c-0.256,0.16-0.057,0.271-0.063,0.397c-0.063,0.037-0.123,0.07-0.086,0.101c-0.021,0.167,0.039,0.188,0.047,0.346
				c0.064-0.028,0.148-0.082,0.173-0.063c-0.22,0.071-0.07,0.108-0.242,0.18c-0.109-0.103-0.222-0.135-0.306-0.315
				c-0.108,0-0.102,0.155-0.311,0.188c-0.008-0.06-0.051-0.074-0.107-0.076c-0.11-0.022,0.072-0.237-0.129-0.116
				c0.031,0.104,0.168,0.188-0.039,0.313c-0.153,0.014-0.094-0.229-0.291-0.166c0.064,0.029-0.188,0.207,0.017,0.148
				c-0.019-0.021-0.002-0.063,0.043-0.05c0.125,0.022,0.045,0.179,0.043,0.216c-0.07,0.056-0.287,0.117-0.256,0.158
				c0.074-0.035,0.084,0.023-0.031,0.068c0.008,0.036,0.063,0.064-0.01,0.107c0.018-0.064-0.279,0.063-0.107-0.073l-0.086-0.165
				c-0.012-0.028,0.053-0.064,0.021-0.094c-0.06-0.023-0.009-0.17-0.134-0.113c0.064,0.095-0.012,0.204,0.093,0.297
				c-0.064,0.058-0.076,0.107-0.187,0.173l0.06,0.104c-0.228,0.127-0.104,0.219-0.232,0.332c0.016,0.037,0.047,0.062,0.098,0.059
				c-0.063,0.036-0.123,0.068-0.086,0.097c0.078,0.255,0.043,0.427,0.123,0.622c0.015,0.035-0.127,0.087-0.071,0.117
				c0.012,0.107,0.149,0.066,0.159,0.18c-0.196,0.063-0.155,0.088-0.241,0.183c-0.039-0.064-0.103-0.287-0.177-0.332
				c0.033,0.479,0.313,0.934,0.396,1.402c0.063-0.021,0.131-0.04,0.182-0.04c-0.229,0.073,0.027,0.099-0.117,0.165
				c0.041,0.063,0.205,0.063,0.047,0.214c0.226-0.062,0.076,0.136,0.218,0.15c0.021,0.042-0.134,0.104-0.063,0.141
				c0.16,0.138,0.078,0.336,0.084,0.438c0.021,0.18,0.17,0.28,0.207,0.434c0.012,0.039-0.063,0.104-0.061,0.15
				c0.004,0.028,0.094,0.041,0.102,0.069c0.043,0.166-0.027,0.342,0.027,0.474c0.537,0.553,0.514,1.299,1.221,1.71
				c-0.096,0.041-0.133,0.078-0.146,0.111c0.271-0.028-0.005,0.347,0.459,0.172c-0.087,0.146,0.221,0.146,0.125,0.313
				c0.063-0.021,0.151-0.066,0.176-0.052c-0.064,0.031-0.158,0.063-0.158,0.093c0.141-0.031,0.037,0.162,0.229,0.088
				c-0.175,0.054-0.017,0.119-0.021,0.123c-0.012,0.057-0.057,0.116,0.057,0.143c-0.063,0.066-0.063,0.139-0.049,0.205
				c-0.002,0.023-0.049,0.055-0.094,0.084c0.113,0.098-0.092,0.439,0.02,0.541c-0.133,0.044-0.038,0.076-0.145,0.124l0.047,0.114
				c-0.293,0.52-0.406,1.104-0.418,1.531l0.047,0.114c0.008,0.022-0.063,0.053-0.039,0.077l0.07,0.248
				c0.01,0.021,0.08,0.002,0.072,0.038c0.047,0.134,0.049,0.302,0.17,0.383c-0.039,0.056-0.158,0.108-0.144,0.168
				c0.068,0.108,0.209,0.172,0.428,0.18c-0.084,0.029-0.038,0.063-0.032,0.095c0.063,0.035,0.366,0.125,0.061,0.211
				c-0.002-0.011-0.053-0.008-0.059,0.021C715.525-130.734,715.471-130.625,715.479-130.54z M715.934-143.835
				c0.277-0.066,0.068,0.229,0.229,0.309C715.92-143.579,716.055-143.647,715.934-143.835z M716.523-143.745
				c0.154-0.109-0.033-0.076-0.035-0.191l0.16-0.082c0.029,0.108,0.008,0.125,0.103,0.188
				C716.641-143.768,716.598-143.775,716.523-143.745z"/>
		</g>
	</g>
</g>
<g>
	<g>
		<g>
			<path fill="#394CD3" d="M588.469-71.4c0.08,0.146,0.197,0.127,0.184,0.27c-0.057,0.082-0.18,0.029-0.264,0.06
				c0.117,0.321-0.096,0.59-0.205,0.825c0.188,0.289-0.039,0.516,0.076,0.793c0.129-0.106,0.004,0.046,0.074,0.101
				c0.073,0.002,0.143-0.021,0.227,0.005c-0.051,0.081-0.008,0.18,0.152,0.289c0.034-0.072-0.013-0.189,0.153-0.097
				c0.082,0.14-0.02,0.256-0.006,0.389c0.064-0.036,0.109-0.104,0.23,0.002c-0.105,0.06,0.137,0.16-0.019,0.211
				c0.394,0.718,0.66,1.448,1.346,2.261c0.267,0.197,0.416,0.388,0.613,0.576c0.404,0.287,0.953,0.609,1.254,0.734
				c0.063,0.025,0.133,0.096,0.211,0.121c0.111,0.036,0.263,0.004,0.367,0.021c0.14,0.021,0.269,0.092,0.392,0.092
				c0.139-0.078,0.313-0.014,0.457-0.094c0.104,0.127,0.147,0.006,0.243,0.077c0.104-0.032,0.203-0.088,0.33-0.028
				c1.062-0.563,1.984-1.588,2.9-2.494c0.262-0.424,0.438-0.646,0.727-1.07c0.211-0.663,0.638-1.499,1.045-1.944
				c0.023-0.067-0.127-0.095-0.057-0.179c0.385-0.6,0.682-1.158,0.947-1.768c0.287-0.604,0.508-1.265,0.721-2.063
				c0.576-0.521,0.648-1.551,0.775-2.428c-0.129-0.488-0.021-1.086-0.146-1.461c0.113-0.435,0.101-0.843,0.271-1.39
				c-0.041-0.623,0.026-1.093-0.019-1.688c0.299-0.482,0.588-1.063,0.627-1.768c0.049-0.748-0.127-1.153-0.051-1.636
				c0.111,0.005,0.131-0.063,0.234-0.063c0.039-0.345-0.004-0.744,0.11-1.039c-0.012-0.688-0.077-0.896-0.161-1.625
				c-0.229-0.7-0.488-1.697-0.949-2.364c-0.023-0.316-0.24-0.378-0.242-0.661c-0.068,0.011-0.076-0.05-0.082-0.104
				c-0.117-0.022-0.223-0.063-0.326-0.102c-0.045-0.132-0.143-0.21-0.141-0.386c-0.142-0.063-0.188,0.043-0.285,0.103
				c-0.074-0.086-0.26-0.062-0.23-0.242c-0.16,0.086-0.405,0.137-0.588,0.117c0.015,0.104,0.027,0.207-0.139,0.231
				c0.084-0.082-0.014-0.188-0.105-0.228c0.056,0.119-0.076,0.16-0.004,0.289c-0.192,0.004-0.102,0.127-0.211,0.166
				c0.055,0.168,0.068,0.316-0.172,0.362c-0.063-0.11,0.008-0.354-0.139-0.386c0.033,0.087,0.018,0.15-0.088,0.186
				c-0.058-0.104-0.181-0.14-0.229-0.242c-0.104-0.174,0.07-0.354-0.09-0.438c-0.322,0.033-0.146,0.276-0.289,0.391
				c0.125,0.055-0.021,0.078,0.041,0.195c-0.041,0.08,0.043,0.214-0.139,0.233c-0.046-0.052,0.024-0.22-0.101-0.188
				c-0.041-0.067,0.029-0.256-0.158-0.176c-0.104,0.14,0,0.437-0.021,0.5c0-0.097-0.18-0.011-0.199-0.084
				c-0.063-0.044-0.067-0.298-0.02-0.406c-0.187,0.058-0.229,0.206-0.25-0.03c-0.354,0.067-0.119,0.387-0.394,0.489
				c0.017-0.157-0.108-0.178-0.123-0.308c-0.219,0.039-0.16-0.027-0.147-0.137c-0.207,0.067-0.17,0.471-0.433,0.293
				c0.084,0.156-0.026,0.229-0.121,0.313c-0.051-0.073,0.021-0.272-0.112-0.269c0.004,0.051,0.002,0.098-0.104,0.104
				c-0.164-0.069-0.229-0.339-0.16-0.505c-0.289,0.102-0.102,0.396-0.125,0.604c-0.067,0.02-0.137,0.039-0.104,0.104
				c-0.053,0.251,0.012,0.323-0.006,0.579c0.067-0.009,0.166-0.04,0.186,0.004c-0.231-0.013-0.092,0.135-0.274,0.142
				c-0.101-0.229-0.201-0.349-0.265-0.688c-0.112-0.063-0.127,0.188-0.346,0.108c0-0.098-0.039-0.148-0.1-0.188
				c-0.113-0.106,0.106-0.339-0.115-0.269c0.02,0.179,0.145,0.397-0.088,0.474c-0.162-0.072-0.063-0.416-0.271-0.438
				c0.064,0.09-0.227,0.215-0.012,0.25c-0.012-0.043,0.008-0.105,0.053-0.056c0.125,0.113,0.021,0.313,0.014,0.369
				c-0.079,0.039-0.313,0.019-0.284,0.103c0.082-0.017,0.082,0.088-0.043,0.09c0.002,0.063,0.051,0.145-0.027,0.173
				c0.027-0.102-0.297-0.071-0.098-0.188l-0.064-0.315c-0.006-0.051,0.064-0.068,0.035-0.131c-0.053-0.074,0.021-0.273-0.113-0.27
				c0.054,0.191-0.043,0.321,0.045,0.527c-0.069,0.057-0.096,0.131-0.211,0.166l0.039,0.197c-0.248,0.063-0.139,0.28-0.289,0.39
				c0.013,0.069,0.039,0.12,0.093,0.147c-0.068,0.019-0.138,0.037-0.104,0.103c0.047,0.462-0.059,0.64-0.021,0.974
				c0.003,0.059-0.146,0.057-0.104,0.123c-0.021,0.158,0.131,0.184,0.113,0.339c-0.213-0.024-0.181,0.03-0.287,0.111
				c-0.021-0.111-0.023-0.446-0.086-0.55c-0.076,0.658,0.051,1.469-0.021,2.187c0.07,0.015,0.144,0.024,0.188,0.06
				c-0.24-0.037-0.004,0.156-0.166,0.158c0.016,0.105,0.166,0.217-0.039,0.321c0.23,0.062,0.021,0.236,0.145,0.351
				c0.004,0.068-0.159,0.058-0.106,0.146c0.094,0.287-0.043,0.521-0.078,0.684c-0.063,0.271,0.039,0.525,0.014,0.771
				c-0.01,0.064-0.104,0.105-0.116,0.177c-0.011,0.05,0.065,0.126,0.063,0.179c-0.02,0.271-0.18,0.465-0.189,0.688
				c0.107,0.585,0.063,1.146,0.005,1.676c-0.031,0.541-0.085,1.058,0.063,1.607c-0.104-0.021-0.156,0.002-0.188,0.038
				c0.233,0.171-0.205,0.478,0.268,0.603c-0.168,0.14,0.068,0.383-0.111,0.537c0.064,0.021,0.168,0.028,0.168,0.069
				c-0.067-0.01-0.164-0.041-0.184-0.004c0.129,0.074-0.08,0.257,0.119,0.31c-0.168-0.069-0.088,0.153-0.094,0.156
				c-0.044,0.063-0.121,0.114-0.06,0.233c-0.104,0.037-0.152,0.127-0.188,0.229c-0.021,0.032-0.078,0.032-0.133,0.034
				c0.01,0.225-0.396,0.512-0.39,0.729c-0.129-0.053-0.086,0.072-0.197,0.044l-0.063,0.188c-0.316,0.207-0.615,0.469-0.881,0.74
				c-0.271,0.27-0.531,0.535-0.726,0.783l-0.071,0.172c-0.019,0.037-0.086,0.01-0.091,0.063c-0.053,0.125-0.12,0.24-0.182,0.359
				c-0.016,0.037,0.053,0.072,0.016,0.109c-0.094,0.202-0.245,0.405-0.239,0.61c-0.074,0.032-0.199-0.004-0.24,0.081
				c-0.07,0.188-0.051,0.378,0.07,0.578c-0.078-0.039-0.086,0.037-0.113,0.076c0.004,0.101,0.094,0.474-0.178,0.299
				c0.012-0.016-0.021-0.057-0.052-0.03C588.691-71.581,588.551-71.505,588.469-71.4z M596.563-89.779
				c0.295,0.054,0.035,0.396,0.188,0.623C596.51-89.378,596.657-89.406,596.563-89.779z M597.152-89.278
				c0.176-0.085-0.021-0.146-0.006-0.329l0.178-0.035c0.015,0.192-0.014,0.203,0.07,0.355
				C597.275-89.24,597.234-89.281,597.152-89.278z"/>
		</g>
	</g>
</g>
<g>
	<g>
		<g>
			<path fill="#EBEDE4" d="M574.168-115.306c-0.146-0.107-0.232-0.007-0.296-0.171c0-0.125,0.132-0.158,0.188-0.244
				c-0.273-0.271-0.24-0.702-0.275-1.03c-0.305-0.162-0.26-0.558-0.521-0.741c-0.037,0.198-0.029-0.044-0.119-0.044
				c-0.063,0.057-0.104,0.123-0.187,0.16c-0.012-0.111-0.104-0.176-0.297-0.166c0.021,0.1,0.123,0.182-0.063,0.205
				c-0.148-0.074-0.141-0.258-0.23-0.367c-0.024,0.076-0.022,0.176-0.184,0.158c0.047-0.123-0.207-0.052-0.117-0.201
				c-0.742-0.375-1.397-0.806-2.438-0.979c-0.332,0.021-0.564-0.021-0.84-0.04c-0.498,0.044-1.134,0.148-1.443,0.236
				c-0.064,0.018-0.164,0.011-0.242,0.039c-0.109,0.039-0.209,0.146-0.305,0.192c-0.121,0.063-0.271,0.088-0.363,0.153
				c-0.063,0.131-0.245,0.183-0.31,0.313c-0.162-0.027-0.121,0.074-0.241,0.074c-0.063,0.076-0.106,0.166-0.243,0.192
				c-0.513,0.924-0.722,2.043-1.094,3.047c-0.02,0.402-0.066,0.631-0.146,1.039c0.105,0.56,0.074,1.324-0.184,1.785
				c0.002,0.063,0.148,0.037,0.112,0.123c-0.278,1.139-0.473,2.043-0.543,3.399c-0.429,0.506-0.364,1.338-0.354,2.064
				c0.18,0.402,0.129,0.928,0.294,1.244c-0.063,0.379-0.044,0.736-0.188,1.218c0.07,0.54,0.014,0.95,0.042,1.476
				c-0.31,0.429-0.59,0.92-0.686,1.531c-0.097,0.648,0.059,1.021-0.064,1.426c-0.111-0.014-0.136,0.043-0.239,0.035
				c-0.067,0.287-0.063,0.633-0.2,0.869c-0.044,0.578-0.024,0.771-0.033,1.396c0.149,0.64,0.217,1.455,0.553,2.08
				c-0.027,0.254,0.166,0.365,0.104,0.641c0.068,0.009,0.063,0.063,0.058,0.121c0.107,0.048,0.199,0.105,0.297,0.165
				c0.016,0.136,0.092,0.229,0.053,0.397c0.123,0.088,0.19-0.002,0.302-0.033c0.054,0.099,0.238,0.107,0.173,0.281
				c0.177-0.05,0.43-0.044,0.604,0.016c0.009-0.104,0.017-0.204,0.186-0.194c-0.102,0.062-0.028,0.188,0.056,0.24
				c-0.023-0.128,0.11-0.142,0.064-0.277c0.19,0.039,0.127-0.103,0.242-0.112c-0.016-0.174,0.004-0.319,0.248-0.313
				c0.034,0.122-0.085,0.342,0.051,0.397c-0.017-0.094,0.02-0.147,0.123-0.154c0.032,0.107,0.146,0.169,0.175,0.279
				c0.063,0.188-0.146,0.32-0.012,0.438c0.323,0.037,0.204-0.234,0.366-0.313c-0.108-0.078,0.037-0.069,0.006-0.197
				c0.059-0.067,0.003-0.215,0.186-0.194c0.031,0.06-0.074,0.204,0.059,0.2c0.021,0.074-0.088,0.236,0.112,0.199
				c0.137-0.106,0.099-0.413,0.132-0.478c-0.021,0.095,0.175,0.05,0.181,0.123c0.051,0.06,0.002,0.304-0.068,0.396
				c0.191-0.017,0.271-0.149,0.236,0.085c0.354,0.008,0.201-0.347,0.488-0.39c-0.052,0.147,0.065,0.19,0.053,0.318
				c0.225,0.011,0.147,0.063,0.115,0.161c0.221-0.021,0.271-0.413,0.481-0.188c-0.047-0.168,0.08-0.216,0.189-0.272
				c0.031,0.083-0.082,0.26,0.053,0.278c0.008-0.049,0.021-0.095,0.121-0.076c0.146,0.104,0.146,0.373,0.049,0.52
				c0.303-0.031,0.184-0.355,0.254-0.553c0.072-0.002,0.146-0.009,0.121-0.076c0.104-0.229,0.063-0.313,0.133-0.556
				c-0.067-0.009-0.17,0.005-0.18-0.043c0.227,0.063,0.119-0.106,0.303-0.073c0.045,0.236,0.121,0.377,0.105,0.719
				c0.098,0.092,0.164-0.15,0.356-0.027c-0.021,0.092,0.009,0.148,0.06,0.198c0.088,0.13-0.185,0.302,0.053,0.278
				c0.021-0.176-0.051-0.414,0.189-0.436c0.145,0.104-0.031,0.412,0.17,0.479c-0.041-0.102,0.268-0.157,0.063-0.234
				c0.002,0.041-0.029,0.103-0.063,0.036c-0.101-0.136,0.051-0.304,0.065-0.354c0.09-0.021,0.313,0.054,0.304-0.033
				c-0.082-0.005-0.063-0.104,0.063-0.078c0.012-0.061-0.02-0.146,0.063-0.154c-0.052,0.088,0.271,0.133,0.055,0.196l-0.008,0.317
				c-0.004,0.052-0.078,0.055-0.063,0.117c0.031,0.084-0.08,0.262,0.056,0.278c-0.013-0.192,0.11-0.3,0.069-0.517
				c0.082-0.039,0.121-0.104,0.244-0.115l0.004-0.195c0.256-0.013,0.195-0.24,0.365-0.313c0.008-0.068-0.012-0.124-0.058-0.161
				c0.072-0.002,0.146-0.008,0.123-0.075c0.06-0.44,0.177-0.67,0.203-1.028c0.008-0.063,0.152-0.026,0.123-0.114
				c0.047-0.175-0.098-0.229-0.053-0.4c0.203,0.07,0.184,0,0.303-0.069c0,0.131-0.059,0.512-0.016,0.639
				c0.211-0.744,0.191-1.646,0.354-2.421c-0.069-0.021-0.137-0.046-0.18-0.084c0.232,0.064,0.023-0.173,0.187-0.154
				c-0.007-0.123-0.146-0.259,0.065-0.354c-0.225-0.091-0.002-0.268-0.108-0.397c0.004-0.079,0.166-0.047,0.125-0.156
				c-0.066-0.325,0.096-0.582,0.145-0.749c0.08-0.295,0-0.586,0.047-0.853c0.014-0.072,0.107-0.114,0.131-0.189
				c0.017-0.053-0.059-0.143-0.051-0.192c0.051-0.301,0.201-0.517,0.225-0.771c-0.18-1.313,0.23-2.484-0.161-3.693
				c0.104,0.01,0.153-0.021,0.186-0.063c-0.246-0.154,0.164-0.574-0.324-0.651c0.146-0.186-0.127-0.43,0.033-0.643
				c-0.068-0.012-0.172-0.003-0.178-0.053c0.069-0.004,0.17,0.02,0.182-0.027c-0.139-0.063,0.043-0.313-0.162-0.331
				c0.179,0.048,0.064-0.192,0.07-0.197c0.035-0.08,0.104-0.157,0.018-0.278c0.095-0.067,0.123-0.187,0.14-0.313
				c0.016-0.045,0.065-0.063,0.123-0.074c-0.06-0.254,0.287-0.697,0.229-0.953c0.142,0.021,0.072-0.11,0.189-0.106l0.014-0.242
				c0.5-0.688,0.879-1.674,1.092-2.447l0.017-0.239c0.006-0.054,0.08-0.054,0.063-0.118l0.017-0.532
				c-0.003-0.057-0.074-0.063-0.06-0.125c-0.002-0.3,0.053-0.632-0.039-0.868c0.058-0.085,0.188-0.116,0.189-0.241
				c-0.027-0.267-0.146-0.478-0.349-0.629c0.091-0.006,0.06-0.099,0.063-0.164c-0.053-0.108-0.309-0.47,0.012-0.451
				c0,0.021,0.049,0.049,0.063,0.002C574.059-114.948,574.148-115.128,574.168-115.306z M567.516-93.848
				c-0.275-0.114,0.053-0.391-0.045-0.638C567.656-94.219,567.502-94.224,567.516-93.848z M567.051-94.454
				c-0.189,0.043-0.017,0.146-0.068,0.313l-0.18-0.004c0.026-0.188,0.057-0.192,0.01-0.354
				C566.936-94.514,566.969-94.469,567.051-94.454z"/>
		</g>
	</g>
</g>
<g>
	<g>
		<g>
			<path fill="#394CD3" d="M513.411-69.601c0.189-0.005,0.188-0.148,0.353-0.052c0.083,0.106,0.005,0.221,0.02,0.329
				c0.396,0.06,0.658,0.455,0.912,0.721c0.366-0.044,0.58,0.339,0.905,0.372c-0.094-0.211,0.051,0.021,0.124-0.024
				c0.02-0.086,0.009-0.175,0.054-0.259c0.077,0.104,0.191,0.111,0.353-0.006c-0.073-0.084-0.216-0.104-0.074-0.233
				c0.171-0.013,0.273,0.172,0.427,0.23c-0.026-0.092-0.091-0.188,0.051-0.264c0.04,0.148,0.203-0.063,0.229,0.142
				c0.865-0.033,1.728,0.078,2.752-0.242c0.271-0.188,0.508-0.256,0.758-0.37c0.396-0.3,0.866-0.74,1.065-1.011
				c0.038-0.057,0.133-0.098,0.177-0.172c0.063-0.104,0.061-0.291,0.103-0.401c0.055-0.144,0.153-0.25,0.185-0.39
				c-0.06-0.201,0.057-0.363-0.002-0.565c0.158-0.052,0.035-0.168,0.139-0.229c-0.015-0.138-0.053-0.276,0.038-0.392
				c-0.396-1.496-1.354-3.052-2.189-4.487c-0.392-0.478-0.631-0.769-1.065-1.304c-0.355-0.271-0.748-0.627-1.103-0.998
				c-0.363-0.347-0.688-0.709-0.891-1.034c-0.076-0.062-0.138,0.084-0.218-0.028c-1.204-1.337-2.246-2.313-3.938-3.501
				c-0.428-0.8-1.543-1.385-2.485-1.933c-0.59-0.125-1.215-0.527-1.683-0.603c-0.44-0.323-0.896-0.526-1.431-0.974
				c-0.704-0.292-1.188-0.607-1.848-0.901c-0.396-0.536-0.885-1.104-1.597-1.551c-0.755-0.479-1.275-0.556-1.723-0.92
				c0.063-0.097,0.008-0.146,0.063-0.237c-0.327-0.24-0.758-0.447-0.986-0.726c-0.698-0.403-0.932-0.505-1.688-0.896
				c-0.856-0.264-1.824-0.694-2.715-0.774c-0.282-0.178-0.507-0.072-0.813-0.312c-0.041,0.058-0.104,0.017-0.174-0.026
				c-0.105,0.063-0.226,0.106-0.34,0.153c-0.17-0.075-0.318-0.069-0.508-0.216c-0.165,0.053-0.089,0.173-0.1,0.289
				c-0.146-0.02-0.244,0.141-0.427-0.029c-0.021,0.188-0.146,0.405-0.293,0.522c0.119,0.071,0.24,0.146,0.151,0.291
				c-0.024-0.129-0.212-0.146-0.315-0.108c0.164,0.063,0.115,0.188,0.31,0.239c-0.139,0.146,0.063,0.178,0.022,0.29
				c0.218,0.102,0.393,0.212,0.27,0.424c-0.164-0.048-0.375-0.298-0.509-0.216c0.114,0.047,0.174,0.11,0.134,0.212
				c-0.148-0.043-0.272,0.02-0.425-0.029c-0.263-0.063-0.322-0.341-0.525-0.296c-0.193,0.265,0.191,0.334,0.207,0.529
				c0.146-0.047,0.068,0.079,0.239,0.133c0.057,0.097,0.258,0.144,0.148,0.291c-0.086-0.01-0.214-0.198-0.271-0.08
				c-0.104-0.026-0.249-0.231-0.299-0.028c0.067,0.188,0.462,0.354,0.518,0.427c-0.103-0.075-0.138,0.12-0.229,0.075
				c-0.092,0.011-0.364-0.19-0.447-0.316c-0.07,0.181,0.06,0.336-0.214,0.152c-0.176,0.313,0.324,0.403,0.243,0.688
				c-0.156-0.145-0.268-0.063-0.411-0.162c-0.114,0.188-0.146,0.094-0.25-0.003c-0.075,0.208,0.377,0.511,0.006,0.554
				c0.227,0.067,0.226,0.211,0.246,0.349c-0.115-0.024-0.277-0.24-0.363-0.138c0.056,0.039,0.104,0.078,0.037,0.156
				c-0.192,0.063-0.521-0.111-0.651-0.296c-0.102,0.289,0.354,0.396,0.556,0.585c-0.028,0.066-0.058,0.133,0.035,0.158
				c0.229,0.243,0.354,0.258,0.611,0.479c0.042-0.059,0.075-0.15,0.137-0.131c-0.182,0.158,0.074,0.174-0.052,0.314
				c-0.311-0.115-0.512-0.143-0.921-0.378c-0.151,0.024,0.11,0.247-0.128,0.341c-0.104-0.078-0.188-0.094-0.271-0.082
				c-0.196-0.006-0.281-0.355-0.364-0.135c0.201,0.133,0.524,0.224,0.438,0.449c-0.192,0.061-0.484-0.299-0.663-0.164
				c0.144,0.029,0.067,0.343,0.26,0.216c-0.054-0.026-0.105-0.097-0.021-0.079c0.211,0.002,0.346,0.238,0.401,0.293
				c-0.02,0.091-0.208,0.236-0.102,0.289c0.046-0.07,0.151,0.013,0.065,0.104c0.063,0.049,0.188,0.078,0.161,0.158
				c-0.085-0.102-0.287,0.156-0.271-0.082l-0.385-0.215c-0.063-0.037-0.026-0.104-0.113-0.132c-0.114-0.022-0.275-0.241-0.362-0.138
				c0.24,0.117,0.313,0.295,0.596,0.397c0.008,0.099,0.068,0.177,0.023,0.291l0.238,0.134c-0.104,0.233,0.201,0.332,0.207,0.528
				c0.081,0.05,0.155,0.069,0.223,0.056c-0.028,0.065-0.058,0.131,0.037,0.157c0.51,0.343,0.757,0.595,1.193,0.854
				c0.075,0.05-0.033,0.154,0.094,0.188c0.196,0.154,0.329,0.063,0.525,0.218c-0.182,0.139-0.08,0.161-0.044,0.317
				c-0.164-0.087-0.618-0.39-0.8-0.435c0.854,0.688,1.978,1.23,2.863,1.869c0.06-0.053,0.115-0.095,0.185-0.104
				c-0.188,0.168,0.197,0.129,0.107,0.262c0.151,0.071,0.382,0.031,0.406,0.283c0.207-0.146,0.325,0.164,0.538,0.146
				c0.098,0.054-0.016,0.181,0.14,0.209c0.433,0.144,0.67,0.445,0.857,0.595c0.335,0.25,0.731,0.354,1.049,0.561
				c0.085,0.058,0.097,0.168,0.183,0.232c0.062,0.045,0.203,0.032,0.269,0.071c0.354,0.229,0.549,0.496,0.854,0.672
				c1.697,0.646,2.926,1.742,4.505,2.185c-0.058,0.086-0.047,0.147-0.007,0.207c0.3-0.115,0.589,0.51,0.896,0.13
				c0.135,0.249,0.53,0.17,0.688,0.45c0.046-0.06,0.086-0.147,0.146-0.123c-0.032,0.063-0.104,0.138-0.06,0.18
				c0.137-0.081,0.318,0.238,0.441,0.074c-0.141,0.121,0.183,0.185,0.185,0.188c0.068,0.084,0.122,0.193,0.302,0.197
				c0.023,0.129,0.132,0.233,0.263,0.334c0.039,0.045,0.023,0.104,0.015,0.156c0.298,0.127,0.582,0.723,0.879,0.848
				c-0.097,0.104,0.078,0.14,0.019,0.23c0.083,0.059,0.161,0.115,0.236,0.18c0.409,0.909,1.148,1.896,1.69,2.635l0.212,0.188
				c0.043,0.042-0.004,0.102,0.063,0.138c0.157,0.132,0.302,0.271,0.438,0.411c0.043,0.039,0.1-0.012,0.141,0.055
				c0.236,0.229,0.47,0.521,0.726,0.64c0.03,0.104-0.035,0.223,0.063,0.315c0.229,0.186,0.45,0.277,0.717,0.26
				c-0.063,0.064,0.027,0.119,0.072,0.181c0.118,0.055,0.576,0.176,0.326,0.374c-0.018-0.021-0.067-0.009-0.046,0.039
				C513.231-69.962,513.297-69.757,513.411-69.601z M493.177-89.831c0.268-0.17,0.446,0.307,0.796,0.377
				C493.561-89.46,493.639-89.595,493.177-89.831z M494.129-89.847c0.033-0.193-0.172-0.104-0.354-0.266l0.088-0.156
				c0.215,0.146,0.21,0.18,0.435,0.238C494.253-89.908,494.184-89.908,494.129-89.847z"/>
		</g>
	</g>
</g>
<g>
	<g>
		<g>
			<path fill="#394CD3" d="M643.073-165.073c0.168-0.091,0.103-0.218,0.289-0.201c0.121,0.062,0.104,0.194,0.162,0.286
				c0.375-0.122,0.795,0.113,1.139,0.234c0.312-0.201,0.675,0.047,0.979-0.066c-0.176-0.147,0.059-0.002,0.104-0.08
				c-0.021-0.084-0.067-0.158-0.067-0.253c0.117,0.059,0.223,0.014,0.313-0.161c-0.104-0.042-0.233,0.005-0.172-0.176
				c0.146-0.087,0.324,0.025,0.484,0.017c-0.064-0.065-0.164-0.127-0.072-0.256c0.104,0.116,0.154-0.146,0.271,0.022
				c0.764-0.418,1.58-0.699,2.354-1.444c0.16-0.29,0.34-0.455,0.514-0.67c0.228-0.444,0.443-1.05,0.507-1.379
				c0.014-0.066,0.071-0.146,0.08-0.231c0.012-0.123-0.074-0.288-0.089-0.404c-0.02-0.148,0.023-0.293-0.014-0.431
				c-0.139-0.153-0.109-0.35-0.254-0.506c0.121-0.117-0.041-0.166,0.02-0.271c-0.069-0.112-0.17-0.227-0.141-0.362
				c-1.02-1.165-2.568-2.129-3.963-3.042c-0.562-0.253-0.904-0.406-1.535-0.689c-0.438-0.085-0.947-0.228-1.43-0.4
				c-0.48-0.146-0.937-0.327-1.258-0.527c-0.099-0.021-0.087,0.136-0.21,0.064c-1.674-0.657-3.04-1.064-5.084-1.379
				c-0.737-0.521-1.997-0.552-3.088-0.617c-0.582,0.148-1.321,0.063-1.771,0.212c-0.541-0.095-1.037-0.072-1.713-0.232
				c-0.765,0.053-1.332-0.016-2.058,0.017c-0.592-0.307-1.28-0.598-2.116-0.68c-0.892-0.09-1.396,0.075-1.951-0.055
				c0.016-0.113-0.06-0.137-0.049-0.242c-0.402-0.069-0.88-0.063-1.207-0.209c-0.812-0.049-1.062-0.034-1.91-0.048
				c-0.89,0.146-1.943,0.188-2.777,0.515c-0.33-0.031-0.483,0.159-0.861,0.086c-0.016,0.069-0.094,0.063-0.168,0.053
				c-0.067,0.105-0.151,0.195-0.231,0.289c-0.189,0.013-0.32,0.082-0.551,0.033c-0.125,0.119-0.004,0.193,0.039,0.305
				c-0.136,0.052-0.156,0.231-0.396,0.16c0.063,0.181,0.053,0.433-0.025,0.603c0.142,0.014,0.279,0.022,0.269,0.19
				c-0.082-0.104-0.256-0.039-0.332,0.043c0.174-0.021,0.188,0.117,0.381,0.08c-0.059,0.188,0.135,0.129,0.152,0.244
				c0.233-0.006,0.438,0.021,0.426,0.265c-0.168,0.026-0.467-0.103-0.551,0.032c0.127-0.013,0.205,0.022,0.215,0.131
				c-0.154,0.025-0.236,0.141-0.396,0.16c-0.264,0.061-0.438-0.16-0.604-0.024c-0.058,0.319,0.322,0.213,0.422,0.38
				c0.109-0.106,0.1,0.04,0.273,0.013c0.094,0.063,0.295,0.015,0.266,0.193c-0.08,0.026-0.279-0.084-0.277,0.047
				c-0.104,0.021-0.321-0.101-0.274,0.104c0.146,0.141,0.565,0.109,0.647,0.148c-0.125-0.021-0.063,0.17-0.174,0.172
				c-0.076,0.05-0.414-0.01-0.545-0.086c0.021,0.192,0.203,0.274-0.121,0.233c-0.016,0.354,0.476,0.218,0.525,0.507
				c-0.205-0.061-0.271,0.062-0.441,0.039c-0.02,0.222-0.088,0.146-0.225,0.105c0.02,0.222,0.563,0.286,0.25,0.491
				c0.229-0.04,0.295,0.089,0.375,0.198c-0.115,0.03-0.357-0.091-0.392,0.042c0.066,0.01,0.133,0.021,0.105,0.125
				c-0.146,0.142-0.521,0.131-0.717,0.022c0.039,0.307,0.489,0.196,0.756,0.275c0.004,0.072,0.01,0.146,0.104,0.125
				c0.314,0.115,0.435,0.073,0.767,0.156c0.012-0.07-0.002-0.171,0.063-0.18c-0.09,0.225,0.146,0.123,0.099,0.307
				c-0.328,0.034-0.521,0.104-0.99,0.072c-0.125,0.095,0.209,0.171,0.035,0.358c-0.125-0.021-0.211,0-0.275,0.048
				c-0.182,0.082-0.412-0.19-0.389,0.041c0.237,0.028,0.569-0.031,0.596,0.209c-0.146,0.143-0.566-0.051-0.666,0.147
				c0.139-0.036,0.213,0.272,0.326,0.076c-0.063-0.002-0.144-0.035-0.055-0.063c0.188-0.092,0.416,0.063,0.489,0.084
				c0.025,0.092-0.08,0.312,0.039,0.305c0.013-0.082,0.146-0.059,0.107,0.063c0.082,0.018,0.201-0.011,0.217,0.071
				c-0.121-0.054-0.189,0.268-0.277,0.046l-0.438-0.021c-0.07-0.009-0.072-0.078-0.162-0.065c-0.115,0.028-0.357-0.093-0.387,0.042
				c0.27-0.001,0.405,0.125,0.709,0.094c0.051,0.083,0.143,0.124,0.149,0.248l0.273,0.014c0.01,0.26,0.328,0.207,0.422,0.383
				c0.094,0.011,0.17-0.008,0.223-0.052c0.002,0.072,0.013,0.146,0.104,0.126c0.604,0.076,0.94,0.192,1.451,0.231
				c0.09,0.008,0.039,0.153,0.166,0.125c0.245,0.051,0.317-0.092,0.563-0.041c-0.1,0.203,0,0.182,0.104,0.305
				c-0.188-0.004-0.729-0.067-0.906-0.028c1.07,0.229,2.315,0.226,3.396,0.396c0.025-0.068,0.063-0.134,0.113-0.177
				c-0.094,0.23,0.236,0.022,0.215,0.186c0.17-0.005,0.355-0.143,0.49,0.071c0.121-0.225,0.365,0.002,0.549-0.104
				c0.109,0.002,0.066,0.164,0.219,0.125c0.445-0.063,0.8,0.104,1.031,0.146c0.41,0.075,0.816-0.009,1.188,0.034
				c0.102,0.012,0.159,0.104,0.266,0.128c0.072,0.014,0.197-0.063,0.271-0.053c0.418,0.043,0.711,0.194,1.063,0.221
				c1.813-0.18,3.396,0.257,5.006-0.057c-0.012,0.104,0.025,0.154,0.088,0.188c0.22-0.234,0.757,0.192,0.859-0.283
				c0.229,0.163,0.551-0.084,0.813,0.101c0.018-0.068,0.014-0.173,0.069-0.175c0,0.068-0.024,0.168,0.029,0.188
				c0.084-0.134,0.395,0.071,0.43-0.131c-0.067,0.171,0.244,0.084,0.248,0.089c0.104,0.045,0.197,0.12,0.355,0.043
				c0.082,0.104,0.223,0.152,0.385,0.185c0.055,0.021,0.065,0.077,0.082,0.138c0.322-0.021,0.844,0.387,1.164,0.362
				c-0.039,0.138,0.131,0.088,0.114,0.2c0.103,0.015,0.197,0.031,0.294,0.054c0.771,0.634,1.875,1.188,2.688,1.604l0.271,0.07
				c0.059,0.02,0.04,0.092,0.118,0.094c0.197,0.047,0.392,0.104,0.572,0.174c0.059,0.017,0.082-0.053,0.146-0.014
				c0.313,0.096,0.647,0.256,0.934,0.248c0.074,0.08,0.064,0.214,0.199,0.254c0.289,0.061,0.527,0.05,0.758-0.084
				c-0.023,0.086,0.078,0.093,0.145,0.125c0.132-0.006,0.597-0.104,0.459,0.188c-0.021-0.011-0.063,0.023-0.021,0.058
				C642.75-165.317,642.898-165.16,643.073-165.073z M615.941-174.16c0.162-0.271,0.537,0.065,0.881-0.021
				C616.45-174.003,616.463-174.157,615.941-174.16z M616.788-174.603c-0.059-0.188-0.196-0.02-0.438-0.081l0.008-0.179
				c0.26,0.036,0.271,0.063,0.492,0.021C616.87-174.714,616.811-174.685,616.788-174.603z"/>
		</g>
	</g>
</g>
<g>
	<g>
		
			<ellipse fill="none" stroke="#394CD3" stroke-width="2" stroke-linecap="round" stroke-linejoin="round" stroke-miterlimit="10" cx="195.542" cy="-178.667" rx="10" ry="4"/>
		<path fill="none" stroke="#394CD3" stroke-width="2" stroke-linecap="round" stroke-linejoin="round" stroke-miterlimit="10" d="
			M205.542-178.667v6.666v-1.064v2.398c0,2.209-4.479,4-10,4c-5.521,0-10-1.791-10-4l0,0v-1.334v-6.666"/>
	</g>
	<g>
		
			<ellipse fill="none" stroke="#394CD3" stroke-width="2" stroke-linecap="round" stroke-linejoin="round" stroke-miterlimit="10" cx="245.542" cy="-178.667" rx="10" ry="4"/>
		<path fill="none" stroke="#394CD3" stroke-width="2" stroke-linecap="round" stroke-linejoin="round" stroke-miterlimit="10" d="
			M255.542-178.667v6.666v-1.064v2.398c0,2.209-4.479,4-10,4c-5.521,0-10-1.791-10-4l0,0v-1.334v-6.666"/>
	</g>
	<g>
		
			<ellipse fill="none" stroke="#394CD3" stroke-width="2" stroke-linecap="round" stroke-linejoin="round" stroke-miterlimit="10" cx="220.667" cy="-170.667" rx="10" ry="4"/>
		<path fill="none" stroke="#394CD3" stroke-width="2" stroke-linecap="round" stroke-linejoin="round" stroke-miterlimit="10" d="
			M230.667-170.667V-164v-1.066v2.399c0,2.209-4.479,4-10,4c-5.521,0-10-1.791-10-4l0,0V-164v-6.668"/>
	</g>
	<g>
		
			<ellipse fill="none" stroke="#394CD3" stroke-width="2" stroke-linecap="round" stroke-linejoin="round" stroke-miterlimit="10" cx="220.667" cy="-187.667" rx="10" ry="4"/>
		<path fill="none" stroke="#394CD3" stroke-width="2" stroke-linecap="round" stroke-linejoin="round" stroke-miterlimit="10" d="
			M230.667-187.667v6.666v-1.064v2.398c0,2.209-4.479,4-10,4c-5.521,0-10-1.791-10-4l0,0v-1.334v-6.666"/>
	</g>
	
		<polygon fill="none" stroke="#394CD3" stroke-width="2" stroke-linecap="round" stroke-linejoin="round" stroke-miterlimit="10" points="
		174.542,-169.667 220.542,-152.667 220.542,-115.667 174.542,-132.667 	"/>
	<g>
		
			<line fill="none" stroke="#394CD3" stroke-width="2" stroke-linecap="round" stroke-linejoin="round" stroke-miterlimit="10" x1="255.692" y1="-172.651" x2="265.792" y2="-168.917"/>
		
			<line fill="none" stroke="#394CD3" stroke-width="2" stroke-linecap="round" stroke-linejoin="round" stroke-miterlimit="10" x1="231.375" y1="-181.667" x2="235.899" y2="-179.964"/>
	</g>
	<g>
		
			<line fill="none" stroke="#394CD3" stroke-width="2" stroke-linecap="round" stroke-linejoin="round" stroke-miterlimit="10" x1="185.075" y1="-173.75" x2="174.708" y2="-169.917"/>
		
			<line fill="none" stroke="#394CD3" stroke-width="2" stroke-linecap="round" stroke-linejoin="round" stroke-miterlimit="10" x1="210.042" y1="-182.007" x2="205.396" y2="-180.257"/>
	</g>
	
		<polygon fill="none" stroke="#394CD3" stroke-width="2" stroke-linecap="round" stroke-linejoin="round" stroke-miterlimit="10" points="
		266.542,-168.667 220.208,-152.667 220.208,-115.667 266.542,-131.667 	"/>
	<path fill="none" stroke="#394CD3" stroke-width="2" stroke-linecap="round" stroke-linejoin="round" stroke-miterlimit="10" d="
		M220.542-115.667"/>
	<path fill="none" stroke="#394CD3" stroke-width="2" stroke-linecap="round" stroke-linejoin="round" stroke-miterlimit="10" d="
		M229.726-165.564"/>
</g>
<g>
	<polygon fill="#F7A328" points="415.693,-101.204 407.505,-104.202 404.845,-105.185 369.61,-118.288 323.693,-101.204 
		323.693,-65.204 369.36,-47.333 369.36,-47.203 369.527,-47.267 369.693,-47.203 369.693,-47.332 415.693,-65.204 	"/>
	<g>
		<g>
			<polyline fill="#FFB640" points="369.36,-83.085 415.693,-101.085 407.505,-104.083 404.845,-105.068 369.61,-118.169 
				323.693,-101.085 369.36,-84.085 			"/>
			<line fill="none" x1="380.527" y1="-114.204" x2="385.053" y2="-112.5"/>
		</g>
		<path fill="#F7A328" d="M354.693-111.204v6.666v-1.063v2.397c0,2.209-4.479,4-10,4s-10-1.791-10-4l0,0v-1.334v-6.666"/>
	</g>
	<g>
		<path fill="#F7A328" d="M404.693-111.204v6.666v-1.063v2.397c0,2.209-4.479,4-10,4s-10-1.791-10-4l0,0v-1.334v-6.666"/>
	</g>
	<g>
		<path fill="#F7A328" d="M379.818-103.204v6.666v-1.063v2.397c0,2.209-4.479,4-10,4s-10-1.791-10-4l0,0v-1.334v-6.666"/>
	</g>
	<g>
		<path fill="#F7A328" d="M379.818-120.204v6.666v-1.063v2.397c0,2.209-4.479,4-10,4s-10-1.791-10-4l0,0v-1.334v-6.666"/>
	</g>
	<ellipse fill="#FFB640" cx="344.693" cy="-111.204" rx="10" ry="4"/>
	<ellipse fill="#FFB640" cx="394.693" cy="-111.204" rx="10" ry="4"/>
	<ellipse fill="#FFB640" cx="369.818" cy="-103.204" rx="10" ry="4"/>
	<ellipse fill="#FFB640" cx="369.818" cy="-120.204" rx="10" ry="4"/>
	<g>
		<line fill="none" x1="334.229" y1="-105.286" x2="323.86" y2="-101.454"/>
		<line fill="none" x1="359.193" y1="-114.542" x2="354.547" y2="-112.794"/>
	</g>
	<polygon fill="#FFB640" points="415.693,-101.085 369.36,-84.085 369.36,-47.086 415.693,-65.085 	"/>
	<path fill="#F7A328" d="M369.693-47.203"/>
	<path fill="#F7A328" d="M378.877-98.1"/>
</g>
<g>
	<g>
		<polygon fill="#EBEDE4" points="327.527,-239.219 327.527,-203.219 331.527,-201.219 335.527,-203.219 335.527,-239.219 		"/>
		<polygon fill="#939390" points="331.527,-201.219 327.527,-203.219 327.527,-227.219 327.527,-243.219 331.527,-243.219 		"/>
	</g>
	<path fill="#FF553E" d="M343.527-235.219c0,6.628-5.373,12-12,12l0,0c-6.629,0-12-5.372-12-12v-52c0-6.627,5.371-12,12-12l0,0
		c6.627,0,12,5.373,12,12V-235.219z"/>
	<path fill="#FFB640" d="M319.527-255.219c0,6.628,5.371,12,12,12l0,0c6.627,0,12-5.372,12-12v-44c0-6.627-5.373-12-12-12l0,0
		c-6.629,0-12,5.373-12,12V-255.219z"/>
	<path fill="#FFB640" d="M339.527-235.219c0,2.209-1.791,4-4,4l0,0c-2.209,0-4-1.791-4-4v-48c0-2.209,1.791-4,4-4l0,0
		c2.209,0,4,1.791,4,4V-235.219z"/>
</g>
<path fill="none" stroke="#FF553E" stroke-width="8" stroke-miterlimit="10" d="M244.715-143.285
	c20.065-1.712,37.724,13.165,39.432,33.23c1.711,20.071-13.17,37.726-33.234,39.437"/>
<g>
	<g>
		<g>
			
				<ellipse fill="none" stroke="#FF553E" stroke-width="2" stroke-linejoin="round" stroke-miterlimit="10" cx="640.875" cy="-268.251" rx="10" ry="4"/>
			<path fill="none" stroke="#FF553E" stroke-width="2" stroke-linejoin="round" stroke-miterlimit="10" d="M650.875-268.251v6.666
				v-1.064v2.398c0,2.209-4.479,4-10,4c-5.521,0-10-1.791-10-4l0,0v-1.334v-6.666"/>
		</g>
		<g>
			
				<ellipse fill="none" stroke="#FF553E" stroke-width="2" stroke-linejoin="round" stroke-miterlimit="10" cx="664.875" cy="-260.251" rx="10" ry="4"/>
			<path fill="none" stroke="#FF553E" stroke-width="2" stroke-linejoin="round" stroke-miterlimit="10" d="M674.875-260.251v6.666
				v-1.064v2.398c0,2.209-4.479,4-10,4c-5.521,0-10-1.791-10-4l0,0v-1.334v-6.666"/>
		</g>
		<g>
			
				<ellipse fill="none" stroke="#FF553E" stroke-width="2" stroke-linejoin="round" stroke-miterlimit="10" cx="688.875" cy="-252.251" rx="10" ry="4"/>
			<path fill="none" stroke="#FF553E" stroke-width="2" stroke-linejoin="round" stroke-miterlimit="10" d="M698.875-252.251v6.666
				v-1.064v2.398c0,2.209-4.479,4-10,4c-5.521,0-10-1.791-10-4l0,0v-1.334v-6.666"/>
		</g>
		<polygon fill="none" stroke="#FF553E" stroke-width="2" stroke-linejoin="round" stroke-miterlimit="10" points="
			614.875,-260.251 691.875,-233.251 691.875,-193.251 614.875,-221.251 		"/>
		
			<line fill="none" stroke="#FF553E" stroke-width="2" stroke-linejoin="round" stroke-miterlimit="10" x1="691.875" y1="-233.251" x2="715.875" y2="-241.251"/>
		<polyline fill="none" stroke="#FF553E" stroke-width="2" stroke-linejoin="round" stroke-miterlimit="10" points="
			699.059,-247.148 715.875,-241.251 715.875,-201.251 691.875,-193.251 		"/>
		
			<line fill="none" stroke="#FF553E" stroke-width="2" stroke-linejoin="round" stroke-miterlimit="10" x1="674.885" y1="-255.626" x2="679.357" y2="-254.056"/>
		
			<line fill="none" stroke="#FF553E" stroke-width="2" stroke-linejoin="round" stroke-miterlimit="10" x1="650.663" y1="-264.118" x2="655.594" y2="-262.39"/>
		
			<line fill="none" stroke="#FF553E" stroke-width="2" stroke-linejoin="round" stroke-miterlimit="10" x1="614.875" y1="-260.251" x2="630.564" y2="-265.481"/>
	</g>
	
		<line fill="none" stroke="#FF553E" stroke-width="2" stroke-linejoin="round" stroke-miterlimit="10" x1="712.875" y1="-284.251" x2="712.875" y2="-272.251"/>
	
		<line fill="none" stroke="#FF553E" stroke-width="2" stroke-linejoin="round" stroke-miterlimit="10" x1="748.875" y1="-236.251" x2="760.875" y2="-236.251"/>
	
		<line fill="none" stroke="#FF553E" stroke-width="2" stroke-linejoin="round" stroke-miterlimit="10" x1="740.875" y1="-264.251" x2="749.357" y2="-272.736"/>
</g>
<g>
	<g>
		<polygon fill="#CBCEBC" points="590.023,-290.603 581.434,-287.283 534.054,-307.489 534.054,-313.274 590.084,-296.269 		"/>
		<polygon fill="#EBEDE4" points="542.041,-316.458 590.084,-296.269 581.434,-293.07 533.691,-313.274 		"/>
		<polygon fill="#ADAF9E" points="581.434,-293.07 581.434,-287.283 533.691,-307.489 533.691,-313.274 		"/>
	</g>
	<g>
		<polygon fill="#CBCEBC" points="579.547,-286.451 570.954,-283.132 523.575,-303.336 523.575,-309.123 579.607,-292.117 		"/>
		<polygon fill="#EBEDE4" points="531.564,-312.308 579.607,-292.117 570.954,-288.918 523.214,-309.123 		"/>
		<polygon fill="#ADAF9E" points="570.954,-288.918 570.954,-283.132 523.214,-303.336 523.214,-309.123 		"/>
	</g>
	<g>
		<polygon fill="#243CB5" points="562.927,-301.659 559.275,-299.958 530.817,-311.961 530.817,-314.362 562.875,-303.559 		"/>
		<polygon fill="#394CD3" points="534.418,-315.563 562.875,-303.559 559.65,-302.107 530.817,-314.362 		"/>
	</g>
	<g>
		<polygon fill="#CBCEBC" points="569.023,-282.228 560.434,-278.908 513.054,-299.114 513.054,-304.899 569.084,-287.894 		"/>
		<polygon fill="#EBEDE4" points="521.041,-308.083 569.084,-287.894 560.434,-284.695 512.691,-304.899 		"/>
		<polygon fill="#ADAF9E" points="560.434,-284.695 560.434,-278.908 512.691,-299.114 512.691,-304.899 		"/>
	</g>
	<g>
		<polygon fill="#CBCEBC" points="558.545,-278.076 549.954,-274.757 502.575,-294.961 502.575,-300.748 558.607,-283.742 		"/>
		<polygon fill="#EBEDE4" points="510.564,-303.933 558.607,-283.742 549.954,-280.543 502.214,-300.748 		"/>
		<polygon fill="#ADAF9E" points="549.954,-280.543 549.954,-274.757 502.214,-294.961 502.214,-300.748 		"/>
	</g>
	<g>
		<polygon fill="#243CB5" points="552.177,-297.284 548.525,-295.583 520.067,-307.586 520.067,-309.987 552.125,-299.184 		"/>
		<polygon fill="#394CD3" points="523.668,-311.188 552.125,-299.184 548.9,-297.732 520.067,-309.987 		"/>
	</g>
	<g>
		<polygon fill="#CBCEBC" points="548.274,-273.978 539.684,-270.658 492.304,-290.864 492.304,-296.649 548.332,-279.644 		"/>
		<polygon fill="#EBEDE4" points="500.291,-299.833 548.332,-279.644 539.684,-276.445 491.941,-296.649 		"/>
		<polygon fill="#ADAF9E" points="539.684,-276.445 539.684,-270.658 491.941,-290.864 491.941,-296.649 		"/>
	</g>
	<g>
		<polygon fill="#CBCEBC" points="537.795,-269.826 529.204,-266.507 481.825,-286.711 481.825,-292.498 537.857,-275.492 		"/>
		<polygon fill="#EBEDE4" points="489.814,-295.683 537.857,-275.492 529.204,-272.293 481.464,-292.498 		"/>
		<polygon fill="#ADAF9E" points="529.204,-272.293 529.204,-266.507 481.464,-286.711 481.464,-292.498 		"/>
	</g>
	<g>
		<polygon fill="#243CB5" points="531.177,-289.034 527.525,-287.333 499.067,-299.336 499.067,-301.737 531.125,-290.934 		"/>
		<polygon fill="#394CD3" points="502.668,-302.938 531.125,-290.934 527.9,-289.482 499.067,-301.737 		"/>
	</g>
	<g>
		<polygon fill="#243CB5" points="521.427,-284.784 517.775,-283.083 489.317,-295.086 489.317,-297.487 521.375,-286.684 		"/>
		<polygon fill="#394CD3" points="492.918,-298.688 521.375,-286.684 518.15,-285.232 489.317,-297.487 		"/>
	</g>
	<g>
		<polygon fill="#CBCEBC" points="527.274,-265.728 518.684,-262.408 471.304,-282.614 471.304,-288.399 527.332,-271.394 		"/>
		<polygon fill="#EBEDE4" points="479.291,-291.583 527.332,-271.394 518.684,-268.195 470.941,-288.399 		"/>
		<polygon fill="#ADAF9E" points="518.684,-268.195 518.684,-262.408 470.941,-282.614 470.941,-288.399 		"/>
	</g>
	<g>
		<polygon fill="#CBCEBC" points="516.795,-261.576 508.204,-258.257 460.826,-278.461 460.826,-284.248 516.857,-267.242 		"/>
		<polygon fill="#EBEDE4" points="468.814,-287.433 516.857,-267.242 508.204,-264.043 460.464,-284.248 		"/>
		<polygon fill="#ADAF9E" points="508.204,-264.043 508.204,-258.257 460.464,-278.461 460.464,-284.248 		"/>
	</g>
	<g>
		<polygon fill="#243CB5" points="510.177,-280.784 506.525,-279.083 478.067,-291.086 478.067,-293.487 510.125,-282.684 		"/>
		<polygon fill="#394CD3" points="481.668,-294.688 510.125,-282.684 506.9,-281.232 478.067,-293.487 		"/>
	</g>
	<g>
		<polygon fill="#CBCEBC" points="506.274,-257.603 497.684,-254.283 450.304,-274.489 450.304,-280.274 506.332,-263.269 		"/>
		<polygon fill="#EBEDE4" points="458.291,-283.458 506.332,-263.269 497.684,-260.07 449.941,-280.274 		"/>
		<polygon fill="#ADAF9E" points="497.684,-260.07 497.684,-254.283 449.941,-274.489 449.941,-280.274 		"/>
	</g>
	<g>
		<polygon fill="#243CB5" points="489.177,-272.659 485.525,-270.958 457.067,-282.961 457.067,-285.362 489.125,-274.559 		"/>
		<polygon fill="#394CD3" points="460.668,-286.563 489.125,-274.559 485.9,-273.107 457.067,-285.362 		"/>
	</g>
</g>
<g>
	<polygon fill="#FF553E" points="510.375,-172.751 498.375,-168.751 498.375,-144.751 542.375,-128.751 542.375,-152.751 
		554.375,-156.751 	"/>
	<polygon fill="#FF553E" points="542.375,-152.751 554.375,-156.751 554.375,-132.751 542.375,-128.751 	"/>
	<polygon fill="#E0402F" points="498.375,-168.751 542.375,-152.751 542.375,-128.751 498.375,-144.751 	"/>
	<polygon fill="#FF5D55" points="542.375,-152.751 554.375,-156.751 554.375,-132.751 542.375,-128.751 	"/>
</g>
<path fill="#E59123" d="M389.5,177.664c0,0-1.754-1.37-5.963-1.827s-5.537-2.67-8.068-5.479c-1.834-2.036-5.635-8.073-5.635-3.857
	c0,7.333,3.562,12.341,5.667,14.167c2.104,1.827,7.097,4.761,8.5,7.5c1.402,2.74,3.395,0,3.395,0L389.5,177.664z"/>
<path fill="#E8921F" d="M416.815,234.795c0,0,30.006-8.396,35.692-9.052c5.686-0.656,8.482,3.146,10.67,4.24
	c2.187,1.095,7.83,3.76,7.83,3.76s0.624,3.219-5.5,3c-6.124-0.22-9.984-4.572-9.984-4.572s-3.717,2.624-12.684,5.248
	c-8.967,2.625-19.245,6.343-19.245,6.343l-17.933-7.653L416.815,234.795z"/>
<path fill="#D68522" d="M316.375,265.78c-5.278,4.975-10.086,3.211-10.086,3.211s-3.593,0.794-4.44,2.118
	c-0.85,1.325-12.254,14.506-14.848,17.808c-2.75,3.5-2.942,5.579-4.5,8.25c-1.75,3-1.5,8.5,4.5,5.25c3.504-1.896,3.75-6.5,5-9
	c1.929-3.857,8.742-11.488,11.75-12.75s8.067-2.368,10.75-1.75c2.682,0.62,19.854,8.729,32.798,0.201
	c12.943-8.524-10.075-33.508-11.17-33.001C335.031,246.625,316.375,265.78,316.375,265.78z"/>
<path fill="#FFB640" d="M419,235.667c0,0-4.5,5.5,4.5,18.5s11,16.5,9.5,16s-30-10.5-32-10.5s-2-24-2-24H419z"/>
<path fill="#FFB640" d="M440.019,271.472l-21.296-16.757c3.273-4.799,5.415-9.938,6.277-15.549c1.229-7.99-3.02-17.865-6.478-24.294
	c-1.782-8.945-5.067-20.56-4.356-21.373c7-7.999,9.806-14.692,10.333-17.333c0.5-2.5,0.5-4,0.5-4l-0.824,0.773
	c0.702-1.267,1.211-2.688,1.324-4.273c0.5-7-2.5-10-2.5-10l-12.167,8.167c0,0-26.833,1.833-27.833,19.833
	c-0.358,6.449,1.5,13.833,0.833,25.5c-2.531,4.721-4.793,6.361-13.667,13.333c-14,11-38.167,10.667-46.667,17.667
	c-0.267,0.22-0.521,0.449-0.766,0.689c-3.375-0.965-8.567-5.022-15.234-13.689c-1.718-2.231-3.293-5.121-4.714-8.308
	c-5.593-12.538-8.786-29.692-8.786-29.692s1.167,11.833,1.167,19.333s2.5,16.167,8,23.667s12.333,12.333,16.667,16.667
	c-2.319,6.105-0.656,19.053,2.666,25.333c-0.188,0.243,4.965,0.081,7.667,0.334c10.667,1,48-1.001,61-7.001
	c5.416-2.5,11.089-5.67,14.667-9.333c6.271,4.012,14.833,9.013,17.332,10.667c4.66,3.087,25.344,12.048,30.668,13
	c5.323,0.951,7-2.334,7-2.334S446.483,276.29,440.019,271.472z"/>
<g display="none">
	<g display="inline">
		<defs>
			<path id="SVGID_5_" d="M456.019,296.805l-21.296-16.757c3.273-4.799,5.415-9.938,6.277-15.549
				c1.229-7.99-3.02-17.865-6.478-24.294c-1.781-8.945-3.389-17.134-3.522-18.206c-0.5-4,8.972-17.859,9.5-20.5c0.5-2.5,0.5-4,0.5-4
				l-0.824,0.773c0.702-1.267,1.211-2.688,1.324-4.273c0.5-7-2.5-10-2.5-10l-12.167,8.167c0,0-26.833,1.833-27.833,19.833
				c-0.358,6.449,1.233,16.372,3.051,25.438c-2.531,4.72-5.177,12.09-14.051,19.062c-14,11-40,5-48.5,12
				c-0.267,0.22-0.521,0.449-0.766,0.689c-3.375-0.965-7.354-3.169-11.234-8.189c-8.5-11-17.5-43.5-17.5-43.5s-7.5,6-7.5,13.5
				s0,18,5.5,25.5s13.5,13,16,14.5c1.85,1.109,8.347,2.492,11.604,3.138c-2.318,6.104-1.363,14.354,1.958,20.635
				c-0.188,0.243-0.368,0.488-0.563,0.729c-6.5,8-14.5,13.5-15,17s-5.5,12.5-11,20s1.5,17,2,15.5s6-13,11.5-21.5s13.5-10.5,15-10.5
				s9.999,0.5,16.999-3.5c0,0,7.972-3.599,9.292-5.347c18.497,0.809,41.258-3.466,50.376-9.653c4.936-3.35,6.087-2.67,9.665-6.333
				c6.271,4.012,10.834,4.346,13.333,6c4.661,3.087,24.588,14.686,29.911,15.638c5.324,0.95,7.373-2.627,7.373-2.627
				S462.483,301.623,456.019,296.805z"/>
		</defs>
		<clipPath id="SVGID_6_">
			<use xlink:href="#SVGID_5_"  overflow="visible"/>
		</clipPath>
		<g clip-path="url(#SVGID_6_)">
			<path fill="#EBEDE4" d="M437.166,177.167c-6.667,2.667-19.333,6-22,8s-7.333,6-9.333,8s-4,5.333-4,5.333s6-4.667,8-1.333
				s10-8.667,14-6.667s11.333,29.333,13.333,30.667s0.667,8.001,4.667,0.667s14.667-8.667,8-20.667S437.166,177.167,437.166,177.167
				z"/>
			<path fill="#EBEDE4" d="M461.832,258.5c0,9.573-2.795,18.667-12,18.667s-18.667-11.094-18.667-20.667
				c0-9.571-6.87-38.5,2.334-38.5S461.832,248.928,461.832,258.5z"/>
			<path fill="#EBEDE4" d="M397,245c-3.832,3.333-0.333,12.167-5,17.5s-11.501,10-22.834,10s-13.333,2-19.333-1.333
				S340.5,266.5,338.5,264.5s10-8.666,12-8.666S397,245,397,245z"/>
			<path fill="#EBEDE4" d="M473.5,301c-7,5-13.5,5.5-12.5,10.5s3.5,8.5,7.5,7.5s4.5-2,6-4.5s3.5-7.5,3.5-7.5L473.5,301z"/>
			<path fill="#EBEDE4" d="M426.5,294c-1.5-0.5-6.5-2-11.5-1s-5,4-14,4.5s-12-7-18-8s-11.5,3-15,9.5
				c-1.442,2.679-1.419,2.808-2.209,8.153S377.5,321,387.5,317.5S426.5,294,426.5,294z"/>
			<path fill="#894E40" d="M317.5,269.5c-5-8-6-9-5.5-17s4-6,5.5-13.5s2-8,2-12.5s-8-17-9.5-16s-18.5,2-15.5,17.5s5,27.5,10.5,33.5
				S317.5,269.5,317.5,269.5z"/>
		</g>
	</g>
</g>
<path fill="#E59123" d="M387.833,178.167c0,0,3.932-3.511,6.667-8c4.089-6.712,10-11,11.667-15c1.111-2.668-3.333,13.667-4.167,17.5
	c-1.211,5.571-1.878,5.334-3.833,7.833C396.211,183,387.833,178.167,387.833,178.167z"/>
<ellipse fill="#2D1F1E" stroke="#2D1F1E" stroke-width="0.6875" stroke-miterlimit="10" cx="408.5" cy="173.886" rx="1.547" ry="1.719"/>
<g>
	<g>
		<path fill="#2D1F1E" d="M417.413,182.19c3.188-1.664,5.379-4.394,7.352-7.328c0.582-0.866-0.353-2.979-1.194-1.726
			c-1.788,2.661-3.754,5.161-6.647,6.672C415.99,180.295,416.371,182.734,417.413,182.19L417.413,182.19z"/>
	</g>
</g>
<path fill="#E0402F" d="M499.746,102.456c0.896,5.153-2.557,10.056-7.709,10.951c-5.151,0.896-10.055-2.557-10.949-7.708
	c-0.442-2.547,0.178-5.033,1.54-7.004c1.393-2.016,3.563-3.494,6.168-3.946C493.948,93.853,498.852,97.304,499.746,102.456z"/>
<linearGradient id="SVGID_7_" gradientUnits="userSpaceOnUse" x1="63.7903" y1="1432.0837" x2="194.7932" y2="1432.0837" gradientTransform="matrix(0.9852 -0.1712 -0.1712 -0.9852 680.4378 1554.691)">
	<stop  offset="0.0161" style="stop-color:#E92700"/>
	<stop  offset="1" style="stop-color:#FFFFFF;stop-opacity:0"/>
</linearGradient>
<path opacity="0.3" fill="url(#SVGID_7_)" enable-background="new    " d="M491.948,97.411c0,0,46.242-5.496,89.63,16.4
	c39.95,20.162,51.677,31.622,51.677,31.622l-18.143,3.659c0,0-22.432-19.283-49.77-29.415
	c-29.833-11.058-71.426-10.937-71.426-10.937L491.948,97.411z"/>
<path fill="#E0402F" d="M200.167,75.5"/>
<g>
	<path fill="#EBEDE4" d="M95.94,154.814c-2.487-3.426-9.216-2.783-15.023,1.438c-5.654,4.107-8.341,10.082-6.186,13.558
		l-0.022,0.016l16.651,22.926l20.479-15.905l-13.462-18.959C98.276,157.02,96.437,155.496,95.94,154.814z"/>
	
		<ellipse transform="matrix(-0.5877 -0.8091 0.8091 -0.5877 11.7224 374.7116)" fill="#DBB3A5" cx="101.339" cy="184.369" rx="7.668" ry="13"/>
	<g>
		<g>
			<path fill="#EBEDE4" d="M78.823,171.11c-3.756-0.127-8.09,0.479-10.786,3.362c-2.533,2.708-1.519,6.661,0.602,9.216
				c5.127,6.181,15.885,7.224,21.482,1.183c1.366-1.475,0.036-6.168-1.748-4.242c-3.457,3.73-8.936,3.989-13.469,2.267
				c-1.716-0.652-6.591-3.521-3.805-5.313c2.263-1.453,5.247-1.601,7.847-1.514C81.129,176.144,81.055,171.186,78.823,171.11
				L78.823,171.11z"/>
		</g>
	</g>
</g>
<circle fill="#394CD3" cx="1052.073" cy="85.403" r="25.598"/>
<path opacity="0.7" fill="none" stroke="#4D66E2" stroke-width="2.0375" stroke-linecap="round" stroke-linejoin="round" stroke-miterlimit="10" enable-background="new    " d="
	M1073.562,70.754c14.468-1.845,24.762-0.901,25.795,3.015c1.549,5.869-18.294,16.191-44.317,23.057
	c-26.025,6.865-48.377,7.672-49.926,1.804c-1.043-3.956,7.632-9.937,21.37-15.518"/>
<path opacity="0.7" fill="none" stroke="#4D66E2" stroke-width="2.1457" stroke-miterlimit="10" enable-background="new    " d="
	M1076.073,70.376c15.948-2.229,27.239-1.54,28.276,2.389c1.554,5.885-20.521,16.812-49.297,24.402
	c-28.781,7.593-53.369,8.975-54.923,3.089c-1.047-3.967,8.641-10.226,23.884-16.208"/>
<path opacity="0.7" fill="none" stroke="#4D66E2" stroke-width="2.246" stroke-linecap="round" stroke-linejoin="round" stroke-miterlimit="10" enable-background="new    " d="
	M1078.832,70c18.638-3.157,32.851-2.985,33.834,0.667c1.47,5.476-24.769,17.275-58.597,26.357
	c-33.834,9.083-62.45,12.006-63.921,6.532c-0.99-3.69,11.32-10.721,29.352-17.39"/>
<circle fill="#2239AA" cx="122.771" cy="345.576" r="1.376"/>
<g>
	<polygon fill="#FFB640" points="703.919,-67.157 704.019,-67.344 720.139,-70.977 720.037,-70.791 725.875,-55.331 
		725.975,-55.516 742.097,-59.147 741.996,-58.962 747.832,-43.502 747.933,-43.687 764.055,-47.319 755.25,-30.978 739.13,-27.347 
		739.03,-27.16 733.193,-42.621 733.294,-42.807 717.173,-39.175 717.072,-38.989 711.235,-54.448 711.335,-54.636 695.216,-51.003 
		695.115,-50.817 689.279,-66.277 698.082,-82.619 	"/>
	<polygon fill="#F7A328" points="703.919,-67.157 695.115,-50.817 689.279,-66.277 698.082,-82.619 	"/>
	<polygon fill="#F7A328" points="747.832,-43.502 739.03,-27.16 733.193,-42.621 741.996,-58.962 	"/>
	<polygon fill="#F7A328" points="725.875,-55.331 717.072,-38.989 711.235,-54.448 720.037,-70.791 	"/>
</g>
<path fill="none" stroke="#394CD3" stroke-width="1.3" stroke-miterlimit="10" d="M1054.614-301.468c0,0-13.611,20.5-26.611,44.5
	s-17,37-24,46s-15.5,14.5-15.5,14.5"/>
<path fill="#EFE4D3" d="M414.833,164.5l8.167-5.833c0,0,4,6.167,3.5,9.667s-4.289,4.409-3.333,2.5c0.667-1.333-1.333-4.667-5-4.667
	C415.81,166.167,414.833,164.5,414.833,164.5z"/>
<path fill="#30200A" d="M421.833,161.833l2.167-2.5c0,0,1.833,2.5,1.833,3.833S423.5,162.5,423.5,162.5L421.833,161.833z"/>
<path fill="#FFB640" d="M451.167,278.5c0,0,6.333-0.333,9.333,0.667s2.333,0.999,0.333,3.333S451.167,278.5,451.167,278.5z"/>
<path fill="#F4E9D9" d="M294.833,185.833c-0.333-6.333-2,6.988-2,11.334c0,12.667,2.052,19.721,4.333,26.666
	c1.833,5.584,1.083,0.334,3.333-0.333c1.011-0.3,3,0,3,0s-4.333-10.334-6.333-20.667S294.833,185.833,294.833,185.833z"/>
<g opacity="0.7">
	<path fill="none" stroke="#F4E9D9" stroke-width="2" stroke-linecap="round" stroke-linejoin="round" stroke-miterlimit="10" d="
		M0.663-243.926c-4.017-2.665-7.015-6.862-8.043-11.96c-2.061-10.197,4.535-20.132,14.73-22.19"/>
	
		<path opacity="0.7" fill="none" stroke="#F4E9D9" stroke-width="2" stroke-linecap="round" stroke-linejoin="round" stroke-miterlimit="10" enable-background="new    " d="
		M-13.128-251.964c-2.934-1.946-5.123-5.013-5.875-8.735c-1.504-7.448,3.313-14.704,10.76-16.208"/>
	
		<path opacity="0.4" fill="none" stroke="#F4E9D9" stroke-width="2" stroke-linecap="round" stroke-linejoin="round" stroke-miterlimit="10" enable-background="new    " d="
		M-25.348-257.786c-2.274-1.51-3.973-3.888-4.557-6.775c-1.167-5.777,2.569-11.405,8.346-12.572"/>
</g>
<path fill="#FFB640" d="M317.745,277.403c-2.969,6.618-8.084,6.834-8.084,6.834s-3.135,2.131-3.411,3.68c-0.277,1.55-3,17.75-4,23.5
	c-0.72,4.138-1.871,7.019-0.25,9c1.621,1.98,3.232,1.701,3.75-2.25c0.517-3.949,0.771-1.387,2.75-7.5
	c0.353-1.09,3.206-13.683,5.5-16s4.036-2.045,6.75-2.5c2.714-0.456,21.982-1.465,30.668-14.302
	c8.685-12.838-22.153-27.084-22.971-26.196C327.631,252.558,317.745,277.403,317.745,277.403z"/>
<path opacity="0.7" fill="none" stroke="#FFFFFF" stroke-width="2" stroke-linecap="round" stroke-linejoin="round" stroke-miterlimit="10" enable-background="new    " d="
	M486.33,97.165c0,0,5.5,1.833,7.833,5.333s2,7.833,2,7.833"/>
<path fill="#FFB640" d="M308.5,310.667c0,0,0.002,12.197-2,14.5c-5,5.75-8.25,1.5-8-2.5s3.5-4.5,3.75-6.25s0.25-7,0.5-7.75
	S308.5,310.667,308.5,310.667z"/>
<path fill="#D68522" d="M292.32,291.874c0,0-4.227,11.441-6.903,12.906c-6.685,3.66-8.258-1.453-6.638-5.119
	c1.622-3.665,4.844-3.007,5.686-4.562c0.842-1.556,2.662-6.479,3.156-7.097C288.115,287.388,292.32,291.874,292.32,291.874z"/>
<path opacity="0.7" fill="none" stroke="#FFFFFF" stroke-width="2" stroke-linecap="round" stroke-linejoin="round" stroke-miterlimit="10" enable-background="new    " d="
	M493.163,102.498c0,0-2.663,6.002-8.667,7.333"/>
<circle fill="#FFFFFF" cx="120.163" cy="309.83" r="2.667"/>
<circle fill="#FFFFFF" cx="121.833" cy="50.5" r="2"/>
<circle fill="#FFFFFF" cx="109.167" cy="122.167" r="2"/>
<circle fill="#FFFFFF" cx="189.833" cy="127.833" r="2"/>
<circle fill="#FFFFFF" cx="407.834" cy="399.166" r="2"/>
<circle fill="#FFFFFF" cx="225.167" cy="409.833" r="2"/>
<circle fill="#FFFFFF" cx="803.834" cy="421.166" r="2"/>
<circle fill="#FFFFFF" cx="787.834" cy="345.166" r="2"/>
<circle fill="#FFFFFF" cx="273.167" cy="180.5" r="2.333"/>
<radialGradient id="SVGID_8_" cx="582.969" cy="835.7996" r="43.8205" fx="593.6754" fy="866.9205" gradientTransform="matrix(0.4715 0.8819 0.8819 -0.4715 -588.0814 60.7578)" gradientUnits="userSpaceOnUse">
	<stop  offset="0" style="stop-color:#FFFFFF;stop-opacity:0"/>
	<stop  offset="1" style="stop-color:#FFE5FF"/>
</radialGradient>
<circle opacity="0.3" fill="url(#SVGID_8_)" enable-background="new    " cx="403.823" cy="181.332" r="43.822"/>
<radialGradient id="SVGID_9_" cx="584.5012" cy="503.1072" r="43.0065" fx="595.0088" fy="533.6501" gradientTransform="matrix(0.4715 0.8819 0.8819 -0.4715 -588.0814 60.7578)" gradientUnits="userSpaceOnUse">
	<stop  offset="0" style="stop-color:#FFFFFF;stop-opacity:0"/>
	<stop  offset="1" style="stop-color:#FFE5FF"/>
</radialGradient>
<circle opacity="0.2" fill="url(#SVGID_9_)" enable-background="new    " cx="111.526" cy="339.532" r="43.007"/>
<radialGradient id="SVGID_10_" cx="803.9885" cy="1453.1638" r="41.4401" fx="814.1135" fy="1482.5944" gradientTransform="matrix(0.4715 0.8819 0.8819 -0.4715 -588.0814 60.7578)" gradientUnits="userSpaceOnUse">
	<stop  offset="0" style="stop-color:#FFFFFF;stop-opacity:0"/>
	<stop  offset="1" style="stop-color:#FFE5FF"/>
</radialGradient>
<circle opacity="0.2" fill="url(#SVGID_10_)" enable-background="new    " cx="1053.561" cy="85.14" r="41.44"/>
<radialGradient id="SVGID_11_" cx="777.9524" cy="1302.0222" r="30.4541" fx="785.393" fy="1323.6505" gradientTransform="matrix(0.4715 0.8819 0.8819 -0.4715 -588.0814 60.7578)" gradientUnits="userSpaceOnUse">
	<stop  offset="0" style="stop-color:#FFFFFF;stop-opacity:0"/>
	<stop  offset="1" style="stop-color:#FFE5FF"/>
</radialGradient>
<circle opacity="0.2" fill="url(#SVGID_11_)" enable-background="new    " cx="913.025" cy="133.297" r="30.454"/>
<g>
	<circle fill="#FFFFFF" cx="-66.165" cy="-161.836" r="1.333"/>
	<circle fill="#FFFFFF" cx="-46.165" cy="-162.169" r="1.333"/>
	<circle fill="#FFFFFF" cx="-28.832" cy="-189.503" r="1.333"/>
	<circle fill="#FFFFFF" cx="7.501" cy="-207.503" r="1.333"/>
	<circle fill="#FFFFFF" cx="40.834" cy="-212.503" r="1.333"/>
	<circle fill="#FFFFFF" cx="-75.165" cy="-126.169" r="1.333"/>
	<circle fill="#FFFFFF" cx="-52.499" cy="-121.503" r="1.333"/>
	<polyline fill="none" stroke="#FFFFFF" stroke-width="0.5" stroke-miterlimit="10" points="-66.166,-162.169 -46.165,-162.169 
		-52.499,-121.503 -75.166,-125.836 -66.165,-161.836 	"/>
	<polyline fill="none" stroke="#FFFFFF" stroke-width="0.5" stroke-miterlimit="10" points="40.834,-212.17 7.501,-207.503 
		-28.832,-189.503 -46.165,-162.169 	"/>
</g>
<circle fill="#FFFFFF" cx="177.022" cy="176.725" r="2.681"/>
<circle fill="#FFFFFF" cx="217.235" cy="176.055" r="2.681"/>
<circle fill="#FFFFFF" cx="252.085" cy="121.096" r="2.681"/>
<circle fill="#FFFFFF" cx="325.138" cy="84.904" r="2.681"/>
<circle fill="#FFFFFF" cx="392.16" cy="74.851" r="3.686"/>
<circle fill="#FFFFFF" cx="158.926" cy="248.438" r="2.681"/>
<circle fill="#FFFFFF" cx="204.5" cy="257.82" r="2.681"/>
<polyline opacity="0.3" fill="none" stroke="#FFFFFF" stroke-width="2" stroke-miterlimit="10" enable-background="new    " points="
	177.021,176.054 217.235,176.055 204.5,257.82 158.926,249.106 177.022,176.725 "/>
<polyline opacity="0.3" fill="none" stroke="#FFFFFF" stroke-width="2" stroke-miterlimit="10" enable-background="new    " points="
	392.16,75.521 325.139,84.904 252.086,121.096 217.235,176.055 "/>
<g>
	<circle fill="#FFFFFF" cx="-140.835" cy="-223.5" r="2.083"/>
	<circle fill="#FFFFFF" cx="-168.168" cy="-219.192" r="1.693"/>
	<circle fill="#FFFFFF" cx="-96.237" cy="-209.329" r="2.303"/>
	<circle fill="#FFFFFF" cx="-168.834" cy="-150.525" r="1.693"/>
	<circle fill="#FFFFFF" cx="-176.834" cy="-130.525" r="1.693"/>
	<circle fill="#FFFFFF" cx="-202.834" cy="-113.192" r="1.693"/>
	<circle fill="#FFFFFF" cx="-162.834" cy="-114.525" r="1.693"/>
	<polyline fill="none" stroke="#FFFFFF" stroke-width="0.6" stroke-miterlimit="10" points="-168.167,-219.192 -140.835,-223.5 
		-96.237,-209.33 	"/>
	<polyline fill="none" stroke="#FFFFFF" stroke-width="0.6" stroke-miterlimit="10" points="-140.835,-223.5 -168.834,-150.525 
		-176.834,-130.525 -202.834,-113.192 	"/>
	
		<line fill="none" stroke="#FFFFFF" stroke-width="0.6" stroke-miterlimit="10" x1="-176.834" y1="-130.525" x2="-162.834" y2="-114.525"/>
</g>
<circle fill="#FFFFFF" cx="584.5" cy="382.499" r="2.683"/>
<circle fill="#FFFFFF" cx="646.808" cy="342.208" r="2.179"/>
<circle fill="#FFFFFF" cx="559.466" cy="328.477" r="2.179"/>
<circle fill="#FFFFFF" cx="535.49" cy="314.534" r="2.18"/>
<circle fill="#FFFFFF" cx="518.288" cy="278.164" r="2.18"/>
<circle fill="#FFFFFF" cx="512.484" cy="329.366" r="2.18"/>
<line fill="none" stroke="#FFFFFF" stroke-width="0.7725" stroke-miterlimit="10" x1="646.809" y1="342.208" x2="584.5" y2="382.5"/>
<polyline fill="none" stroke="#FFFFFF" stroke-width="0.7725" stroke-miterlimit="10" points="584.5,382.5 559.466,328.477 
	535.49,314.534 518.291,278.165 "/>
<line fill="none" stroke="#FFFFFF" stroke-width="0.7725" stroke-miterlimit="10" x1="535.49" y1="314.534" x2="512.483" y2="329.365"/>
<g id="Layer_4">
	
		<line fill="none" stroke="#FFB640" stroke-width="3" stroke-linecap="round" stroke-linejoin="round" stroke-miterlimit="10" x1="393.333" y1="332.5" x2="396.833" y2="336"/>
	
		<line fill="none" stroke="#FFB640" stroke-width="3" stroke-linecap="round" stroke-linejoin="round" stroke-miterlimit="10" x1="604.5" y1="250.5" x2="600.263" y2="255.283"/>
	
		<line fill="none" stroke="#FFB640" stroke-width="3" stroke-linecap="round" stroke-linejoin="round" stroke-miterlimit="10" x1="243.954" y1="62.692" x2="247.167" y2="58.5"/>
	
		<line fill="none" stroke="#FFB640" stroke-width="3" stroke-linecap="round" stroke-linejoin="round" stroke-miterlimit="10" x1="718.5" y1="70.167" x2="712.743" y2="66.913"/>
	
		<line fill="none" stroke="#E0402F" stroke-width="3.3488" stroke-linecap="round" stroke-linejoin="round" stroke-miterlimit="10" x1="992.023" y1="149.214" x2="989.643" y2="153.286"/>
	
		<line fill="none" stroke="#E0402F" stroke-width="3.3488" stroke-linecap="round" stroke-linejoin="round" stroke-miterlimit="10" x1="870.41" y1="366.65" x2="866.5" y2="370.5"/>
	
		<line fill="none" stroke="#E0402F" stroke-width="3.3488" stroke-linecap="round" stroke-linejoin="round" stroke-miterlimit="10" x1="733.443" y1="329.558" x2="728.031" y2="332.407"/>
	
		<line fill="none" stroke="#E0402F" stroke-width="3.3488" stroke-linecap="round" stroke-linejoin="round" stroke-miterlimit="10" x1="421.592" y1="35.394" x2="417.827" y2="32.615"/>
	
		<line fill="none" stroke="#E0402F" stroke-width="3.3488" stroke-linecap="round" stroke-linejoin="round" stroke-miterlimit="10" x1="608" y1="54" x2="605" y2="58.75"/>
	<g>
		<circle fill="#FFB640" cx="912.648" cy="133.135" r="20.833"/>
		<circle fill="#394CD3" cx="918.865" cy="122.665" r="4.092"/>
		<circle fill="#394CD3" cx="909.498" cy="132.499" r="5.527"/>
		<circle fill="#394CD3" cx="905.474" cy="146.262" r="3.455"/>
		<circle fill="#394CD3" cx="907.645" cy="118.672" r="2.179"/>
		<circle fill="#394CD3" cx="898.368" cy="132.864" r="2.179"/>
		<circle fill="#394CD3" cx="927.853" cy="128.992" r="2.18"/>
		<circle fill="#394CD3" cx="924.346" cy="139.887" r="3.454"/>
	</g>
</g>
<g id="girl">
	<path fill="#EADEBE" d="M737.125,221.876c-4.506-0.375-19.901-2.253-28.538-7.135c-8.638-4.882-15.396-8.637-32.294-25.159
		c-16.898-16.521-20.653-20.277-27.413-24.032c-1.076-0.599-2.182-1.177-3.294-1.729c-0.399-0.198-0.778-0.374-1.146-0.535
		c-3.588-2.089-7.107-4.119-7.107-4.119c-1.666-1.333-3.166-2.167-6.332-3.667s-9.5-0.667-6.334,0.167
		c2.684,0.706,4.999,1.166,6.334,2c1.334,0.834-2.668-1-3.668-1.333s-4.332-0.5-6.332-1c-1.908-0.477-4.261-0.344-2.596,1.261
		c-0.135-0.031-0.281-0.063-0.404-0.095c-2-0.5-2.771-0.581-3,0.333c-0.152,0.607,1.012,1.387,2.321,2.057
		c-1.778,0.007-3.364,0.271-2.821,1.276c1.166,2.167,4.165,1,8.845,2.378c7.582,2.234,4.525,2.396,8.987,3.289
		c0,0-11.041-0.47-10.666,1.167c0.36,1.576,5.5,1.833,8.834,2.667c2.358,0.589,6.061,1.523,7.332,2
		c0.824,0.31,2.88-0.409,4.668,0.333c2.079,0.865,6.66,3.869,8.832,5.833c3.5,3.167,7.393,7.907,9.834,10.5
		c6.009,6.384,17.756,20.774,29.021,30.538c11.266,9.765,17.274,13.52,27.788,16.147c10.515,2.629,28.164,4.506,34.548,4.882
		c6.384,0.375,10.515-16.898,10.515-16.898C755.151,223.754,741.633,222.252,737.125,221.876z"/>
	<path fill="#EADEBE" d="M880.37,219.359c24.892-2.616,30.472-3.265,38.776-1.982c1.323,0.205,2.66,0.441,3.989,0.707
		c0.477,0.097,0.922,0.195,1.35,0.302c4.464,0.602,8.833,1.209,8.833,1.209c3.771-0.189,4.025,0.398,7.85,0.572
		c3.666,0.167,9.689,5.356,6.332,4c-2.844-1.148-5.873-1.547-7.565-1.725s3.946,1.255,5.065,1.558c2.302,0.622,4.5,2.167,5.358,2.97
		c1.591,1.484,4.065,2.458,1.628,2.695c0.141,0.063,0.291,0.131,0.422,0.187c2.105,0.877,2.853,1.308,2.53,2.2
		c-0.213,0.594-1.72,0.479-3.296,0.185c1.607,1.149,2.896,2.385,1.823,2.856c-2.313,1.019-4.359-1.862-9.403-3.747
		c-8.175-3.054-5.495-0.954-10.061-3.098c0,0,10.295,6.717,9.009,7.813c-1.239,1.054-6.054-2.041-9.562-3.505
		c-2.481-1.037-6.381-2.655-7.812-3.084c-0.929-0.277-2.377-2.186-4.431-2.729c-2.388-0.631-8.282-1.126-11.391-0.918
		c-5.007,0.332-11.279,1.698-14.996,2.243C885.68,229.413,855.481,221.976,880.37,219.359z"/>
	<path fill="#EADEBE" d="M1028,250c0,0,6-1,9.5-1s5-1,11-2s26-1,31,0.5s16,10,16,10s2,2,0.5,3s-3.5,1-13,1s-14.5,0.5-19,0
		s-14,0.5-17.5,1s-20,0.5-20,0.5"/>
	<path fill="#EADEBE" d="M1009.5,337.472c0,0,6,1.036,9.5,1.036s5,1.036,11,2.072s26,1.036,31-0.519c5-1.556,16-10.363,16-10.363
		s2-2.072,0.5-3.108c-1.5-1.035-3.5-1.035-13-1.035s-14.5-0.52-19,0c-4.5,0.518-14-0.52-17.5-1.036c-3.5-0.52-20-0.52-20-0.52"/>
	<path fill="#EADEBE" d="M721.362,151.033c0,0,1.45,11.123,1.692,14.508c0.242,3.386,4.987,12.798,7.405,20.294
		c2.419,7.496,12.629,9.198,15.771,10.891s8.688,8.363,10.139,11.266c1.451,2.902,4.506,7.047,4.506,11.643
		c0,4.594,37.293-8.633,32.123-8.633c-9.388,0-23.277-25.39-24.486-35.062s-4.354-27.807-10.155-28.532
		C752.555,146.682,721.362,151.033,721.362,151.033z"/>
	<circle fill="none" stroke="#394CD3" stroke-width="2" stroke-miterlimit="10" cx="725.246" cy="169.636" r="7.27"/>
	<circle fill="none" stroke="#394CD3" stroke-width="2" stroke-miterlimit="10" cx="741.22" cy="169.636" r="7.27"/>
	<path fill="none" stroke="#FFFFFF" stroke-width="1.9344" stroke-linecap="round" stroke-miterlimit="10" d="M720.576,169.674
		c0-2.87,2.327-5.197,5.198-5.197"/>
	<path fill="none" stroke="#FFFFFF" stroke-width="1.9344" stroke-linecap="round" stroke-miterlimit="10" d="M736.709,169.823
		c0-2.871,2.326-5.198,5.198-5.198"/>
	<path fill="#E0402F" d="M755.507,153.412c0,0-12.447,3.172-24.949,3.923c-12.503,0.75-15.97,0.282-20.971-2.719
		s-8.593-12.707-3.843-15.958c4.751-3.25,11.004,0,22.756,1.75c11.753,1.75,17.248-2.909,26.5-3.409s17.009-2.093,21.261,7.66
		c4.251,9.752,5.751,24.755,11.002,34.256c5.251,9.502,31.651,21.249,42.903,20.751c11.253-0.502,28.082,11.583,30.834,14.833
		c2.75,3.252,7.004,18.5-12,21c-19.006,2.5-26.479,0.681-47.234-15.073C781.012,204.672,768,207.504,765.5,193.5
		c-2.502-14.002-2.5-20.999-4.5-27S755.507,153.412,755.507,153.412z"/>
	<path fill="#394CD3" d="M655.5,183.833c0,0,1.699,9.202,7.332,14.833c5.634,5.633,8.297,7.821,12.052,11.576
		c3.755,3.756,10.892,12.542,23.282,17.424c12.394,4.882,15.696,6.787,24.334,10.167c8.637,3.379,18.87,3.04,21.5,4.166
		c2.629,1.127,21.446,14.185,24.832,16.667c5,3.667,6.865,3.953,14,7.333c7.136,3.38,9.406,4.992,17.668,11s13.666,12.333,33,22
		c13.223,6.611,21.591,11.297,33,13.334c9.332,1.666,33.317,8.688,43.832,11.691c10.516,3.004,28.539,6.384,44.688,8.261
		c16.146,1.878,37.551,8.262,44.688,7.886c7.135-0.375,11.641-1.502,11.641-1.502L1020,341l-3.396-7.963L1019,321.5l-6-1.5
		c0,0-2.78,3.274-13.67-1.982c-10.891-5.257-7.658-8.654-30.83-10.018c-22.668-1.333-25.873-0.498-47.277-11.763
		c-21.404-11.266-27.037-10.891-37.176-14.646c-10.141-3.756-12.394-9.014-12.394-9.014s6.009-3.004,16.523-3.004
		c10.514,0,30.792-4.131,51.819-1.127c21.029,3.005,43.186,11.266,58.581,7.511c15.396-3.755,15.587-2.293,19.587-3.959
		s9.328-6.556,9.328-6.556l4.506-1.126l-1.502-16.147h-6.008c0,0-3.38,1.877-18.025-1.502c-14.646-3.38-12.299-4.335-31.168-4.131
		c-23.951,0.259-30.041-1.878-45.062-4.882s-31.919-2.629-43.937-3.38c-12.017-0.751-10.162-1.9-18.8-2.276
		c-8.637-0.375-17.334,3.333-17.334,3.333s-6.858,1.383-16.999-3.499c-10.139-4.882-4.569-7.496-14.334-10.5
		c-9.764-3.005-17.023-3.204-19.652-6.584s-12.393-6.009-12.393-6.009l-17.648,6.76c0,0-9.849-2.284-16.14-2.501
		c-5.045-0.174-15.782,1.84-23.5,0.833c-7.666-1-12.445-3.014-23.666-8c-9-4-17.617-6.153-24.001-15.167
		c-6.385-9.012-13.666-14.5-13.666-14.5L661.5,173L655.5,183.833z"/>
	<path fill="#394CD3" d="M785.88,209.007c0,0,9.277-5.173,15.286-5.173s16.118,1.164,21,2.667c4.883,1.502,19.666,4.01,25.675,4.01
		c6.008,0,13.894,1.502,21.027,2.254c7.136,0.751,15.771,0,21.78,1.877c6.008,1.878,18.352,0.859,18.352,0.859l1,13.5
		c0,0-11.867-0.5-17.5-0.5c-5.634,0-18.785,0.792-23.668,1.167c-4.882,0.376-19.604,0.742-25.332,0.333c-7-0.5-9.365,2.127-16.5,1
		c-7.136-1.126-20.092-5.846-23.847-5.846C799.398,225.154,785.88,209.007,785.88,209.007z"/>
	<g>
		<g>
			<path fill="#E0402F" d="M736.046,188.359c3.13-0.031,6.243-0.569,8.608-2.77c1.115-1.035,0.157-4.547-1.311-3.182
				c-2.024,1.882-4.734,2.204-7.392,2.231C734.3,184.657,734.383,188.377,736.046,188.359L736.046,188.359z"/>
		</g>
	</g>
	<g opacity="0.2">
		<g>
			<path fill="#E0402F" d="M750.041,180.455c1.39-1.715,2.942-3.286,4.332-5.001c0.78-0.962,0.982-2.24,0.502-3.407
				c-0.321-0.778-1.477-1.788-2.25-0.835c-1.39,1.715-2.943,3.286-4.332,5c-0.78,0.962-0.982,2.241-0.502,3.407
				C748.113,180.398,749.268,181.409,750.041,180.455L750.041,180.455z"/>
		</g>
	</g>
	
		<radialGradient id="SVGID_12_" cx="732.5676" cy="1151.1541" r="53.7685" fx="745.7047" fy="1189.3401" gradientTransform="matrix(0.4715 0.8819 0.8819 -0.4715 -588.0814 60.7578)" gradientUnits="userSpaceOnUse">
		<stop  offset="0" style="stop-color:#FFFFFF;stop-opacity:0"/>
		<stop  offset="1" style="stop-color:#FFE5FF"/>
	</radialGradient>
	<circle opacity="0.3" fill="url(#SVGID_12_)" enable-background="new    " cx="747.906" cy="164.703" r="53.769"/>
	<path fill="none" stroke="#263B9E" stroke-width="1.3" stroke-miterlimit="10" d="M769.139,215.501c0,0,8.361,14.999,19.361,23.499
		s19,13.5,24.5,15s25,9,33.5,11s25.153,7.579,25.153,7.579"/>
</g>
<g id="Layer_3" display="none">
	<g display="inline" opacity="0.3">
		
			<circle opacity="0.7" fill="none" stroke="#F4E9D9" stroke-width="2" stroke-linecap="round" stroke-linejoin="round" stroke-miterlimit="10" enable-background="new    " cx="705.764" cy="721.5" r="6.736"/>
		
			<circle opacity="0.7" fill="none" stroke="#F4E9D9" stroke-width="2" stroke-linecap="round" stroke-linejoin="round" stroke-miterlimit="10" enable-background="new    " cx="705.764" cy="721.5" r="30.135"/>
		
			<circle opacity="0.7" fill="none" stroke="#F4E9D9" stroke-width="2" stroke-linecap="round" stroke-linejoin="round" stroke-miterlimit="10" enable-background="new    " cx="705.764" cy="721.5" r="67.832"/>
		
			<path opacity="0.7" fill="none" stroke="#F4E9D9" stroke-width="2" stroke-linecap="round" stroke-linejoin="round" stroke-miterlimit="10" enable-background="new    " d="
			M820.096,721.5c0,63.147-51.186,114.332-114.332,114.332c-63.147,0-114.332-51.185-114.332-114.332
			c0-63.146,51.185-114.332,114.332-114.332C768.91,607.168,820.096,658.353,820.096,721.5z"/>
	</g>
	<g display="inline">
		<path fill="#E0402F" d="M838.059,191.899c2.307-0.188,3.172,2.339,2.534,4.674c-0.524,1.916-3.423,6.776-9.62,10.146
			c-5.633,3.063-11.033,0.693-12.697-0.614c-2.564-2.019-1.297-5.321,1.194-5.366s6.204,0.846,9.751-0.847
			C832.768,198.201,836.016,192.063,838.059,191.899z"/>
		<path fill="#E0402F" d="M790.426,193.712c-1.78-1.57-0.754-4.027,1.229-5.235c1.627-0.99,6.886-2.34,13.541-0.181
			c6.052,1.965,8.39,7.662,8.73,9.833c0.524,3.35-2.543,4.786-4.363,2.977c-1.82-1.811-3.91-5.197-7.563-6.604
			C798.346,193.094,792.002,195.104,790.426,193.712z"/>
		<path fill="#E0402F" d="M843.939,186.087c-1.755,1.666-3.875,0.269-4.676-1.975c-0.658-1.838-1.056-7.538,2.043-14.252
			c2.817-6.102,8.507-7.817,10.586-7.894c3.204-0.117,4.043,3.295,2.06,4.971c-1.983,1.679-5.479,3.433-7.388,7.09
			C844.656,177.685,845.493,184.612,843.939,186.087z"/>
		<path fill="#E0402F" d="M785.025,187.661c0.865,2.284-1.136,3.928-3.42,3.986c-1.875,0.048-7.104-1.425-11.994-6.692
			c-4.446-4.79-3.959-10.983-3.291-13.067c1.033-3.211,4.375-2.925,5.168-0.409c0.794,2.512,1.119,6.549,3.706,9.637
			C777.781,184.201,784.262,185.64,785.025,187.661z"/>
		<path fill="#E0402F" d="M764.809,162.989c1.204,2.103-0.516,4.072-2.761,4.527c-1.843,0.375-7.229-0.167-12.862-4.511
			c-5.124-3.948-5.596-10.146-5.257-12.317c0.523-3.349,3.864-3.647,5.034-1.308c1.17,2.343,2.11,6.268,5.14,8.861
			C757.13,160.838,763.743,161.128,764.809,162.989z"/>
		<path fill="#E0402F" d="M727.057,126.312c-0.576-2.385,1.609-3.736,3.881-3.478c1.865,0.213,6.868,2.401,11.07,8.305
			c3.819,5.365,2.576,11.439,1.658,13.413c-1.418,3.04-4.697,2.291-5.175-0.313c-0.479-2.603-0.306-6.649-2.491-10.07
			C733.814,130.749,727.566,128.422,727.057,126.312z"/>
	</g>
</g>
</svg>
