<?xml version="1.0" encoding="utf-8"?>
<!-- Generator: Adobe Illustrator 16.0.0, SVG Export Plug-In . SVG Version: 6.00 Build 0)  -->
<!DOCTYPE svg PUBLIC "-//W3C//DTD SVG 1.1//EN" "http://www.w3.org/Graphics/SVG/1.1/DTD/svg11.dtd">
<svg version="1.1" id="Layer_1" xmlns="http://www.w3.org/2000/svg" xmlns:xlink="http://www.w3.org/1999/xlink" x="0px" y="0px"
	 width="1300px" height="451px" viewBox="0 0 1300 451" enable-background="new 0 0 1300 451" xml:space="preserve">
<circle fill="#394CD3" cx="186.288" cy="307.446" r="27.179"/>
<circle fill="#2239AA" cx="187.928" cy="293.563" r="5.783"/>
<circle fill="#2239AA" cx="196.89" cy="312.649" r="5.783"/>
<circle fill="#2239AA" cx="174.723" cy="313.999" r="3.277"/>
<circle fill="#2239AA" cx="203.83" cy="298.384" r="3.277"/>
<circle fill="#2239AA" cx="184.625" cy="306.814" r="2.417"/>
<circle fill="#2239AA" cx="174.476" cy="295.635" r="2.417"/>
<circle fill="#2239AA" cx="184.168" cy="326.528" r="3.277"/>
<circle fill="#FFE576" cx="959.771" cy="49.797" r="2.75"/>
<linearGradient id="SVGID_1_" gradientUnits="userSpaceOnUse" x1="249.6033" y1="454.5964" x2="155.071" y2="454.5964" gradientTransform="matrix(1 -0.0018 0.0018 1 805.2555 -404.5237)">
	<stop  offset="0" style="stop-color:#FFFFFF;stop-opacity:0"/>
	<stop  offset="1" style="stop-color:#FFE576"/>
</linearGradient>
<polygon opacity="0.8" fill="url(#SVGID_1_)" enable-background="new    " points="961.141,47.474 1055.672,47.301 1055.681,51.94 
	961.15,52.115 "/>
<g>
	<g>
		<path fill="#394CD3" d="M92.532,162.094c-2.778-4.397-6.991-7.484-9.949-11.726c-4.258-6.104-0.068-13.04,0.229-19.507
			c0.265-5.724-2.01-10.203-4.267-15.323c-4.006-9.093-3.019-17.749,5.036-24.033c4.297-3.353,9.18-5.653,12.839-9.794
			c3.374-3.816,5.591-8.819,10.093-11.496c4.979-2.958,12.168-1.196,17.48-0.28c5.67,0.978,10.684,1.2,16.02-1.2
			c5.467-2.462,9.67-6.025,15.678-7.407c5.723-1.314,11.689-1.079,17.48-1.859c7.938-1.071,13.602-6.279,12.6-14.504
			c-1.158-9.514-10.146-16.228-19.086-17.448c-4.396-0.603-9.063,1.117-12.545,3.741c-3.002,2.264-5.758,7.323-9.875,7.153
			c-2.973-0.123-6.057-2.521-8.527-3.916c-2.694-1.521-5.395-2.989-8.252-4.188c-5.445-2.286-10.909-1.7-16.265,0.479
			c-4.888,1.991-8.767,5.961-12.681,9.354c-5.307,4.601-10.789,6.597-17.754,6.874c-8.521,0.341-20.495-1.894-26.619,5.837
			c-2.424,3.062-4.396,6.825-3.559,10.862c1.073,5.166,4.814,9.635,4.941,15.004c0.152,6.488-9.45,11.491-13.961,14.577
			c-3.854,2.637-9.404,5.975-9.896,11.145c-0.571,6.051,7.082,9.734,11.313,12.219c6.306,3.702,11.844,8.436,7.395,16.352
			c-2.23,3.969-6.343,6.592-8.784,10.453c-2.034,3.216-2.093,7.725-0.261,11.038c2.405,4.354,6.37,5.938,11.128,6.575
			c6.349,0.851,13.05-0.781,18.731,2.813c4.66,2.944,8.893,8.182,14.783,5.111c0.795-0.415,0.471-2.499-0.42-2.035
			c-5.955,3.104-10.23-3.16-14.993-5.734c-4.146-2.237-8.933-1.896-13.52-1.992c-5.271-0.109-10.914-0.567-14.199-5.238
			c-4.732-6.725,2.537-12.368,6.544-16.84c5.075-5.67,5.704-13.313-0.087-18.569c-4.157-3.771-20.235-8.919-15.108-16.618
			c5.476-8.227,24.817-12.369,22.606-24.883c-0.918-5.194-4.429-9.607-4.976-14.834c-0.909-8.678,9.273-12.405,15.939-12.981
			c10.661-0.921,20.146,1.238,29.354-5.57c4.94-3.654,8.85-8.194,14.498-10.883c7.356-3.502,14.156-1.47,20.918,2.132
			c3.966,2.112,8.503,6.059,13.296,5.528c2.98-0.329,5.215-4.099,7.195-5.947c10.976-10.255,28.422-2.942,31.396,11.023
			c3.086,14.484-21.832,12.043-29.924,13.903c-4.98,1.146-9.188,3.781-13.471,6.452c-5.833,3.642-12.115,2.76-18.496,1.659
			c-5.131-0.884-10.527-1.688-15.527,0.161c-3.746,1.386-6.145,5.179-8.357,8.263c-3.77,5.249-8.116,8.454-13.442,12.007
			c-4.267,2.848-7.213,5.866-9.388,10.494c-1.961,4.171-1.606,9.41-0.166,13.664c2.578,7.608,6.91,13.771,5.17,22.148
			c-1.08,5.203-2.282,10.035-0.45,15.222c1.979,5.604,8.091,9.167,11.195,14.083C92.268,164.698,93,162.835,92.532,162.094
			L92.532,162.094z"/>
	</g>
</g>
<circle opacity="0.6" fill="#FFE576" enable-background="new    " cx="1009.843" cy="27.623" r="2.65"/>
<linearGradient id="SVGID_2_" gradientUnits="userSpaceOnUse" x1="253.2273" y1="432.5125" x2="204.2556" y2="432.5125" gradientTransform="matrix(1 -0.0018 0.0018 1 805.2555 -404.5237)">
	<stop  offset="0" style="stop-color:#FFFFFF;stop-opacity:0"/>
	<stop  offset="1" style="stop-color:#FFE576"/>
</linearGradient>
<polygon opacity="0.6" fill="url(#SVGID_2_)" enable-background="new    " points="1010.219,25.918 1059.191,25.827 
	1059.197,29.236 1010.225,29.326 "/>
<circle opacity="0.6" fill="#FFFFFF" enable-background="new    " cx="1009.211" cy="27.498" r="1.767"/>
<circle opacity="0.6" fill="#FFE576" enable-background="new    " cx="585.297" cy="322.292" r="2.65"/>
<linearGradient id="SVGID_3_" gradientUnits="userSpaceOnUse" x1="-170.1536" y1="712.0925" x2="-219.1243" y2="712.0925" gradientTransform="matrix(1 0 0 1 804.7998 -389.8008)">
	<stop  offset="0" style="stop-color:#FFFFFF;stop-opacity:0"/>
	<stop  offset="1" style="stop-color:#FFE576"/>
</linearGradient>
<rect x="585.676" y="320.588" opacity="0.6" fill="url(#SVGID_3_)" enable-background="new    " width="48.971" height="3.408"/>
<circle opacity="0.6" fill="#FFFFFF" enable-background="new    " cx="584.666" cy="322.167" r="1.767"/>
<rect x="233.076" y="-269.219" display="none" fill="none" stroke="#394CD3" stroke-width="2" stroke-miterlimit="10" width="407.997" height="239.729"/>
<path fill="#E59123" d="M436.5,174.664c0,0-1.755-1.37-5.964-1.827s-5.536-2.67-8.067-5.479c-1.834-2.036-5.635-8.073-5.635-3.857
	c0,7.333,3.562,12.342,5.666,14.167c2.104,1.827,7.098,4.762,8.5,7.5c1.402,2.74,3.396,0,3.396,0L436.5,174.664z"/>
<path fill="#E8921F" d="M463.815,231.795c0,0,30.006-8.396,35.692-9.052c5.686-0.656,8.481,3.146,10.67,4.24
	c2.187,1.095,7.83,3.76,7.83,3.76s0.624,3.219-5.5,3c-6.124-0.22-9.984-4.572-9.984-4.572s-3.717,2.624-12.684,5.248
	c-8.968,2.625-19.245,6.344-19.245,6.344l-17.934-7.653L463.815,231.795z"/>
<path fill="#D68522" d="M363.375,262.78c-5.278,4.975-10.086,3.211-10.086,3.211s-3.594,0.794-4.44,2.118
	c-0.85,1.325-12.254,14.506-14.848,17.808c-2.75,3.5-2.942,5.579-4.5,8.25c-1.75,3-1.5,8.5,4.5,5.25c3.504-1.896,3.75-6.5,5-9
	c1.929-3.856,8.742-11.487,11.75-12.75c3.008-1.262,8.066-2.367,10.75-1.75c2.682,0.62,19.854,8.729,32.798,0.201
	c12.942-8.523-10.075-33.508-11.17-33.001C382.031,243.625,363.375,262.78,363.375,262.78z"/>
<path fill="#FFB640" d="M466,232.667c0,0-4.5,5.5,4.5,18.5s11,16.5,9.5,16s-30-10.5-32-10.5s-2-24-2-24H466z"/>
<path fill="#FFB640" d="M487.019,268.472l-21.296-16.758c3.272-4.799,5.415-9.938,6.277-15.549
	c1.229-7.989-3.021-17.864-6.479-24.294c-1.782-8.944-5.066-20.56-4.355-21.373c7-7.999,9.806-14.691,10.332-17.333
	c0.5-2.5,0.5-4,0.5-4l-0.823,0.773c0.702-1.268,1.211-2.688,1.323-4.273c0.5-7-2.5-10-2.5-10l-12.166,8.167
	c0,0-26.834,1.833-27.834,19.833c-0.357,6.449,1.5,13.833,0.834,25.5c-2.531,4.722-4.793,6.361-13.668,13.333
	c-14,11-38.166,10.667-46.666,17.667c-0.268,0.221-0.521,0.449-0.767,0.689c-3.375-0.965-8.566-5.022-15.233-13.689
	c-1.718-2.23-3.293-5.121-4.714-8.308c-5.594-12.538-8.786-29.692-8.786-29.692s1.167,11.833,1.167,19.333s2.5,16.167,8,23.667
	s12.333,12.333,16.667,16.667c-2.319,6.105-0.656,19.054,2.666,25.333c-0.188,0.243,4.965,0.081,7.667,0.334
	c10.667,1,47.999-1.001,60.999-7.001c5.416-2.5,11.09-5.67,14.668-9.333c6.271,4.013,14.832,9.014,17.332,10.667
	c4.659,3.087,25.344,12.048,30.668,13c5.322,0.951,7-2.334,7-2.334S493.483,273.29,487.019,268.472z"/>
<g display="none">
	<g display="inline">
		<g>
			<defs>
				<path id="SVGID_4_" d="M456.019,296.805l-21.296-16.758c3.272-4.799,5.415-9.938,6.277-15.549
					c1.229-7.989-3.021-17.864-6.479-24.294c-1.781-8.944-3.389-17.134-3.521-18.206c-0.5-4,8.972-17.858,9.5-20.5
					c0.5-2.5,0.5-4,0.5-4l-0.824,0.773c0.702-1.268,1.211-2.688,1.324-4.273c0.5-7-2.5-10-2.5-10l-12.168,8.167
					c0,0-26.832,1.833-27.832,19.833c-0.358,6.449,1.232,16.372,3.051,25.438c-2.531,4.72-5.178,12.09-14.051,19.062
					c-14,11-40,5-48.5,12c-0.268,0.221-0.521,0.449-0.767,0.689c-3.375-0.965-7.354-3.169-11.233-8.189c-8.5-11-17.5-43.5-17.5-43.5
					s-7.5,6-7.5,13.5s0,18,5.5,25.5s13.5,13,16,14.5c1.85,1.109,8.347,2.492,11.604,3.139c-2.318,6.104-1.363,14.354,1.958,20.635
					c-0.188,0.243-0.368,0.488-0.563,0.729c-6.5,8-14.5,13.5-15,17s-5.5,12.5-11,20s1.5,17,2,15.5s6-13,11.5-21.5s13.5-10.5,15-10.5
					s10,0.5,17-3.5c0,0,7.972-3.599,9.291-5.347c18.497,0.809,41.259-3.466,50.377-9.653c4.936-3.35,6.087-2.67,9.664-6.333
					c6.271,4.013,10.834,4.347,13.334,6c4.66,3.087,24.588,14.687,29.91,15.639c5.324,0.949,7.373-2.627,7.373-2.627
					S462.483,301.623,456.019,296.805z"/>
			</defs>
			<clipPath id="SVGID_5_">
				<use xlink:href="#SVGID_4_"  overflow="visible"/>
			</clipPath>
			<g clip-path="url(#SVGID_5_)">
				<path fill="#EBEDE4" d="M437.166,177.167c-6.668,2.667-19.334,6-22,8c-2.668,2-7.334,6-9.334,8s-4,5.333-4,5.333
					s6-4.667,8-1.333s10-8.667,14-6.667s11.334,29.333,13.334,30.667s0.666,8.001,4.666,0.667s14.668-8.667,8-20.667
					C443.166,189.167,437.166,177.167,437.166,177.167z"/>
				<path fill="#EBEDE4" d="M461.832,258.5c0,9.573-2.796,18.667-12,18.667c-9.205,0-18.668-11.094-18.668-20.667
					c0-9.57-6.869-38.5,2.334-38.5C442.702,218,461.832,248.928,461.832,258.5z"/>
				<path fill="#EBEDE4" d="M397,245c-3.832,3.333-0.334,12.167-5,17.5c-4.668,5.333-11.502,10-22.834,10
					c-11.334,0-13.334,2-19.334-1.333S340.5,266.5,338.5,264.5s10-8.666,12-8.666S397,245,397,245z"/>
				<path fill="#EBEDE4" d="M473.5,301c-7,5-13.5,5.5-12.5,10.5s3.5,8.5,7.5,7.5s4.5-2,6-4.5s3.5-7.5,3.5-7.5L473.5,301z"/>
				<path fill="#EBEDE4" d="M426.5,294c-1.5-0.5-6.5-2-11.5-1s-5,4-14,4.5s-12-7-18-8s-11.5,3-15,9.5
					c-1.442,2.68-1.42,2.809-2.209,8.153C365,312.498,377.5,321,387.5,317.5S426.5,294,426.5,294z"/>
				<path fill="#894E40" d="M317.5,269.5c-5-8-6-9-5.5-17s4-6,5.5-13.5s2-8,2-12.5s-8-17-9.5-16s-18.5,2-15.5,17.5s5,27.5,10.5,33.5
					S317.5,269.5,317.5,269.5z"/>
			</g>
		</g>
	</g>
</g>
<path fill="#E59123" d="M434.832,175.167c0,0,3.933-3.511,6.668-8c4.089-6.712,10-11,11.666-15c1.111-2.668-3.332,13.667-4.166,17.5
	c-1.212,5.571-1.879,5.334-3.834,7.833C443.211,180,434.832,175.167,434.832,175.167z"/>
<ellipse fill="#2D1F1E" stroke="#2D1F1E" stroke-width="0.6875" stroke-miterlimit="10" cx="455.5" cy="170.886" rx="1.547" ry="1.719"/>
<g>
	<g>
		<path fill="#2D1F1E" d="M464.412,179.19c3.188-1.664,5.379-4.395,7.353-7.328c0.582-0.866-0.354-2.979-1.194-1.726
			c-1.788,2.66-3.754,5.16-6.646,6.672C462.99,177.295,463.37,179.734,464.412,179.19L464.412,179.19z"/>
	</g>
</g>
<path fill="#F95E21" d="M576.745,99.456c0.896,5.153-2.557,10.057-7.709,10.951c-5.15,0.896-10.055-2.557-10.948-7.708
	c-0.442-2.547,0.178-5.033,1.54-7.004c1.393-2.016,3.563-3.494,6.168-3.946C570.948,90.853,575.852,94.304,576.745,99.456z"/>
<linearGradient id="SVGID_6_" gradientUnits="userSpaceOnUse" x1="-290.4021" y1="428.7156" x2="-179.7317" y2="428.7156" gradientTransform="matrix(0.9852 -0.1712 0.1712 0.9852 786.6141 -349.1384)">
	<stop  offset="0.0161" style="stop-color:#E92700"/>
	<stop  offset="1" style="stop-color:#FFFFFF;stop-opacity:0"/>
</linearGradient>
<path opacity="0.3" fill="url(#SVGID_6_)" enable-background="new    " d="M568.948,94.411c0,0,46.242-5.496,89.63,16.4
	C698.528,130.973,684.5,126.5,684.5,126.5l-5,7.5c0,0-9.82-7.189-37.158-17.321c-29.833-11.059-71.426-10.938-71.426-10.938
	L568.948,94.411z"/>
<path fill="#E0402F" d="M307,45.5"/>
<g>
	<path fill="#EBEDE4" d="M95.314,156.454c-2.486-3.426-9.216-2.783-15.022,1.438c-5.654,4.106-8.341,10.082-6.187,13.558
		l-0.021,0.017l16.65,22.926l20.479-15.905l-13.462-18.961C97.65,158.66,95.811,157.135,95.314,156.454z"/>
	
		<ellipse transform="matrix(-0.8091 0.5877 -0.5877 -0.8091 291.513 277.3124)" fill="#DBB3A5" cx="100.714" cy="186.005" rx="13" ry="7.668"/>
	<g>
		<g>
			<path fill="#EBEDE4" d="M78.197,172.75c-3.756-0.127-8.09,0.479-10.785,3.362c-2.533,2.708-1.52,6.661,0.602,9.216
				c5.127,6.182,15.885,7.225,21.482,1.184c1.365-1.476,0.035-6.168-1.748-4.242c-3.457,3.729-8.937,3.989-13.47,2.267
				c-1.716-0.651-6.591-3.521-3.805-5.313c2.263-1.453,5.247-1.602,7.847-1.515C80.503,177.784,80.429,172.826,78.197,172.75
				L78.197,172.75z"/>
		</g>
	</g>
</g>
<circle fill="#394CD3" cx="1222.772" cy="96.755" r="25.598"/>
<path opacity="0.7" fill="none" stroke="#4D66E2" stroke-width="2.0375" stroke-linecap="round" stroke-linejoin="round" stroke-miterlimit="10" enable-background="new    " d="
	M1248.73,98.358c12.56,7.414,20.113,14.471,18.528,18.198c-2.375,5.586-24.379,1.572-49.146-8.96
	c-24.769-10.534-42.92-23.604-40.545-29.188c1.602-3.765,12.121-3.17,26.396,0.845"/>
<path opacity="0.7" fill="none" stroke="#4D66E2" stroke-width="2.1457" stroke-miterlimit="10" enable-background="new    " d="
	M1250.945,99.599c13.965,8.019,22.463,15.484,20.873,19.225c-2.381,5.603-26.52,0.698-53.905-10.95
	c-27.392-11.648-47.662-25.634-45.279-31.235c1.604-3.775,13.095-2.78,28.805,1.841"/>
<path opacity="0.7" fill="none" stroke="#4D66E2" stroke-width="2.246" stroke-linecap="round" stroke-linejoin="round" stroke-miterlimit="10" enable-background="new    " d="
	M1253.356,100.995c16.659,8.935,27.781,17.784,26.318,21.272c-2.196,5.227-30.159-1.541-62.45-15.108
	c-32.297-13.571-56.694-28.808-54.5-34.034c1.479-3.521,15.516-1.526,33.849,4.261"/>
<circle fill="#2239AA" cx="198.559" cy="313.522" r="1.376"/>
<path fill="#EFE4D3" d="M461.832,161.5l8.168-5.833c0,0,4,6.167,3.5,9.667s-4.289,4.409-3.334,2.5c0.668-1.333-1.332-4.667-5-4.667
	C462.81,163.167,461.832,161.5,461.832,161.5z"/>
<path fill="#30200A" d="M468.832,158.833l2.168-2.5c0,0,1.832,2.5,1.832,3.833S470.5,159.5,470.5,159.5L468.832,158.833z"/>
<path fill="#FFB640" d="M497.668,277c0,0,6.332-0.333,9.332,0.667s2.334,0.999,0.334,3.333S497.668,277,497.668,277z"/>
<path fill="#F4E9D9" d="M341.833,182.833c-0.333-6.333-2,6.988-2,11.334c0,12.667,2.052,19.722,4.333,26.666
	c1.833,5.584,1.083,0.334,3.333-0.333c1.011-0.3,3,0,3,0s-4.333-10.334-6.333-20.667S341.833,182.833,341.833,182.833z"/>
<path fill="#FFB640" d="M364.745,274.403c-2.97,6.618-8.084,6.834-8.084,6.834s-3.136,2.131-3.411,3.68c-0.277,1.551-3,17.75-4,23.5
	c-0.721,4.139-1.871,7.02-0.25,9s3.231,1.701,3.75-2.25c0.517-3.948,0.771-1.387,2.75-7.5c0.353-1.09,3.206-13.683,5.5-16
	c2.294-2.316,4.036-2.045,6.75-2.5c2.714-0.456,21.981-1.465,30.668-14.302c8.685-12.838-22.153-27.084-22.972-26.196
	C374.631,249.558,364.745,274.403,364.745,274.403z"/>
<path opacity="0.7" fill="none" stroke="#FFFFFF" stroke-width="2" stroke-linecap="round" stroke-linejoin="round" stroke-miterlimit="10" enable-background="new    " d="
	M563.329,94.165c0,0,5.5,1.833,7.833,5.333s2,7.833,2,7.833"/>
<path fill="#FFB640" d="M355.5,307.667c0,0,0.002,12.197-2,14.5c-5,5.75-8.25,1.5-8-2.5s3.5-4.5,3.75-6.25s0.25-7,0.5-7.75
	S355.5,307.667,355.5,307.667z"/>
<path fill="#D68522" d="M339.32,288.874c0,0-4.227,11.441-6.902,12.906c-6.686,3.66-8.258-1.453-6.639-5.119
	c1.622-3.665,4.845-3.007,5.687-4.562c0.842-1.557,2.662-6.479,3.156-7.098C335.115,284.388,339.32,288.874,339.32,288.874z"/>
<path opacity="0.7" fill="none" stroke="#FFFFFF" stroke-width="2" stroke-linecap="round" stroke-linejoin="round" stroke-miterlimit="10" enable-background="new    " d="
	M570.162,99.498c0,0-2.662,6.002-8.667,7.333"/>
<circle fill="#FFFFFF" cx="418.334" cy="351.001" r="2.667"/>
<circle fill="#FFFFFF" cx="121.207" cy="52.139" r="2"/>
<circle fill="#FFFFFF" cx="108.541" cy="123.806" r="2"/>
<circle fill="#FFFFFF" cx="321.167" cy="410.833" r="2"/>
<circle fill="#FFFFFF" cx="899.834" cy="422.166" r="2"/>
<circle fill="#FFFFFF" cx="1104.334" cy="389.001" r="2"/>
<radialGradient id="SVGID_7_" cx="558.4724" cy="1250.4324" r="43.8205" fx="569.1788" fy="1281.5533" gradientTransform="matrix(0.4715 0.8819 -0.8819 0.4715 1310.3164 -904.2979)" gradientUnits="userSpaceOnUse">
	<stop  offset="0" style="stop-color:#FFFFFF;stop-opacity:0"/>
	<stop  offset="1" style="stop-color:#FFE5FF"/>
</radialGradient>
<circle opacity="0.3" fill="url(#SVGID_7_)" enable-background="new    " cx="450.823" cy="178.332" r="43.822"/>
<radialGradient id="SVGID_8_" cx="988.05" cy="417.4792" r="41.4391" fx="998.1747" fy="446.909" gradientTransform="matrix(-0.1683 0.9858 -0.9858 -0.1683 1817.2889 -795.0056)" gradientUnits="userSpaceOnUse">
	<stop  offset="0" style="stop-color:#FFFFFF;stop-opacity:0"/>
	<stop  offset="1" style="stop-color:#FFE5FF"/>
</radialGradient>
<circle opacity="0.2" fill="url(#SVGID_8_)" enable-background="new    " cx="1224.109" cy="97.459" r="41.44"/>
<radialGradient id="SVGID_9_" cx="777.9202" cy="740.863" r="30.4541" fx="785.3608" fy="762.4913" gradientTransform="matrix(0.4715 0.8819 -0.8819 0.4715 1310.3164 -904.2979)" gradientUnits="userSpaceOnUse">
	<stop  offset="0" style="stop-color:#FFFFFF;stop-opacity:0"/>
	<stop  offset="1" style="stop-color:#FFE5FF"/>
</radialGradient>
<circle opacity="0.2" fill="url(#SVGID_9_)" enable-background="new    " cx="1009.787" cy="131.435" r="30.454"/>
<circle fill="#FFFFFF" cx="443.682" cy="93" r="2.681"/>
<circle fill="#FFFFFF" cx="746" cy="27.681" r="2.681"/>
<circle fill="#FFFFFF" cx="303.681" cy="24" r="2.681"/>
<circle fill="#FFFFFF" cx="81.667" cy="280.686" r="3.686"/>
<circle fill="#FFFFFF" cx="254.32" cy="232" r="2.681"/>
<circle fill="#FFFFFF" cx="614.436" cy="361.573" r="2.179"/>
<g opacity="0.6">
	<circle fill="#FFFFFF" cx="713.273" cy="303.944" r="2.683"/>
	<circle fill="#FFFFFF" cx="765.24" cy="333.005" r="2.179"/>
	<circle fill="#FFFFFF" cx="792.836" cy="330.23" r="2.18"/>
	<circle fill="#FFFFFF" cx="828.104" cy="349.591" r="2.18"/>
	<circle fill="#FFFFFF" cx="802.765" cy="304.721" r="2.18"/>
	<polyline fill="none" stroke="#FFFFFF" stroke-width="0.7725" stroke-miterlimit="10" points="713.273,303.943 765.24,333.005 
		792.836,330.23 828.102,349.593 	"/>
	
		<line fill="none" stroke="#FFFFFF" stroke-width="0.7725" stroke-miterlimit="10" x1="792.836" y1="330.23" x2="802.767" y2="304.721"/>
</g>
<line fill="none" stroke="#FFB640" stroke-width="3" stroke-linecap="round" stroke-linejoin="round" stroke-miterlimit="10" x1="1219" y1="201.667" x2="1213.242" y2="198.413"/>
<line fill="none" stroke="#E0402F" stroke-width="3.3488" stroke-linecap="round" stroke-linejoin="round" stroke-miterlimit="10" x1="1137" y1="155" x2="1134.619" y2="159.072"/>
<g>
	<circle fill="#FFB640" cx="1009.41" cy="131.273" r="20.833"/>
	<circle fill="#394CD3" cx="1015.629" cy="120.802" r="4.092"/>
	<circle fill="#394CD3" cx="1006.262" cy="130.637" r="5.527"/>
	<circle fill="#394CD3" cx="1002.238" cy="144.4" r="3.455"/>
	<circle fill="#394CD3" cx="1004.407" cy="116.81" r="2.179"/>
	<circle fill="#394CD3" cx="995.132" cy="131.002" r="2.179"/>
	<circle fill="#394CD3" cx="1024.615" cy="127.13" r="2.18"/>
	<circle fill="#394CD3" cx="1021.11" cy="138.025" r="3.454"/>
</g>
<g id="girl">
	<path fill="#EADEBE" d="M794.125,218.876c-4.507-0.375-19.901-2.253-28.539-7.135s-15.396-8.637-32.293-25.159
		c-16.898-16.521-20.653-20.276-27.413-24.031c-1.076-0.6-2.183-1.178-3.294-1.729c-0.399-0.198-0.778-0.374-1.146-0.535
		c-3.588-2.089-7.107-4.119-7.107-4.119c-1.666-1.333-3.166-2.167-6.332-3.667c-3.165-1.5-9.5-0.667-6.334,0.167
		c2.685,0.706,5,1.166,6.334,2s-2.668-1-3.668-1.333s-4.332-0.5-6.332-1c-1.907-0.477-4.261-0.344-2.596,1.262
		c-0.135-0.031-0.281-0.063-0.404-0.096c-2-0.5-2.771-0.581-3,0.333c-0.151,0.607,1.013,1.388,2.321,2.058
		c-1.778,0.007-3.364,0.271-2.821,1.275c1.166,2.167,4.165,1,8.846,2.378c7.582,2.234,4.524,2.396,8.986,3.289
		c0,0-11.041-0.47-10.666,1.167c0.36,1.576,5.5,1.833,8.834,2.667c2.358,0.59,6.062,1.523,7.332,2
		c0.824,0.311,2.881-0.408,4.668,0.333c2.079,0.865,6.66,3.869,8.832,5.833c3.5,3.167,7.394,7.907,9.834,10.5
		c6.01,6.385,19.069,15.903,30.334,25.667c11.267,9.766,26.986,13.372,37.5,16c15.016,3.754,17.955,9.572,23.522,9.9
		c6.384,0.375,10.515-16.898,10.515-16.898C812.151,220.754,798.633,219.252,794.125,218.876z"/>
	<path fill="#EADEBE" d="M937.369,216.359c24.893-2.616,30.473-3.265,38.776-1.982c1.323,0.205,2.66,0.441,3.989,0.707
		c0.477,0.098,0.922,0.195,1.35,0.303c4.464,0.602,8.833,1.209,8.833,1.209c3.771-0.189,4.025,0.397,7.851,0.571
		c3.666,0.167,9.688,5.356,6.332,4c-2.845-1.147-5.873-1.547-7.565-1.725s3.946,1.255,5.065,1.558
		c2.302,0.622,4.5,2.167,5.357,2.971c1.591,1.483,4.064,2.458,1.628,2.694c0.142,0.063,0.291,0.131,0.422,0.188
		c2.105,0.877,2.854,1.308,2.53,2.2c-0.213,0.594-1.72,0.479-3.296,0.185c1.606,1.149,2.896,2.385,1.823,2.856
		c-2.313,1.019-4.359-1.862-9.403-3.747c-8.175-3.055-5.495-0.954-10.062-3.099c0,0,10.295,6.717,9.01,7.813
		c-1.239,1.054-6.055-2.041-9.563-3.505c-2.48-1.037-6.381-2.655-7.812-3.084c-0.93-0.277-2.378-2.187-4.432-2.729
		c-2.388-0.631-8.282-1.126-11.391-0.918c-5.007,0.332-11.279,1.698-14.996,2.243C942.68,226.413,912.481,218.976,937.369,216.359z"
		/>
	<path fill="#EADEBE" d="M1085,247c0,0,6-1,9.5-1s5-1,11-2s26-1,31,0.5s16,10,16,10s2,2,0.5,3s-3.5,1-13,1s-14.5,0.5-19,0
		s-14,0.5-17.5,1s-20,0.5-20,0.5"/>
	<path fill="#EADEBE" d="M1066.5,334.472c0,0,6,1.036,9.5,1.036s5,1.035,11,2.071s26,1.036,31-0.519c5-1.557,16-10.363,16-10.363
		s2-2.072,0.5-3.108c-1.5-1.034-3.5-1.034-13-1.034s-14.5-0.521-19,0c-4.5,0.518-14-0.521-17.5-1.036c-3.5-0.521-20-0.521-20-0.521"
		/>
	<path fill="#EADEBE" d="M778.362,148.033c0,0,1.45,11.123,1.692,14.508c0.242,3.387,4.987,12.798,7.405,20.294
		c2.419,7.496,12.629,9.198,15.771,10.892c3.142,1.692,8.688,8.362,10.139,11.266c1.451,2.902,4.507,7.047,4.507,11.644
		c0,4.594,37.293-8.634,32.123-8.634c-9.389,0-23.277-25.39-24.486-35.062s-4.354-27.807-10.155-28.532
		C809.555,143.682,778.362,148.033,778.362,148.033z"/>
	<circle fill="none" stroke="#394CD3" stroke-width="2" stroke-miterlimit="10" cx="782.245" cy="166.636" r="7.27"/>
	<circle fill="none" stroke="#394CD3" stroke-width="2" stroke-miterlimit="10" cx="798.22" cy="166.636" r="7.27"/>
	<path fill="none" stroke="#FFFFFF" stroke-width="1.9344" stroke-linecap="round" stroke-miterlimit="10" d="M777.575,166.674
		c0-2.869,2.327-5.196,5.198-5.196"/>
	<path fill="none" stroke="#FFFFFF" stroke-width="1.9344" stroke-linecap="round" stroke-miterlimit="10" d="M793.709,166.823
		c0-2.871,2.325-5.198,5.197-5.198"/>
	<path fill="#E0402F" d="M812.507,150.412c0,0-12.447,3.172-24.949,3.923c-12.503,0.75-15.97,0.282-20.971-2.719
		s-8.594-12.707-3.844-15.958c4.751-3.25,11.005,0,22.757,1.75s17.248-2.909,26.5-3.409s17.009-2.093,21.261,7.66
		c4.251,9.752,5.751,24.755,11.002,34.256c5.251,9.502,31.651,21.249,42.903,20.751c11.252-0.502,28.082,11.583,30.834,14.833
		c2.75,3.252,7.004,18.5-12,21c-19.007,2.5-26.479,0.682-47.234-15.072C838.012,201.672,825,204.504,822.5,190.5
		c-2.502-14.002-2.5-20.999-4.5-27S812.507,150.412,812.507,150.412z"/>
	<path fill="#394CD3" d="M712.5,180.833c0,0,8.366,8.536,14,14.167c5.634,5.634,14.744,10.245,18.5,14c12,8,11.108,8.618,23.5,13.5
		c12.394,4.882,29.869,15.373,32.5,16.499c2.629,1.127,21.445,14.186,24.832,16.667c5,3.667,6.864,3.953,14,7.333
		s9.405,4.992,17.668,11c8.262,6.008,13.666,12.333,33,22c13.223,6.611,21.591,11.297,33,13.334
		c9.332,1.666,33.316,8.688,43.832,11.691c10.516,3.004,28.539,6.384,44.688,8.261c16.146,1.878,37.551,8.262,44.688,7.886
		c7.136-0.375,11.642-1.502,11.642-1.502L1077,338l-3.396-7.963L1076,318.5l-6-1.5c0,0-2.78,3.274-13.67-1.981
		c-10.892-5.257-7.658-8.654-30.83-10.019c-22.668-1.333-25.873-0.498-47.277-11.763c-21.404-11.266-27.037-10.891-37.176-14.646
		c-10.142-3.757-12.395-9.015-12.395-9.015s6.009-3.004,16.523-3.004c10.514,0,30.792-4.131,51.818-1.127
		c21.029,3.005,43.187,11.266,58.581,7.511c15.396-3.755,15.587-2.293,19.587-3.959s9.328-6.556,9.328-6.556l4.506-1.126
		l-1.502-16.147h-6.008c0,0-3.38,1.877-18.025-1.502c-14.646-3.38-12.299-4.335-31.168-4.131
		c-23.95,0.259-30.041-1.878-45.062-4.882s-31.919-2.629-43.937-3.38s-10.162-1.9-18.801-2.276
		c-8.637-0.375-17.334,3.333-17.334,3.333s-6.857,1.383-16.999-3.499c-10.139-4.882-4.568-7.496-14.334-10.5
		c-9.764-3.005-17.022-3.204-19.651-6.584s-12.394-6.009-12.394-6.009l-17.647,6.76c0,0-9.85-2.284-16.141-2.501
		c-5.045-0.174-10.778-2.492-18.497-3.499c-7.666-1-10.278-5.514-21.5-10.5c-9-4-13.329-6.165-18.5-10.5c-11-6.5-14-9.5-19-12
		s-14-3.5-14-3.5L712.5,180.833z"/>
	<path fill="#394CD3" d="M842.88,206.007c0,0,9.276-5.173,15.286-5.173c6.009,0,16.117,1.164,21,2.667
		c4.883,1.502,19.666,4.011,25.675,4.011c6.008,0,13.894,1.502,21.026,2.254c7.137,0.751,15.771,0,21.78,1.877
		c6.008,1.878,18.353,0.858,18.353,0.858l1,13.5c0,0-11.867-0.5-17.5-0.5c-5.635,0-18.785,0.792-23.668,1.167
		c-4.883,0.376-19.604,0.742-25.332,0.333c-7-0.5-9.365,2.127-16.5,1c-7.137-1.126-20.093-5.846-23.848-5.846
		C856.398,222.154,842.88,206.007,842.88,206.007z"/>
	<g>
		<g>
			<path fill="#E0402F" d="M793.046,185.359c3.13-0.031,6.243-0.569,8.607-2.771c1.115-1.034,0.157-4.547-1.311-3.182
				c-2.024,1.882-4.734,2.204-7.393,2.231C791.3,181.657,791.383,185.377,793.046,185.359L793.046,185.359z"/>
		</g>
	</g>
	<g opacity="0.2">
		<g>
			<path fill="#E0402F" d="M807.041,177.455c1.39-1.715,2.941-3.286,4.332-5.001c0.779-0.962,0.981-2.24,0.502-3.407
				c-0.321-0.777-1.478-1.787-2.25-0.835c-1.391,1.716-2.943,3.286-4.332,5c-0.78,0.962-0.982,2.241-0.502,3.407
				C805.113,177.398,806.268,178.409,807.041,177.455L807.041,177.455z"/>
		</g>
	</g>
	
		<radialGradient id="SVGID_10_" cx="712.7854" cy="926.2595" r="53.7684" fx="725.9224" fy="964.4455" gradientTransform="matrix(0.4715 0.8819 -0.8819 0.4715 1310.3164 -904.2979)" gradientUnits="userSpaceOnUse">
		<stop  offset="0" style="stop-color:#FFFFFF;stop-opacity:0"/>
		<stop  offset="1" style="stop-color:#FFE5FF"/>
	</radialGradient>
	<circle opacity="0.3" fill="url(#SVGID_10_)" enable-background="new    " cx="804.906" cy="161.703" r="53.769"/>
	<path fill="none" stroke="#263B9E" stroke-width="1.3" stroke-miterlimit="10" d="M826.139,212.501c0,0,8.361,14.999,19.361,23.499
		s19,13.5,24.5,15s25,9,33.5,11s25.152,7.579,25.152,7.579"/>
</g>
<g id="Layer_3" display="none">
	<g display="inline" opacity="0.3">
		
			<circle opacity="0.7" fill="none" stroke="#F4E9D9" stroke-width="2" stroke-linecap="round" stroke-linejoin="round" stroke-miterlimit="10" enable-background="new    " cx="705.764" cy="721.5" r="6.736"/>
		
			<circle opacity="0.7" fill="none" stroke="#F4E9D9" stroke-width="2" stroke-linecap="round" stroke-linejoin="round" stroke-miterlimit="10" enable-background="new    " cx="705.764" cy="721.5" r="30.135"/>
		
			<circle opacity="0.7" fill="none" stroke="#F4E9D9" stroke-width="2" stroke-linecap="round" stroke-linejoin="round" stroke-miterlimit="10" enable-background="new    " cx="705.764" cy="721.5" r="67.832"/>
		
			<path opacity="0.7" fill="none" stroke="#F4E9D9" stroke-width="2" stroke-linecap="round" stroke-linejoin="round" stroke-miterlimit="10" enable-background="new    " d="
			M820.096,721.5c0,63.147-51.187,114.332-114.332,114.332c-63.147,0-114.332-51.185-114.332-114.332
			c0-63.146,51.185-114.332,114.332-114.332C768.909,607.168,820.096,658.353,820.096,721.5z"/>
	</g>
	<g display="inline">
		<path fill="#E0402F" d="M838.059,191.899c2.307-0.188,3.172,2.339,2.534,4.674c-0.524,1.916-3.423,6.776-9.62,10.146
			c-5.633,3.063-11.033,0.692-12.697-0.614c-2.564-2.02-1.297-5.321,1.194-5.366s6.204,0.846,9.751-0.847
			C832.768,198.201,836.016,192.063,838.059,191.899z"/>
		<path fill="#E0402F" d="M790.426,193.712c-1.78-1.569-0.754-4.026,1.229-5.234c1.627-0.99,6.887-2.34,13.541-0.182
			c6.053,1.966,8.391,7.662,8.73,9.833c0.523,3.351-2.543,4.786-4.363,2.978c-1.82-1.812-3.91-5.197-7.563-6.604
			C798.346,193.094,792.002,195.104,790.426,193.712z"/>
		<path fill="#E0402F" d="M843.939,186.087c-1.755,1.666-3.875,0.27-4.676-1.975c-0.658-1.838-1.056-7.538,2.043-14.252
			c2.817-6.102,8.507-7.817,10.586-7.894c3.204-0.117,4.043,3.295,2.06,4.971c-1.982,1.679-5.479,3.433-7.388,7.09
			C844.656,177.685,845.492,184.612,843.939,186.087z"/>
		<path fill="#E0402F" d="M785.025,187.661c0.865,2.284-1.136,3.928-3.42,3.986c-1.875,0.048-7.104-1.425-11.994-6.692
			c-4.446-4.79-3.959-10.982-3.291-13.066c1.033-3.211,4.375-2.926,5.168-0.409c0.794,2.512,1.119,6.549,3.706,9.637
			C777.781,184.201,784.262,185.64,785.025,187.661z"/>
		<path fill="#E0402F" d="M764.809,162.989c1.204,2.104-0.516,4.072-2.761,4.527c-1.843,0.375-7.229-0.167-12.862-4.512
			c-5.124-3.947-5.596-10.146-5.257-12.316c0.522-3.35,3.864-3.647,5.034-1.309c1.17,2.344,2.109,6.269,5.14,8.861
			C757.13,160.838,763.742,161.128,764.809,162.989z"/>
		<path fill="#E0402F" d="M727.057,126.312c-0.576-2.385,1.609-3.736,3.881-3.479c1.865,0.213,6.868,2.401,11.07,8.306
			c3.818,5.364,2.576,11.438,1.658,13.413c-1.418,3.04-4.697,2.291-5.176-0.313c-0.479-2.603-0.306-6.649-2.49-10.07
			C733.814,130.749,727.566,128.422,727.057,126.312z"/>
	</g>
</g>
<g opacity="0.5">
	<circle fill="#FFFFFF" cx="227.5" cy="97" r="2.886"/>
	<circle fill="#FFFFFF" cx="189.63" cy="102.969" r="2.345"/>
	<circle fill="#FFFFFF" cx="289.29" cy="116.635" r="3.191"/>
	<polyline fill="none" stroke="#FFFFFF" stroke-width="0.8313" stroke-miterlimit="10" points="189.631,102.969 227.5,97 
		289.29,116.634 276.111,161.08 	"/>
	<circle fill="#FFFFFF" cx="276.11" cy="161.08" r="3.117"/>
</g>
<linearGradient id="SVGID_11_" gradientUnits="userSpaceOnUse" x1="357.7405" y1="1321.24" x2="357.7405" y2="1389.8845" gradientTransform="matrix(0.9902 0.1395 0.1395 -0.9902 185.2467 1435.1248)">
	<stop  offset="0.0161" style="stop-color:#FFDFBF"/>
	<stop  offset="0.6552" style="stop-color:#FFFFFF;stop-opacity:0"/>
</linearGradient>
<path opacity="0.3" fill="url(#SVGID_11_)" enable-background="new    " d="M715,175.5c0,0-18.005-12.891-21.757-14.934
	c-3.752-2.044-5.098-3.243-8.919-4.792c-3.82-1.549-9.669-3.046-9.669-3.046s13.932-18.167,44.845-31.229
	c35.5-15,58.455-5.354,61-5.5c2.546-0.146,0.5,27.5,0.5,27.5s-31.5,4.5-42.5,10C725.786,159.856,716.898,169.203,715,175.5z"/>
</svg>
