<?xml version="1.0" encoding="utf-8"?>
<!-- Generator: Adobe Illustrator 16.0.0, SVG Export Plug-In . SVG Version: 6.00 Build 0)  -->
<!DOCTYPE svg PUBLIC "-//W3C//DTD SVG 1.1//EN" "http://www.w3.org/Graphics/SVG/1.1/DTD/svg11.dtd">
<svg version="1.1" id="Layer_1" xmlns="http://www.w3.org/2000/svg" xmlns:xlink="http://www.w3.org/1999/xlink" x="0px" y="0px"
	 width="1300px" height="451px" viewBox="0 0 1300 451" enable-background="new 0 0 1300 451" xml:space="preserve">
<circle fill="#394CD3" cx="186.288" cy="307.446" r="27.179"/>
<circle fill="#2239AA" cx="187.928" cy="293.563" r="5.783"/>
<circle fill="#2239AA" cx="196.89" cy="312.649" r="5.783"/>
<circle fill="#2239AA" cx="174.723" cy="313.999" r="3.277"/>
<circle fill="#2239AA" cx="203.83" cy="298.384" r="3.277"/>
<circle fill="#2239AA" cx="184.625" cy="306.814" r="2.417"/>
<circle fill="#2239AA" cx="174.476" cy="295.635" r="2.417"/>
<circle fill="#2239AA" cx="184.168" cy="326.528" r="3.277"/>
<circle fill="#FFE576" cx="959.771" cy="49.797" r="2.75"/>
<linearGradient id="SVGID_1_" gradientUnits="userSpaceOnUse" x1="-29.6238" y1="150.2175" x2="-124.156" y2="150.2175" gradientTransform="matrix(1 -0.0018 -0.0018 -1 1085.5723 199.7874)">
	<stop  offset="0" style="stop-color:#FFFFFF;stop-opacity:0"/>
	<stop  offset="1" style="stop-color:#FFFFFF"/>
</linearGradient>
<polygon opacity="0.8" fill="url(#SVGID_1_)" enable-background="new    " points="961.141,47.474 1055.673,47.301 1055.681,51.94 
	961.15,52.115 "/>
<g>
	<g>
		<path fill="#394CD3" d="M92.532,162.094c-2.778-4.397-6.991-7.484-9.949-11.726c-4.258-6.104-0.067-13.04,0.229-19.508
			c0.265-5.724-2.01-10.203-4.268-15.322c-4.006-9.094-3.019-17.749,5.036-24.033c4.297-3.354,9.181-5.653,12.839-9.794
			c3.374-3.816,5.592-8.819,10.094-11.496c4.979-2.958,12.168-1.196,17.479-0.28c5.67,0.979,10.685,1.2,16.021-1.2
			c5.467-2.462,9.67-6.024,15.678-7.406c5.723-1.314,11.688-1.079,17.479-1.859c7.938-1.071,13.603-6.279,12.601-14.504
			c-1.158-9.514-10.146-16.229-19.086-17.448c-4.396-0.603-9.063,1.117-12.545,3.741c-3.002,2.264-5.759,7.323-9.875,7.153
			c-2.974-0.123-6.058-2.521-8.527-3.916c-2.694-1.521-5.395-2.989-8.252-4.188c-5.445-2.286-10.909-1.7-16.265,0.479
			c-4.889,1.99-8.768,5.961-12.682,9.354c-5.307,4.601-10.789,6.597-17.754,6.874c-8.521,0.341-20.495-1.894-26.619,5.837
			c-2.424,3.063-4.396,6.825-3.559,10.862c1.073,5.166,4.813,9.635,4.94,15.004c0.152,6.488-9.449,11.491-13.961,14.577
			c-3.854,2.637-9.403,5.975-9.896,11.145c-0.571,6.051,7.082,9.734,11.313,12.22c6.307,3.701,11.845,8.436,7.396,16.352
			c-2.23,3.969-6.343,6.592-8.784,10.453c-2.034,3.216-2.093,7.725-0.261,11.038c2.405,4.354,6.37,5.938,11.128,6.575
			c6.349,0.851,13.05-0.781,18.73,2.813c4.66,2.944,8.894,8.182,14.783,5.111c0.795-0.415,0.472-2.499-0.42-2.035
			c-5.955,3.104-10.229-3.16-14.993-5.734c-4.146-2.236-8.933-1.896-13.52-1.992c-5.271-0.108-10.914-0.566-14.199-5.237
			c-4.732-6.726,2.537-12.368,6.544-16.84c5.075-5.671,5.704-13.313-0.087-18.569c-4.157-3.771-20.235-8.919-15.108-16.618
			c5.477-8.227,24.817-12.369,22.606-24.883c-0.918-5.194-4.429-9.607-4.976-14.834c-0.909-8.678,9.272-12.405,15.938-12.981
			c10.661-0.921,20.146,1.238,29.354-5.569c4.939-3.654,8.85-8.194,14.498-10.884c7.355-3.502,14.155-1.47,20.918,2.133
			c3.966,2.111,8.503,6.059,13.296,5.527c2.979-0.329,5.215-4.099,7.194-5.946c10.977-10.256,28.422-2.942,31.396,11.022
			c3.086,14.484-21.832,12.043-29.924,13.903c-4.98,1.146-9.188,3.781-13.472,6.452c-5.833,3.642-12.114,2.76-18.496,1.658
			c-5.131-0.884-10.526-1.688-15.526,0.161c-3.746,1.387-6.146,5.18-8.357,8.264c-3.77,5.249-8.116,8.454-13.441,12.007
			c-4.268,2.848-7.213,5.866-9.389,10.494c-1.961,4.171-1.605,9.41-0.166,13.664c2.578,7.607,6.91,13.771,5.17,22.147
			c-1.079,5.203-2.281,10.035-0.449,15.222c1.979,5.604,8.091,9.167,11.194,14.083C92.268,164.698,93,162.835,92.532,162.094
			L92.532,162.094z"/>
	</g>
</g>
<circle opacity="0.6" fill="#FFE576" enable-background="new    " cx="1009.844" cy="27.623" r="2.65"/>
<linearGradient id="SVGID_2_" gradientUnits="userSpaceOnUse" x1="-26.0002" y1="172.301" x2="-74.9729" y2="172.301" gradientTransform="matrix(1 -0.0018 -0.0018 -1 1085.5723 199.7874)">
	<stop  offset="0" style="stop-color:#FFFFFF;stop-opacity:0"/>
	<stop  offset="1" style="stop-color:#FFFFFF"/>
</linearGradient>
<polygon opacity="0.6" fill="url(#SVGID_2_)" enable-background="new    " points="1010.219,25.918 1059.191,25.827 
	1059.197,29.236 1010.225,29.326 "/>
<circle opacity="0.6" fill="#FFFFFF" enable-background="new    " cx="1009.211" cy="27.498" r="1.767"/>
<circle opacity="0.6" fill="#FFE576" enable-background="new    " cx="585.298" cy="322.292" r="2.65"/>
<linearGradient id="SVGID_3_" gradientUnits="userSpaceOnUse" x1="-449.2537" y1="-107.6912" x2="-498.2244" y2="-107.6912" gradientTransform="matrix(1 0 0 -1 1083.9004 214.6001)">
	<stop  offset="0" style="stop-color:#FFFFFF;stop-opacity:0"/>
	<stop  offset="1" style="stop-color:#FFF9FF"/>
</linearGradient>
<rect x="585.677" y="320.588" opacity="0.6" fill="url(#SVGID_3_)" enable-background="new    " width="48.971" height="3.407"/>
<circle opacity="0.6" fill="#FFFFFF" enable-background="new    " cx="584.666" cy="322.167" r="1.767"/>
<rect x="233.076" y="-269.219" display="none" fill="none" stroke="#394CD3" stroke-width="2" stroke-miterlimit="10" width="407.997" height="239.729"/>
<path fill="#E59123" d="M436.5,174.664c0,0-1.755-1.37-5.964-1.827s-5.536-2.67-8.066-5.479c-1.834-2.036-5.636-8.072-5.636-3.856
	c0,7.333,3.563,12.342,5.666,14.167c2.104,1.827,7.099,4.762,8.5,7.5c1.402,2.74,3.396,0,3.396,0L436.5,174.664z"/>
<path fill="#E8921F" d="M463.815,231.795c0,0,30.006-8.396,35.692-9.052c5.686-0.656,8.48,3.146,10.67,4.239
	c2.187,1.096,7.83,3.761,7.83,3.761s0.624,3.219-5.5,3c-6.124-0.221-9.984-4.572-9.984-4.572s-3.717,2.624-12.684,5.248
	c-8.969,2.625-19.245,6.344-19.245,6.344l-17.935-7.653L463.815,231.795z"/>
<path fill="#D68522" d="M363.375,262.78c-5.277,4.976-10.086,3.212-10.086,3.212s-3.594,0.794-4.439,2.117
	c-0.851,1.325-12.254,14.507-14.849,17.809c-2.75,3.5-2.941,5.579-4.5,8.25c-1.75,3-1.5,8.5,4.5,5.25c3.504-1.896,3.75-6.5,5-9
	c1.93-3.856,8.742-11.487,11.75-12.75c3.009-1.263,8.066-2.367,10.75-1.75c2.683,0.62,19.854,8.729,32.798,0.201
	c12.942-8.523-10.074-33.509-11.17-33.001C382.031,243.625,363.375,262.78,363.375,262.78z"/>
<path fill="#FFB640" d="M466,232.667c0,0-4.5,5.5,4.5,18.5s11,16.5,9.5,16s-30-10.5-32-10.5s-2-24-2-24H466z"/>
<path fill="#FFB640" d="M487.019,268.472l-21.296-16.758c3.271-4.799,5.415-9.938,6.276-15.549
	c1.229-7.989-3.021-17.864-6.479-24.294c-1.782-8.944-5.066-20.561-4.355-21.373c7-7.999,9.807-14.691,10.332-17.333
	c0.5-2.5,0.5-4,0.5-4l-0.822,0.772c0.702-1.268,1.211-2.688,1.322-4.272c0.5-7-2.5-10-2.5-10l-12.166,8.167
	c0,0-26.834,1.833-27.834,19.833c-0.356,6.448,1.5,13.833,0.834,25.5c-2.53,4.722-4.793,6.36-13.668,13.333
	c-14,11-38.166,10.667-46.666,17.667c-0.268,0.221-0.521,0.448-0.767,0.688c-3.375-0.965-8.566-5.021-15.233-13.688
	c-1.718-2.23-3.293-5.121-4.714-8.309c-5.594-12.538-8.786-29.691-8.786-29.691s1.167,11.833,1.167,19.333s2.5,16.167,8,23.667
	s12.333,12.333,16.667,16.667c-2.318,6.104-0.655,19.054,2.666,25.333c-0.188,0.243,4.965,0.081,7.667,0.334
	c10.667,1,47.999-1.001,60.999-7.001c5.416-2.5,11.091-5.67,14.668-9.333c6.271,4.013,14.832,9.014,17.332,10.667
	c4.659,3.087,25.345,12.048,30.668,13c5.322,0.95,7-2.334,7-2.334S493.483,273.29,487.019,268.472z"/>
<g display="none">
	<g display="inline">
		<g>
			<g>
				<defs>
					<path id="SVGID_4_" d="M456.019,296.805l-21.296-16.758c3.271-4.799,5.415-9.938,6.276-15.549
						c1.229-7.989-3.021-17.864-6.479-24.294c-1.781-8.944-3.389-17.135-3.521-18.206c-0.5-4,8.973-17.858,9.5-20.5
						c0.5-2.5,0.5-4,0.5-4l-0.823,0.772c0.702-1.268,1.211-2.688,1.323-4.272c0.5-7-2.5-10-2.5-10l-12.168,8.167
						c0,0-26.832,1.833-27.832,19.833c-0.357,6.448,1.232,16.372,3.052,25.438c-2.531,4.72-5.179,12.09-14.052,19.063
						c-14,11-40,5-48.5,12c-0.268,0.221-0.521,0.448-0.767,0.688c-3.375-0.965-7.354-3.169-11.233-8.188
						c-8.5-11-17.5-43.5-17.5-43.5s-7.5,6-7.5,13.5s0,18,5.5,25.5s13.5,13,16,14.5c1.851,1.108,8.348,2.491,11.604,3.139
						c-2.318,6.104-1.363,14.354,1.958,20.635c-0.188,0.243-0.368,0.488-0.563,0.729c-6.5,8-14.5,13.5-15,17s-5.5,12.5-11,20
						s1.5,17,2,15.5s6-13,11.5-21.5s13.5-10.5,15-10.5s10,0.5,17-3.5c0,0,7.973-3.6,9.291-5.348
						c18.497,0.81,41.26-3.466,50.377-9.652c4.937-3.351,6.088-2.67,9.665-6.333c6.271,4.013,10.834,4.347,13.334,6
						c4.659,3.087,24.588,14.687,29.909,15.639c5.324,0.949,7.373-2.627,7.373-2.627S462.483,301.622,456.019,296.805z"/>
				</defs>
				<clipPath id="SVGID_5_">
					<use xlink:href="#SVGID_4_"  overflow="visible"/>
				</clipPath>
				<g clip-path="url(#SVGID_5_)">
					<path fill="#EBEDE4" d="M437.166,177.167c-6.668,2.667-19.334,6-22,8c-2.668,2-7.334,6-9.334,8s-4,5.333-4,5.333
						s6-4.667,8-1.333s10-8.667,14-6.667s11.334,29.333,13.334,30.667s0.666,8.001,4.666,0.667s14.668-8.667,8-20.667
						C443.166,189.167,437.166,177.167,437.166,177.167z"/>
					<path fill="#EBEDE4" d="M461.832,258.5c0,9.572-2.796,18.667-12,18.667s-18.668-11.095-18.668-20.667
						c0-9.57-6.868-38.5,2.334-38.5C442.702,218,461.832,248.928,461.832,258.5z"/>
					<path fill="#EBEDE4" d="M397,245c-3.832,3.333-0.334,12.167-5,17.5c-4.668,5.333-11.502,10-22.834,10
						c-11.334,0-13.334,2-19.334-1.333S340.5,266.5,338.5,264.5s10-8.666,12-8.666S397,245,397,245z"/>
					<path fill="#EBEDE4" d="M473.5,301c-7,5-13.5,5.5-12.5,10.5s3.5,8.5,7.5,7.5s4.5-2,6-4.5s3.5-7.5,3.5-7.5L473.5,301z"/>
					<path fill="#EBEDE4" d="M426.5,294c-1.5-0.5-6.5-2-11.5-1s-5,4-14,4.5s-12-7-18-8s-11.5,3-15,9.5
						c-1.441,2.68-1.42,2.809-2.209,8.152C365,312.497,377.5,321,387.5,317.5S426.5,294,426.5,294z"/>
					<path fill="#894E40" d="M317.5,269.5c-5-8-6-9-5.5-17s4-6,5.5-13.5s2-8,2-12.5s-8-17-9.5-16s-18.5,2-15.5,17.5
						s5,27.5,10.5,33.5S317.5,269.5,317.5,269.5z"/>
				</g>
			</g>
		</g>
	</g>
</g>
<path fill="#E59123" d="M434.832,175.167c0,0,3.934-3.512,6.668-8c4.09-6.712,10-11,11.666-15c1.111-2.668-3.332,13.667-4.166,17.5
	c-1.212,5.57-1.879,5.334-3.834,7.833C443.212,180,434.832,175.167,434.832,175.167z"/>
<ellipse fill="#2D1F1E" stroke="#2D1F1E" stroke-width="0.6875" stroke-miterlimit="10" cx="455.5" cy="170.886" rx="1.548" ry="1.719"/>
<g>
	<g>
		<path fill="#2D1F1E" d="M464.412,179.19c3.188-1.664,5.379-4.395,7.354-7.328c0.582-0.865-0.354-2.979-1.194-1.726
			c-1.788,2.66-3.754,5.16-6.646,6.672C462.99,177.295,463.37,179.734,464.412,179.19L464.412,179.19z"/>
	</g>
</g>
<path fill="#F95E21" d="M576.745,99.456c0.896,5.152-2.557,10.057-7.709,10.95c-5.149,0.896-10.055-2.557-10.947-7.708
	c-0.442-2.547,0.178-5.032,1.54-7.004c1.393-2.016,3.563-3.493,6.168-3.945C570.948,90.853,575.852,94.304,576.745,99.456z"/>
<linearGradient id="SVGID_6_" gradientUnits="userSpaceOnUse" x1="-578.3792" y1="216.051" x2="-467.7083" y2="216.051" gradientTransform="matrix(0.9852 -0.1712 -0.1712 -0.9852 1180.7125 236.7839)">
	<stop  offset="0.0161" style="stop-color:#E92700"/>
	<stop  offset="1" style="stop-color:#FFFFFF;stop-opacity:0"/>
</linearGradient>
<path opacity="0.3" fill="url(#SVGID_6_)" enable-background="new    " d="M568.948,94.411c0,0,46.242-5.496,89.63,16.399
	C698.528,130.973,684.5,126.5,684.5,126.5l-5,7.5c0,0-9.819-7.189-37.157-17.321c-29.833-11.059-71.427-10.938-71.427-10.938
	L568.948,94.411z"/>
<path fill="#E0402F" d="M307,45.5"/>
<g>
	<path fill="#EBEDE4" d="M95.314,156.454c-2.486-3.427-9.216-2.783-15.022,1.438c-5.653,4.106-8.341,10.082-6.187,13.559
		l-0.021,0.017l16.65,22.926l20.479-15.905l-13.462-18.961C97.65,158.66,95.811,157.135,95.314,156.454z"/>
	
		<ellipse transform="matrix(0.5877 0.8091 -0.8091 0.5877 192.0196 -4.7907)" fill="#DBB3A5" cx="100.71" cy="186.005" rx="7.668" ry="13"/>
	<g>
		<g>
			<path fill="#EBEDE4" d="M78.197,172.75c-3.756-0.127-8.09,0.479-10.785,3.361c-2.533,2.708-1.52,6.661,0.603,9.217
				c5.127,6.182,15.885,7.225,21.481,1.184c1.365-1.476,0.035-6.168-1.748-4.242c-3.457,3.729-8.937,3.989-13.47,2.268
				c-1.716-0.651-6.591-3.521-3.805-5.313c2.263-1.453,5.247-1.602,7.847-1.515C80.503,177.784,80.429,172.826,78.197,172.75
				L78.197,172.75z"/>
		</g>
	</g>
</g>
<circle fill="#394CD3" cx="1222.772" cy="96.755" r="25.598"/>
<path opacity="0.7" fill="none" stroke="#4D66E2" stroke-width="2.0375" stroke-linecap="round" stroke-linejoin="round" stroke-miterlimit="10" enable-background="new    " d="
	M1248.73,98.358c12.561,7.414,20.113,14.472,18.528,18.198c-2.375,5.586-24.38,1.572-49.146-8.96
	c-24.769-10.534-42.92-23.604-40.545-29.188c1.603-3.766,12.121-3.171,26.396,0.845"/>
<path opacity="0.7" fill="none" stroke="#4D66E2" stroke-width="2.1457" stroke-miterlimit="10" enable-background="new    " d="
	M1250.945,99.599c13.965,8.02,22.463,15.484,20.873,19.225c-2.381,5.604-26.52,0.698-53.905-10.949
	c-27.392-11.648-47.661-25.635-45.278-31.235c1.604-3.775,13.095-2.78,28.805,1.841"/>
<path opacity="0.7" fill="none" stroke="#4D66E2" stroke-width="2.246" stroke-linecap="round" stroke-linejoin="round" stroke-miterlimit="10" enable-background="new    " d="
	M1253.356,100.995c16.659,8.935,27.781,17.783,26.318,21.271c-2.196,5.228-30.159-1.541-62.45-15.107
	c-32.297-13.571-56.694-28.809-54.5-34.034c1.479-3.521,15.516-1.526,33.849,4.261"/>
<circle fill="#2239AA" cx="198.559" cy="313.522" r="1.376"/>
<path fill="#EFE4D3" d="M461.832,161.5l8.168-5.833c0,0,4,6.167,3.5,9.667s-4.288,4.409-3.334,2.5c0.668-1.333-1.332-4.667-5-4.667
	C462.81,163.167,461.832,161.5,461.832,161.5z"/>
<path fill="#30200A" d="M468.832,158.833l2.168-2.5c0,0,1.832,2.5,1.832,3.833S470.5,159.5,470.5,159.5L468.832,158.833z"/>
<path fill="#FFB640" d="M497.668,277c0,0,6.332-0.333,9.332,0.667s2.334,0.999,0.334,3.333S497.668,277,497.668,277z"/>
<path fill="#F4E9D9" d="M341.833,182.833c-0.333-6.333-2,6.987-2,11.334c0,12.667,2.053,19.722,4.333,26.666
	c1.833,5.584,1.083,0.334,3.333-0.333c1.012-0.3,3,0,3,0s-4.333-10.334-6.333-20.667S341.833,182.833,341.833,182.833z"/>
<path fill="#FFB640" d="M364.745,274.403c-2.97,6.618-8.084,6.834-8.084,6.834s-3.136,2.132-3.411,3.681
	c-0.276,1.551-3,17.75-4,23.5c-0.721,4.139-1.871,7.02-0.25,9c1.621,1.979,3.231,1.7,3.75-2.25c0.518-3.948,0.771-1.388,2.75-7.5
	c0.354-1.091,3.206-13.684,5.5-16s4.036-2.045,6.75-2.5c2.714-0.456,21.981-1.465,30.668-14.302
	c8.686-12.839-22.152-27.085-22.972-26.196C374.631,249.558,364.745,274.403,364.745,274.403z"/>
<path opacity="0.7" fill="none" stroke="#FFFFFF" stroke-width="2" stroke-linecap="round" stroke-linejoin="round" stroke-miterlimit="10" enable-background="new    " d="
	M563.329,94.165c0,0,5.5,1.833,7.833,5.333s2,7.833,2,7.833"/>
<path fill="#FFB640" d="M355.5,307.666c0,0,0.002,12.197-2,14.5c-5,5.75-8.25,1.5-8-2.5s3.5-4.5,3.75-6.25s0.25-7,0.5-7.75
	S355.5,307.666,355.5,307.666z"/>
<path fill="#D68522" d="M339.32,288.874c0,0-4.227,11.44-6.902,12.905c-6.686,3.66-8.258-1.453-6.639-5.118
	c1.622-3.665,4.845-3.008,5.687-4.563c0.843-1.557,2.662-6.479,3.156-7.098C335.115,284.388,339.32,288.874,339.32,288.874z"/>
<path opacity="0.7" fill="none" stroke="#FFFFFF" stroke-width="2" stroke-linecap="round" stroke-linejoin="round" stroke-miterlimit="10" enable-background="new    " d="
	M570.162,99.498c0,0-2.662,6.002-8.667,7.333"/>
<circle fill="#FFFFFF" cx="418.334" cy="351.001" r="2.667"/>
<circle fill="#FFFFFF" cx="121.207" cy="52.139" r="2"/>
<circle fill="#FFFFFF" cx="108.541" cy="123.806" r="2"/>
<circle fill="#FFFFFF" cx="321.167" cy="410.832" r="2"/>
<circle fill="#FFFFFF" cx="899.834" cy="422.165" r="2"/>
<circle fill="#FFFFFF" cx="1104.334" cy="389.001" r="2"/>
<radialGradient id="SVGID_7_" cx="463.863" cy="-810.6609" r="43.8202" fx="474.5693" fy="-779.5401" gradientTransform="matrix(0.4715 0.8819 0.8819 -0.4715 967.0905 -613.5093)" gradientUnits="userSpaceOnUse">
	<stop  offset="0" style="stop-color:#FFFFFF;stop-opacity:0"/>
	<stop  offset="1" style="stop-color:#FFE5FF"/>
</radialGradient>
<circle opacity="0.3" fill="url(#SVGID_7_)" enable-background="new    " cx="450.823" cy="178.332" r="43.822"/>
<radialGradient id="SVGID_8_" cx="1047.7595" cy="44.259" r="41.4394" fx="1057.8843" fy="73.6891" gradientTransform="matrix(-0.1683 0.9858 0.9858 0.1683 1372.1565 -931.5787)" gradientUnits="userSpaceOnUse">
	<stop  offset="0" style="stop-color:#FFFFFF;stop-opacity:0"/>
	<stop  offset="1" style="stop-color:#FFE5FF"/>
</radialGradient>
<circle opacity="0.2" fill="url(#SVGID_8_)" enable-background="new    " cx="1224.109" cy="97.459" r="41.44"/>
<radialGradient id="SVGID_9_" cx="683.3103" cy="-301.0916" r="30.4536" fx="690.7507" fy="-279.4636" gradientTransform="matrix(0.4715 0.8819 0.8819 -0.4715 967.0905 -613.5093)" gradientUnits="userSpaceOnUse">
	<stop  offset="0" style="stop-color:#FFFFFF;stop-opacity:0"/>
	<stop  offset="1" style="stop-color:#FFE5FF"/>
</radialGradient>
<circle opacity="0.2" fill="url(#SVGID_9_)" enable-background="new    " cx="1009.787" cy="131.435" r="30.454"/>
<circle fill="#FFFFFF" cx="443.682" cy="93" r="2.681"/>
<circle fill="#FFFFFF" cx="746" cy="27.681" r="2.681"/>
<circle fill="#FFFFFF" cx="303.681" cy="24" r="2.681"/>
<circle fill="#FFFFFF" cx="81.667" cy="280.686" r="3.686"/>
<circle fill="#FFFFFF" cx="254.32" cy="232" r="2.681"/>
<circle fill="#FFFFFF" cx="614.436" cy="361.573" r="2.179"/>
<g opacity="0.6">
	<circle fill="#FFFFFF" cx="713.273" cy="303.944" r="2.683"/>
	<circle fill="#FFFFFF" cx="765.24" cy="333.005" r="2.179"/>
	<circle fill="#FFFFFF" cx="792.836" cy="330.23" r="2.18"/>
	<circle fill="#FFFFFF" cx="828.104" cy="349.591" r="2.18"/>
	<circle fill="#FFFFFF" cx="802.765" cy="304.721" r="2.18"/>
	<polyline fill="none" stroke="#FFFFFF" stroke-width="0.7725" stroke-miterlimit="10" points="713.273,303.943 765.24,333.005 
		792.836,330.23 828.102,349.593 	"/>
	
		<line fill="none" stroke="#FFFFFF" stroke-width="0.7725" stroke-miterlimit="10" x1="792.836" y1="330.23" x2="802.767" y2="304.721"/>
</g>
<line fill="none" stroke="#FFB640" stroke-width="3" stroke-linecap="round" stroke-linejoin="round" stroke-miterlimit="10" x1="1219" y1="201.667" x2="1213.242" y2="198.413"/>
<line fill="none" stroke="#E0402F" stroke-width="3.3488" stroke-linecap="round" stroke-linejoin="round" stroke-miterlimit="10" x1="1137" y1="155" x2="1134.619" y2="159.072"/>
<g>
	<circle fill="#FFB640" cx="1009.41" cy="131.273" r="20.833"/>
	<circle fill="#394CD3" cx="1015.63" cy="120.802" r="4.092"/>
	<circle fill="#394CD3" cx="1006.262" cy="130.637" r="5.527"/>
	<circle fill="#394CD3" cx="1002.238" cy="144.4" r="3.455"/>
	<circle fill="#394CD3" cx="1004.407" cy="116.81" r="2.179"/>
	<circle fill="#394CD3" cx="995.133" cy="131.002" r="2.179"/>
	<circle fill="#394CD3" cx="1024.615" cy="127.13" r="2.18"/>
	<circle fill="#394CD3" cx="1021.11" cy="138.025" r="3.454"/>
</g>
<g id="girl">
	<path fill="#EADEBE" d="M794.125,218.876c-4.507-0.375-19.9-2.253-28.539-7.135c-8.638-4.883-15.396-8.638-32.293-25.159
		s-20.652-20.276-27.412-24.031c-1.076-0.6-2.184-1.178-3.295-1.729c-0.398-0.197-0.777-0.374-1.146-0.534
		c-3.588-2.09-7.107-4.119-7.107-4.119c-1.666-1.333-3.166-2.167-6.331-3.667s-9.5-0.667-6.334,0.167c2.685,0.706,5,1.166,6.334,2
		s-2.669-1-3.669-1.333s-4.331-0.5-6.331-1c-1.907-0.478-4.262-0.344-2.597,1.262c-0.135-0.031-0.281-0.063-0.403-0.096
		c-2-0.5-2.771-0.581-3,0.333c-0.151,0.606,1.013,1.388,2.32,2.058c-1.777,0.007-3.364,0.271-2.82,1.275
		c1.166,2.167,4.164,1,8.846,2.378c7.582,2.233,4.523,2.396,8.986,3.289c0,0-11.041-0.471-10.666,1.167
		c0.359,1.576,5.5,1.833,8.834,2.667c2.357,0.59,6.062,1.522,7.331,2c0.824,0.311,2.882-0.408,4.669,0.333
		c2.078,0.865,6.659,3.869,8.831,5.833c3.5,3.167,7.395,7.907,9.834,10.5c6.011,6.385,19.069,15.902,30.335,25.667
		c11.267,9.766,26.985,13.372,37.5,16c15.016,3.754,17.954,9.571,23.521,9.899c6.384,0.375,10.515-16.897,10.515-16.897
		C812.151,220.754,798.634,219.252,794.125,218.876z"/>
	<path fill="#EADEBE" d="M937.369,216.359c24.894-2.615,30.474-3.265,38.776-1.981c1.323,0.205,2.66,0.44,3.989,0.707
		c0.477,0.098,0.922,0.194,1.35,0.303c4.464,0.602,8.833,1.209,8.833,1.209c3.771-0.189,4.025,0.397,7.851,0.571
		c3.666,0.167,9.688,5.355,6.332,4c-2.845-1.147-5.873-1.547-7.564-1.726c-1.692-0.178,3.946,1.255,5.064,1.559
		c2.303,0.622,4.5,2.167,5.357,2.971c1.591,1.483,4.064,2.458,1.628,2.694c0.142,0.063,0.291,0.131,0.422,0.188
		c2.105,0.877,2.854,1.309,2.53,2.2c-0.213,0.594-1.72,0.479-3.296,0.185c1.606,1.149,2.896,2.386,1.823,2.856
		c-2.313,1.019-4.359-1.862-9.403-3.747c-8.175-3.055-5.495-0.954-10.062-3.099c0,0,10.295,6.717,9.01,7.813
		c-1.239,1.054-6.056-2.041-9.563-3.505c-2.479-1.037-6.381-2.655-7.812-3.084c-0.931-0.277-2.378-2.187-4.433-2.729
		c-2.388-0.632-8.282-1.127-11.391-0.919c-5.007,0.332-11.279,1.698-14.996,2.243C942.68,226.413,912.481,218.976,937.369,216.359z"
		/>
	<path fill="#EADEBE" d="M1085,247c0,0,6-1,9.5-1s5-1,11-2s26-1,31,0.5s16,10,16,10s2,2,0.5,3s-3.5,1-13,1s-14.5,0.5-19,0
		s-14,0.5-17.5,1s-20,0.5-20,0.5"/>
	<path fill="#EADEBE" d="M1066.5,334.472c0,0,6,1.036,9.5,1.036s5,1.035,11,2.07c6,1.036,26,1.036,31-0.519
		c5-1.557,16-10.363,16-10.363s2-2.071,0.5-3.107c-1.5-1.034-3.5-1.034-13-1.034s-14.5-0.521-19,0c-4.5,0.518-14-0.521-17.5-1.036
		c-3.5-0.521-20-0.521-20-0.521"/>
	<path fill="#EADEBE" d="M778.362,148.033c0,0,1.45,11.122,1.692,14.508c0.242,3.387,4.986,12.798,7.404,20.294
		c2.42,7.496,12.63,9.198,15.771,10.892c3.143,1.692,8.688,8.362,10.139,11.267c1.451,2.901,4.508,7.047,4.508,11.644
		c0,4.594,37.293-8.634,32.123-8.634c-9.39,0-23.277-25.391-24.486-35.063s-4.354-27.807-10.155-28.531
		C809.555,143.682,778.362,148.033,778.362,148.033z"/>
	<circle fill="none" stroke="#394CD3" stroke-width="2" stroke-miterlimit="10" cx="782.245" cy="166.635" r="7.27"/>
	<circle fill="none" stroke="#394CD3" stroke-width="2" stroke-miterlimit="10" cx="798.22" cy="166.635" r="7.27"/>
	<path fill="none" stroke="#FFFFFF" stroke-width="1.9344" stroke-linecap="round" stroke-miterlimit="10" d="M777.575,166.674
		c0-2.869,2.327-5.196,5.198-5.196"/>
	<path fill="none" stroke="#FFFFFF" stroke-width="1.9344" stroke-linecap="round" stroke-miterlimit="10" d="M793.709,166.823
		c0-2.87,2.325-5.197,5.197-5.197"/>
	<path fill="#E0402F" d="M812.508,150.412c0,0-12.447,3.172-24.949,3.923c-12.503,0.75-15.97,0.282-20.971-2.719
		c-5.002-3.002-8.595-12.707-3.845-15.958c4.751-3.25,11.005,0,22.757,1.75c11.753,1.75,17.248-2.909,26.5-3.409
		c9.253-0.5,17.01-2.094,21.262,7.66c4.251,9.752,5.751,24.755,11.002,34.256c5.251,9.502,31.65,21.249,42.902,20.751
		c11.253-0.502,28.082,11.583,30.834,14.833c2.75,3.252,7.005,18.5-12,21c-19.007,2.5-26.479,0.682-47.233-15.072
		C838.012,201.672,825,204.504,822.5,190.5c-2.502-14.002-2.5-20.999-4.5-27S812.508,150.412,812.508,150.412z"/>
	<path fill="#394CD3" d="M712.5,180.833c0,0,8.366,8.536,14,14.167c5.635,5.634,14.744,10.245,18.5,14c12,8,11.108,8.618,23.5,13.5
		c12.395,4.882,29.869,15.373,32.5,16.499c2.63,1.127,21.445,14.186,24.832,16.667c5,3.667,6.864,3.953,14,7.333
		c7.137,3.38,9.405,4.992,17.668,11s13.666,12.333,33,22c13.224,6.61,21.592,11.297,33,13.333
		c9.332,1.666,33.316,8.688,43.832,11.691c10.517,3.004,28.539,6.384,44.688,8.261c16.146,1.878,37.551,8.263,44.688,7.887
		c7.136-0.375,11.642-1.502,11.642-1.502L1077,338l-3.396-7.964L1076,318.5l-6-1.5c0,0-2.779,3.273-13.67-1.981
		c-10.892-5.257-7.657-8.654-30.83-10.019c-22.668-1.334-25.873-0.498-47.276-11.764c-21.404-11.266-27.037-10.891-37.176-14.646
		c-10.143-3.757-12.396-9.015-12.396-9.015s6.009-3.005,16.523-3.005c10.514,0,30.792-4.131,51.817-1.127
		c21.029,3.006,43.188,11.267,58.581,7.512c15.396-3.755,15.587-2.293,19.587-3.959s9.328-6.557,9.328-6.557l4.506-1.126
		l-1.502-16.146h-6.008c0,0-3.38,1.877-18.024-1.502c-14.646-3.38-12.3-4.335-31.168-4.131c-23.95,0.259-30.041-1.879-45.063-4.883
		s-31.919-2.629-43.938-3.38c-12.018-0.751-10.161-1.899-18.801-2.275c-8.637-0.375-17.334,3.333-17.334,3.333
		s-6.856,1.383-16.999-3.499c-10.139-4.883-4.567-7.496-14.334-10.5c-9.764-3.006-17.021-3.204-19.65-6.584
		c-2.63-3.381-12.395-6.01-12.395-6.01l-17.646,6.761c0,0-9.851-2.284-16.142-2.501c-5.045-0.175-10.777-2.492-18.497-3.499
		c-7.666-1-10.277-5.515-21.5-10.5c-9-4-13.329-6.165-18.5-10.5c-11-6.5-14-9.5-19-12s-14-3.5-14-3.5L712.5,180.833z"/>
	<path fill="#394CD3" d="M842.881,206.007c0,0,9.275-5.173,15.285-5.173s16.117,1.164,21,2.667
		c4.884,1.502,19.666,4.011,25.676,4.011c6.008,0,13.894,1.502,21.025,2.254c7.138,0.751,15.771,0,21.78,1.877
		c6.008,1.878,18.353,0.858,18.353,0.858l1,13.5c0,0-11.866-0.5-17.5-0.5c-5.635,0-18.784,0.792-23.668,1.167
		c-4.883,0.376-19.604,0.742-25.332,0.333c-7-0.5-9.364,2.127-16.5,1c-7.137-1.126-20.093-5.847-23.848-5.847
		C856.398,222.154,842.881,206.007,842.881,206.007z"/>
	<g>
		<g>
			<path fill="#E0402F" d="M793.047,185.359c3.13-0.03,6.242-0.568,8.606-2.771c1.115-1.034,0.157-4.547-1.311-3.183
				c-2.024,1.883-4.734,2.204-7.394,2.231C791.301,181.656,791.384,185.377,793.047,185.359L793.047,185.359z"/>
		</g>
	</g>
	<g opacity="0.2">
		<g>
			<path fill="#E0402F" d="M807.041,177.455c1.391-1.716,2.941-3.286,4.332-5.001c0.779-0.962,0.981-2.24,0.502-3.407
				c-0.32-0.777-1.478-1.787-2.25-0.835c-1.391,1.716-2.942,3.286-4.332,5c-0.779,0.962-0.981,2.241-0.502,3.407
				C805.113,177.398,806.268,178.409,807.041,177.455L807.041,177.455z"/>
		</g>
	</g>
	
		<radialGradient id="SVGID_10_" cx="618.1746" cy="-486.4885" r="53.7689" fx="631.3117" fy="-448.3022" gradientTransform="matrix(0.4715 0.8819 0.8819 -0.4715 967.0905 -613.5093)" gradientUnits="userSpaceOnUse">
		<stop  offset="0" style="stop-color:#FFFFFF;stop-opacity:0"/>
		<stop  offset="1" style="stop-color:#FFE5FF"/>
	</radialGradient>
	<circle opacity="0.3" fill="url(#SVGID_10_)" enable-background="new    " cx="804.906" cy="161.703" r="53.769"/>
	<path fill="none" stroke="#263B9E" stroke-width="1.3" stroke-miterlimit="10" d="M826.139,212.501c0,0,8.36,14.999,19.36,23.499
		s19,13.5,24.5,15s25,9,33.5,11s25.152,7.579,25.152,7.579"/>
</g>
<g id="Layer_3" display="none">
	<g display="inline" opacity="0.3">
		
			<circle opacity="0.7" fill="none" stroke="#F4E9D9" stroke-width="2" stroke-linecap="round" stroke-linejoin="round" stroke-miterlimit="10" enable-background="new    " cx="705.764" cy="721.5" r="6.736"/>
		
			<circle opacity="0.7" fill="none" stroke="#F4E9D9" stroke-width="2" stroke-linecap="round" stroke-linejoin="round" stroke-miterlimit="10" enable-background="new    " cx="705.764" cy="721.5" r="30.135"/>
		
			<circle opacity="0.7" fill="none" stroke="#F4E9D9" stroke-width="2" stroke-linecap="round" stroke-linejoin="round" stroke-miterlimit="10" enable-background="new    " cx="705.764" cy="721.5" r="67.832"/>
		
			<path opacity="0.7" fill="none" stroke="#F4E9D9" stroke-width="2" stroke-linecap="round" stroke-linejoin="round" stroke-miterlimit="10" enable-background="new    " d="
			M820.096,721.5c0,63.146-51.188,114.332-114.332,114.332c-63.147,0-114.332-51.186-114.332-114.332
			s51.185-114.332,114.332-114.332C768.909,607.168,820.096,658.353,820.096,721.5z"/>
	</g>
	<g display="inline">
		<path fill="#E0402F" d="M838.059,191.899c2.307-0.188,3.172,2.339,2.534,4.674c-0.524,1.916-3.423,6.776-9.62,10.146
			c-5.633,3.063-11.033,0.692-12.697-0.614c-2.563-2.02-1.297-5.32,1.194-5.366c2.49-0.045,6.204,0.847,9.751-0.847
			C832.768,198.201,836.016,192.063,838.059,191.899z"/>
		<path fill="#E0402F" d="M790.427,193.712c-1.78-1.569-0.754-4.026,1.229-5.234c1.627-0.99,6.888-2.34,13.541-0.182
			c6.054,1.966,8.392,7.662,8.73,9.833c0.522,3.351-2.543,4.786-4.363,2.978c-1.82-1.812-3.91-5.196-7.563-6.604
			C798.346,193.094,792.002,195.104,790.427,193.712z"/>
		<path fill="#E0402F" d="M843.939,186.087c-1.755,1.666-3.875,0.27-4.676-1.976c-0.658-1.838-1.057-7.538,2.043-14.252
			c2.816-6.102,8.507-7.816,10.586-7.894c3.204-0.117,4.043,3.295,2.06,4.971c-1.981,1.679-5.479,3.434-7.388,7.09
			C844.656,177.685,845.492,184.612,843.939,186.087z"/>
		<path fill="#E0402F" d="M785.025,187.661c0.865,2.283-1.136,3.928-3.42,3.985c-1.875,0.048-7.104-1.425-11.994-6.691
			c-4.445-4.79-3.959-10.982-3.291-13.066c1.033-3.211,4.375-2.926,5.168-0.409c0.794,2.513,1.119,6.549,3.706,9.638
			C777.781,184.201,784.262,185.64,785.025,187.661z"/>
		<path fill="#E0402F" d="M764.809,162.989c1.204,2.104-0.517,4.072-2.761,4.527c-1.844,0.375-7.229-0.167-12.862-4.512
			c-5.124-3.947-5.596-10.146-5.257-12.316c0.521-3.35,3.863-3.646,5.034-1.309c1.17,2.344,2.108,6.269,5.14,8.86
			C757.131,160.838,763.742,161.128,764.809,162.989z"/>
		<path fill="#E0402F" d="M727.057,126.312c-0.576-2.385,1.608-3.735,3.881-3.479c1.865,0.213,6.868,2.4,11.07,8.306
			c3.817,5.364,2.575,11.438,1.657,13.413c-1.418,3.04-4.696,2.291-5.176-0.313c-0.479-2.603-0.306-6.648-2.49-10.069
			C733.814,130.749,727.566,128.422,727.057,126.312z"/>
	</g>
</g>
<g opacity="0.5">
	<circle fill="#FFFFFF" cx="227.5" cy="97" r="2.886"/>
	<circle fill="#FFFFFF" cx="189.63" cy="102.969" r="2.345"/>
	<circle fill="#FFFFFF" cx="289.29" cy="116.635" r="3.191"/>
	<polyline fill="none" stroke="#FFFFFF" stroke-width="0.8313" stroke-miterlimit="10" points="189.631,102.969 227.5,97 
		289.29,116.634 276.111,161.08 	"/>
	<circle fill="#FFFFFF" cx="276.11" cy="161.08" r="3.117"/>
</g>
<linearGradient id="SVGID_11_" gradientUnits="userSpaceOnUse" x1="90.8699" y1="-542.3064" x2="90.8699" y2="-610.9514" gradientTransform="matrix(0.9902 0.1395 -0.1395 0.9902 558.1636 701.0545)">
	<stop  offset="0.0161" style="stop-color:#FFDFBF"/>
	<stop  offset="0.6552" style="stop-color:#FFFFFF;stop-opacity:0"/>
</linearGradient>
<path opacity="0.3" fill="url(#SVGID_11_)" enable-background="new    " d="M715,175.5c0,0-18.005-12.892-21.757-14.935
	c-3.752-2.044-5.098-3.243-8.919-4.792c-3.819-1.549-9.669-3.046-9.669-3.046s13.933-18.167,44.845-31.229
	c35.5-15,58.455-5.354,61-5.5c2.547-0.146,0.5,27.5,0.5,27.5s-31.5,4.5-42.5,10C725.786,159.856,716.898,169.203,715,175.5z"/>
</svg>
