<?xml version="1.0" encoding="utf-8"?>
<!-- Generator: Adobe Illustrator 16.0.0, SVG Export Plug-In . SVG Version: 6.00 Build 0)  -->
<!DOCTYPE svg PUBLIC "-//W3C//DTD SVG 1.1//EN" "http://www.w3.org/Graphics/SVG/1.1/DTD/svg11.dtd">
<svg version="1.1" id="Layer_1" xmlns="http://www.w3.org/2000/svg" xmlns:xlink="http://www.w3.org/1999/xlink" x="0px" y="0px"
	 width="188.521px" height="62.949px" viewBox="0 49.999 188.521 62.949" enable-background="new 0 49.999 188.521 62.949"
	 xml:space="preserve">
<g>
	<path fill="#EAEAEA" d="M26.644,72.405c-2.592,1.513-5.977,1.801-8.854,2.376c-0.072,0-0.146,0-0.218,0.072
		c-0.574,2.16-1.224,4.393-1.87,6.553c-0.864,3.456-2.376,9.648-1.872,11.233c0.144,0.359,0.144,0.72,0.07,1.08
		c-0.288,1.943-0.72,3.96-0.862,5.903c-0.072,1.8,0.358,3.527,1.296,5.474c0.576-0.576,1.08-0.937,1.368-1.44
		c2.088-1.943,4.393-3.455,5.544-5.544c0,0-0.506,3.816-2.376,6.266c-1.44,2.809-4.971,6.336-7.635,4.682
		c-0.504-0.36-1.366-3.385-1.654-3.96c-0.864-2.017-1.368-4.032-1.08-6.336c0.216-2.232,0.07-4.608,0.07-6.842
		c0.146-3.096,0.146-8.137,0.792-12.89c0.218-0.936,0.288-2.159,0.434-3.455H9.507c-2.448,0-4.968,0.145-7.345,0
		c-0.722-0.072-2.952-0.792-1.872-1.801c0.792-0.72,3.6-0.432,4.606-0.575c1.584-0.36,3.098-0.792,4.608-1.08
		c0.216-0.072,0.359-0.145,0.576-0.145c0.216-3.023,0.432-5.833,0.646-6.409c0.072-0.288,0.146-0.647,0.072-0.937
		c-0.288-1.655,0.072-3.096,1.008-4.464c0.146-0.288,0.216-0.647,0.288-1.008c0.146-0.721,0.072-1.439,0.288-2.089
		c0.36-1.367,0.864-2.735,1.296-4.104c1.944-0.432,3.672-0.145,5.4,0.288c0.862,0.217,1.296,0.937,1.367,1.801
		c0.071,0.432,0.071,0.863,0,1.296c-0.647,4.464-1.297,8.929-1.871,13.395l-0.146,1.151c2.232-0.216,4.395-0.792,6.625-0.937
		c0-1.368,1.8-0.288,2.304,0.145C28.661,71.109,27.724,71.757,26.644,72.405z"/>
	<path fill="#EAEAEA" d="M41.476,102.216c1.944-1.512,3.313-2.951,4.969-3.888c-1.224,3.527-2.158,5.185-3.457,6.625
		c-1.654,1.8-4.318,2.017-6.479,1.151c-1.729-0.721-2.736-2.088-2.952-3.96c-0.432-2.81-0.646-5.688-0.936-8.642
		c-1.514,1.513-1.872,3.527-2.376,5.399c-0.938,2.953-1.729,5.978-2.594,8.93c-0.216,0.721-0.574,1.439-0.936,2.16
		c-1.296,2.663-2.592,2.521-5.185,2.016c-1.297-0.287-1.801-1.367-1.801-2.664c-0.07-3.024-0.144-6.049-0.144-9.073
		c0-0.721-0.072-1.513-0.072-2.735c0.432-3.457,0.432-5.905,1.44-11.377c0.432-4.682,0.504-9.361,1.08-14.042
		c0.504-3.889,1.366-7.777,2.088-11.665c0.504-2.593,1.08-5.186,1.654-7.776c0.218-0.863,0.506-1.655,0.792-2.664
		c1.226,0,2.376-0.072,3.528,0.144c1.44,0.145,1.944,0.792,1.944,2.305c0,0.937-0.146,1.872-0.288,2.809
		c-0.576,3.672-1.226,7.345-1.944,11.018c-0.576,3.239-1.368,6.408-2.088,9.648c-0.072,0.359-0.144,0.72-0.072,1.008
		c0.504,5.544-0.216,10.945-1.15,16.346c-0.504,3.313-1.226,6.625-1.872,9.938c-0.072,0.432,0.072,0.937,0.504,1.512
		c1.08-2.88,2.088-5.76,3.24-8.641c1.15-2.881,2.446-5.833,3.743-8.714c1.225-2.88,2.521-5.688,3.89-8.642
		c1.08-0.071,2.304-0.432,3.456-0.287c1.584,0.145,2.23,1.296,2.088,2.88c-0.146,1.872-0.432,3.672-0.576,5.544
		c-0.072,1.584-0.144,3.168-0.144,4.752c-0.072,0.359,0.144,0.721,0,1.08c-0.938,2.665,0.574,5.329,0.358,7.993
		C41.188,101.064,41.332,101.496,41.476,102.216z"/>
	<path fill="#EAEAEA" d="M64.155,83.781c-0.144,0.505-0.286,0.938-0.574,1.368c-2.088,3.672-4.896,6.983-8.354,10.081
		c-1.224,1.151-2.52,2.376-3.384,3.744c-0.576,0.937-0.648,2.088-0.648,3.168c0,1.655,1.44,3.888,3.168,4.896
		c0.722-0.576,2.306-1.656,3.098-2.305c3.096-2.735,6.552-4.968,8.063-6.552c0,0-0.432,2.735-1.368,4.393
		c-1.512,2.521-3.742,4.032-6.552,6.049c-1.656,1.151-3.168,1.008-5.398,0.433c-3.241-0.864-6.193-3.385-7.347-6.266
		c-0.144-0.359-0.216-0.792-0.358-1.439c-0.218-2.017-0.504-3.528,0.574-7.128c0.792-2.952,2.306-5.833,3.528-8.713
		c0.504-1.08,1.152-2.16,1.8-3.169c0.36-0.575,0.938-1.079,1.368-1.584c0.938-1.008,2.232-1.296,3.816-1.008
		c0.792,0.145,1.656,0.145,2.52,0.288c0.504,0.071,1.008,0.216,1.368,0.433c1.008,0.647,2.088,1.151,3.384,1.512
		C63.867,82.27,64.371,82.99,64.155,83.781z M59.69,83.062c-1.872-0.576-2.016-0.576-2.952,0.433
		c-2.088,2.231-3.312,4.752-3.888,7.417c0,0.145,0.216,0.359,0.36,0.575C56.522,88.175,58.827,85.15,59.69,83.062z"/>
	<path fill="#EAEAEA" d="M106.78,63.044c0.506,1.943,0.36,3.889-0.07,5.762c-0.722,2.808-1.44,5.615-2.88,8.137
		c-0.864,1.513-1.44,3.24-2.16,4.896l-3.744,7.776c-0.216,0.505-0.36,1.08-0.576,1.729l1.512,0.504
		c0.576,0.216,1.226,0.288,1.872,0.504c3.024,1.08,5.187,4.536,4.752,7.633c0,0.217-0.07,0.433-0.216,0.576l-5.398,6.409
		c-0.506,0.504-1.01,1.008-1.368,1.655c-0.576,0.792-1.008,1.729-1.656,2.521c-1.44,2.088-3.6,2.376-5.544,0.792
		c-0.792-0.576-0.938-1.225-0.432-2.231c1.584-3.24,3.888-5.978,6.265-8.713l1.296-1.729c1.44-2.16,0.576-4.465-1.944-5.112
		c-1.15-0.359-2.376-0.647-3.457-1.081c-0.792-0.287-1.438-0.863-2.376-1.512c3.168-3.745,4.682-7.777,6.192-11.81
		c1.44-3.672,2.88-7.346,4.176-11.089c0.792-2.305,0.721-3.241,0.288-5.113c-1.438,0.433-2.448,1.439-3.384,2.521
		c-2.016,2.448-3.96,4.896-5.256,7.85c-0.648,1.513-1.226,3.097-1.656,4.681c-1.08,3.889-2.736,7.705-2.952,11.881l-0.72,10.514
		c-0.146,2.447-0.146,4.823-0.146,7.271c-0.07,1.729-0.792,2.304-2.52,1.729l-1.44-0.505c-1.942-0.647-2.088-0.863-1.942-2.88
		c0.358-3.023,0.72-6.121,0.792-9.217c0.144-5.257,0.071-10.514,0.071-15.771c0.071-5.833-0.793-11.594-2.231-17.282
		c-0.216-0.647-0.288-1.367-0.432-2.017c2.52-0.72,4.822-0.071,6.119,1.873c1.152,1.801,1.944,3.744,1.944,6.049
		c-0.072,2.521-0.072,4.968-0.072,7.488c0.218,0.072,0.434,0.145,0.648,0.145c0.288-0.575,0.72-1.225,0.936-1.873
		c1.944-6.264,6.193-10.801,11.233-14.688c0.648-0.504,1.584-0.792,2.376-0.937C104.835,59.948,106.204,60.956,106.78,63.044z"/>
	<path fill="#EAEAEA" d="M130.106,81.334c0.864,1.008,0.864,2.376,0.288,3.672c-0.864,2.231-1.729,4.537-2.521,6.842
		c-0.288,0.72-1.368,2.521-1.656,3.313v1.512c-0.576,0-1.152,0-1.656-0.216c-2.448-0.792-3.022-1.729-2.23-4.249
		c0.72-2.305,1.584-4.607,2.376-6.913l0.646-2.088c-1.08,0.288-1.512,0.937-1.872,1.584c-2.665,4.104-4.825,8.497-6.191,13.249
		c-0.722,2.664-1.729,5.186-2.664,7.775c-0.434,1.08-0.504,2.231,0.288,3.241c-3.313,2.088-7.273,0.288-7.417-3.528
		c-0.072-1.512,0.288-3.023,0.504-4.537l0.288-2.52c0.574-4.178,0.72-5.978,1.438-10.514c0.072-3.097,1.008-6.121,1.656-9.146
		c0.432-1.8,0.864-2.088,2.808-1.8c1.584,0.287,2.232,0.575,3.098,1.439c-1.44,4.969-2.594,10.009-1.802,15.337l2.953-4.824
		c1.656-2.665,2.952-5.544,5.4-7.562c0.646-0.504,1.368-1.08,2.16-1.296C127.586,79.606,129.098,80.038,130.106,81.334z"/>
	<path fill="#EAEAEA" d="M155.378,98.399c-2.448,5.833-4.32,8.138-5.905,10.657c-1.944,2.376-5.544,1.943-6.84-0.864
		c-0.576-1.08-0.864-2.231-1.44-3.744c-0.862,1.44-1.584,2.664-2.161,3.889c-1.366,2.88-2.88,2.952-5.256,2.735
		c-1.872-0.144-3.6-0.863-4.68-2.665c-0.216-0.359-0.72-5.399-0.144-8.496c1.08-4.536,2.446-6.913,3.672-9.506
		c0.432-0.936,0.936-1.943,1.512-2.808c0.504-0.792,1.152-1.152,2.16-1.08c1.584,0.216,3.168,0,4.752,0.216
		c1.08,0.072,2.088,0.433,3.096,0.792c0.288,0.145,0.504,0.576,0.938,1.296c-1.226,0.145-2.088,0.433-2.952,0.36
		c-1.226-0.072-1.944,0.432-2.665,1.439c-1.368,2.017-2.232,4.248-2.952,6.625c-0.72,2.376-1.296,4.681-1.44,7.2v2.089
		c0.648-0.576,1.01-0.864,1.226-1.225c1.296-2.231,2.448-4.464,3.744-6.553c1.15-1.8,2.446-3.456,3.672-5.112
		c0.504-0.721,1.15-1.08,2.016-0.864c0.36,0.072,0.721,0,1.08,0.072c3.024,0.216,3.384,0.792,2.448,3.672
		c-0.864,2.593-1.296,5.329-1.44,8.064c0,0.288,0.072,0.647,0.146,1.08C149.618,103.296,152.498,100.271,155.378,98.399z"/>
	<path fill="#EAEAEA" d="M165.024,98.399c-1.368,3.313-5.11,9.722-5.761,9.793c-0.648,0-2.52-0.145-3.096-0.432
		c-1.44-0.36-1.944-2.017-2.088-3.528c-0.146-1.296-0.072-3.527-0.218-4.823c0-0.217,0.288-2.593,0-3.385
		c-0.144-2.81-0.144-3.815,0.864-7.345c0.504-0.648,0.504-1.729,1.584-1.872c1.368-0.145,2.736-0.576,4.176,0.575
		c-1.296,2.305-1.08,4.896-1.008,7.489c0.146,2.521-0.646,7.776-0.288,10.297C161.064,102.72,163.224,99.264,165.024,98.399z"/>
	<path fill="#EAEAEA" d="M188.497,98.328c0.216,3.888-1.08,6.625-2.521,8.28c-2.664,2.376-5.112,1.513-7.632-0.575
		c-0.504-0.36-0.938-1.08-1.008-1.656c-0.504-2.447-1.008-4.823,0.216-7.058l1.944-4.104c0.646-1.512,1.15-3.168,0.72-5.472
		c-0.792,0.72-1.368,1.079-1.729,1.584c-3.384,5.186-7.057,10.152-9.505,15.984c-0.358,0.792-0.862,1.513-1.296,2.305
		c-2.592,0.071-4.752-1.584-4.824-3.961c-0.07-3.168,1.368-14.185,1.368-14.185c0.434-0.36,0.36-1.152,0.434-1.801
		c-0.072-0.863,0.216-2.951,0.646-3.384c0.434-0.359,3.744-0.217,3.96,1.439l0.146,2.809c-0.504,1.151-0.146,2.664-0.288,3.96
		c-0.146,1.151-0.434,2.231-0.648,3.384l0.36,0.288c0.358-0.359,0.792-0.576,1.08-1.008c2.23-3.313,4.968-6.266,8.063-8.856
		c0.648-0.576,1.514-1.009,2.376-1.225c1.368-0.288,2.018,0.288,2.952,1.439c1.008,1.368,1.226,2.664,0.864,4.249
		c-0.792,3.456-1.08,7.128-2.304,10.513c-0.434,1.08-0.864,2.376,0.574,3.744C184.32,103.584,186.84,100.488,188.497,98.328z"/>
</g>
<circle fill="#FFB640" cx="158.34" cy="74.648" r="5.007"/>
</svg>
